# FamiTracker text export 0.4.2

# Song information
TITLE           "Gerudo Valley"
AUTHOR          "Paul Mann IV"
COPYRIGHT       "Actually Too Long, pls help"

# Song comment
COMMENT ""

# Global settings
MACHINE         0
FRAMERATE       0
EXPANSION       0
VIBRATO         1
SPLIT           32

# Macros

# DPCM samples
DPCMDEF   0    65 "AkumajouDensetsu_$C000.dmc"
DPCM : 3F FC 7F DC E1 F9 0F DF F7 00 00 00 80 FD FF FF FF FE FE 7E 00 00 04 21 12 FC FF FF FF 07 00 00
DPCM : 00 00 C0 B7 FB FF FF FF FF FE FE FE 02 00 80 20 44 21 49 32 46 19 23 F8 FF FF FF FF 00 00 00 00
DPCM : FE
DPCMDEF   1   513 "AkumajouDensetsu_$C040.dmc"
DPCM : FE FF DE FF E3 EF 8C 44 40 31 37 09 80 18 60 00 C0 20 2F 3A A3 EE 3C EF 77 57 EF 9F AF FF DE BF
DPCM : 9E C9 24 41 09 09 09 29 00 00 04 00 18 74 9B BF 76 EB CF 7B DF FD F3 E7 C6 F3 81 E2 68 31 1C 31
DPCM : 88 6A C0 8F 06 0A 61 C6 38 D4 C5 C7 2F 1D 63 A7 D0 FC 63 CF B8 F1 B1 CF F1 DC 76 33 EE 30 E2 D0
DPCM : 08 38 84 01 42 0E 07 0C 1D 1E 7D 9E 7F E7 EF 3F 7F 3F 87 DC 63 18 73 0C 23 18 88 53 11 06 0D 62
DPCM : 03 3C 33 24 E7 7C AE F3 E7 1F F8 F0 F3 CF 71 AE 1C 8E CF 08 CE 0C CC 18 31 C2 40 E1 8E 18 2C D1
DPCM : 91 ED 9F 0F CF A7 3C FF 93 C7 CC F5 38 39 B8 19 47 88 46 D6 04 76 31 85 1C 58 63 9C 61 79 8C F3
DPCM : 98 F7 78 27 C7 9F 64 77 39 0F 8C F5 86 2F 91 8C 71 C7 21 E1 C4 19 8C 41 66 07 A6 2E 8A E7 43 CF
DPCM : 9E 1F 9E 71 F3 E3 B7 18 FC 63 C3 18 C3 B0 E0 E3 0F 08 E0 71 8C C1 8F 19 C3 39 39 99 F1 BC 74 76
DPCM : E2 F3 C7 97 19 E3 63 39 87 C6 37 0F 09 C6 71 23 88 E0 A9 83 8B 19 87 66 71 8C EF 0D DA F4 73 EE
DPCM : 1C DB 8E 76 1A 39 0E 71 C6 2E 31 C3 9C 59 07 A1 C0 F1 19 9C 58 CE 2E 2D 6E 3C E3 39 E3 8E B8 E7
DPCM : 1C E3 A7 0D 8E 47 94 B7 05 C2 39 E6 26 36 19 8C 74 98 CD 47 38 59 E8 D3 53 B8 F2 6E AC B3 B4 E5
DPCM : 71 27 8E 8C 8F 1A 3C 8A 73 8E 1C 6B 29 8E 1C 2C 68 D9 31 E3 55 47 39 AB 2D 97 38 D3 B1 CE 38 F1
DPCM : D4 B3 4E A9 62 AD 54 B2 38 C9 A8 AC A9 18 E6 51 9A 73 29 9E 39 9A D5 A7 96 D3 65 9D 58 BA 61 DA
DPCM : 46 AA 3C 52 B1 A5 66 63 8D 31 E0 E5 95 2A CC B2 9C AC AB 39 66 A7 4B 99 5A 6A CC AB 8B 55 A6 A6
DPCM : AA 3C 5A 39 38 E2 A4 B9 30 B9 54 AA 95 AA 65 5A 9C C7 59 B2 AE 6B 34 DC B2 D4 B1 D4 63 C5 34 6A
DPCM : 65 69 65 4C E3 35 4C 71 A5 54 D6 33 4D 71 92 EA 9A AB 56 55 5A CA 6A CE 33 3A 3C 65 56 39 8D 62
DPCM : F0
DPCMDEF   2   257 "AkumajouDensetsu_$C240.dmc"
DPCM : F0 03 00 FE FC FF E7 3E 00 00 F8 FF 1F 60 00 80 FF FF FF C0 0F F8 7D 0E 00 00 E0 FF 1F F8 FF FF
DPCM : 01 00 18 DD CF 11 20 00 84 9F FB 83 CF 8C FD FF 0F 00 FC 03 00 0C 00 00 FA BF FF FF FF 0F 00 3C
DPCM : 4F 90 00 80 80 FF FD EF 87 F9 FC FF 0B 00 88 D0 65 02 00 00 1B FE FF FF FF F9 7E 23 98 1D 19 00
DPCM : 00 0C FE FC CE C3 E3 1F F3 C3 46 83 C3 01 08 81 01 63 B7 F7 F3 3F 93 61 F4 38 E8 0D 02 21 38 82
DPCM : D3 8F E7 C6 BE CF FB 70 61 00 80 18 33 C6 8C 81 F1 FB FD F5 F3 7B E6 48 2E 60 60 C4 18 CC 8F E3
DPCM : 78 7F 7E 3E C6 8D 19 09 03 C1 46 E4 E0 71 FC 7C FF F9 CE 3C 1C 18 10 1A 18 58 B0 69 1E 4F 7F BE
DPCM : 79 C6 3B 0F 07 E3 71 48 C4 48 20 E3 CF 6F 9E 9F 7C E3 38 23 85 03 13 07 63 CE 6C B1 63 9E 1D FD
DPCM : 79 F6 CC 08 07 18 4C 30 ED 78 E4 E3 B2 9B 67 6C FA 98 38 66 33 30 61 06 C7 9B D9 F1 D9 C8 E6 3F
DPCM : 52
DPCMDEF   3    17 "CV3U_C000.dmc"
DPCM : 3F FC 7F DC E1 F9 0F DF F7 00 00 00 80 FD FF FF FF
DPCMDEF   4   129 "CV3U_C040.dmc"
DPCM : AF 5F E6 B3 18 1B 60 C7 79 50 38 11 58 5F F8 ED D1 16 BF AC 25 1C 09 32 78 9A 5E 9E BE 75 86 83
DPCM : 48 4A C9 9D D9 B0 6D 5E 8D 35 8A E1 C2 8D EA D9 F4 29 53 0C 8D B4 52 A7 9B C7 B2 72 B2 C6 28 4B
DPCM : 96 D9 26 5E 5D 3C 29 53 51 E6 E2 D1 5A 8D AB 26 63 95 31 4B 8B AD 6A E5 AC 32 E3 A4 A9 49 AB 9C
DPCM : 66 D5 B4 9C 31 99 34 B5 C9 AA 65 55 35 65 A5 A6 A3 A9 9A 36 56 35 55 59 95 A5 AA 99 6A 65 65 55
DPCM : 55
DPCMDEF   5   257 "CV3U_C140.dmc"
DPCM : A8 6A 6A AA A9 A6 96 9A AA 56 55 AA 54 E9 7F 41 2F 00 80 FA FF FF 8D 01 00 80 FF FF 17 6E 00 00
DPCM : F8 FC FF 4F 07 00 00 FC FF FF 01 55 11 00 F4 EF FB 97 48 0B 00 C0 FF FF 0F 94 24 41 44 6B FF 5F
DPCM : 2A AA 05 00 D4 FE FF 6D 01 C4 12 52 B5 75 FF 13 28 DA 21 20 ED BE FF 45 40 29 91 52 75 FF BB 24
DPCM : 80 BA 4A A4 EA 7E 6F 12 91 AA 4A C8 74 DF AF 89 48 4A 52 B5 B2 EE B7 A4 88 54 35 A5 54 ED 6F 55
DPCM : 22 A5 4A 25 55 EB DE 56 49 A2 92 AA AA 56 DB 5D 49 92 52 D5 54 AA DA BD 95 44 AA AA 54 4A ED 6E
DPCM : AB 52 92 2A 55 AA 5A DB 56 55 4A 95 52 55 55 D5 DA 5A 95 52 AA 54 55 55 D6 76 2D 25 A5 AC 4A 95
DPCM : 6A DB 56 95 52 AA AA 54 55 AD B5 96 2A 55 A5 4A 55 D5 AA B5 AA AA 54 2A 55 55 D5 AA AD 55 4A A9
DPCM : AA AA 54 D5 5A AB AA 52 AA AA 2A 55 D5 D6 AA 2A 55 95 AA 54 55 6B 55 AB AA 54 A9 52 55 B5 6A 55
DPCM : 52
DPCMDEF   6  2817 "AkumajouDensetsu_$C900.dmc"
DPCM : 57 F8 FF 07 F8 01 07 80 7F C0 FF 0F F8 03 0F 00 3F E0 FF 3F 00 01 1F 00 FE 03 FC 7F E0 1F 70 00
DPCM : FE 00 FF FF 80 7F 00 00 FC 07 F0 FF 0F FC 83 03 E0 0F E0 FF 7F 00 3F 1E 00 7F 00 FE FF 01 F0 7F
DPCM : 00 F8 01 FC FF 1F C0 0F 00 E0 3F C0 FF FF 00 3E 38 00 7E C0 FF FF 1F C0 07 00 C0 1F E0 FF FF 01
DPCM : F0 3F 00 F8 C0 FF FF 1F 00 0E 00 80 FF FF 01 FE 1F C0 0F 00 F0 0F FF 81 FF 07 E0 0F 00 F8 3F FC
DPCM : 07 F0 7F 00 7E 00 F8 1F 80 FF 01 FF 0F E0 FF 00 00 80 FF 07 FC FF 03 FF 01 00 F8 03 F8 FF 80 FF
DPCM : FF 03 00 00 80 FF BF FF 1F 1E 00 00 F0 FF 1F 00 00 F0 FF FF 07 E0 7F 80 3F 00 00 3C 00 FE FF FB
DPCM : FF E0 00 00 FF 01 FE 3F 00 18 08 F8 FF FF FF 01 7F 00 7F 00 E0 33 C0 FF 00 E0 FE 3F 00 FE C1 DF
DPCM : 0F 00 FC 67 00 80 FF 3F 3C 3E 3E 50 00 FC 03 FE 1F 01 F8 01 FF 27 F0 FF 00 FC 07 00 3F 80 3F F8
DPCM : F9 FF 00 3E 00 F0 7F 00 FF 3F 1E 00 FE 00 E0 1F 60 FF FF 01 60 01 FF 0F 00 FE 07 BE 00 7C F8 FF
DPCM : 01 E0 FF 00 4F 00 F8 FF 03 FC FF 07 00 0E 0F E0 7F 00 FF 1F 00 07 F8 FF 61 00 FE 1F F1 01 F0 85
DPCM : EF 7F 00 BF 00 F8 03 FE 7F 60 1D F8 1F 00 10 FA FF 03 FC 81 F7 24 00 6C FE 3F C0 68 1A FC 87 0D
DPCM : C0 FF 03 FE A2 C1 0F C0 07 FE 1F F8 1F 00 FC 01 FC E0 3F C0 FF 01 F0 0F E0 1F 80 0F FD 7F 00 FF
DPCM : 00 7C 00 FC 7F FF 01 E0 7F 00 F0 42 D0 FF 0F C0 FE 2A 40 C2 5F 80 FE 3F 80 7F 00 2F A8 7E C0 FF
DPCM : 03 F8 0F C0 A7 D2 55 6C F0 7E 51 25 2A F8 0F C0 1F 80 FF 07 F8 07 FA 0B 7E 49 C0 3F E0 41 B5 4F
DPCM : E1 3F 00 FE 03 1F 84 FF 0F A8 03 B8 EF 17 00 FF AF D0 00 7E 40 FF 2F 40 FF 03 0B BA 02 FC A3 4D
DPCM : BD 84 7F C0 03 C0 3F 80 FF 0F E0 FF 01 00 7F 44 FB 1F 00 FF 6F 01 7C AB 01 BF 00 FE 1F 7E 01 20
DPCM : A5 E6 9F 16 EA 02 FC 27 25 6A 45 AF 50 FF E0 2A 54 A2 7D B0 2A F8 7F 6C 02 BC 4A DA 9F C0 87 F4
DPCM : 07 00 FF 07 FD 80 BE 04 FE 02 E0 FD 00 7B 77 2D B0 03 C0 FF 0F 2C 82 FF F4 37 00 FC 1F 1A 20 BF
DPCM : C0 2F 05 D5 17 F5 02 F8 57 4A A7 CC 2E E1 0F A0 95 BF 03 F8 7F 00 FF 00 3F F1 0F C0 FF 01 78 A5
DPCM : D5 C0 FF 42 D7 02 C0 42 FF 1F D8 03 C0 FF FD 0F 00 80 A5 DA BA FF 07 00 3F C0 FF 0F 00 F8 03 F8
DPCM : 7F 00 FC 1F F8 3F 40 00 3F E0 07 FC FF 01 F8 1F C0 C1 1F C0 1F F0 FF 10 FE 07 F0 C0 1F 00 3F FC
DPCM : 0F E0 FF 01 F0 7F 00 F0 0F FE 01 FE 07 E0 F9 03 80 7F 80 7F FF 0F 80 7F 01 00 FF 01 F8 FF 0F E0
DPCM : BF 00 C0 7F 00 FE 0F 1E 80 1F E0 7F 00 80 FF 1F F0 3F 00 C0 FF 01 F8 3F 0C F8 FF 03 80 FF 03 80
DPCM : 7F 00 FE FF 07 F8 07 00 E0 3F 00 FE FF FF 01 C0 EF 07 00 00 F8 FF FF 0F 00 FA 1F 00 C0 1F F0 FF
DPCM : FF 00 FE 00 00 00 7E E0 FF FF 1F F8 03 E0 03 00 E0 FF FF FF FF 03 00 C0 03 00 7C C0 FF FF FF 0F
DPCM : 00 00 FC 01 00 F8 FF FF FF FF 03 00 00 00 C0 0F FC FF FF 1F 7C 00 80 01 00 F0 7F FE FF 7F 00 FC
DPCM : 1F 00 00 0C 0A FE FF FF CF 1F 00 1E 00 00 F8 7F E0 3F FF 00 FE 1F 80 7F 00 FC 7F 00 3F 00 6C FF
DPCM : 01 92 57 E0 FF FF 01 00 A3 3F 00 FF 03 00 FF C3 94 FD 01 3F F5 0B F0 03 84 E4 2B F0 FF C3 FF F2
DPCM : 00 80 15 74 C0 FF 07 E0 FF F2 05 00 60 FF 1F 04 C0 FF 7F 01 FC 0F 00 FF D3 02 80 DF FF 8F 3E 00
DPCM : 80 FC 2F 00 5F 54 FD 3F 68 80 5B F5 02 E0 47 E9 41 DA 4B FF 0F 00 F4 1F 80 7F 11 FC 53 E8 83 FD
DPCM : 03 20 B6 FF 13 A4 95 4A 01 FE 3F 00 FE 87 2A E8 7F 00 F0 0F F8 FF 01 80 7F 00 1F FA 07 F8 FF 01
DPCM : F8 0F 95 80 37 C0 FF 3F 01 C1 FF 01 D0 87 82 FC FF 00 FE 07 B0 2F 54 48 AA 3F 90 FE 01 D6 FB 2B
DPCM : 80 DF 00 F0 D2 16 FD 3F E0 07 FA 03 80 17 F8 FF 09 D8 5F C0 7F 00 E8 6A 7F 94 D8 B4 10 FF 03 C0
DPCM : FF 28 A9 7A 11 D4 BD A5 40 77 54 37 DA 0F C0 8F FA 05 B0 2B 60 FF 50 BD 5A 92 DA 0A 64 47 A8 56
DPCM : FF 75 03 E8 0A F0 AA 89 F0 FF A5 FE 42 02 E0 FF 04 88 AC FF 16 AD 14 29 85 DF 01 EA BD C4 FF 01
DPCM : 54 E1 1F 80 F7 AE 80 FE 07 A4 EC 02 F4 0F FA 07 B9 A9 BB 00 D9 2D 75 89 FF 80 7C CA 04 F4 FF 00
DPCM : AC CA 12 FD 4F 44 EB BB 02 F0 09 2F E0 3F E8 7F 5A 01 4A B6 93 4A 41 FF 2F 45 A9 2F 00 2E DD A4
DPCM : BA D2 25 A9 5F 65 03 6A D2 7F 50 A5 A8 F5 1E C0 3F C0 9E 54 CA AD 8A D6 D2 4B D5 55 01 F4 5F 84
DPCM : FE 02 C0 FB 1F C0 FD 0D 00 FF 11 80 DE 9B 7F 03 D0 AA BE 01 D4 37 A0 FF FF 00 E0 07 00 FE FF 01
DPCM : 5C 0A 81 FF FF 01 F0 07 00 F8 FF 60 37 00 F0 FF 07 F8 1F 00 E0 FF 07 00 FF FF 03 FE 01 00 F8 7F
DPCM : 00 F0 FF 7F 00 FF 00 00 FF 0F 80 DF FF 03 F8 01 00 F8 3F 80 FF FF 1F C0 07 00 E0 FF 01 70 F4 FF
DPCM : 03 FE 07 00 FC 07 F0 FF 00 FC 0F F8 DF 07 E0 0F 00 F8 FF 7F 80 3F 00 C0 7F 00 FC FF 01 FE 07 00
DPCM : FC 07 F8 83 01 FC 0F F0 3F 00 F0 1F E0 7F 00 FE 7F 00 FF 1F 00 FF 01 80 7F 00 FC FF 01 F8 7F 00
DPCM : FE 07 00 FF 80 FF FF 00 F8 00 7F 00 06 FA FF 0F 80 03 FE FF 1F 00 F0 03 E0 FF 01 7C 00 FF 0F FF
DPCM : 3F 00 00 FE 0F 80 FF 03 C0 0F 00 FF FF 60 00 C0 FF 0F F8 7F 00 F8 0F 80 FF FF FF 03 00 3C F0 1F
DPCM : F0 0F 00 F0 1F C0 FF 3F FE 03 00 04 F0 EB 1F 7F 00 10 FE 1F 0E C2 FF 01 3E 00 00 FF 1F FC FF 01
DPCM : C0 FB 03 1C 00 F8 FF 7F 78 C0 00 7A E2 07 FC BF 27 00 3F E0 00 FF 07 E0 FF 03 FC 0F 00 FC 8F 3E
DPCM : 00 8A FF 03 FC 83 AF 0D FC 1F 80 87 3E 00 FE 7F 00 FF 03 80 FC 06 F0 3F 7F 00 7E C0 49 FA FD 01
DPCM : 00 FF 03 F8 1F F0 3F 60 CB 0F 81 7F 00 BC F8 0F 80 FF 67 C0 3F 00 FC C0 3F 70 FB 0B 00 F0 FF 00
DPCM : FF 41 3F A2 0A FD 2A 84 2E F5 8B FE 00 FC 10 FF 03 80 3F F5 80 FE 01 7F B7 01 BC 01 E0 9F B2 7D
DPCM : 81 7E 15 4A FF 01 F8 07 00 FF 0F FC CA 02 64 FF 03 68 EE 0F D0 06 FC 03 60 FD 7F 00 FC 0F 78 42
DPCM : 55 D0 FE 5F 04 F6 0F 80 A2 FF E0 FF 00 00 FF 07 F0 2F 80 2D FF A2 76 91 47 52 D2 16 EA 07 7D A2
DPCM : 17 D0 D7 0B E0 FF 60 55 3F 00 AE FE 01 FC 07 F8 7F 00 D0 2B E0 FF 03 F0 03 1C FE 0F A8 E0 1F F9
DPCM : 25 09 F8 2F 81 BF 02 FC 43 BF D2 09 F0 52 3B 72 41 6A 59 7F 13 80 FF 03 3F 40 47 C9 7A F5 09 D0
DPCM : 5F FC 07 E0 27 20 F9 2D 75 2F D9 17 60 83 FF 01 75 D2 02 F8 2F 4B E2 1F A2 AA 74 03 F0 3F 14 27
DPCM : 93 FE 4F A5 00 FF 00 F8 7E D1 BE 00 7C AB AA 77 00 F0 AD 12 B4 7F 21 FF 0F 00 78 81 7F 80 FF 29
DPCM : A8 36 F5 2A 2A 54 0F E8 1F B4 F5 5B A0 D2 AA D0 BF 80 0A FD 0F 5C D8 07 C0 FF 0F 00 F8 2F C0 FF
DPCM : 01 A9 7F 00 B7 25 F1 7F 80 75 55 0B 36 D1 1E ED 81 6E A4 AF 94 A0 B6 BA 90 B6 FD 0F C0 0F 00 FA
DPCM : 1F E8 3F 50 B7 4D 60 AB 05 FA 87 BE 48 0F 80 FF 1F F0 50 00 FC 1F EE BD 00 FE 03 E0 1F 00 F8 7F
DPCM : C0 9F 00 F8 1F F8 7F 00 F0 1F C0 FF 3F C0 1F 00 F0 0F F8 7F 00 3F 00 FE 3F 80 3F 00 F8 7F C0 FF
DPCM : 07 00 36 FE 07 FC 39 01 FE 42 97 05 C0 D2 FD 3F E0 FF 00 E0 1F C0 FF 03 80 E3 7F 80 3F 06 C0 3F
DPCM : 40 FF 3F 00 CC FF 80 FF 05 80 7F 80 FF 0F 00 3E FE 01 FC 01 00 FF 07 FC FF 00 FC FB 03 F0 01 18
DPCM : FE 0F F8 FF 00 E0 80 FF 80 3F 1E C0 FF 00 FC 3F 00 FF F3 01 F8 00 1F FC 07 E0 87 3F E0 FF 7F 00
DPCM : 3E 00 00 FC 1F 00 FF 07 FC FF 01 F8 0F 00 FF 0F F0 07 00 F7 FF 0F F0 03 C0 00 FE 7F 00 FF 01 80
DPCM : 7F E0 FF 0F 00 FC 1F 80 FF 0F 00 00 FC FF FF FF 00 00 C0 FF 08 F9 1F C0 00 FF C0 FF FF 07 0C 00
DPCM : 80 FF 81 DF 0F E0 03 3F D0 1F FF 4F 00 F0 00 FC 0B FF F9 03 E0 C1 3F F8 1F 00 F8 0F C0 3F 0D 80
DPCM : 1F FE 07 D8 FE 03 1B 00 D7 7F 88 7F 01 0F F0 A3 8A FF 1F 00 27 B3 C0 3F C0 7F 08 F0 3F E0 7F 1A
DPCM : F8 07 C0 0F D8 D4 1F F0 81 3F E0 0F 8C E8 FF 00 A8 FF C0 1F DA 01 7C C0 7F E8 7F 40 5B 01 6C 1F
DPCM : 20 FF 48 AB EE AA BA BA 02 B0 5A A2 F4 7F 00 FE 37 00 F4 0F 48 FF 03 EE C8 0B E0 17 BD 10 7F A5
DPCM : A6 FB 03 C0 97 8A F4 7F 00 E8 07 F0 4F 7F C0 0F B0 F5 12 E0 BF BA 45 8A 6A 01 FF E3 05 C0 9F 82
DPCM : DE 0B D0 BB 09 F9 0B FC BD 80 54 6A 52 2F F5 05 F8 4A FD 16 C0 3F 00 FF 41 D9 05 E8 9F 24 FE 07
DPCM : FC 01 FE 04 B0 5F 52 DD 4A C0 9F F8 03 F8 0F D0 3F 00 F8 7F 00 FF 11 ED 06 F5 83 E4 B6 00 FA D5
DPCM : 2A F0 3F B0 A5 07 F0 97 54 E8 4F 3E 01 FF 00 AB FF 00 FC 03 54 7D C1 17 FD 00 B2 7D 15 FC 03 FC
DPCM : 01 6D 6F 01 BF 09 2D 92 DD BE 00 77 DD 00 7D 52 81 FE 0F 78 51 17 6A E9 3D 54 55 5B 01 DA 3F 40
DPCM : 7F 51 91 EA 49 5D 09 59 3D E2 FF 00 B2 5E 54 2B 92 BA FF 02 95 89 EA E8 BB 40 2F 82 D6 7D 08 FA
DPCM : 2F D0 0F 8A D4 2F E8 AD 80 BD AA DD 03 52 D5 02 F9 27 E8 FF 40 A8 52 6A DF 42 6B AA 2B 48 6F 95
DPCM : D4 4B B5 49 A1 CC AA 7E 09 35 6A 0B DF A4 5D E4 0A B8 42 7F 4B 55 DB 24 B2 24 6D D2 EE 36 00 5F
DPCM : B6 05 F8 8F AA F4 02 6E 59 E5 FE 01 80 FF 82 E4 D7 0B D0 17 25 D5 BF 04 E0 7F 01 54 FF EA 1F 00
DPCM : 1E AA C0 FF A5 09 55 15 FB E2 02 F0 05 FE 3F C0 7F 01 80 FF 01 F6 7F 00 FE 07 00 FE 7F 00 FF 03
DPCM : 00 FF 03 E0 FF 01 3E 00 FC FF 01 FE 07 00 FF 0F E0 FF 0F 00 E0 FF 01 7F 00 00 FE 07 FF FF 01 C0
DPCM : F9 7F 00 3F 00 80 FF 81 FF 0F 00 FC FF 07 F0 01 00 F8 3F F8 0F 00 F0 FF 7F 00 FF 01 80 FF 0F C0
DPCM : 03 E0 FF FF 00 FE 00 00 FE FF 03 F0 80 FF FF 07 40 02 00 FC FF 03 80 FF 7F FC 0F C0 81 03 E0 FF
DPCM : 00 E0 7F FF 87 FF 00 80 1D 00 FF 0F 00 FC FF FF C0 3F 00 00 7F 80 FF 07 00 FE FF A3 7F 00 00 70
DPCM : FD 0F 7C 00 7F C0 07 FE 0F 3F 70 C0 FF 00 80 FE 03 FF 92 75 05 E0 5F FC 0F F0 1F 00 00 96 FA BF
DPCM : 42 77 55 FF 01 F0 44 AE AA 0A F4 97 F4 2E C0 01 FF 3F 00 F9 0B A4 56 5D EB D2 07 E0 FF 1A 00 BF
DPCM : C0 56 FC 0B E8 1F 00 2F FF 01 FC 02 FB CA 5F 00 FC 20 69 FD 1F 80 1F 80 FF C7 D6 0A B0 22 B4 FF
DPCM : 00 F8 5F D0 7F 00 5F 44 F6 1B 80 97 74 D5 DF 44 03 E8 D6 85 FA AF 00 F0 2B C1 DF AA 02 FC 46 AD
DPCM : EA 0F 80 7F 81 FF 00 3E 00 9F FE 01 77 D4 A2 1B F0 1F D0 83 7F 80 AF A4 5A 55 BD 22 5D 55 02 FE
DPCM : 23
DPCMDEF   7   129 "kick.dmc"
DPCM : AA AA AA AA AA AF F0 9E 9F F0 06 AE 7C 1B 98 F0 00 03 00 0C 01 CE 01 80 00 00 00 00 00 0F 1F FF
DPCM : FB F3 CF F3 EF DE B8 F9 A6 A2 24 39 81 43 80 86 19 02 38 51 87 86 15 39 8C A6 55 4D 16 8C A3 45
DPCM : 45 90 CA 56 22 52 70 D6 53 16 D3 54 D7 4B 37 4B 5B 6B 56 CE B5 5B 5D 59 B6 D5 AB D6 B5 D7 6B 6D
DPCM : AD AE B6 D6 B5 B5 AA D6 AA AC AA A9 54 A9 94 A4 A8 4A 4A 8A 82 50 A4 49 29 0A 44 A1 28 42 A1 0A
DPCM : A5
DPCMDEF   8   385 "snare.dmc"
DPCM : 9C 73 61 00 0E C6 EB FF FF 57 12 E1 93 00 00 00 BB 7B E3 C5 FF FF 7F 01 80 61 00 00 E4 FF FF 79
DPCM : FE FF 0F 82 00 00 00 00 98 F3 FF FF FF 3F 4F 62 00 C4 00 06 82 38 6E 7F FF FB FB C7 0E 03 44 00
DPCM : 00 98 D2 CD E7 FF 9D CF DD 6C 3C 31 00 03 04 19 07 9D 7B FF F7 CF F3 64 20 18 82 31 48 1E A7 F3
DPCM : E7 79 EE 3C BC B4 18 84 0C 43 22 F3 CC B4 EF BC 73 E6 98 91 23 32 8C 38 06 17 E7 73 79 36 CF 0E
DPCM : 6D 31 1C 86 A1 72 18 36 6D 3E CF 7B 3E 26 87 21 30 0C 99 3C C7 76 E7 CD 73 1C C5 8C C3 4C 32 8B
DPCM : 99 C9 EA 9C 36 9D 67 66 3A C3 1C 06 C7 34 96 39 67 AD 33 C7 66 8E 65 65 52 5A 62 9A C9 34 67 9C
DPCM : F3 CC 9A 79 66 8C 91 89 E3 C8 78 6C 8E 3B DA 9C E3 D1 70 1C 3C C6 24 39 CD 9A CD 5C 1D 8F 93 71
DPCM : 9A 34 1A CB 46 66 8C CC D9 EC 6C AF C7 2D 33 04 03 83 C8 2C E7 F9 7E 57 67 66 98 11 12 C6 71 AC
DPCM : 71 36 CF 39 D3 34 B3 72 32 67 1C 8E 61 6C C8 59 D9 6C E6 79 AE 5A C9 88 13 C5 18 8D CD B9 D9 8E
DPCM : B3 2D 4E C3 70 32 96 51 4D 96 93 96 8D B3 6C 5A AE 35 53 4D 4A 52 2A A6 99 B3 B1 36 6B 2B 63 44
DPCM : 65 54 A6 A6 39 4B 4D 33 AE 71 CC 65 B5 C2 31 D3 38 C5 68 CC CC 72 26 63 96 4D D3 38 8E 55 1C D3
DPCM : 30 96 59 CE D8 6A A6 D3 AA 0C 63 99 A9 54 55 71 3C D5 98 33 AE E5 B4 34 AB 92 C9 98 96 69 AA E6
DPCM : 59
DPCMDEF   9   337 "CONGA11 S.dmc"
DPCM : F9 FF 00 00 00 40 F8 FF FF 7F 00 00 80 FD E7 05 90 FC FF FF 3F F2 FF 0F 00 00 00 C0 FF 0F 92 FF
DPCM : 02 00 00 FF FF 08 03 DE FF FF 0F 00 C0 BF 03 00 E0 FF FF FF 13 00 80 0F 06 00 F8 2F C4 FD FF FF
DPCM : 3F 00 00 00 00 F8 FF FF 7F 01 F8 FF 7F 00 00 00 78 29 F4 FF FF 3F 00 00 C0 FF FF 01 00 7F B7 95
DPCM : 92 A8 4A 01 00 F0 FF FF FF 07 00 30 15 63 B6 F4 AD 4A BC FF FF 3F 00 00 00 C0 DF B7 EF A2 44 AA
DPCM : D2 FA 65 20 80 EA 6E EF 7D D7 04 00 00 F8 FF FF 1F 00 6A B7 05 82 DA 6A 29 01 E8 FF FF FF 07 00
DPCM : 00 D0 55 D1 EE F7 8A A4 EA FF AD 04 00 00 E0 FF FF 96 6A 22 02 52 F7 FB 2E 21 80 A4 FF FE 57 04
DPCM : 00 40 EA FE FF 7F 41 20 92 AA D6 AA AA 24 22 D5 FE FF 7F 01 00 00 F4 FD 2E A5 AA 56 2A B5 F6 6E
DPCM : 25 00 20 ED BF 6F 2B 84 92 96 12 D5 DD B7 29 22 A9 DA 6E 4D 22 84 B4 6D AD AD EF AA 24 91 22 59
DPCM : 6D B5 94 54 6D 6B 6D AD 9A 88 22 AB AA 6A AB AD AA A4 AA B4 AA B6 2A 29 B2 AD AB 2A 55 AA 92 52
DPCM : 55 B5 6D B7 4A A2 AA AA AA 2A 29 55 D5 DA 6A AD B5 52 A4 A4 A2 B6 AA 2A A5 5A 8B D6 AA 94 AA AA
DPCM : 54 D5 A8 58 54 95 88 54 B5 95 91 B5 95 95 B5 95 B5
DPCMDEF  10   193 "CONGA11 SN.dmc"
DPCM : F9 EE 27 00 00 00 80 FF FF FF FF 00 00 00 80 FF FF FF 07 C0 BF BF 78 00 00 E0 FF FF 07 70 00 18
DPCM : E6 09 00 C0 FF FF FF 01 A0 FF FF 07 00 00 00 FF FF FF 7F 00 00 FA FF 03 00 80 FF FF 55 0A 00 C0
DPCM : FF FF 7F 00 00 80 EE FE F6 2F 45 16 22 54 AA 95 24 FD FF 6A 24 00 50 FF EF 56 0E 41 A8 EA B6 AA
DPCM : 55 AA AD 56 15 09 C9 BC 6D B5 D6 55 04 49 A5 B6 6D 2B 29 A9 2A 49 B5 AD 56 2B A5 54 4A AA AA AD
DPCM : AA AA 5A 55 AA 54 D5 AA AA AA 6A 55 55 A9 4A 55 55 AD AA AA AA AA 50 D5 AA 16 2D A4 2A D5 AA AA
DPCM : AA AA 56 A5 A9 A6 AA AA 4A 91 AA AA AA AA 2A 52 AD AA AA AA AA A8 2A 45 A9 AA 9A A2 AA AA AA AA
DPCM : AA
DPCMDEF  11   609 "test.dmc"
DPCM : 15 8F A7 53 D1 70 08 BE F1 A9 DE D2 BF FF CF 0A 1E 00 00 08 21 00 20 00 00 00 00 00 00 00 00 C0
DPCM : FF FF FF FF FF 9F 11 2E 7E 00 00 20 12 F4 1A F9 3A 63 40 DF EE BB 41 04 06 20 10 41 00 00 00 00
DPCM : 00 00 00 00 D8 DE EF AF 7E 8C A1 08 A2 9C 25 A1 4C 62 00 00 01 EE FD B7 EF 6F FF FB FD F4 7D 74
DPCM : 12 99 89 92 28 22 1D B3 7A 0E 7F 7C 6F 37 87 17 5E 5E 31 15 5A 04 07 08 2A 00 11 30 16 0D D0 1C
DPCM : 67 FB FF FF EF 2E 37 BD 98 85 28 64 A1 90 43 07 4A 79 C3 A3 3A 7D 97 97 5E 6E 4E 37 F2 26 76 A2
DPCM : 03 85 CA 42 43 A6 28 C7 1B CB 52 E7 E7 D1 E7 F1 64 BA 58 1A A5 8B A1 34 B2 28 B6 38 C4 55 6C 7A
DPCM : CB 55 5E D6 71 CB BA 50 CD 15 8B 5C E8 A0 91 AA 5C 64 A1 33 75 8E B7 BC F4 76 E3 4B 96 F1 A0 89
DPCM : 42 34 74 50 9C D2 CB 45 EB 5C A7 3B B3 CB 45 0F 55 1C 8E 4E 74 1C 29 4D 27 3A A6 A5 9C EA F4 68
DPCM : B3 CC E5 A5 63 5C EA B2 B0 74 A1 11 5B 1C B5 38 66 B9 74 59 AD 3A 1D 17 9D 63 BC 58 C5 55 9A 62
DPCM : 65 66 8A C5 8E A5 1C 35 5B 16 57 2E AF 2C AB 65 E9 E3 38 74 38 94 A3 D8 E2 92 74 78 C5 3A 2E BA
DPCM : 1E 66 1D 8F 2E 5E 54 23 17 5D C8 2D 16 4D 31 E6 52 CB 69 59 CD D2 55 3D EC 62 D3 18 5D 5A 29 33
DPCM : AA D1 49 6B 94 A6 C3 A2 1C 9B CE 71 2E EB BC DA C5 D6 89 B3 50 41 07 B4 90 22 4D 2B 5D 5E FA DA
DPCM : D7 53 ED 58 96 83 8E 45 A1 14 59 3C F2 D0 99 D1 E5 1C 2F 17 2F 47 1D 2D 2E A7 72 31 C7 95 C3 85
DPCM : 2E 3A 68 74 0E CA A5 35 39 D3 99 8E 97 5B AE AA 56 65 2C 8A 4D 51 C5 8A 45 2B CE 71 E9 3A D6 B9
DPCM : 78 74 D6 8A 47 35 74 B0 A9 8C 56 39 55 B5 A4 93 4D B1 53 D6 E2 D2 CA 59 E6 C4 6B 55 B3 54 B5 98
DPCM : 2A 29 66 AA 70 99 69 B9 9C 53 B3 33 9D CD AA 1C 16 2D 55 39 54 A5 A9 16 5B 2E 9D 58 4B 1D 87 AE
DPCM : 16 9D 2C 3B 69 D5 6A C3 45 CB 52 87 47 15 8B 5A 34 4B E3 49 97 65 9D 9A 53 D6 31 53 87 8D 2E 3A
DPCM : 55 F8 B0 D8 61 8B 53 96 55 2E 87 75 AC C5 A9 47 AD 9A D2 B4 A2 95 E5 B0 8A 59 55 93 5C F4 52 D5
DPCM : 62 E3 74 D8 E9 94 8B 9D D4 72 AA 4A 71 CC 61 A9 56 96 99 AA 6A F9 64 55 55 55 55 55 55 55 55 55
DPCM : 55
DPCMDEF  12   625 "test2.dmc"
DPCM : F5 15 DE F3 13 DE C0 95 6F 03 13 1E 60 00 80 21 C0 39 00 10 00 00 00 00 E0 E1 E3 7F 7F FE 79 FE
DPCM : DD 1B 37 DF 54 94 24 27 70 08 D0 30 43 00 27 EA D0 B0 22 87 D1 B4 AA C9 82 71 B4 A8 08 12 00 00
DPCM : 00 00 DC 7B CE E6 BB FF 7B E1 44 41 42 44 82 30 64 02 AB E3 BF FF DF FF FF FF E7 A7 95 95 44 B2
DPCM : 74 12 D1 12 05 15 3D B4 4E 9F B6 7D F5 59 5B 13 96 83 25 00 05 01 80 20 40 AA 30 EB F0 FF FF DF
DPCM : 79 DC E3 BA 99 D5 E8 A6 58 04 A1 05 A2 90 72 D8 82 EA 78 BD DE 7D E7 7B D9 E5 A5 2C 42 11 0D 15
DPCM : 34 3A 50 89 1F BA CC E5 BD EC 72 E3 73 B9 85 3D B1 53 1C A4 50 16 3A 28 46 59 FC 58 96 3A 6F 5D
DPCM : 5E 1D 2F C7 45 CB A2 5C 14 95 85 45 D1 45 23 BA A2 C7 3D AE 72 E3 1A 5F D6 45 EC AC 58 E4 22 07
DPCM : 4D 54 E5 06 0B 9D A9 CE EC E5 96 3B 1F 77 B1 94 8D 2C 14 A1 85 46 CA 51 6E BC 58 E7 BA F4 59 6E
DPCM : BC D8 A8 A2 71 71 91 E3 28 65 39 D1 71 2C E5 54 8F 2E B3 A5 2E B7 1C C7 52 8F 85 8E 0B 1D E8 A2
DPCM : 71 46 2B CB 96 C7 AA D3 65 E9 E2 1C C7 45 2B AE CA 12 27 35 53 2C 76 2C E5 A8 E5 B2 E8 72 E9 E3
DPCM : 58 75 2C 2F 4E 93 C3 A2 38 45 17 5D 94 43 1F 5A B3 C9 F5 50 6B D9 F8 B0 8B 5A E8 E2 22 F6 D0 68
DPCM : 89 31 5B 6A 56 2D 67 59 AE AA A3 17 3D C6 61 CB 4C A9 45 2D 56 59 8B B2 1C 16 C5 E9 71 8E 73 59
DPCM : E7 4E 37 7A 4E 9C 16 0A 39 84 85 14 65 69 E5 B2 CB 5D EF BA AA C7 B2 34 72 2C 8A 94 C8 A2 8B 8D
DPCM : CE 4C 1E E7 B8 E3 71 71 AA A9 E5 38 95 8B 71 BC 1C B6 B0 C5 21 8B 73 50 BC AC C9 29 CE 72 DC F1
DPCM : B2 55 D5 2A 65 51 F4 28 AA 38 2C 8A D1 1A 2F D7 B1 CE 45 97 B3 4E 74 99 91 83 1E E3 B0 CA A9 AA
DPCM : A3 9C F2 28 75 B2 0E 5D 56 58 53 27 5E B5 9A 96 AA 8E 58 19 B1 52 15 4B 2D C7 A5 A3 5A 9D E3 CC
DPCM : 56 C5 D1 A2 A9 4A A2 A9 4C 53 52 C7 E5 C4 E9 A8 71 74 D5 E1 A2 E5 29 AB 5A 1D BA 48 96 3A 6C A9
DPCM : 58 54 93 65 39 4E 59 1C EB CC 74 A2 8E 59 6A F4 D0 C4 A9 8A 8D 96 1A 5B B4 B2 AC 62 59 B4 66 75
DPCM : 2C 75 A9 D5 4C A6 19 AD 2C 8D 55 CC AA 9A A2 8B 5D AA 3A 1C 97 45 4F 9D 5C EC 8C 9A 55 55 89 63
DPCM : 1C 1D 75 B2 D4 51 D5 CC 2E 55 45 55 55 55 45 55 55
DPCMDEF  13   305 "TOM5.dmc"
DPCM : 91 43 88 71 F8 FF 6F DB 93 C0 DC F8 05 40 0E 00 00 63 F1 F3 FF FF EF DE 63 04 21 90 31 32 60 16
DPCM : C0 E2 EB CF FF FF A7 B2 DC 40 00 00 13 F2 F1 A0 E7 43 37 CE BD FF F9 43 EE 20 00 70 1C 02 0E CF
DPCM : 8D CC BF 77 DC 1D B3 F9 36 04 07 0C 18 24 73 F0 2B 8F 3B CF F8 27 8F 9F 99 84 91 03 21 4D 27 C5
DPCM : 9A 35 3D BB 35 B7 CC 8E CE C8 54 A9 92 A2 64 52 2A 35 73 AF 6B D5 2D B5 5A 55 19 4B 26 AA A4 14
DPCM : A5 AC 35 AB 6B 56 DB 5A B5 AC 5A A5 2A 49 A9 54 25 29 53 CA 5A 6B DB AA 5B B5 55 A5 4A 95 46 A9
DPCM : AA 92 2A 49 A5 5A AB 6D AB 5A 6B 55 55 AB 2A 53 25 95 AA 94 92 52 55 55 6B DB AA D5 AA 9A B5 AA
DPCM : AA 54 52 A9 54 95 52 55 25 B5 AA B5 B6 56 B5 55 55 AD 9A 4A 2A A9 52 55 2A 55 4A 55 AD AD B6 6A
DPCM : AB 5A 55 55 55 55 25 A5 2A 55 A5 AA 52 A9 AA 5A 6D AD 5A B5 6A 55 B5 52 A9 52 A9 2A 55 99 4A 55
DPCM : 55 AA D6 5A AB 5A AB AA A6 59 55 A5 4A A5 AA 52 A5 AA 54 55 55 AB 5A AD AA D5 AA AA 95 55 A9 4A
DPCM : 95 AA 52 AA AA AA AA 32 55 B5 5A AD 56 AD 55 55 AA
DPCMDEF  14  1985 "timphi-q.dmc"
DPCM : AB AA AA AA AA AA AA AA AA AA AA AA AA BB BB BB BB 88 88 28 22 12 11 51 44 54 77 77 77 B7 2A 45
DPCM : 44 44 9D DC DD 5D 44 74 55 45 52 D5 DD DD EE EE EE 6E 92 EA 26 22 B2 23 22 22 11 51 45 DC 1D 91
DPCM : AA 56 55 55 55 55 1D 59 77 77 BB BB AA D6 2A 89 A2 48 54 45 44 DC DD DD EE EE EE 2E B2 AA 2A 22
DPCM : AA 88 4A 12 11 11 11 55 BB EE A2 BA 2B AA BA BB DB DD DD 5D 11 11 11 C9 76 57 5B 14 DD 5D 6D 44
DPCM : 52 45 24 E2 56 55 D5 AA AA AA AA 56 47 A2 24 22 22 52 DD 55 6D D7 5D 55 B7 BB BB E5 BA 92 B5 2A
DPCM : 22 96 22 22 D9 EE 2E 22 4A 44 2A 75 5D DD 44 B7 4A 44 D4 49 44 76 D7 15 75 77 BB BB BA AB EE 2A
DPCM : 29 B2 8A 2A AE 8A A2 88 44 AA AA AA AA 6A 55 55 92 56 6B 2D 45 44 D1 75 47 77 B7 BB 88 52 55 45
DPCM : DA AD BB EE A4 EC 6E 55 2A 22 6E AA 9B 88 AC 2B 22 12 51 12 51 D5 DD 14 75 71 77 5D AB AA BA BB
DPCM : A2 EE 3A 22 A2 AA BB A9 6E 8A EC 22 22 12 55 55 55 55 55 55 55 B7 AA AA BA 22 12 11 25 5B 55 97
DPCM : 35 55 77 5B 69 AA AA AB BB EA E8 56 2B A2 A3 2A A2 8A 2E D2 8E 2A AB 44 C4 5D 54 5D 71 B7 12 91
DPCM : 52 75 B5 5D ED 9A DA 6A A9 8B A8 9B 52 B5 AE 6B 89 88 A8 AA AA AA AA AA AA AA 25 51 95 75 15 4D
DPCM : 55 55 52 D7 2D 91 56 B7 54 AB AA AB AA A8 AA D6 6E A9 EA 8E 28 62 95 EE 48 9B D2 6A 89 4A 55 44
DPCM : 55 74 77 15 55 5B 54 55 57 DA A6 ED B6 92 A8 BA A3 2A D2 AA AA 8A A3 BA AA A2 AA AA AA AA AA AA
DPCM : AA 2A AA 4A 55 AB A4 D2 D6 AA 52 A4 5D C5 52 64 77 55 DB A2 D2 8E AA CA BA 8B A2 EE AA 52 9B 88
DPCM : 8E 52 AD AA AA A9 52 25 75 45 5C 55 DD 54 71 45 DB AA AA 2A EB AA 2A D6 AE 25 A2 CA AA AA A8 AA
DPCM : AA AA AA AE A2 EA AA 8A 2B A9 4A 55 49 D4 B5 8D 54 55 D6 2A 55 B4 2D D5 AA 52 BB 8A 2B AA 6A AB
DPCM : EA A4 AA 2A A9 AB 2A AA 5A AA 4A D5 AA 54 45 55 4B 55 55 57 15 D7 AA AA AA AA AA AE 8A AE BB D4
DPCM : 22 AA AA AA AA AA AA AA AA 8A 52 55 B5 2B 12 5B 2B 95 54 D5 45 DB AA 2A D5 92 B5 52 B5 23 B5 AA
DPCM : 8E AA BA AA AA 2A BA 29 AD AD 4A 4A A5 AA AA 44 5D 15 D5 55 55 AB 44 55 55 56 D5 D6 BA AA A2 B5
DPCM : AA A9 EA AA 88 BB AA AA AA AA AA AA 2A A2 2E 6A 29 58 3B 2A 65 55 55 25 B5 A9 16 D5 55 55 55 55
DPCM : B5 AA 2A 55 D5 AA 8D EA 5A A5 D4 AA B6 88 54 AD EA 54 EB 94 22 51 57 55 55 94 5D 15 55 55 57 AB
DPCM : 12 D5 AD AA 4E AD AA AA 55 AA 56 AA AA AA AA AA AA AA 9A A2 96 AA 4A 95 AA 54 69 4D 95 55 56 15
DPCM : 55 B5 6A 55 2D AD AA AA EA AA A8 AA B2 AA B6 AA A4 AA B5 AA AA 4A AA 95 D2 56 A9 4A 55 55 94 DA
DPCM : 55 55 52 D5 AA 4A B7 AA A9 6A D9 AA AA D6 2A AA AA AA AA AA AA AA AA 6A A5 A4 AA A9 AA AA 4A D4
DPCM : 56 95 2A 55 5D 55 6C 55 72 55 AB AA 2B AA AA AA AA AA EA 4A 69 B5 AA AA 54 A9 AA 5A 55 A5 56 95
DPCM : 52 55 CA 55 55 49 55 65 5D 55 D5 4A B5 54 AD AA AE AA 4A AB A3 AA AA AA AA AA AA AA AA AA 54 55
DPCM : AD AB A8 4A 55 AA 2A 2D 55 95 54 B5 55 55 A5 56 55 55 49 D5 55 AB AA AA AA 6A 2B A9 AA 55 9A AA
DPCM : AB A2 AA D5 AA 92 AA EA A4 54 AB A9 AA 54 55 54 B5 D1 56 49 AD 15 75 DB A2 AA AA AA AA AA AA AA
DPCM : AA BA D2 B6 AA 54 AA AA AA A2 AE A4 AA AA 54 AD A4 48 5B 55 56 55 55 55 53 55 AD AA AA AA AE 2A
DPCM : AA D6 AA 94 AA AB 92 AA 56 B5 92 AA AE 2A A9 AA AA 54 55 AD 54 55 25 55 6A 57 CB AA 4A D5 6A 55
DPCM : 55 55 55 55 55 55 B5 AA AA AA 4A AD AA 4D A9 54 A9 AA AA 52 55 B5 52 14 D5 5A 55 55 55 55 55 AD
DPCM : AA AA AA AA 9A AA EA AA AA A4 5A 6A 35 A5 AA 95 AA AA A5 5A AA AA AA 2A 55 AA 55 69 55 55 55 4A
DPCM : 6D 55 B5 AA AA AA AA AA AA AA 6A 55 95 AA AB 6A 95 AA AA AA AA AA B4 A4 AA 52 65 55 95 5A 55 A5
DPCM : AA 55 55 55 55 AB AA AA AA B6 54 55 A9 6A 55 55 A9 BA 2A AD A8 AA AA AA AA AA AA AA 52 55 55 AB
DPCM : 52 A5 AA AA 96 55 55 55 AD AA AA AA AA AA A8 AA B4 DA AA 55 AA 6A A9 AA 5A A9 2A 69 A9 AA AA AA
DPCM : AA 54 AA AA AA 55 6A 55 2B 55 55 AD AA AA AA 55 55 55 EA AA AA 4A AA AA 6A AD A8 AA 56 AA AA AA
DPCM : AA AA AA AA 52 55 55 A5 5A 55 95 AA 5A 55 55 55 55 55 55 55 55 55 55 55 55 B5 AA 55 DA AA AA AA
DPCM : 6A 4B AA 2D A5 AA 4A B5 2A A9 AA 54 55 55 55 55 55 55 95 56 55 55 B5 AA 5A 55 AA EA AA AA A4 6A
DPCM : 95 56 B5 AA 4A AA AA AA AA AA 55 55 AA AA 4A D5 52 55 55 55 55 55 55 55 55 55 55 55 55 55 B5 4A
DPCM : 55 B5 AA BA AA AA AA 56 AA AA 5A 93 AA A8 AA AA AA AA 4A 55 95 2A D5 5A 55 55 55 AB AA AA AA 5A
DPCM : 55 A5 55 55 6A B5 AA 54 95 56 55 95 5A 55 A9 AA AA AA AA AA AA AA 4A 55 55 55 55 55 55 55 55 55
DPCM : 55 55 55 55 55 AD AA AA AA 5A 2D 55 6B AB AA 94 AA AA AA 52 AA AA 2A 55 55 55 53 55 65 55 55 A5
DPCM : D5 AA AA AA A8 AA A9 6A AD AA 4A 35 55 D6 52 69 55 A5 AA AA AA 6A AA AA AA AA AA AA AA AA AA AA
DPCM : AA AA AA AA AA 52 A5 55 55 55 55 B5 AA AA AA 6A B5 AA AA AA 6A A5 AA AA AA 2A A9 AA 2A 55 55 55
DPCM : 55 55 55 55 55 55 55 B5 AA AA AA 5A 55 95 5A AB 52 55 55 B5 2A 55 AA AA 95 AA AA AA AA AA AA AA
DPCM : AA AA AA AA AA AA AA 4A 55 55 B5 54 55 55 55 55 55 D1 AA AA AA 6A B5 AA AA AA AA AA AA AA AA AA
DPCM : 92 AA AA 54 55 6A 55 55 55 55 55 55 55 AB AA AA AA 6A D5 54 B5 52 55 A9 AA BA 4A A5 5A 95 AA AA
DPCM : AA AA AA AA AA AA AA AA AA AA AA AA AA AA AA AA 2A 55 55 55 55 55 55 55 AB AA AA 6A AD AA AA AA
DPCM : AA AA AA AA AA 52 AA AA AA AA 54 A5 AA 56 55 55 55 AB 52 D5 AA AA AA AA AA 56 55 B5 AA 2A A5 6A
DPCM : 55 A9 AA AA A5 AA AA 8A AA AA AA AA AA AA AA AA AA AA AA AA AA AA AA AA AA 2A 55 55 55 AD 54 55
DPCM : 55 55 55 55 AD AA AA AA B6 AA AA AA AA AA AA AA 2A 55 AA AA AA 54 55 55 55 55 A9 5A 55 55 D5 AA
DPCM : AA AA AA AA 56 69 55 55 55 55 55 B5 4A A9 AA AA AA AA AA AA AA AA AA AA AA AA AA AA AA AA AA AA
DPCM : AA 54 55 55 55 55 55 AD AA 52 55 B5 AA AA AD AA AA AA AA AA AA AA 4A A9 AA AA AA AA 4A 55 54 55
DPCM : 55 55 55 55 55 D5 AA AA AA AA 56 55 A9 56 55 55 AA AA AA AA AA AA AA AA AA AA AA AA A5 AA AA AA
DPCM : AA AA AA AA AA AA AA 4A 55 55 55 55 55 55 55 55 AB AA AA AA 6A 2B AD AA AA AA AA AA AA 94 AA AA
DPCM : 2A 55 55 55 55 55 55 A5 55 55 B5 AA AA AA AA AA AA 56 95 AA AA 6A 55 A5 AA AA AA AA AA AA AA AA
DPCM : AA AA AA AA AA AA AA AA AA AA AA AA AA AA AA 2A 55 55 55 55 55 55 55 AB AA AA DA AA AA 54 B5 AA
DPCM : AA AA AA 4A A9 AA 2A 55 55 55 55 55 55 55 55 55 15 D5 AA AA AA 6A 55 55 55 AA 56 55 AA AA AA AA
DPCM : AA AA AA AA AA AA AA AA AA AA AA AA AA AA AA AA AA AA 4A 55 55 55 55 55 55 55 55 55 55 AB AA AA
DPCM : 6A AD AA AA AA AA 54 55 55 55 95 AA AA 52 55 55 55 55 55 55 55 45 D5 AA AA AA AA AA 6A AD 52 55
DPCM : 55 95 AA AA AA AA AA AA AA AA AA AA AA AA AA AA AA AA AA AA AA AA AA AA AA AA 4A 55 55 55 55 55
DPCM : B5 AA AA AA AA AA AA 56 AD AA AA AA AA AA 2A 95 AA AA AA AA 52 55 55 55 55 55 51 55 55 55 55 55
DPCM : 55
DPCMDEF  15  2385 "ching.dmc"
DPCM : 00 00 00 A0 AA AA AA AA AA AA AA AA AA AA AA AA AA AA 52 AB 2A AD AA AA AA AA B4 AA 54 AB AA B4
DPCM : B2 4A AB 1A 6A 97 A4 AB AC 4A 75 4B A8 D7 04 77 95 94 76 13 6A 2F A4 5D 49 5A AB 26 7C 55 E8 45
DPCM : 27 35 2F B8 74 D1 03 AF 2E 6C F8 01 EB 0F AC BC 50 F9 81 AD 26 3E D8 29 E5 03 FE 48 5B F0 4B E8
DPCM : A5 AA 8A 3E E8 89 5E 21 5F C2 AB 5A 22 FE 09 92 7F 04 F5 87 92 D6 4D D0 4F E8 85 3D E0 9F 02 FE
DPCM : 52 E0 1F AC 2A 79 81 7F 80 FF 80 36 7B 01 FC 17 50 DF 20 B7 4A 2D E1 0F E8 0F F8 05 BF 80 7F B0
DPCM : D0 DB 04 FE 04 D9 FE 00 FE 07 68 FA 07 E0 BF 00 AF 1B D0 7F 02 DA 0F E0 7B C0 07 7F 80 FF 00 7F
DPCM : C0 07 7F 01 FC 07 D0 5F 15 F8 79 40 B7 9A 6C E0 3F 80 7F 10 F9 4F 00 FF 01 ED 27 24 FD 22 93 AE
DPCM : 2A DD E0 83 2B 5F E0 03 FB 06 F8 C4 1F 70 5F 01 F6 1F C0 F5 05 E0 FF 01 FC 91 16 F0 1F F0 07 F8
DPCM : 03 7D 4B D0 17 AB 0A FA 07 F0 1F F0 92 3F 80 FE 07 80 FF 01 F0 BF 00 FC 4F E0 F3 0F C0 3F 40 F7
DPCM : 9A 80 1F FA 0A F4 03 5F E8 1B E0 5D 62 A5 87 3E B0 FD 01 7C 15 F8 E0 1F F0 1F 60 F0 1F C0 7F 60
DPCM : 63 3F 80 FF 00 FE 15 E0 5F 40 E5 1F 08 FF 01 8F 0F 1E F8 43 C3 17 0F F8 53 49 D4 2F C0 3F F0 D4
DPCM : D1 05 3F A1 DA 2D 84 BF C0 5D B4 23 BC 89 DE A0 9E 54 9B F0 C1 0F 7C 5A E0 0F 5C 5F E0 E2 17 54
DPCM : F9 48 E5 07 BC 0B F8 03 5F 05 FE 68 E1 A6 81 3F 78 A4 F4 07 FC 01 BF C0 3F C0 0F 3E A2 B9 0B 0B
DPCM : FD 42 A9 DA 0F E0 3F 40 5D 7F 00 3F 25 9A FE 00 FC B2 0B FC 06 F4 C8 1F A0 FF 40 E2 BF 00 FC 2B
DPCM : 40 FF 03 F8 56 16 E0 9F 54 AD 36 C4 97 AC 49 3D 49 35 EC 07 F8 07 7C 68 57 81 3F F0 25 F2 4D 42
DPCM : FE 05 F8 E1 0B E2 3F C0 87 F5 02 FE A0 67 D2 07 F8 A1 17 74 37 72 05 FF 00 FE 85 14 FA 07 FC A2
DPCM : 5A A2 5D 78 C1 AF 80 3F 7C 40 FB 03 7C F4 02 FA 07 B1 D5 3E 80 7F 82 BC EA 80 3F B4 58 F9 01 9F
DPCM : AC 36 E0 0F 95 5E F4 C0 2D 3B D0 ED A0 27 B6 2D F0 83 4F A4 7E C0 4B ED 02 FE 21 F8 DA 05 F8 43
DPCM : 62 5F 1E E0 0F D9 05 3F F0 A5 E0 0F 2E 7A 2D D0 9B 56 A0 FF 00 FE A0 1E F1 07 F8 5E 80 F6 07 A9
DPCM : B6 0B F0 0F 3E 11 FE 03 6E 45 2F 70 5F 40 F5 1F C0 5F 48 C9 7F 00 BF 24 6C 7B C0 AD 26 17 7C D1
DPCM : A5 82 7F E0 A5 74 03 7E 15 F8 D2 0B 7C D2 52 8B 3D A9 A2 5B 21 7D A9 54 E9 07 DC B4 6A B0 27 5D
DPCM : 94 FC 41 43 7F 01 F4 1F 28 ED 0F C0 7F 80 7B 15 B8 DB 44 A5 5D 91 37 68 93 17 55 7B 40 EF 12 49
DPCM : FD A0 FA 09 1A FD 0A E2 1F 11 FD 22 55 53 37 D0 2F C2 5E D8 55 A4 AB 0D A9 3D 6A D0 4F 42 5F F8
DPCM : 02 FD 02 FA 8B 54 EA 13 6C 57 B4 C4 4F 54 9D D4 52 97 68 97 A8 2B 6D D0 6B 49 2D BA 89 5D 52 AB
DPCM : A4 17 7A 61 6D 43 2B DA 56 C8 5B 89 EA 95 68 AD 96 D0 7E E0 CA 26 2B 7A B1 4A 6D 89 76 A1 5D C2
DPCM : 1F F0 A5 D4 4A B6 A8 57 A8 BA 15 E8 3F C0 0F 75 12 FD 01 5F 91 5E D8 52 AB 92 3D 52 A9 7E 80 FE
DPCM : 24 55 F4 07 F8 17 68 55 1F F0 2B A2 5D 64 D9 15 6A A7 2A E9 17 E0 AF 90 AA 3F 00 FF 05 B8 ED 03
DPCM : 7C B5 C0 A7 26 FA A0 AB 49 27 6E 49 6D A1 27 AD 5A A8 57 92 BA 13 A9 2B 57 68 ED 44 8B BE 84 FC
DPCM : 82 AE A4 2F F0 4B 64 AB 56 A8 2B DA 52 D3 45 9B D8 0B D9 CA AA 12 FE 48 E9 56 05 BD 5A 21 FD 03
DPCM : F8 0B B5 A8 1F 60 BF 14 D2 57 09 7D B1 C2 0F E9 2E E0 0F E9 15 F9 42 EA 07 94 FF 00 ED 87 24 FE
DPCM : 03 E8 0F 65 D5 A6 54 5D 91 D5 0B 6C 5B F0 8A 5F 80 7F C0 6D 45 25 FD 81 56 3D 68 E9 87 14 BF 28
DPCM : E9 43 CB 2A 3E E8 92 A5 0F 74 F5 A0 CA 1F 54 EA 07 D4 6F 50 A3 AF 40 FD 02 BD D2 4A 55 17 AD AA
DPCM : B4 AA 89 2E 75 51 D9 07 6A 2F 54 F2 93 92 3D E8 A2 5B 05 FE A2 C4 97 2C 35 F5 82 D6 43 7C A1 AD
DPCM : 49 2D AD 2A 59 75 43 DA 96 D4 D2 1D 50 7F 40 77 95 22 EF 44 D5 A6 0A 77 29 D9 49 8B FA 48 D9 45
DPCM : AE B4 89 B6 26 2B D5 2A EA 23 B6 4A 7A A1 97 52 5B AA D4 AA 4A B5 56 A4 5D 91 D5 AA 4A FC C2 92
DPCM : AB 2A F5 48 AB 52 2F F0 16 E9 16 7A 51 AB D2 16 D9 AA B2 A2 AE 5A A8 DD 01 FE 24 95 DA 07 F8 95
DPCM : B4 68 2F 70 37 C4 4B 1D E9 85 5A AB 6C C8 5F 40 3F 51 35 F5 01 EF 12 DC 45 CD 2A 6D 49 BA 25 6D
DPCM : A1 BD A0 5E D4 26 B9 A5 92 2D 3B E8 CA 15 B6 6C 51 8B 5E 09 7D A5 A2 76 13 BA A5 AA B4 AA 52 B6
DPCM : AA A4 2D 6D 91 B5 46 76 D2 0B B2 4F 64 4B BE A0 6D 15 55 DD 84 DA D2 4A DA 2D 68 AD AA A2 5B 2C
DPCM : B5 B4 4A 2B D5 56 68 AB 4A 55 2F C1 6B 25 95 EE 88 D6 56 09 FD 22 B2 27 1B 7C A5 CA 2A 5D 68 57
DPCM : 51 AB 4A 6D 49 EA 0B A9 57 AA A8 5F 40 5F 49 55 AB D4 D2 4A 2B 6D 61 AB 4A 9D 78 45 B5 8A 76 49
DPCM : 55 55 9B B4 D4 2A 4B AD 5A 68 5B 89 AE 5A 52 D5 15 BA AC B2 54 AB 4C 55 6D 91 4B 5D 54 D5 45 4B
DPCM : 7A 25 EA 15 E9 2A AD 54 AD 52 AD 4A AD 4A 76 51 6D 49 AB 54 5D 64 2B AD 9A B4 45 4D D5 6A A2 6D
DPCM : 13 DA AA 54 53 17 A9 3D 61 4B AB 4A 76 A9 52 4B 2B 76 52 AB 4A 2D 75 25 BA 25 55 6D 25 EA 15 D5
DPCM : 54 6B A4 6E 89 BA 96 A8 9B 2A 55 75 91 6E AA 4A D5 25 DA CA AA D4 AA 64 4B 9B 54 5D 51 4B AD AC
DPCM : D2 AA 2A D9 45 AD 54 6D A1 2D 5D A2 B6 25 4D 6D 85 DA 13 55 B5 15 E9 8D 54 2B AB 52 AB 4A 2B D5
DPCM : D4 45 E9 4E E8 AA AA A4 3D 64 2B D5 25 7A 29 D5 52 2B 55 AD 2A 69 AB AC 4A EE 08 BD 49 AD E4 2E
DPCM : 68 5B D2 2A D5 AA 64 AB 52 AD B4 45 DA 95 D4 52 57 A4 5B 49 5A 6B 85 B6 6A 64 CB 26 AD D4 AA 52
DPCM : AB 9A 64 5B 49 AD AA 52 AD 15 59 6B 91 D6 AA 2A B5 2A D5 26 6D 51 AD 4A 2D D5 15 D5 96 52 D5 AA
DPCM : 54 4D AD 54 6D 49 4B AD 2A B9 49 2B D5 2A D5 2A 6D 49 AD AA 4A B5 45 B5 AA 2A 55 97 D4 AC 56 A4
DPCM : 5B 92 B6 AC 52 AB AA 2A B5 45 B5 AA AC 52 AB 2A A5 5B 91 76 C9 4A 6D 45 B5 4A B5 CA 52 AB AC B4
DPCM : D2 4A AD AC B4 52 17 D5 AA D4 AA 4A 55 6D 49 53 AD 32 D5 AA 52 AD 2A B5 D2 AA 4A 5D B4 52 AB 26
DPCM : B9 AA 52 D5 2A 55 B5 45 D5 2A B5 52 AB 4A AD 54 AB 52 AB 52 AD 2A 2B B5 AA 64 2B D5 AA B4 49 B5
DPCM : 26 B5 D4 AA 52 AB B4 52 AD 2A D5 AA 52 4B AB 4A 75 49 B5 4A AD 54 AB 52 AB AA 2A B5 AA 52 AD 2A
DPCM : B5 D4 96 E4 96 54 AB AA 52 AB 52 AD D2 4A AD 2A D5 AA 52 AD 52 B5 52 AB B4 52 AD 52 AB D4 4A B5
DPCM : 4A AD 4A AD B4 4A D5 96 34 B5 AA 52 AD AA 68 AB 52 AD AA 4A B5 CA 4A B5 AA B4 4A AB 54 5B D4 4A
DPCM : AD 4A 6D 49 AD D2 AA 54 AB AA 54 4B AB 54 6D 89 AD AA 52 B5 45 B6 AA B4 52 9B 54 AB D4 4A 55 AD
DPCM : 4A B5 AA 2A D5 16 69 AB 4A 4B 6D 51 AD 49 B5 4A D5 4A AD 4A B5 4A AB 54 AB 52 2B 75 49 B6 AA 54
DPCM : AD 16 55 AB 4A D5 AA D2 52 AB 52 AD CA 52 AD 4A AD 2A B5 AA AA 52 AD AA 54 B5 AC 52 AD 2A AD B2
DPCM : 26 D5 AA 54 53 9B 54 6B 4A 55 AB 52 B5 52 53 AB AA B4 D4 2A 55 AB AC 4A B5 4A AD B4 2A 55 AB 4A
DPCM : D5 96 54 AB AA 54 5D 51 B5 AA 92 B6 45 D9 AA 4A B6 AA D4 4A AB D4 AA D2 AA D4 AA 4A B6 25 59 9B
DPCM : 2A D5 56 A2 AD 4A 55 AB AA B4 AA 4A AB D4 B4 4A 2B AD 52 B5 4A AD AA 54 D5 AA 54 B5 AA 52 AB 2A
DPCM : D5 AA 52 2B AB 54 B5 4A 2D AD AA 54 AB 2A 55 AD D2 52 AB 54 AD CA 4A B5 2A D5 2A B5 4A AD 4A AD
DPCM : 2A B5 AA AA 4A AD 52 AB 52 AB 54 AD D2 4A AD AA B4 52 2B B5 AA 54 AB 4A B5 B4 4A D5 2A D5 AA D4
DPCM : 4A AD 4A B5 AA AA 4A AB 2A B5 AA AA 4A AD 52 AD 4A B5 AA 4A B5 2A D5 2A AB D4 AA 4A AD 2A D5 AA
DPCM : 54 2B AD 52 AB AA AA B4 4A AD D2 AA B4 AA D4 4A AB 54 AB CA 4A AD AA D4 AA 4A B5 2A 55 AB AA 54
DPCM : AB AA 54 AB 4A AB AC 4A AD 4A AD B4 2A D5 2A B5 2A AD 4A AD AA 2A D5 AC 4A B5 26 D5 AA 2A 55 9B
DPCM : 54 AB D2 4A AD 4A B5 4A AB B4 D4 2A D5 AA AA 52 6D 91 B5 AA AC D4 26 D5 AA D4 AA B4 AA D4 AA 54
DPCM : AB B4 4A B5 2A B5 D2 AA 54 AB 4A B5 AA 4A AD AA 54 AB 2A 2B B5 2A D5 AA 2A D5 AA D4 AA AA AA AA
DPCM : 2A B5 AA 52 B5 AA 2A B5 AA B4 4A AB 52 AD 4A 2D B5 2A B5 AA 54 AD 2A D5 AA 2A D5 AA 52 2B AB 4A
DPCM : B5 CA AA D4 AA B4 4A AB 52 AD AA 54 AD 4A B5 AA 4A B5 2A 55 AB 2A D5 AA 52 AD AA D4 AA 2A AB B4
DPCM : 4A AB 2A AD 52 AB AA 54 AB 52 AD AA 52 AD 4A B5 AA 34 B5 AA 4A AB AA B4 4A AB 2A AD D2 2A 55 AB
DPCM : D4 AA 4A 55 AD 52 55 AB 2A B5 AA 52 AB 2A B5 B2 4A 55 AB B4 D2 AA 4A AD AA 52 B5 2A 2D B5 4A D5
DPCM : 2A AD 54 AB 52 AD 52 AB B4 AA D4 AA CA AA AA AA D4 2A AD 2A B5 4A B5 2A AD B4 AA D2 2A AD 54 AB
DPCM : 4A B5 AA D4 AA AA 4A AD 52 AD 4A AB AA AA AA AA AA
DPCMDEF  16   193 "kickS.dmc"
DPCM : 00 00 00 08 7B 78 70 08 C0 41 00 00 34 34 1F FF FF F9 FF FF FF FF FF FF FF FF 8B 40 00 10 00 00
DPCM : 00 00 48 24 09 00 00 00 00 00 00 BE FF FF FF FF FF FF 7F B7 FF FF FF FF FF FF FF FF FF 11 00 02
DPCM : 00 00 04 00 21 88 24 49 00 00 00 00 00 00 00 00 00 74 77 EF DD 7B 77 EF DD BB DD 6D DB B6 B6 5A
DPCM : 6B B5 6A D5 6A B5 5A AD 5A 55 FD AA 2A 95 92 24 89 44 44 84 10 21 04 21 04 21 44 22 25 A5 00 00
DPCM : 00 00 00 00 00 00 00 00 74 77 EF 7D EF 7D DF 77 EF DD DD 6D 5B 6B AD 56 55 A5 4A 29 25 25 49 12
DPCM : 49 92 48 92 28 91 92 A4 A4 94 52 A9 52 55 55 55 B4 4A 6B 2A 6D A9 94 4A B1 AA 4A 51 14 45 51 14
DPCM : 55
DPCMDEF  17   945 "sn255x.dmc"
DPCM : 00 00 00 00 55 55 55 55 55 55 35 4D 53 35 35 35 CD D2 2C D3 34 CB D2 34 CB AA E2 B1 E1 34 C7 E1
DPCM : 31 CD E1 B8 1C 33 1E CD 7E E0 83 0F E0 00 FC FF FF FF 00 00 00 80 FF E3 FF 0F 3F 00 80 01 F8 80
DPCM : FC 83 1F 3F FC FF FF 0F 0C 00 00 00 7F F8 7F E0 0F FE E1 03 3F C0 07 18 F0 30 C0 1F E0 87 7F F8
DPCM : 3F F0 8F FF 0E FE BF 05 3C 80 07 0E 7C 00 80 03 F1 3C 00 7F F0 FF FF F0 0F 3E FC F8 06 FC 80 39
DPCM : 00 00 FC 0F 1F 7E 00 08 FC C0 7F 3F FC 1D 3F F8 FF 02 8C E0 CF 00 00 07 0C FF 00 FE E1 F1 8F 8F
DPCM : 07 8E 1F FF 07 3C F8 E0 07 F0 A8 0F F0 03 7E 00 BF 07 76 30 F0 3F F0 C0 7F 78 FE 07 F8 01 3C 38
DPCM : F8 C0 79 18 F8 07 FE E0 FF E0 83 0F 1C E0 03 FC 00 FE F8 81 FF 07 7F F0 10 BE 03 1F F0 C1 07 0F
DPCM : E0 0F E0 0F 7E F8 07 7C C0 87 0F FC 43 FC C1 FF F0 81 0F 38 06 0E 7C 1C 7C C1 07 3F 7C 80 0F FE
DPCM : 07 F8 F0 0F 80 E3 8F 3F 78 F0 C3 00 DF F1 1F E0 03 FC 01 1F F0 3F 10 8F 3F 78 38 F0 0F 3C F0 83
DPCM : 0F 06 FE E1 83 87 3F F8 F0 01 C1 C3 07 3E 3E F0 C1 0F FE 61 F8 E0 83 1F 7C 80 7F F0 03 3F 60 7C
DPCM : 3C F0 18 78 FC 10 FE C3 C3 07 FC 81 73 78 D0 27 E2 87 1F F0 C1 0F 78 DE F0 3C F0 01 FC 81 1F 3E
DPCM : C8 0D FF C0 FC 00 FC 03 1F FE 81 05 06 7F 82 FF C0 1F 1C F8 E1 03 FC F1 80 0F C3 C3 7B 0E 1E 7E
DPCM : 30 3E 78 F8 01 3F 18 FE A0 A3 3E C0 1F 1E 7E C0 E3 F0 08 7E 78 FC 05 C7 33 1C 7C F8 61 F0 1C 4E
DPCM : 8B 87 E9 C1 0F 06 1F 1F E3 83 C3 87 BF C0 87 63 F0 E1 C1 2B BC C3 23 E2 F3 08 3E F8 E2 E1 82 3B
DPCM : F4 C2 C7 1E 07 BC DE C0 F1 E0 E1 03 3F F0 C1 27 BC 03 1F 7C F8 C0 4F 81 8F 1E 8E 0F 87 E3 E0 87
DPCM : 3E F8 70 3C 4C 71 7C 7C 10 3E 2D 5C 5E 68 C3 75 F8 04 9F F8 E0 05 0F CF 72 C8 A7 A8 17 BA 86 3E
DPCM : 78 54 E3 03 BD 82 1F FA 82 F1 E1 D1 B2 E1 8E C3 C1 0F 1E 56 B5 A8 87 0F E9 C1 0F CE 83 0F EA D1
DPCM : E2 19 BA C1 A7 F0 F1 E0 16 F5 E0 D8 51 5D 52 6B A8 3A AE 2A 3D 74 B2 13 3C F0 E9 78 78 8D D2 51
DPCM : 5D 78 29 87 A7 A2 3A 0D 0F B7 5C 18 7B B1 0E 3E 94 07 97 1E BA C5 D2 12 AB A3 9B D2 0D B6 51 55
DPCM : 75 4A 69 1D 56 23 1F F1 D4 52 27 2B 1B 1B 4E 3E 68 57 3C 4C 65 A5 55 F5 A8 26 17 BA 54 2E DA 34
DPCM : B9 54 87 6B D1 1A 2D 7A CA 51 87 4E D5 C9 85 56 47 C3 47 8B 8B E5 15 5E E1 51 2B 4E 4B B5 5A 2C
DPCM : 56 5D B4 52 4B 2D 9E 94 AB E8 A9 52 4B 17 D3 C5 E2 2A 35 95 6B 72 D4 A2 AB B4 54 6D B4 52 2B 4B
DPCM : D5 52 AD 78 E4 4A 69 35 4B 9E 5C D8 D2 52 8D 6B 61 39 3D 4C D3 4A AD 52 53 D3 AA D4 2A 56 D3 D4
DPCM : AA 2A 59 AB 54 47 4B AD 4A D3 AA 4A D3 52 D5 54 B5 AA D4 B2 D4 E2 B2 A9 D2 AA D4 D4 4A AB D4 CA
DPCM : 4A 35 D5 2A AD D4 CA 4A 3A B5 64 55 D3 AA 34 2D 4D 2B 59 2B 35 AD 52 B5 32 B5 D4 52 B5 54 AB D4
DPCM : 2A 2D D5 2A 2D B5 4A 4D 55 2D AB AA 54 B5 52 B5 2A 55 53 D3 AA CA AA 4A 53 53 2B B5 2A 55 AB 52
DPCM : B5 52 2D B5 B4 32 AB CA 52 55 2D AB AC AC 54 2D 4D D5 2A D5 52 2B AD 34 4D 55 55 55 AB AA 54 55
DPCM : 53 2D 55 AB 4A 2B 55 35 AB 52 55 55 B5 AA AA AA 2A 55 55 55 AD AA 4A 55 2D 55 B5 AA 2C D5 54 55
DPCM : 55 AD AA 4A 55 4D 55 55 55 AB AA 4A B3 4A 55 53 55 2B 55 AB AA D2 54 B5 AA AA 2C AB 52 D5 B4 AA
DPCM : AA 4A 55 55 D5 AA 55 55 55 55 55 55 55 55 55 55 55
DPCMDEF  18   801 "TR_90921_v3.dmc"
DPCM : DB FF FF FF FF 8B 00 00 00 00 00 00 00 6B DB FE FF FF FF FF FF D7 92 24 04 00 00 00 00 00 92 2A
DPCM : 55 6B DB DE FF FB FF FF FF B7 6D D5 4A 49 92 08 02 00 00 04 04 42 24 A9 52 55 B5 D6 DA BA DD FB
DPCM : BE EF F7 F7 FB BB 6D AB 55 55 55 4A 4A 4A 22 82 40 10 04 21 44 84 44 92 94 AA 54 55 55 AD 56 6B
DPCM : B5 B6 B6 DB DD EE ED DE ED DD BD DD DB B6 D5 AA 55 55 55 55 2A A5 94 52 4A 92 24 22 22 44 44 24
DPCM : 22 89 24 49 92 92 52 AA 54 55 55 55 D5 AA 5A B5 5A AD D6 5A 5B DB B6 6D BB ED B6 ED B6 DD 76 DB
DPCM : 6E DB D6 5A D5 AA AA AA AA AA AA 52 55 A5 52 2A 95 52 4A 29 25 49 12 91 44 22 89 24 49 92 24 25
DPCM : 25 25 A5 94 4A 55 A9 AA AA 5A 55 55 B5 AA 55 AB 55 AB D5 6A AD B5 B5 AD 6D DB B6 6D DB B6 B6 6D
DPCM : DB B6 6D 6B 6B AD 56 AB 5A 55 55 55 55 55 95 AA AA 4A 55 A5 52 2A 95 4A A9 94 52 52 52 92 44 92
DPCM : 24 49 92 94 A4 A4 A4 94 52 4A A9 54 AA 54 55 55 55 55 55 B5 AA AA 55 AD 5A B5 6A D5 6A B5 5A AD
DPCM : B5 B6 B6 B6 B6 D6 B6 B6 D6 D6 D6 D6 D6 5A AB B5 6A D5 AA 5A 55 55 55 55 55 55 A5 AA AA 2A 55 55
DPCM : AA 54 A9 52 A9 52 A9 94 52 4A 4A 4A 52 4A 4A 4A 29 A9 94 52 A9 94 2A 55 AA 54 55 A5 AA 5A 55 55
DPCM : 55 B5 AA AA 55 B5 AA 55 AD 6A D5 AA D5 6A AD D6 5A 6B B5 D6 5A AB B5 D6 6A AD B5 6A D5 6A 55 AD
DPCM : AA 6A 55 55 55 55 95 AA AA AA AA 4A 55 95 AA 52 95 AA 54 A5 4A A5 52 2A A5 94 52 4A 29 95 4A A5
DPCM : 52 A9 54 A9 4A 55 AA AA 52 55 55 55 AB AA AA AA 5A 55 D5 AA 6A 55 B5 AA 56 D5 AA D5 AA D5 6A B5
DPCM : 5A AD 56 AB 55 6B B5 6A B5 AA 55 AD AA 56 55 55 55 55 55 55 55 55 55 55 95 AA AA 2A 55 55 AA 4A
DPCM : 55 A5 2A 55 2A 95 4A A5 52 A9 54 AA 54 AA 52 95 AA 54 95 AA 2A 55 55 55 55 55 55 55 AB AA AA AA
DPCM : 5A 55 D5 AA AA 56 55 AD AA 55 AB 5A B5 6A 55 AB 56 AD 5A B5 AA 55 AB 6A 55 D5 AA AA AA 5A 55 55
DPCM : 55 55 A9 AA AA AA AA AA AA 54 55 A5 AA AA 54 55 AA 4A 55 AA 54 A9 52 A5 4A 55 AA 4A 55 A9 AA 54
DPCM : 55 95 AA AA AA AA AA AA AA AA AA AA 5A 55 55 55 AB AA AA 5A 55 D5 AA 6A 55 B5 AA 55 B5 AA 56 B5
DPCM : AA 56 D5 AA 6A 55 55 AD AA AA AA AA AA AA AA AA AA AA AA AA AA AA AA 54 55 55 A5 AA AA 4A 55 95
DPCM : AA 52 95 AA 52 95 AA 4A 55 95 AA AA 54 55 55 AA AA AA AA AA AA AA AA AA AA AA AA 5A 55 55 55 D5
DPCM : AA AA AA 5A 55 55 AB AA 56 55 AD AA 5A 55 B5 AA 6A 55 55 AD AA AA AA 6A 55 55 55 55 55 55 55 95
DPCM : AA AA AA AA AA AA AA 52 55 55 55 A5 AA AA 54 55 A9 AA 52 55 A5 AA AA 54 55 55 A9 AA AA AA AA 54
DPCM : 55 55 55 55 55 AB AA AA AA AA AA AA AA 56 55 55 55 55 AB AA AA 56 55 55 AB AA AA 55 55 D5 AA AA
DPCM : AA 5A 55 55 55 55 55 55 55 55 55 55 55 55 55 55 55 55 55 55 95 AA AA AA AA AA 54 55 55 A5 AA AA
DPCM : 54
DPCMDEF  19  1377 "sine_kick.dmc"
DPCM : AA AA 2A 25 E2 FF FF FF FF D6 6A 55 A9 02 00 00 00 00 10 22 22 A9 FE FF FF FF F7 DD 6D 6B AD 02
DPCM : 00 00 40 80 20 84 24 4A AA F6 FF FF FF FF EF BB DB 5A AD 12 01 00 00 00 10 84 88 24 A5 54 55 DD
DPCM : FF FF FF FF 7F EF 6E DB 56 55 15 11 00 00 00 00 41 48 44 92 54 A9 5A 55 DB FB FF FF FF FF BE BB
DPCM : 6D 5B 55 55 A5 24 42 40 00 00 00 82 88 44 92 52 A9 AA 56 AD D5 B6 F7 FD FF FF EF EF BB DD 5A AB
DPCM : AA 2A A5 94 24 11 82 40 40 00 08 42 88 24 25 95 AA AA 56 AB AD B5 D6 B6 DD BD EF F7 FF FE DE DD
DPCM : 6D AD 56 55 A5 94 94 94 94 24 11 11 22 84 20 08 21 44 44 52 4A 55 69 55 B5 5A AB B5 B6 D6 5A 5B
DPCM : DB 6E F7 EE EE BD F7 BD 77 DB DA AA 55 55 A9 94 92 92 92 A4 24 25 91 44 22 22 22 22 11 89 44 92
DPCM : A4 94 AA 54 AD AA D5 5A AD B5 D6 5A 6B AD D6 D6 B6 B6 6D B7 DB ED 76 DB 6E DB 6D DB 5A AB AA AA
DPCM : 4A A5 94 52 52 4A 4A 49 29 25 49 24 89 24 92 48 22 49 92 92 92 52 4A A9 52 55 55 D5 AA 55 6B B5
DPCM : 5A 6B B5 5A AB D5 5A 6B 5B DB B6 6D 5B DB B6 6D 5B DB 5A 5B 6B AD B5 D6 5A B5 AA AA 4A 55 4A A5
DPCM : 94 94 52 4A 4A 92 24 89 24 92 44 92 24 29 49 49 29 95 4A 95 AA 52 55 AA AA AA AA AA AA 56 55 AB
DPCM : 56 AD 5A AD 56 AB B5 D6 D6 B6 AD 6D DB B6 AD 6D 6D 6D AD B5 D6 5A AD 5A B5 AA 55 AD 6A 55 AD AA
DPCM : AA 54 95 4A 29 A5 A4 A4 24 49 4A 92 24 92 24 49 49 4A 4A 29 A5 52 A9 4A 55 55 55 55 55 55 55 55
DPCM : 55 55 55 55 B5 AA AA 55 AD 5A B5 5A AB B5 5A 6B AD B5 D6 D6 5A 5B 6B AD D5 6A B5 6A D5 AA 55 AD
DPCM : AA 55 55 AB AA 5A 55 AD AA 55 55 55 55 AA 52 A5 54 4A 29 29 25 25 25 29 49 49 49 4A 49 29 95 4A
DPCM : 95 AA 54 55 A9 AA AA AA AA AA 95 AA AA AA AA AA AA AA 55 55 B5 6A D5 6A B5 5A AD 56 6B B5 56 6B
DPCM : AD D5 5A AB B5 5A AD 5A B5 AA 56 D5 AA AA 55 55 55 D5 AA AA AA 6A 55 55 55 AB 52 55 55 AA 54 A9
DPCM : 94 4A 29 A5 94 52 4A 29 29 A5 94 52 29 95 2A 55 A9 AA 54 55 55 55 55 55 55 55 55 55 55 55 55 55
DPCM : 55 55 55 55 AB AA 55 AD 5A B5 6A B5 6A D5 6A B5 5A AD 56 6B B5 5A B5 6A 55 AD AA 6A 55 55 AB AA
DPCM : AA AA AA 55 55 55 55 AD AA AA AA AA AA AA 52 95 2A 95 4A A5 52 2A 95 52 2A A5 52 2A A5 52 A5 4A
DPCM : 55 AA AA 54 55 55 55 55 55 55 55 55 55 AB AA 52 55 AD AA AA AA AA 6A 55 AD AA 55 AD 6A 55 AB 56
DPCM : B5 6A D5 AA D5 AA 55 AD 6A 55 AD AA AA 56 55 55 55 AB AA AA AA AA AA AA 5A 55 55 55 55 55 55 55
DPCM : 95 AA 52 A5 4A 95 2A 95 2A 95 4A 95 4A A5 52 A5 4A 55 A9 AA 52 55 55 55 55 55 55 55 55 55 55 55
DPCM : 55 55 55 55 55 55 55 55 B5 AA AA 56 55 AB 6A 55 B5 AA 5A D5 AA 56 B5 AA 55 AD 6A 55 B5 AA AA 56
DPCM : 55 55 D5 AA AA AA AA AA AA AA AA 55 55 55 55 55 55 55 55 AA AA 54 95 AA 54 A9 4A 95 2A 55 AA 54
DPCM : A9 4A 55 AA 2A 55 55 95 AA AA AA AA AA AA AA AA AA AA AA AA AA AA 55 55 55 55 55 55 55 AD AA 6A
DPCM : 55 D5 AA AA 55 55 AB AA 55 B5 AA 5A 55 D5 AA AA AA 56 55 55 55 55 55 B5 AA AA AA AA AA AA AA AA
DPCM : 55 55 55 55 55 A5 AA AA 52 55 A9 AA 54 95 AA 54 95 AA 54 95 AA 52 55 A5 AA AA 2A 55 55 55 55 55
DPCM : 55 55 55 55 55 55 55 55 55 55 55 55 B5 AA AA AA 56 55 55 AB AA 6A 55 55 AD AA 5A 55 B5 AA 6A 55
DPCM : 55 D5 AA AA AA AA AA AA 6A 55 55 55 55 55 55 55 55 55 55 55 55 55 55 55 95 AA AA 4A 55 55 AA AA
DPCM : 54 55 A9 AA 52 55 A9 AA 2A 55 55 55 55 A5 AA AA AA AA AA AA 5A 55 55 55 55 55 55 55 55 55 55 55
DPCM : 55 55 55 D5 AA AA AA 6A 55 55 55 AD AA AA 56 55 55 AB AA AA AA 55 55 55 55 55 55 55 55 55 55 55
DPCM : 55 AB AA AA AA AA AA AA AA AA AA 4A 55 55 55 AA AA 2A 55 55 A5 AA AA 54 55 95 AA AA AA AA 54 55
DPCM : 55 55 55 55 55 55 55 55 55 55 55 55 55 55 55 55 55 D5 AA AA AA AA AA AA 5A 55 55 55 55 AD AA AA
DPCM : AA 56 55 55 55 AD AA AA AA AA AA AA AA AA 56 55 55 55 55 55 55 55 55 55 55 55 55 55 55 55 95 AA
DPCM : AA AA 2A 55 55 55 A5 AA AA 4A 55 55 55 A5 AA AA AA AA AA AA AA AA AA AA AA AA AA AA AA AA AA AA
DPCM : AA AA AA AA AA AA AA AA 56 55 55 55 55 55 AB AA AA AA AA 5A 55 55 55 55 55 55 AB AA AA AA AA AA
DPCM : AA AA AA AA AA AA AA AA AA AA AA AA AA AA AA AA AA AA AA 2A 55 55 55 55 55 A9 AA AA AA AA 54 55
DPCM : 55 55 55 55 55 55 A9 AA AA AA AA 56 55 55 55 55 55 55 55 55 55 55 55 55 55 55 55 55 55 55 55 55
DPCM : AB AA AA AA AA AA AA 5A 55 55 55 55 55 55 55 55 55 55 55 55 55 55 55 55 55 55 55 55 55 55 55 55
DPCM : 55 55 55 55 55 55 55 55 55 A5 AA AA AA AA AA AA AA AA 2A 55 55 55 55 55 55 55 55 55 55 55 55 55
DPCM : 55 55 55 55 55 55 55 55 B5 AA AA AA AA AA AA AA AA AA AA AA AA AA AA AA AA AA AA AA 5A 55 55 55
DPCM : 55 55 55 55 55 55 55 55 55 55 55 55 55 55 55 55 55 55 55 55 55 55 55 AA AA AA AA AA AA AA AA AA
DPCM : AA
DPCMDEF  20  1745 "bell.dmc"
DPCM : 3F FF 3F C4 03 F8 03 00 80 BD 57 AA D0 FF 0F 00 FC FF 00 C0 5F AA 52 40 FF 07 80 FF 3F 00 F0 FF
DPCM : 03 00 DE 7F 05 A0 FF 0F 00 FC 7F 00 C0 FF 0F 50 91 FF 1F 00 FE 1F 00 F8 FF 00 80 FF F5 0F 00 FC
DPCM : 1F 00 FE 1F 00 F0 FF 07 24 C0 FF 1F 00 FE 0F 00 FC 7F 00 F0 FF FF 01 00 FC 0F 00 FE 1F 00 FC FF
DPCM : 40 02 F4 FF 0F 00 FC 1F 00 FE 3F 00 FC DF 7F 00 00 FF 1F 00 F8 0F 80 FF 3F 50 00 F8 FF 07 00 FC
DPCM : 7F 00 FE 0F C0 5F FD 07 00 80 FF 1F 00 FE 3F E0 4F 44 09 A1 FE FF 01 00 FE 3F 00 FF 13 55 49 D2
DPCM : 36 00 F0 FF 0F 00 FF 3F 20 D5 56 6D 04 F8 FF 01 80 FF 1F 00 FC 2F 74 02 F8 FF 00 E0 FF 03 80 FF
DPCM : 3F 00 40 FF 7F 00 E0 FF 01 F0 FF 07 00 FE BF 00 00 F0 FF 03 F8 FF 03 80 FF 07 00 F4 FE FF 00 E0
DPCM : FF 00 F0 FF 01 00 FF AB 0A 00 FC FF 03 E0 FF 00 E0 FF 03 80 E2 FF 3F 00 F0 FF 03 C0 7F 00 F0 FF
DPCM : 7E 00 00 FF FF 00 C0 FF 03 E0 1F A0 4B F6 FF 0F 00 F0 FF 01 C0 3F C0 5B 6A 5F 00 F0 FF 7F 00 C0
DPCM : FF 00 6C 6B 5B 49 EA FF 02 00 FC FF 00 80 FF 6B 48 6C DF 04 A1 FF 1F 00 F0 FF 00 80 7F FF 0A 40
DPCM : FD 07 00 FE 3F 00 E0 FF 5F 40 A0 FF 1F 00 FC 03 00 FF FF 01 C0 DF FF 07 00 F8 0F 00 FE 1F 00 FC
DPCM : FF 83 00 C0 FF 3F 00 FC 17 80 FF 1F 00 7F DD 3F 00 00 FC 7F 00 FE 0F 80 FF 47 24 01 FE FF 03 00
DPCM : F8 3F E0 FF 03 80 57 6D 97 00 C0 FF 3F 00 FC 87 FC 5F 00 05 49 F6 FF 01 00 FE 7F C0 2B 49 5D AF
DPCM : 12 55 00 E0 FF 3F 80 FF 17 51 12 41 ED 37 B1 FF 01 80 FF 1F 00 5D 55 D5 4A 00 FF 07 F0 FF 03 00
DPCM : FF 9F 80 54 44 FF 07 E0 FF 00 F8 FF 07 00 F0 57 F5 05 80 FF 03 FC 7F 00 E0 FF 07 00 2C F0 FF 0F
DPCM : E0 7F 00 FC 7F 00 80 FF 43 3F 00 E0 FF 07 DD 17 00 E0 FF 03 F0 A6 FE 7F 00 C0 FF 08 F4 3F 00 E0
DPCM : 7F B4 17 00 FF FF 00 80 7F 01 F8 FF 00 78 D5 FD 1F 00 F0 FF 01 C0 2F 00 FF 3F B2 02 D0 FF 3F 00
DPCM : C0 FF 00 FC 07 F0 BF 7A 17 02 00 FC FF 01 F0 1F F0 7D 91 4A 6A AD F6 07 00 E0 FF 81 DF 24 D5 DA
DPCM : 4A 94 55 00 FF 7F 00 F0 AF 6D 55 2A 54 B5 20 DF 07 00 FE FF 00 D4 BD AD 55 10 DB 45 80 FF 0F 00
DPCM : FF BF 04 88 EA FE 0A 40 FF 01 C0 FF 8F 00 7D DF 2B 00 E0 FF 03 C0 DF 0B C0 FE 5B 49 04 FD FF 00
DPCM : 00 FE 0F 81 FF 15 54 55 F5 0F 00 E8 FF 07 00 FE 8F 54 5B 6D 23 80 FE AF 00 80 FF 1F 40 5F D7 4A
DPCM : 54 F5 16 00 F8 FF 03 80 FF 1F 41 A9 D6 55 08 7D 5F 00 E0 FF 0F C0 DD DB 42 40 F6 2D 01 FD FF 00
DPCM : C0 FF 0F 81 A8 DD 4B 00 FA 7F 00 FC FF 01 80 FE 5B 41 20 FD 5F 00 FC 7F 00 F4 FF 02 40 D4 FE 17
DPCM : 00 FE 7F 00 7C FF 00 E0 BE AB 04 80 FE FF 00 FC 3F 01 E8 BD 22 20 ED FF 06 00 FA FF 01 78 5F 02
DPCM : 68 6F B5 12 A0 FF 7F 00 F0 7F 00 F2 AD 24 49 D5 FF 13 00 FE 7F 00 E0 B7 24 55 6B 5D 09 E2 FF 0F
DPCM : 00 F0 FF 00 68 ED 56 55 59 7F 05 00 FF 3F 00 E0 7F 25 49 E9 F6 0A A9 FD 07 00 F8 7F 10 A8 77 6F
DPCM : 05 A9 BD 03 81 FF 0F 00 F0 FF 2A 12 D9 DF 05 A0 FE 05 80 FE 3F 00 B2 FF 5D 01 41 FF 0B 80 FE 13
DPCM : 80 FD FF 08 08 F5 FD 03 00 FF 45 A0 FD 17 81 EC F7 2D 00 A0 FF 0F 80 7E 4B 52 7B AF 20 A2 F6 6F
DPCM : 01 00 FF 2F 52 D5 2A A5 D6 5D 25 00 EA FF 0B 00 FB DD 52 55 15 45 6A B7 57 00 D0 FF 2F 44 D4 D6
DPCM : 56 55 25 49 24 FD FF 00 40 FF 77 21 94 2A B5 55 55 2B 01 FC FF 0B 80 F4 DD 52 52 A2 DA 4A DB 2F
DPCM : 10 B0 FF 1F 80 50 75 B7 4A AA 55 92 FD BE 04 00 FD 5F 89 04 B2 DF 4A 6D 2B 44 EA 7F 03 00 D9 DF
DPCM : 2F 01 EA 56 55 DD 2D 02 E0 FF 96 10 A0 FE 7F 22 52 55 25 75 BF 00 50 BB FF 05 80 F6 7D 0B 49 4B
DPCM : 02 ED DF 26 01 D2 FF 2F 00 64 DF 4A B5 15 81 6A F7 BF 02 80 FE 5F 01 50 57 65 BB 2B 49 82 FA FF
DPCM : 13 00 D0 FF 42 55 4A DA D6 F6 16 10 D0 FE BF 00 C0 BB D5 5A 52 55 A9 75 5F 01 00 FE FF 02 89 6A
DPCM : D7 56 AB 44 49 D4 FF 0B 00 F0 FF 9B 08 A5 6A 55 B5 56 11 40 FF 7F 00 C8 FE 6F 49 90 54 55 6A FF
DPCM : 02 80 FD FF 02 04 B5 F7 96 90 5A 21 F4 FF 0B 00 EA FF 25 02 88 FB 1B 55 37 11 A8 FF 5F 00 90 F6
DPCM : FD 02 40 BF 55 B5 B7 12 00 FD BF 09 04 F0 FF 85 48 5B 55 55 BF 23 00 68 FF 3F 00 D0 DF 2D 49 D5
DPCM : 2A D1 F6 2D 01 00 FF FF 03 90 BA 5B 52 6D 25 49 EA FD 09 00 F4 FF 5F 00 B4 55 A9 56 5D 11 D0 FF
DPCM : 27 10 C0 FF 7F 04 24 55 49 F5 FD 04 44 FB BF 02 00 FE DF 09 A4 AA 08 ED FF 95 00 B4 FF 05 04 70
DPCM : FF 2B AA 2A 09 55 FF 5F 02 80 7E 5F 02 E0 7E 5B 6B A5 44 40 FE 7F 13 00 D8 FF 42 52 6D DD 4A 6D
DPCM : 05 01 D4 FF 7F 00 60 DF 2D 51 59 35 55 B5 4D 02 40 FF FF 03 84 BA 5D 52 55 55 A5 D4 7D 03 00 FD
DPCM : FF 4F 00 A8 D6 AA AA B5 4A A8 FF 15 00 A8 FF 3F 01 21 DA 56 D9 FD 0A 44 DD 5F 01 00 FD FF 25 20
DPCM : D5 92 EA FD 8B 00 D8 DF 05 01 D4 FF 5F 48 2A 45 54 DF 3F 02 A0 EE 6F 02 D0 DF B7 52 52 12 20 FB
DPCM : FF 09 04 F4 FF 12 88 76 DB 94 56 45 00 F5 FF 3F 00 50 DF 1B 11 D5 55 55 B5 55 04 A1 FE FF 03 00
DPCM : EE 55 25 B5 55 55 D5 6E 23 00 FA FF 0F 00 68 5B B5 56 AD 95 54 DD 2B 00 E0 FF 5F 08 91 AA AD 55
DPCM : 77 95 10 75 6F 01 80 FD FF 15 42 52 AB AA ED 2B 10 E8 77 0B 01 F5 F7 AF 40 24 95 52 F7 6F 02 48
DPCM : 77 57 11 A4 FD 5F 09 92 92 94 7D 7F 45 80 B4 DB 15 41 F6 DF 25 22 25 A1 DA F7 9B 40 A0 7E 57 51
DPCM : D4 BD 2B 91 14 21 D5 7E FF 0A 00 F5 6E 25 A9 56 AB 2A 95 94 A4 FA FF 2B 00 A0 7B 55 A9 6A 55 AB
DPCM : 54 55 85 D4 F7 BF 00 00 6D DB 56 55 5B 95 D4 5A 91 40 FB FF 02 04 D2 EE D6 DA 5A 89 94 D6 4A 40
DPCM : FA F7 2F 04 48 6D 57 6B 5B 05 21 DB 55 09 A9 DF 7F 09 20 D4 5A 6D 77 25 04 D5 DB 26 91 76 FF 8A
DPCM : 00 51 A9 DA DF 97 40 C8 6E AF 48 A4 F7 4D 48 92 A4 EA FE 5F 09 00 B5 77 45 A4 6E 57 25 55 49 54
DPCM : F7 BF 13 00 A0 EF 55 A9 5A 5B 55 55 52 22 D5 F7 5F 00 00 FB 5D D5 6A 55 55 2A 55 85 90 FD FF 09
DPCM : 00 74 6F 6D AD 4A 49 25 6D 95 20 F5 FF 4F 00 44 B5 5B 6B B5 24 22 DB B5 12 D4 F7 5F 02 04 D2 76
DPCM : 6D B7 15 42 74 F7 0A 91 75 BF 45 80 48 6D DB FD 2D 01 C8 5E 9B 14 A9 BB 5B 44 22 AD 6A F7 BF 00
DPCM : 40 EA 5E 55 A4 DD 5E 45 54 29 49 F7 EF 0A 00 A8 FB
DPCMDEF  21   673 "ripped00.dmc"
DPCM : 21 9E 87 E7 03 FC 3F 9F 07 00 6E F4 0F 00 00 E0 FF 07 00 00 FC FF 1C 00 E0 FF FC 03 00 00 FE 7F
DPCM : 00 00 00 FF 07 00 00 A0 07 3F 00 FC 03 E0 01 80 3F 00 0B 00 F8 17 78 00 C0 FC 4B 05 00 00 FE 07
DPCM : 00 00 80 FF 00 0D 00 F4 8B 94 04 80 1E 65 4B 00 C0 54 6A 01 00 00 07 00 5D 00 A8 01 C0 01 00 0B
DPCM : 00 80 81 BA 00 00 00 A0 95 00 00 00 54 3C 00 00 00 58 2B 00 00 00 AD 14 00 00 C0 50 00 00 00 00
DPCM : A0 00 00 00 40 03 00 00 00 54 00 10 14 80 02 00 00 00 54 00 00 00 88 2A 14 00 00 80 E6 00 00 00
DPCM : C0 D2 00 00 00 20 D0 40 00 00 00 28 0A 00 00 00 04 80 2A 00 00 00 C0 0A 00 00 00 E8 52 01 00 00
DPCM : F8 44 00 00 00 DD 28 00 00 80 5A 4B 02 00 00 68 56 00 00 00 40 55 4B 00 00 00 B4 12 00 00 00 68
DPCM : A0 25 00 00 00 58 29 00 00 00 AC 2A 00 00 00 D8 86 00 00 00 B8 0A 00 00 40 AD 14 00 00 80 6A 05
DPCM : 00 00 80 AA 00 00 00 D4 00 00 00 60 1A 00 00 00 34 04 00 00 00 40 15 00 00 00 AA 05 00 00 40 55
DPCM : 00 00 00 20 00 04 00 00 00 00 00 00 00 00 00 08 0A 00 00 00 14 00 01 00 20 00 00 01 00 00 00 00
DPCM : 80 00 00 00 00 54 00 00 00 50 04 00 00 80 00 00 00 00 50 00 00 00 00 02 00 00 00 94 0A 00 00 40
DPCM : 55 03 00 00 A0 56 00 00 00 D0 2A 01 00 00 50 55 00 00 00 A8 2A 00 00 00 B4 54 00 00 00 15 04 00
DPCM : 00 00 80 02 00 00 00 50 01 00 00 A8 00 00 00 00 02 00 00 00 50 00 00 00 00 00 00 00 00 00 00 00
DPCM : 00 00 40 00 00 00 00 20 00 00 00 00 00 00 00 00 00 00 00 00 00 00 00 00 00 00 00 00 00 00 00 00
DPCM : 00 00 00 00 00 00 00 00 00 00 00 00 00 00 00 00 00 50 00 00 00 00 50 00 00 00 00 00 00 00 00 00
DPCM : 00 00 00 00 00 00 00 00 00 00 00 00 00 00 00 00 00 00 00 00 00 00 00 00 00 00 00 00 00 00 00 00
DPCM : 00 00 00 00 00 00 00 00 00 00 00 00 00 00 00 00 00 00 00 00 00 00 00 00 00 00 00 00 00 00 00 00
DPCM : 00 00 00 00 00 00 00 00 00 00 00 00 00 00 00 00 00 00 00 00 00 00 00 00 00 00 00 00 00 00 00 00
DPCM : 00 00 00 00 00 00 00 00 00 00 00 00 00 00 00 00 00 00 00 00 00 00 00 00 00 00 00 00 00 00 00 00
DPCM : 00 00 00 00 00 00 00 00 00 00 00 00 00 00 00 00 00 00 00 00 00 00 00 00 00 00 00 00 00 00 00 00
DPCM : 00 00 00 00 00 00 00 00 00 00 00 00 00 00 00 00 00 00 00 00 00 00 00 00 00 00 00 00 00 00 00 00
DPCM : 00
DPCMDEF  22  1969 "ripped01.dmc"
DPCM : 01 00 C0 FF FF 3F 0A 00 00 80 FF FF FF 03 00 00 80 FF FF FF 07 00 00 F8 FF FF FF 01 00 00 FE FF
DPCM : FF 7F 00 00 80 FF FF FF 0F 00 00 80 FF FF FF 00 00 00 F8 FF FF 3F 00 00 00 FE FF FF 01 00 00 80
DPCM : FF FF 7F 00 00 00 FC FF FF 0B 00 00 E0 FF FF FF 00 00 00 F8 FF FF 07 00 00 C0 FF FF 3F 00 00 00
DPCM : FE FF FF 01 00 00 F0 FF FF 0F 00 00 80 FF FF FF 1F 00 00 FC FF FF 1F 00 00 E0 FF FF 1F 00 00 00
DPCM : FF FF FF C0 01 00 F8 FF FF 07 00 00 C0 FF FF FF 01 00 00 FE FF FF 07 00 00 F0 FF FF 7F 00 00 00
DPCM : FC FF FF 03 00 00 E0 FF FF 1F 00 00 00 FF FF 1F 07 00 00 FF FF FF 38 00 00 F8 FF FF C5 0F 00 38
DPCM : FE FF C7 0F 00 C0 F1 FF 3F 7E 00 00 F0 FF 3F F0 03 00 8E FF FF F1 03 00 70 FC FF 81 1F 00 84 E3
DPCM : FF 81 1F 00 F0 E3 FF 0F 1C 00 80 E3 FF 0F 1C 00 70 1C FF 0F 1C 00 80 E3 FF 7F 1C 00 00 1D FF 7F
DPCM : FC 00 80 E3 F8 FF FF 00 00 1C FF 7F E0 38 80 E3 FF 8F 1F 38 00 1C FF FF E3 38 80 E3 F8 FF 03 00
DPCM : 00 1C FF 7F FC F8 71 00 38 7E 1C C0 01 1C 07 FE FF C0 71 1C F8 FF E3 C7 81 03 3D FE E3 C0 7F 1C
DPCM : F8 81 03 07 7E E0 F8 81 1F 07 F0 E3 FF 8F 1F 00 70 E0 FF 81 1F 00 F0 03 FF 0F 1C 00 8E 1F FF F1
DPCM : E3 00 8E 1F FF F1 03 00 7E 1C FF F1 03 00 0E F4 F8 F1 03 00 8E FF FF 71 1C 00 70 FC FF F7 03 00
DPCM : 80 FF FF 7F 1C 00 80 FF FF F1 03 00 0E FC FF 71 00 00 80 5F FF 0F 00 00 8E FF 3F 7E 00 C0 F1 FF
DPCM : 3C 00 00 00 FE FF C7 71 E0 C0 FF FF 07 00 00 38 FE 1F 3F 01 00 C7 FF 1F 3F 00 E0 F8 FF FF 07 00
DPCM : 00 F8 FF FF 00 00 00 C0 FF 1F 07 00 14 F8 FF FF 07 00 E0 F8 FF FF 07 00 1C F8 FF FF 00 00 E0 FF
DPCM : FF 1F 07 00 00 FF FF 03 00 00 E0 FF 7F 00 00 00 E0 3F 7E 1D 00 80 FF FF 7F 00 C0 81 FF C7 8F 1F
DPCM : 00 70 FC FF 71 1C C0 81 FF 3F 7E 14 00 80 FF 3F 0E 40 C0 81 FF FF 0F 00 C0 F1 FF 3F 0E 00 00 8E
DPCM : FF FF F7 03 00 F0 FF C7 81 03 38 7E FC 78 81 03 38 F4 FF 07 04 1C 38 FE E3 C7 0F FC F8 F1 E3 C7
DPCM : 01 1C C5 FF E3 38 00 E0 F8 FF 03 07 00 1C C7 FF 03 07 00 E0 C0 FF E3 00 00 1C FF FF FF 38 70 E0
DPCM : F8 8F FF 38 00 00 FF FF 5F 07 00 1C F8 7F FC 00 80 03 FF FF FF 07 00 00 F8 FF 1F 07 00 E0 C7 FF
DPCM : 1F 07 70 E0 FF 8F E3 07 80 03 FF 7F 1C 00 80 03 FF 8F 1F 00 0E E0 FF FF 1F 00 0E E0 F8 F1 E3 00
DPCM : 8E FF FF 7F 1C C0 71 E0 FF 0F 00 00 80 E3 FF 8F 03 00 70 E0 FF F1 03 07 8E E3 FD D1 03 00 00 E0
DPCM : FF 7F 1C 38 00 1C FF 5F 40 C0 81 E3 FF 5F 1C 00 8E FF FF 71 00 C0 8F FF 3F 70 00 C7 01 FD 3F 7E
DPCM : 00 00 8E E3 FF 01 1C 38 F0 E3 DF 8F 03 00 DE FF FF 0F 00 00 80 FF FF 7F 40 00 F0 FD FF 01 00 00
DPCM : F0 FF FF 0F 00 38 F0 FF FF 01 00 C7 F1 FF F8 8F 03 00 F0 FF F8 01 00 07 FE FF 3F 00 00 C7 FF FF
DPCM : 3F 0E 1C 00 FE E3 3F 00 1C 38 FE FF 07 00 1C 00 8E FF 38 70 E0 C0 FF FF 07 00 1C C7 7F FC C7 01
DPCM : 00 F8 FF FF 00 00 1C F8 FF FF 00 00 00 FF 7F 1C 38 00 00 C7 FF 5F 38 80 63 F8 FF 1F 07 00 00 F8
DPCM : 7F FC C0 81 03 FF 7F FC 00 80 E3 FF 8F 1F 07 40 E0 FF FF 03 07 0E E0 F8 F1 03 00 70 1C FF 7F E0
DPCM : C0 01 1C 3F 7E 1C 38 80 E3 FF 0F 1C 00 8E FF FF FF 03 C0 71 FC FF 01 00 07 0F FC 3F FE E3 C0 81
DPCM : FF 3F 0E 00 C0 81 7F 3F 0E 00 00 F0 FF FF 01 00 00 F0 FF FF 71 10 C0 FF FF 07 0E 1C C0 8F E3 07
DPCM : 70 1C C0 FF E3 3F 84 03 C7 71 FC 38 F0 E3 00 8E FF 1D 01 E0 C0 FF FF 38 0E E0 C0 F1 E3 07 0E 1C
DPCM : 3F 7E FC F8 81 E3 38 FE 1F 38 00 00 C7 FF 1F 07 7E FC C0 F1 03 07 70 E0 FF FF E3 C0 81 03 7F 7F
DPCM : 1C 00 00 E0 3F 7E 1C 00 00 1C FF FF 03 C0 81 FF F8 7F 00 00 0E FC 3F F0 03 00 80 1F 3F 7E 00 C5
DPCM : 81 FF FF 7F 00 38 86 E3 C7 F1 03 C0 F1 FD FF 7F 00 C0 81 FF 3F 7E 1C 38 80 FF 07 0E 00 00 8E FF
DPCM : FF 01 00 C0 F7 FD 3F F0 03 00 FE FF 3F 50 00 C0 FF FF 07 00 1C C7 FF E3 C7 71 1C 38 FE E3 04 00
DPCM : 00 38 FE 5F 07 00 E0 F8 FF 1F 07 00 E0 C7 FF 1F 07 00 1C F8 7F FC C0 81 03 FF 7F FC 00 00 1C FF
DPCM : FF 1F 07 00 E0 FF FF 01 07 00 5C FF FF E3 00 80 E3 FF 7F 00 00 0E 1C FF DF 03 C0 71 E0 FF FF 03
DPCM : 00 00 FC 3F 7E 61 00 80 1F FF 7F 1C 00 80 FF 3F 0E 01 38 70 FC FF 7F 00 00 80 FF C7 8F 03 38 F0
DPCM : FF FF 0F E0 F8 F1 E3 C7 81 03 00 74 FC F8 01 E1 38 FE 5F FF 01 00 C0 FF 1F C7 01 E0 38 FE E3 C0
DPCM : 81 03 07 7E 1C F8 F1 03 3F 8E FF C7 01 1C C7 FF FF 07 00 14 F8 75 FC C0 81 03 78 7F 1C C0 01 E0
DPCM : FF 8F 1F 38 70 E0 C7 8F 1F 38 80 E3 F8 7F 1C C7 01 1C 38 7E E0 C0 8F 1F 38 7E 1C 07 0E FC FF F1
DPCM : 03 00 40 E0 FF FF 03 00 7E FC FF 7F 14 00 70 E0 3F 0E 14 00 0E FC 3F 7E 1C 00 C0 E3 FF 7F 00 00
DPCM : 0E FC FF 0F 00 38 DE FF FF 71 00 C0 F1 FF 3F 0E 00 38 80 FF 07 8E E3 F8 F1 FF C7 8F 03 38 70 FC
DPCM : 07 8E 03 00 F0 FF C7 8F 01 07 70 FD C7 7F 00 F8 F1 FF C7 0F 00 00 70 FC 3F 06 00 38 FE FF 1F 70
DPCM : 00 C0 F1 FF 3F 0E 1C C7 FF FF 07 00 00 00 FE FF C7 01 00 07 8E FF 38 00 E0 C0 FF FF 07 80 03 F8
DPCM : 7F FC 07 00 1C 38 7E FC C0 81 1F DF 7F FC 38 00 1C F8 FF E3 00 0E E0 F8 FF E3 07 0E 1C F8 7F 1C
DPCM : C7 01 E0 F8 8F FF 07 00 00 C7 0F 1C 38 70 00 C7 DF FF 00 8E E3 FF 7F F4 00 00 E0 FF FF 1D 00 0E
DPCM : 1C FF FF E3 00 80 E3 3F FE 17 00 0E F0 FF FF 1F 00 70 E0 3F FE 1F 00 00 1C 3F 7E 1C 00 00 FC 3F
DPCM : 7F 00 00 04 FC FF F1 E3 00 00 FC FF F1 03 00 0E FC FF FF 03 00 8E FF FF 7F 00 00 80 FF 7F 7F 00
DPCM : C0 81 E3 FF 0F 1C 38 F0 E3 FF 0F 00 00 80 E3 FF 0F 00 38 80 FF FF 71 E0 C0 81 FF 7F 7F E0 C0 81
DPCM : FF FF 0F 01 C0 F1 FF FF 01 00 38 7E FD F8 01 00 07 74 1D FF 71 00 00 8E FF FF 01 00 00 F0 FF C7
DPCM : 01 00 00 FE FF FF 01 00 00 FE FF FF 01 00 00 FE FF FF 01 00 00 FE FF 3F 7E 1C C0 FF FF 38 00 00
DPCM : C0 FF FF C7 01 00 00 FE FF F8 71 00 00 FE 1F F8 01 00 C7 FF 1F C7 01 E0 D0 FF FF 07 00 14 F8 FF
DPCM : FF 07 80 03 78 7F FC 3F 70 00 DF FF 1F 00 00 00 FF 8F FF 07 0E E0 F8 FF 1F C0 01 00 FF 7F FC 44
DPCM : 01 00 FF FF FF 00 00 1C F8 FF 1F 00 00 00 FF FF 1F 07 06 E0 FF FF 1F 00 00 E0 FF FF 1F 00 00 E0
DPCM : FF 7F 1C 00 00 1D FF FF 03 C0 81 1F 3F 7F 60 05 00 E1 FF FF 03 00 70 FC FF F1 03 00 00 FC FF F1
DPCM : 17 04 0E FC FF FF 03 00 80 1F FF 7F 1C 00 70 FC FF 8F 03 00 F0 E3 FF 71 00 38 70 FC FF 7F 00 40
DPCM : 81 1F 3F 8E E1 00 80 FF FF 71 00 07 80 FF FF 71 00 00 F0 FF FF 0F 00 38 F0 FF FD 01 00 F8 F1 FF
DPCM : 5F 01 00 C0 F7 FF DD 01 00 40 FF FF 3F 00 00 38 FE FF 38 00 60 47 FF 1F 3F 00 40 78 FF 5F 3F 00
DPCM : 00 78 FF 1F 17 00 7C F8 FF 1F 38 00 1C C7 FF 43 07 80 17 5F F5 17 07 40 5C FC DF 03 07 54 F4 78
DPCM : CF 43 07 70 1C D7 F5 03 07 0E 5D 57 77 E1 18 F0 71 C5 CF 41 1D 56 5C D5 75 50 55 71 71 55 75 E1
DPCM : 54 55 55 55 75 54 55 55 55 55 55 55 55 55 55 55 55
DPCMDEF  23   465 "ripped02.dmc"
DPCM : 7F 1C 38 70 FC 38 70 FC 38 70 E0 F8 71 E0 F8 71 E0 C0 F1 E3 C0 81 E3 C7 81 03 C7 8F 03 07 0E 1C
DPCM : 3F 7E FC 38 70 E0 C0 F1 E3 C7 8F 03 07 0E 1C 3F 0E 1C 38 7E 1C 38 7E FC 38 70 FC 38 70 FC 38 70
DPCM : FC 38 70 FC 38 70 E0 F8 71 E0 C0 81 E3 C7 8F 17 07 0E 1C 38 7E FC F8 71 E0 C0 81 E3 C7 81 03 C7
DPCM : 8F 03 C7 8F 1F 07 8E 1F 07 8E 1F 07 8E 1F 07 8E 1F 07 0E 1C 3F 0E 1C 38 70 FC F8 F1 E2 C0 81 03
DPCM : C7 8F 1F 3F 0E 1C 38 70 FC 38 70 E0 F8 71 E0 F8 F1 E3 C0 F1 E3 C0 F1 E3 C0 F1 E3 C0 F1 E3 C0 81
DPCM : E3 C7 81 03 07 8E 1F 3F 5E 1C 38 70 E0 F8 F1 E3 C7 81 03 07 8E 1F 07 0E 1C 3F 0E 1C 3F 7E 1C 38
DPCM : 7E 1C 38 7E 1C 38 7E 1C 38 7E 1C 38 70 FC 38 70 E0 C0 F1 E3 C7 8F 03 07 0E 1C 3F 7E FC 38 70 E0
DPCM : C0 F1 E3 C0 81 E3 C7 81 E3 C7 8F 03 C7 8F 03 C7 8F 03 C7 8F 03 C7 8F 03 07 8E 1F 07 0E 1C 38 7E
DPCM : FC F8 71 E0 C0 81 E3 C7 8F 1F 07 0E 1C 38 7E 1C 38 70 FC 38 70 FC F8 71 E0 F8 71 E0 F8 71 E0 F8
DPCM : 71 E0 F8 71 E0 C0 F1 E3 C0 81 03 C7 8F 1F 3F 0E 1C 38 70 FC F8 F1 E3 C0 81 03 C7 8F 03 07 8E 1F
DPCM : 07 8E 1F 3F 0E 1C 3F 0E 1C 3F 0E 1C 3F 0E 1C 3F 0E 1C 38 7E 1C 38 7E 00 00 00 00 00 00 00 00 00
DPCM : 00 00 00 00 00 00 00 00 00 00 00 00 00 00 00 00 00 00 00 00 00 00 00 00 00 00 00 00 00 00 00 00
DPCM : 00 00 00 00 00 00 00 00 00 00 00 00 00 00 00 00 00 00 00 00 00 00 00 00 00 00 00 00 00 00 00 00
DPCM : 00 00 00 00 00 00 00 00 00 00 00 00 00 00 00 00 00 00 00 00 00 00 00 00 00 00 00 00 00 00 00 00
DPCM : 00 00 00 00 00 00 00 00 00 00 00 00 00 00 00 00 00
DPCMDEF  24  2401 "ripped03.dmc"
DPCM : 81 FF 00 FE 03 F8 0F EC 07 F0 1F E0 0F E0 07 F0 1F B8 FE 03 E7 00 FC 07 FE 0F C0 0E 1C FF 81 0E
DPCM : 00 7E FC FF 81 FF 00 F8 03 F8 0F E0 3F F0 1F C0 7F 80 FB 89 FF 00 00 EC FF 0F E0 00 F0 1F F8 0F
DPCM : E0 FF 81 FF 00 FE 03 F8 F1 1F C0 01 E0 FF 81 FF C0 81 E3 C7 7F 00 07 80 1F C0 7F 00 3F 80 FF 07
DPCM : FE 03 FF 0F FC 07 7E 00 F8 0F E0 3F 80 FE 00 FE 03 FF 01 FC 07 FE 03 C0 0F EC 3F F0 03 F8 0F FC
DPCM : 07 80 E3 38 F0 1F C0 0F E0 3F 80 FF 00 7E 00 FA B1 0F 3F 80 EB 07 7E 02 FF 0F E0 07 00 FC 07 FE
DPCM : 03 F8 09 FC 07 F0 FF 00 7E 00 FF 01 FC 00 FE 1F C3 71 FC 3F 8E E3 00 70 9C 3F F0 03 F8 7F E0 3F
DPCM : 80 1F 00 FE 03 C0 01 E0 3F 8E E3 FF 01 FC 00 FE 03 F8 01 FC 07 FE 0B 38 7E FC FF 0F E0 00 F0 E3
DPCM : C7 81 E3 C0 8F 03 C7 81 E3 3F 8E 0F F8 01 FC 07 FE 03 3F 80 FF 07 7E 00 38 8E FF 38 70 1C C7 FF
DPCM : E3 F8 01 FC 3F 80 03 C0 8F EB 07 00 E0 07 F0 1F C0 0F EC 3F FE 03 C0 0F FC 3F 7E 00 C0 71 FC 3F
DPCM : FE 03 C0 71 E0 BF 00 E0 C7 F1 FF 28 0E 00 FF F1 1F 00 00 E0 FF FF 1F 00 8E E3 FF 01 1C 00 FE E3
DPCM : 3F 80 1F C7 FF 03 F8 01 FC 3F F0 FF C0 7F 00 FF 01 FC 00 FE 03 F8 0F E0 C7 81 EB 00 FE 03 F8 71
DPCM : E0 38 80 FF 07 F0 03 FF 81 FF C0 71 00 FF 81 FF 00 F0 1F F8 0F E0 3F 80 03 C0 F1 03 FF 01 E0 38
DPCM : F0 1F C0 7F E0 3F 80 FF C0 FF 1F 07 0E 00 FF 81 FF 07 80 03 C0 7F 00 FF 81 FF 00 70 1C F8 FF FF
DPCM : 3F 00 00 F8 0F EE 3F 80 1F C0 FF 03 FF 8F FF 07 80 E3 C0 FF 03 C7 01 E0 00 FE 1F C7 2F 00 38 8E
DPCM : FF F8 7B 1C 3A 80 1F 00 7E 1C F8 0F 1C 07 F0 1F 38 7E 00 38 70 FC FF F0 03 F8 71 E0 07 F0 FF F8
DPCM : 7F 00 00 F0 EF F8 F1 03 C0 01 FC 07 80 03 C0 FB E3 3F 8E E3 07 80 FF C0 FF 02 FF 01 FC 07 FE 1F
DPCM : C0 7F 00 38 80 FF 07 7E 00 F8 0F FC 07 F0 1F F8 0F E0 07 F0 1F F8 0F E0 C7 F1 FF C0 0F 80 FF 81
DPCM : E3 00 88 1F C7 01 08 07 8E 03 FF 01 FC 3F FE 1F C0 7F 00 FF 81 FF 00 FE 03 F8 0F E0 3F 80 FF 00
DPCM : FE 03 F8 01 FC 07 F0 03 F8 0F 1C 07 F0 1F F8 2F 80 BF 80 FF 00 FE 03 38 0E E0 FF F1 1F 00 8E 03
DPCM : FF 0F FC 07 8E E3 C0 0F 1C 07 8E 03 38 2E 1C C7 0E FC 38 8E 1F FF 71 FC 3F 80 03 C0 7F FC 3F 80
DPCM : 03 C0 FF E3 3F 8E E3 38 70 1C 07 FE E3 F8 0F 1C 07 F0 FF 38 7E 00 F8 01 FC C7 F1 1F 00 8E 03 F8
DPCM : 31 FC 00 8E A3 C7 7F 1C 3F 0E 1C 00 70 1C 3F 0E 9C 38 FE 1F F8 0F E0 3F 80 1F C0 7F E0 FF 01 1C
DPCM : 00 FE 1F 3B 0E E0 C7 71 FC 00 FE 03 FF 01 FC 07 F0 E3 F8 0F 00 FF 81 FF 00 7E 00 00 FE E3 F8 A1
DPCM : FF C0 01 FC 3F F0 1F F8 7F 00 3F 80 FF C0 7F 00 38 00 FC 3F 70 1C 00 FE E3 F8 01 FC 07 F0 E3 F8
DPCM : 0F E0 C7 F1 1F 38 0E E0 87 F0 1F C0 FF 03 3F 80 FF 07 0E E0 C7 81 FF 07 7E 00 FF 0F FC 00 F0 1F
DPCM : F8 0F 00 3F 80 FF 00 7A 1C F8 2F E0 38 00 FC C7 F1 1F 38 0E 00 C7 01 1C 00 FE E3 38 70 1C FF FF
DPCM : A3 38 0E 1C 07 70 1C F8 3F 00 3F 70 FC 3F FE 03 38 7E 1C 3F 80 FF C0 7F E0 F8 81 FF C7 FB 83 C0
DPCM : 71 00 FF 81 FF 00 FE 03 FF 0B 9C 3F 8E 1F 00 7E 00 3F 80 0F F8 7F FC 07 F0 1F 00 FE 03 FF 00 FC
DPCM : 07 0E 02 F8 7F FC 07 A0 03 38 7E E0 C7 F1 1F C0 8F 03 3F 80 FF C7 F1 83 C0 8F 03 FF 01 FC 27 FE
DPCM : 03 F8 7F 1C FF 01 FC 00 FE 03 FF 01 FC 00 FE 03 F8 01 FC 07 F0 03 F8 0F 00 07 80 1F F8 7F 00 C0
DPCM : 71 FC 00 80 E3 FF 8F E3 07 80 1F FF AF E3 C0 01 FC C7 FF E3 38 70 1C C3 71 E0 38 80 1F C0 7F FC
DPCM : 3F F0 03 F8 0F E0 3F 80 1F C0 FF 03 FF 01 FC 07 FE 03 F8 0F EC 07 F0 1F C0 0F E0 3F 00 FC 00 FE
DPCM : 03 F8 0F 00 C7 F1 FF 00 FE 03 F8 7F FC 07 A0 FF 38 0E 1C 07 70 BC 38 8E E3 C7 F1 1F C7 8F E3 A0
DPCM : 00 E0 C7 81 FF 00 0E 00 FF 01 FC 07 FE 03 F8 0F A0 07 F0 E3 20 F0 1F C7 FF 03 38 0E FC 07 F0 03
DPCM : F8 01 FC C0 7F E0 F8 71 E0 38 F0 FF F8 7F A0 00 80 FF F8 71 1C 00 FE 03 F8 01 FC 07 FE 03 C0 0F
DPCM : 1C FF 0F FC 00 FE 1F F8 7F E0 3F 30 FC C0 7F E0 FB 01 FC 07 F0 03 F8 0F E0 C7 81 03 07 8E E3 C0
DPCM : 71 FC 38 F0 E3 C0 0F 1C 3F 80 FF 00 FE 03 FF 0F E0 07 FE 1F 00 8E 03 FB 0F 1C 07 80 FF 00 FE 03
DPCM : FF 01 FC 3F 80 1F C0 FF 03 C0 0F E0 FF 71 FC 00 F0 1F F8 0F E0 3F 80 1F C0 FF E3 FF 81 1F C0 FF
DPCM : 03 3F 00 FC 07 F0 1F C0 0F E0 3F 00 1E 00 FE 03 FF 0F 00 FF 81 FF 00 FA 03 F8 0F E0 C7 F1 FF 07
DPCM : 80 E3 C0 7F 00 C7 01 E0 C7 81 1F C0 7F 00 3F 80 FF C7 FF 03 C0 8F E3 07 8E 1F 00 7E 1C 3F 00 E0
DPCM : 38 FE 1F C7 8F 03 38 0E FC 07 F0 1F F8 0F E0 FF 71 FC 07 FE 03 F8 0B 0C C7 F1 E3 3F 80 1F 00 AE
DPCM : 03 3A 00 FC 07 8E 03 FF 0F FE 07 80 9F F8 7F 00 3F 80 FF 00 FE 03 FB 01 FC 3F 80 1F C0 FF 03 FF
DPCM : 01 E0 3F F0 1F C0 7F 00 F8 0F FC 07 F0 1F F8 81 E3 C3 7F 00 C7 01 E0 38 F0 1F C0 7F E0 07 80 FF
DPCM : C7 7F 00 F8 81 FF 07 F0 03 F8 0F FC 07 F0 1F F8 7F 00 38 0E E0 3F F0 1F C0 7F E2 FF 01 FC 07 F0
DPCM : 1F C0 0F E0 FF 71 00 87 80 FF 00 7E 00 F8 0B FC 00 F0 1F F8 0F 00 FF F1 9F C0 01 E0 F8 81 FF 07
DPCM : FE 03 F8 0F FC 07 F0 1F 00 0E 00 FF 01 FC 07 80 1F C0 7F FC FF 01 E0 3F F0 1F C0 F1 E3 F8 2F E0
DPCM : 07 F0 1F 00 80 E3 C7 FF 1F 03 0E E0 3F 80 1F C0 7F 00 FF 01 FC 00 FE FF 38 0E 00 FF 71 1C 07 80
DPCM : FF C0 7F 00 FF 81 EB 00 80 1F C7 FF E3 3F 80 1F F8 0F FC F8 79 FC 38 F0 1F F8 0F E0 38 70 1C C0
DPCM : F1 E3 FF 0F E0 00 80 1F FB 0F E0 07 80 1F C0 7F E0 3F 00 FC 38 F0 FF C7 71 00 3F 0E FC 3F F0 1F
DPCM : C0 71 00 3F 80 FF 00 7E 1C 38 F0 FF 3F 7E 00 C0 01 FC 3F FE 03 C0 71 00 FF 8B FF 07 70 00 C0 81
DPCM : FF FF 0F 00 02 F0 FF FF 8F 03 C0 F1 03 3F 80 FF C0 8F E2 C0 AF FF 3F 80 03 C0 FF 1F F8 01 E0 38
DPCM : 80 1F C2 7F 00 3A 0E FC 00 FE 1F 07 0E E0 07 80 1F FF 7F E0 38 00 E0 C7 F9 1F C0 0F E0 3F F0 1F
DPCM : 00 80 FF FF 0F 00 FF 01 FC 07 FA 03 F8 7F E0 07 80 FF F8 7F 00 FF 81 E3 C0 21 E0 C7 F1 03 38 7E
DPCM : 00 FF 8F FF 00 7E 00 F8 01 FC 07 FE 03 F8 01 FC 07 FE 03 F8 7F 00 FF 0F FC 07 F0 1F 38 0E 1C 3F
DPCM : 7E 1C 38 8E 1F 02 7E FC FF 01 00 E0 0F E0 3F F0 1F C0 7F E0 3F 00 FC 07 F0 03 F8 0F E0 07 F0 03
DPCM : FF 8F FF 07 7E 00 F8 00 FC 07 7E 1C 07 8E FF 38 0E 1C 27 F0 1F F8 0F E0 3F F0 1F C0 0F E0 38 78
DPCM : 1C 07 F0 E3 F8 8F BF C0 F1 03 FF 0F FC 07 F0 1F C0 8F 03 3F 00 1C 07 FE 1F F8 0F 1C 3F F0 03 F8
DPCM : 0F 1C 07 70 1C F8 0F FC 00 70 FC F8 FF 03 FA 01 E0 07 F0 1F F8 0F E0 07 00 00 FF F9 FF 00 3E 00
DPCM : FF 81 FF F8 0F FC 07 FE 03 F8 0F 1C 07 80 1F 00 FE 03 BF 00 1C 3F FE 1F F8 71 1C 3F F0 E3 C0 7F
DPCM : 00 38 00 E0 F8 7F FC 00 70 E0 FA FF 03 38 8E FF 07 70 00 F8 8F FF 07 00 00 FF 8F FF 00 3E 00 FF
DPCM : 81 FF 00 0E FC 07 8E 1F F8 7F 1C 07 00 FC 38 FE 03 FF 01 FC 00 FE E3 F8 01 FC 03 F0 03 F8 8F E3
DPCM : C0 71 00 FF 81 FF C0 0F E0 FF 71 A0 F8 8F 9F 00 7E 00 FF 0F 1C 07 7E 08 3F 80 FF 38 0E 1C 07 F0
DPCM : 9F 38 0E 00 FF 7B FC 38 0E E0 3F 70 1C C0 3F EC 3F 0E 00 C0 71 FC FF 81 E3 00 7E E0 FF 01 FC 3F
DPCM : F0 E3 C0 71 00 FF 0F E0 87 70 9C 03 80 FF C0 7F 00 FF F1 FF 00 0E E0 FF FF 03 00 80 FF C0 FF 03
DPCM : FF 81 FF 07 7E 00 E0 01 FC 3F 0E 00 FF FF 1F 00 0E E0 FF 01 1C 00 FE 03 3F 00 FC C7 FA 03 C0 8F
DPCM : FF 3F 00 00 C7 F9 FF 00 0E E0 FF F1 03 C7 81 FF FF 0E 00 C0 81 FF 07 80 03 C7 0F FC 22 0E E0 FF
DPCM : 81 E3 00 FE 03 FF 01 FC 00 8E FF F8 7F 00 00 F0 EF FF 81 1F C0 7F E0 38 80 E3 E0 FF 1F 00 8E E3
DPCM : FF 01 0A 07 F0 1F FF 0F FC 07 70 1C F8 7F 00 38 70 FC BF 00 02 F8 FF FF 00 00 E0 3F FE 0F C0 01
DPCM : E0 3F 8E 1F 00 7E FC 3F 8E 03 C0 FF 1F 3F 00 E0 38 FE FF 07 00 00 FF FF 1F 00 0E E0 FF 81 E3 07
DPCM : B0 FF 00 FE 03 F8 0F E0 07 F0 1F 00 0E FC FF 7B 00 00 3E FC FF 7F 00 00 3E FC 02 80 E3 FF 2F 00
DPCM : 07 00 FC 3F FE 03 00 70 FC FF 0F 00 C7 0F FC 07 B0 1F F8 7F 00 27 80 FF FF FB 02 00 F0 FF 3F 70
DPCM : 00 F8 FE 1F C0 01 E0 FF 8F EF 00 00 E0 3F F0 1F E8 7F 00 FF 81 EE 80 F0 E3 EA 00 FC BF A0 E3 C0
DPCM : FB 02 F8 AF AE C0 21 E0 B8 F0 FF 20 F0 AB C0 AF A3 FB 00 EC AA B8 EF 80 3A 82 BF 88 EB 80 BE AA
DPCM : EA 2F 80 BA 08 FE A3 BA 0F A8 8A E2 BA 3E AA 28 AA AB BA 8A 8A BA AA AE A2 AA 8A BA AA AA AA AA
DPCM : E2 AA AA AA AA AA AA AA AA AA AA AA AA AA AA AA AA AA AA AA AA AA AA AA AA AA AA AA AA AA AA AA
DPCM : AA
DPCMDEF  25    17 "Blank.dmc"
DPCM : 3F FC 7F DC E1 F9 0F DF F7 00 00 00 80 FD FF FF FF
DPCMDEF  26  1345 "choir aahC"
DPCM : BE D3 8F 9D 76 EA 52 48 E0 F2 DF 95 42 C5 4E 0D B0 C0 8F 3F FD 54 10 10 D1 EE 7B 49 00 4B 2F 29
DPCM : 50 A2 2F FB FE 2A 40 00 D5 FF 7F 50 80 93 5E 2E 50 54 2F BD FE 4A 00 20 F6 DF 7D 50 80 15 3F 36
DPCM : D0 D0 2B FD FE 12 01 10 F5 FF 2F 11 C0 A6 3E BA C0 C2 17 FE FC 83 0A 40 FA F7 2F 01 A1 D2 5B B6
DPCM : A0 A2 17 7D FD 85 0A 20 B5 FF 3D 48 60 E2 C7 1B 45 2A AB DA BD 8B 0A 90 B8 7F 5F 48 50 F0 A3 1F
DPCM : 2D A8 52 5B BF 36 09 28 F8 BD 4F 49 50 D8 EA 97 16 A8 A2 9B FE 7A 20 02 ED F6 57 91 02 2D FA AB
DPCM : 0B A4 A2 9E FE BA 90 00 AB FF DC 20 05 2B FD EA 0A 94 54 6E FD 96 15 40 C9 BF 7A 21 A1 B2 DB CB
DPCM : 08 C9 4A DD F2 87 0F 60 F0 97 6F 30 61 E9 EB 26 50 E2 16 7B F4 C3 07 2C E8 CB 4F 58 68 F5 AB 15
DPCM : A0 E0 8F 1F F8 C1 07 0F BC E8 87 5C F0 D3 2F 09 A0 F8 C7 0F F4 E0 87 07 AD E8 45 5E F8 E5 0F 08
DPCM : 60 BD AF 17 B0 E0 97 1E 38 E2 8B 2F DA DA 2E 40 A0 5F 7F 36 60 E0 87 2F 70 E0 D7 0F 2E FA AA 10
DPCM : A4 57 7F 5E 90 C0 CA 17 18 F8 EF 17 54 F4 AB 04 D2 B6 AF B6 08 A8 DC 49 02 5E FF AB 90 B6 9B 08
DPCM : D1 9D BE B2 81 2A FC 60 01 5E FE EB 81 AB 9E 50 A8 AD 6D D5 42 15 7D 50 01 5E FE EB 42 5B 97 88
DPCM : B0 B5 AB 36 CA 92 1E 31 80 B6 EF 9B AA BA 95 08 E2 D5 8F 2E D4 C2 0F 1C 40 6D DF B5 EA AA 07 14
DPCM : F0 D5 1F 2E D0 43 1F 2C 40 3E FD F1 C3 1F 2E 80 D0 AF 5F 2A 50 17 3F 90 10 7E FC D1 8F 1F 1A 80
DPCM : CA FF AB 01 2A 76 B5 80 06 7E FA 71 A7 1F 09 A0 4C FF DF 04 48 7A 13 03 56 7E 6D 55 6D 4F 09 A0
DPCM : E8 FF 3F 20 A0 53 0F 1C F8 F8 87 07 B7 5D 22 20 E9 FF 3F 10 E0 51 07 0E F8 F3 0F 07 BE BA 10 82
DPCM : EE FE AF 02 58 E2 01 0E FC F7 87 0E F8 F4 80 02 7F FE F7 00 0A 55 01 0D FE FF 07 03 7C F1 01 86
DPCM : FE FE BB 80 01 15 22 AA FD FF 07 02 5C DC 90 6A 7D 5F 5F 68 01 02 54 F2 FF DF 22 02 AA A8 D2 7A
DPCM : DB AD AE DA 00 01 58 F2 FF 1F 8D 28 B0 A0 B6 EE D5 93 57 DD 80 00 38 F9 FF 17 15 34 B0 A0 B5 DD
DPCM : B5 D3 96 5E A0 04 28 FC FF 47 0D 54 B0 60 D5 6E FD 6A 93 1E A2 00 2C FE F7 47 0D 54 A8 D0 E4 AE
DPCM : FD D5 91 56 24 01 4A FE F7 27 95 90 24 B2 E8 EA FD 97 16 B2 50 01 15 FE FD C7 09 11 85 2C F1 D4
DPCM : FF 2F 16 D8 60 05 0C FA FB CF 85 50 88 1A 74 F1 FF 1F 15 68 52 05 0A FE FA 9F 0D 50 01 17 78 D8
DPCM : FF 7F 42 28 35 11 05 BE FE 5F 4B 40 82 0E 38 F2 FF FF 00 52 AD 84 02 3E FE FF 03 44 48 25 A8 F8
DPCM : FF FF 80 50 D5 02 07 3C FC FF 0F 08 70 41 02 FD FF FF 10 E0 D2 03 0A 78 FC FF 0F 08 F0 80 02 FE
DPCM : FF FF 04 D0 D2 05 04 7C FE FF 07 10 F0 04 04 FC FF FF 03 B0 B4 05 02 3C FD FF 07 02 56 09 20 FC
DPCM : FF FF 03 28 6D 11 02 AA FE FF 0F 01 8C 28 82 FE FF D7 81 06 1F 14 00 D2 FE FF 5F 01 88 A0 A1 BF
DPCM : 7F E9 C4 A3 0D 12 00 D0 FF FF BF 02 10 C0 E1 7F 7B A4 B6 7A A1 02 00 F0 FE FF DF 02 08 A0 F8 F7
DPCM : B6 A2 9A 7E D2 00 00 F0 FF FF 4F 11 10 08 7E FB D5 42 2B 7F 74 00 00 B8 FF FF 8F 44 80 02 AF FD
DPCM : 5A 25 AE EA 74 01 00 98 FF FF 0F 91 80 81 2F FE AA 16 76 FA D1 00 00 BC FE 7F 27 42 04 8B AE FC
DPCM : 52 07 3F FA 51 02 00 BA FE FF 2F 01 40 C9 56 5B 69 FD F4 84 05 08 A8 F2 DB FF BB 80 00 45 AD AD
DPCM : B7 7D 4A 15 45 08 54 DA B7 FF FA 80 01 48 F4 EB D7 AE 45 8A 12 21 2A ED AE 7F FD 81 02 00 EA DF
DPCM : 6F AB 05 2A 51 21 55 75 AD FE F5 83 01 00 EC FF 7E A5 05 14 69 C2 A5 2E AE FC F7 07 05 00 F0 FF
DPCM : F7 A8 05 08 5A A9 A7 0D 39 B5 FF 07 01 00 F8 FF FF 60 01 04 B6 7A 57 13 A8 FC FF 0F 00 00 F8 FF
DPCM : FD E0 00 04 3C FE B3 05 4A FA FF 07 00 00 EB FF FF 68 00 00 3C FD E3 A3 4A F5 D5 03 00 D0 F9 FF
DPCM : 7F 2A 00 00 5C 7E F9 EB 47 4B A5 80 02 78 FD FF 9F 25 00 00 56 7A F4 FB 9F 16 88 80 02 6E FB FF
DPCM : 9F 12 00 40 35 76 FC F7 9F 0B 08 A0 90 D6 FD FF AB 28 00 08 1D 79 D9 FB 3F 0B 00 41 51 B6 FF BF
DPCM : 2B 54 00 02 5E F8 D4 FF BF 0C 00 50 45 DE FE BF 1B 14 40 02 1D FC D2 FB BF 18 00 A0 15 BD FE DF
DPCM : 27 28 40 01 1D FA E9 DF 3F 34 00 60 8B 5E FD EF 27 48 40 81 2A 7E F5 B3 3F 18 80 60 2B ED F6 DF
DPCM : 07 12 60 82 85 6F FD B6 2F 0A 40 E1 5A DA DD BF 2B 40 40 C1 85 3F FE FA 4D 04 A0 B4 B5 74 D7 BF
DPCM : 2D 80 80 E0 C5 9F FA F9 95 08 A0 74 B3 F2 F5 AF 2D 00 40 D4 D6 5D BD F2 25 01 48 B5 6B DA F5 6D
DPCM : 8D 00 00 7A F5 55 D7 DE 2A 02 50 35 AB B6 7E 6F 15 02 00 F8 F3 47 DB EA 45 04 50 F9 AA AD FD BD
DPCM : 24 00 80 DC BB 27 7D FA 11 11 A8 F8 D1 A7 FD F6 50 00 08 FD F2 85 3D FB 88 11 38 F8 E2 27 7F 7D
DPCM : 08 01 14 F9 78 C1 16 7F 68 40 D2 C8 C9 17 7F AA 84 81 6A 3E AA C0 54 3B A0 A0 A1 53 93 53 FD A0
DPCM : 95
DPCMDEF  27  1441 "choir aahB"
DPCM : FF D2 8F 5F DC A9 2B 89 04 2E F3 6F 25 41 B5 4B 0D 50 C1 8F 7D D5 53 23 04 12 FC FE 96 14 C8 D2
DPCM : 4B 0D 94 A2 B7 7C FB AB 20 00 52 FD FF 07 15 E0 E4 8B 0D 54 D4 AE 7C FF 2A 01 40 64 FE FF 05 05
DPCM : D0 F0 8B 0D 34 D4 47 FB F6 8B 04 40 E4 BF FF 12 01 6C F1 8B 0E B4 D0 87 BF FA 43 0A 40 EA FE DF
DPCM : 42 08 AA CC A5 2B A8 A4 87 77 FD 85 0A A0 D4 FE F7 84 40 86 BE F4 49 92 4A AB D6 B7 8B 0A 60 E2
DPCM : DF 7D 21 41 05 3F DA 49 43 AA D4 56 BF 36 09 28 D4 F7 2F 25 21 89 AB 7E 69 05 AC E8 A6 BF 7A 20
DPCM : 02 6D FB 57 85 0C B2 E2 AF 9A 40 AA E8 A6 BF 2E 21 01 AB FE 75 83 14 B4 B4 AF AE 40 49 55 5B 7F
DPCM : 65 05 60 C9 BF FA A0 84 CA 76 B7 92 90 B4 D2 2E FF E0 03 98 F0 97 6F B0 A0 A9 AF 5E 20 85 6E 72
DPCM : 47 7F F0 01 0B FA A9 4F 58 A1 D5 AF 56 00 0B 7F F0 83 3F F0 C1 03 7B D8 8B 5C 70 D7 BE 28 00 93
DPCM : 7F FC 02 0F 7E E2 41 1D EA 85 5E E8 67 5F 20 80 B6 BF 5E 02 0B FE F0 0A 4E F8 52 2F D6 DA B6 00
DPCM : 81 7E FD E5 02 05 7E E8 03 17 FC D4 0F 2D FA AA 02 A2 5E 7F D9 81 01 AE EC 81 05 FE FB 85 14 F5
DPCM : AB 04 C9 D6 BE DA 22 84 CA 9D A4 80 B7 FF 2A A2 B5 97 08 C9 6E EE D2 86 68 A8 17 56 80 E7 7F 6E
DPCM : E0 CA 17 52 A8 75 75 D5 0A 59 F4 11 15 60 E7 7F 36 D2 D6 96 10 B1 B5 AB 36 29 4B 7A C1 02 68 DB
DPCM : BF A9 AA 76 25 21 E8 D5 8F BA 50 0B FD C0 01 D4 FA 5E AB BA DA 01 05 F2 D5 1F B6 C0 0B FD A0 00
DPCM : 79 D5 1F BF E8 93 03 28 F8 EB 4F 2A 50 17 FD 40 42 F8 D1 1F FD E8 87 05 A0 B2 FF AB 01 2A 7A B5
DPCM : 02 1A F8 E3 0F 5F FA 89 02 A8 D2 FF B7 00 4C 7A 13 0B 54 FA B5 4D D5 EE 54 00 4A FA FF 0F 01 E4
DPCM : A4 0F 1C F0 E3 1F AE F0 BA 25 02 4A FE FF 0B 04 D4 E1 03 1C F8 E7 1F 1C F8 EA 0A 21 E4 EE FF 9A
DPCM : 00 56 E8 01 0E FC F7 0F 0E F0 D3 0B 28 F0 E7 FF 3C 80 42 55 01 0D FE FF 0F 0C F0 C5 17 50 E8 EF
DPCM : BF 2E 60 40 85 84 AA FD FF 07 0A 68 B1 23 AA 76 DF F5 46 16 A0 00 95 FC F7 DF 22 22 A8 A2 4A EB
DPCM : 6D DD EA AA 0D 48 00 8E FC FF 27 4D 28 C1 82 DA BA 57 37 76 D5 0D 28 00 0E FF EF 47 15 34 B0 82
DPCM : D5 76 57 2F 5B EA 15 28 00 0B FF FF 45 13 54 B0 A0 55 AF F5 AB 2E BA 21 0A C0 A2 FF FD 51 13 14
DPCM : 29 D1 64 CF FE 55 4D 6A 49 12 90 E4 BF 7F C9 44 24 49 B4 E8 AA DF 5F 5A C8 0A 15 50 E1 5F FF 6C
DPCM : 42 44 09 2D F1 D2 DF 3F 59 A0 0B 0D B0 E0 AF FF 5C 81 24 91 26 74 F4 FF 3F 94 A0 49 15 A8 E0 AF
DPCM : FF D5 02 54 C0 05 5D F8 FF 3F 12 A8 D4 42 14 F1 EA FF D5 02 14 A2 03 36 F8 FF FF 40 48 B5 12 2A
DPCM : E0 E5 FF 3F 04 42 52 12 2A F6 FF FF 40 50 D5 0A 1C E0 E3 FF 7F 80 00 17 A4 40 FF FF 7F 00 E4 D2
DPCM : 25 28 E0 F1 FF 7F 80 00 1F 20 81 FF FF BF 00 D4 D2 05 14 F0 F9 FF 5F 00 01 4F 40 40 FF FF FF 02
DPCM : A8 B4 05 02 BC FC FF 1F 20 60 95 40 90 FF FF BF 02 28 6D 11 01 AC FA FF 3F 28 C0 84 22 E8 EF FF
DPCM : 6E A0 85 1E 14 00 4A FF FF 3F 05 A0 80 26 FA DB 9F 36 F2 A8 13 02 00 D2 FF FF BF 0A 40 00 87 FE
DPCM : B7 27 9A AD 5E A1 00 00 F8 FE FF 3F 0B 20 80 A1 7F 6F 2B B2 A9 9F 34 00 00 F4 FF FF 2F 05 04 28
DPCM : D4 77 9F 2D B2 CA 1F 1D 00 00 BA FF FF 2F 44 02 22 BC F6 AB 59 62 CB 1F 1D 00 00 97 FF FF 17 91
DPCM : 80 05 3E F9 AB 6A E2 A6 1F 2D 00 00 AF FF FF 23 42 02 2B 7A F2 4B 3D F0 A3 1F 14 00 C0 AB FF FF
DPCM : 2D 40 20 29 37 6B B5 F5 CB 0E 5A 80 80 2A FD FE DF 36 A0 00 25 B5 AD DB F6 A6 54 52 90 40 A5 BD
DPCM : ED BF 7E 40 01 48 F4 AB 5F BD 16 29 49 12 A4 52 F7 EA 5F 7F C0 00 20 EA DF B7 AD 16 A8 24 25 54
DPCM : 55 DB 6A BF 7F 60 00 00 ED 7F BF 95 15 50 A2 06 5D DA 62 CB 7F FF 40 00 00 EE FF F7 A4 05 28 68
DPCM : A5 5E DA A0 8D FF FF 40 00 00 DE FF FF 60 05 10 D8 EA 6E 35 81 CA FF FF 01 00 00 FE FF 3F F0 00
DPCM : 04 F8 F8 CF 16 C8 A8 FF FF 00 00 C0 FA FF BF A8 00 00 BC F4 D7 97 2A 55 5F 3D 00 00 6E FE FF 9F
DPCM : 0A 00 00 3E FA F1 AF 5F 2C 55 0A 20 80 5B FF FF 67 05 00 80 56 7A F1 BF 7F 5A 90 08 28 D0 B6 FF
DPCM : FF A9 02 00 42 35 76 F4 BF 7F 2E 20 10 12 6A ED FF F7 4A 0A 80 40 1D 79 EA FF BF 2C 00 81 24 69
DPCM : F7 7F DF 0A 25 80 80 17 FA D4 FF BF 2C 00 40 15 D5 ED FF BD 21 05 90 80 17 FC F4 DF 7F A8 00 80
DPCM : 55 F4 EA FF BD 81 02 54 40 47 FE E8 DF 3F 34 00 82 2D BA E5 BF 7D A0 02 94 A0 8A 6F FD B6 5F 58
DPCM : 00 82 AB B4 DB 7F 7B 20 01 1A 70 E1 57 BF F6 2B 0A C0 60 5B 69 6F FF BA 40 08 0C 5C F1 87 BF EE
DPCM : 93 04 A0 D2 D5 D2 5D FF BA 80 00 0A 5E F1 C7 7E 7E 25 01 A8 74 AB 8A D7 BF B6 00 10 04 5B ED 55
DPCM : 6F 7D 49 40 50 75 6B EA D5 BF 2D 01 00 A4 57 5F 75 AD AF 92 00 52 F5 AA B6 F6 77 55 20 00 E0 AF
DPCM : 7E D4 AD 57 12 01 54 FA A9 AD FD ED A2 00 00 B2 5D 77 D2 AB 5F 50 00 2B F6 92 A7 FB F6 50 01 40
DPCM : F4 CB 1E 78 B3 4F 94 80 0D BE E8 47 5F 7D 42 01 54 F4 A3 0F 7C F2 85 46 24 8D 7C E1 47 7F 7A 84
DPCM : 09 AA FA A9 02 5D EE A2 0A 18 DA B8 E5 55 5F A9 81 4A 9A 68 45 A5 95 59 65 59 55 55 65 45 66 65
DPCM : 55
DPCMDEF  28  1521 "choir aahBflat"
DPCM : EF C7 2B 5E 69 97 AE 14 49 60 CB BF 5B 28 54 B4 49 0D D0 80 3B F6 D4 4F 2D 88 20 91 5B FF A5 04
DPCM : B2 D2 49 4B 60 92 BE F2 ED AF 0A 10 20 D5 7F FE 41 05 B8 F0 93 09 54 54 B7 F4 BB 8F 42 00 44 F6
DPCM : DF 7F 42 01 5C F1 8B 0B 34 D2 1D ED EB 2B 91 00 44 FE FD AF 48 00 5B F1 8B 2E D0 C8 17 5E F3 4F
DPCM : A8 00 94 F6 F7 B7 10 84 2A DD 94 2B A8 A2 17 7E F5 5D A8 00 2A F5 EF 37 22 82 85 BE F4 45 89 2A
DPCM : AB 5A EF B6 A8 00 26 F6 EF 5D 44 48 89 5E FA 49 0B AC 52 5B FD 5A 15 82 22 7E FD 4B 49 44 92 AB
DPCM : 7E A9 05 AA A2 5E FA EB 09 22 50 BB FD 55 89 14 B4 E2 AF BA 04 A9 A2 9E FA EB 12 0A B0 EA 3F DD
DPCM : 20 85 AC B4 AF 6E 40 25 55 AE ED 97 56 00 96 F4 AB 3D 28 85 CA 76 BB 8C 90 D2 4A BD F2 87 3E 80
DPCM : 06 FD E5 1B 2C A1 A9 AF 5E 02 15 BA 49 3F F4 83 1F B0 84 7E EA 13 55 A8 D5 AF 56 00 0B FE C1 1F
DPCM : F0 81 1F BC C0 47 F6 22 5D F0 D3 AF 24 00 4B FE F1 07 74 E1 17 5E D0 86 76 91 97 F8 A5 3F 10 80
DPCM : D6 FE DA 05 B4 E0 8F 76 60 23 BE D4 8B D6 DA B6 00 09 EE F1 97 0D 58 E0 87 BE C0 09 FE F4 23 2D
DPCM : FA AA 42 88 6E F5 97 17 24 E0 CA 1E 68 81 7F FB 05 15 DD AB 12 48 5B FB 6A 4B 02 A9 EC 25 49 E0
DPCM : ED DF 2A A4 B5 97 28 48 D7 D9 2D 5D A0 46 FA 60 05 D8 D9 BF 9E E0 CA 57 50 A4 D6 D5 56 2D 91 45
DPCM : 7D 90 04 B8 E9 BF 2E D2 D6 96 48 C8 56 AF 6A 93 B4 A4 1D B2 00 DA F2 77 A9 AA 76 25 09 E2 56 5F
DPCM : 69 13 B5 D0 0F 1C 40 B5 F6 5B AB BA EA 21 14 D0 57 7F E1 0A DC D0 0F 2C 40 DE F4 0F BF E8 8B 0B
DPCM : A0 E0 AF FE A8 84 D4 89 0F 92 10 7E F2 17 3F E9 87 16 80 4A FF AF 16 A0 A2 57 2D 81 06 FE F8 23
DPCM : 5F FA 4A 42 A0 4A FF 5F 0B C0 A4 DB C4 04 55 7E B5 55 D5 76 55 02 28 E9 FF BF 80 80 36 F9 80 07
DPCM : FC E8 8F 1E F1 BA 25 01 29 DA FF BF 40 40 1D F9 00 07 FE F1 0F 17 E8 6B 4B 88 A0 BB FD AF 09 60
DPCM : 25 5E 80 03 FF FD 07 0E F0 D3 8E A0 C0 9F FF F3 02 28 52 15 E0 84 FF FF 07 0C F0 C5 1B 60 A2 BF
DPCM : FF BA 80 06 34 28 A2 EA FF F7 03 0A 70 C9 95 A8 DA EE 5B 5F 64 05 48 40 25 FF FD D7 42 22 A8 A2
DPCM : 2A AB B7 75 AB AE DA 04 24 80 15 FF F7 47 0D 2A C1 82 5A EB 5D DD E4 56 DD 80 02 60 A3 FF FD 45
DPCM : 15 34 D0 82 D6 DA 5D BD B4 A5 5D 81 02 E0 C4 FF FD 51 13 54 B0 82 55 BD D6 AF DC A2 2B 92 04 B0
DPCM : E8 3F 7F 51 03 95 A8 50 93 BD DA 5F 75 A4 56 A4 00 A9 F8 6F 7F D2 44 24 29 B2 A4 AB 7E 7F A9 85
DPCM : AC 50 01 55 F8 D7 7F 6C 44 24 89 AC A8 4B 7F FF A2 05 BA 60 05 1C E8 AF FF 5C 41 12 91 1A D1 C5
DPCM : FD FF 43 09 9A 54 11 2A F8 EB 7F D9 02 54 40 17 78 A1 FF FF 23 81 4A 2D 21 45 F4 FA 7F B5 02 54
DPCM : A0 0E D8 D0 FF FF 13 81 54 AD A0 02 FC F8 FF 37 02 12 52 49 A8 E4 FF FF 0B 02 55 B5 04 07 F8 F8
DPCM : 7F 7F 80 04 5C 90 04 ED FF FF 0B 08 B6 F4 00 0B F8 B0 FF 7F 80 02 3C A0 02 FA FF FF 0B 40 AD 74
DPCM : 01 05 7C FA FF 3F 00 81 3A 01 09 FC FF FF 2B 00 4B 6D 81 08 3C FD FF 1F 20 82 55 42 40 FC FF FF
DPCM : 2B 80 52 97 48 00 AB FE FF 1F 18 40 43 4A 90 F7 FF E7 06 5A F0 09 05 80 52 FF FF BF 24 80 02 5A
DPCM : A8 BF 7F A9 13 57 EA A0 08 00 D4 FF FF BF 2A 00 01 5C F8 6F 6F A2 D9 AA 17 29 00 00 FA FF FF 1F
DPCM : 0B A0 00 4A FE BE B6 22 6B EA 27 0D 00 00 BD FF FF 2F 25 10 A0 88 DF 7E D9 22 AD F4 53 07 00 80
DPCM : EE BF FF 2B 12 01 29 70 5B BF 9A 25 B6 EC D3 05 00 80 57 FF FF 8F 44 02 16 78 A3 BF AA 26 7C EA
DPCM : 47 0B 00 80 AF FF FF 13 21 12 AC A8 8B BF D4 03 F7 E8 47 05 00 D0 AB FF FF 2D 01 82 A4 5C B5 56
DPCM : 5B BF 74 83 16 A0 80 2A FD FA FF B6 80 02 94 D4 BA DA AD 77 2A 15 15 24 50 A5 7D ED BF F6 80 05
DPCM : 20 51 BF FA B5 AD 89 4A 92 44 A8 D2 F6 EA 5F FD 02 03 80 A4 BF 7D DB 6A 09 2A 49 85 54 55 DB AA
DPCM : 7F FE 81 01 00 B4 FD EF 5B 69 01 95 A8 21 97 BA A2 0B FF FD 03 05 00 E0 FE BF 2F 6A 01 12 DA A8
DPCM : 9B BA 90 8D FF F7 03 01 00 F0 FF EF 0F 3C 80 04 B6 EA 5B 4D 90 4A FF FF 03 02 00 E8 FF FF 0B 2E
DPCM : 00 01 3E F5 D7 16 C8 A4 FF FB 03 00 00 ED FF FF 89 06 80 00 3E FD D3 8F 2A 55 7D ED 00 08 E0 D5
DPCM : FF FF A9 02 00 80 57 FE F0 AF 3F B4 54 2A A0 00 7A F5 FF 7F 5A 08 00 A0 96 76 F4 BF FF 68 41 42
DPCM : A0 80 6B FB 7F 7F 2A 01 20 50 8D 6D F4 BF FF B4 80 40 28 C4 D6 FD DF AF 92 04 20 50 17 76 EA FF
DPCM : BF AA 00 10 92 94 75 FF F7 AE 44 01 28 60 17 FA B8 FF FD B2 00 80 54 91 DB FE DF AD 50 04 24 60
DPCM : 87 7E F4 DF FE 68 00 04 5A 45 AF FE DF 9D A0 00 15 D0 86 FE E8 DF FE D0 00 08 BA 44 5B F7 EF 17
DPCM : 28 01 15 B0 92 5F F5 B7 3F 68 00 0A B6 D2 B6 FD D7 27 50 80 06 5C E4 57 B7 B6 AF 28 00 43 AD A5
DPCM : 6E F7 AF 2D 10 40 03 5D F8 87 BF FA 4D 14 80 4A 57 4B DD F5 AF 2D 20 80 42 5D FC C5 5F FA 95 08
DPCM : A0 D2 2E 2B 7B FD AB 4D 00 01 51 5B DD 55 6F 7D 25 01 41 53 AF A6 5E FD 6B 0B 01 40 E8 56 5F B5
DPCM : B5 B7 4A 40 48 D5 AE 6A 6B 7F 5B 25 08 00 D4 CD B7 B4 AD 7B 51 00 51 E9 9B BA DA 5F 2F 49 00 80
DPCM : F4 D7 76 D2 9E 7D 01 01 AC E4 47 75 DA AF 2F 94 00 08 F5 CB 1D D9 93 3B 61 02 3A D4 8B 7D B4 57
DPCM : 1F 52 00 95 FC 61 0F 7C F1 47 1A 94 34 A9 87 5F F4 A7 1E 68 82 6A BE A8 82 5C F6 A3 2A 68 A2 93
DPCM : 57 5E B5 8F 2A A0 19 99 55 65 55 59 55 A5 15 95 55
DPCMDEF  29  1617 "choir aahA"
DPCM : FF 47 3D F9 A5 59 E8 4A 91 04 3A E4 DF 56 8A 54 75 0B 0D E0 04 BF B8 57 BE D4 84 04 12 5D DA 7F
DPCM : 29 09 92 D2 4B 2D 60 41 FA CA BD FD A8 20 00 49 F5 DF FF 40 09 B8 E8 8B 2E 40 49 F5 CA BE FB 2A
DPCM : 81 00 91 FD FD 5F 48 01 DC B0 4F 2E 44 43 BD D1 BE FE 8A 24 00 91 FD FD AD 44 04 6C A9 2F BA 40
DPCM : 0B 7D 61 BF FA 13 2A 00 A5 F6 EF B7 08 81 AA B4 57 B6 84 2A 7A 49 5F 7D 17 AA 00 4A F5 EF BE 10
DPCM : 41 16 FA D1 9D 94 A8 D2 AA D6 DD 1E A9 00 26 F6 B7 5F 22 11 15 7C A5 5F B4 A0 AA D4 56 FD 5A 15
DPCM : 82 22 F6 DD 2F A5 90 24 BA EA 57 5A 81 AA A8 97 FE EA 05 12 42 DB F6 57 15 2A 44 2B EE CB 2E 42
DPCM : AA A8 9B F6 6B 0B 49 C0 AA FE B3 13 52 48 4B FD AA 1B 48 48 55 AE F5 57 5A 02 54 CA BF BA 83 92
DPCM : A8 B2 DB AE 92 90 B2 4A DD F2 0F FA 00 1A F4 57 BD 09 13 59 EA AB 5B 10 15 B2 45 5F F1 07 7E 80
DPCM : 0B FA 25 BF 88 15 6A F5 AD 56 00 0B FE C1 3F D0 07 FE C0 13 DC A2 AF D0 16 7C D5 1F 25 00 4D BE
DPCM : C5 1F D0 03 7F E4 09 75 A4 57 E8 15 FA 65 3F 10 04 5A EF 6B 17 C8 22 FE A8 27 D8 A0 2F 79 93 B6
DPCM : DA B6 40 04 FA D6 5D DA 80 05 FA A2 2F 70 81 3F F5 43 2D FA AA 12 24 EA D5 5F 7A 81 01 AE B2 87
DPCM : 58 E0 DF 7E 05 95 F4 AB 8A 20 AD AD AF D6 22 84 2A 7B 49 0A D8 ED DF 2A 91 D6 5E 91 90 74 97 DD
DPCM : D2 16 A8 89 3E 64 05 D8 E9 7F 6E C0 2B 7B 21 45 6A 9D 75 55 4B 64 45 9F D0 08 E8 E5 7F BA 48 5B
DPCM : 6D 91 84 6C B5 AB DA 24 35 A5 17 B2 00 D9 BA DF A5 AA EA 56 92 08 79 D5 57 EA 42 B6 B0 0F 5C 00
DPCM : D5 BA 6F AD 6A AB 1E 41 21 F4 D5 5F D8 02 DD D0 0F 2C 02 79 D3 3F DC A3 7E D8 00 2A F8 AB BF A8
DPCM : 88 D4 C5 3D 50 42 F8 C5 7E F4 93 7E A1 05 A0 D2 BF AF 16 A0 A2 5D B5 02 1A F8 8B 3F F1 A5 7B 92
DPCM : 04 48 4B FF 5F 0B C0 92 6C 13 0B 58 E9 57 DB 54 AD 5B 95 00 2A E9 FF FB 08 02 DA E4 0B 5C C0 8F
DPCM : FE 61 07 BD 76 25 02 4A DA FF BF 10 01 79 E1 03 3C C0 3F FF C1 03 FA EA 8A 90 A0 ED FE AF 26 80
DPCM : 96 E4 05 38 E0 7F FF 81 0B F8 D2 8E A0 40 7F FE CF 0E A0 44 55 01 36 E8 FF FF 01 0B F0 C5 5B 80
DPCM : 91 FE FE AB 0B 98 40 45 12 A9 7A FF FF 80 02 78 C9 8D A8 6A DB 6F ED 45 56 80 02 58 C9 BF FD B7
DPCM : 44 22 A8 A2 AA AC 6E DB B6 EA AA 36 40 01 F0 C8 FF FD 45 8D A8 40 0B AA AD 7D D5 4D 6E 55 2F A0
DPCM : 00 E8 C4 FF FB 45 15 B4 40 0B 5A 6D DD D5 4B 6B E9 56 A0 02 B0 C8 FF FD 49 0D 52 C1 0A 5A D5 6B
DPCM : FD AA 2E E9 46 A4 00 B4 E8 7F FD 45 0B 52 A2 0A 4D D9 AB FE 56 1D A5 95 28 01 29 D9 7F 7F 49 93
DPCM : 48 92 24 4B DA AA DF 5F 69 11 AD 50 81 54 D8 5F FF B1 85 48 92 44 4B EC D4 DF BF 64 09 BA 60 03
DPCM : AC A0 BF FF D1 15 28 89 A8 09 75 74 FF FF 50 09 6A 52 05 AA E0 AF FE 97 2D 40 05 B4 05 5E E8 FF
DPCM : FF A1 20 2A B5 84 94 E0 69 FF 57 2D 01 25 A8 03 3A D1 FF FF 07 81 52 B5 82 2A E0 93 FF EF 13 88
DPCM : 88 54 0A AA E8 FF FF 07 41 54 D5 0A 2C C0 0F FF FF 17 A0 00 97 90 04 ED FF FF 27 20 D8 52 0F B0
DPCM : 80 0F FF FF 0F A0 00 37 A0 02 FA FF FF 17 02 D4 4A 17 50 C0 9B FE FF 0F 40 82 3A 01 05 F4 FF FF
DPCM : AF 00 AC D4 16 28 C0 4D FF FF 17 20 90 55 21 20 DC FF FF AF 00 2A B5 25 12 C0 AA FF FF 0F 18 40
DPCM : 13 2A 41 EE F7 7F 6D 81 85 7C 50 01 A0 D4 FF FF 1F 25 40 12 64 A1 FE FA 95 B6 B0 A3 2E 28 01 80
DPCM : F4 FF FF 3F AA 00 04 D0 A1 FF F6 26 59 B6 DA 45 0A 00 02 FA FE FF BF 2C 80 02 A8 E8 DF 6B AB C8
DPCM : 9A FA 49 13 00 00 BD FF FF AF 94 40 02 12 F5 ED 9B AE 50 2B FD E2 05 00 00 B7 FF FF B7 48 24 90
DPCM : 04 BB F6 AB 66 49 AD FC D1 05 00 00 9F FF FF 2F 91 24 A0 81 BE F8 AD AA 05 6F EA 47 0D 00 00 BF
DPCM : FE FF 2F 12 91 A0 8A 7A E2 2F D5 05 FD E8 27 15 00 40 AF FE FF D7 0A 08 42 29 D7 AC 55 57 BF B4
DPCM : 13 5A 80 02 AA F4 ED FF AC 2B 20 01 25 D5 D6 7A AD 77 2A 55 54 90 40 55 DA 57 FF AB 1F 60 01 28
DPCM : E1 AF FA D5 AD 25 2A 29 91 88 2A 6D B7 F6 57 7F C0 02 80 A8 BF DD DB AA 45 A8 24 95 50 55 B5 B5
DPCM : FA 97 7F A0 01 00 B4 FE B7 6F A5 45 50 A1 1A B2 A5 AE B8 D2 7F FF 40 01 00 E8 FE EF BE A8 05 24
DPCM : A1 4D DA A5 2E 68 63 FF FF 01 01 00 B0 FF BF 3F 70 05 48 A0 AB F6 56 8D A0 CA FF F7 07 00 00 70
DPCM : FF 7F 3F F0 02 10 A0 97 FF B4 25 C8 A4 FF FB 03 00 00 B5 FE FF 9F 68 04 00 E0 47 FF F4 A3 2A 55
DPCM : 7D 75 03 10 80 9B FF DF 9F 2A 00 08 E0 95 7E EA AF 3F B4 54 A9 80 02 68 D7 FE FF A7 15 04 00 A8
DPCM : 95 76 F4 BF FF 68 11 89 80 12 B8 B6 FF F7 97 4A 00 04 51 8D 6D F4 DF FF D4 02 22 90 84 6C ED FF
DPCM : F6 AB A4 00 88 50 27 76 E9 DF FF C9 02 08 24 49 69 BB FF 7D 2B 51 02 28 A0 17 FA E2 FE F7 4B 03
DPCM : 10 48 15 D5 6D FF B7 1B 51 04 24 81 17 FC D1 7F FD 87 06 40 90 55 D4 AB FF DB 1B A8 00 95 40 1B
DPCM : FA A3 7F FD 07 0D 40 82 2D D9 56 FF DB 17 A8 00 16 D0 4A BE D5 6F FB 0B 16 80 88 AD D2 B6 FD D7
DPCM : 17 48 01 1A D0 89 7D F5 6B F7 8A 0A C0 90 AB A5 DE F6 AF 2E 41 80 0C 78 85 7F F0 A7 F7 12 05 A0
DPCM : 52 57 4B DD F6 AF AE 80 00 8A 78 C5 5F E4 A7 5F 25 02 C4 D2 2E AB BC F5 AF B6 00 01 22 B5 D5 6D
DPCM : 55 5B 5F 49 02 48 D5 AE 96 76 ED 6F 2D 02 20 88 7A B5 57 2D EB AE 4A 40 48 55 AF AA AD FD 6E 55
DPCM : 82 00 08 FE F2 2B 75 AD 5F 51 80 50 65 9F 6A 6B FB ED 92 04 00 24 FB B9 9D D4 96 7B 41 11 B0 A2
DPCM : 1F F5 A9 DF FA 42 05 80 44 FD B2 17 BA D1 3B 91 09 D8 90 1F FA C5 7D F5 09 15 40 25 FB E1 13 7C
DPCM : F1 17 5A 50 4A 23 5F F8 45 7F 69 07 9A A0 9A FD A8 02 5D F1 8B AA A0 8A 36 79 E5 55 7D A3 2A A8
DPCM : A1 25 5A 62 2A A5 A1 99 95 A1 15 69 A1 96 59 59 5A
DPCMDEF  30  1729 "choir aahAflat"
DPCM : F7 47 BF E4 97 7A 89 A5 94 08 A0 2D 7B 37 95 12 54 F5 4A 4D 40 43 78 63 3F F5 4B 2D 22 88 44 9D
DPCM : FB 77 29 09 B2 D2 2B B5 80 25 69 AF BC AD 2F 2B 20 40 52 DD BF FF 40 05 E8 A2 0F BA 04 95 54 B7
DPCM : 74 EF BE 4A 10 20 92 FD DE 7F 42 05 D0 23 BF E4 0A 34 52 6F B4 AF FB 92 24 00 45 FE EE BF 12 09
DPCM : D0 96 FC A2 2B D0 22 57 E1 37 FB 13 29 00 95 BA DF EF 12 11 A8 4A BD 95 AD A0 2A 7A 45 1F ED 17
DPCM : A9 02 A8 D4 FE DD 0B 49 A0 85 7E D4 97 94 A4 CA AA DA 6E BB A4 02 58 92 7F BB 97 48 41 85 FA E8
DPCM : 57 D4 04 AB 52 5B F5 AB 4D 21 28 91 5F F7 47 29 11 25 BA EA 5D 6A 05 AA A2 6E E9 AF 6E 84 08 52
DPCM : 3B FE 55 15 29 22 2B F9 2B BB 42 A4 8A BA C9 BF B6 42 12 D0 AA 7F D3 0B 49 21 2B 75 A7 BA 81 94
DPCM : 54 65 5B FD 95 5A 02 54 C9 BF EA 0E 4A 81 CA B6 DD 2A 89 24 AD 52 BB F2 0F FA 00 9A D0 6F F9 16
DPCM : 2C A1 A5 BE DA 25 44 85 7A 51 3F 71 1F FC 00 2E A2 9F DC 8B 58 A1 56 FD AA 15 40 0B FE C1 7D E0
DPCM : 0F F8 03 2F B0 2B FA 4A 74 05 5F F5 1B 25 00 2D F6 47 7F 40 0F EC 87 5E 50 2B E2 15 D9 45 7E E5
DPCM : 5E 90 00 6A 7D AF 5E 02 2D E2 4F BC 81 36 E2 2B F5 90 D6 DA BA 02 24 68 5F F7 A5 0B 58 C0 1F EA
DPCM : 03 5E E0 2F F5 43 2D E9 AB 2A 82 A4 5B FD 95 57 90 80 AB F4 05 5A E0 DF FA 13 34 D1 BB 2A 09 52
DPCM : 5B BB AB B5 88 A0 4A 7B 49 8A E0 B6 7F AB 42 5A ED 16 49 24 DB 65 BB B2 25 A8 09 BF 60 15 60 97
DPCM : FF E5 06 BA CA 57 48 91 5A 5B 6D 95 2B 64 45 7D 44 15 C0 57 FE A7 4D D4 D6 5A 22 09 6D B5 AB 5A
DPCM : A5 B4 94 76 42 13 A0 B5 7D 6F A9 AA DA 55 92 10 79 55 3F 69 0B D5 12 F7 40 07 50 AD ED 5B AB EA
DPCM : AA AE 40 09 F2 56 FD 85 2B D0 0B FD 02 0B 48 EE D4 3F DC 0B 7F E4 02 A8 E0 BE FE 91 4A 48 5D 71
DPCM : 0F 92 08 F9 C9 FE D0 8F FA 85 16 80 2A FD FB AA 09 A8 A8 57 AD 04 1A E8 8F FE C4 5B F6 26 8A 80
DPCM : AC F4 FF D6 02 D0 A4 6D 13 0B 54 A5 6F 6D 53 D5 BA 55 89 80 92 FA 7F BF 40 04 DA 64 0F 78 01 3F
DPCM : EA 2F 76 D0 6B 5B 92 80 4A FA BF EF 08 41 D8 85 2F A0 03 FE F1 1F F4 80 AF BA 22 11 91 ED FE AF
DPCM : 96 00 5A 92 17 C0 03 FE D7 7F E0 02 FC D4 0B A1 10 7F F5 3F 3D 01 4A 54 55 40 13 FE DF 7F 40 03
DPCM : F8 C5 3D 80 85 FA FB AF AE 80 05 54 A1 84 AA F6 FF BF 80 02 78 25 37 A2 AA 75 EF D6 5E 64 05 A8
DPCM : 00 56 D1 7F F7 B7 12 0A A1 8A AA D2 DA B5 6D A3 B6 6A 0B 48 02 F0 C8 FF F5 17 2D A1 02 2D A4 D6
DPCM : DA 57 75 93 5B D5 4B A0 00 F0 C2 FF BB 17 55 41 13 B4 90 D5 DA 76 75 4B 5B 6A 57 A0 02 E0 42 FF
DPCM : F7 0F 55 21 15 B4 88 55 F5 5A FD AA 2E 69 2B A2 04 D0 92 FE F7 4F D4 04 95 A8 42 4D D9 AB BE 57
DPCM : B5 A4 56 92 02 92 92 FD DB 5F D2 24 92 94 44 4B EA AA F7 7E A5 25 B2 12 15 48 25 FE D5 7F 74 11
DPCM : 49 94 44 2B 70 53 7F FF 89 16 A2 0B 55 01 2B E8 AF FF B1 15 28 49 A4 26 D2 45 FF FB 0F 55 A0 26
DPCM : 55 81 2A E8 AF FE 97 2D 01 15 48 17 D4 85 FE FF 1F 49 A0 4A 2D 91 14 E1 AB FF 5D B5 04 54 A0 4E
DPCM : A0 0B FD FF 7F 41 84 54 AD 42 2A C0 4F FE DF 2F 82 88 48 95 84 2A FA FF FF 05 21 54 55 4B B0 00
DPCM : 3F FC 7F 7F 01 0A D0 25 24 21 FD FF FF 13 04 64 4B 3B C0 02 FC F0 FF F7 03 30 40 2F A0 08 FA FF
DPCM : FF 97 40 50 2B 6D 01 45 F0 E5 FF F7 03 50 90 3A 01 05 F4 FF FF AF 0A C0 4A 6D 41 22 70 D3 FF FF
DPCM : 03 28 90 55 09 81 A8 FF FF BF 0A A0 4A 5D 91 08 D0 AA FF FF 0F 98 00 4D A8 04 E9 FD FD D7 0E 68
DPCM : 41 1F 54 01 A0 D4 FF FF 3F 94 00 49 90 16 EA AF F7 A9 2D F4 A4 4D 28 02 80 D4 FF FF FF A8 02 50
DPCM : 00 1D FA 6F BD 49 9A B6 BA 25 4A 00 00 CA FB FF FF D1 02 A8 00 2A F6 DB EB 2A D2 9A FA 45 8D 00
DPCM : 00 D4 FB FF FF 4A 45 90 80 44 DE ED 57 AD 48 AB EC 87 17 00 00 74 FB FF BF 2B 92 04 A1 08 BB B6
DPCM : AF 5A 25 B5 F2 27 3D 00 00 F0 E5 FF FF 2E 92 24 A0 41 EE E4 B7 AA 16 F1 A5 7E D4 04 00 C0 AF FD
DPCM : FF 2F 92 90 10 2B EA 86 DF 52 57 D0 8F 7E 51 05 80 C0 AE FE FF DB 8A 40 10 A5 6C D3 5A B5 F5 2D
DPCM : DD 90 16 A0 80 AA B4 AF FF B7 2E 81 02 52 52 6D AD DD EA 5D 4A 95 54 90 10 55 6A 5F FB AF 7E 01
DPCM : 16 80 92 F4 AB 7E B5 AB 45 2A 29 51 84 AA D4 ED EA 5F F5 07 2C 00 28 6A 7F BD DB AA 15 A8 92 54
DPCM : 22 55 55 5B AB FD D9 1F 58 00 00 B5 FE B7 6F A5 16 41 45 6A 41 97 EA 4A AE EC DF BF C0 00 00 70
DPCM : F7 7F F7 A2 16 81 12 DA A4 5E 6A 0B DA E4 FF FE 01 01 00 D0 FB FF FE 02 57 80 04 DA AA BB 55 13
DPCM : A4 CA FF F7 07 08 00 C0 FE FF F6 03 37 00 05 F8 52 FF B4 45 C8 A4 FD EF 0F 80 00 50 EB FF FF 85
DPCM : 1A 00 22 E0 53 FF F4 95 AA 54 F5 D5 0E 20 02 B8 D5 FF FF A5 4A 00 00 E8 95 FE F0 AF FE D0 4A A5
DPCM : 0A 24 08 BA F5 FF FE 65 15 04 00 A8 95 BA D1 FF FA 8F 16 A1 08 A2 80 AE F5 FF EE A7 4A 04 40 50
DPCM : 2D D9 C9 FD FD 4F 2E 90 10 A4 90 5A DD FF EE AB A2 04 20 11 75 62 97 F6 EF BF B4 00 12 44 49 69
DPCM : DB BF DF AE 22 05 90 02 7A A1 2F F5 EF FD CA 02 10 48 95 64 B7 FD F7 AE 22 05 50 0A 78 09 7F B4
DPCM : 7F FB 8B 26 00 81 56 51 AF FA BF BD 21 4A 40 05 D4 86 BE A9 7F DD 0F 35 00 41 BA A4 5D ED BF BE
DPCM : 09 2A 80 15 B0 8A DE D5 7D ED 0F 59 00 0A BA 2A 6D DB FD ED 06 52 80 16 70 85 7E D5 AF ED 2B 21
DPCM : 01 14 D9 5A AA B7 ED AF 2B 42 80 4C D0 45 FE E2 9F FA 4D 51 00 AA B4 D5 4A BB E5 AF B6 40 04 28
DPCM : E4 16 FD C5 7E FA 55 8A 00 B2 B4 AD 26 BB F5 B7 B6 04 08 48 D4 5A DD 55 BD B6 57 92 80 D0 D4 AE
DPCM : 96 B6 F5 BE B6 04 01 88 70 57 7D 55 57 BB AB 92 80 48 55 BB AA B5 F6 DB 55 25 00 50 E0 BD 7C 47
DPCM : 6D EB 5E 51 02 48 95 BD AA AD F6 57 AE 28 00 10 C9 7E 75 97 B4 9B 7D 21 45 C0 8A BE D2 9E BA AF
DPCM : BD 50 01 A0 50 DF B4 16 DA CD BE 44 26 A0 0B F5 91 6F F4 57 BD 41 05 40 25 FD E1 0E F8 C5 5F A8
DPCM : 09 A5 34 B2 17 7E D1 5E EA 09 9A A0 6A 7E A9 06 B2 65 BF A8 0A 6A A4 8C 5D D9 55 7D A5 1A A4 58
DPCM : 56 5A 96 99 69 96 99 56 55 95 95 55 56 59 55 56 5A 69 95 59 95 96 95 54 51 59 59 96 65 59 66 66
DPCM : 56
DPCMDEF  31  1377 "choir aahDflat"
DPCM : 6F FF 92 C0 4E BE C4 C9 06 A0 D0 FE 6A 01 6C E9 07 52 50 8D BA F4 A7 25 00 71 FF 55 01 54 F9 1F
DPCM : 0B 91 15 79 BB 2F 0A 20 FC FB 8B 02 B0 F9 5F 56 80 2A F4 F7 17 08 42 FE 79 83 0A A8 F5 9F 1E 40
DPCM : 41 7D F5 13 11 24 7F F9 41 15 D8 72 AF 3E 80 80 7B FD 03 85 4C 77 B4 C1 86 AC DC BB 1D 30 40 6E
DPCM : FB 01 8B 5A 3F B4 44 4D B2 AA EF 17 24 80 AB BB 50 65 AD 1F AA 88 2E 78 B1 F7 4B 16 60 49 4F 6A
DPCM : E9 B5 17 A9 88 3A F0 E1 F7 B5 15 10 A1 8E 7A 7A EB 25 07 89 2C F4 E2 7D D7 07 12 40 55 B7 5E FB
DPCM : C8 15 28 48 6D F5 FA D5 17 08 00 B5 7B AF 76 D2 25 42 20 77 FD F2 A5 0F 09 00 7A FB AB AE 78 29
DPCM : 02 44 EF BE E9 C5 17 12 00 7A FF D2 8B 6E A9 00 A0 F7 EF B4 C9 87 14 00 F5 FA E9 43 5F 55 00 A0
DPCM : F7 BF D4 E2 07 0B 40 EC 7E E9 52 5F 55 00 50 EF 5F A5 EA 4E 0A 20 E9 5D ED E4 57 55 00 42 7F DB
DPCM : A2 AF 3E 02 08 F1 AB AD EA 97 2B 80 82 AF EA A4 7F FD 00 00 F4 D5 5E F4 A7 1D C0 02 3D DA 69 FF
DPCM : 75 02 00 F8 AB 2F F4 D3 57 40 01 AE BA ED F6 4D 02 00 FA DB 0F BA D9 57 40 00 DD 6D 77 BA 17 09
DPCM : 00 F6 FE 8B 6C DA 16 24 00 ED E7 2B 7D 47 09 00 FA FE 0B 3D 7A 27 48 00 EF F4 A3 BE 2D 22 00 F5
DPCM : DF 0B 5D B9 4B 28 40 3B F9 A1 5F 1F 24 80 E5 5F 3D F8 D2 0D 2C 48 9D F8 C2 DF 56 02 D0 D2 1F 9F
DPCM : F8 AA 16 54 A1 8D 78 E1 3F 6B 02 4A EA 4D 3D B5 17 17 E8 D0 46 AC E8 B7 AD 04 65 E2 0E 77 DA 97
DPCM : 16 54 B1 45 2A E9 DB 8B 4A B4 C4 15 5B F5 AB 83 2A BC 10 49 AD DD C9 4A 74 52 95 AC BE ED 41 0A
DPCM : 5E 5A D0 A9 3E D5 92 6C 45 0B 55 FD DB 03 12 4E 3D F0 C1 8F B6 A4 EC 94 0A AA FE FB 01 02 57 1F
DPCM : 78 E0 A7 AE 48 75 4B 05 D1 FE 7F 01 02 6E 2F 5A B0 D5 2D 51 7A 4B 43 B0 FB 7F 10 02 6E 57 2B D8
DPCM : D4 2B 58 EA 4B 0B F0 F5 7F 20 01 EE CA 0F 78 A1 1F 58 E1 8F 2D E0 6B 7F B0 00 5E D9 0F 7C E0 07
DPCM : 3C F0 97 2B F0 E5 5F 30 00 57 FE 2B 6E 60 07 2C F0 DB AD AA D5 96 90 00 CB FB FF 34 01 15 98 B0
DPCM : 6F 7F A5 95 AA 00 04 F6 FF FF 29 01 10 B8 A4 5F FF 61 8D 34 00 24 FC FF FF 49 00 10 E9 93 5F 7E
DPCM : D1 AA 92 00 28 FD FF FF 20 00 D0 E2 4F BD F8 E4 B4 12 40 B0 FB FF F5 01 10 E0 D1 5F 3D B8 6C E9
DPCM : 02 28 F0 AF FF F1 03 00 F0 E3 3F 2E A8 BA EA 02 28 F8 9F FF E0 03 10 F0 F3 9F 16 28 BD D2 01 4C
DPCM : FC AF 77 F0 04 28 F0 D7 5F 25 24 7D 54 01 56 FA BF 3E B0 01 38 F0 F7 9F 84 94 B6 44 01 9B FE 5F
DPCM : BB C0 02 38 F0 6F 3F A5 48 2B 94 80 5B FE DF 3E A0 00 1C F8 D7 3F 75 A0 0B 28 88 5E FE DF 1F 50
DPCM : 00 0C F8 EF 3F BD A0 05 10 A8 AE FE FF 2F 20 00 04 FE ED BF 6D 42 01 08 D8 B6 FF FF 4B 00 00 41
DPCM : DF FA EF AF 02 01 00 F4 EA FF FF 53 00 00 82 5F FE F7 9F 05 00 00 F4 EA FF FF 53 01 00 80 2F FF
DPCM : FB 9F 0B 00 00 58 FB 7F FF A3 01 00 C0 93 FF FD EF 05 00 00 B0 FF BF 7F 51 05 00 C0 C7 FF FE E5
DPCM : 07 00 00 F0 FF AF 5E 74 05 20 C0 D7 7F F5 F5 13 00 00 F0 FF 1F 5A BA 03 14 E0 FB 2F B9 FA 4F 00
DPCM : 00 E0 FF 2F 44 BD 25 04 D0 FD AF A4 FA 5F 02 00 C0 FF A7 40 FF 2B 02 C0 FC 9F 2E F8 FF 02 00 80
DPCM : FF 47 05 FE 3F 04 00 FA BF 1E F8 FF 01 00 80 FF 53 81 FF 9F 00 00 FC 7F 2B F8 FF 05 00 00 FE 4F
DPCM : 81 FF 3F 00 00 F8 FF 07 FA FF 22 00 00 FA 5F A1 FF 37 00 00 FC FF 05 DA FF 13 00 00 EC 7F 51 BF
DPCM : 9F 00 00 FE FF 02 F1 FF 23 00 00 F8 BF 72 D7 2F 00 00 EF FF 02 78 FF 07 00 80 F8 5F EB A3 1F 00
DPCM : C1 FF CF 00 DC FD 0F 04 80 E0 BF F6 E1 07 B8 E0 BF 5A 00 3E FD 0F 0B 40 C0 9F FE E0 07 FC E8 4F
DPCM : 8A 00 5F FD 97 06 30 C0 8B FD C1 07 7F BD 13 20 42 DF F6 4B 2D 28 80 49 7F F0 C1 FF BF 20 00 2A
DPCM : FF F0 A7 5E 11 00 68 6F F4 C1 FF 7F 00 00 B6 FE C4 57 7F 11 00 C0 B6 F6 F2 FF AF 00 00 F8 75 81
DPCM : AF FF 41 00 00 EE F6 EA FF D7 00 00 F0 A3 A7 DD 7F 05 00 00 AC FE FB FF A3 02 00 F0 82 DF FE FF
DPCM : 01 00 00 C2 FE FF FF 0B 00 14 50 82 FF FF FF 01 00 80 40 FD FF 7F 0F 00 52 00 84 FF FF FF 01 00
DPCM : 44 48 FD FF FF 03 04 52 00 88 FF FF 7F 01 00 44 29 FE FF 7F 85 80 50 40 C2 FE FF 7F 01 00 54 89
DPCM : 7E FD BF 17 20 90 90 E0 DD FF EF 01 10 B0 82 9B FE 77 0F 28 82 14 70 E7 FF F7 01 04 E8 C0 0F FF
DPCM : E9 1F 94 40 09 D4 EA FF FD 80 06 88 E0 0B 7F FC 17 2B 28 84 50 6B FF FB 81 03 58 E0 A3 5C F6 D7
DPCM : 15 1A 20 60 57 FF FD C4 05 88 F0 89 5E FC CB 95 0A 10 D0 D5 5F FD D1 05 28 F0 89 2E 7E FB 4B 05
DPCM : 10 D0 D5 5F F5 53 07 24 68 93 3A ED FB AB 02 00 78 4B 5F FC A5 0F 08 A4 A5 3A ED FB AB 04 00 6C
DPCM : BB AB BC F8 15 01 A8 B2 2D 7B ED 4F 0A 00 56 7F 52 AB FE 65 01 10 BA AB 76 F5 97 12 00 4D 7F 51
DPCM : 4B FF D9 00 20 FA 68 5B F5 4B 25 80 A6 7E A8 95 DF 55 04 40 F6 D4 96 DA D4 80 95 59 86 59 68 56
DPCM : 55
DPCMDEF  32  1297 "choir aahD"
DPCM : DB BF 14 F0 A3 2D B9 B4 02 50 BD A7 01 30 E9 1B 52 D0 95 2E BD 69 01 08 FF 5F 15 40 E5 BF 4C 80
DPCM : 96 78 FA 4B 02 08 FF FE 24 00 9B FF 59 01 29 F2 FB 17 08 84 FE F6 85 02 5A FD EB 01 24 F8 F3 4F
DPCM : 08 22 7F F1 41 03 B6 FC EB 03 08 B8 D7 1F 44 30 FB D2 03 47 AC DA B7 17 08 D0 DA 1F B0 68 F5 C3
DPCM : 12 35 B1 AA AF 17 2C C0 6A 37 54 DA FA A1 0A 5A E0 C5 BE 1F 16 60 C9 4D 5A 7A ED 85 4A A8 03 2F
DPCM : FE D7 16 90 90 8E 76 FA 7A C5 41 22 13 3B 7E 6F BD 80 00 55 BD 76 FB C8 25 48 50 5D BD 7E FD 80
DPCM : 00 50 F7 BE 7A D1 15 22 40 6F FE EC E9 43 02 80 B7 BF DA E1 95 08 40 FD BE E9 F1 45 02 80 DE AF
DPCM : 5C E9 95 09 00 DE FF B2 C9 07 15 00 BD 7E 7A F1 55 05 00 FA 7F 4B 93 1F 0A 20 F4 7D B9 D2 57 05
DPCM : 00 D4 FF 55 AA 3B A9 00 E8 6E ED E4 57 15 80 B0 DF 2E DA EB 45 00 C4 AF B6 AA 5F 2D 80 82 9F AA
DPCM : E8 DF 0F 00 40 5F 7D D1 9F 5E 80 02 3D BA E9 7F 9D 00 00 FE FA C2 3E FD 00 05 B8 EA 75 F7 4D 02
DPCM : 00 FE FA 89 9E 7D 05 02 D0 BB BD EA 17 09 00 F6 FF 22 9D EE 05 01 D0 BE BE F4 1E 25 00 E8 FF 0B
DPCM : 3D FA 09 09 C0 37 3F DA BB 22 00 D4 7F 2F 6C D5 0B 4A 40 2F 7E F8 F5 41 02 58 FE F5 E0 4B 4F 28
DPCM : 44 1D F9 F0 B7 95 00 34 FD F1 89 9F 5A 60 85 36 B8 E1 3F 9B 02 8A 7A 53 4F 7D B1 81 13 5D B0 A2
DPCM : BF AD 02 55 E2 A3 9E BE A5 41 15 57 C8 A2 6F 4F 2A D1 C2 15 5B FD EA A0 12 4F 94 54 DB 9B 2C D1
DPCM : 49 95 B4 F6 ED 81 0A 57 1C 74 EA 4D 2D C9 96 2C 54 ED EF 03 0A 4E 3D 78 F0 A3 2B C9 36 A9 A0 EA
DPCM : FF 07 08 5C 3E 78 E0 C7 2D 52 DD 54 01 ED FF 27 00 B8 BD 68 A1 55 2F 51 F6 D2 04 EC FD 4F 20 E0
DPCM : 76 AD A0 53 2F 51 F1 4B 0B F0 F5 3F 08 C0 AF FC 80 07 7F E0 82 3F 2D E0 C7 7F 30 80 57 FE 81 0F
DPCM : F8 C0 03 7F B6 C0 97 7F 30 00 4F FE 8B 17 D8 01 0B BE BD AA 5A 5B 42 00 AD FE 7F 35 40 05 16 DC
DPCM : FB 5E 5A A9 02 10 D4 FF FF 2B 01 00 B6 E8 D7 7F D8 24 0B 00 C8 FF FF 2F 01 80 E8 95 5F 7E B2 AA
DPCM : 22 00 D2 FE FF 1F 00 40 CB 1F 7E F8 64 B5 82 00 F4 FD 7F 5F 00 00 1E FF F8 60 B3 A5 0B 20 F0 EF
DPCM : 7F FC 00 00 3E FE E3 A0 F2 AA 0D 20 E8 BF FF F0 00 04 FC FC A7 81 D2 47 1D C0 D0 FF FE A0 03 28
DPCM : F0 F7 57 41 51 2F 59 40 E5 FF DA 85 0A 30 F0 F7 1F 05 A5 2D 51 C0 A5 FF 77 03 0E E0 C0 BF 7F A4
DPCM : 48 2B 24 41 97 FF F7 03 0A C0 81 7F FF D4 81 0D 28 88 9D FE FF 07 14 80 82 7F FE B3 03 17 40 A0
DPCM : AE FE FF 0F 08 00 41 7F FB DF 16 14 00 60 DD FE FF 2F 10 00 40 BF FE F7 AB 80 00 00 AF FD FF 3F
DPCM : 01 00 80 5F FE F7 6F 01 00 00 AF FE FF 3F 05 00 00 BE FC FF 9F 03 00 00 D6 FE FF 3F 1A 00 00 3C
DPCM : FE F7 BF 17 00 00 E0 FE 7F 7F 54 00 00 7C FC EF 9F 1F 00 00 E0 FF 9F 9D 74 01 00 F8 ED 9F 5F 3F
DPCM : 01 00 80 FF BF 58 D9 03 04 F8 EE 2F AE FD 03 00 00 FE FF 10 F5 17 02 D0 FD 2F A5 FE 0F 00 00 F8
DPCM : FF 0A FC AF 04 80 EA BF 2E F8 FF 00 00 E0 FF 34 F0 7F 03 00 E4 FF 1E F0 FF 03 00 80 FF 53 E0 FF
DPCM : 27 00 80 FF 6F E0 FF 17 00 00 FC 57 81 FF 1F 00 00 FF 7F A0 FF 2F 00 00 E8 7F A1 FF 2F 00 00 FE
DPCM : 7F 81 FE 3F 02 00 C0 FF 45 FD 3F 00 00 FE FF 40 FC 7F 01 00 80 FF 4B 5F BF 00 00 FE FF 02 F8 FE
DPCM : 0B 00 00 FE 57 3E FA 00 02 FF 3F 05 D8 FD 0F 00 20 F8 AF 3F F8 01 13 FE 6B 01 F8 F4 5F 0A 40 E0
DPCM : A7 FE F0 81 4F FA A5 08 E8 D5 5F 1A 40 80 8F FE E0 83 7F EF 08 10 F2 6D BF 74 A0 00 26 F7 E1 83
DPCM : FF 3F 44 00 D2 3F FC EA 15 02 80 F6 D1 87 F7 FF 00 00 AC 7E F1 D5 9F 00 00 6C EB 4D FF FF 04 00
DPCM : E0 B7 43 EF 7F 08 00 80 B7 BB FE 7F 15 00 C0 87 97 FD 7F 05 00 00 AA FF FF 3F 29 00 00 0F BE FB
DPCM : FF 13 00 00 C0 FD FF FF 05 00 09 24 F8 FF FF 0F 00 00 40 FD FF FF 07 08 14 00 E2 FF FF 3F 00 00
DPCM : 91 F4 FF FF 07 04 94 00 A2 FF FF 7F 00 00 94 E8 FF FF 17 40 50 80 C2 FF FF 6F 00 00 95 E8 D7 FF
DPCM : 6F 80 40 42 88 DF FF EF 01 00 B4 E0 A7 FF FD 80 42 50 81 9D FF FF 01 04 B8 C0 A7 FE FA 43 09 92
DPCM : 40 A5 EE FF 03 1A 60 E0 0B 7F FC C7 06 0A 44 B4 EE BF 0F 2E 40 E0 87 5E FA D7 85 06 08 78 F5 9F
DPCM : 5F 1C C0 40 1F 6A F0 AF 8F 12 10 70 D5 5F 7F 74 80 02 5F E8 E2 EF 2F 14 00 E0 D5 3F FD D4 01 09
DPCM : BA A4 53 BF BF 0A 40 C0 AD 5F 79 65 0F 10 68 A9 4E F7 FD 8A 00 C0 75 AF F2 EA 16 09 A0 B4 2D 7B
DPCM : FD 93 04 40 F5 27 B5 FA 97 05 80 A8 AD 6E ED 97 02 40 D3 1F B5 F4 9F 13 00 E8 AB 6D F9 4A 05 A0
DPCM : A2 1F 6A D1 3F 15 00 A4 6E 6B AA 5B 81 99 85 61 55
DPCMDEF  33  1233 "choir aahEflat"
DPCM : F9 1F 25 78 98 53 28 0B 00 D1 9F 8A 80 85 1F 50 D0 95 2E 7F 5A 00 C2 FF 56 01 94 FC 33 41 52 A8
DPCM : DB 4F 02 10 FF 3B 09 A0 F9 9F 16 A0 C2 EF 7E 40 40 FE D6 A1 80 56 EF 7A 00 80 7B EF 10 41 FC E5
DPCM : 07 15 54 FD EB 03 08 7C FD 03 05 B5 2F 1B 6C D0 EA BE 0F 08 F0 B6 0F 2C 5A 3F B4 50 13 AB DE 7E
DPCM : 30 80 AB 37 51 DA EA A1 82 3A 78 F2 FD 61 01 26 3D 69 E9 ED 85 4A 60 C1 87 FF B6 05 84 E8 68 67
DPCM : AF 17 0B 09 0D 3D EE 5E 1F 90 00 55 AF B7 5E 5C A0 20 75 F5 F6 F5 81 00 50 BF B7 7A 74 09 01 F1
DPCM : 75 D7 A7 0F 01 80 DD BF EA E2 25 02 50 BF 5F 9E 5E 08 00 7A FF F4 68 97 0A 00 DE FF 6C F2 C1 00
DPCM : D0 FB E3 83 5F 15 00 D8 FF 4B 93 8F 0A 00 FD 5E 2E 7E 55 02 40 FF 57 A9 EE A8 00 E8 5D 5D F9 55
DPCM : 05 20 FC ED A2 AF 97 00 90 BD B6 EA 97 0B A0 E0 A7 4E FE F5 01 00 7C 75 47 7F 7A 80 02 3D 7A FA
DPCM : 5F 07 00 E0 AF 4F FC F4 03 14 D0 EA 75 F7 53 00 80 BF 3F E8 E5 57 40 00 F7 76 67 5F 08 00 F6 FF
DPCM : 41 97 7D 88 00 EC EB 4B DF 51 00 E0 7F 0F 3D FA 11 02 F0 D3 8F BE 2D 02 40 FD BF D0 E5 2E 28 40
DPCM : 4F 7D F8 7D 10 01 E5 5F 0F BD DC A0 04 75 F8 C4 BF 15 02 4C 7F 7C F8 A9 05 16 EA 84 87 FF 6C 02
DPCM : 8A FA D2 53 5F 5C E0 D0 05 2D EE BB 0A 51 A1 0F 9F FA 69 41 C5 16 B2 B8 76 A3 42 4D 3C 74 F5 6B
DPCM : 85 0A 4F 94 D4 76 47 4B 74 52 45 AB BF 1B 28 5C 5A 70 EA 55 2B D2 16 8B 4C FF F6 80 D0 F4 C0 83
DPCM : 9F 2E C9 36 69 A0 FA EF 03 82 D6 07 07 7E BC 24 75 53 05 EC FF 47 00 78 37 56 68 F5 0A 65 2F 0D
DPCM : D0 F7 3F 01 A0 77 AD 60 D3 2B 94 FC B4 00 57 FF A1 00 BE F2 03 17 7E E0 E0 4F 0B F8 FC 07 03 F8
DPCM : E4 0F 7C E0 03 0F 7E AE C0 E7 1F 0C C0 E3 BF B8 81 07 38 F8 F6 AA 5A 5D 42 00 CB FF 5F 0D 50 A0
DPCM : C1 BB 7F 65 A5 0A 80 E0 FE FF 2F 00 04 2E FA F5 8F 2D 34 00 04 FF FF BF 08 00 E8 A3 9F 5F AC 2A
DPCM : 01 20 ED FF BF 20 00 8C 3F 7D F8 E4 AC 02 00 7D FF DF 07 00 70 F4 E7 83 CB A5 0B 20 F0 EF 3F 3F
DPCM : 00 80 8F 7F 0E AA AE 36 80 E0 7F FD F8 00 04 7C FF 69 20 BD B2 02 22 FF FB 85 03 30 F0 F7 4F 41
DPCM : D2 4B 06 58 FA BF 0F 1C 40 C1 DF BF 84 A4 2D 51 A0 E9 FF BD C0 00 0E FC FB 53 0A 2D 94 80 97 FF
DPCM : F7 03 06 50 E0 DF 5F 1D B8 80 10 7A F6 FF 0F 14 80 C0 BF FF DC A0 01 04 F2 EA FF 7F 20 00 04 7F
DPCM : FF DB 45 14 00 60 B7 FF FF 03 00 10 FC FA FF AB 40 00 80 AD FF FF 57 00 00 E0 E7 FF BF 05 00 00
DPCM : BC FE FF 3F 05 00 80 47 FF FF BB 00 00 40 FB FF FF 48 00 00 4C FE FF EF 01 00 00 EE FF FF 51 01
DPCM : 00 F0 F1 FF 9F 0F 00 00 F8 FF EB C5 16 00 C0 D7 7F 7D FD 00 00 C0 FF 1F 96 F6 00 01 BE FF E8 FA
DPCM : 0F 00 00 FC FF 10 DD 27 00 6C FF 4B EA FF 00 00 C0 FF 2B F0 BF 04 80 FC 9F 0B FF 37 00 00 FC 4F
DPCM : 05 FF 0F 00 A0 FF 3B 70 FF 03 00 C0 7F 15 FC 7F 00 00 FC FF 81 FF 1F 00 00 FC 57 E0 FF 07 00 E0
DPCM : FF 07 FE BF 00 00 E0 7F A1 FF 4F 00 00 FF 1F E4 FE 07 00 00 FF 17 FD 7E 00 00 FE 7F 01 FF 5F 00
DPCM : 00 F0 BF EC F5 03 00 F8 FF 03 F4 FE 03 00 80 FF 6D C7 0F 40 F0 FF 15 E0 F6 3F 00 00 F8 AF 1B 3E
DPCM : D0 88 FF 16 40 CF FF 30 00 82 9F 7E F8 81 8F FE 28 00 5F FD A7 01 02 3C FA C3 07 7F F7 10 20 F4
DPCM : DB 2F 2D 28 40 F2 07 1F FC FF 21 00 CA 7E FC EA 45 00 A0 BD 7C F0 FF 0F 00 B0 FA C9 D7 9F 00 00
DPCM : EC B9 D3 FF 3F 00 00 7E 0F BE FE 23 00 00 BB AF FE 7F 03 00 D0 E1 E9 FF 97 00 00 A0 FE FF FF 28
DPCM : 00 80 0B 7E FF FF 00 00 00 FC FF FF 0F 00 04 14 F8 FF FF 07 00 00 D0 FF FF 7F 00 48 00 50 FF FF
DPCM : 7F 00 00 22 FD FF FF 01 10 05 20 FE FF FF 01 00 90 E4 FF FF 17 00 12 20 F1 FF FF 07 00 50 91 5F
DPCM : FF 7F 80 40 42 E0 B7 FF 3F 00 01 0A 7E FA FF 0B 10 44 81 9D FB FF 02 04 0C FC F0 AF 3F 94 40 09
DPCM : B4 FA FF 0F 18 60 E0 C3 9F FE 71 A0 20 44 EB FF 7E B0 00 81 8B 5E F9 D7 83 01 02 5E FD FB C3 01
DPCM : 14 7C E8 C5 BB 8F 12 10 70 F5 CF 1F 1B 20 F0 89 8B FB FA 54 00 C0 D5 3F FD D4 01 82 2E EA F4 FB
DPCM : AB 00 00 B7 7A F0 A7 0F 10 68 A9 CB 7E BF 04 00 5C DF CA AB 5B 24 80 B2 2C 7B FF A2 00 50 FD 51
DPCM : A7 6F 55 00 A0 B7 DA F5 97 02 C0 F2 17 35 FD D7 00 80 BE 56 41 3F 95 00 A6 7E 68 F9 5F 01 00 F9
DPCM : D6 96 BE 06 90 9A 55 A5 99 15 55 56 19 55 55 65 95
DPCMDEF  34  1169 "choir aahE"
DPCM : DD 7F 09 5C 76 F8 92 01 50 DF 6B 01 96 7F 40 81 95 2E 7F 98 00 F0 DF 15 40 E9 3F 23 48 E2 EE 2F
DPCM : 0A 00 FF 3F 02 68 FC 6B 01 2A 7C FD 41 00 F9 DB 83 02 56 FF 36 40 60 DF 9F 10 C4 5F 3E 34 40 F5
DPCM : 6F 07 08 EC FD 41 41 DD C3 83 06 AD DE 7B A0 80 DB 3D 30 5A 3F 2C D4 C2 AA F7 07 0B B0 FA 42 69
DPCM : EB 87 0A 3A 78 F2 DB 54 80 C4 8E 9A DE 5E A8 A0 16 1E FE B7 05 04 E8 E8 E9 EB C5 81 C4 D0 E3 EF
DPCM : F5 40 00 55 AF B7 1E 5D 20 42 5D BD 5F 1F 08 00 DD F7 EA D1 85 10 F0 F6 D3 E7 43 00 E0 EE AF 2E
DPCM : 5E 02 01 FD 7D 6E 7C 21 00 F8 FE 6C DA 65 00 E0 FB CF 46 0F 05 40 CF 57 87 5F 15 00 F4 FF D4 F8
DPCM : A1 00 F0 7E B9 F4 55 01 40 FF 57 AA 3B 0A 20 FA D6 8E 5F 95 00 F0 77 8B BD 9D 00 90 AF B6 CA E7
DPCM : 02 08 7D EA E8 DF 07 00 F0 B5 47 7F 76 80 C0 8E 9E FE 77 01 00 7C BF F0 D3 0F 10 E0 EA F5 DE 13
DPCM : 00 E0 EF 27 5E FE 80 00 DC DB AB 5F 08 00 DE FF D0 E5 1E 04 40 BB BE EC 47 01 80 FF 8F 3C EE 22
DPCM : 04 78 F3 A5 EF 22 00 F4 DF C3 96 2F 28 40 0F 7E F8 3B 02 60 F9 F7 E0 CB 13 12 B4 E1 C3 BF 15 01
DPCM : 4C 3F 1F 7E 6A 41 89 8E 74 F8 B7 09 28 EA 53 57 5F 1C D8 70 41 8B 9F AD 40 15 7A B9 EA A7 09 15
DPCM : 17 29 F9 F6 A8 50 A3 26 57 BF 96 28 5C 51 52 DB 27 4B 5C 54 C9 FA EE 81 82 97 06 87 3E B5 48 17
DPCM : 4D 54 FF 76 20 38 3D F0 F0 69 93 74 93 81 EA 7F 0F 08 D6 07 07 1F 37 49 DD 54 40 FB FF 80 C0 F6
DPCM : 68 70 B5 0B A5 4F 0B F0 FE 0F 04 78 D7 0A 4E BD 50 EA D3 04 5E FF 21 80 BE FC C0 A1 0F 0E 7E B5
DPCM : C0 EB 1F 0C E0 E3 0F 3C F8 C0 83 9F 0B 7C FE C1 00 4E FE E3 05 1E 28 F8 DE AA D6 96 10 C0 FA FF
DPCM : B5 00 80 06 EF FD 65 A5 0A 00 D8 FF FF 0B 00 E0 C2 5F 7F BA D0 00 00 FF FF 3F 01 00 FA E8 E7 47
DPCM : AB 12 00 D2 FF FF 03 00 8C 3F 7E F4 58 AB 00 C0 FD FF 79 00 00 D3 9F 47 CD A6 0B 00 FC FB CF 07
DPCM : 00 F8 F8 D7 A0 BC DA 00 82 FF FD F8 00 00 BF 7F 06 4A 2F 2D 20 F4 FF 0F 0E 20 F0 F7 57 41 F4 91
DPCM : 01 95 FF 7B C1 01 0C FC F7 12 94 2E 91 60 F9 7F 37 30 C0 C0 BF 3F 29 B4 44 02 5E FE FF 03 0A 10
DPCM : F8 F7 57 83 0E 08 E2 E5 FF 7F 40 00 82 BF FF 3C 61 00 81 BC FE FF 07 02 00 F8 FF 6F 17 14 00 D0
DPCM : F6 FF FF 00 00 C0 B7 FF B7 0A 00 00 AE FD FF 5F 00 00 F0 F9 FF 6F 01 00 C0 EA FF FF 15 00 00 4E
DPCM : FF FF 3B 00 00 D0 FE FF 97 05 00 A0 F8 FF BF 07 00 00 FC FF FD 51 00 00 9E FF FE 7D 00 00 C0 FF
DPCM : EF 46 17 00 E0 F3 9F 5F 1F 00 00 FC FF 68 E9 03 00 BE FF E8 FA 17 00 00 FE 1F D1 75 02 C0 FD 2F
DPCM : A9 FF 05 00 C0 FF 09 FC 2F 01 20 FF BB F0 FF 00 00 F0 3F 03 FF 0F 00 E0 FF 0E FE 3F 00 00 FE 53
DPCM : E0 FF 03 00 78 FF 82 FF 0F 00 80 7F 05 FE 7F 00 00 FF 1F F8 FF 00 00 E0 7F E1 FF 03 00 F0 FF 81
DPCM : FE 5F 00 00 F8 1F FD 7E 00 00 FF 3F A0 FF 07 00 00 FF D3 D7 0F 00 F0 FF 03 DC FF 00 00 E0 5F 7B
DPCM : FA 00 C0 FF 37 80 F7 3F 00 00 FC EB 87 0F 34 F8 AF 01 5C FF C3 00 80 1F FE F0 C0 A7 3F 8A 80 D7
DPCM : 7F 1A 20 C0 E3 0F 1F FC 7D 05 20 EC DB 4F 07 0A 10 FD E1 E1 FF 0F 00 28 7F FC EA 45 00 60 1F 1F
DPCM : FE F7 01 00 EA 0F 5F FD 01 00 68 DB D3 FF 5F 00 80 D7 C3 EB 3F 00 00 F4 EE FA FF 05 00 F0 78 D9
DPCM : FF 07 00 00 AA FF FF AF 00 00 0E 7E FF FF 00 00 00 F6 FF FF 03 40 40 82 FF FF 3F 00 00 40 FF FF
DPCM : 7F 00 12 00 F8 FF FF 07 00 40 F4 FF FF 03 02 05 20 FE FF FF 00 00 24 FE BF 7F 00 42 80 B0 FF FF
DPCM : 0F 00 50 A2 DF FF 1F 00 24 04 7E FF FF 00 00 0B 7E FE F7 03 02 42 E0 EA FF 3F 00 E0 C0 A7 BF FE
DPCM : 50 40 0A AC FE FF 03 06 04 3E FC E9 CF 0A 82 20 6D FF 7B 30 40 C1 A3 97 7F 3D 28 20 E0 F5 DF 0F
DPCM : 06 08 7C E8 F1 EF A3 02 00 5B FD FD 71 01 04 1E 2E FE FE 54 00 C0 D5 5F 3F 5D 00 62 A3 4E FF AF
DPCM : 02 00 DC F6 E5 A7 07 02 5A EA F4 BB 27 00 A0 ED 2B B7 7E 11 80 D2 AE 5E FF 28 00 54 BF 74 FA 57
DPCM : 01 40 DE EA B5 9F 02 C0 E4 47 4D FD 56 00 E0 6B 5D FE 44 02 98 5E 68 D5 3F 05 00 6E B5 A9 6F 40
DPCM : A5 59 94 95 66 52 56 95 51 56 55 46 55 55 55 55 55
DPCMDEF  35  2545 "choir aahF"
DPCM : FB 3F 00 7A BD F7 00 12 29 79 97 75 00 00 D0 FB FF AF 00 11 52 FB FF 09 00 00 C0 7F FF 7F 02 00
DPCM : D4 FD FF 0F 00 00 C0 FF FF 3F 00 00 7C FD 7F 1F 00 00 E0 FF FF 17 00 00 BE EE FF 07 00 00 F0 FF
DPCM : FF 03 80 80 3F FF FF 01 00 00 FC FF FF 00 40 E4 CF FF 7D 00 00 00 FE FF 7F 00 C0 BA DF 3F 5B 00
DPCM : 00 80 FF FF 0F 40 F0 F3 5F 9F 12 00 00 F0 FF FF 01 20 FD F5 8F 17 00 00 80 FD FF 3F 08 C8 FE FE
DPCM : C3 07 40 00 10 FF FF 0F 14 F0 6F FF A1 03 10 00 C5 FE FF 03 06 FC BB 7F F0 00 14 40 E2 5F FE 80
DPCM : 03 FF BF 27 54 80 05 50 E9 CB 3F 70 C2 FF F7 90 12 49 12 A4 3A FA 83 9A FE BF 5A 48 A2 25 25 C0
DPCM : 13 FE B0 C3 FF 3F A4 08 6D A9 09 E0 04 7F F8 E1 FF 1F 40 03 FE 61 03 40 C0 3F 7E FC D7 0F 60 C0
DPCM : 7F E9 01 00 E0 1F 7F FE F3 07 20 E0 7F 3D 00 00 F0 EF 1F FF F1 03 08 F8 5F 17 00 00 FC F7 EF 3F
DPCM : F8 00 04 FE 6F 03 00 40 FE 7F F7 0F 1D 00 83 FF 57 00 00 46 FE FF FE 8C 04 C0 D2 FF 0B 00 80 45
DPCM : FF EF BF 2E 00 60 FA 7F 01 00 E0 C2 FF FC EF 0F 00 C0 FF 7F 00 00 70 F2 27 FD FF 07 00 E0 FE 7F
DPCM : 00 00 58 7E 81 FF FF 07 00 F0 FF FF 00 00 80 3F C0 7F FF 03 00 FE FF 3F 00 00 C0 3F E0 FD FF 08
DPCM : 80 F9 FF 1F 00 00 C0 1F 5C FD BF 06 60 F9 FF 0F 00 00 F0 07 57 FF BB 01 B4 FC FF 03 00 00 F8 53
DPCM : AD F7 DE 80 4D FF BF 00 00 00 FA A9 F6 AD 3E E0 87 FF 5B 00 00 80 FA 4A FF D2 1F F8 C3 7F 1A 00
DPCM : 00 25 DE A4 FF F0 1F FE E0 1F 0E 00 A0 04 6F DC 7F F8 07 FF F8 03 03 10 34 81 2B FE 1F FC C3 7F
DPCM : 7E 00 01 89 1A 60 8A FF 07 FF F0 7F 2F 00 80 54 0B 60 D1 FF 0F FE F8 77 07 00 20 BA 01 A8 F4 FF
DPCM : 0B 1E FD FF 03 00 10 BA 00 12 FD FF 03 1F FF FF 09 00 00 5F 00 44 FF FF 81 0F FF FF 01 00 A0 07
DPCM : 40 D8 FF FF C0 A2 FF FF 01 00 B0 01 00 FE FF 7F A0 C0 EF FF 03 00 54 00 00 FF FF 7F 08 F0 FF FF
DPCM : 00 20 03 00 00 FF 7F FF 02 F0 FF FF 00 A8 00 00 80 FF EF FF 00 E8 FF 7F 40 25 00 00 80 FF FF 7F
DPCM : 00 D8 FF FF A0 0A 00 00 C0 FF FF 3F 00 D0 FF 3F 49 05 00 00 F0 FF FF 1F 00 F0 FF 6B 89 06 00 00
DPCM : BE FF FF 07 00 F0 BF B6 22 03 00 2E FE FF FF 01 00 F0 DC 59 A4 40 E1 0F FF FF 3F 00 00 F0 7E 15
DPCM : 24 61 E2 8F FF 7F 1F 00 00 D4 3F 21 11 5A F8 C7 FF FF 07 00 00 D5 3F 84 04 5E FC 83 FF FF 03 00
DPCM : 80 F3 1F 20 81 1E FE F1 FF FF 01 00 C0 FA 0F 20 C0 0B FF F8 FF 7F 00 00 E0 FE 03 10 E0 C7 7F FC
DPCM : FF 3F 00 00 70 FF 03 00 F0 E5 3F BF EF 1F 00 00 78 FE 03 10 F0 D1 DB FF F7 0F 00 00 5C FF 01 04
DPCM : F8 F8 AF FF FF 07 00 00 CE FF 00 02 1E FA F7 FF FD 03 00 00 EA 2D B0 80 2F FE F4 BF FF 01 00 00
DPCM : FA 1F 34 60 27 BF FA FF FF 00 00 00 FA 0F 1D B8 93 1D FB FF 7F 00 00 00 FE 86 0E E9 50 95 DF FD
DPCM : 5F 00 00 00 FE 61 A7 DE 91 CA FF BF 3F 00 00 00 7F D1 60 F5 88 52 FF FF 3F 00 00 00 5F A4 CD FF
DPCM : 20 E1 F7 FD 1F 00 00 00 15 5D FD BF 20 D0 FF FF 0F 00 00 80 C2 95 EF 7D 43 E0 FD BF 07 00 00 60
DPCM : 44 D3 FF 7D 07 E0 FF F9 00 00 00 0A 40 D1 FB FF 1F DC 7F 0F 00 00 F8 25 00 E0 FF FF 3F 76 BF 00
DPCM : 00 00 FF 07 00 C0 F7 FF 9F 7B 7C 00 00 C0 FF 07 00 80 EF FD DF 7F 1A 00 00 E0 FF 0D 00 80 FF DF
DPCM : EF 1F 15 00 00 78 FF 01 00 E0 FF FF EF 0F 04 00 00 FE F6 01 00 F0 FF FF EF 45 00 00 84 FD 3F 00
DPCM : 00 FE FF FD 57 05 01 80 D3 7F 28 00 10 FB FF FF A3 0A 00 E0 E7 3F 00 00 5C FF FF FF E0 01 00 F8
DPCM : EF 0F 00 00 CE EF FF BE E0 00 00 BC FF 07 00 00 FE FF 5D 3D 70 00 00 FF FF 01 00 00 FF EF C7 1F
DPCM : 38 00 D0 FF 7F 00 00 C0 FF FF C1 1F 4C 00 E8 FF 1F 00 00 E0 FF FF E0 07 0E A0 FB 3F 07 00 00 F0
DPCM : FF 7F E0 01 0D F0 FF FF 01 00 00 F8 FF 1F F0 42 82 BA FF FF 00 00 00 FE FF 0A B8 22 68 F5 FF 7B
DPCM : 00 00 80 FF 3F 0A A8 0B D8 F4 FF 2F 00 00 C0 FF 1F 02 D2 09 FE FC FF 1F 00 00 E0 FF 1F 80 C0 87
DPCM : 7F BE FF 07 00 00 F8 FF 07 40 F0 C7 5F FE FF 01 00 00 FC FF 03 20 78 E7 7D FF 7F 00 00 00 F7 FF
DPCM : 00 00 FE FD CF EF 1F 00 00 80 7F 7B 00 24 DE FF DF D2 03 00 00 40 FF FF 00 A2 F6 FD DF 50 00 00
DPCM : 00 D0 FF FF 00 51 FA DF 7F A0 00 00 00 F4 BB FF 05 84 FC FF 3F 00 00 04 00 F2 FF FF 43 84 FF FF
DPCM : 0B 00 00 01 80 FC FF FF A0 C4 FF FB 03 00 E0 00 00 F8 FF FF A1 E1 FF FF 01 00 58 00 00 FC 7F 7F
DPCM : E8 E1 FF FF 00 00 6E 00 00 F8 FF 7F 78 F0 FF 3F 00 0A 1E 00 00 F8 FF 3F 7E F8 BF 0D 00 83 0F 00
DPCM : 00 FC FF 1F 7E FC DF 03 E0 C0 07 00 00 FC FF CF 1F FE E7 01 78 E8 01 00 00 FE FF D6 87 FF B1 00
DPCM : FE B8 00 00 00 F7 FF F3 C3 7F 68 80 7F 1A 00 00 80 FF FF F7 A0 1F 36 A8 7F 04 00 00 80 FF FF BF
DPCM : E0 8F 0E FA 0F 00 00 00 E0 FF FF 2F F0 A7 15 ED 1F 00 00 00 F0 FF BF 0F F8 B1 A5 FE 0B 00 00 00
DPCM : F8 FF FF 03 7E 75 A9 F7 03 00 00 00 FC FF FE 01 BF 6E B9 EF 02 00 00 00 FE FF 7F 02 DF 9E ED 5E
DPCM : 01 00 00 80 FF 7F 1F C4 BE A7 BB 6E 00 00 00 C0 FF FF 0F B4 FE 63 57 47 00 00 00 E0 FF FF 03 B5
DPCM : FE 79 95 2B 00 00 00 F8 FF FF 81 CD 7F BC A8 17 00 00 00 FA FF 7F A0 D3 3F 6C F4 17 00 00 80 FF
DPCM : FF 1E E0 F4 07 2E FD 0F 00 00 E0 FF FF 03 70 F9 03 76 FD 0F 00 00 F8 DF AF 00 7C EA 40 FF FF 07
DPCM : 00 00 F8 FF 1A 80 7E 76 C0 FF 7F 01 00 00 FD 7F 0A A0 BD 5A F0 FF 7F 00 00 C0 DE 1F 0A F0 9E 0A
DPCM : FC FB BF 00 00 A0 FF 07 01 7E 9B 02 FF FE 1F 00 00 D0 FF 83 80 DF AE C0 BF EF 87 00 00 F0 FF 20
DPCM : C8 AF 9B E0 B7 FD 23 00 00 F8 7F 01 A9 EB 0E B8 FB F7 28 00 00 FC 5B 50 DB EB 01 BA FE FF 2C 00
DPCM : 00 78 5B D4 7D E5 00 4E FF 7F 1E 00 00 58 57 6D 77 BA 00 A6 FF FF 0E 00 00 90 5F EF 2F 2D 80 C5
DPCM : FF FF 0F 00 00 80 BF FF 2F 15 80 C2 FF FF 07 00 00 80 7F FF 9F 08 40 E1 FF FF 07 00 00 80 FF FF
DPCM : 3F 10 40 F0 FF FF 07 00 00 80 FF FF 3F 00 20 FA FF FE 03 00 00 C0 FF FF 1F 00 40 FC FF FF 03 00
DPCM : 00 C0 EF FF 0F 00 20 FE FF DE 03 00 00 E0 FF FF 07 00 40 FF F3 DB 01 00 00 F0 FF EF 01 00 E0 7D
DPCM : FF FF 01 00 00 F8 FF FF 00 04 70 FB FF FD 00 00 00 DC FF 7D 00 02 F8 F2 FF 1F 00 00 00 FE FF 7D
DPCM : C0 03 5E D4 2F 0A 00 00 80 FE EF 7F D0 A5 4D 50 56 14 00 00 EC 5E FF 27 D4 FF 4F 00 00 90 04 40
DPCM : FD D7 FD 39 F8 FC 1F 00 00 20 01 24 FF FF 7F 3C F8 DF 3D 00 00 40 48 80 FF FF 1F 1E FC FF 1F 00
DPCM : 00 10 14 E0 F7 FC 07 1F F7 BB 0F 00 00 08 0F E0 FB CF 41 8F FF FE 05 00 00 80 0F E0 C1 F5 F8 E9
DPCM : FF CF 01 00 00 F2 06 38 C8 3F 7F B9 FF 7F 00 00 80 D5 03 0A F4 AE 7E F7 FF 1F 00 00 C0 13 04 B6
DPCM : F7 5A B2 FE FF 1A 00 00 E0 AD 80 96 BF 5A FD FF BF 05 00 00 70 0D 80 8A 76 2D 7E 7F FF 01 00 00
DPCM : F6 4B 00 A2 EB 3F BE EF 7F 00 00 00 F7 2F 00 F0 6F 7F AF F7 3F 00 00 C0 FB 07 00 E8 9B 6F FF FA
DPCM : 1F 00 00 F0 F7 01 00 F8 1F DF DF FF 06 00 00 B8 F3 02 00 FC FF BF FF FF 01 00 00 FE 77 00 00 D2
DPCM : BF 6F FB F7 00 00 00 E9 3F 00 00 BB FF BF FF 7F 00 00 80 FF 17 00 C0 7F FE BF 7F 1F 00 00 80 7F
DPCM : 0F 00 E0 BC 2F FD 7B 07 00 00 E0 FF 02 00 AA AF FF F7 BF 0F 00 00 B0 FE 00 C0 E6 5F FE F7 F9 03
DPCM : 00 00 F4 3F 00 80 F3 5F F7 FF 0B 00 00 00 FF 0B 00 70 7F FF F1 FF 7F 00 00 C0 FF 0A 00 F0 FF FD
DPCM : 7B 95 07 00 00 F8 3F 05 00 F8 FF BF 77 15 02 00 00 FC 4F 00 00 BE FF FF 7F 39 00 00 80 77 23 00
DPCM : 00 FF FF FF 7F 2A 00 00 F0 55 50 00 80 FB FF EF 17 2A 00 00 E4 0F 04 00 F0 FF FF 5F 87 0D 00 A0
DPCM : F2 0B 00 00 F4 FF FF F7 C3 05 00 A8 FE 03 00 00 FF DF FD FC E0 01 00 56 FF 00 00 A0 FF FF 3F 3E
DPCM : F4 00 80 AE 7F 00 00 F0 F7 7F 0F 1F 3D 04 80 EB 1B 00 00 FC FB FF 83 45 2E 01 E0 F6 07 00 80 DE
DPCM : FF FF C0 97 17 00 D8 FE 02 00 E0 FF FF 1F E0 D7 0B 00 A8 FF 00 00 F8 FF FF 07 F8 F5 03 00 F0 1F
DPCM : 00 00 FF FF 7F 01 FE FF 00 00 F0 0F 00 C0 FF FF 6F 00 DF FF 00 00 F8 02 01 E8 FF FF 29 80 FE FF
DPCM : 01 00 B8 42 00 FE DF 3F 0C E0 FF 7F 00 00 3C 92 00 F7 EF 0F 0C F0 FF 7F 00 00 9A 12 A0 FF FF 07
DPCM : 04 FC FF 1F 00 00 6B 09 D0 FF 7F 01 00 BF FF 4F 00 00 7D 02 D2 FF 7F 00 80 FF FF 17 00 80 FD 40
DPCM : C1 FF 7F 00 C0 FF FF 03 00 C0 7F 90 E0 FF 7F 00 C0 FF FD 00 00 E0 3F 0A F0 FF 7F 00 C0 7F 7F 00
DPCM : 00 FC 37 00 F8 7F 3F 00 70 FF 0F 00 80 BF 1E 00 B4 FF FF 01 B4 FF 00 00 F8 7F 03 00 F4 FF FF 00
DPCM : 7F 7D 00 00 FC FF 03 00 60 FF 3F 8B 7E 1B 00 00 3E FF 01 00 F0 FF 5F 6D FB 05 00 00 FF 7F 00 00
DPCM : FC FF B3 EA DB 01 00 C0 FF 3F 00 00 FC FF 7B E9 5F 00 00 A0 FF 1F 00 00 FF DD 76 DA 1F 00 00 78
DPCM : 7F 4F 00 00 FF DB 4D FB AA 00 00 FC FF 09 00 40 FF FF 8B 7E EC 00 00 FC 7F 13 00 C0 FF 77 95 2F
DPCM : 7C 00 80 FF CA 03 00 F0 FB 3F 5A 83 1E 00 B1 FF E8 00 28 F8 7F 87 5A A1 07 14 F4 0F 36 00 17 FE
DPCM : FF 21 23 D0 89 54 55 55 55 55 55 51 55 55 15 55 55
DPCMDEF  36  2401 "choir aahGflat"
DPCM : 9F 3F 80 BF FF 39 90 84 5A 2F DB 12 00 00 FB BF BD 00 21 12 7F FF 02 00 00 DC FD FF 09 00 50 FF
DPCM : EF 0F 00 00 E0 FF 7F 0F 00 80 D7 FF DF 00 00 80 FF FF 1F 00 00 1F FF FF 03 00 00 FE FF 1F 00 02
DPCM : 7E FD FF 03 00 00 FC FF 3F 00 24 FC FD DF 07 00 00 F0 FF 7F 00 B0 F6 F7 CF 06 00 00 F8 FF FF 00
DPCM : C0 CF 7F 9F 0A 00 00 F0 FF FF 00 48 7F FF 7A 01 00 00 F4 FF 7F 08 B0 BF FE D1 03 10 00 E8 FF 7F
DPCM : 50 C0 AF FF 83 07 00 00 C9 FF FF 80 01 FF FB 07 0F 40 00 89 7E FF 80 03 FF FF 0A 15 60 01 94 3E
DPCM : FF 80 07 FF DF 43 92 48 12 A4 56 FE A0 A5 FF AF 06 45 96 94 00 4F F8 C2 C3 FF 3F 24 42 5B 6A 02
DPCM : 2C F0 87 8F FF 7F 00 03 EE D1 03 00 F0 8F 1F FF FD 00 06 FC A7 07 00 80 3F 7F FE F3 07 00 F8 5F
DPCM : 0F 00 00 BF FE FC C7 0F 20 E0 7F 07 00 00 FE FD DB 87 0F 40 E0 FF 0E 00 00 F9 FF FB 0F 1C 80 E0
DPCM : FF 15 00 40 E4 FF FF 37 11 00 CB FF 0B 00 80 C9 FF FB AF 03 00 B6 FF 27 00 00 07 FF FB EF 0F 00
DPCM : E0 FF 1F 00 00 16 7F F2 7F 3F 00 C0 FF FF 00 00 90 7E D0 BF FF 00 00 FF FF 07 00 00 FE 00 FF FF
DPCM : 03 00 FF FF 0F 00 00 F8 03 DD FF 27 00 EE FF 3F 00 00 E0 07 57 FF 6F 00 96 FF FF 00 00 80 4F 5C
DPCM : FB DF 01 1C FF FF 00 00 00 3F 35 EF BD 03 3C FE FF 04 00 00 7C AA 7D BB 0F 7C F0 FF 04 00 00 78
DPCM : 4B FF D2 1F FC F0 9F 15 00 00 E2 56 FE A3 7F F8 C3 1F 0E 00 A0 C0 9E FA 1F FE F0 8F 1F 34 00 D0
DPCM : 02 2E FA 3F FC E3 3F 7E 00 80 A4 0A 38 F9 7F F0 C7 FF 3D 00 80 54 0B 50 F4 FF C0 AF FE 7F 00 00
DPCM : E8 06 A0 D4 FF 0F 3E FD FF 01 00 C0 17 40 E4 FF 1F 78 F9 FF 07 00 00 5F 00 D0 FF 7F E0 D1 FF 3F
DPCM : 00 00 1E 00 E8 FF FF C0 A2 FF FF 00 00 2C 00 E0 FF FF 07 82 FF FF 03 00 54 00 00 FF FF 9D 02 FC
DPCM : FF 0F 00 2C 00 00 FC FF FF 02 F0 FF 7F 00 2A 00 00 F0 FF FF 07 C0 FF FF 01 25 00 00 C0 FF FF 1F
DPCM : 00 FD FF 0F AA 00 00 00 FF FF 3F 00 F0 FF 5F 52 01 00 00 FB FF 7F 00 C0 FF 9F 85 06 00 00 FF FF
DPCM : FB 00 00 FF 5B 8B 0C 00 38 FD FF FF 01 00 B8 7B 16 2A 50 F8 F1 FF F7 01 00 A0 FB 55 90 60 E1 C7
DPCM : FF FF 07 00 40 FD 43 22 70 E1 1F FE FF 0F 00 00 F5 0F 21 D0 85 3F FE FE 1F 00 00 CE 3F A0 80 17
DPCM : FE FC FB 77 00 00 A8 FF 00 00 1F FE E2 FF FF 00 00 B0 FD 03 00 F8 F4 CE FF FF 01 00 C0 F6 07 00
DPCM : E0 F3 9F FF FD 07 00 00 E7 3F 00 C0 C6 7F FF FF 0F 00 00 5C FF 00 01 2F FE F9 FF 3F 00 00 70 BE
DPCM : 01 03 7C BC F3 FF EF 00 00 40 FE 07 06 F4 F8 F3 FF FF 03 00 00 FC 0F 1A F0 E4 C7 FF FF 07 00 00
DPCM : E0 3F 38 F0 45 8F FF FF 1F 00 00 80 FE E8 D0 2B 16 FE FF 7F 00 00 00 FE E8 A9 AF 24 FC FF FD 03
DPCM : 00 00 F8 61 A7 F2 90 C4 FF DF 0F 00 00 E0 C5 DA EF 81 44 FF FF 3F 00 00 80 45 57 FF 7F 00 FE FF
DPCM : 7F 00 00 00 85 2D FF FF 23 F0 7E FF 00 00 00 04 2E FD FF 3F C0 FF 7F 01 00 00 4A 40 F4 FF FF C3
DPCM : DF 7F 00 00 E0 4B 00 C0 FF FF 9D BF 7A 00 00 E0 3F 01 00 FC FF FF FE FD 00 00 C0 FF 03 00 E0 FF
DPCM : FD FD D7 00 00 80 FF 1F 00 80 FF FF F6 8F 02 00 00 FF 3F 00 00 FE FF DF 9F 08 00 00 FE 7F 00 00
DPCM : FE FF FF 0F 11 00 00 FE 6F 01 00 F8 FE FF AF 02 00 70 FA 4F 05 00 F8 FF FB 4F 15 00 C0 F7 1E 00
DPCM : 00 EB FF FF 1F 1C 00 80 FB 3F 00 00 DC FF FF 3F 70 00 00 FF FF 00 00 E0 FF FF 7E E0 00 00 FF FF
DPCM : 00 00 C0 FF F7 F9 83 02 00 BF FF 01 00 80 EF FF C3 0F 06 40 FD FF 03 00 00 FE FF 87 1F 18 40 FF
DPCM : FF 07 00 00 F8 EF 0F 3E 60 80 FF FB 07 00 00 F8 FF 0F 78 21 41 FD FF 1F 00 00 A0 FF 2F E0 2A A4
DPCM : F5 FF 7F 00 00 C0 FF A7 80 DA A0 CF FF FF 00 00 00 FF 3F 40 B2 0A 3F FF FF 03 00 00 F6 7F 00 C1
DPCM : 4F EE FC FF 03 00 00 7C FF 01 00 7F F9 F7 FB 0F 00 00 F8 FB 03 00 FC F3 FF FD 1F 00 00 E0 FF 07
DPCM : 40 F0 C7 FF AD 1F 00 00 C0 FF 0D 40 F0 FC DD 2F 0F 00 00 80 BF 67 80 A8 F6 FF BB 34 00 00 00 FE
DPCM : FF 07 42 B9 BF FF 80 00 00 00 FC FF 7F 40 E4 FF FF 01 00 00 00 F1 F7 EF 83 C0 FF FF 07 00 40 00
DPCM : C0 FF FF 0F 12 F7 FF 07 00 E0 00 00 FC FF 3F 9C F8 FF 1F 00 80 01 00 F0 FE 7F F4 F0 FF 1F 00 81
DPCM : 07 00 C0 FF BF E1 C3 FF 3F 00 0A 1E 00 00 FE FF 87 8F FF FF 00 00 3E 00 00 F8 FF 8F 1F FE FF 00
DPCM : 38 F8 00 00 C0 FF 7F 3E FC AF 03 78 78 01 00 00 FF FF FD F0 4F 07 F0 E3 02 00 00 FE FF F3 C3 3F
DPCM : 1C E0 9F 11 00 00 F8 FF EF 83 7F 38 A2 BF 04 00 00 E0 FF FF 0F FE D8 A0 FF 08 00 00 80 FF FF 0F
DPCM : FC 69 49 FF 05 00 00 80 FF FF 37 F0 CB 25 FF 0B 00 00 00 FE FF B7 C0 57 97 EE 2F 00 00 00 F8 FF
DPCM : FF 00 BF 5E DE 2F 00 00 00 F0 FF FF 11 FC 5E 75 5F 01 00 00 C0 FF FF 0B EC 7B 76 BB 02 00 00 80
DPCM : FF FF 0F B4 FF B0 B5 25 00 00 00 FF FF 4F B0 FE E5 95 2B 00 00 00 FE FF 3F D0 FA C7 0B 5F 00 00
DPCM : 00 EC FF 7F E0 F2 0F 1D FD 01 00 00 F0 FF 7F C0 D3 1F 38 FD 0F 00 00 F0 FF 7F 00 97 3F E0 F6 3F
DPCM : 00 00 E0 FF 3F 00 7E BC C0 FF FF 00 00 C0 FF 67 00 FA BA C0 7F FE 03 00 00 FF 9F 02 D8 AB 05 FF
DPCM : FF 03 00 00 FF 17 06 F0 BD 02 FF FE 0F 00 00 FA 7F 08 F0 ED 0A FA FF 2F 00 00 E8 FF 20 E0 EF 0A
DPCM : FC FB 3F 02 00 C0 FB 41 D0 AF 17 D8 FF 3F 0A 00 80 FF 03 A4 AF 17 D0 FB FF 18 00 00 FE 16 D4 BE
DPCM : 5E 40 EB FF E7 00 00 70 5D B4 7B 75 80 CB FF DF 01 00 80 75 D5 FB E9 02 94 FF FF 07 00 00 D0 AF
DPCM : FF A5 01 30 FD F7 3F 00 00 00 BF FF 2F 06 A0 F0 FF FF 01 00 00 F8 FF 7E 20 00 C5 FF FF 07 00 00
DPCM : E0 FF FF 03 01 84 FF FF 1F 00 00 80 FF FF 0F 00 28 FE FF 7F 00 00 00 FE DF 7F 00 00 F4 FF FF 03
DPCM : 00 00 F8 FF FF 01 00 F0 EF FF 0F 00 00 C0 FF FF 07 00 C0 FF FF 3F 00 00 80 FF DF 0F 00 80 F7 FF
DPCM : FF 00 00 00 FE 7F 1F 80 00 DE FD FE 03 00 00 FC FF 7F 80 02 AE BC FF 03 00 00 F0 FF BF 01 17 7C
DPCM : D4 5F 12 00 00 E0 EF FF 07 5F FA 08 59 11 00 00 6C FF FF 2F B8 FB 0A 00 00 44 00 D4 FF F7 EC E0
DPCM : DF 7B 00 00 80 00 62 FF EF CF 83 EF BE 01 00 00 88 04 DD FF 1F 1D FE FF 07 00 00 C0 01 FE BB 3F
DPCM : 7C F8 5F 0F 00 00 88 0D F0 F6 2F FC F4 FB 3E 00 00 00 3E E0 F1 BD F8 B5 FF 7F 00 00 00 5E C0 C3
DPCM : F7 F0 F3 BF EF 00 00 80 FA 01 07 FF FD FD FE FB 01 00 00 2F 09 68 FF F5 78 CF FF 03 00 00 5E 15
DPCM : D0 50 B7 EB E7 7B 07 00 00 D8 97 80 A4 DB EF FF FF 1F 00 00 F0 3B 00 C2 EF 1D FE FD 3E 00 00 E0
DPCM : FF 00 80 FF BF FA F7 3F 00 00 C0 DB 03 00 E6 DF F7 CF BE 00 00 00 DF 07 00 D0 7F FB BF DB 00 00
DPCM : 00 F3 0F 00 B0 DD FE EE EF 03 00 00 FE 3F 00 80 FE FF BF F3 0F 00 00 F8 7F 00 00 FF FB CF FE 1F
DPCM : 00 00 F0 FD 01 00 FC FB FE FF 5B 00 00 C0 F7 03 00 E4 EF FF 7F 7E 00 00 80 DF 07 00 EC 5F 77 DF
DPCM : FF 03 00 00 F6 07 00 2A 7F ED FF FF 07 00 00 BC 1F 00 98 FF FB 7E FD 06 00 00 6C 23 00 80 FF 1E
DPCM : F5 A3 1F 00 00 78 AE 00 00 DF EF FF D3 0F 00 00 78 9F 02 00 FE 7B 7F AE 0E 00 00 F0 AD 02 00 BC
DPCM : FF B3 3F 5B 00 00 E0 3E 04 00 F8 9E FF 7F 74 00 00 E0 7F 28 00 E0 FF DA 7F 63 01 00 88 57 00 00
DPCM : C0 F3 FF FD C7 06 00 50 FD 40 00 C0 FF FF BF 87 0E 00 10 FF 01 00 C0 FF FF 9F 1F 3C 00 C0 FA 07
DPCM : 00 80 F7 FF 3E 1F 7A 00 C0 F4 0F 00 00 FF FF 3F 6E DA 08 00 C7 1F 00 00 FE FE FF 70 B1 05 00 B7
DPCM : 5F 00 00 FE FF 6F E0 B3 07 00 DA 7E 00 00 FE FF FF 80 AF 17 00 D0 7F 00 00 BC FF FF 01 BF 3E 00
DPCM : 80 FF 00 00 FC FF FF 01 DC FF 00 00 FC 01 00 F8 FF FF 03 B8 FE 03 00 F0 03 00 F8 FF FF 04 F0 FF
DPCM : 1F 00 C0 15 02 E8 FF FB 18 E0 FF 3F 00 00 27 42 F0 FF 7F 20 C0 F7 FF 01 00 34 09 E0 FF FB 81 80
DPCM : FF FF 01 00 58 0B A0 EF FF 03 00 FF FF 07 00 A0 2F 40 FC FF 07 00 FE FF 1F 00 00 FF 80 E0 FF 1F
DPCM : 00 F8 F7 3D 00 00 BE A1 40 FF FF 00 C0 FF FF 00 00 F8 45 01 F7 FF 03 00 FE FF 00 00 FC 1F 00 FC
DPCM : BF 1F 00 FE 7F 01 00 F8 EF 00 60 FD FF 01 DC 7F 00 00 FA 7D 01 00 FD FF 0F FC FA 00 00 E8 FF 03
DPCM : 00 F0 FF 6F D1 DF 02 00 F0 FF 07 00 C0 FF 3F D6 BE 03 00 C0 FF 0F 00 80 FF BF D5 D7 0B 00 80 FD
DPCM : 3F 00 00 F5 FF 2F FD 43 00 00 FE FF 00 00 DC FF EF EC 0F 00 00 FA BF 01 00 E8 FF 7F DA 57 01 00
DPCM : F8 EF 05 00 E0 FF 7F D1 8F 07 00 C0 FF 0B 00 80 FF EF CA 1C 1E 00 E0 DF B9 00 00 FF FF B1 9A 54
DPCM : 00 E4 5F 74 00 14 FE DF 43 2D F4 80 92 7F 70 01 38 EC FB 83 16 E1 44 55 45 45 55 55 55 55 15 55
DPCM : 55
DPCMDEF  37  2257 "choir aahG"
DPCM : 7F 3D C0 37 FB 05 48 A0 75 77 2D 00 00 DC F7 7F 00 24 D4 7F 9F 00 00 80 FF FF 1D 00 40 F9 BF 3F
DPCM : 00 00 E0 DF FF 03 00 E0 FD FF 0E 00 00 FC FF 3F 00 00 1F FF FF 01 00 C0 FF FF 03 00 F0 F1 FF 0F
DPCM : 00 00 F8 FF 3F 00 04 7F FF 7F 00 00 80 FD FF 03 80 FA F7 CF 05 00 00 FC FF 1F 00 FC FC F5 29 00
DPCM : 00 E0 FF FF 00 C8 DF 7F 5E 00 00 00 FF FD 87 00 FB FB C7 07 00 00 F0 FF 3F 18 F0 EF 3F 7C 00 00
DPCM : 10 FF FF 81 01 FF FA 07 0F 00 40 F2 B7 1D 38 F0 FF 1F 58 80 01 94 BE FC C1 85 FF EF A0 44 A4 40
DPCM : EA E8 0F 96 FB BF 26 24 96 14 81 0B FE F0 F8 FF 43 22 F4 A8 09 30 E1 87 8F FF 3F C0 80 7F 3C 00
DPCM : 04 FC F8 F8 FF 07 20 F8 A7 07 00 C0 CF 9F FF FC 00 01 FF DD 00 00 F8 FC F3 CF 0F 20 F0 DF 05 00
DPCM : 80 FF BF 7F 78 00 81 FF 37 00 00 F8 FB FF 43 0B 20 F8 7F 01 00 84 FE FF FF 48 00 CA FF 13 00 40
DPCM : D2 FF FF 3B 00 E0 F6 7F 00 00 06 FF FB EF 07 00 F8 FF 07 00 40 B1 47 F7 FF 00 00 FF FF 01 00 90
DPCM : 1F F4 FF 1F 00 F0 FF 3F 00 00 F8 03 FE FF 03 00 FF FF 07 00 00 7E D0 FD 7F 02 B0 FF 7F 00 00 E0
DPCM : 07 D7 EE 1F 80 F9 FF 0F 00 00 7C 70 FD DF 01 18 FF FF 00 00 80 4F AD DF 3B E0 E1 FF 0F 00 00 78
DPCM : A9 FE FA 03 1F FE 5F 00 00 80 B7 EC 4F 5F F0 C3 BF 15 00 00 E8 A3 FF E8 0F 7F FC E1 00 00 02 7B
DPCM : FC 1F FE F0 E7 0F 0C 00 34 E0 A2 FF E3 0F FF 7E 00 01 A2 02 2E EE 3F FC B1 FF 0B 00 40 2D 40 C9
DPCM : FF 87 1F FF 7F 00 00 E8 01 28 FD FF E0 F3 FF 07 00 00 1F 40 E4 FF 0F 78 FE FF 01 00 E0 05 00 FD
DPCM : FF 83 C7 FF BF 00 00 1C 00 F8 FF 3B 30 FA FF 0F 00 80 01 00 FF FF 87 84 FF FF 01 00 05 00 F0 FF
DPCM : FF 09 F0 FF 3F 00 2A 00 00 FC FF 7B 00 FF FF 07 A0 02 00 80 FF FF 0F C0 FF FF 01 29 00 00 F0 FF
DPCM : FF 01 F0 FF 3F A8 00 00 00 FF FF 1B 00 FC FF 27 15 00 00 F0 FF FF 03 80 FF 9F 85 0A 00 80 FF FF
DPCM : 1F 00 F0 BE B5 B0 00 C0 F4 FF FF 01 00 BC 77 85 0A 84 1F FF FF 1F 00 00 7D 53 90 60 F1 E3 FD FF
DPCM : 01 00 50 FF 20 84 16 7F FC FF 1F 00 00 F5 0F 22 B0 E1 CF EF FF 01 00 30 FF 01 02 1A F6 FC FF 1F
DPCM : 00 00 EB 1F 40 E0 E1 97 FF F7 03 00 C0 FE 03 00 BC FC F3 FF 37 00 00 EC 3D 00 81 4B 7F FF FF 07
DPCM : 00 80 79 0D 00 B0 EA FF FF BF 00 00 50 FF 00 01 8F FF FE FF 0F 00 00 E6 1F 30 E0 D1 F7 FF FF 01
DPCM : 00 00 DB 81 01 1F FE FE FF 3F 00 00 C0 7F 18 F0 E0 D7 FF FF 03 00 00 FC 43 07 2F 7A FC FF 5F 00
DPCM : 00 80 2F 3A B2 8B 95 FF DF 0F 00 00 F0 43 4F 77 49 F9 FF F7 01 00 00 3E EC EC 2F 94 FE FF 3F 00
DPCM : 00 C0 C6 DA FF 03 D1 FF 7D 07 00 00 A8 B8 FA FE 21 F8 FF FF 00 00 00 C2 E5 FF 7F 04 FE FE 0F 00
DPCM : 00 40 70 FA 7F 7F C0 FF FF 00 00 80 02 14 FF FF 1F 77 FF 01 00 C0 4B 00 E0 FF FF 67 DF 0F 00 00
DPCM : FC 09 00 F0 FF FF FD 77 00 00 E0 FF 02 00 F8 FD FF BF 06 00 00 F6 37 00 00 FF FF B7 4A 01 00 E0
DPCM : FF 01 00 F8 FF FF 3F 14 00 00 FE 3F 00 80 7F FF FD 85 00 00 F0 FF 03 00 F0 FF F7 5F 01 00 38 FF
DPCM : 29 00 10 FF FF FF 0A 00 C0 E7 1F 04 00 F5 FF FF 87 03 00 FC FB 01 00 D0 BF BF 3F 38 00 80 FF 3F
DPCM : 00 00 FC FF EF 0F 06 00 E8 FF 07 00 80 FF 7F FD 60 00 D0 FD 3F 00 00 F8 FF 87 1F 0C 80 FE FE 01
DPCM : 00 80 FF FF B0 03 03 B8 FF 1F 00 00 F8 FF 0F 1F 30 A0 FF FF 01 00 00 FF FD C0 43 82 FA FF 3F 00
DPCM : 00 F0 FF 0D 68 05 AD FE FD 03 00 00 FF 9F 80 3A E0 D3 F7 3F 00 00 F0 FF 03 90 17 FC FC FF 03 00
DPCM : 00 FF 3F 80 D0 87 BF FF 7F 00 00 E0 FF 07 00 BC FC FB FF 07 00 00 EE 5F 00 C0 9F F7 F7 2F 00 00
DPCM : E0 FF 07 00 FC EF FF FF 03 00 00 7C 7F 00 62 FF FF 9F 0E 00 00 C0 FF 1F 20 68 BB FF D3 00 00 00
DPCM : F8 FF 0F 44 F9 FF 7F 00 00 00 40 FF FF 17 84 FF FF 07 00 00 00 F0 FF FE 21 F8 DF 7F 00 00 00 00
DPCM : FF FF 1E 0A FF F7 03 00 38 00 80 FF FF C3 E1 FF 7F 00 00 0B 00 F0 FF 3F 7C F8 FF 07 00 78 00 00
DPCM : FC FF C7 87 FF 7F 00 02 0F 00 80 FF FF F8 F8 FF 07 40 F0 00 00 F0 FB 1F 1F FF 7F 00 06 0F 00 00
DPCM : F6 FF B3 F1 5F 0F E0 F0 00 00 C0 FF 3F 3F FE E3 00 3E 17 00 00 F8 FF E7 C3 3F 0E E8 CF 00 00 00
DPCM : FF FF 5F F8 A3 81 FF 08 00 00 F0 FF FF 85 9F 1A F4 1F 01 00 00 FE FF 5F F0 D3 A2 FD 03 00 00 E0
DPCM : FF FF 05 7E 2E F9 1F 00 00 00 FC FF 7B E0 6B 53 FF 05 00 00 80 FF FF 07 7C DD BC 5F 00 00 00 F8
DPCM : FF 3F 81 DF B1 FB 0A 00 00 00 FF FF 07 FA 3E 7B 5D 00 00 00 F0 FF 7F A0 FD CB AD 0B 00 00 00 FF
DPCM : FF 0F 52 FF BC 72 01 00 00 F0 FF FF A0 F9 CF 46 37 00 00 00 FB FF 0F 9C FE B8 E8 0F 00 00 A0 FF
DPCM : 7F E0 E9 0F 16 EF 01 00 00 FF FF 03 BC DA C0 ED 7F 00 00 E0 FF 1D 80 97 07 FE FF 07 00 00 FE DF
DPCM : 00 FC 5C C1 FF 7F 00 00 C0 FF 19 40 5F 0B FE FF 07 00 00 FE 1F 01 BE 5B E0 FF 7F 01 00 E0 FF 20
DPCM : C0 3F 05 FE FF 47 00 00 FC 1F 04 BE 3D E0 DF FF 04 00 C0 FF 82 E0 D7 09 F8 7D 4F 01 00 F8 1F 20
DPCM : 7B 77 60 F7 FF 51 00 00 7E 83 DA D7 03 5C 5F DF 05 00 C0 BA E8 BE 7A 80 E9 FF EF 00 00 90 AD BE
DPCM : 4F 07 30 FB FF 1E 00 00 E0 EB 7F 69 00 8B FF FF 03 00 00 F8 FF 9F 0C 40 F1 DF 7F 00 00 00 FF FF
DPCM : 0F 01 28 FE FF 0F 00 00 E0 FF FF 03 80 E2 FF FF 01 00 00 FC FF 7D 00 40 FC FF 7F 00 00 80 FF FF
DPCM : 07 00 C0 FF FF 0F 00 00 70 FF FF 01 00 F8 FF FF 01 00 00 FE FF 1F 00 80 FB FF 3F 00 00 C0 FF FF
DPCM : 01 00 F4 FB FF 07 00 00 FC FF 3D 00 00 AF EF FF 00 00 80 FF FF 03 04 78 F5 FF 07 00 00 F0 FF 7F
DPCM : E0 81 8F FA 6B 00 00 00 FF FF 1B 3E 7D 82 B4 08 00 00 FE FF BF C0 DF 1F 00 00 48 00 E8 DF FF 77
DPCM : F0 DF 0F 00 00 40 00 7C FF 7B 0F FE FF 01 00 00 20 C1 FB DF E3 C3 DF 3F 00 00 00 0E F8 FF 3F 7C
DPCM : 74 FF 07 00 00 E0 00 FF FF E1 E5 FF 3E 00 00 00 1F F0 FC 1F 7F FE DD 0F 00 00 F0 03 0B FF F0 EF
DPCM : 57 FB 00 00 80 6E C0 E0 DF DF ED FB 0F 00 00 5C 04 D6 67 72 F4 FF DF 00 00 40 57 40 D3 5D EF FA
DPCM : 5D 0F 00 00 FC 09 10 EC F7 DD 7D FF 00 00 80 DF 00 44 FF 75 DB DF 0F 00 00 7C 0F 00 D8 BF EF FB
DPCM : 5D 00 00 80 FF 03 00 FF BE FD 79 07 00 00 7C 13 00 E0 FE FF FF FF 00 00 C0 DD 02 00 7C FF FF FB
DPCM : 1F 00 00 FC 3F 00 80 FD FF FD 6D 01 00 80 F5 06 00 F8 FB BD FF 1F 00 00 F8 7F 00 00 7F FF FF 79
DPCM : 03 00 00 BD 0F 00 F0 FB FF FF 7D 00 00 E0 FB 00 80 F7 FE FF FB 03 00 00 FE 03 00 ED BF DF 6F FB
DPCM : 00 00 40 7D 00 C0 BF F7 F3 FF 0D 00 00 FA 05 00 FC FE BF FF 77 00 00 F0 AA 00 00 4F F7 FF F7 01
DPCM : 00 00 FB 05 00 70 FF FF 7D 19 00 00 F0 1F 00 00 FF EF FF EF 02 00 80 FE 00 00 F0 FB FD FF 3A 00
DPCM : 00 D8 0F 01 00 FF BF FF 9F 02 00 50 FF 10 00 E0 FF FF FF B8 00 00 FA 07 02 00 F6 FF FD 4F 11 00
DPCM : A0 9F 00 00 F0 FF 7F DD 38 01 00 D5 0F 00 80 FF DE AD 0B 0F 00 B8 EE 00 00 F8 DF FF F4 F4 00 80
DPCM : EB 0F 00 80 FD FF 1F 4F 26 00 AC 7F 00 00 FC FF FF E0 D9 03 00 FB 01 00 E0 FF FF 07 7E 2F 00 A0
DPCM : 7F 00 00 FE FF 7F E0 F7 03 00 78 07 00 F0 DF FF 05 FC 7F 00 00 7E 00 80 FF FF 1F C0 FF 1F 00 C0
DPCM : 07 00 F8 FF BF 02 FC FF 03 00 B8 10 40 FF FF 33 C0 FF 3F 00 80 23 01 FC FF 1F 02 FC FF 07 00 70
DPCM : 0A A0 FF FF 41 C0 FF DF 00 00 6C 02 50 FF 1F 00 FC DF 1F 00 40 1F 20 FE FF 01 C0 FF FF 01 00 F8
DPCM : 03 C1 FF 7F 00 F0 FE 1F 00 00 FF 10 F8 FF 07 00 FE FF 03 00 F0 93 00 FF FF 01 C0 FF 3F 00 80 FF
DPCM : 00 E0 FF 7F 00 FC FF 00 00 FC 37 00 F4 FF 3F 40 FE 03 00 F0 DF 02 00 FE FF 07 7E 7D 00 00 FE 3F
DPCM : 00 80 BB 7F 93 DF 06 00 E0 FF 07 00 F0 FF D7 BA 1F 00 00 FE 7F 00 00 FE FF 6B EF 01 00 C0 FF 07
DPCM : 00 E0 FF EF E9 1F 00 00 F4 FB 00 00 EE FF 5F FD 00 00 00 EF 4F 00 80 DF FF F4 AB 02 00 F8 DF 02
DPCM : 00 F0 EF 5F 3E BC 00 00 7F 2F 00 80 FF 7F 65 8B 07 00 F8 BF 03 00 F8 FF A7 A5 D8 00 B0 7F 39 00
DPCM : 88 D9 13 A9 89 0B 94 D8 83 09 40 98 FD 01 0B 74 62
DPCMDEF  38  2145 "choir aahAflathigh"
DPCM : FE 0F E0 FE EB 02 22 8A 2F B6 00 00 F0 AF FF 04 80 D4 EF 3F 00 00 E0 FB FF 03 00 F4 FE 7F 00 00
DPCM : A0 FF FF 03 00 48 FF FB 01 00 E0 BF FF 00 00 3C FF FF 01 00 C0 FF FF 00 00 7E FF FF 00 00 C0 FF
DPCM : 7F 00 84 3F FF 7F 00 00 E0 FF 3F 00 60 7F BF 1C 00 00 F8 FF 1F 00 7C FD BF 0A 00 00 FC EF 0F 00
DPCM : F9 FF 7A 00 00 00 FF FF 23 C0 FE FF 78 00 00 80 FF BF 50 C0 FF 7F 38 00 00 C4 FF 7F 60 E0 FF 1F
DPCM : 3C 00 00 C9 DF 3F 30 F8 FF 0B 16 60 00 E5 EB 0F 1C FE D7 83 22 52 40 EA D8 87 96 FF AF 41 61 49
DPCM : 02 3C F8 C3 E3 FF 43 22 F4 A8 01 2C F8 E1 63 FF 0F 08 F8 D3 01 00 FC F9 F1 FF 03 04 FC EB 01 00
DPCM : F8 F9 F9 F7 03 04 FE F5 00 00 F8 FC FD F3 03 00 FE 5F 00 00 FC FF FA F3 00 04 FF 17 00 00 FE FF
DPCM : 7F 71 00 82 FF 15 00 00 FE FF FF 48 00 D2 FF 03 00 10 FD FF BF 03 00 DD FF 01 00 08 FE FB FF 03
DPCM : 00 FC FF 00 00 14 BF F4 FF 07 00 FE FF 01 00 A0 1F FC FF 03 00 FF FF 03 00 C0 07 FC FF 07 00 FC
DPCM : FF 03 00 C0 07 DE FF 0B C0 FE FF 01 00 C0 07 D7 FF 1B 40 FE FF 01 00 C0 43 77 FF 07 70 FC FF 01
DPCM : 00 C0 53 EB F7 0B 2C FE 7F 00 00 E0 A5 F6 EB 07 1F FE 1F 00 00 E0 4B FF F4 07 3F FE 5A 00 00 E0
DPCM : 95 FE F9 87 1F 77 38 00 00 A1 A7 FF F0 C7 9F 1F 0C 00 34 E0 E2 FF F8 E3 9F 0F 10 40 1A E0 E8 FF
DPCM : F0 F3 FF 0B 00 40 0B 50 F4 FF F8 F1 FF 03 00 A0 07 20 FD FF F0 F1 FF 13 00 80 07 20 FE F7 E0 F9
DPCM : FF 13 00 C0 05 00 FF FF E0 F1 FF 0F 00 A0 02 80 FF FF B0 F8 FF 0F 00 60 00 C0 FF FF 28 F8 FF 1F
DPCM : 00 10 00 C0 FF FF 0B F8 FF 0F 80 12 00 C0 FF FF 03 F8 FF 0F 80 02 00 80 FF FF 07 F0 FF 3F 90 02
DPCM : 00 80 FF FF 07 C0 FF 7F A8 00 00 80 FF FF 03 C0 FF 7F 52 01 00 C0 FF FF 03 80 DF 6F 81 02 00 E0
DPCM : FF FF 03 80 FF B6 C8 00 C0 F4 FF FF 00 00 7F 57 A1 40 F8 F1 DF 7F 00 00 F6 57 90 10 F8 F1 FF 7F
DPCM : 00 00 F5 47 04 5C F8 F1 FD 3F 00 00 CD 47 08 6C F8 F9 FF 3F 00 80 FA 07 00 3A FC F9 FF 1F 00 80
DPCM : FA 07 00 3C DE F9 FF 1F 00 80 F6 07 00 3C FD FD FF 0F 00 80 7C 03 00 3C FF FD FF 0F 00 00 FD 03
DPCM : 08 3C FE FF FF 07 00 80 FA 07 00 3C FF FD FF 0F 00 00 F9 07 02 1E FD FF FF 07 00 00 FC 07 03 1E
DPCM : 7E FE FF 07 00 00 FC 43 03 1D 3F FF DF 07 00 00 F8 A3 83 27 37 FF FF 07 00 00 F8 63 C9 4D 95 FF
DPCM : FF 07 00 00 58 E1 49 2F 29 FF FF 0D 00 00 F0 D8 F9 8F 48 FD 7F 0F 00 00 70 AC FD 5F 10 FF FF 1F
DPCM : 00 00 20 BC FE 7F 08 FE FF 0F 00 00 20 9C FE FF 03 FE FD 0F 00 00 00 9C FE FF 07 FC FF 0D 00 00
DPCM : 08 10 FF EB 3F FE 7F 00 00 70 02 00 FC FF FF 7F 3B 00 00 FC 09 00 50 FF FF FF 1D 00 00 FE 07 00
DPCM : E0 F7 FF F7 06 00 00 FD 0D 00 E0 FD FF BF 14 00 00 FF 0F 00 E0 FF FF 3F 04 00 C0 DF 07 00 F0 FF
DPCM : FF 1F 02 00 E0 FF 03 00 F8 FF FF 57 00 00 D3 BF 02 00 FC 7F FF AB 00 80 E7 1F 00 40 FD FF FD 38
DPCM : 00 C0 FF 0F 00 80 FE FF 7F 38 00 C0 FF 0F 00 80 FD FF 3F 30 00 F0 FB 07 00 80 FF 7F 7F 30 00 F0
DPCM : DE 07 00 C0 EF 1D 3F 38 00 FA FF 03 00 C0 FF 1F 7E 30 80 FF FF 00 00 C0 FF 1F 3E 30 E0 FF 7F 00
DPCM : 00 E0 FF 0F 3C 24 E8 FF 7F 00 00 F0 EF 05 5C 41 EB FF 7F 00 00 F0 7F 0A E8 82 CF FF 7F 00 00 F0
DPCM : FF 00 E4 85 9F FF 3F 00 00 F8 7F 80 D0 83 9F FF 1F 00 00 FC 7F 00 A0 C7 BF FF 0F 00 00 FC 7F 00
DPCM : E0 C7 FF FF 0F 00 00 DC 3F 00 B0 FF FF 77 07 00 00 FE 1F 00 F1 FF FF D3 00 00 00 FE 3F 00 A9 FF
DPCM : FD D3 00 00 00 FE FB 01 A4 FF FF 83 00 00 00 BE FF 17 84 FF FF 01 00 00 00 FA FF 3F C0 FF FA 01
DPCM : 00 00 00 FF FF 8F C2 FF FF 00 00 03 00 7C FF 8F 85 FF 7F 00 C0 01 00 FC FF C7 87 FD 3F 00 C1 01
DPCM : 00 F8 FF 8F C7 FF 1F 80 E0 01 00 F0 FF C7 8F FF 1F 80 E0 01 00 F0 FF CF C7 FF 0F C0 F0 00 00 F0
DPCM : FF C7 C7 FF 0E 70 78 00 00 E0 FF EF C7 3F 07 F8 31 00 00 F0 FF F7 C3 3F 06 CC 19 00 00 F0 FF EF
DPCM : C3 1F 15 FE 09 00 00 F0 FF FF C2 8F 83 FE 03 00 00 F0 FF FF C0 AF 85 F7 03 00 00 F0 FF FF C0 D7
DPCM : C9 FF 04 00 00 F0 FF DF C0 D7 65 FF 00 00 00 F8 FF 3F E0 DB E9 FB 00 00 00 F8 FF 1F B0 BD D5 5F
DPCM : 01 00 00 F8 FF 1F B0 7F F6 7A 00 00 00 FC FF 0F B4 7F 76 5D 02 00 00 FC FD 0F AC 7F 5E BA 00 00
DPCM : 00 FC FF 0F CE BF 26 7C 00 00 00 FF BF 07 CE 3F 1C FD 01 00 00 FF FF 01 D7 1F 2C FD 03 00 80 FF
DPCM : FF 00 A7 1F 38 FF 03 00 80 FF 3F 00 AF 07 FC FF 03 00 C0 FF 1B 40 AF 0B FE FF 03 00 80 FF 2D 80
DPCM : AD 06 FF FF 01 00 E0 FF 04 F0 BB 82 BF FF 01 00 E0 7F 0C F0 BB C0 FF FF 00 00 E0 7F 08 F8 77 E0
DPCM : EF 7F 02 00 E0 7F 00 FD 5E E0 EF 7F 02 00 F0 1F 90 BE 3D 70 FB BF 02 00 F0 3B D0 BE 1E B0 FE 7F
DPCM : 03 00 60 5D 34 5F 0F 30 FD FF 07 00 00 5D E9 9F 0E 50 FE FF 07 00 00 7C FD 4F 0D 50 9C FF 0F 00
DPCM : 00 F0 FF 3F 06 20 FC FF 1F 00 00 F0 FF BF 08 40 FC FF 1F 00 00 E0 FF FF 02 00 FE FF 1F 00 00 E0
DPCM : FF FF 00 20 FC FF 3F 00 00 E0 FF FF 01 00 FC FF 77 00 00 E0 FF FF 01 00 F8 FF 7F 00 00 E0 FF 7F
DPCM : 00 00 FE FF 7F 00 00 E0 FF 7F 00 00 EE FE FF 00 00 C0 BF FB 00 00 DE FF 7F 00 00 E0 DF FE 80 00
DPCM : AF FE 3F 00 00 E0 FF FF C0 C1 4B DB 0D 00 00 D0 FF FF F0 E5 43 64 11 00 00 FA FF F6 C1 FF 17 00
DPCM : 00 00 40 FB FF FB E0 FF 1F 00 00 00 80 FB FF FF C1 BF 3F 00 00 00 80 FF EF E7 E3 DA 1B 00 00 80
DPCM : 01 BF FF E3 E3 FF 1F 00 00 C0 01 7B DF E1 E3 FF 1E 00 00 E0 01 47 FF BA F9 FF 0E 00 00 F0 81 C7
DPCM : 3F FE FC 7F 07 00 00 BC 80 C3 BF 7A FF FB 07 00 00 4E 41 FB DF D3 FF BE 03 00 00 4E 01 D3 BB EB
DPCM : FF DF 01 00 80 9F 00 85 FF DF 3F BF 01 00 80 7F 01 E0 FD EF BF FD 00 00 C0 BF 00 C0 ED FE 7F BF
DPCM : 00 00 E0 7F 00 C0 FF 1F FF 7F 00 00 F0 7F 00 C0 FF BB FE 7F 00 00 F0 1F 00 C0 3D F6 FF 3F 00 00
DPCM : F8 1F 00 E0 F7 FD FF 1F 00 00 B8 3F 00 E0 74 EB FF 3F 00 00 BC 1F 00 80 F3 F7 BF 3A 00 00 F0 1B
DPCM : 00 B0 F7 FF E3 1B 00 00 FC 0E 00 F0 EF FF FF 1F 00 00 FC 07 00 FC EF 9F FF 1F 00 00 FE 03 00 F7
DPCM : BF CD E6 0B 00 00 7F 05 00 FE CF DF BF 07 00 80 B7 00 00 FF FD FF E9 00 00 C0 9F 02 00 DE BF BF
DPCM : 2F 01 00 E0 9F 00 00 E9 DE BF 5E 00 00 B0 1F 00 80 FF F7 EF 77 00 00 D8 87 00 80 FE FF 6E 5B 00
DPCM : 00 BA 8B 00 C0 FF EF EF 42 00 00 FD 41 00 E0 FF FF 7F 39 00 40 FF 00 00 F0 BF FF 7F 3C 00 A0 FE
DPCM : 00 00 F8 FF FF 1F 36 00 58 FF 00 00 FC FF 3F 9E 1E 00 58 7F 00 00 FE FF 3F 1E 17 00 D6 1F 00 80
DPCM : FF FF 0F 4F 07 00 DA 1F 00 C0 FF FF 03 BF 17 00 B0 0F 00 E0 FF FF 03 BF 0F 00 F0 07 00 F8 FF FF
DPCM : 80 FF 0F 00 E0 07 00 F8 FF 7F 80 FF 0F 00 F0 01 00 FF FE 57 C0 FF 1F 00 60 05 80 FF FF 59 C0 FF
DPCM : 1F 00 60 22 C0 FE FF 11 E0 FF 3F 00 C0 24 C0 FF BF 00 F0 FF 1F 00 60 0B 60 FF 7F 10 F0 FD 3F 00
DPCM : 80 0F 10 FF 7F 00 F8 FF 1F 00 C0 1F 08 FF 7F 00 B0 FF 1F 00 C0 1F 02 EF 7B 00 F8 FF 0F 00 C0 47
DPCM : 01 FF F7 00 E0 FF 07 00 F8 0F 00 FF FF 03 F0 FF 01 00 FC 1B 00 FE FF 07 98 7F 00 00 FF 07 00 F4
DPCM : FF 1F 7C 3E 00 80 FF 07 00 70 BF 5F FC 16 00 C0 BF 0F 00 F0 FF 6B BB 0F 00 C0 7F 07 00 F0 FF 97
DPCM : DF 0B 00 C0 FB 03 00 D8 FF 3F FD 03 00 C0 FF 07 00 F0 7F 3F FB 09 00 C0 FF 07 00 70 FF AF 7D 15
DPCM : 00 E0 FF 05 00 F0 FF 2F 3F 1D 00 E0 FF 05 00 F8 BF AB 1A 1E 00 F8 9F 03 00 FC FF B3 26 0F 00 FE
DPCM : CB 01 10 FE FE D4 42 0F 48 FE A1 01 2C FE 7F 58 A1 13 55 55 55 55 55 55 55 55 55 55 55 44 55 54
DPCM : 55
DPCMDEF  39  2017 "choirAhigh"
DPCM : FF 0D D0 7D 7D 10 A1 B8 57 0B 00 80 FF F5 07 20 D4 FF 3D 00 00 F8 7F 3F 00 40 FF DF 03 00 80 FE
DPCM : F7 03 00 DC FF 7D 00 00 F8 7F 1F 00 E0 FA DF 03 00 C0 FF FF 00 00 DF FF 1F 00 00 FC FF 03 10 FE
DPCM : FC 7F 00 00 F0 FF 1F 00 DA FF CF 01 00 80 FF FF 00 B8 FC 7F 0A 00 00 FC FF 0B C0 DB BF 07 00 00
DPCM : F8 FF A7 80 FE 7F 3C 00 00 E0 FF 1F 06 FC FF A3 03 00 00 FF 7F 70 60 FF 1F 0E 00 40 F8 FF 03 C1
DPCM : FF BF 50 80 01 E4 EB 0F 16 FE FF A0 08 09 A4 96 3F 58 FE BF 06 91 45 01 3C F8 F1 F8 FF 91 40 8F
DPCM : 16 C0 C0 8F C7 FF 1F 08 FC F1 00 00 7E 3E FE 7F 40 E0 9F 0E 00 E0 F3 FB EF 03 04 FE 3D 00 00 CF
DPCM : DF 3F 1F 20 F0 DF 01 00 F8 FF FE 78 00 C1 FF 03 00 C0 FF FF C7 01 08 FE 1F 00 00 FE 7F 7D 12 80
DPCM : FC 3F 00 00 D1 FF FF 0F 00 EC FF 01 00 04 FF FF 7F 00 C0 FF 0F 00 40 FC F2 FF 0F 00 FE FF 00 00
DPCM : E0 43 FF FF 00 E0 FF 0F 00 80 1F F8 FF 07 80 FF FB 00 00 F8 C0 FD BF 00 EA FF 07 00 C0 07 D7 FF
DPCM : 07 50 FF 7F 00 00 38 5C FF 77 80 FC FF 01 00 C0 53 BD EF 03 C7 FF 07 00 00 9E DA EF 0F 3C FC 7F
DPCM : 00 00 E0 C2 3F 7F F0 E3 AF 01 00 80 57 FE F1 8F 1F 3F 1A 00 00 7C DC 1F 7F FE F8 41 00 D0 80 E3
DPCM : FF F8 E3 EF 07 00 A0 0A 2C FE 8F 1F FF 1F 00 40 0D 10 F4 DF F8 FC EF 00 00 78 00 D2 FF 87 CF FF
DPCM : 0F 00 C0 05 80 FD 7F 78 FE FF 00 00 1C 00 FC FF C3 D1 FF 1F 00 60 00 E0 FF 3F 8C FE FF 00 80 02
DPCM : 00 FF FF 31 F8 FF 0F 00 14 00 F0 FF BF 80 FF 7F 00 0A 00 80 FF FF 07 F8 FF 07 A8 00 00 F8 FF 3F
DPCM : 80 FF 7F 50 02 00 80 FF FF 01 F4 FF 8F 0A 00 00 FC FF 1F 00 FF 7F 52 01 00 E0 FF FF 00 F0 FF 16
DPCM : 0A 00 80 FF FF 07 00 FF B7 A8 00 20 FD FF 1F 00 F0 77 85 02 E1 C7 FF FF 00 00 FE 15 24 14 3F FE
DPCM : FF 07 00 D0 1F 11 68 F1 F3 FF 1F 00 40 FF 10 00 87 3F FF FF 01 00 EA 0D 08 78 FC F9 FF 0F 00 A0
DPCM : FE 00 C0 E3 EF FF 7F 00 00 FA 07 00 3C FF FE FF 03 00 A0 5F 00 E0 FC F7 FF 1F 00 00 F9 03 04 CE
DPCM : 7F FF FF 00 00 A8 3F 20 70 BC 77 FF 0F 00 80 FC 81 01 E7 DF FF 7F 00 00 E0 1F 04 7A FC FE FF 03
DPCM : 00 00 FF 30 D0 F1 EB FF 3F 00 00 F0 87 83 27 8F FF FF 03 00 00 3F 16 BD 58 FD FF 1F 00 00 F0 E1
DPCM : E9 47 CA FF FF 01 00 00 8F CE 7B 50 FC FF 1F 00 00 30 D6 FD 07 C2 FF FF 01 00 00 E2 FA FF 01 EE
DPCM : FF 0F 00 00 00 97 FF 7F E0 FF 5F 00 00 00 10 FD DF 05 FE DF 03 00 00 04 D0 FF 7F F5 FF 03 00 60
DPCM : 05 00 FC FF F7 FF 0F 00 80 5F 00 80 FE 7F EF 3F 00 00 FC 07 00 F0 FD F4 FF 00 00 E0 FF 00 00 FF
DPCM : 7F FF 09 00 80 FF 03 00 F8 FF F7 8F 00 00 FC 3F 00 C0 FF DF 3F 04 00 E0 EF 01 00 FE FF F7 02 00
DPCM : 98 7F 15 00 F0 FF FF 57 00 C0 FD 03 00 E8 FD FF C7 01 00 FF 1F 00 00 F7 FF 1F 0E 00 F8 FF 00 00
DPCM : FC BF FF 01 00 E0 FF 07 00 E0 FF AF 1F 06 00 FF 3F 00 00 DE 7F FE 20 00 FD FF 01 00 F0 FF C7 07
DPCM : 02 DC FF 07 00 80 ED 3F 1E 18 E0 FF 3F 00 00 F8 FF E0 21 41 FF FF 01 00 E0 FF 0B AC 90 F5 FF 1F
DPCM : 00 00 FE 57 40 17 9E FE FF 00 00 F8 7F 00 DA F0 E3 FF 07 00 C0 FF 03 80 0F FF FF 1F 00 00 FC 3F
DPCM : 00 E8 FC FB FF 00 00 E0 FF 00 C0 DF DF FF 03 00 80 FF 07 00 FE FF FF 1F 00 00 FC 1F 00 E9 FF FF
DPCM : 6D 00 00 C0 F7 07 40 FD FF 9F 01 00 00 FE FE 00 8A BF FF 10 00 00 E0 FF 3F 08 FD FF 07 00 00 00
DPCM : FF FF 27 F0 FB 3F 00 00 00 F0 FF 3F 85 FF FF 00 80 01 00 FE FF E3 F8 FF 07 00 0C 00 F0 FF 8F 87
DPCM : FF 3F 00 70 00 00 FE FF 78 EC FF 01 04 07 00 E0 FF CF C7 FF 0F 00 3C 00 00 BF 7F 3E FE 3F 80 E1
DPCM : 01 00 E0 FF F7 E1 FF 01 1C 0F 00 00 FF 3F 1F FF 0E F0 71 00 00 F0 FF FB F8 E3 80 3F 03 00 80 FF
DPCM : BF C3 1F 07 FE 05 00 00 FC FF 1F FC AC F0 2F 00 00 E0 FF DF C1 CF C2 FF 00 00 00 FE FF 07 BE 4E
DPCM : FE 07 00 00 F0 FF 6F E0 DB F4 7E 00 00 80 FF BF 01 DF D5 F7 01 00 00 FC FF 07 F8 BB EE 0B 00 00
DPCM : C0 FF 7F 60 FF BC 5D 01 00 00 FE FF 03 F6 CF AB 0B 00 00 F0 FF 1F 58 7F AF 5C 00 00 80 FF FF 60
DPCM : F5 77 E1 03 00 00 FC FF 07 A7 9F 8E 2F 00 00 E0 FF 1F B8 7E 70 FA 0D 00 00 FF 7F 80 F3 03 EF 7F
DPCM : 00 00 F8 FF 01 3C 1E F8 FF 07 00 C0 FF 0D E0 F5 C0 FF 3F 00 00 FE 67 00 5F 0B FF FF 00 00 F0 3F
DPCM : 05 7C 17 F8 FF 0F 00 80 FF 11 E0 5F C1 FF 3F 01 00 F8 0F 81 DF 03 7F FF 13 00 C0 3F 08 7E 3C F0
DPCM : FF 4F 01 00 FE 02 F2 DD 81 F7 F7 04 00 F0 2E 68 DF 0E D8 FF 77 00 00 CA A2 F7 3A 60 F6 FF 07 00
DPCM : 80 AE FE D3 01 D2 FF 7F 00 00 E0 FB 5F 16 20 FD FF 07 00 00 FC 7F AB 00 C8 FF 7F 00 00 E0 FF 7F
DPCM : 04 20 FE DF 07 00 00 FE FF 0F 00 F0 FF 7F 00 00 E0 FD F7 00 00 FF FF 07 00 00 FE 7D 07 00 F8 FF
DPCM : 7F 00 00 F0 FF 7F 00 80 FF FF 07 00 00 FF FF 01 00 FC DF 7F 00 00 B0 BF 1F 00 C0 FF FF 07 00 80
DPCM : FF FF 00 00 CC FF 3F 00 00 F8 DF 0F 04 5C FD FF 00 00 C0 7F 7F E0 E0 A9 BF 05 00 00 FE FF 87 4F
DPCM : 2F C8 22 00 00 FC FF FF F0 3F 03 00 00 00 F8 F6 FF 87 7F 3F 00 00 00 80 7F FF 77 F8 FF 02 00 00
DPCM : 00 FC FF 9B C5 FF 3F 00 00 00 80 FF 3F 3C FE DF 01 00 00 06 DE FF E3 DB 7F 0F 00 00 38 E0 F9 8F
DPCM : DD FF 3F 00 00 C0 83 C7 3F 7F BE FF 01 00 00 1F 30 FC EB FF FB 0F 00 00 4C 42 F6 DF F4 DB 7F 00
DPCM : 00 F0 04 30 FF AB EF FF 07 00 80 4F 80 F8 FE DB FD 1F 00 00 FC 03 80 FF FF 7F BF 00 00 A0 5F 00
DPCM : F0 FF F7 FF 03 00 00 FF 01 40 DF 7E F7 3F 00 00 F4 07 00 FC FF BF DF 01 00 60 7F 00 C0 FF FF BF
DPCM : 0F 00 00 EB 02 00 FE FB FF 67 00 00 F8 1F 00 C0 F7 FF FF 06 00 80 FF 01 00 3F FF EF 3F 00 00 FC
DPCM : 0F 00 B0 D7 FF F7 01 00 E0 31 00 E0 CF FF FF 0F 00 00 BF 01 80 FF F5 FD FF 00 00 F0 0B 00 FE DF
DPCM : 7F F7 07 00 C0 AF 00 E0 EF B7 FF 3F 00 00 5F 01 00 F7 BF FD 3E 00 00 F8 0B 00 F0 FF FF FF 00 00
DPCM : 80 97 00 80 EF 7F FF 15 00 00 3D 04 00 EE FF DF 77 00 00 F8 23 00 D0 FF FF BE 05 00 E0 1F 04 80
DPCM : DF FF 3F 1C 00 40 7F 00 00 FC FD BF EF 02 00 DC 02 00 E0 FF FF 3F 1C 00 E8 1F 00 80 5F FF 77 E8
DPCM : 00 60 FD 01 00 FC FB 9F A7 0B 00 B5 07 00 F0 DF 7F 7C 5C 00 D4 17 00 80 FF FF E3 F3 01 80 FD 00
DPCM : 00 7F FF 0F BE 17 00 F0 06 00 F8 BD 3F F0 FF 00 80 1F 00 E0 FF FF 81 FF 07 00 F8 00 00 FF FF 0F
DPCM : FC 7F 00 80 07 00 FC FF 1F E0 FD 07 00 3C 08 F0 FF 9F 01 FD 3F 00 C0 21 C0 FF 7F 18 F8 FF 03 00
DPCM : 4C 02 EC FF 23 C0 FF 3F 00 40 13 A0 FF 1F 00 FE FF 07 00 3C 40 FC FF 00 F8 FF 1F 00 C0 07 C2 FF
DPCM : 0F 00 FF FF 00 80 37 08 FC FF 01 B0 FE 07 00 F8 11 E0 FF 4F 00 FF 17 00 F0 1F 00 FE FF 05 F0 FF
DPCM : 00 80 BF 01 E0 FF 3D 60 FF 01 00 BE 07 00 FC FF 0B BF 0F 00 F0 EF 00 80 FF 6F F4 37 00 80 FF 07
DPCM : 00 FC FF DA FD 00 00 FC 3F 00 C0 BD 5F DF 0B 00 C0 FF 01 00 FE FF D3 9F 00 00 FE 1D 00 E0 FF BE
DPCM : FE 00 00 B0 FF 00 00 FE FF FA 55 00 80 FF 07 00 C0 7F CF 0D 07 00 7C 5F 00 C0 FD AF 7A 38 00 E8
DPCM : BF 03 00 DE FF AC C9 01 E0 3F 1C 00 F0 FD 53 0B 07 08 FE 70 00 C3 9F 4F 14 5A 51 55 55 51 45 55
DPCM : 55
DPCMDEF  40  1905 "choir aahBflathigh"
DPCM : DF 0F 7C DF 1D 48 88 7D B5 00 00 FC DF 1F 00 D4 FF 37 00 00 FC FF 0F 00 F0 FF 3F 00 00 FE BD 07
DPCM : 00 58 FB 7F 00 00 BE FF 03 00 4E FF 1F 00 80 FB FF 01 00 D7 FF 0F 00 80 FF 7F 00 E0 F7 DF 02 00
DPCM : C0 FF 1F 00 FA F7 B7 00 00 E0 FF 0F 80 F7 BF 29 00 00 F8 FF 03 D0 FF EF 01 00 00 FF 7F 02 FA FF
DPCM : F1 00 00 C0 FF 1F 05 FE BF 70 00 00 F0 FF 07 83 FF 3F 1C 00 40 F8 FF C1 E0 FF 0F 16 10 40 BE 7E
DPCM : 70 F8 FF 89 88 88 A0 A6 0F 96 FF 6F 42 58 14 E0 E0 8F E3 FF 8B 08 9B 16 C0 E0 E3 F1 FF 03 03 3F
DPCM : 0F 00 F0 F9 F8 FF 40 C0 BF 07 00 F8 F8 FE FD 00 E0 DF 03 00 38 7F FF 3E 00 F8 F7 00 00 FC BF 3F
DPCM : 0F 00 FC 3F 00 00 FE FF 2F 03 08 FF 07 00 80 FF FF 1F 01 C8 FF 01 00 C8 FF FF 0F 00 DC FF 00 00
DPCM : E1 DF FF 0F 00 FE 3F 00 00 FA D1 FF 0F 00 BF 3F 00 00 3E F1 FF 07 80 FF 3F 00 00 1F F8 FF 23 C0
DPCM : FF 3F 00 00 0F DC FF 03 B0 FF 1F 00 80 07 D7 FF 03 E4 FF 0F 00 80 C3 ED FF 01 F1 FF 03 00 E0 E2
DPCM : F6 77 C0 F1 FF 01 00 60 AA BF 7D 78 F8 7F 00 00 E0 F2 0F 3F 7C FC 1B 00 00 78 F9 C7 1F 3F 7F 14
DPCM : 00 00 6E F6 E7 8F 9F 1F 02 00 03 8E FF F1 E7 EF 07 00 A0 01 93 FE F1 F3 FF 01 00 B4 00 D1 FF F9
DPCM : FC FF 00 00 1C 80 F4 FF F8 FC FF 00 00 1C 00 FE 7F 78 FE 7F 00 00 07 00 FF 7F 1C FD FF 00 80 01
DPCM : C0 FF 3F 8A FF 7F 00 40 00 E0 FF 9F 82 FF 7F 00 10 00 F0 FF 3F C0 FF 3F 00 03 00 F8 FF 1F C0 FF
DPCM : 3F A0 00 00 F8 BF 1F A0 FF 3F 24 00 00 F8 FF 0F D0 FF 3F 2A 00 00 FC FF 07 C0 FF 1B 15 00 00 FF
DPCM : FF 01 C0 FF 1F 0A 00 C0 FF FF 01 E0 7F 8D 04 00 F3 FF FF 00 C0 7E 85 02 E1 F3 FF 1F 00 E0 5F 81
DPCM : 60 F8 F1 FF 1F 00 D0 1F 21 58 F8 FD FF 07 00 F0 0F 02 38 7E FE FF 03 00 F2 0F 00 1E 7E FE FF 01
DPCM : 00 FA 03 02 8E BF FF 7F 00 00 F7 03 00 CF BF FF 3F 00 80 FE 01 80 F3 EF BF 1F 00 80 FE 01 80 F3
DPCM : FD FF 0F 00 80 FE 00 E0 F9 F7 FF 07 00 20 7F 60 E0 F8 FF FF 07 00 00 7F 10 78 FC FE FF 03 00 80
DPCM : 1F 0D 1C 7D F7 FF 01 00 C0 1F 0E 1E 8F FF FF 01 00 C0 A7 C3 85 D5 FF DF 00 00 C0 E3 E9 4B AA FF
DPCM : FF 00 00 E0 F0 FC 07 E9 FF 7F 00 00 20 D6 FD 0F E2 FF 7F 00 00 00 AE FF 1F E0 FF 3E 00 00 00 CB
DPCM : FF 3F F0 7F 17 00 00 00 D2 FF 7F F0 FF 0F 00 00 00 E8 FF FD F6 7F 00 00 2C 01 E0 FF FF FE 1F 00
DPCM : 00 3F 00 E0 F7 7F FF 07 00 C0 7F 00 C0 FF FF BF 01 00 F0 3F 00 C0 FF FF 5F 01 00 F8 1F 00 F0 FF
DPCM : FF 47 01 00 F4 0F 00 F8 FF FF 13 00 00 F7 07 00 FC FF FF 05 00 C8 BE 02 00 FF FF BF 02 00 E7 0F
DPCM : 01 C0 FF FF E7 00 80 FF 07 00 E0 FF FF E3 00 C0 FF 03 00 F0 FF FF 61 00 F0 FF 01 00 F8 FF FD 10
DPCM : 00 F8 FF 00 00 FE 7D 7E 10 80 FE 3F 00 00 FF 3F 3E 18 B0 FF 0F 00 00 FF 1F 0F 04 FC FF 07 00 C0
DPCM : FF 07 0F 81 FE FF 03 00 E0 FF 03 55 B0 FE FF 01 00 F0 BF 80 36 3C FF 7F 00 00 FC 1F 40 1E 7E DE
DPCM : 7F 00 00 FE 07 00 1F BF FF 1F 00 00 FF 07 00 1F FF FF 07 00 80 FF 03 80 9F FF FF 03 00 C0 FF 00
DPCM : C0 FF FF FF 00 00 E0 7F 00 B4 FF FF 37 00 00 F0 FF 00 E8 FF FF 0C 00 00 F8 FD 01 E4 FF 7F 08 00
DPCM : 00 FC FF 03 E1 FF 3F 00 00 00 FC FF 0F F8 FF 0F 00 00 00 FE FF 27 F9 FF 07 00 02 00 FE FF 69 FC
DPCM : FF 01 80 01 00 FE FF 3C FC 7F 00 C1 00 00 FF 7F 3C FE 5F 80 E0 00 00 FF 3F 1E FF 1F A0 38 00 00
DPCM : FF 1F 9F FF 0F 30 1C 00 00 FF DF C7 FF 03 1C 0E 00 80 BF EF E3 DF 01 9E 03 00 C0 FF F7 F1 A7 81
DPCM : 9F 01 00 E0 FF F7 F0 D3 E0 2F 00 00 F0 FF 3F F8 39 F8 0F 00 00 F8 FF 1B FC 16 FD 07 00 00 F8 FF
DPCM : 0F 3E 17 FF 03 00 00 FC FF 03 7E A7 FF 00 00 00 FE FF 81 EF E6 FB 00 00 00 FF 7F 81 EF 75 5F 00
DPCM : 00 80 FF 7F C0 5F DE 2E 00 00 C0 FF 3F B0 7F 5E 17 00 00 E0 FF 1F AC BF 97 0B 00 00 70 FF 0F EB
DPCM : CF A3 07 00 00 FC FF 83 F3 C7 D1 0F 00 00 FE FF 40 F5 C3 F4 0F 00 80 FF 3F 60 F9 E0 FD 07 00 C0
DPCM : FF 0F E0 3A F0 FF 07 00 E0 FF 02 F8 1E F8 FF 03 00 F0 BF 02 BC 06 FF FF 01 00 F8 4F 80 F7 02 FF
DPCM : FF 00 00 FE 23 C0 B7 82 FF BF 00 00 FE 21 F0 BB E0 FF 9F 00 00 FF 00 FC 1E F0 FF 2F 00 80 7F 40
DPCM : BE 0F BC FF 27 00 C0 5D B0 AF 07 EC FF 3B 00 00 5D F4 D7 03 D2 FF 1F 00 00 5D FD E7 00 D9 FF 1F
DPCM : 00 00 7C FF B3 00 F1 FF 1F 00 00 FC FF 63 00 68 FF 0F 00 00 FE FF 13 00 FC FD 0F 00 00 DE FF 07
DPCM : 00 F8 FF 0F 00 00 FF FF 03 00 AE FF 0F 00 00 FF FF 00 00 FE FF 07 00 80 FF FF 01 00 FF FF 07 00
DPCM : 80 FD FF 00 80 FF FF 03 00 C0 F7 3F 00 C0 FF FF 02 00 C0 FF 3D 00 A0 FF FF 01 00 E0 FE 1F 08 B8
DPCM : FA FD 00 00 F0 FF 0F 0E 1E FD 2D 00 00 F8 FF 0F 9F 0F 64 11 00 00 EF F9 8F DF 1F 00 00 00 C0 FB
DPCM : FF 8E FF 1F 00 00 00 E0 FF FF 87 7F 1E 00 00 00 F0 FD DF C7 EF 0F 00 00 00 F8 F7 CF D2 FF 07 00
DPCM : 00 0C 3C 7B F9 F9 7B 03 00 00 07 C6 FC 7C FF FF 00 00 80 03 C7 7F FF FF 7F 00 00 E0 00 E1 FF DF
DPCM : FF 1F 00 00 2C C1 E6 BF F4 DF 1F 00 00 AB 80 F9 5F DF FF 0E 00 80 25 40 FC FF FF 7E 02 00 C0 1F
DPCM : 00 DC FF FD EF 01 00 F0 07 00 BE FB FE 7F 00 00 F8 07 00 FE FF FF 3F 00 00 FC 07 00 8F F7 FF 1F
DPCM : 00 00 F7 01 80 FF FF EF 0F 00 80 F7 00 C0 D7 5F BF 07 00 C0 7F 00 E0 7B FF DF 03 00 E0 3F 00 F0
DPCM : FB BF FF 01 00 F0 1F 00 70 FF FD 7F 00 00 F8 07 00 FC FD FA 7B 00 00 FC 03 80 FE FF FF 3F 00 00
DPCM : FE 00 60 FF BF FF 1F 00 80 AD 00 E0 FF FF F5 0F 00 80 57 00 F0 FF 7F FF 00 00 F0 25 00 E0 FF FF
DPCM : 7F 00 00 FC 09 00 FC FF 7F 0B 00 00 FE 04 00 5A FF FF 1F 00 00 1F 02 80 FF FF DF 01 00 E0 1F 00
DPCM : C0 FD EF 1F 07 00 F0 07 00 E0 DF FF 3F 03 00 FC 01 00 F8 FF FF D7 01 40 FE 00 00 FE FF FF D1 00
DPCM : 60 7F 00 00 FE FF 7B 7A 00 D0 1B 00 C0 FF FF 7C 9C 00 B4 0F 00 E0 FF 7F 3E 1F 00 F4 03 00 FC FB
DPCM : 0F 9E 07 00 FC 01 00 FF FF 83 FF 07 00 7C 00 C0 FF FF 81 FF 07 00 3C 00 E0 FF FF C0 FF 03 00 1E
DPCM : 00 F8 FF 1F F0 FF 03 00 16 00 FE FF 0B F8 FF 01 00 A3 80 FF 7F 04 F0 FE 01 00 15 C0 FF 3F 02 FF
DPCM : FF 00 00 0B E0 FF 0F 81 FF 7F 00 C0 03 E8 FF 07 C0 FF 3F 00 E0 07 C2 FF 07 C0 FF 1F 00 F0 07 E1
DPCM : FF 07 C0 FF 0F 00 F8 12 70 FF 13 E0 FF 03 00 FE 01 F0 FF 07 F0 FF 00 80 FF 00 F0 FF 0F D8 1F 00
DPCM : F0 7F 00 A0 FF 0F BF 0F 00 F8 3F 00 F0 BF 1A 7F 03 00 FC 1B 00 F0 FF DB FE 00 00 FE 07 00 FC 7F
DPCM : F5 3D 00 00 FF 07 00 F4 7F F7 0F 00 80 FF 03 00 FE FF EB 07 00 C0 FF 03 00 FE FF FA 15 00 E0 FF
DPCM : 01 00 FF BC 7C 1E 00 70 7F 00 80 FF 1F 1F 1E 00 EC 31 00 E0 D9 D7 14 07 80 FB 0C 00 F0 DF D5 C2
DPCM : 03 A2 0F 03 30 BC FB 18 64 C8 15 55 50 11 55 51 55
DPCMDEF  41  1793 "choir aahBhigh"
DPCM : F9 0F FC F3 07 80 E2 77 07 00 E0 FE 1F 00 50 37 3B 00 00 FE F7 07 00 EA FF 01 00 F0 F3 1F 00 60
DPCM : FF 7F 00 00 FF FF 00 C0 F9 FF 01 00 F8 FF 07 00 DE DF 0F 00 C0 DF 1F 00 F8 FD 3F 00 00 F6 FF 00
DPCM : E8 FF 77 00 00 F0 FF 07 A0 FD BF 02 00 C0 FF 1F 80 FF EF 00 00 80 FF 9F 80 FE BF 0E 00 00 FC FF
DPCM : 04 F8 FF F1 00 00 F0 FF 61 E0 FF C7 03 00 C0 BE 0F 83 FF 3F 14 10 40 3E 3F 38 FE 7F 24 48 02 5A
DPCM : 7E 68 FC 9F 41 58 24 E0 E0 F3 F8 FF 44 D0 A9 02 02 9F 8F FF 0F 02 3F 0F 00 F8 7C 7E 3F 00 F8 7B
DPCM : 00 C0 E3 FB FF 01 80 DF 03 00 9C DF BF 0F 00 7F 0F 00 E0 FE FF 3C 00 F8 3F 00 00 EF FF D3 00 E0
DPCM : FF 01 00 F8 FF 7F 00 48 FF 07 00 C0 FF FF 07 80 FE 0F 00 00 FF FF 3F 00 F8 7F 00 00 FC F4 FF 01
DPCM : E0 FF 07 00 E0 C3 FF 1F 00 FF 3F 00 00 0E FE FF 00 F8 FF 03 00 78 70 FF 0F A0 FF 1F 00 C0 83 F5
DPCM : DF 00 F9 FF 01 00 1C D6 FF 07 C4 FF 07 00 E0 D4 FC 3E 30 FE 3F 00 00 A6 FE FE C0 F1 FF 00 00 D0
DPCM : F4 D7 0F 8F FF 03 00 80 A5 3F 7F 7E FC 38 00 00 1C FF 79 E3 F7 83 00 20 B0 F8 CF 9F BF 0F 00 A0
DPCM : 02 E3 7F FC FC 7F 00 00 0B 10 FF E7 E7 FF 03 00 18 80 FC 7F 3C FF 17 00 C0 01 E0 FF E3 F9 FF 01
DPCM : 00 06 00 FF 1F C7 FF 0F 00 18 00 FC FF 38 FE FF 00 40 00 E0 F7 AF E0 FF 0F 00 01 00 F7 FF 03 FF
DPCM : 7F 00 02 00 F8 FF 1F F0 FF 03 2A 00 80 FF 7F 80 FF 7F 90 00 00 FC FF 03 F0 FF A7 02 00 E0 FF 1F
DPCM : 00 FD BF 14 00 00 FF FF 00 F8 FF 91 00 00 FC FF 0F 80 FF 2D 0C 00 F2 EF 7F 00 F0 6D 28 10 9E FF
DPCM : FF 01 00 7F 41 42 F1 F9 FF 07 00 F4 07 01 C5 CF FF 3F 00 C0 3F 00 38 7E FE FF 01 80 FC 01 E0 F1
DPCM : F3 FF 0F 00 E8 0F 00 8E BF FF 3F 00 60 7F 00 E0 FC FD FF 01 00 FA 07 00 F2 FF DF 0F 00 80 3F 00
DPCM : 38 FF FF 7F 00 00 FA 81 C0 F9 F7 FF 07 00 C0 17 04 8E FF FF 3F 00 00 FC 10 78 FC FE FF 01 00 E0
DPCM : C7 C0 D1 DF FF 0F 00 00 1F 0E 1E 8F FF FF 00 00 F8 38 F4 54 FD FF 07 00 80 47 AB 4F EA BF 3F 00
DPCM : 00 38 B6 FE 90 FE FF 03 00 80 D8 DE 0F E8 FF 3F 00 00 80 FB BF 80 FF FF 00 00 00 CC FE 3F F0 FF
DPCM : 0F 00 00 00 FD FF 87 FD 3F 00 00 00 E0 BF FF FE 3F 00 80 0A 00 FC FF FF FF 00 00 FC 00 80 FF FF
DPCM : FF 03 00 F0 0F 00 F8 EF EF 1F 00 80 FF 00 80 FF FF 5F 00 00 FE 07 00 FC FF FF 04 00 F0 3F 00 F0
DPCM : FF FF 23 00 C0 FF 00 80 7F 7F 1F 00 20 BF 0A 00 FE EF BF 02 80 F8 03 00 F4 FF FF 0E 00 BC 1F 00
DPCM : C0 FF FF 51 00 F0 FF 00 00 FE FB 0F 03 80 FF 07 00 F0 FF 7F 18 00 FE 3F 00 C0 FF E7 C3 00 F8 7F
DPCM : 00 00 FE 3F 3F 08 F0 FF 03 00 F0 5F E1 10 E0 FF 1F 00 80 FF 07 27 82 FF F7 00 00 FC 3F 60 41 EB
DPCM : FF 07 00 F0 7F 02 2E 3C FF 3F 00 00 FF 03 E0 E1 FB FF 01 00 F8 1F 00 1F BF FF 07 00 E0 FF 00 F0
DPCM : F9 FF 3F 00 00 FF 03 80 CF FF FF 00 00 F8 1F 00 FC FF FF 07 00 C0 7F 00 F0 FF FF 0F 00 00 FC 1F
DPCM : 80 FE FF 37 00 00 E0 FF 41 E4 7F 3F 02 00 00 FF 7F 10 FF FF 00 00 00 F8 FF 0F F8 FB 07 00 00 C0
DPCM : FF 7F C2 FF 3F 00 08 00 F8 FF 73 FC FF 00 60 00 C0 DF CF E3 FF 07 00 07 00 FC 7F 3C FB 3F 00 38
DPCM : 00 E0 FF E3 F9 FF 00 C2 00 00 FE 3F 8F FF 0F 08 07 00 E0 FF 7D FC 3F 20 38 00 00 FF EB E3 D7 80
DPCM : CF 00 00 F8 7F 1F 7F 06 FC 06 00 80 F7 FF F0 33 F0 0F 00 00 BC FF 87 5F 85 7F 00 00 E0 FF 3F 7C
DPCM : 16 7B 03 00 00 FF FF E0 73 BA 1F 00 00 F8 FF 0B 5E A7 FF 00 00 C0 FF 2F F0 9E F7 03 00 00 FE 7F
DPCM : 81 6F F6 17 00 00 F0 FF 07 F8 E7 BB 00 00 80 FF 3F 70 BF DB 05 00 00 7C FF C1 FE 7A 31 00 00 E0
DPCM : FF 0F ED CF E3 01 00 80 FF 3F 38 3F 1B 3F 00 00 FC FF 81 F5 E1 FC 03 00 F0 FF 03 D6 03 DE 3F 00
DPCM : 80 FF 0F E0 3A F8 DF 01 00 FC 6F 00 EF C2 FF 1F 00 C0 3F 03 BC 06 FF 7F 00 00 BF 09 F8 2E F8 FF
DPCM : 03 00 F8 47 C0 BF E0 FF 2F 00 80 7F 00 BF 0B FF 7F 02 00 FC 01 FC 1E F8 FF 0B 00 F0 13 E0 FB C0
DPCM : FB BF 00 00 6F D0 AF 07 EC FF 0F 00 C0 45 7F 16 30 FF 7F 00 00 5C FD E7 00 F9 FF 07 00 80 F7 3F
DPCM : 0B 10 FF 7F 00 00 F8 FF 57 00 F8 FF 03 00 80 FF 7F 01 C0 FF 7F 00 00 FC FF 07 00 FC FB 03 00 C0
DPCM : FF 7F 00 E0 FF 3F 00 00 FE FF 01 00 FF FF 03 00 F0 FF 1F 00 F8 FF 0F 00 00 FF 7F 00 C0 FF FF 00
DPCM : 00 F8 FF 07 00 FC FF 0F 00 80 FF 3F 00 70 FF FF 00 00 FC DF 81 C0 F2 FF 03 00 E0 FF 0E 06 4F 7F
DPCM : 05 00 00 FF FF F0 7A 84 45 00 00 EE FF 8F FF 0F 00 00 00 F8 FF FF D8 FF 00 00 00 C0 FF FF C6 FF
DPCM : 07 00 00 00 FE FF 2D FA 7F 00 00 00 70 FF CF F3 BF 03 00 00 81 F9 3F DF BE 1F 00 00 0C 9C FF FC
DPCM : FE DF 00 00 E0 C0 F8 F7 FF DF 03 00 80 03 C2 FB FF DF 17 00 00 12 2C FF CF D7 FF 00 00 58 01 F3
DPCM : FB DE FF 03 00 E0 09 90 FF 97 FF 1D 00 00 3F 00 B8 DF FF 7B 00 00 C8 03 80 DF FF FF 03 00 E0 1F
DPCM : 00 CC FF 37 1F 00 00 FF 00 C0 FF FF FF 00 00 FC 01 00 FF FF FF 07 00 60 3F 00 F0 BE 7F 3F 00 00
DPCM : BF 01 40 F3 FF FF 03 00 F0 0F 00 FC EF FF 0B 00 C0 3F 00 30 FF FF 77 00 00 FE 01 80 BF FB FF 03
DPCM : 00 F0 07 00 DE FF EE 1F 00 80 1F 00 F8 FF FF 7F 01 00 BC 02 C0 FF FB FF 07 00 F0 0A 00 FE FF BF
DPCM : 0F 00 C0 8F 00 A0 FF FF 7F 00 00 7E 02 80 EE DE FF 01 00 F8 09 00 DC EF FF 0F 00 80 8B 00 E0 FB
DPCM : FF 7F 00 00 7F 00 00 BF FF BF 07 00 F8 01 00 DC FF FD 3B 00 E0 07 00 E0 FF FF F7 00 00 3F 00 80
DPCM : FF FF 9F 0D 00 F5 03 00 FC FF 7F 3A 00 D4 0F 00 F0 FF DF C7 01 50 7E 00 80 FF 7F 7C 0F 00 EE 01
DPCM : 00 FF FF F1 7B 00 E0 0F 00 F8 FF 0F BF 07 00 7E 00 E0 FF 3F F8 3F 00 F0 01 80 DF FF C0 FF 03 00
DPCM : 07 00 FE FF 07 FE 1F 00 28 00 F8 FF 1F F0 FE 01 80 21 E0 FF 8F C0 7F 1F 00 48 00 FF 5F 02 FE F7
DPCM : 00 C0 02 F8 FF 03 F0 FF 0F 00 1C 90 FF 1F 80 FF 3F 00 F0 81 F0 FF 01 F8 FF 01 80 1F 84 FF 0F C0
DPCM : FF 0F 00 7C 04 F8 BE 04 FC 3F 00 F0 07 C0 FF 1F C0 FF 00 C0 7F 00 FC FF 81 FD 01 80 FF 01 C0 FF
DPCM : 1F BE 0F 00 F8 1F 00 FC 3F F1 37 00 C0 FF 00 E0 FB DB FE 00 00 FE 03 00 F6 FF FD 0B 00 F0 1E 00
DPCM : D0 FF DE 1F 00 80 EF 03 00 FF 7F FF 00 00 F8 1F 00 F8 F7 FB 15 00 E0 FD 00 80 FF 4F D7 01 00 DF
DPCM : 02 00 EE FF 3A 16 00 FC 37 00 F8 7F 2C 71 00 F8 D7 00 60 DD 57 41 02 E2 05 06 00 6D 5F 25 54 14
DPCM : 55
DPCMDEF  42  1697 "choir aahChigh"
DPCM : DF 07 5E FF 03 20 DE B7 00 00 F6 3B 03 40 77 7F 00 00 FE F7 01 80 7D BF 00 00 7F FF 00 40 FC FF
DPCM : 00 00 FE 7F 00 70 FE 3F 00 80 FF 3F 00 78 FF 1F 00 80 FF 1F 00 7E FF 0F 00 C0 FF 07 20 FF BF 01
DPCM : 00 E0 FF 03 78 FF AF 00 00 F8 FF 01 F8 FF 0E 00 00 DC BF 80 FE 3F 0F 00 00 DF 8F 81 FF 9F 03 00
DPCM : C0 FF C3 C0 BF CF 01 00 E0 FF C3 F0 FF 43 01 01 F8 FC 70 FC 7F 48 88 80 9A 3D 9A FD 1F 84 46 02
DPCM : 0E 1B E7 FF 23 D0 A9 02 82 CF E3 FF 83 E0 F3 00 C0 E3 FB 7F 00 F8 7B 00 C0 F1 FB 7F 00 F8 3F 00
DPCM : C0 FC FF 1E 00 FE 1D 00 E0 FF 7E 1E 00 FE 06 00 F0 FF 3F 03 80 FF 03 00 F0 F7 FF 00 E8 7F 00 00
DPCM : FC FF 3F 00 F4 3F 00 00 FE FF 1F 00 FE 1F 00 80 1F FF 1F 00 FE 3F 00 C0 83 FF 9F 00 FF 1F 00 C0
DPCM : 83 FF 1F 80 FF 1F 00 E0 C1 FD 1F A0 FF 0F 00 E0 70 FD 1F 90 FF 0F 00 70 D8 FE 0F C8 FF 03 00 38
DPCM : D5 FF 03 C7 FF 03 00 80 FA FB 83 E3 FF 00 00 B0 FC F5 E3 E3 5F 00 00 38 FE FA F9 F1 19 00 00 9E
DPCM : FE FC FC 7D 08 00 02 CB 7F 7E FE 3E 00 80 01 E3 7F 3E FF 1F 00 A0 00 F1 7F BE FF 07 00 28 80 F4
DPCM : 7F DE FF 07 00 18 00 FE 1F DF DF 07 00 18 00 FF 1F C7 FF 0F 00 04 80 FF 8F E5 FF 07 00 01 C0 FF
DPCM : CF F0 FF 07 00 00 E0 FF 3F F0 FF 07 40 00 E0 FF 1F F0 FF 03 0A 00 E0 FF 1F E0 FF 47 02 00 E0 FF
DPCM : 0F F0 EF A7 02 00 E0 FF 07 E0 FF 4F 01 00 F8 FF 03 F0 FF 91 00 00 FE FF 03 F0 DF C1 00 80 FF FF
DPCM : 03 C0 5F 21 10 9F FF 7B 00 C0 5F 20 84 CF FF 3F 00 D0 4F 08 C6 CF FF 1F 00 F0 07 02 C7 E7 FF 0F
DPCM : 00 F2 07 80 E3 F7 FF 07 00 FA 03 C0 F0 FB FF 03 00 FA 03 C0 F1 FF FF 01 00 FE 01 C0 FC FF FF 00
DPCM : 00 FD 01 60 FC FF FF 00 00 FE 00 70 FC FF 7F 00 80 FC 20 70 FE FF 7F 00 00 7E 10 38 BF FF 3F 00
DPCM : 00 7E 0C 1C BF FF 3F 00 00 1F 0E 47 E7 FF 3F 00 00 8F C6 8B F5 EF 1F 00 00 87 E7 87 F2 FF 1F 00
DPCM : 00 A3 EB 0F F1 FF 0F 00 80 D8 FE 47 F8 FF 0F 00 00 B0 FE 1F F8 FF 07 00 00 28 FB 7F F0 FF 07 00
DPCM : 00 C0 FF 7F F0 FF 03 00 00 80 FF FF FE 3F 00 80 02 00 FF FF FF 1F 00 E0 03 00 FF FF DF 07 00 F8
DPCM : 05 00 FE FF FF 01 00 FC 07 00 FE FF 5F 01 00 FE 03 00 FF FF 4F 01 00 FF 01 80 FF FF 0F 00 C0 FF
DPCM : 00 C0 DF BF 07 00 E0 BF 00 E0 FF FF 03 00 F7 03 00 FC FF BF 03 80 FF 01 00 FC FF CF 01 C0 FF 01
DPCM : 00 FE FF C7 01 E0 FF 00 00 FF DF E3 00 F0 7F 00 80 FF F7 C3 00 FC 3D 00 C0 FF F3 41 C0 FF 0F 00
DPCM : 60 FF F1 20 E0 FF 0F 00 F0 7F F0 20 F8 FF 07 00 F8 5F 60 05 FB DF 03 00 F8 2F E0 C2 F3 FF 01 00
DPCM : FC 0F 60 E1 FB FF 00 00 FE 03 F0 F1 FF 3F 00 00 FF 03 C0 F3 FF 3F 00 80 FF 00 E0 FB FF 0F 00 C0
DPCM : 7F 00 F0 FF FF 07 00 E0 1F 00 FA FF FF 01 00 C0 7F 00 F4 FF 7F 00 00 F0 FF 00 F4 FF 4F 00 00 F0
DPCM : FF 03 FC FF 03 00 00 F8 FF 07 FC FF 03 00 00 F8 FF 13 FE FF 00 10 00 F8 FF 39 FE 7F 00 10 00 F8
DPCM : FF 3A FE 3F 00 0E 00 F8 7F 3E FF 1F 00 06 00 F8 7F 9E FF 0F 80 07 00 FC 3F 9E FF 07 84 03 00 FC
DPCM : 3F CF FF 01 C6 01 00 FC BE E5 EF 80 67 00 00 FE DF E3 E7 C0 37 00 00 FE FF E1 73 F0 27 00 00 FF
DPCM : 7F F0 2B FC 03 00 80 FF 7F F8 2C F6 03 00 80 FF 3F F8 4E FF 01 00 C0 FF 1B BC 4E FF 00 00 E0 FF
DPCM : 07 FC AB 7F 00 00 E0 FF 03 DF EB 3D 00 00 F0 FF 09 FD BD 1D 00 00 F8 FF 81 F7 BC 4E 00 00 FC FF
DPCM : 40 FF 2E 07 00 00 FE FF 60 7F 87 0F 00 00 FF 3F 98 9F 8D 1F 00 00 FF 1F AC 0F E7 1F 00 C0 FF 07
DPCM : CC 07 EF 1F 00 E0 FF 01 CE C1 FF 0F 00 F0 DF 00 DE C1 FF 0F 00 F0 6F 80 D7 E0 FF 07 00 F8 33 E0
DPCM : 5D F0 7F 03 00 FC 13 F0 17 FC BF 01 00 FC 11 BC 17 FE 7F 01 00 FE 00 DF 0B FE 7F 01 00 3F 40 FF
DPCM : 81 F7 FF 00 00 37 D8 F7 80 F9 FF 01 00 38 FA EB 40 FE FF 00 00 AC FE 75 80 FE FF 00 00 B8 FF 59
DPCM : 00 FE FF 00 00 F8 FF 0B 40 FE FF 00 00 F8 FF 13 00 FF FF 00 00 F8 FF 23 00 FF FF 00 00 F8 FF 03
DPCM : 00 FF FF 00 00 FC FF 03 80 FF BF 00 00 FC FD 01 80 FF FF 00 00 FE FE 00 C0 FF 7F 00 00 FE FF 00
DPCM : C0 FF 7F 00 00 FE 7F 00 D0 FD 3F 00 00 FF 7F 10 58 FB 1F 00 00 FF 39 0C 9E FE 06 00 80 FF 3F DE
DPCM : 07 32 02 00 B0 FF 3F EF 16 00 00 00 F8 FF 3F FF 1F 00 00 00 F8 BF 3F AF 1F 00 00 00 FE FF 9C FF
DPCM : 0F 00 00 00 FF 3F 9E FF 07 00 00 03 FF 9F EF FB 07 00 80 C0 F9 EF FB FF 03 00 C0 E0 F8 B3 FF FF
DPCM : 00 00 70 40 D8 FF FD 7B 00 00 48 B0 FF 8D BF 3F 00 00 16 30 FF EF FF 1F 00 00 0B 10 FE FF FB 1F
DPCM : 00 80 0B 00 FF FE FF 07 00 C0 0F 00 FF FB FD 02 00 F0 07 00 DF FF FF 01 00 F8 07 00 FF FF FF 00
DPCM : 00 FC 03 80 FE FF 67 00 00 FE 01 C0 FB FF 7F 00 00 6F 00 C0 FF 7F 3D 00 00 7F 00 F0 DD FF 3F 00
DPCM : 80 37 00 F0 FF FF 1F 00 C0 1F 00 F8 FF FF 0F 00 E0 07 00 FF FD FF 0F 00 E0 0B 00 FE 7B BF 05 00
DPCM : B8 02 C0 FF FB FF 01 00 BC 02 C0 FF FF 7F 00 00 3E 01 E0 FF FF 37 00 80 4F 00 F0 FF FD 1F 00 C0
DPCM : 0F 00 F8 FF FF 0F 00 E0 46 00 F8 FF FF 07 00 F8 01 00 FC FA FF 07 00 FC 00 00 FF FF FF 01 00 7E
DPCM : 00 80 FF FF BF 03 00 3F 00 C0 FF FF D7 01 A0 1F 00 F0 FF DF 73 00 68 0F 00 F8 FF E7 B9 00 D8 07
DPCM : 00 FC FF F9 3D 00 F8 01 00 DF FF F8 2F 00 F8 00 C0 FF 7F F8 1F 00 78 00 E0 FF 1F FC 3F 00 38 00
DPCM : B8 FF 0F FE 0F 00 1E 00 FC FF 03 FF 0F 00 0C 00 FF FF 81 FF 0F 00 42 40 FE DF C0 FF 0F 00 48 C0
DPCM : FC 4F E0 FE 0F 00 24 E0 FF 23 F0 FF 0F 00 06 E0 FF 03 F8 FF 03 80 0F E0 FF 03 F0 FF 03 80 0D E0
DPCM : FF 03 F8 FF 00 C0 27 E0 FF 0B F8 7F 00 70 07 E0 FE 07 F8 1F 00 FC 03 E0 FF 07 FD 06 00 FE 01 E0
DPCM : FF 87 DF 03 00 FF 00 C0 EF 8F 7F 00 C0 FF 00 E0 FF 6D 3F 00 A0 7F 00 E0 FF EF 1F 00 E0 3B 00 E0
DPCM : F7 EF 0F 00 E0 3F 00 F0 FE FF 07 00 A0 1D 00 F0 FF FF 0A 00 F8 1F 00 F8 FF 7E 0E 00 FC 0F 00 FC
DPCM : 7B 1E 0E 00 FE 05 00 FF AB 8D 07 80 BF 02 80 FF AF 85 03 A1 07 03 84 7F B3 90 A2 40 15 55 51 15
DPCM : 55
DPCMDEF  43  1601 "choir aahDflathigh"
DPCM : FD 05 FB FD 40 A0 DD 0D 00 F0 DF 0F 00 DD BF 00 00 7F 7F 00 C0 FE 1F 00 F0 FF 07 00 F4 FF 02 00
DPCM : FE FF 00 10 FF 1F 00 F0 FF 05 80 F3 FF 00 00 FF 3F 00 7C FF 03 00 F0 FF 01 D8 FF 1F 00 00 FF 07
DPCM : E0 FD BF 00 00 DC 7F 00 FE FF 01 00 E0 FF 09 F8 FF 1C 00 00 FF C7 C1 FF E7 00 00 F0 7F 0C FE 3F
DPCM : 07 00 C0 FF 61 D8 FF 51 40 00 BE 1F 86 FF 8F 08 01 6A 7E 98 FF 1F 84 45 02 C3 E7 F8 7F 01 9D 06
DPCM : 08 3E CF FF 83 C0 77 00 E0 F3 FC 3F 00 BF 0E 00 9C EF FF 01 F0 77 00 C0 FC 7F 1F 00 FF 03 00 FC
DPCM : FF 73 00 F8 1F 00 C0 FF 5F 03 C0 FF 00 00 FE FF 0F 00 FF 07 00 F0 FF 3F 00 FC 3F 00 00 FF FF 03
DPCM : C0 FF 03 00 F8 FC 7F 00 FE 1F 00 C0 C3 FF 27 E0 FF 03 00 1C FC 7F 00 FE 3F 00 E0 A1 FF 0F E0 FF
DPCM : 03 00 0E F6 FF 00 FE 3F 00 60 58 DF 0F E4 FF 01 00 8C FB 3F 30 FF 0F 00 40 EA EF 87 E3 7F 00 00
DPCM : 2C 7F 3F 3C FF 01 00 E0 F8 E7 F3 F3 39 00 00 C6 3F 3F BF 0F 01 00 B0 FC F3 FB 7B 00 80 81 E2 3F
DPCM : BF FF 07 00 08 10 FF F3 FD 7F 00 40 00 F4 5F DE FF 07 00 04 80 FF E7 FD 7F 00 40 00 FC 3F CE FF
DPCM : 07 00 02 E0 FF 33 FE 7F 00 10 00 FE BF E0 FF 07 40 00 F0 FF 0F FC 7F 00 05 00 FE FF C0 FF 0F 08
DPCM : 00 E0 FF 07 FA FF 92 00 00 FE 7F 00 FF BF 02 00 E0 FF 07 F0 FF 53 00 00 FF 3F 00 FF 1F 06 00 F8
DPCM : FF 03 F0 DF 22 00 F0 FF 3F 00 FC 15 02 F8 FE FF 04 80 5F 20 84 CF FF 1F 00 F4 43 60 7C FE FF 00
DPCM : C0 1F 00 C7 E7 FF 07 80 FA 01 70 FC FE 7F 00 E0 0F 00 E3 F7 FF 06 00 FD 00 E0 7E FF 3F 00 E0 0F
DPCM : 00 F3 FF FF 03 00 FC 00 30 FF FF 1F 00 E0 0F 80 E3 FF FF 01 00 FC 20 70 FE FF 1F 00 C0 0F 81 F3
DPCM : FB FF 01 00 FC 10 1C DF FF 1F 00 80 8F E1 F1 FC FF 03 00 78 0C 2F E5 FF 3F 00 80 E1 F9 A0 FE DF
DPCM : 01 00 10 CF 3F E4 FF 1F 00 00 D8 FE 07 FE FF 01 00 00 EB FF C1 FE 1F 00 00 20 FF 7F FC FF 01 00
DPCM : 00 E0 FF 8F FF 1F 00 00 00 FE FF FF 3F 00 80 00 E0 FF FF FF 01 00 0F 00 FC FF FF 07 00 FC 01 80
DPCM : FF FF 3F 00 C0 3E 00 F8 FF 7F 01 00 FE 01 80 FF FF 17 00 F0 1F 00 FC FF 3F 00 00 FF 01 C0 FF DF
DPCM : 03 00 FC 0B 00 FE FF 3F 00 D8 0F 00 F0 FF FF 01 E0 FB 00 00 FF FF 1D 00 FE 07 00 F8 FF 8F 03 E0
DPCM : 7F 00 C0 FF FF 08 00 FF 07 00 FC DF 0F 01 FC 1F 00 E0 FF 78 18 F0 FF 01 00 FE 8F 87 80 FF 1F 00
DPCM : E0 FF 38 08 FE FF 00 00 FF 07 16 AC FF 0F 00 F8 2F E0 C2 FD 7F 00 80 FF 00 1E BE FF 07 00 FC 07
DPCM : C0 F3 FB 7F 00 C0 7F 00 38 FF FF 01 00 FC 07 C0 FB FF 1F 00 C0 3F 00 FC FF 7F 00 00 FE 01 60 FF
DPCM : FF 07 00 E0 3B 00 FD DF 1F 00 00 FE 0F C0 FF 1F 01 00 E0 FF 03 FC FF 03 00 00 FE 7F C0 FF 1F 00
DPCM : 00 E0 FF 97 FC FF 00 00 00 FE 7F C5 FF 07 C0 00 E0 FD 73 FC 3F 20 0C 00 FC 9F C7 FF 03 C1 00 C0
DPCM : FF 73 FC 1F 10 07 00 FC 9F E7 FF 80 E1 00 80 FF 79 FE 0F 18 07 00 F8 DF E7 6F C0 2B 00 80 FF 3F
DPCM : 7E 05 FE 00 00 FC BF E3 73 F0 07 00 C0 FF 1F 1E 87 3F 00 00 FC FF E1 33 F6 03 00 C0 FF 1F 9E E3
DPCM : 3F 00 00 FC 7D E0 3B EF 03 00 E0 FF 05 7E EB 0F 00 00 FE 3F F0 AF FB 00 00 E0 FF 03 FF 7A 0F 00
DPCM : 00 FF 1F F0 6F 9B 00 00 F0 FF 41 FD 2F 07 00 00 FF 1F E6 7F F8 00 00 F8 FF 60 7E 8E 1F 00 C0 FF
DPCM : 03 EB 63 FE 01 00 FC 3F 30 1F F6 1F 00 E0 DF 00 D7 E1 FF 03 00 FE 0D 70 0F FE 3F 00 E0 6F 80 B7
DPCM : F8 FF 01 00 FE 04 F6 81 FF 17 00 F0 27 F0 17 FC FF 01 00 3F 04 FF C0 FF 1F 00 F0 03 F8 0F FE 7F
DPCM : 01 80 2F C0 7F E0 FF 17 00 68 03 FD 06 D6 FF 03 00 2C FA 3D A0 FF 3F 00 00 EB 5F 03 F2 FF 03 00
DPCM : F0 FE 13 20 FE 7F 00 00 FF BF 00 F0 F7 07 00 E0 FF 0F 00 FF 7F 00 00 FE FF 00 F0 FF 07 00 E0 FF
DPCM : 0F 00 FF FF 00 00 DE 7F 00 F0 FF 0F 00 E0 FF 07 00 FE FF 01 00 FE 7F 00 F0 FF 1F 00 E0 FF 07 00
DPCM : FE FF 01 00 FE 3F 00 F0 FF 0F 00 E0 FF 07 81 F5 7F 00 00 FE 7F 0C AE FE 01 00 F0 F7 E3 F3 A0 20
DPCM : 00 80 FF FF FE 1F 00 00 00 FC BF CF FF 03 00 00 C0 7F FD FC 3F 00 00 00 FE FF CF FF 03 00 00 E0
DPCM : FF 7B FE 1F 00 00 00 FF 9B EF FF 01 00 20 30 FB FD 7E 1F 00 00 02 F1 EF F7 FF 00 00 38 10 DF FF
DPCM : FF 07 00 00 C1 FE 3F FF 7F 00 00 0A 98 FF EF FF 07 00 70 00 78 FF FF 3B 00 00 1F 00 FE FF DF 01
DPCM : 00 78 02 F0 FE FF 1F 00 C0 0F 00 FD FF FF 00 00 FE 00 E0 FF BF 0F 00 F0 07 00 FF FF 7F 00 00 7F
DPCM : 00 20 FE FF 07 00 F8 07 80 F7 FB 7F 00 80 1B 00 F0 7F FF 07 00 F8 03 00 FE FF 3F 00 80 3F 00 FC
DPCM : FF 7F 03 00 F8 01 C0 7F FF 3F 00 C0 07 00 FF FF FF 03 00 5C 00 E8 DF FF 0F 00 70 05 00 FF FB FF
DPCM : 00 00 9F 00 F0 FF FF 07 00 F8 02 80 FF FF 7F 00 C0 47 00 F8 FF FF 03 00 3E 02 C0 FF FF 3F 00 F0
DPCM : 03 00 FA FF FF 01 00 1F 00 E0 FF FF 1F 00 F8 01 00 FF FF DF 01 C0 0F 00 F8 FF 7F 0E 00 FD 00 C0
DPCM : FF BF EB 00 D0 07 00 FE FF 3D 07 40 3F 00 F0 FE E7 7B 00 F0 01 80 FF 7F FC 07 00 1F 00 F8 FF E3
DPCM : 7F 00 F8 00 C0 FF 1F FE 0F 00 07 00 FF 7F F0 7F 00 70 00 F8 FF 07 FE 0F 00 05 C0 BF 3F F0 FF 00
DPCM : 10 02 FE BF 82 FF 0F 00 04 F0 FF 0B FC FF 00 C0 00 FF 1F C1 F7 0F 00 0E E0 FF 01 FE 7F 00 F0 20
DPCM : FC 1F C0 FF 0F 00 8F E0 EF 01 FC 3F 00 F8 04 FE 3F 80 FF 03 C0 0F C0 FF 0F F8 0F 00 DF 01 F8 FF
DPCM : 60 3F 00 F8 0F 80 FF 0F FF 03 80 7F 00 70 FF F1 0F 00 F8 0F 00 FB DF 7E 00 C0 7F 00 E0 FF FF 03
DPCM : 00 FC 07 00 FE 3F 3F 00 C0 7F 00 F0 FD EF 03 00 FC 07 00 FF FF 57 00 C0 7F 00 F0 FA 7D 07 00 BA
DPCM : 02 80 FE AF A3 00 F0 37 00 E8 3F 1B 06 C0 DA 01 E0 BF B5 70 20 7E 18 20 BF 8B 89 45 41 15 55 51
DPCM : 55
DPCMDEF  44  1505 "choirDhigh"
DPCM : FD 86 EF 3B 10 E6 D7 00 00 EF 7E 00 D0 EE 03 00 FE 7F 00 E0 FF 07 00 7E 7F 00 C0 BF 0B 00 FC F7
DPCM : 00 20 FF 0F 00 F8 FF 01 70 FF 0E 00 F8 FF 00 F0 FF 0F 00 F0 77 00 FA FF 07 00 F0 7F 00 7E FF 02
DPCM : 00 F8 7F 00 DF FF 00 00 F8 BF 80 7F EF 00 00 F8 1F 81 FF EF 00 00 F8 1F C3 FF C7 01 00 F8 1F C3
DPCM : FF 47 01 00 BE 17 C5 FF 23 42 80 96 8F F9 FF 41 14 01 8E C7 F9 7F 02 97 0A 80 CF F3 7F 08 7C 07
DPCM : 00 CF FB 7F 00 FC 0E 00 8E FF 7F 00 FC 07 00 EC F7 7F 00 FC 07 00 DC FF 33 00 FC 07 00 FC FF 37
DPCM : 00 FE 07 00 F8 FF 0F 00 FF 07 00 F8 FF 0F 80 FD 03 00 F8 FF 1F 80 FF 03 00 7C FC 3F 00 FF 0F 00
DPCM : 38 FC 7F 00 FF 0F 00 3C F8 7F 00 F7 1F 00 38 D8 FF 01 FE 3F 00 30 D8 FF 03 FC 3F 00 20 DC FF 81
DPCM : FC 3F 00 A0 54 FF 83 F8 3F 00 40 EA EF C3 F9 1F 00 00 F3 F7 E3 F9 1B 00 00 E5 EF E7 F3 19 00 00
DPCM : EB EF E7 F7 10 00 82 F2 CF F7 FF 00 00 82 E2 BF EF FF 00 80 02 F0 BF CF FF 01 80 01 F0 7F DE FF
DPCM : 03 00 01 F0 7F DE FF 03 00 01 F0 7F 1E FF 0F 00 01 F0 FF 8C FF 0F 00 01 E0 FF 0D FF 1F 00 00 F0
DPCM : FF 07 FE 3F 20 00 E0 FF 0F FC 7F A0 00 80 FF 0F F8 FF 24 00 80 FF 0F F0 FF 2B 00 80 FF 0F E0 FF
DPCM : 53 00 80 FF 0F C0 FF A3 00 80 FF 3F 80 7F A3 00 C0 FF 7F 00 FA 86 00 9F FF 3F 00 F8 05 50 DC FF
DPCM : 1F 00 FC 01 58 3E FF 3B 00 F0 03 70 7C FF 3F 00 F0 03 E0 7C FF 3F 00 E8 07 C0 FC FE 7F 00 F0 07
DPCM : 80 FC FF 3F 00 E0 0F 80 FC FF 7F 00 C0 0F 80 F9 FF 7F 00 80 1F 80 F1 FF FF 00 80 1F 00 E7 FF FF
DPCM : 00 00 3F 04 E3 FF FF 01 00 3E 04 C7 FF FF 01 00 3C 86 C7 F3 FF 03 00 3C 0E 4F D5 FF 07 00 30 AE
DPCM : 4F F2 FF 0F 00 20 D6 3F E4 FF 0F 00 00 F6 7F E0 FF 1F 00 00 A8 EF 83 FF 3F 00 00 C0 FF 0F FF 3F
DPCM : 00 00 80 FF 3F FE 3F 00 00 00 FF FF FF 0F 00 20 00 FC FF FF 07 00 3E 00 F8 FF FB 07 00 3E 00 E0
DPCM : FF FF 07 00 FE 00 E0 FF FF 05 00 FE 00 C0 FF FF 05 00 FE 01 C0 FF FF 01 00 FE 01 C0 FF FF 03 00
DPCM : FE 02 C0 FF FF 01 60 3F 00 E0 FF FF 03 C0 7F 00 80 FF 7F 03 E0 7F 00 C0 FF 3F 07 C0 FF 00 C0 FF
DPCM : 3D 06 E0 3F 00 C0 FF 7D 04 E0 FF 00 C0 FF 79 0C E8 FF 00 C0 FF 71 08 FC FF 00 80 FF E1 00 FE FF
DPCM : 00 80 FF 41 05 FB FF 00 80 FF 80 8E F3 FF 01 80 7F 00 1E EF FF 01 80 FF 00 1C FF FF 01 00 FF 00
DPCM : 38 FF FF 01 00 FF 00 F0 FF FF 00 00 FF 00 F0 FF FF 00 00 FE 00 F8 FF FF 00 00 FC 03 F0 FF 7F 00
DPCM : 00 FC 0F C0 FF 5F 00 00 F8 7F C0 FF 1F 00 00 F8 FF 81 FE 1F 00 00 F8 FF 84 FF 0F 80 00 F0 FF 39
DPCM : FF 0F 80 00 E0 FF 39 FD 0F 80 01 C0 FF 79 FE 1F 80 03 00 FF F3 FC 0F 84 03 00 FF F3 FE 1F 80 03
DPCM : 00 FE E7 F9 1F 0C 07 00 FC F7 F9 0F 38 03 00 FC EF F1 19 7C 03 00 F8 FF F1 19 FC 01 00 F8 FF E1
DPCM : 1B FC 01 00 F8 FF E1 33 FE 01 00 F0 FF C1 3B FE 03 00 E0 FF 81 3F FD 03 00 E0 FF 81 77 FD 03 00
DPCM : E0 FF 81 77 DF 03 00 C0 FF 03 7F DF 03 00 C0 FF 03 FF AE 03 00 C0 FF 83 FD 2F 07 00 C0 FF 83 FD
DPCM : 1E 07 00 C0 FF 83 F9 59 3F 00 80 FF 83 F1 98 7E 00 C0 FF 03 FB E0 FE 00 80 FF 01 E7 F0 FF 01 80
DPCM : FF 00 F7 E0 FF 01 00 FF 01 DE F0 FF 03 00 3F 81 7B F0 FF 03 00 3F 02 7F F0 FF 03 00 7E 80 7F E1
DPCM : FF 07 00 3E 80 FF E0 FF 07 00 3E C0 EF E0 FF 0F 00 D0 E0 F7 40 FF 1F 00 E0 E8 EF 40 FE 3F 00 C0
DPCM : F9 CF 80 FC FF 00 00 ED BF 01 F8 FF 01 00 FC FF 00 F0 FF 01 00 FC FF 01 F0 FF 03 00 F8 FF 01 E0
DPCM : FF 17 00 F0 EF 09 C0 FF 0F 00 F0 FF 03 C0 FF 1F 00 E0 FF 03 80 FF 7F 00 C0 FF 03 80 FF 7F 00 C0
DPCM : FF 07 00 FF 7F 00 C0 FF 07 00 F7 FF 00 80 FF 0F 81 F5 7F 00 00 FF 1F C3 E9 6F 00 00 FF 1F CF 83
DPCM : 8A 00 00 FF FF FE 0F 00 00 80 FF FF FC 3F 00 00 00 FF FF FC 7F 00 00 00 FF EF F9 7F 00 00 00 FF
DPCM : DD F9 3F 00 00 00 FF EF FB 7D 00 00 04 F2 FF EB 7F 00 00 06 E2 7F FF 7F 00 00 06 E2 EB FF 7F 00
DPCM : 00 00 DB 7F FF FF 00 00 12 C8 FF FF FD 00 00 26 80 FF FF FF 00 00 17 00 FF FF FF 00 00 3E 00 FE
DPCM : FF FF 00 00 1F 00 FC FB FD 01 00 7E 00 FC FF FF 00 00 3F 00 F4 FF FF 01 00 7E 00 B8 FF FF 01 00
DPCM : 7D 00 B0 FF FF 03 00 7E 00 F0 FE FF 03 00 FE 00 F0 FD FF 03 00 7E 00 70 FD FF 07 00 BC 00 F0 EF
DPCM : FF 07 00 78 00 F8 FF FF 07 00 AC 00 F8 FF FF 07 00 AC 00 F0 FF FF 07 00 1C 01 F0 FF FF 07 00 3C
DPCM : 01 E0 FF FF 07 00 7C 00 F0 FF FF 06 00 3E 00 E0 FF F7 0F 00 7C 00 E0 FF FF 0F 00 3E 00 E0 FF FF
DPCM : 0F 00 3E 00 E0 FF FF 0F 00 3E 00 E0 FF FF 1D 00 7E 00 E0 FF 7F 1D 00 7E 00 E0 FF FF 2C 00 7C 00
DPCM : F0 FF F3 1D 00 3E 00 F0 FF F3 3F 00 7C 00 F0 FF E3 7F 00 38 00 F8 FF E1 FF 00 70 00 F8 FF C1 FF
DPCM : 00 30 00 FC FF C1 FF 01 A0 00 FC FF C1 FF 03 00 04 F8 7F C1 FF 07 00 02 FC 7F C1 FF 07 00 09 FC
DPCM : 3F C0 FF 0F 00 03 F8 7F C0 FF 0F 00 0F E0 FF 80 FF 0F 00 0F E0 FF 01 FE 1F 00 9E E0 FF 01 FC 0F
DPCM : 80 1F C0 FF 07 FC 0F 80 7B 00 FE 0F FE 03 80 7F 00 F4 3F FE 03 80 7F 00 F8 7F FE 01 80 FF 00 F0
DPCM : FF EE 03 00 7F 00 F0 FF FF 01 00 FF 00 C0 FF FF 01 00 FE 03 C0 FF FF 03 00 FC 03 C0 FF FF 0A 00
DPCM : BE 03 C0 7F F9 1C 00 FE 03 C0 FD F5 38 00 7E 03 C0 FD DB 28 00 9F 03 C0 DF 2B 38 10 3F 01 C4 FF
DPCM : 55
DPCMDEF  45  1425 "choirEflathigh"
DPCM : F6 43 FF 16 04 7D 26 00 F0 F2 03 C0 F6 07 00 74 FF 00 B0 FF 01 80 FF 0F 00 FC 7F 00 E0 FF 03 60
DPCM : FE 0E 00 FC 7F 00 CC FF 01 80 EF 07 C0 FF 1F 00 E0 FB 00 FE FF 01 00 FE 0F 60 FF 0F 00 C0 FF 03
DPCM : FC FF 01 00 F8 1F E0 EF 3D 00 80 FF 11 FC 3F 07 00 F0 1F 86 FF 67 00 00 FF 43 F8 FF 14 00 E0 7D
DPCM : 1C FF 8F 80 80 E6 87 F9 7F 80 49 C0 F0 9C FF 47 70 2A 00 9A F7 7F 08 BE 03 80 73 FE 0F C1 EF 00
DPCM : 30 FE FF 01 F8 0F 00 E4 FF 1D 80 FF 01 80 FE BF 02 F0 1F 00 F0 FF 77 00 FC 03 00 FE FF 03 C0 7F
DPCM : 00 C0 FF 7F 00 FE 07 00 F8 FF 0F C0 BF 00 00 CF FF 03 F8 3F 00 70 E0 FF 00 FF 0F 00 1C FC 3F E0
DPCM : FF 01 80 C1 FF 07 F8 3F 00 60 D4 FF 01 FE 07 00 8E FD 1F C8 FF 01 80 B4 EF 83 F9 1F 00 40 FA FB
DPCM : 38 FF 01 00 28 FF 1B C7 7F 00 00 E4 EF FB 79 06 00 60 FE 7D BE 8B 00 00 CA BF EF FF 00 00 C0 F8
DPCM : F7 FD 1F 00 30 00 FF 7D FF 07 00 02 B0 BF D7 FF 01 40 00 FC CF FB 3F 00 04 C0 FF 39 FF 0F 00 00
DPCM : F0 7F E3 FF 03 00 00 FF 37 E8 DF 00 00 C0 BF 0F FF 0F 08 00 F8 FF E0 FF 83 02 00 FE 0F F8 FF 21
DPCM : 00 C0 FF 03 FC FF 02 00 F8 FF 00 EF 4F 01 00 FF 0F E0 FF 21 00 F0 FF 03 F8 33 0C 00 FE FF 01 F8
DPCM : 86 00 CF FE 1F 00 7E 20 C4 F3 DF 05 C0 0F 60 79 FF 3F 00 F8 04 18 DE FF 07 00 3F 00 E7 FB FF 00
DPCM : E0 07 C0 FC FF 1F 00 F8 01 18 DF FF 03 80 3F 00 F2 FF 7F 00 E0 07 C0 FC FF 1F 00 F8 01 98 FF FF
DPCM : 03 00 3E 04 E3 FF 7F 00 C0 C7 C0 FC FF 0F 00 F8 10 9C FF FF 03 00 1C C3 F1 F8 FF 00 80 E3 38 D5
DPCM : FF 1F 00 60 AC 1F F2 FB 07 00 88 E5 47 FC FF 01 00 D0 FD 83 FF 1F 00 00 E8 FF C1 FF 07 00 00 FC
DPCM : FF F8 FF 00 00 00 FF 3F FE 1F 00 00 C0 FF FF FF 00 00 00 F0 FF FF 1B 00 3C 00 FC FF EF 01 80 1F
DPCM : 00 FE BF 2F 00 78 03 80 FF 7E 01 00 7D 00 F8 FB 5B 00 E0 1F 00 FE DF 07 00 FC 03 E0 FF 6E 00 C0
DPCM : 0F 00 FC F7 1F 00 F9 01 80 BF DF 03 E0 3F 00 F0 FF 67 00 FC 07 00 FE FF 0C C0 FB 00 C0 FF 1B 01
DPCM : F8 1F 00 FC CD 63 00 FF 03 80 FF F3 08 F8 3F 00 E0 3F 0E 81 FF 07 00 FE C7 03 F8 FF 01 80 FF 60
DPCM : C1 FE 1F 00 F0 1F 38 3C FF 07 00 FF 01 1C EF FF 00 C0 3F 80 E7 FF 1F 00 F8 07 60 FC FF 01 00 FF
DPCM : 00 9C FF 6F 00 E0 1F 00 FF 7F 07 00 F8 01 F0 FF 6F 00 00 FF 00 FC FF 0F 00 C0 7F 00 FF 7F 01 00
DPCM : F8 3F C0 FF 0F 00 00 FF 1F F8 F7 00 00 E0 FF 13 FF 1F 00 00 F8 7F E6 7F 01 10 00 FE EF F9 3F 00
DPCM : 03 80 FF 79 FF 07 60 00 F0 3D EE FF 00 1C 00 7C E7 F9 1F 88 03 00 FF 2D FF 03 71 00 C0 EF E7 6F
DPCM : E0 06 00 F8 EF 79 0D 3E 00 00 FB 3F 9F C1 0F 00 E0 FF C7 33 F8 01 00 FC DF 78 8B 3F 00 00 FF 1F
DPCM : EE F8 07 00 E0 FF C1 3B FF 00 00 FC 2F 78 F7 1F 00 80 FF 01 FF FA 03 00 F0 7F C0 DF 77 00 00 F4
DPCM : 1F F4 DF 0E 00 C0 FF 03 FD CF 01 00 F0 BF 90 7F F1 00 00 FE 0F FA 39 3E 00 C0 FF C1 3C E6 0F 00
DPCM : FC 1F C8 87 FB 03 00 7F 01 77 F0 FF 00 E0 3F C0 1B FE 1F 00 FC 06 5C E3 FF 03 80 9F 80 1F FC 7F
DPCM : 00 F0 03 F8 87 FF 0F 00 FC 00 7F F0 FF 03 80 0F F0 1D FE 7F 00 F0 02 5E 43 FF 1F 00 58 D8 77 D0
DPCM : FF 07 00 8C FE 0E F8 FF 01 00 EA DF 01 FE 3F 00 C0 FE 1B 80 FF 0F 00 F0 FF 03 E0 FF 01 00 FE 7F
DPCM : 00 FC 7F 00 80 F7 1F 00 FF 3F 00 E0 FF 03 E0 FF 07 00 F8 7D 00 F8 FF 03 00 FF 0F 00 FF 3F 00 E0
DPCM : FF 01 E0 FD 0F 00 FC 7F 00 F8 FF 01 80 FB 0F 00 FE 7F 00 C0 FF 43 50 FE 0F 00 FC 3F 0C A7 7F 00
DPCM : 00 FF 8F F5 A0 02 00 F0 FF F7 FE 00 00 00 FE FF FC 0F 00 00 C0 FF BF 7F 07 00 00 F8 7F E7 FB 00
DPCM : 00 00 FF ED DD 1F 00 00 E0 FF BD FE 03 00 10 E4 DF F7 7F 00 00 82 F8 BB FF 0F 00 60 20 FE FD FF
DPCM : 01 00 00 E8 6F FF 3F 00 00 81 7C FF FF 07 00 18 00 FE FF FD 01 00 0F 80 FF 7F 1F 00 F0 01 F0 FF
DPCM : FB 03 00 7C 00 FE FF 7F 00 C0 0F 00 FF FD 0F 00 F8 01 F0 FE FF 01 80 3F 00 EC FF 7F 00 E0 07 80
DPCM : FB FF 0F 00 FC 01 70 FF FF 01 00 37 00 FC FF 3F 00 F0 03 C0 FD FF 07 00 7C 00 F8 FF FF 01 80 07
DPCM : 80 FF FF 3F 00 B0 02 F0 FF FF 07 00 2A 00 FE FF 7F 00 E0 04 80 FF FF 1F 00 3C 00 F8 7F FF 01 80
DPCM : 07 00 FF FF 3F 00 F8 00 E0 FF FF 07 00 0F 00 F8 7F FF 01 E0 03 80 FF FF 1F 00 3C 00 F0 FF FF 03
DPCM : 80 0F 00 FE FF 77 00 F8 00 E0 FF 7F 0F 00 17 00 F8 FF 5F 03 D0 03 80 FF DB 7B 00 7C 00 F0 FF F9
DPCM : 0F 00 0F 00 FF 1F FF 03 E0 00 E0 FF E3 5F 00 38 00 FE 7F F8 1F 00 03 E0 FF 07 FF 07 40 00 FC 7F
DPCM : E0 FF 00 08 C0 FF 17 FC 3F 00 08 F8 7E 82 FF 0F 00 01 EA 2F F8 FF 01 20 C0 FF 01 FE 3E 00 1E E0
DPCM : 5F C0 FF 07 C0 03 FC 1F F0 7F 00 78 02 FF 0F F8 0F 80 1F C0 FF 03 FF 01 A8 03 F0 FF F0 07 00 7F
DPCM : 00 FC 3E FF 00 E0 1F 80 BF E5 1F 00 FC 03 E0 7F F7 03 00 7F 00 F8 FF 7F 00 E0 0D 00 FE FF 0F 00
DPCM : F8 03 40 F7 FF 01 00 FD 00 F0 FF BF 00 E0 1F 00 FF E7 3C 00 FC 01 40 FF 19 07 C0 77 00 FC 6F E3
DPCM : 00 54 06 C0 37 5B 14 40 4F 00 70 7E 43 23 55 55 55
DPCMDEF  46  1345 "choirEhigh"
DPCM : FB E1 5D 0F 61 5E 03 00 DF 3F 00 DC 3F 00 C8 FF 00 F0 7F 01 C0 FF 03 40 FE 07 00 FF 1F 80 F9 3F
DPCM : 00 EC 3F 00 F6 7F 00 E0 FF 00 FC FE 01 80 FF 03 F0 FF 03 00 FE 07 B8 F7 03 00 FC 1F E0 FD 07 00
DPCM : F0 BF 00 FF 3F 00 C0 3F 06 FF 77 00 00 FF 11 FE DF 01 00 FE 43 F8 7F 05 00 BC 87 F1 FF 10 08 68
DPCM : 3E F6 FF 10 46 C0 78 CE FF 09 9C 01 E0 39 FF 47 F8 0C 00 E7 FE 0F E1 3B 00 98 F7 3F 84 D7 01 00
DPCM : FF FF 00 FE 03 00 FE FF 01 F8 07 00 FC FF 07 E0 1F 00 F0 FF 07 C0 7F 00 C0 FF 3F 80 FF 01 00 FF
DPCM : F7 00 7E 03 00 1E FF 03 FC 3F 00 18 FC 3F E0 FF 00 E0 E0 FF 80 FF 03 80 83 FF 07 FC 1F 00 0C FD
DPCM : 1F F0 7F 00 20 F6 7F 90 FF 01 80 D4 FF 21 FF 07 00 A0 7F C7 F1 1F 00 00 7F 3F E7 1F 00 80 F8 FD
DPCM : BE CF 00 00 F0 EF FB 3E 02 00 C8 BF EF 7F 00 00 30 FF FC FF 03 00 00 FC F7 FF 0F 00 00 F0 BF F7
DPCM : 7F 00 10 C0 7F DE FF 01 00 00 FF 3B FF 0F 00 00 FC DF F8 3F 00 01 F0 7F E1 FF 01 04 C0 FF 07 FF
DPCM : 0F 08 00 FE 1F FC 3F 08 00 F8 7F E0 FF 13 00 C0 FF 01 7F BF 00 00 FF 07 F8 7F 05 00 FC 1F C0 FF
DPCM : 23 00 F8 FF 00 FE C3 00 F0 FF 07 E0 1B 02 DC FF 1F 00 5F 00 F1 FE 3F 00 7C 01 C6 FB FF 00 F0 03
DPCM : 18 EF 7F 03 A0 0F C0 FC FF 0F 00 3E 00 F3 FD 7F 00 F8 01 C8 FF FF 00 E0 07 20 FF FF 07 00 1F 80
DPCM : F9 FD 1F 00 FC 00 E4 FF 6F 00 E0 43 90 FF FF 03 00 0F 41 FC FF 0F 00 3C 04 F3 FF 3F 00 E0 38 C6
DPCM : F3 FF 01 80 63 3C D6 FF 0F 00 88 EB 23 FF 3F 00 20 AE 1F F9 FF 01 00 D0 FF E0 FF 07 00 80 FE 0F
DPCM : FF 1F 00 00 B8 7F F8 FF 00 00 C0 FD E3 FF 01 00 00 EE DF FF 03 00 00 70 FF FF 0F 00 17 80 FB FF
DPCM : 0F 00 7E 00 D8 7F 3F 00 F8 03 E0 FE 7F 00 F0 03 80 F7 FF 01 80 3F 00 BE FF 0B 00 5F 00 F8 FD 0F
DPCM : 00 FC 02 E0 FF 7F 00 F4 01 C0 FF FF 00 F8 07 00 FE FF 07 E0 1F 00 F8 FF 0D 80 FF 00 E0 FF 67 00
DPCM : FE 03 C0 FF 1C 01 FC 0F 00 FE FB 08 F8 3F 00 F8 CF 21 F0 7F 00 60 3F 0F E0 FF 01 C0 FF 60 B0 FE
DPCM : 0F 00 FE 03 C3 7D 1F 00 FC 03 38 FE FF 00 E0 0F E0 FC FB 01 80 3F 80 E7 FF 0F 00 FE 00 B8 FF 1F
DPCM : 00 F8 03 F0 FF 7F 00 C0 0F C0 FF FF 01 00 AF 00 FC FD 03 00 F8 0F F0 FF 07 00 E0 FF 80 FF 0F 00
DPCM : 80 FD 07 FA 1F 00 00 FC 7F F2 7F 00 01 F0 7F E6 FF 01 00 80 FF 3B FF 07 30 00 DC E7 FD 1F C0 00
DPCM : E0 3D F7 3F 10 03 80 FF 5C FF 41 1C 00 D8 F7 FE 03 61 00 E0 FF F1 1F 9C 01 00 FF 4F 27 78 03 00
DPCM : FA 3D 9F E1 07 00 F0 FD 78 87 1F 00 E0 7F E3 8D FD 00 00 FF 0F E7 FC 01 00 EC 1F BC F3 0F 00 F0
DPCM : 5F E0 CF 3F 00 80 FF 01 BF BF 00 00 FE 07 7E DF 01 00 F8 3F F0 BF 0A 00 E0 7F D0 FF 1C 00 80 FE
DPCM : 43 7D E3 01 00 FE 87 F9 8A 0F 00 F8 3F E4 63 7E 00 E0 7F 30 0F FF 03 80 DF 80 39 FE 0F 00 FE 03
DPCM : 76 F8 7F 00 F0 0B 78 E3 FF 01 E0 27 E0 87 FF 07 00 3F E0 1B FE 3F 00 7C 00 7F F8 FF 00 E0 03 DE
DPCM : E1 FF 07 80 0B F8 83 FF 1F 00 38 F8 1D F4 FF 00 C0 E2 6F 90 FF 06 00 EC DF 01 FE 1F 00 B0 FF 06
DPCM : F0 FF 00 80 FF 0F C0 FF 07 00 FC 3F 00 FE 3F 00 E0 FF 01 F0 FF 01 80 FF 07 C0 FF 0F 00 FC 1F 00
DPCM : FF 3F 00 F0 FF 00 F8 FF 01 80 FF 03 E0 FF 07 00 FE 0F 00 FF 3F 00 F8 7F 00 F8 FF 00 E0 FF 01 58
DPCM : FF 03 00 FF 8F 70 FA 03 00 FC 3F 8F 81 02 00 F8 FF FB 3F 00 00 C0 FF CF FF 01 00 00 FF 3F FF 07
DPCM : 00 00 FC EF FD 1F 00 00 F0 BF E7 7F 00 00 E0 EF FE BF 01 00 00 F9 EF FF 07 00 00 E0 FF FF 1F 00
DPCM : 60 00 EF FF 3F 00 00 80 FF E7 FF 01 00 00 EA FF FF 07 00 4C 80 EF FF 1F 00 70 01 FC FF 7F 00 E0
DPCM : 05 E0 FD FF 01 00 1F 80 EF FF 07 00 7E 00 FC FF 1F 00 F8 01 D8 FF 7F 00 E0 07 C0 EE FF 03 80 1F
DPCM : 00 FB FF 0F 00 7E 00 DC FD 3F 00 F0 03 E0 FF FF 00 C0 0F 80 FF FF 07 00 0F 00 FF FF 1F 00 78 00
DPCM : FC FF 7F 00 B0 00 F8 FF FF 01 C0 0A C0 FF FF 07 80 03 00 FF FF 1F 00 3C 00 FC FF 7F 00 38 01 E0
DPCM : FF FF 01 E0 01 C0 FF FF 07 80 07 00 FF FF 1F 00 1E 00 FC FF 7F 00 78 00 F0 FF FF 01 E0 01 E0 FF
DPCM : 7F 07 C0 07 00 FF FF 1D 00 1F 00 FE BF 37 00 7E 00 F8 7F EF 01 F0 01 E0 FF F9 07 C0 03 C0 FF E3
DPCM : 3F 00 0E 80 DF 0F FF 01 38 00 FE 3F FC 0F 40 00 F8 FF F0 3F 00 02 F0 FF C3 FF 00 08 E0 FF 0D FF
DPCM : 07 00 00 FF 1F FC 3F 00 04 FC 9D F0 FF 00 18 E0 7F C0 FD 07 E0 00 FF 03 FE 0F 80 07 FC 0F F8 7F
DPCM : 00 8E F0 7F 80 FF 00 7C 80 FF 05 FE 01 B8 03 F8 3F FC 01 E0 0F C0 FF D1 07 80 3D 00 FE DF 1F 00
DPCM : FC 01 78 DF 7F 00 F0 03 C0 FB FD 01 80 1F 00 DE FF 07 00 FE 00 F8 FE 1F 00 F8 03 E0 F7 BF 00 E0
DPCM : 0F 00 BF FF 06 C0 3F 00 FE E5 39 00 DF 00 F8 6F E3 00 3E 03 B0 3F 86 03 7C 0C C0 7F 09 85 5A 55
DPCM : 55
DPCMDEF  47  1281 "choirFhigh"
DPCM : BE F1 FB 21 E8 DB 00 E0 FB 01 F0 FB 00 E0 FB 01 E0 FF 00 F0 FF 01 E0 FF 00 F0 FF 00 C4 7F 00 F8
DPCM : 7F 00 F3 3E 00 F8 3F 80 FF 07 00 FC 0F E0 FF 06 00 FE 07 D8 FF 03 00 FE 03 FC 7F 00 80 FF 02 FE
DPCM : 7F 00 C0 3F 85 FF 1B 00 E0 1F C3 FF 1D 00 70 8F E1 FF 04 00 BC C7 F1 7F 04 80 E6 63 FE 1F 18 01
DPCM : E3 99 FF 0B 8E 01 F0 CC FF 11 DE 01 70 EE 7F 00 FF 00 30 EF 3F 84 FF 00 80 FF 1F C0 7F 00 E0 FF
DPCM : 0F E0 1F 00 F8 FF 07 E0 0F 00 FC FF 01 F8 07 00 FE FF 00 EE 03 00 FF 7F 00 FF 03 00 F3 7F 80 FF
DPCM : 01 C0 F1 7F 80 FF 01 60 F0 FF 80 FF 01 60 F8 7F C0 FF 00 30 D4 7E D0 FF 00 20 F6 3F E4 3F 00 48
DPCM : FB 1F F2 3F 00 80 FE 8F F3 0F 00 20 FF CF F9 07 00 80 DF F7 7D 06 00 A0 FF F3 3F 02 00 E0 FF FB
DPCM : 0F 00 04 F2 F7 FD 0F 00 02 F8 F7 FF 07 00 01 FC 77 FD 0F 00 00 FC F7 FE 06 40 00 FE 73 FF 07 00
DPCM : 00 FF 9B FF 07 00 80 FF 0D FF 07 00 C0 FF C3 FF 03 02 C0 FF 83 FF 83 00 C0 EF 81 FF 97 00 C0 FF
DPCM : 80 FF 2F 00 E0 7F 80 FF 17 00 F0 7F 80 FF 23 00 F8 7F 80 FF 10 00 FE 7F 80 5F 08 38 FF 3F 00 7E
DPCM : 00 78 FF 1F 00 5F 40 BC FF 17 80 0F 60 9E FF 07 C0 0F 20 FE FF 03 E0 07 20 FF FF 01 E0 07 90 FF
DPCM : FF 00 E0 07 C0 FF FF 00 F0 01 98 FF 7F 00 F8 01 E4 FF 7F 00 F0 01 E4 FF 3F 00 F0 14 C6 FF 3F 00
DPCM : 78 0C F1 FF 1F 00 78 C4 71 FF 3F 00 18 C3 59 FF 1F 00 18 EB A5 FF 0F 00 88 FB 11 FF 0F 00 60 FF
DPCM : 83 FF 0F 00 80 FE 8F FF 07 00 00 FE CF FF 03 00 00 FF CF FF 03 00 00 FF FF FF 00 00 00 FF FF 3F
DPCM : 00 2E 00 FE FF 1F 00 1F 00 FE FF 0F 80 1F 00 FE FF 07 80 1F 00 FF FF 00 C0 0F 80 FF FF 00 E0 0F
DPCM : 80 FF 7F 00 F0 0B C0 FF 3F 00 F9 00 E0 FF 3F 80 7F 00 F0 FF 1F C0 3F 00 F8 FF 0C 80 3F 00 FC FD
DPCM : 04 F0 1F 00 FE 7B 04 F8 0F 00 FF 3D 04 FE 07 80 FF 38 82 FF 03 80 FF 18 E0 FF 01 C0 7F 58 E8 FF
DPCM : 01 E0 2F 30 DC FF 00 F0 0F 70 EE 7F 00 F8 07 30 FF 7F 00 F8 03 18 7F 3F 00 F4 01 B8 FF 1F 00 FC
DPCM : 01 F8 FF 0F 00 7E 00 FA DF 03 00 FE 00 FF FF 01 00 FE 01 FE 7F 00 00 7F 03 FE 3F 00 00 FF 07 FE
DPCM : 1F 00 00 FF 17 FF 07 00 80 F7 1B FF 07 00 80 FF 9D FF 00 04 C0 7F DE FF 00 06 00 FF CE 7F 10 03
DPCM : 80 7F EF 7F 10 03 80 7F F7 1F 98 01 40 FF F3 1F CC 00 C0 FF F9 0D 3E 00 C0 FF F9 86 1F 00 E0 FF
DPCM : 78 C7 0F 00 F0 7F 78 E3 0F 00 F0 7F 78 F5 07 00 F8 1F FC F4 07 00 7C 17 FC FC 03 00 FC 07 FE FE
DPCM : 00 00 FE 03 7F FF 00 00 FF 01 FF BB 00 00 FF 41 FF 63 00 80 FF 41 FF 71 00 C0 FF 90 EF 78 00 E0
DPCM : 7F 98 67 FE 00 F0 1F C8 E3 7E 00 F0 1F D8 F1 3F 00 F8 07 7C F0 7F 00 FC 06 56 FC 3F 00 7C 81 1F
DPCM : F4 3F 00 3E 81 1F FE 1F 00 1F E0 17 FF 0F 00 0F F0 87 FF 0F 00 0F F8 C3 FD 0F 00 0E FD 81 FF 0F
DPCM : 00 8C FF 01 FF 07 00 EC DF 80 FF 0F 00 E8 7F 00 FF 0F 00 FC 3F 00 FF 07 00 FE 5F 00 FF 07 00 FE
DPCM : 1F 80 FF 07 00 FE 1F 80 FF 07 00 FE 0F C0 FF 07 00 FF 07 C0 FF 07 80 FF 07 C0 FD 03 80 FF 03 E0
DPCM : FF 03 80 FF 03 E0 FF 01 C0 FF 03 D8 FF 00 C0 FF 31 A6 7F 00 C0 FF 78 0F 0A 00 F0 FF FD 1F 00 00
DPCM : F0 FF FD 0F 00 00 F8 BF FD 0F 00 00 FC FB FE 07 00 00 FE 7F FE 07 00 00 FD FF FF 03 00 00 FC FF
DPCM : FF 01 00 41 FC FF FF 00 00 01 FE FF 7F 00 00 A0 FF FF 7F 00 00 40 FF FF 3F 00 20 00 FF FF 1F 00
DPCM : 70 00 FF FF 0F 00 3C 00 FB FF 0F 00 3E 00 FF FF 03 00 1F 80 FF FF 03 80 1F 80 FF FF 01 C0 0F 80
DPCM : FE FF 01 E0 07 60 FE FF 01 E0 07 60 FF FF 00 F0 01 E0 FF 6F 00 F8 01 F0 FF 7F 00 B8 00 FC FF 3F
DPCM : 00 38 00 FE FF 1F 00 2C 00 FF FF 1F 00 2A 00 FF FF 07 80 13 80 FF FF 07 80 03 C0 FF FF 03 C0 03
DPCM : C0 FF FF 01 E0 01 C0 FF FF 00 F8 00 F0 FF 7F 00 78 00 F8 FF 7F 00 3C 00 FC FF 3F 00 1E 00 FE FF
DPCM : 1D 00 0F 00 FF FF 0D 80 0F 80 FF 7F 0E C0 03 C0 FF FB 07 C0 03 E0 FF FC 07 A0 00 F0 FF FC 07 E0
DPCM : 00 F8 3F FE 03 70 00 FC 3F FE 03 30 00 FF 0F FF 03 20 80 FF 87 FF 01 08 E0 FF 83 FF 01 20 E0 FF
DPCM : C1 FF 01 10 F0 BF E0 FF 01 18 F0 1F 70 FF 00 1C F0 3F F0 7F 00 0E F0 3F F0 3F 00 27 F8 3F F0 0F
DPCM : C0 07 F8 3F F0 0F E0 0E F0 3F FC 03 F0 03 F0 3F FE 00 F8 03 F8 2F FE 00 F8 01 F8 BF 3F 00 F8 00
DPCM : F8 FF 3F 00 FC 00 F0 FF 1F 00 FC 00 F0 EF 0F 00 FE 00 BC FF 0B 00 7F 00 FC FD 0E 80 3F 00 FE 67
DPCM : 1C C0 37 00 FF 27 06 F0 0B C0 FF 1B 03 6C 0E E0 7F 43 43 55 51 45 55 55 55 54 55 55 55 45 55 55
DPCM : 55
DPCMDEF  48  1201 "choirGflathigh"
DPCM : 43 F0 77 10 F5 2E 00 FC 1F 40 FF 03 C0 FF 03 90 DF 00 F8 3F 00 F6 1F 00 FE 07 30 FF 01 F0 7F 00
DPCM : E6 3F 00 D4 0F E0 FF 03 C0 7B 80 FE 3B 00 F8 1F B0 7F 01 80 FF 01 FF 0F 00 F8 4F F0 DF 01 80 FF
DPCM : 04 FF 33 00 78 8F F0 3F 03 80 FF 10 7F 53 10 70 1F E3 3F 22 81 E6 A9 7F 83 4A 60 9E F9 8F 70 0C
DPCM : C4 19 FF 11 9E 01 B8 F7 1F C0 37 00 77 FE 03 FC 01 E0 FE 3B C0 37 00 FC 7D 03 F8 07 80 FF 37 80
DPCM : 7F 00 F8 FF 00 F9 07 00 FF 3F 40 7D 00 F0 FF 03 F8 0F 00 CF 7F 80 FF 01 E0 F8 1F E0 3F 00 0E 7F
DPCM : 03 FE 07 C0 E1 BF C0 7F 00 38 F6 0F FA 0F 00 63 FF 81 FF 01 40 F5 3D 64 3F 00 A8 FE 63 FC 03 80
DPCM : EA 7D D8 37 00 30 3F EF 79 06 00 D6 F7 BC 47 00 61 7E D6 EF 00 08 C6 DF F3 0F 80 81 FC 79 FF 00
DPCM : 18 C8 7F F6 1F 00 03 F8 CF FE 07 40 80 FF CC FF 00 04 F8 9F F2 1B 40 00 DF 0B FF 07 00 E0 FF E1
DPCM : 7F 40 00 FC 1F FC 1F 04 80 FF 83 BF 90 00 F0 7F E0 7F 0C 00 FE 07 FC 4F 01 E0 FF 80 7F 51 00 FE
DPCM : 0F E0 97 04 F0 FF 01 EC 46 E0 FD 1F 00 5F 88 9C FF 03 D0 13 94 F7 3F 00 3D 80 F1 FE 0F A0 87 30
DPCM : FE FF 00 F0 01 E4 FF 0F 80 1E C0 BD FF 01 F0 01 98 FF 3F 00 7A 00 FB FF 03 80 0F 60 FF 7F 00 F0
DPCM : 21 CC FF 07 00 2E C2 FC FF 01 C0 23 9C FB 3F 00 78 CA 72 FF 07 00 A7 5C EA FF 01 40 B8 4E ED 1F
DPCM : 00 8C DD 89 FF 07 00 AA 7F F0 7F 00 00 F7 2F FE 0F 00 20 FF C7 FF 01 00 E0 FF F8 3F 00 00 F8 FF
DPCM : FD 00 50 00 FF FF 0F 00 17 C0 FF FF 00 F0 01 F8 FF 0F 00 7F 00 FE 7F 01 E0 07 E0 FF 2F 00 6E 00
DPCM : FE FF 00 E0 1F C0 FF 17 80 7C 01 F8 FF 03 D8 07 C0 FF 6F 00 F7 00 F8 FF 0C E0 0E 80 7F 8F 01 FE
DPCM : 01 F0 DF 13 E0 3F 00 FE 79 02 FE 03 E0 3F 47 E0 3F 00 FC 65 14 FD 07 80 7F 4C F0 7B 00 F8 87 85
DPCM : FD 0F 00 7F C1 B8 FF 01 E0 07 3A E7 3F 00 FE 00 E7 FF 03 C0 1F 60 FE 3F 00 DC 00 DC FF 03 80 3F
DPCM : 80 FF 3F 00 F0 07 F8 FF 07 00 FE 00 FD 7F 00 C0 3F 88 FF 09 00 FC 0F FC 1E 00 00 FF 0F FF 07 00
DPCM : E0 FF F4 3B 00 01 FC CF FE 03 10 80 FF CD FF 00 01 F0 DF F9 0F 30 00 FE 3B EF 40 06 C0 3F EF 1F
DPCM : C4 00 F8 E7 FE C1 18 00 EF 8E 3F B8 00 E0 FF F1 86 17 00 FC 1F 8F F8 00 80 FF E2 8D 1F 00 F0 7F
DPCM : DC F8 01 00 FF C7 59 3F 00 E0 BF F0 B5 07 00 FC 0F 6F F7 00 80 FF C1 B7 0F 00 B8 1F 7C BD 01 00
DPCM : FF 43 DF 2D 00 E0 7F F8 5B 03 00 FC 8A 7D 73 00 C0 FF D8 B3 3C 00 FC 0F 7A EC 06 80 FF A0 8E 7D
DPCM : 00 F0 0F CE F8 1F 00 BD C0 1B FF 03 E0 0B BC F0 3F 00 FE C0 1B FE 07 C0 0F F8 E0 FF 00 F8 80 1F
DPCM : FE 0F 00 1F F8 86 FF 03 E0 03 6F F4 BF 00 34 EC 07 FB 0F 80 C6 57 C1 FF 01 C0 FA 1A F4 37 00 F0
DPCM : 37 41 FE 0F 00 FC 2F C0 FF 01 C0 FF 01 F2 3F 00 F8 7F 00 FF 07 00 FF 07 E0 FF 00 E0 FF 01 FC 37
DPCM : 00 F8 1F 80 FF 07 80 FF 03 F0 FF 00 E0 7F 00 FE 1F 00 FE 07 E0 FF 03 C0 FF 00 F6 3F 00 F8 1F E2
DPCM : FC 02 80 FF E3 0E 15 00 78 FF FC 07 00 80 BF 97 FF 00 00 E0 FF F3 1F 00 00 FE 7F FE 03 00 C0 FF
DPCM : EE 7F 00 00 FC CF FD 07 00 02 FD DE 7F 00 C0 90 FF FB 07 00 08 F3 FD FF 00 00 61 FF F8 1F 00 14
DPCM : D4 FF FF 01 80 02 F9 FF 3F 00 38 01 DF FF 03 00 0F E0 FF 7F 00 F0 01 FC FF 0F 00 3E 80 FF FF 00
DPCM : E0 03 F0 FF 1F 00 7C 00 77 FF 03 C0 0F E0 FE 3F 00 FC 00 FC FF 0F 00 0F 80 FF FF 00 E0 03 F8 FF
DPCM : 1F 00 1E 80 FF F7 01 C0 03 F8 FF 3F 00 AC 00 FF FF 03 80 0B E0 DF 3F 00 3C 01 FE FF 03 80 17 C0
DPCM : FF FF 00 F0 00 F8 FF 0F 80 0F 80 FF FF 00 70 01 F0 FF 3F 00 1E 00 FF FF 03 E0 03 E0 FF 6F 00 3E
DPCM : 00 FE F7 0C D0 03 E0 FF CF 00 7D 00 FC DF 39 C0 07 C0 FF B9 03 F4 00 FC 97 77 00 0F C0 FF E3 0F
DPCM : C0 01 FC 3F FC 01 1C C0 FF C3 3F 80 02 F8 7F F8 07 50 80 FF 87 FF 00 08 FC 4F F0 3F 80 80 FF 09
DPCM : FF 03 28 F0 3F F0 7F 00 06 FE 03 FE 0F E0 10 FF C0 FF 00 1E F0 1F F0 1F C0 13 FE 03 FE 01 7C 80
DPCM : FF C0 1F C0 0F F0 3F FC 00 F8 01 F4 CF 1D 80 3F 80 FF 3C 01 F8 03 F8 AF 1F 00 7E 00 FB FB 01 E0
DPCM : 0F C0 FF 3E 00 BC 01 F8 DF 03 C0 3F 00 FF 7B 01 F8 03 F0 BF 73 00 3F 00 BF 73 06 F0 0F E0 5F CB
DPCM : 00 97 00 FC 57 1C F4 10 64 3D C6 22 55 55 55 55 55
DPCMDEF  49  1137 "choirGhigh"
DPCM : FF F0 AF 81 F8 03 C0 FA 03 F0 3A 00 FE 0A 80 FF 01 F8 3F 00 FE 07 C0 FE 01 F0 1F 00 F7 07 D8 7F
DPCM : 00 FC 0F 70 FF 00 F0 0F E0 FF 03 C0 7F 40 FF 07 00 FE 03 FF 0F 00 F8 0B FC 3F 00 F0 4F B8 DF 00
DPCM : C0 1F F1 7F 03 00 7F C4 7F 05 00 EE 19 FF 0B 08 A8 67 FF 07 86 20 CE FC 1F 9C 01 70 F3 3B F1 0C
DPCM : C0 CE 7F C4 3B 00 F1 FF 10 DF 00 E0 FF 03 FC 03 C0 FF 0F E0 07 80 FF 3F 80 3F 00 FC 7F 00 7F 00
DPCM : F0 FF 01 FE 01 C0 FF 07 F8 07 80 F3 9F E0 3F 00 86 FF 81 FF 00 18 FE 0F FC 07 60 F0 3F F0 1F 80
DPCM : 41 FF D0 6F 00 84 FF 43 FE 01 20 FD 8F F9 07 00 F8 3F E6 1F 00 C0 FF BC 7F 00 00 DE F7 BE 01 00
DPCM : FC DE 7F 02 00 F0 5F FF 01 00 E0 FF FD 07 00 80 7F FF 1F 00 01 FC FD FF 00 00 F0 EF FE 07 00 C0
DPCM : BF FB 1F 00 00 FF E6 FF 00 00 FC 0F FF 01 00 F0 5F FC 1F 00 C0 FF E1 FE 00 00 FE 07 FF 17 00 F0
DPCM : 1F F8 FF 00 C0 7F C0 FF 05 80 FD 01 7F 11 00 FE 0F F8 8D 00 F8 7F 00 1F 02 E7 FF 01 7C 00 BC FF
DPCM : 07 E0 01 D6 FE 0F 80 07 98 FB BE 00 1E 60 DE FF 02 78 00 F9 FF 07 E0 03 E4 FF 0F 80 0F 20 FF 7F
DPCM : 00 3D 80 EC FF 01 E8 01 F2 FF 07 C0 47 90 FF 3F 00 9C 41 FC FF 00 F0 84 F9 FF 07 80 11 C7 FF 1F
DPCM : 00 46 3C FD 7F 00 10 FB C8 FF 03 80 D8 4F FE 0F 00 D0 7F F8 3F 00 80 FE C7 FF 01 00 F0 7F FE 07
DPCM : 00 C0 FF F9 1F 00 00 FE FF 3F 00 00 F0 FF FF 00 1C 80 7F FF 01 F8 01 7C FF 07 E0 03 E0 FF 0F 80
DPCM : 1F 80 FF 5F 00 7C 00 FE FF 00 F0 02 78 FF 01 E0 0B E0 FF 0F C0 07 80 FF 3E C0 1F 00 FE FF 00 7F
DPCM : 00 F8 7F 01 FC 03 E0 F7 08 F0 0F 80 FF 27 C0 3F 00 FA 1D 81 FF 00 F8 77 00 F7 03 E0 9F 21 FC 0F
DPCM : 80 7F 14 EC 27 00 FE C1 F0 FF 00 F8 03 C6 FF 03 E0 0F 18 FF 1F 80 3F C0 FC 7F 00 7C 00 FB FF 00
DPCM : F0 03 FC BF 03 C0 0B E0 FF 07 00 7F 80 F7 3F 00 F8 03 FC 7F 00 C0 3F E0 FF 00 00 FF 83 BF 03 00
DPCM : FC 0F FF 07 00 E0 BF F9 1F 00 80 FF EE 3F 88 00 78 7B FF 20 02 E0 DF FD 43 0C 00 7F FF 1F 60 00
DPCM : F4 DF 7F 88 01 C0 DF FE 61 02 80 BE DB 86 0F 00 F8 EF 1B 3E 00 E8 3F 6F F8 00 C0 FF 5C F5 03 00
DPCM : 7F E3 D6 0F 00 FC 8B 3B 3F 00 E0 3F DC FC 00 80 FF F0 FB 03 00 FE 81 FF 1D 00 F8 07 5E 3B 00 E0
DPCM : 3F F0 DF 01 80 FF C0 3F 0F 00 FE 41 DF 78 00 F8 87 79 EA 03 E0 3F E8 B8 1F 80 7F 20 E3 7E 00 FE
DPCM : 80 8D FF 01 F0 07 36 FE 07 C0 17 7C F8 3F 00 4F F0 E1 FF 00 78 C0 1F FF 07 E0 80 77 FC 1F 80 03
DPCM : FE F0 FF 00 10 FE 03 FF 03 C0 F8 0F FC 1F 00 E8 3F E0 FF 00 A0 FF 00 FF 03 80 FF 03 F8 1F 00 FE
DPCM : 1F E0 7F 00 F0 7F 00 FF 07 80 FF 01 7C 1F 00 FE 07 E0 FF 00 F8 1F 80 FF 07 C0 FF 00 FE 0F 00 FF
DPCM : 03 F0 7F 00 FC 0F 80 FF 03 E0 7F 80 FD 07 80 FF 19 E3 0F 00 FE E7 1C 0C 00 F8 7F FF 01 00 E0 FF
DPCM : FD 0F 00 80 7F E7 3F 00 00 FE 9F FF 00 00 F0 FF FE 03 00 C0 FF FF 0F 00 00 FE FF 3F 00 10 F0 FF
DPCM : FF 00 40 80 FF FF 03 00 A0 BF FF 1F 00 00 F8 FF 7F 00 08 C0 FF FF 01 E0 01 FE FF 07 00 07 F0 FF
DPCM : 1F 00 1E C0 FF 7F 00 7C 00 FE FF 01 F0 01 F8 FF 07 C0 0F 80 FF 1F 00 1E 80 FF FF 00 F8 00 FC FF
DPCM : 03 E0 03 F0 FF 0F 00 1F C0 FF 3F 00 3C 80 FF FF 00 F0 00 FE 7F 07 C0 02 F8 FF 1F 80 09 E0 FF 7F
DPCM : 00 06 80 FF FF 01 38 01 FC FF 07 E0 00 F0 FF 1F 80 13 C0 BF 7F 00 1E 00 FF FF 01 78 00 FC FF 07
DPCM : E0 01 F0 FF 1D 80 07 E0 FF 7F 00 0E 00 FF FF 01 38 00 FE FF 0E E0 00 F8 F7 3B 80 03 E0 5F FF 00
DPCM : 0E 80 FF ED 07 30 00 FF E3 1F C0 00 FC 8F DF 00 03 F8 3F FE 03 00 E0 FD F8 0F 00 81 FF C3 7F 00
DPCM : 00 FE 0F FF 03 10 F8 2F FC 0F 60 C0 7F F0 3F 80 02 FF 81 FF 00 0E F8 0F FE 03 38 E0 7F F0 0F E0
DPCM : 01 FF 83 3F C0 06 F8 8F 3F 80 3D 80 FF FC 01 FC 00 F6 F3 03 F0 03 F8 F7 07 80 0F 40 6F 3F 00 7E
DPCM : 00 FE FB 00 F8 01 F8 FF 03 C0 0F E0 FF 0F 00 3E 80 FF FE 00 FC 00 FE 35 07 78 03 B8 DF 18 F0 0D
DPCM : E0 AF 31 C0 27 C0 7E C3 84 54 45 55 54 45 55 54 55
DPCMDEF  50  2561 "DREAMS.dmc"
DPCM : AA 0A 00 F8 47 C2 FF FF FF FE 00 00 00 80 03 9C EF FF FF FF 03 E0 FB 3F F0 FF 01 00 00 01 00 00
DPCM : 00 E0 EB 7F F0 41 C0 FF FF F1 FF 3F C3 FF FF FF FF 99 02 30 00 00 00 00 00 00 CE FF 15 FF F1 C3
DPCM : F9 FF FF FF FF FF 38 80 65 04 00 04 00 00 00 00 F8 D0 DF EB FF FF 83 C7 FF FF FF FF 11 84 07 38
DPCM : 04 F1 00 00 00 00 00 DE 31 E7 F1 3D E7 FF FB FD FF A7 F7 7F 02 F0 81 00 07 0F 80 07 00 00 00 80
DPCM : 3B A7 6F FE C7 FF FF 7B F8 F9 83 E3 C1 FF 0F A7 1B 20 0E 00 01 00 00 00 78 FC 8F 1D 7D 9C FF FF
DPCM : FF FE 9F 01 30 CE F7 FC 1E 70 00 0E 60 00 00 40 80 DE 7F 7C 7E BC CF F3 E0 1F FC 27 FF E1 E1 40
DPCM : 00 8F F7 61 3C 03 0C 60 88 10 3F C0 FF E3 E7 E7 3D 00 FC CF FF 0F F2 10 BC 03 80 62 F8 8F E3 07
DPCM : 8C 00 82 19 86 21 FF C3 FF 8F BF 7F DE C3 F8 C1 87 30 82 7F 40 08 33 40 0C 88 C1 CF F9 F1 9F E7
DPCM : 1F 30 F0 71 1E F3 F0 F6 07 E3 70 80 79 80 87 EF E1 F1 43 18 62 00 3C BE 33 7C BF C7 3F DF E3 01
DPCM : 1E 60 06 00 07 F8 F8 C7 C1 7A 18 3C E6 F8 A7 37 FF 2B 0F 01 E1 B8 07 E7 20 E2 F3 D0 A3 70 F0 C0
DPCM : 7C FE C7 FE 70 F0 C0 03 C3 0C 73 98 CF E3 71 18 3C C0 E3 70 0F C7 7C 87 FC 1F 1D 3C 70 79 00 3F
DPCM : E2 41 BC 0B 8F 0F 87 C3 71 C0 87 C7 7F F4 C1 11 0E 0F BC E7 70 B8 0E 47 C7 1D 38 FC 21 88 E3 E3
DPCM : 67 38 1F F6 D0 07 7F 60 C7 E4 CE 0F 00 42 8F 83 63 38 FE 78 C0 E7 A1 77 DC 91 D7 9F 82 0F A0 23
DPCM : 7C C3 0F E6 88 23 F8 07 E6 11 87 79 B8 3C F7 1F 18 98 E7 0D 1E C7 78 1E F8 90 C7 71 C0 03 A6 F7
DPCM : 61 F8 10 CE 73 78 1E 8E F3 63 A0 7E 88 8F 83 71 B1 EF E0 27 B6 8B 7B 10 D8 C7 39 20 8E 03 30 F8
DPCM : 81 E7 FF 1B AC 5F 60 3E 38 FC 08 BE E3 F3 C2 F1 80 07 3C 03 86 F1 79 1E F8 1E 1E 70 06 D8 87 9F
DPCM : F0 E3 7C 3E F8 ED C0 19 83 C7 38 0E 66 20 7C BE C0 0F B8 50 EE 11 0F FF EC 3D 38 3E 6E 1F EA 01
DPCM : F0 70 A8 3E E0 F0 03 20 1E 3F F8 F3 7C 3C 6A 18 0D C4 9F 2D E2 3F 83 F7 06 E4 CD 83 E1 F0 33 1C
DPCM : 8F B8 EB 01 48 0F 87 E1 79 C6 39 E0 67 04 B7 3C F2 F1 F9 F6 03 3C 9C 74 5C 50 0F 06 7C 0C 63 1D
DPCM : 1F 1C A7 1F 2C 78 8F F8 1B E8 87 47 F5 F1 DC 33 E0 78 08 27 1D 8A 1B 38 70 83 C3 61 F8 F8 E7 C0
DPCM : F8 F9 E8 FA F9 18 F9 33 F1 C3 A7 08 1C 03 03 9C F0 82 0A 98 1F E7 71 48 EF 6F 7E 9E A5 BF E7 00
DPCM : A7 21 7C 34 18 0B F9 04 6B 30 23 0E FE 0D 3B B0 38 1E CF DD 1B 9E C7 BB 63 70 70 7C DC 63 1C 86
DPCM : 0F 80 40 D8 70 4C D5 83 F7 B8 DF 86 EB 3B C7 FA 78 C0 3B 78 0C 1A E2 94 AA C0 1B DA 70 38 75 F4
DPCM : C0 F9 C2 E1 E7 A3 CF F3 80 8E E1 0A 9E E7 07 A8 97 E1 1E 87 A8 36 03 3A 90 C3 71 30 FC F8 CF E1
DPCM : 8F 1F 7C 8E CE 7B 2E 0C C8 C3 39 C0 0A 4F 08 07 C3 35 BA AF E2 2F 3C 2F 7B 85 C7 B5 0F BC 60 80
DPCM : 31 BC AB F9 42 0F AA 70 AC 34 58 1E 38 EE C3 3D 73 2A EE F2 3D FC 90 06 C7 2B 0C 26 D6 83 E1 38
DPCM : 13 04 E7 F1 4D 3D AF 0F EF 2A DC 80 47 AB 83 0F 86 03 D6 83 3B DE E1 79 7C 38 0E 8B 47 AA C2 33
DPCM : 8E E3 3A 3C 0C AF B2 B4 38 2E 2D AB 16 97 E9 96 E4 E8 31 9E E1 61 0C AF 98 8E 8B E1 19 BE 96 86
DPCM : BC AC A6 4A 3C CB F6 1D 8A 73 E0 38 44 1D 9C CE F2 95 96 EC 58 8D AC 82 B7 3C 47 35 8C 31 E5 70
DPCM : F5 70 2C BE FE 63 55 A4 98 16 4A 39 BC 5A C9 6A 0F AA E2 54 38 33 F1 14 1F EF B0 2A 7C 79 58 A3
DPCM : 2F 3C 88 2E D3 B2 3C 6A 7A 2A 63 22 0F B0 75 D5 AB 72 AA 2A B5 2A 2B AE CF D2 15 1B A9 A8 15 A5
DPCM : B9 68 EA A2 A5 6A AB 34 9D D2 96 8A F1 AA AD AA F8 0C CE 54 8D AA 32 C6 A9 2A 4F 6A E9 E2 6A 65
DPCM : B1 AA 55 D2 E6 A8 A3 B2 B4 AA 4E 23 55 CB 4A 66 D3 AA A3 AA 9A 56 AA 4A AB B4 68 BC D2 A6 B5 A4
DPCM : AC DE 50 32 AB 42 7A EA A9 AA AC 96 AA AA 74 7A AA 59 4C AE 68 1C CB B0 1C 37 BA 4A AB 2A 97 AA
DPCM : 86 E7 A1 B2 5A AA 9A CE 74 89 5A 86 C5 14 CB 75 56 8F A3 3A 5A 5A AA 54 AD 55 65 55 D2 4A A9 AE
DPCM : 4D 5A A9 CA EA 48 93 72 A9 2D A9 97 9A B5 26 4D B6 49 15 65 35 D1 F2 92 E6 AA AA D8 B2 A6 AA AA
DPCM : 2D 75 D4 91 4B C7 A4 2A BD A8 AA AA 92 A2 38 E9 AE 5A 9E 6E D1 A6 15 AB 8A 6A A9 6A 4E 27 A9 A9
DPCM : 51 BA D2 34 AA 65 29 6E 6A 99 8A ED 2A AB AE 2A 97 AB 71 A2 C9 4A 8B AA AA 2C 95 3A A9 CA 42 97
DPCM : 4E EB 5A AA 55 8D D3 5C 9A A5 8B A3 2A 99 94 A5 A9 5A 53 2D CD AA 24 B5 AA A5 4B B3 AC 95 1E A5
DPCM : 5A 6D A9 8A 4A B9 6C 96 AA 9A 96 A6 3A AA 52 95 D2 A9 6A B5 B4 AA 6A 95 A6 A6 AA AA 6A 4B A9 65
DPCM : AA AA AA 55 65 59 96 A6 B4 92 5A B2 95 AA 5A B5 AA A6 2A AB A6 D6 CA AA 32 9B B4 5A AA 92 AA 2A
DPCM : 4B 25 B5 A2 59 95 95 EA EA B2 AA AD 6D B4 68 AA A9 4C 8B 55 5A AA AA AA D4 E8 48 75 14 97 6E 5A
DPCM : 55 AD AA 55 B5 5A 52 57 56 65 AA 4A 55 AA AA 52 A9 5A AE AA 52 65 2A AB AA A9 53 AB CD 5C 96 B2
DPCM : A8 AA AA EA 54 59 A9 56 52 95 2D AA 2D 4D 53 A9 AC B5 AA D6 AA CA 4A D6 4A 96 A5 AA AA 4A AB AA
DPCM : AA 56 AA AA AA AA B2 B4 52 55 AD 34 AB AA AA AA AA 96 6A 56 6B 55 A9 32 2D 95 4A 4B A9 26 B3 54
DPCM : 4D B5 6C 65 AB 6A 55 AD 6A A5 56 69 8A 65 AA CA 34 55 55 55 55 AA AA 6A 65 59 AA AE 5A 55 AD 55
DPCM : AA 6A B5 4C 52 53 AA 52 4D 4D 4D 53 95 AA 5A 56 A5 AA B2 D5 AC AA D6 6A D5 A8 A9 4A B5 AA AA 4A
DPCM : AA 54 89 55 55 55 B5 A9 5A 55 55 AD DA AC AA AA AA A5 6A 2A 55 93 AA 52 AA AA 52 4D CD 5A AD AA
DPCM : 9A AA AA AA 6A A9 AA 55 96 A6 AA B5 54 55 AA AA AA AA 2A B5 52 4D D5 B2 2A AD 4A AD AA AA AA 69
DPCM : 56 A5 5A 56 65 69 AA AA AA AA AA 54 55 55 55 AB AA AA AA AA AA AA AA AA AA AA AA AA AA AA AA 6A
DPCM : 55 55 5A AA AA D2 4A 4B 55 AB AA AA AA AA CA AA AA B2 AA AA AA B5 AA 2A A5 65 A9 AA AA AA AA AA
DPCM : AA 54 A5 95 56 B5 AA AA AA AA AA AA AA 6A 5A 55 55 AA AA AA 2A 55 55 B5 AA AA AA AA 59 55 55 A9
DPCM : AA AA AA AA AA B4 AA AA AA AA AA AA 56 65 9A 95 AA AA B4 AA AA AA AA AA AA A6 AA AA AA AA AA AA
DPCM : AA AA AA AA AA AA AA AA AA AA AA AA AA AA AA AA 59 A5 AA AA 54 55 55 55 55 AB AA AA AA AA 6A 69
DPCM : 55 6A A9 AA AA AA AA AA AA AA AA 4A 55 AB AA AA AA AA AA AA AA AA 6A 99 A6 AA A9 AA AA 2A AB AA
DPCM : AA AA AA AA AA AA AA AA AA AA AA AA AA AA AA AA AA AA AA AA AA AA AA AA AA AA AA AA AA AA AA AA
DPCM : AA AA AA AA AA AA AA AA AA AA AA AA AA 52 AB AA AA AA AA AA AA 6A A9 AA A6 AA AA AA AA AA AA AA
DPCM : AA B2 AA AA AA AA AA AA 5A 6A A9 AA AA AA AA AA AA AA AA AA AA AA B2 AA AA AA AA AA AA 2A AD AA
DPCM : AA AA AA 5A AA AA AA AA AA AA 4A AB AA AC AA AA AA AA AA AA AA AA AA AA AA AA AA AA AA A9 AA AA
DPCM : AA AA AA AA AA AA AA AA AA AA AA AA AA AA AA AA AA AA AA AA AA AA AA AA AA AA AA AA AA AA AA AA
DPCM : AA AA AA AA AA AA AA AA AA AA AA AA AA AA AA AA AA AA AA AA AA AA AA AA AA AA AA AA AA AA AA AA
DPCM : AA AA AA AA AA AA AA AA AA AA AA AA AA AA AA AA AA AA AA AA AA AA AA AA AA AA AA AA AA AA AA 6A
DPCM : 55 A5 AA AA AA AA 2A 55 55 55 55 55 55 AB AA AA AA AA 56 55 55 55 55 A5 AA AA AA AA AA AA B4 54
DPCM : 55 55 55 55 B5 AA AA AA AA 55 55 55 95 56 55 A9 AA AA AA AA 2A 55 55 55 55 AB AA AA AA AA AA AA
DPCM : AA AA 55 55 D5 54 55 56 A9 AA AA AA AA AA 4A 55 55 55 55 AD AA AA AA AA AA AA 55 55 55 AA 96 AA
DPCM : AA AA AA AA AA 52 53 55 B3 AA AA AA AA AA AA AA AA AA AA AA AA AA AA AA AA AA AA AA AA AA AA AA
DPCM : AA AA AA AA AA AA AA 2A B5 AA AA AA AA AA 5A 55 A9 A5 AA AA AA AA AA AA AA AA AA AA AA AA AA AA
DPCM : AA AA AA AA AA AA AA AA AA AA AA AA AA AA AA AA AA AA AA AA AA AA AA AA AA AA AA AA AA AA AA AA
DPCM : AA AA AA AA AA AA AA AA AA AA AA AA AA AA AA AA AA AA AA AA AA AA AA AA AA AA AA AA AA AA AA AA
DPCM : AA AA AA AA AA AA AA AA AA AA AA AA AA AA AA AA AA AA AA AA AA AA AA AA AA AA AA AA AA AA AA AA
DPCM : AA AA AA AA AA AA AA AA AA AA AA AA AA AA AA AA AA AA AA AA AA AA AA AA AA AA AA AA AA AA AA AA
DPCM : AA AA AA AA AA AA AA AA AA AA AA AA AA AA AA AA AA AA AA AA AA AA AA AA AA AA AA AA AA AA AA AA
DPCM : AA AA AA AA AA AA AA AA AA AA AA AA AA AA AA AA AA AA AA AA AA AA AA AA AA AA AA AA AA AA AA AA
DPCM : AA AA AA AA AA AA AA AA AA AA AA AA AA AA AA AA AA AA AA AA AA AA AA AA AA AA AA AA AA AA AA AA
DPCM : AA AA AA AA AA AA AA AA AA AA AA AA AA AA AA AA AA AA AA AA AA AA AA AA AA AA AA AA AA AA AA AA
DPCM : AA AA AA AA AA AA AA AA AA AA AA AA AA AA AA AA AA AA AA AA AA AA AA AA AA AA AA AA AA AA AA AA
DPCM : AA AA AA AA AA AA AA AA AA AA AA AA AA AA AA AA AA AA AA AA AA AA AA AA AA AA AA AA AA AA AA AA
DPCM : AA AA AA AA AA AA AA AA AA AA AA AA AA AA AA AA AA AA AA AA AA AA AA AA AA AA AA AA AA AA AA AA
DPCM : AA AA AA AA AA AA AA AA AA AA AA AA AA AA AA AA AA AA AA AA AA AA AA AA AA AA AA AA AA AA AA AA
DPCM : AA AA AA AA AA AA AA AA AA AA AA AA AA AA AA AA AA AA AA AA AA AA AA AA AA AA AA AA 55 55 55 55
DPCM : 55
DPCMDEF  51   577 "HOPES.dmc"
DPCM : A9 ED FE 01 90 30 CF 03 38 80 8F C1 FF FF C0 7F FC 5F FF C3 03 FC 40 00 00 70 00 7C 00 00 14 07
DPCM : 13 FF 01 FD E3 FF FF FF 3F FF 7F 2E 72 E1 8F FF F8 F8 FF 3F 08 80 03 C0 03 00 00 A9 00 00 88 0B
DPCM : 00 00 00 00 C0 7A DC C1 F7 B9 FD FF FF FF F7 BF 1E BE 60 1D E8 4B F8 8B 09 63 24 0A 78 F0 01 30
DPCM : D7 52 A2 05 1A 40 03 C4 18 8F 2B E6 7B 43 7A EB E3 0A 3F F3 51 35 D2 A1 58 05 3E CE 0B A7 A6 03
DPCM : 59 BF 16 7E DE AA FA E5 BF F8 9F F5 E8 F5 1A 9D BA 9A 52 95 E8 30 D4 C1 14 84 0B 28 08 88 00 00
DPCM : 12 50 04 00 00 00 00 00 00 00 00 00 D6 5F DF 7F F7 7F FF B7 FA EF 2F F7 EA FF FF FF FF FF FF 7E
DPCM : E4 88 0A 60 42 48 08 14 A4 80 42 94 20 A9 A0 29 7A D1 56 B5 AD DA 2E 6F AB 7B D6 76 75 5D D6 75
DPCM : BA CB 5B B5 4D AB 95 16 53 2A 25 95 92 21 25 11 4A 90 04 22 12 25 A1 2A B2 D4 B4 DD BA 75 DF DE
DPCM : 7B FB F5 EE 7B 7B 6F 77 5B B7 AD 4A A5 52 A5 52 A5 4A 95 2A 91 08 22 04 91 04 11 A4 84 92 54 4A
DPCM : 52 95 6A 69 65 AD AA B6 B6 DA AE 6D 5B DB DA 56 5B 55 AB 6A AD AC 55 D5 AA 95 55 AB 6A 55 55 95
DPCM : 95 AA 4A 55 A5 4A 59 A5 AA 54 55 AA 54 55 55 55 55 55 55 55 55 55 55 55 55 55 55 55 55 55 55 55
DPCM : 55 55 55 55 55 55 55 55 AB AA AA AA AA AA AA 2A 55 55 55 55 55 55 A9 AA AA AA AA AA 54 B5 AA AA
DPCM : AA AA AA AA AA AA 5A 55 55 55 55 55 55 55 B5 AA AA AA AA AA AA AA AA AA 2A 55 55 55 55 55 55 55
DPCM : 55 55 55 55 55 55 55 55 55 55 55 55 55 55 55 55 55 55 55 55 55 55 55 55 55 55 55 55 55 55 55 55
DPCM : 55 55 55 55 55 55 55 55 55 55 55 55 55 55 55 55 55 55 55 55 55 55 55 55 55 55 55 55 55 55 55 55
DPCM : 55 55 55 55 55 55 55 55 55 55 55 55 55 55 55 55 55 55 55 55 55 55 55 55 55 55 55 55 55 55 55 55
DPCM : 55 55 55 55 55 55 55 55 55 55 55 55 55 55 55 55 55 55 55 55 55 55 55 55 55 55 55 55 55 55 55 55
DPCM : 55 55 55 55 55 55 55 55 55 55 55 55 55 55 55 55 55 55 55 55 55 55 55 55 55 55 55 55 55 55 55 55
DPCM : 55
DPCMDEF  52   321 "KickMaster_C200.dmc"
DPCM : B5 70 05 FF F0 0F FF 00 F0 0F B8 5F F0 F0 7F F5 00 0F 00 07 84 B0 00 50 07 A8 0F F0 AB 05 0F FF
DPCM : F5 4F FF FF 7F FF FF F7 8F 4F F7 F0 0A AF 48 0B 84 00 80 00 00 00 00 0A 0B 00 00 A8 40 A0 44 55
DPCM : 55 55 B7 AB F5 AB F7 AB FF 7B FF F5 FF FB BB BF 0F FF FF 5F FF 78 F7 F0 7A 74 07 57 A4 8A 40 85
DPCM : 40 0A 80 50 08 05 0A 80 00 00 0A 08 A0 0A 80 50 04 74 04 0B 0F 0F AB 5B 75 57 5F F7 57 BF 7F 7B
DPCM : FF F5 7F 7F FA 7B BF 7B AF 57 F7 5B FA B5 7A F0 55 55 87 57 A8 5A 48 74 80 AB 00 55 40 07 A5 40
DPCM : 58 A8 40 0A 45 A8 50 84 05 55 84 40 45 8A 44 55 A8 85 B4 AA 44 0F 4F B5 4A BB 5A 57 AF 77 75 BB
DPCM : 75 B7 7B B7 77 AF 5F B7 77 B7 5B 5F BB 7A 57 BB 7A 75 F0 B5 54 55 B5 4A 45 85 A5 A8 44 A8 A8 50
DPCM : 88 4A A0 48 44 A8 04 85 0A 54 85 44 07 A5 8A 4A 45 47 47 74 74 74 58 75 45 5F F4 F4 78 47 75 F5
DPCM : BA A5 5F B5 7A 55 77 8F A7 55 57 57 74 BB 8A 5B 75 54 5A A5 AA 5A AA AA AA AA 8A AA 0B 55 4B 54
DPCM : 55 55 55 55 75 74 70 45 55 55 55 75 45 75 45 55 55 AA 8A 87 AA B4 54 4B 55 55 55 44 55 55 55 5A
DPCM : F0
DPCMDEF  53   833 "Snare.dmc"
DPCM : 00 00 00 00 FC FF FF 83 10 00 00 00 CD 00 FA FF FF FF FF 0F 09 11 00 00 00 E0 BB BB FF FF FF 9F
DPCM : 31 04 62 00 00 00 EC DE 2F 6C C4 FC FD FF FF 7F 00 82 88 08 00 00 00 FE 7B F7 FD FF FF 7F 3C 10
DPCM : 30 46 18 00 00 E0 48 7E 9C FD F1 68 FE F9 3F FF FF 19 01 08 62 08 00 00 00 FC EF 7D DF FE E6 BF
DPCM : BF E3 41 80 E0 30 18 04 30 20 8C E3 8F E7 C8 A3 F9 C9 FF F5 F5 E6 84 C1 00 07 02 00 00 63 FF D7
DPCM : EF FE EF 8F 3F 83 1B 01 38 04 47 E0 18 24 72 CE 39 E3 30 76 3B D7 71 DF 43 3E C6 81 1C 00 00 06
DPCM : C8 C4 1D FD FF CF 7F F0 F4 18 E7 20 1C 1E 13 68 80 73 83 27 73 E3 C8 B1 E7 3E FA 23 FE E1 58 C6
DPCM : 88 19 60 C2 61 38 E0 CD F1 F9 F6 F9 F4 E1 E1 E3 B0 19 70 3C 12 30 1C 18 C7 7F 3C E1 67 EE 30 FE
DPCM : F8 9C 39 07 6E E0 C0 00 22 D8 F1 1C 3E FF BF 79 1E 7E 0E 18 0E 8F 09 08 76 EC 48 6C 1C E7 62 DE
DPCM : CD DD 31 DC 18 CC 40 1C 60 0C 1C 08 CD 1F E5 DD B9 1D BE 38 61 F0 81 8F 63 9C B3 19 31 0E 39 9A
DPCM : 1B 7E 46 F0 33 CF 91 B1 8E 11 9E 4D DC 3E 30 27 9A 66 C6 38 FC 18 8F 38 CC FD E3 C1 19 33 07 4C
DPCM : 86 F3 D8 3B CD B8 99 38 26 F4 E0 19 25 E7 DC 79 3C CE 5C 18 8C 61 E3 C0 71 E3 F9 F8 78 CC 1C 1F
DPCM : D2 81 C6 89 0D 7F 7C C6 38 1C 3B 86 99 09 8E 1F C3 F1 E7 7D C4 1D 07 03 C7 31 90 E6 8D C7 67 D8
DPCM : F8 E0 6E 8C F1 B0 1D AE C3 07 8E 24 CE 36 26 7C C6 E0 C7 C7 6C 63 53 38 4F E7 C8 4C 31 4C E2 C3
DPCM : 85 83 77 7E F8 0B CF E3 98 71 18 12 13 26 8F 8E E3 1E 76 E3 7B E2 98 28 97 3C A0 1E C3 8D C7 33
DPCM : 6F 1C 99 3C 2C 86 B9 CC CD 71 33 31 1D 1E 1C 3C B8 8F 87 0F DE 38 1C B6 F1 80 33 77 7C 8C C1 E7
DPCM : 3C 26 C4 B1 81 33 37 B3 73 67 0E 1C C7 0C E7 14 2C 3E BC B3 39 EE E8 22 0E 12 C6 71 F8 F9 F1 F1
DPCM : F0 1C 87 F1 18 0A D3 31 CB 4C 1F 71 88 7B 8E 1C 3B B9 7C 0C 7F 58 E4 63 F0 60 B8 70 92 77 9C 71
DPCM : CE C7 A9 1C C3 C6 30 8E E6 99 3B 6E E4 63 64 18 CF 10 C7 89 DD 78 8E 63 1F 7F E2 46 78 C4 0C 66
DPCM : 08 3E 1C E7 71 73 D6 F1 DC E0 1D C5 11 C7 66 C4 CD 70 5C F0 48 76 66 37 9E 0D 9F 1C 87 17 EE 38
DPCM : 31 CC C8 8C 65 87 71 F1 66 9C C7 E6 B8 B8 1E B2 E0 CA 85 23 9B B9 62 9C C3 C9 19 C3 9B E3 D8 FA
DPCM : CC F0 70 C4 29 A6 43 1C E7 1C 8E 1B F3 8C 1B C7 71 9A 1A C7 71 87 C3 96 11 E3 30 A7 AB 3D B2 C3
DPCM : C7 61 33 93 83 58 0F 8E D3 9A 1D A7 E3 C3 E2 31 72 38 8E 1C 87 D1 D9 99 E7 C4 71 36 1D 1B DC B1
DPCM : 30 C6 85 47 4D EE CC 98 E6 CC 69 99 3C BA 8C 1D 39 74 B8 64 9C A9 86 1B CD B1 6D 1C CE 0D 3B 71
DPCM : A3 3A 26 33 75 6C 51 0E 5E 8A 57 CC 59 CE B1 8E D3 68 73 14 EE E0 19 4B D5 11 33 DD E0 9A 7C 3C
DPCM : C6 19 B2 32 8B 95 93 B3 70 66 DC E0 E8 91 29 46 C7 58 1C CF 19 CF 1C 56 85 D3 41 C4 78 DC 38 CE
DPCM : E4 C6 12 E7 18 37 9C C3 1D 6D 1B 35 3A A6 66 B8 24 E9 68 1D 6E 54 3D 9C 2D 26 E3 85 C3 39 1C E6
DPCM : 00
DPCMDEF  54  3089 "timphi.dmc"
DPCM : AB AA AA AA AA 2A 55 55 55 55 55 55 D5 FF FF FF FF 00 00 20 00 00 00 20 00 80 FF FF FF FF 24 02
DPCM : 00 80 9E FC FF 3F 00 74 AD 04 42 ED FF FF FF FF FF 7F 10 F6 07 00 F0 03 00 00 00 C0 02 FC 1F 80
DPCM : AA 56 55 AD AA 4A 1F B8 FF FF FF FF 92 D7 29 01 81 00 68 02 00 FC FF FF FF FF FF 1F B0 53 2A 00
DPCM : 8C 00 49 00 00 00 00 00 BF FF 81 FE 27 8A FB FF FF FF FF BF 00 00 00 C0 FF 6F 5B 08 FD 5F 6F 00
DPCM : 92 04 00 E0 57 55 D5 AA AA AA 2E 77 07 20 04 00 00 00 FE A7 EE EF 5F 6D FF FF FF E5 7E 91 F5 22
DPCM : 00 16 01 00 F8 FF 1F 00 04 00 2A FA BD FE 80 FF 04 00 E8 09 00 EE DF 07 FC FF FF BF FB AF FE 13
DPCM : 09 F0 04 1A 5E 89 40 00 00 AA AA AA AA 6A 55 34 82 D6 6B 2F 04 00 E1 FD 47 FF FF 7F 00 92 6A 02
DPCM : FA DF FF FE 84 FC 7F 55 04 00 7E E8 1F 00 EC 17 00 00 20 02 90 F4 FF 04 FA F0 6F 7F BB A4 FD FF
DPCM : 40 FF 3A 00 20 E5 FF 49 7F 02 FC 01 00 00 55 55 55 55 55 55 A5 7F 55 E9 FF 00 00 00 24 5B 97 97
DPCM : 3D D4 FF 5F 69 2A BA EB BF EE E8 57 0F C0 83 0E A0 04 1F E0 8E 24 57 00 C0 3F D0 7E F0 FF 00 80
DPCM : 42 F7 BA 7F FD 9B DA 7A A9 07 B0 1F 52 75 AF 7B 01 00 A0 AA AA AA AA AA AA D6 05 A0 85 FD 11 8E
DPCM : 95 4A A2 DF 2F 80 76 7F D0 A7 D6 5B 4B 28 B5 D6 7F A1 FA 0F 10 60 15 FF 40 1F D2 6E 81 08 35 00
DPCM : 1B E4 7F 0B D1 3B 94 D2 57 FA A3 FD B7 12 40 FD 43 29 D0 96 B5 88 43 FD AA 52 55 55 55 55 55 55
DPCM : 55 15 62 09 6D AB A0 D2 EE 56 41 A0 7F C4 12 E0 FF 56 DF 21 E2 8F 58 C9 FD 0B A1 FE 4B 52 1F 80
DPCM : 0E 91 BE 54 D5 49 A2 24 79 05 BC C5 FE A4 70 85 FB 5A D5 24 F7 AA 13 D6 EF 05 20 C5 55 55 55 55
DPCM : 55 45 55 5F 21 FA AE 82 27 29 45 52 09 F0 BD 5F 44 2D EE 15 4A B4 1F D5 55 51 FF 84 1B 62 6B 57
DPCM : ED C4 D2 12 B1 97 2A D4 5A 54 09 F5 55 A4 02 6D 4B 54 AD B7 09 EF 53 4B AA D6 4A 6F 09 DF BF D4
DPCM : 01 A8 AA AA AA AA AA 6A AB 84 C0 2A FD 0F 00 7B 2B 8A A8 EA 45 FB AA 2A EA 82 B7 52 FC 03 76 D5
DPCM : 0E 6A BB 56 B5 12 FA 21 BD 6D 49 42 25 AA 2D 40 7D 09 D5 AD D4 2F 00 55 55 D6 D5 DE BD B6 A0 B5
DPCM : DA 91 F6 56 80 7F 55 A9 AA AA AA AA 2A C0 1E 72 09 B8 3F 12 61 A7 5A 22 BA A9 16 DA 57 D4 2A AD
DPCM : B5 AD 22 54 ED DA 0D B5 5B 25 D4 EA B6 00 A8 6D ED 54 EF 94 00 C0 AF 4A 4D 84 5F 15 A9 AA B7 57
DPCM : 01 EC DF AA 4E AD AA D5 55 AA 56 AA 54 55 55 55 55 55 1B A1 96 D2 44 7A 55 94 68 8F 94 55 B6 11
DPCM : 29 B7 6A D5 2D ED AA 94 F5 AA 50 55 72 AB B6 2B A4 AA B5 AA B5 44 AA 15 E1 57 51 45 AA 29 90 7A
DPCM : 6B 15 A2 D6 AA 8A FF B4 49 6D D9 AA 55 D7 13 B2 AA 54 55 55 55 55 55 79 85 A4 AA 29 4D 55 05 D4
DPCM : AE 91 2A 55 5D 2B EC 15 72 B5 57 D5 2B 54 AA AA 2B 65 F5 4A 69 75 DA 92 54 A9 52 5B 55 A5 56 95
DPCM : 50 4A CA AD 2A 49 95 E4 BD AA D6 4A B5 54 AC D5 DE 8A 4A BB 83 AA AA AA AA AA AA AA AA AA 54 55
DPCM : DD 9B 90 4A 55 B4 12 2D 55 85 54 B5 AD AA A2 56 5B 49 09 ED 5B AB 55 55 AD 72 2B 49 B5 55 1A D5
DPCM : AF 40 B5 D5 96 92 4A ED 44 68 D7 29 95 48 2B A4 BA D1 5E 48 AD 15 F5 DF A2 52 55 55 55 55 55 55
DPCM : D5 B8 D2 77 A5 54 A4 5A 4D A1 AE 44 55 55 B0 9E A0 4A 5B 55 56 55 D5 5A 93 5A AD AA 5A AD AE 2A
DPCM : 2A D7 AA 14 D5 5B 12 69 57 B5 12 D5 AE 2A 49 55 95 24 B5 AD A4 52 25 49 EA 6F CB 5A 09 ED 6D 55
DPCM : 55 55 55 55 55 55 B5 DA 4A 55 45 AD AB 4D 91 54 A9 54 55 A1 52 75 42 A8 D6 5A 55 55 75 55 D1 6E
DPCM : 55 55 55 AD 1A 55 F5 AA AA A4 5A 6A 35 A5 AA 95 AA AA A5 5A 52 65 55 15 4A AA 55 69 6D A9 54 4A
DPCM : ED 5A 75 55 55 55 55 55 55 D5 6A 55 95 AC B7 6A 95 B4 54 AB A4 AA B4 24 55 A2 62 AD 94 5A 5B A2
DPCM : AA 55 B5 56 55 5B 55 55 B5 B6 54 55 49 6D 55 55 A9 FA 24 AD 50 55 D5 AA D4 AA AA 4A 91 6A 55 57
DPCM : 41 A5 AA AA 96 D5 6A 55 AD AA AA AA AA AA AA AA 74 DB BA 55 2A 6D 29 55 5B 29 29 69 49 95 5A 55
DPCM : 95 14 AA AA AA 55 6A 5B 27 55 65 6D AD 4A D5 55 55 55 EA AA 5A 49 2A D5 6A AD 48 D5 56 54 B5 B4
DPCM : AA 2A 55 95 12 AB 2A A5 5A AD 92 AA DA AA 56 55 55 55 55 55 55 55 55 55 55 B5 B5 55 DA AA AA AA
DPCM : 6E 4B AA 2D A5 52 4A B5 29 51 A9 94 55 55 A9 B4 4A B5 94 56 5B 55 B5 56 5B 55 AA EA 56 A5 A4 6A
DPCM : 95 56 B5 AA 4A 52 B5 AA 2A B5 55 55 52 AA 4A D5 52 55 55 55 55 55 55 55 55 D2 AA 56 49 B5 B5 4A
DPCM : 55 75 B5 BA B5 AA AA 56 4A 59 5B 93 A4 A8 AA AA 54 55 4A A9 92 2A D5 BA 96 AA 5A AB A5 AA 6A 5D
DPCM : 55 A5 55 55 6A B5 A6 54 95 56 55 95 5A 55 49 A5 5A AD 54 B5 2A 95 4A 55 55 55 55 55 45 A5 AA AA
DPCM : 6A 55 45 55 6B AD AA 55 B5 5A 2D 55 77 AB AA 94 D2 2A A9 52 2A 55 15 29 75 55 53 52 65 AD 96 A4
DPCM : ED 6A 55 A9 55 AB A9 6A AD AA 4A 35 55 D6 52 69 55 A5 54 55 AB 6A AA 52 95 6A 95 AA AA AA AA AA
DPCM : AA AA AA 6A 55 A2 A4 AD 52 B5 6A B5 AA AA 55 6B B5 B5 54 56 6D A5 4A B5 4A 29 49 55 29 55 55 55
DPCM : 95 54 55 D5 AA 52 AD B6 AA AA D6 5A 55 95 58 AB 52 55 55 B5 2A 55 54 AD 95 54 B5 4A 55 55 55 D5
DPCM : 4A 55 55 55 55 55 55 45 A5 AA B5 94 CA 5A 51 55 B5 D6 5A B5 52 6B B5 AA 5A AB AA 4A A9 5A A5 56
DPCM : 92 52 95 A8 54 6A AD AA 54 D5 AA AA 6A AB AA AA 56 6D D5 54 B5 52 55 A9 54 BB 4A A5 5A 95 4A A5
DPCM : D5 2A 55 55 55 A5 AA AA AA AA AA AA AA AA 5A A9 2A 15 55 AD AA 55 95 5A AB 5A D5 6A AD 5A 55 D5
DPCM : AA AA 4A 55 95 52 52 55 55 95 A4 A4 AA 56 55 D5 5A AB 52 D5 56 55 55 55 D5 56 55 B5 56 2A 45 6D
DPCM : 55 29 55 AB A5 52 55 55 55 55 55 55 55 55 55 55 55 55 55 55 55 55 55 55 55 25 55 55 55 AD 54 AA
DPCM : 4A D5 AA AA AD B5 AA AA B6 6A D5 AA 52 55 A9 AA 2A 55 4A 55 A5 54 2A D5 AA 52 A9 5A 6B A5 D6 6A
DPCM : 55 55 55 B5 56 69 55 55 55 55 55 B5 4A A9 54 55 55 55 55 55 55 55 55 55 55 55 B5 4A 55 55 55 55
DPCM : A5 54 A5 2A 55 B5 5A AD AA 52 55 B5 55 AB AD AA AA 6A 55 AB AA 94 4A 49 55 55 55 95 4A 49 55 55
DPCM : 55 D5 5A 55 AA DA 5A 55 AD AA 56 55 A9 56 55 55 2A B5 2A 55 55 55 55 55 55 55 D5 AA A5 54 B5 52
DPCM : 55 69 55 55 55 55 AA 4A A9 5A A9 55 A5 AA 6A 55 6B 55 15 55 6D 2B AD DA AA 52 95 AA AA 94 4A 95
DPCM : 2A 95 AA AA AA AA 54 A5 D5 AA B5 56 55 B5 AA AA AA 56 95 AA AA 6A 55 A5 AA AA AA AA AA AA AA AA
DPCM : 4A 55 55 55 55 55 55 55 55 A9 AA AA AA AA AA 2A A5 AA AA AA 5A 55 55 AB 55 B5 DA AA AA 54 B5 AA
DPCM : 55 55 55 4A 49 55 29 55 A5 4A 55 D5 AA AA 55 95 AA D5 AA 5A 55 6B 55 55 55 AA 56 55 AA AA AA AA
DPCM : AA AA AA AA AA AA 54 55 55 55 55 55 55 55 55 55 55 95 4A 55 55 55 55 55 55 55 AA AA 56 6B 55 B5
DPCM : 6A AD 6A B5 52 A9 54 55 55 55 95 4A A5 52 AA AA AA AA 52 D5 AA 56 D5 5A 55 55 55 D5 6A AD 52 55
DPCM : 55 95 52 55 55 55 55 55 55 55 55 AB 2A 55 55 55 55 55 55 55 55 55 55 55 55 A9 4A 55 55 A9 AA 56
DPCM : B5 AA AA 6A 55 55 B5 56 AD AA 5A 55 59 25 2A 95 52 55 55 55 52 95 2A 55 55 55 6B 55 AB AA AA 56
DPCM : AB A5 AA AA A5 AA 5A 55 55 95 AA AA AA AA AA AA AA AA AA AA 52 55 55 55 55 55 55 55 55 55 55 55
DPCM : 55 55 55 2A AD AA AA 52 55 55 95 AA 56 AD 55 55 55 B5 AA 55 AD AA AA AA 4A 55 55 A9 54 A5 54 2A
DPCM : AD AA AA AA AA AA 5A AD AA 55 55 B5 52 55 55 55 55 55 55 B5 AA 55 55 A5 AA AA 4A 55 55 55 55 55
DPCM : 55 55 55 55 55 55 A9 56 55 55 55 55 29 55 55 55 55 55 55 B5 AA 56 55 AB 56 AB AA AA 54 AB 4A 55
DPCM : 55 2A 55 55 A9 52 A5 52 55 D5 6A 55 B5 AA AA AA 55 55 55 55 55 55 55 55 B5 AA AA 55 55 AA AA AA
DPCM : AA 52 55 55 55 55 55 55 55 55 55 55 55 55 55 55 55 AA AA AA 2A 55 55 55 AD AA AA 55 55 D5 AA 6A
DPCM : B5 AA AA 4A 55 55 55 A5 2A 54 A5 54 55 A5 AA AA AA AA AA D5 5A 55 55 55 55 55 55 55 55 55 55 B5
DPCM : AA 95 AA AA AA AA 4A 55 55 55 55 AA 5A 55 55 55 4B 55 55 A9 6A 55 55 55 A5 AA AA 52 55 AB AA 2A
DPCM : D5 AA 55 D5 AA 56 55 2B 55 AB 2A 55 55 A9 52 55 95 4A 55 A9 AA AA AA 6A 55 B5 AA 5A 55 55 55 55
DPCM : 55 55 55 AD AA 56 56 55 AA 2A 55 D5 AA AA AA AA 4A 55 55 95 56 55 55 55 55 55 55 55 55 A5 56 55
DPCM : AA AA AA 4A AD AA AA 56 55 55 55 AB 55 AD 54 B5 2A 55 55 55 A9 54 A5 2A 55 A9 5A 55 55 A5 56 B5
DPCM : 5A 55 55 55 55 55 55 55 55 55 55 55 55 55 55 55 55 AB 55 55 55 55 A5 4A 55 55 55 55 55 55 55 55
DPCM : 55 55 55 55 55 55 55 55 55 55 55 A5 AA AA AA AA AA AA AA 5A 55 55 AB AA 55 55 55 B5 2A 55 55 AA
DPCM : 4A 55 55 55 50 55 55 55 55 55 55 55 55 56 55 55 55 AD AA 5A 55 D5 AA AA AA AA 5A 55 55 95 AA 52
DPCM : 55 55 55 55 55 55 55 55 55 55 55 55 55 55 55 55 55 55 55 55 AA AA AA AA AA 5A 55 55 55 AB 6A 55
DPCM : 55 55 55 55 55 55 95 2A 55 A5 52 55 55 AD AA AA AA 52 55 55 A9 55 55 AD 6A 55 55 55 AD AA AA AA
DPCM : 5A 55 A9 AA AA 52 55 55 55 55 55 55 55 55 55 55 55 55 55 55 55 55 55 55 55 55 AA AA AA AA 4A B5
DPCM : AA 55 D5 AA 56 55 55 55 55 55 55 A9 2A 55 55 55 55 55 55 55 55 55 55 2A 55 55 A9 56 55 55 AD AA
DPCM : 55 55 AB AA AA 2A AA AA AA AA AA AA 54 55 55 55 55 55 55 55 55 55 55 55 55 55 55 55 55 55 55 AA
DPCM : AA AA AA AA AA AA AA 6A 55 55 AB 5A 55 55 55 55 95 AA AA 2A 55 55 55 55 55 55 55 55 AA AA AA 52
DPCM : 55 59 A5 55 D5 AA 55 55 55 AD AA AA AA AA AA 54 55 55 55 55 55 55 55 95 5A 55 55 55 55 55 55 55
DPCM : 55 55 55 55 95 AA AA AA AA AA AA AA 5A 55 55 55 55 AB AA 55 55 55 55 55 AA AA AA AA AA AA AA AA
DPCM : 54 55 95 AA 52 A5 AA 56 55 55 B5 AA AA 6A 55 B5 AA AA AA AA AA AA 4A 55 55 55 55 55 55 55 55 55
DPCM : 55 55 55 55 55 55 55 55 55 55 55 55 AA 2A 55 AD AA AA AA AA 55 55 B5 AA 5A 55 55 A5 AA AA AA AA
DPCM : AA AA AA AA AA AA AA AA AA AA AA 4A 55 55 A5 52 95 AA AA 6A 55 55 AD 6A 55 55 55 55 55 B5 AA AA
DPCM : AA 2A 55 55 55 55 55 55 A9 AA 55 55 55 55 55 55 55 55 55 55 55 55 95 AA AA AA 52 55 AD AA AA 56
DPCM : 55 55 B5 AA AA AA AA AA AA AA AA AA AA 56 55 A9 52 55 55 55 55 A5 52 55 55 AA 55 55 AB AA 5A 55
DPCM : 55 AD AA 2A 55 55 AB AA 2A 55 55 55 55 A9 56 55 55 55 55 55 55 55 55 55 55 55 55 55 A5 AA AA AA
DPCM : AA AA AA AA AA AA 56 55 55 55 55 55 55 55 55 AB 5A 55 55 5A 95 AA AA 2A 55 55 55 55 AA 52 55 55
DPCM : 95 56 D5 AA 56 55 55 D5 AA AA AA AA AA AA 54 55 55 55 55 55 55 55 55 55 55 55 55 55 55 55 55 55
DPCM : 55 55 A5 AA AA AA AA AA AA AA AA 5A 55 55 55 55 55 55 55 55 55 55 AD AA 56 55 55 55 AA AA 4A 55
DPCM : 55 A5 AA 2A 55 55 55 55 D5 AA AA 55 55 55 AD AA AA AA AA AA AA 54 55 55 55 55 55 55 55 55 55 55
DPCM : 55 55 55 55 55 55 55 55 55 55 A5 52 55 55 AB AA AA AA AA AA AA AA AA AA 55 55 55 AD AA AA AA AA
DPCM : 6A 55 55 95 AA 4A 55 55 A9 AA 2A 55 55 55 AB AA 6A 55 55 55 55 AD AA AA AA AA AA 52 55 55 55 55
DPCM : 55 55 55 55 55 55 00 00 00 00 00 00 00 00 00 00 00
DPCMDEF  55  2257 "TUBULARbell.dmc"
DPCM : 55 55 55 55 55 55 55 55 95 5A 55 55 95 56 55 55 55 55 55 55 55 55 55 55 55 55 55 55 55 55 55 55
DPCM : 55 2D B5 34 5C B1 55 55 2D 55 55 4D A3 55 55 5C 65 96 51 66 39 D5 2A 97 6E D6 66 3A A6 32 8B AA
DPCM : 54 55 55 55 D5 54 59 AC 91 CB B8 3A F4 E1 91 E3 0F 7E E0 C1 0F FC 80 F3 79 C0 0F BE C3 00 7F 1C
DPCM : 78 78 F0 01 E0 C3 C3 1F 80 8F 07 FC 0D 3E 30 E0 7B F0 C1 C3 F7 03 1F 0E 1F 0F F8 3C 38 E0 E1 7F
DPCM : 00 C7 07 F7 00 1E 1F E0 3D F8 FC C0 F1 C3 07 0F CF 0F 3C 3C 9C 3F E0 F9 98 F0 81 F7 01 81 0F EF
DPCM : 07 38 7E 00 7E F0 F9 01 E0 C3 2F 1F 80 1F F0 70 1A FF 80 FE 7C F0 01 F8 E7 01 1F C9 0F 30 FC 0F
DPCM : DF E0 F0 1F E0 83 EF 7C 80 9F C3 05 0F FE 01 38 78 F0 07 F0 F3 03 3F 80 BF 0E F8 0F 3F 08 78 7E
DPCM : F0 C1 F1 E3 03 CF 07 8F 1E FC 3F 70 F8 E0 3D C0 E1 07 9C 03 9F 1F 18 3E FC F0 C0 F8 C1 C3 83 E3
DPCM : 0F 1E 1E 3F 3C 70 FE 70 E0 61 FE 81 83 0F 86 0F 0E 7E 20 78 F0 F0 C3 E0 83 0F 0F 87 3F 18 3C 1C
DPCM : FE 60 F8 FC C1 83 E3 0F 07 1F 3E 3E 38 F8 61 F0 E1 C1 87 C1 07 0F 1E 0E 7E 78 78 7C F0 C3 E0 E3
DPCM : 83 0F 87 3F 1F 7C 1C F8 70 E0 FF C1 C3 03 3F 03 1E 1E 78 1E F8 F1 C0 F1 C0 8F 03 E3 0F 3E 0E 7C
DPCM : 3F F0 78 F0 F1 81 FF 83 87 0F FC 0F 1C 7C E0 7E E0 F0 03 E0 03 BF 0F 80 1F F8 3C 00 FE C1 FC 61
DPCM : F0 07 F8 67 06 3F 80 3F 00 F0 07 F8 01 E1 3F E0 0F F8 FE 01 FE 61 CE 0D F8 17 70 78 C0 7F C0 B9
DPCM : 0F FC 03 FE 1F 90 1F F0 67 00 FC 81 E7 00 F3 0F CC 0F 3B 3E 60 FE E0 E0 03 FE 03 86 3F 8C 1F 1C
DPCM : FF 00 7C C0 F3 03 E0 87 8F 87 81 3F 18 3E 3C FC 00 F8 F1 C1 07 E2 0F 07 3F 1A 3E 38 FC 79 F0 E1
DPCM : E1 C7 81 0F 0F 1F 0E 7E 38 78 F8 F0 E3 E0 E3 83 07 81 1F 0F 3C 3E 7C 78 F0 F9 E0 C1 C3 CF 03 0F
DPCM : 1F 3E 1E 7C 78 70 F8 E0 E3 C1 C3 87 0F 07 1F 1F 3C 3C FC 78 E0 F1 E1 C3 83 9F 07 0F 1F 3C 1E 78
DPCM : F8 F0 F0 C0 E3 83 C1 07 1F 0F 1C 3E 78 38 F8 F0 40 E3 C1 87 07 E6 0F 0E 1C F8 3E 70 F8 F3 F0 C1
DPCM : CF 07 83 07 FE 1F 0C 7C F0 38 E0 F0 83 F0 C3 9F 0F C0 0F 1C 3C 00 7F 30 F0 8F F1 81 F1 BF 01 0F
DPCM : F8 FF 00 FE 71 7F 10 F0 1F E0 31 E3 3F 80 9F 3F 3C 03 FE 63 80 3F F8 03 00 FE 80 1F 80 F7 0F F8
DPCM : 0F 3F 1E A0 7F 70 E0 C0 FF 01 C3 0F E7 0F F8 3F 00 7C F0 FF 00 E0 03 C7 03 87 3F 08 3E 3C FC 00
DPCM : F8 E1 C1 03 E1 0F 06 1F 1E 3F 30 FC 79 F0 C1 E1 87 81 0F 0F 1F 0E FE 30 78 F0 F0 C3 C0 C7 07 0F
DPCM : 06 3F 1E 78 3C F8 E1 E0 F7 C1 87 07 9F 0F 3C 3C 7C 78 E0 F1 E0 E1 83 9F 07 0F 1F 3C 1E F8 FC E0
DPCM : F1 C0 C7 03 CF 0F 1F 1E 78 3E F0 F8 E0 F1 81 C7 07 87 0F 3C 3F 38 FC F0 F9 C0 E1 87 C3 07 0F 1F
DPCM : 00 3F 78 7C 00 F8 E1 E1 83 C7 0F 06 3F 1E 3E 70 FC 70 F0 C3 E3 83 81 1F 0E 0F 1C FC 18 F8 F0 E1
DPCM : 03 E0 8F 87 1F 03 3F 0C FC 3F F8 00 F0 F7 C1 07 8C 9F 07 FE 1C 3C 1C F0 7F E0 F0 83 EF 01 FF 0F
DPCM : 8E 07 FC 3C 00 7E E0 73 00 FC 07 C7 83 9E 1F 90 3F 7C 78 80 FF C1 E1 03 FE 07 87 3F 18 1E 78 FE
DPCM : 30 F8 E0 E3 C3 C0 0F 0E 07 0F 7E 08 3C F8 F0 41 F0 C3 83 87 83 1F 0E 7E 3E 7C 70 F8 F1 E0 C3 C3
DPCM : 87 03 1F 1E 1E 1C FC 78 F0 F0 E1 C3 C1 87 07 0F 0E 3E 3C 78 78 F8 E1 E0 E3 83 07 07 1F 0F 3C 3C
DPCM : 7C 78 F0 F1 E0 C1 83 8F 07 0F 1F 3E 1C 7C 78 F0 F0 E0 C3 83 C7 07 0F 0E 3E 3E 78 78 F8 F0 C0 E3
DPCM : C3 83 07 9F 0F 1E 3E 7C 3C F0 F0 E1 E1 C1 C7 07 86 0F 1E 3E 38 7C F0 F0 E0 F1 81 C7 87 87 0F 1C
DPCM : 1F 1C 7C 70 F8 E0 E1 C3 C1 87 8F 1F 04 3F 3C 7C 70 F8 E1 E0 C3 C3 07 86 1F 0F 3E 38 7E 3C F0 E1
DPCM : F0 C1 C1 CF 83 0F 0E 3F 07 7C 78 F8 19 F0 E3 C1 C7 83 9F 03 3E 1F FC 00 F8 7C E0 E7 E0 E3 01 FF
DPCM : 07 0F 0F FC 1F 78 78 F0 7F C0 F3 83 E1 03 FF 0F 00 3F 78 1F 00 FC 01 F8 81 E3 07 C0 0F 0F 1F 00
DPCM : 7F 30 F8 E1 F8 01 C0 CF C3 0F 8C 3F 0E 7C 78 FC 00 F0 E7 E1 83 83 9F 01 1F 1E 7E 00 F8 F8 E0 E3
DPCM : E0 C7 03 9F 07 1F 1C 7C 3E F8 F0 F0 F3 80 C7 83 87 0F 3E 1F 3C 7C F8 79 E0 F1 C3 C3 83 8F 0F 1C
DPCM : 1F 7C 3C 70 FC E0 E1 C1 E3 07 0F 0F 1F 1E 78 7E 70 F0 E1 F3 81 83 0F 0F 0F 1E 3E 38 7C F0 F0 C1
DPCM : E0 C3 87 07 87 1F 1C 3C 3C FC E0 F8 E1 C1 83 C3 07 07 1F 1E 1E 38 F8 70 F0 E0 E1 87 81 87 0F 1F
DPCM : 0E 7E 3C 78 78 F8 E1 C1 E3 83 0F 07 1F 0F 3C 3C 7C 70 F0 F9 E0 C3 83 FF 03 0E 1F 3E 1C F8 FC E0
DPCM : F0 E0 C7 03 C3 07 1F 1C 3C 7F 70 70 F8 F1 81 E3 C3 07 07 FF 0F 1C 3C 7E 7F E0 F8 31 C2 81 FF 0F
DPCM : 00 0F FE 17 00 FC 81 30 F0 F9 07 C0 C3 BF 0F 00 7F 3C 78 18 FD 01 E0 FF C3 0F C0 FF 01 1C C6 7F
DPCM : 00 F8 3F E0 41 E0 FF 01 0F 0E 3F 00 FC 7F 70 00 F0 CF 80 EF 07 3F 00 FE 3F F8 19 F8 79 C0 FF C3
DPCM : 07 03 BE 0F 3C 3C FC 3F E0 F3 C1 E3 81 FF 07 02 0F 7C 0E 70 FC F0 F8 E0 E7 03 C6 07 0F 0F F8 3F
DPCM : 78 78 E0 F9 80 C3 87 87 07 9C 1F 18 3E 78 7F C0 F0 81 E3 03 C7 0F 00 1F 3C 7C 20 FC E0 E0 83 E1
DPCM : 07 86 1F 87 1F 18 7E 3C F8 E0 F8 C3 C0 87 83 0F 0E 7F 18 7C 78 F8 01 F0 E3 C1 0F C3 1F 07 3E 0F
DPCM : 7E 30 F8 7F E0 C3 E1 FF 03 1F 0F 3F 0C FC 1F F0 F0 E0 DF 80 C7 07 3E 03 7E 1F F0 3C F8 71 C0 FF
DPCM : 81 8F 03 FF 07 38 1F F8 1E E0 7F C0 F0 01 FF 01 C4 0F F8 0F F0 7F 00 7C C0 FF 03 F0 07 3E 0E E0
DPCM : 3F 00 FE 00 FE 00 FE 1F C0 07 F8 1F 00 7F C0 3F 00 FC 07 F8 03 FE 0F 80 7F 30 77 80 FF 01 F0 0F
DPCM : FF 07 E0 FF 00 1F E0 FF 00 EC 83 FF 01 C0 1F C0 19 D8 7F 00 F2 C7 FC 00 F8 6F 60 C6 C8 1F 00 FF
DPCM : 1F 4E 00 FC 3F 20 F6 E1 0F 80 FF 03 07 01 FF 1C 8C 3F 7C 20 E0 FF C1 81 83 FF 07 1F 1F 1E 0C FC
DPCM : FE 30 F0 F0 E3 C1 C3 87 07 07 1F 3E 3C 3C 7C F0 E0 F0 E1 83 83 C7 07 0F 1E 1F 3E BC F8 78 F0 E0
DPCM : E3 C3 83 87 0F 0F 1F 3E 3C 38 FC F0 E0 E0 E1 83 83 87 0F 0F 1E 3E 3E 78 F0 F8 F0 E0 E3 C3 83 87
DPCM : 1F 0F 0E 3E 7C 38 78 F0 E1 E0 E0 C3 07 83 0F 1F 1C 3C 7E 78 F0 F0 E0 C1 C3 E3 87 07 8E 1F 0E 3C
DPCM : FC 38 70 F0 E3 C1 C1 83 0F 03 0F 3E 3C 1C 7C F8 61 FC F0 83 03 F3 07 0F 0C CF 1F 38 38 7F 78 E0
DPCM : FD E3 81 C3 FF 03 04 7F 9C 07 1C FF 04 78 F0 FB 03 E0 C7 1F 86 81 3F 10 0E 3E FE 00 F8 F8 C1 03
DPCM : E0 9F 03 9E C7 1F 10 FC 3F F8 70 F0 7F C0 C7 87 1F 03 FE 0F 38 3C F8 07 60 F0 C1 87 81 E7 0F 0C
DPCM : 1F 7E 3C F0 FC E0 E1 C1 FF 03 07 0F 8E 1F 38 7F 10 F0 E0 FF 81 C0 87 87 07 0E 3F 18 3C 78 FC 01
DPCM : F0 C3 C3 07 C3 1F 0E 3C 3C 7E 30 F0 E3 E0 83 C3 8F 03 1F 1E 3E 1C F8 78 F0 E0 E1 87 80 CF 0F 1F
DPCM : 06 7E 3E F0 78 F0 E3 80 FF 87 0F 07 7E 1F 78 7C F8 78 C0 F7 C3 C3 03 9F 0F 0C 3E F8 3C E0 F9 C1
DPCM : E1 81 CF 07 C0 1F 3E 1E F0 7F 70 F0 C1 F3 03 E1 0F 07 0F F8 7F 10 F8 E0 F1 01 E0 0F 83 07 0E 3F
DPCM : 00 7E F8 F8 00 F8 C7 C1 07 F0 1F 00 FE 1D 7E 00 FC 3B E0 03 E7 8F 81 7F 0E 1E 06 FC 03 78 FF E0
DPCM : 07 C0 FF 07 E7 80 FF 0F C0 1F F8 01 C0 FF C1 71 F0 FF 03 E0 0F 1F 1E E0 7F 70 F8 80 FF 81 E1 0F
DPCM : 80 07 FE 3F 00 3E F8 79 20 F0 83 C3 83 C3 1F 00 1F 3E 7C 10 FC F0 E0 C1 E1 87 87 1F 0F 1F 1C FC
DPCM : 38 F8 E0 F1 E3 C0 87 87 07 0F 3F 1C 3C 7C F8 61 F0 E1 C3 87 83 0F 0F 3E 1E 7C 78 F0 F1 E0 C1 C3
DPCM : C7 03 1F 0F 1E 1E FC 78 F0 F0 E0 E3 C1 C7 07 0F 07 3E 3E 78 7C F8 F0 C0 F3 C1 87 07 8F 0F 1E 3E
DPCM : 3C 3C F0 F9 E0 E1 C1 C7 03 87 0F 1E 0F 7C 7C 70 F8 E0 E1 81 E3 87 0F 0F 1E 1F 38 7C 78 F8 C0 F1
DPCM : E1 C1 07 CF 0F 0E 3E 3C 3E 70 F8 61 F0 C1 E3 07 80 0F 1F 1F 10 7E 78 F0 E0 F0 03 C1 C7 83 0F 0C
DPCM : 3F 0E 7C 78 FC 60 E0 E3 E0 83 87 9F 01 3F 3E FE 00 F8 79 E0 E3 E0 CF 00 DF 07 3F 00 FC 3F F0 71
DPCM : F0 FB 80 FF C1 87 03 FE 0F 7C 3C F8 1F E0 FF 41 F8 81 FF 03 80 0F FE 0F 10 7F 00 7C E0 F9 03 F0
DPCM : 87 87 0F 80 3F 18 7C 70 FC 00 F0 E3 E1 03 C7 1F 03 3E 3C 3E 00 F8 71 F0 E1 E1 0F 80 8F 0F 3F 00
DPCM : 7E 3C F8 78 F0 E3 C1 55 55 55 55 55 55 55 55 55 55
DPCMDEF  56  4081 "Church_A"
DPCM : 55 55 55 55 55 55 DA 0E 15 6D 15 3F 90 CF 5B 80 FF 34 E0 00 FC 1F C0 FF 05 C3 0F E3 01 10 FE 87
DPCM : FF 0F E0 1F 80 E3 07 30 3F FC FF 00 80 3F F0 03 7F C0 F0 FF 0D 00 FF 3C 04 F8 7D 80 E7 F7 00 00
DPCM : FF FF 01 00 D6 CF 5F F0 05 F8 7F 03 00 F8 C0 FF 3C F0 03 FE 1C 00 7F 80 FF FF 00 80 FF F8 00 1E
DPCM : 1C E0 FF 7F 00 04 FE 3F 00 F0 FF 01 7F F0 00 FC FF 03 00 F8 C3 3F F8 00 CE FF F1 03 00 F0 7F 78
DPCM : E0 83 7F F0 03 20 E0 7F FF 3C 00 FC 7F 02 0E 80 FF 03 FE E1 00 FC 8F 07 00 F8 FF 11 F0 8F 07 AE
DPCM : FF 07 00 F8 1F E0 C1 FF 0A E0 3F 0C 80 7F F0 87 E1 7F E0 C1 1F 80 01 FF 7F 80 87 F3 E1 1F 00 9E
DPCM : 80 FF F8 01 7E E0 FF 00 F0 61 3F 5C 90 3F 80 FF 0F 00 E1 5F FE 00 F8 1F F0 8F 0F 00 82 FF 3F 80
DPCM : 3F 9E 41 1F 14 03 C1 FF E1 85 DF E9 03 04 FE 00 FF F0 07 7D 70 FC 03 3E 00 FC 87 C1 CF 31 F0 03
DPCM : FF 01 80 FF 17 F0 07 FE 03 F8 7E 00 C0 7F F0 07 F0 FF 81 1F 0A 00 7F F8 0F 03 FE C7 07 7E 00 3C
DPCM : F8 F8 07 E8 FF 03 FE 00 80 2F FC F8 02 FE 07 BE 38 80 82 FF FC 08 FC 01 C7 3F C0 80 7D F0 0F F2
DPCM : 7F 80 1F E5 81 03 F0 FF 01 FC 58 1F 3F 80 0F 00 FF 0F 7C F8 80 7F 80 87 07 F8 D7 03 FE 00 7F 7C
DPCM : C0 07 E0 FF 03 F8 C1 17 3D F0 07 01 FC 0F 1E FC F0 0F 18 FC 0F C0 CF 07 16 F0 FF 03 E0 1F 00 FC
DPCM : C7 87 21 F1 7F E0 F4 03 18 FE 14 FE 80 FF 11 F8 00 58 FC 07 7F D0 F6 07 E4 D1 03 F8 C1 3F 0F F0
DPCM : 1F 0C E0 0F 7C 70 F8 1F 80 CF 3F E0 83 C3 0F 80 7F 7C 80 3F 0F 3F 00 FE C0 83 7F 60 FC C3 FE 00
DPCM : 1E F8 80 FF 03 F0 0F FC 80 07 3F 14 FC 1F E0 07 3F F8 00 FC 1F 80 3F F8 C1 83 FF 03 80 7F 80 0F
DPCM : 1F 7C 8A FF F1 00 7F 70 80 4B D7 83 83 FF 01 85 57 A1 0F 1E FC 07 FE 04 C1 7B E0 E1 0F F8 03 FC
DPCM : EF 00 1C 7E E0 07 FC 07 08 FE CF 00 3F F8 07 70 FE 01 0E FE E0 0F E0 EF 00 F8 F1 03 FF 81 1F 08
DPCM : FA 07 07 FC 01 FE 6F C1 07 F8 F0 03 F8 07 3E 7F E0 03 04 FC 1F F0 F3 81 1F F8 F0 0D E0 1F 04 7E
DPCM : E0 C7 7D E0 1F 00 FE 03 1E 7C 05 7F C0 FF 07 F0 30 15 F0 83 7F 0C FC 0F E0 E0 0F FC C0 E1 1F F8
DPCM : 0F 18 E0 07 BF 3F E0 1F E0 C3 0F 70 FC C0 3F 80 3F 38 E0 FF 00 7E C0 7F 00 C1 3F 14 FF 07 FE 00
DPCM : 1F 7E 00 FF 03 FC 07 FC 80 81 BF 01 F0 3F F0 87 0F 3E 00 FC 3F C0 1F FC F0 81 F1 03 E0 7F E0 03
DPCM : 2F CF 1F C0 7F 00 3F 68 80 FE F0 FF 01 7E 00 AE FD 00 9C 0E FE 03 FE 80 07 FC 73 C0 07 FC 0F 7D
DPCM : D0 04 C6 7F E0 07 F0 9F 0F 3C 7C 80 3F E0 0F 60 FD F3 01 7F 00 7F C0 1F 04 18 FF 07 FF 00 7E 10
DPCM : FE E0 01 FC 0F FE 03 F0 C1 1F F8 03 F0 1F FE 03 F0 C0 0F F0 1F C0 7F F4 07 58 E0 3F C0 7F 00 1E
DPCM : FC 0F 7F 00 7F 00 FF 00 3A F8 0F FF 01 FC 00 FE 83 05 F0 8F FF 03 F8 03 A8 F8 0F C0 0F FC 1F F0
DPCM : 82 0F F0 3F C0 0F E0 FF F0 80 4F C0 FF 80 0F C0 FF 3F 00 FE 00 FF C0 1F 00 FE FE 03 F8 01 FE 00
DPCM : 5F E0 01 FE 3F FC 01 F8 03 3F E0 03 F8 3F FC 01 F8 80 3F E8 0F 80 FF D3 07 70 E1 1F C0 7F 00 FC
DPCM : FC 07 54 C0 FF 00 FF 00 0E FA 5F 7F 00 F8 07 FC 00 09 F8 FF 7F 02 F0 07 2C EE 07 C0 7F FD 07 80
DPCM : 13 3F E0 07 81 3F F8 7F 40 80 7F 55 7D 00 0F F0 FF 0D C0 F7 03 7E 80 17 C0 FF 3F 00 F8 47 FE 00
DPCM : 17 18 F8 FF 1F 40 09 FF 41 80 8F 0F FE 7F 60 00 8F 1F 39 18 0F F0 FF 0D C0 EA 0F 2D C1 3F 80 EB
DPCM : BF 03 80 7F 7F 00 96 38 E0 DF 3F 00 85 FF 43 C0 03 D5 F3 FF 70 00 FE 03 F0 21 56 E0 FF FF 00 C0
DPCM : FF 02 01 FC 7C E8 7F 17 00 BC FE 01 00 3F FA D7 2F 80 82 FF 2E 00 3B E9 86 7F 1E 00 DC FF 03 00
DPCM : FC A3 C5 FF 18 00 FF EF 00 80 7F E8 AB 5F 00 3E FF 00 00 DB FC 55 FC 03 40 FF 7F 00 80 FE 0F FC
DPCM : FD 00 00 FF 0F 04 E0 FF 05 9F 0E 41 FE E3 07 00 FE 59 D3 D3 01 FC FD 03 00 E8 AF 0D FC 07 05 DF
DPCM : FF 01 00 F0 1F 7C BF 62 00 FF 0F 00 C0 FF B7 06 56 1F F0 E3 0F 00 FC FA 78 E0 07 54 FC FF 00 00
DPCM : 7F 1F E0 A5 17 81 FF 0F 00 E0 FF 2A 21 FF A0 FC 1F 00 80 FF EB 03 EC 0F F0 EB 07 00 B8 FF 0B C0
DPCM : 3F 14 F8 FF 00 00 FE FF 00 EA F5 81 AF 17 20 80 FF 1F 02 FC B5 FA 07 16 00 FC FF 00 F8 1F F8 A3
DPCM : 77 00 00 FF 1F C0 1F FD 05 FC 01 00 F0 FF 13 34 FC 1F 46 BD 02 00 FF 7F 01 F0 DF 46 A5 1F 00 F8
DPCM : FF 03 00 FF 3F 20 FE 01 00 FE FF 00 D0 FF 0F F8 01 00 E8 FF 0F 02 F8 FF 4A 2B 04 80 FF FF 01 C0
DPCM : FF A3 54 DA 00 F0 FF 1F 00 F8 FF 05 F0 01 16 E0 FF 07 00 FE 7F 74 01 2D 80 FF 0F 01 F0 FF 5F 02
DPCM : 45 01 FE DF 07 00 FF 7F 0A 60 05 B8 EA FF 00 E0 FF 1F 80 15 2D C0 FF 0F 00 F8 FF 71 01 BA 10 FC
DPCM : 3F 01 C0 FF FF 01 C0 0F D8 FA 1F 00 FC FF 0F 00 E0 37 C1 3F 80 FC D6 FF 00 00 FE A3 55 05 78 DD
DPCM : 7F 3F 00 70 1D DC 05 82 F6 D7 FF 01 00 9F D6 46 00 FE 07 FF 3F 00 70 7A F5 05 E0 55 FD 7F 00 80
DPCM : 3F F0 0F D0 43 D1 FF 1F 00 AE E8 3F 00 F5 01 DF FF 01 28 E0 FF 03 40 FD 40 FF 8F 05 21 F9 CF 00
DPCM : 7C 01 FF 7F 09 14 54 FF 0A E0 03 FE FF 94 40 02 FC 3F 70 85 92 FF 1F 01 1D C0 7F 4A 15 09 F4 FF
DPCM : 83 0F C0 BF 4A 44 65 01 FE F7 1F 00 D2 7F 05 E0 01 FE B7 7F 28 00 F0 3F F8 01 F8 F7 2F 02 0B E0
DPCM : 1F FC 03 06 BE FF 03 1F 80 1F BD 50 91 01 FF C3 7F 00 E5 5F 06 78 01 FC C3 FF 11 E0 D5 0F F0 01
DPCM : F8 F1 DF 0F 10 E0 3F F0 01 4C FF D4 F7 07 00 17 FE 64 00 7E 7F D0 3F 00 53 8F 7E 48 00 FF 81 FF
DPCM : 11 E0 4F B7 B8 00 FC C0 F7 3F 80 55 2F FC 00 A0 3F E8 FF 23 E0 01 FE 23 01 FE F0 DF 1F 80 81 4A
DPCM : FF 01 F8 56 E0 7F 54 50 03 FE 0F 81 3F E0 B7 0B F4 07 F8 7F 00 14 54 EB 3F F0 1F 00 FF 03 04 3B
DPCM : E0 FF 53 FB 01 F8 AA 00 3E A0 FF 0F FC 03 00 FE 07 7C 0A F8 3F 78 F4 03 F0 A7 F0 07 C0 5F 07 FC
DPCM : 0F 80 FF C1 0F 00 F8 1F F0 FF 01 FE C0 43 01 C0 FF 47 FF 03 1E 54 A5 07 00 FE 7F FC C1 0A 32 E8
DPCM : DB 00 F8 FF 1E 60 13 2B 95 DE 0F C0 6D 3F 20 D5 5A 55 E1 7F 00 C0 FF 49 A2 DB 3F C0 55 0B 00 FC
DPCM : 7F EA A4 9F A8 90 B4 08 E0 FF 7F A1 B2 B4 80 54 5F C0 DA FF 07 48 55 15 C8 DF 0B 40 FF 8F 10 A2
DPCM : FF 24 E9 BD 00 64 B7 B5 40 FB AF 01 6E 03 80 B6 FF 15 6A FF 07 00 57 40 78 FD FF 01 F0 3F 00 D8
DPCM : A2 4B BB FD 1F 00 7C 05 2A BD 55 1D C9 FF 00 E0 AF 11 FD 42 75 00 FF 07 C0 FF 0F D4 05 DC 04 E0
DPCM : FF 0B F4 3F B8 00 E0 0F D0 FE 7F C0 9F A8 0A 80 5F 13 E9 FF 01 5D E0 1F 00 EE 7F 00 FF 03 3C C0
DPCM : FF 11 01 FF 07 F0 85 B7 80 DF FF 01 C0 0F E0 42 7F 65 17 FF 0F 00 06 74 A5 3F FD 16 E0 7F 00 00
DPCM : FD E3 B5 D2 3F 00 FF 00 02 FE 4F 3F C0 7F 00 7C 7D 00 FC 4B FD 00 FC 40 B5 F7 0F E0 01 FF 03 A0
DPCM : 77 07 F5 3F 0C 04 F0 1F 28 FC 7F F0 3F 60 01 C0 F5 77 C0 FF C0 1F E0 05 80 A5 FF 07 3F C4 1F 58
DPCM : 1D 3C 80 FF 0F 78 E0 AA F0 8F 77 00 F8 0F 85 80 3F FF 0F FE 05 00 2C 3F C0 17 FD 3F F0 0B 00 80
DPCM : FF E3 55 F0 7F C0 07 11 00 FF DF 3F 00 3F AC 0A 3E 00 FF D9 7F 00 B0 FE 01 FD 01 ED C1 5F 02 80
DPCM : FF 0F FD 03 58 85 56 5A 09 F4 FF FB 01 60 49 42 F5 37 81 FF 7F 01 00 AA 36 A2 FF 45 5B B5 AD 00
DPCM : 40 FD A7 B5 D5 4A 84 DE 6D 00 F8 5F 15 95 96 8A 9A FE 2B 50 55 55 55 90 E8 6F F5 B7 48 10 A1 4D
DPCM : 95 D6 DE DA AF 05 20 68 5A EA 6B 7D 94 FC 0B 80 A0 57 7B 65 F5 0B C8 55 5B 84 52 7F 17 50 37 29
DPCM : 51 FF 4D 90 E8 5F 00 6C 5F A1 DB 7F 45 00 7C 25 84 BE DF 6A 4D 3F 00 00 FE 35 D1 F7 BA 01 BD 05
DPCM : 00 ED DF 64 97 F4 42 55 17 81 EA B7 54 27 5A 15 D4 FE 95 80 B7 6A 11 A8 7B 25 ED FF 01 80 D5 2A
DPCM : 01 FF B7 50 FF 07 00 20 FF 0A A9 FF 47 B8 3A 44 00 EC FF 03 F9 D7 40 55 B5 14 01 FF 3F 80 5D 55
DPCM : 95 55 BD 24 F0 BD 20 45 7A F1 B7 E5 91 80 5E 52 82 5F 57 5F 17 3B 00 20 FF 20 7D F7 BA 41 7D 40
DPCM : 00 FE 57 49 2F FF 80 12 B7 02 A8 FF A3 03 5E F5 04 FA 5B 00 3F FD 00 21 FE 97 8A FE 41 01 BD 52
DPCM : 03 EA FD 8F 1E 55 01 4A E2 B5 0B FD DF 22 2A 01 2A 6D FA 55 D6 FA 05 B4 52 40 AF ED 55 52 DA 07
DPCM : 45 DD 54 95 6A B5 05 E0 DF 4A B5 B5 4A 49 D0 57 00 FB BF AA D5 44 0D 01 DE 25 D8 FF AD 5A 01 5D
DPCM : 01 A8 3F F4 B5 2B BF 00 6C 55 C0 5D BA F6 05 F6 21 41 7F D0 65 85 F4 0F 54 FE 80 3F 95 EA 07 40
DPCM : BB 05 7E 69 FD 1E C0 03 12 F0 A7 7F AB E0 7F 20 81 05 F8 C7 5E FF 00 97 1E D0 02 F8 FE 44 FF E0
DPCM : 90 35 F2 45 01 FB 63 27 55 C1 57 6D ED 02 B8 54 25 3F 91 76 1F FD 01 48 68 A1 7F 55 F1 0F FB 02
DPCM : 02 58 53 EB 3F E9 06 BD D9 00 40 FF A8 5F B5 05 29 FD 96 00 7C B3 1D 55 55 45 A5 FF 05 14 D2 57
DPCM : 15 A9 B6 95 FE 4B 04 90 BC 6A C9 76 4B F5 6F 02 00 A9 F7 52 ED 4B 6A 6B 1B 10 80 FE 37 55 6D 55
DPCM : 51 6D AB 00 E8 FF 94 A4 56 69 55 F7 01 40 7F AD 84 2A 7D 55 F5 3F 00 C0 7D A5 04 F5 7F A2 BF 04
DPCM : 00 DC ED 95 A0 FF C9 5A 17 00 58 BB 7F 01 DE AB C8 EE 00 68 85 FF 07 60 DF 25 D9 0F D8 00 FD 3F
DPCM : 00 F0 7F D4 0F 74 43 C0 DF 05 80 FF DA BF 80 95 00 ED 7F 00 7E 55 FF 01 2A 49 80 FF 03 FA A5 FE
DPCM : 03 09 FE 00 F8 3F B0 09 FD FB 02 F0 03 E0 7F 64 05 4E FE 1F C0 3F 00 3F B9 C0 09 FC FF 03 FC 00
DPCM : 93 57 D0 2B C0 FF 1F 1C 54 D0 57 81 FE 04 F8 FF 42 2C A0 FE 05 F8 07 F0 FF 81 D2 42 F2 1F E0 07
DPCM : 40 FF 3F 0A 2D E0 7F 10 DA 01 FA F7 07 1B C0 F7 07 60 05 57 FD 57 0B 28 F4 3F 28 81 A6 7E F5 83
DPCM : 15 C0 FF 17 80 C0 9F DE C5 1F 80 EA 3F 15 00 55 FD D3 17 15 E8 D5 1F 40 01 FE F7 49 07 A9 D2 5F
DPCM : 54 04 54 FF F4 0D 49 D0 77 AF 80 80 BF EA 55 4D A0 D6 3F 2B 00 B4 BE 55 57 54 D4 D5 DF 00 00 FD
DPCM : DD AA 15 55 95 FD 06 00 AC 7F ED 16 52 95 DA BE 00 84 BE DB 57 50 AA D2 BD 15 04 6A 6B DF 42 9A
DPCM : A4 DE BF 00 50 55 FB 4A 55 15 B5 FD 07 00 89 FE AD 54 55 55 DA 3F 40 40 D4 FF 2D 52 5D D0 7D 05
DPCM : 15 C0 FD BF 40 4D 21 FD 4B 15 41 55 FF 11 55 05 FC DB 2B 50 02 FD 4F D0 15 EA D6 5F 52 00 E0 FF
DPCM : A8 55 55 D9 DB 8A 0A 00 FE B7 49 2B 55 F5 42 3F 00 F0 FF 29 51 85 7E 41 7F 01 C0 7F 5F A8 04 FC
DPCM : 93 F6 1D 10 F0 2F D5 09 F0 DB EA 5D 09 00 3F E9 47 90 DF B6 6A 1F 00 B0 FA BD 10 6D 7B 42 7F 00
DPCM : 50 7A FF 13 84 FA 05 FE 12 51 A2 FF 6D 01 E0 17 75 AF 4A 42 5A FB 07 00 6F ED 5E AD 40 05 F8 3F
DPCM : 80 BC F5 DB 56 40 05 90 FF 47 25 75 AB 6F 40 4A 04 FE 7F 09 59 95 75 45 59 05 F4 FF 0B 20 29 ED
DPCM : 27 D5 95 24 FA 57 08 24 FA 5F AB 6A 09 A8 5E 55 01 E9 FF 5B 92 0A 11 A5 BD 55 44 7D FF 24 44 A4
DPCM : A8 F6 DE 24 C9 F6 AA 84 24 E9 B6 DB 2E 10 AA DE 4A 25 76 B5 A5 6D 88 00 FD 77 55 A5 B2 4A 4D A5
DPCM : 00 FB F7 B6 26 44 49 95 7A 11 E9 FE ED 82 50 D0 92 FA 6D 11 75 FB 09 11 B0 B7 D4 7E 23 84 76 55
DPCM : 4B 48 7B AB 7A 29 04 5A D5 77 25 D9 4B 13 AD 04 54 F5 F7 0F 92 DA 84 D8 4A A4 7A FD AF 02 64 05
DPCM : D9 5D 45 57 D5 7D 09 C0 AA AA BE 55 A5 24 75 1F 80 EC 57 6D AB 4A 12 A0 FF 45 D4 6E B6 95 90 4A
DPCM : 20 FD BF 52 55 49 5B 84 54 93 EA FF 15 49 24 AD 8A D4 5E A1 F7 4F 10 11 DA B5 C9 EE 42 5A 2F 49
DPCM : 11 55 FB 4B BA 0A 21 DB 5A A5 4A DE 1F A1 AA 80 A4 7F ED 06 D5 77 40 4A 52 91 BF ED 4F 40 5A 55
DPCM : 09 D9 52 DF DA 76 01 24 B5 17 6D A5 B5 95 EC 42 44 F4 57 6D 2B 51 15 75 A5 46 74 EF 96 95 A0 82
DPCM : 3A F5 AE 54 F5 A6 15 50 42 5B F5 FD 05 A9 D2 45 24 49 6F 5B FD 15 09 A4 55 B5 52 EA 37 D5 54 25
DPCM : 41 65 77 9F 50 B5 AA 24 2B A9 DA 5A BF 22 92 54 D2 B6 4A BB D5 6A 49 84 94 B2 7E AB D6 2A 95 2A
DPCM : 09 B2 B5 6E 6F 55 89 44 B5 45 D8 B6 B5 AD 4A 52 09 EA 6D 55 53 B5 5A 45 64 4B B2 5B B7 29 49 AA
DPCM : 26 D2 AE 6A 6D 57 29 49 A0 AD D2 D7 BA AA AA 28 15 20 BF 6D B5 BB 22 49 52 B5 20 BB 77 AB 6A 22
DPCM : 25 91 F6 55 55 75 2B 25 45 6A A5 EC 7D 0B 51 55 95 12 B5 5B 55 7B 27 44 44 6A 5B B5 B5 AB 54 4B
DPCM : 24 91 D4 BE 5D B5 55 50 95 92 4A D9 DE 5D 49 2B 44 54 6D 5B 5A D5 BB 20 55 89 A4 ED DD 5A 42 B5
DPCM : 92 A8 B2 AD 5A B7 5D 01 50 AB 96 6A 6F B5 49 DA 42 80 EA 7D D5 AE AA 85 C8 2A 51 AA DF 6D 17 A1
DPCM : 4A 48 AD 75 49 77 D5 56 10 95 A4 6D F7 89 6C 49 55 21 B5 6A 5B FD 13 28 21 75 25 AD ED 2B D9 4B
DPCM : 48 80 EC DB 2D F5 1B 91 4A A9 04 DA 7D 7F 48 2B 51 8A D4 55 6D 69 FF 04 49 48 2B 75 57 7B 42 6D
DPCM : 25 29 C8 B6 F6 AD BA 02 B1 92 5A D2 5B F5 2B 65 41 A0 D4 BE 6A 5B B5 4D 50 15 24 A9 FF B5 55 A1
DPCM : 95 A0 4A 6D C9 DE 57 2B 10 55 D2 AA 5E AB 6A 95 2D 81 24 BD 57 ED 4D 54 22 D5 A4 52 ED BD D5 46
DPCM : 48 81 AA B6 5D D5 5E 55 25 44 48 B5 DD BD A9 AA 28 15 A5 52 B5 D7 7E 89 24 49 A5 B4 6D D5 6A 6D
DPCM : 89 44 A8 B6 75 5B AD 49 4A A5 94 A4 EE F5 AE 94 42 11 A5 B6 55 DB B6 2D 25 24 A2 AA EE B5 AD 2A
DPCM : A5 4A 22 A9 6D 5B 77 55 12 51 A5 5A D5 D6 56 AD 24 15 51 6A 7B 5D B5 4A 96 44 25 55 6D DB 37 55
DPCM : 22 25 92 D6 6A 5B ED 2B 49 92 44 A9 EE D6 AE D4 2A 49 91 54 AD 5D AB 5B 22 A5 54 55 6A 5B BB 52
DPCM : 55 91 48 D5 5D D5 96 AD 12 25 25 55 B5 D7 EE 8A A4 54 A4 94 6D 6B D7 DA 8A 90 24 55 D5 5E B5 AD
DPCM : 2A 25 89 4A 75 6D BD 4A 55 52 25 A9 AA 6E AD B5 94 54 22 AD BA 55 75 AB 52 92 54 52 AD DD AD 52
DPCM : 55 52 22 55 DA 6D 6D 5B 25 49 A4 52 AB DA ED AA AA A4 44 54 D5 6D 55 DB 4A 49 A5 A4 AA B5 B5 AD
DPCM : 54 52 A5 54 55 5B 6D 69 4D 52 A2 AA 6A 5B 5B AB 52 49 45 54 B5 6D DD 55 15 49 49 4A 59 ED B5 6E
DPCM : A5 24 95 48 D5 AE 56 5B AB 92 24 55 AA 6A B7 AA AA 52 55 A4 AA 5D D5 D6 52 4A 89 6A D5 AA 76 AB
DPCM : 52 51 2A 91 5A 7B AB B6 96 24 25 2A D5 5A B7 5B A9 8A A4 22 55 75 57 AD 5B 92 92 54 AA D6 5A 5B
DPCM : A5 5A 51 89 AA B5 D5 D2 D6 48 2A 55 55 B5 55 B7 85 34 45 29 B5 6D AD 55 B5 05 49 52 55 B5 DB B5
DPCM : 15 A9 4A 92 64 5B 6B DD AA 15 94 52 56 AA 76 D5 36 49 4B 49 51 BB 55 6D A9 9A A4 2A 55 55 DD 55
DPCM : 55 52 55 A4 AA B6 55 75 AB 4A 24 A9 AA 55 6D AF 4A 95 2A 09 A5 BA 57 D5 B6 4A 52 A9 A2 AA EA 6D
DPCM : 2B 55 2A 25 55 55 5B 55 B5 95 52 AA 4A DA 5A AD 2A 55 55 25 69 AB 5A B5 D5 92 24 A9 55 6A 5B 6B
DPCM : 2D 55 2A 45 A8 DB 56 B5 B5 AA 48 49 4B 92 ED B5 56 55 25 55 A2 D6 AA 6A 6D 55 29 A5 AA 4A B5 B5
DPCM : 54 55 55 A9 92 DA 56 D5 56 25 95 2A 55 55 6D DD 54 55 25 91 54 B5 5D 55 BB A6 48 55 92 AA 5A 77
DPCM : 55 A9 55 92 54 55 D5 AA D6 36 51 69 A5 54 AB 56 AB
DPCMDEF  57  4081 "Church_B"
DPCM : 55 55 55 35 66 B5 0A 7D D5 C0 45 FC 05 F8 1F 34 7C 8C 43 30 FE E1 FD 02 FD 00 C6 0F 98 1E FF 1F
DPCM : 00 FC C1 03 7F 60 F8 FF 00 F8 73 18 F0 3F C0 FC 0F 00 F8 FF 03 00 F6 F9 07 1F E0 FF 03 00 3C F0
DPCM : DF 83 0F F8 1D 80 1F F0 FF 07 00 FE F9 00 0F 03 FC FF 03 10 FC 1F 00 FC 3F F0 87 03 F0 FF 03 00
DPCM : 7F F8 83 07 98 FF F9 01 00 FC E7 83 06 FF F0 01 08 FC FB F7 00 F8 7F 80 01 F0 3F F8 C3 01 FC E7
DPCM : 01 00 FF 4F E0 8F 07 EE FF 00 80 FF 80 87 FF 02 F8 87 01 FC C1 8F E1 3F 78 F8 01 18 F8 FF 80 C7
DPCM : 79 F8 03 70 0C FC F1 03 3F F8 1F 00 87 7D 78 90 1F E0 FF 00 04 FF FE 00 FC 07 FE 78 00 08 FF 3F
DPCM : C0 8F 17 F4 41 0C 84 FF F0 E1 3B 3F 00 F8 03 FE F0 43 0F C7 1F F0 00 FC C7 F0 59 02 3F F8 07 00
DPCM : FF 0F FC C0 3F C0 FB 00 C0 3F FC 01 FF 0F 7C 08 00 7F FC 23 E0 3F 1F 7C 00 1E 1E FE 80 FE 0F F8
DPCM : 01 C0 1F 3E 3E E0 1F FC 31 80 60 BF 9F C0 0F 1C 7F A0 80 1F FE 20 FF 01 3F E5 C0 01 FE 1F E0 63
DPCM : 3F 1E E0 03 C0 FF E4 C3 03 7F 00 EF 00 FE 3E F0 03 FE 0B D4 01 C7 3F B8 87 E1 3D F8 10 80 FF 38
DPCM : 8D C3 0F 1E FE 00 F0 3F 7C C0 CF 07 F8 07 80 1F FE 38 C0 3F F8 3D 80 03 5F FE 00 5E 87 7F 00 E8
DPCM : 07 FE 61 F0 07 FE 1F 00 1E FF 38 F0 03 C0 FF 81 E0 87 3F 00 FF 07 7C 3C F0 80 FF 07 E0 07 81 7F
DPCM : 7C 04 C5 7F F0 FC 00 C3 57 F8 03 FF 01 7C 00 C6 7F F8 41 F7 07 F0 F1 00 1F FE 3C E0 1F 04 F8 C1
DPCM : 07 C7 7F 00 CF 1F F8 30 FC 00 FC 79 C0 1F C7 07 E0 07 0E FF 20 FE B1 3F E0 C0 03 FE 07 F0 07 3F
DPCM : 70 F0 43 F0 3F E0 C3 0F 0F E0 7F 00 3F F8 E0 E1 7F 00 F8 03 1F 1F B8 E2 3F 0F F0 C1 81 CD D6 E1
DPCM : E0 1F 18 5E C1 1E 1E FE C0 3F 00 EF C1 E1 0F FC 80 FF 0D 60 F8 E0 07 FE 01 E0 FF 02 7C F0 0F 18
DPCM : 7F E0 E1 07 3F C0 EF 00 3E 3E F0 0F 7E 00 FA 83 83 3F C0 FF 06 0F F0 F8 01 FE E0 F3 83 0F 00 FC
DPCM : 07 FE 3C F8 E0 C3 0F E0 0F 81 0F 7E FC 81 3F 00 FF 81 C1 17 F8 83 FF 07 38 CC 00 1F FC 33 F0 0F
DPCM : 70 F8 81 1F 1C 7F F0 0F 08 F8 E1 F3 03 7F C0 C7 0F 18 1F F8 03 FE 70 C0 FF 00 1F F8 07 00 FF 10
DPCM : FF 83 3F E0 E1 03 FC 0F F8 07 1E 30 F8 1B C0 3F F0 C7 87 07 C0 FF 00 3F F8 F8 E0 D4 00 FE 83 0F
DPCM : 07 7F 1D E8 0F F8 41 E1 89 D3 7E C0 0F F0 3F 00 D8 1F FE C0 FF 00 78 1F 80 0F FE 03 FE 01 38 FC
DPCM : E0 07 F0 7F F8 03 03 7E F0 1F C0 3F 78 F0 07 F8 83 3F 00 1F 7E F0 1F E0 01 FC C3 01 FF E0 3F 90
DPCM : 0F 78 F8 01 FC C3 FF C0 07 08 FF 03 F0 0F FC F0 81 05 F0 7F C0 07 FF 78 80 7F 00 FF E0 00 7F F9
DPCM : 03 FE 01 3E 28 80 3F FE 3F F0 01 9C FD 00 E6 C1 3F F0 03 07 FC 33 F8 80 FF F0 C1 01 C6 3F F8 01
DPCM : FE 7C F0 F0 80 1F F8 03 CC DF 07 FC 00 3F F0 07 80 F1 1F FC 03 3E 84 3F 1C E0 3F F8 07 F0 C1 07
DPCM : 7F 00 7F FC 0F 70 E0 03 FE 01 FE F1 0F 50 F0 0F F8 07 70 F0 1F 7F 80 1F E0 0F E0 E0 1F FE 01 3F
DPCM : C0 3F 14 C0 3F FF 03 FC 00 86 7F 00 1F FC 1F F0 E0 03 FE 01 3F E0 7F 38 E0 05 FC 07 3E C0 FF 0F
DPCM : 80 1F F0 0F 3E 00 FE FE 01 3F E0 07 78 81 03 FE 8F 3F 80 3F 78 C0 07 F8 1F 7F 00 0F FC E0 0F C0
DPCM : FF FC 00 86 7F 80 7F 00 3E FF 01 05 FE 03 FE 00 83 FE D7 0F C0 1F F8 00 0A FC FF 2F 80 1F 30 F5
DPCM : 03 F0 DF 7F 00 4C 7C E0 13 E0 0F FF 03 01 7F 55 7D 80 03 FC FF 00 DE 07 7E C0 05 F8 FF 03 E0 17
DPCM : 7E 80 07 06 FF FF 00 05 FF 41 C0 E3 E1 FF C1 01 8E 2F 0E C6 03 FE 3F 00 EB 0F 2B F0 07 B8 FF 0E
DPCM : 00 FF 1F 80 85 03 EF 7F 00 85 FF 18 38 50 DB FF E1 00 DF 01 7C 60 81 FF FF 00 E0 7F 20 E0 C7 87
DPCM : FF 07 00 7E 3F 60 E0 B4 D7 3F 00 CA 3F 0B 78 20 57 FF 23 C0 F7 0F 00 EA 03 FE FF 01 C0 FF 05 80
DPCM : F9 C1 7F 1F 00 CE 3F 00 F0 E3 BF 3E 80 C1 FF 02 B0 95 17 7F 1E 00 FD 3F 00 E0 6F 85 9F 0E A0 FF
DPCM : 07 00 FC D7 92 FA 01 FB 0F 00 F0 DF 0F 68 1F F0 FB 01 00 FB 3F 80 7F 10 FC 3F 00 C0 FF 03 AA F7
DPCM : C1 EB 01 02 F8 FF 08 F8 AD FE A0 01 C0 FF 07 F0 0F FC 79 0B 00 F8 3F C0 4F EF 81 1F 00 C0 FF 07
DPCM : 0C FE 8F D1 8B 00 FC BF 01 F8 B7 51 FA 01 E0 FF 03 00 FF 1F E0 1F 00 F8 FF 00 F0 FF 81 0F 08 C0
DPCM : FF 0F 00 FE BF B4 02 00 FE FF 03 F0 3F 4A 65 03 E0 FF 0F 00 FE 3F 80 0F 18 F0 FF 03 80 FF C7 05
DPCM : 2C 80 FF 47 00 FE FF 09 24 03 FC FF 01 E0 FF 2B 40 05 B8 FA 1F 00 FE FF 00 15 2D E0 FF 01 80 FF
DPCM : AF 01 3A 02 FF 0F 00 FE FF 03 E0 03 7C FF 03 80 FF 3F 00 0A 2E F8 1F 80 FB FF 01 00 3F F8 3F 80
DPCM : E0 FF CF 00 E8 C0 FF 50 01 FC FF 03 F0 03 7C FD 01 80 FF 3F 80 4A 1E 3E 55 10 F4 FF 03 01 CF 57
DPCM : 55 36 00 FF 7F 00 E8 AD 0D FE 00 FC FF 01 60 F0 1F F8 11 C0 FF 3F 40 80 FF 12 5B 00 FB FF 5A 00
DPCM : FC 82 BE 0A C0 FF 7F 00 E0 4F 81 7F 00 FF FF 06 00 F8 07 7E 40 F5 F5 BF 00 C0 1F 36 15 70 DD FF
DPCM : 0F 00 D6 C1 17 80 F6 D7 FF 00 E0 69 1B 01 F8 8F FF 07 00 EB D5 17 C0 95 F7 3F 00 F8 C0 3F C0 43
DPCM : F2 FF 07 A0 A2 FF 00 F4 81 F7 3F 80 80 FF 07 40 7D D0 FF 39 80 F4 2F 01 7C C0 FF 3F 40 50 FF 06
DPCM : F0 80 FF EF 42 00 F0 3F F8 00 FE FF 04 2C C0 1F FC 81 81 FF 1F 7C 00 3E 3D 54 68 E0 1F FF 01 E4
DPCM : 9F 06 1C C0 3F FE 4B C0 D5 07 3E 00 1F FF 3F 00 E0 1F 7C 80 F4 57 DF 1F 00 05 7F 15 E0 F5 43 7F
DPCM : 00 D3 A3 1F 04 F0 0F FF 09 F0 D3 8B 0E C0 07 FF 3F 80 E5 83 1F 00 FA E1 FF 23 D0 80 7F 02 F0 C7
DPCM : FF 0F C0 A0 F2 0F E0 5B C1 7F 14 32 E0 FF 00 FC C1 77 13 FC 01 FF 07 40 50 F5 1F FC 07 E0 1F 10
DPCM : 7C C0 FF D3 3E 80 AF 02 F8 80 FF 07 FF 00 E0 1F F0 09 F8 1F 1E 3F 00 7F C2 0F C0 DF 01 FF 00 FE
DPCM : 07 3F 00 F8 07 FE 1F E0 07 0F 03 C0 FF E1 7F 70 30 E1 1F 00 FE 87 3F 0A 75 80 FF 00 F8 67 FD 03
DPCM : A0 97 F8 0F E0 97 E0 57 28 7F C0 7F 00 B8 E9 F2 07 FE 00 FF 03 00 7E F0 8F FE 07 C0 47 00 3E FC
DPCM : 7F D0 0F 40 FC 03 1E BA FF 01 4E 1F E0 27 B5 00 FE 67 C0 1F 78 3F 38 05 38 FF 80 FF 40 5F F0 01
DPCM : 00 FE 3F FC 0F 1C D8 64 01 F0 FF F1 C3 05 18 FA 15 C0 FF 77 80 13 4B A5 F7 01 BC 7D 20 B9 5A 4D
DPCM : F8 0F 00 FE 47 A2 D7 1F 58 35 00 F0 FF EA E8 27 0A 45 13 80 FF FF A8 2A 0D 41 7E 01 EB FF 03 52
DPCM : 55 05 FC 37 00 FF 17 44 E8 5F 92 FD 02 60 AF 2D D0 FE 1B D0 0D 00 F6 7F 85 D5 FF 00 58 40 F4 FE
DPCM : BF 00 FE 03 00 D3 C7 5B FB 0F C0 17 00 F8 5F 7D C0 3F 00 DF 13 E0 4F FD 00 7C 30 7D FF 00 07 FC
DPCM : 07 E0 7D 41 FF C3 00 E0 1F 88 FE 0F FF 01 07 80 F5 5F E0 1F FC 01 1D 00 A5 FF C3 0F F4 C1 75 F0
DPCM : 00 FF 07 0E BC 82 7F BE 01 F8 43 41 F0 F3 7F F8 07 00 CC 0F D8 F1 FF C1 07 00 C0 FF 5C 05 FF 03
DPCM : 1F 10 80 FF F7 07 F0 51 0B 3E 00 FF F6 0F 00 F3 0F FC 03 3A F0 3F 00 E0 7F FD 07 50 C0 8F 6D 80
DPCM : FF FD 0F 00 80 07 FF 03 FF F1 0F 40 C0 81 FF 0F 7C D4 0F 1C C0 0F FC 3F 30 E0 E3 3F 80 3F C0 1F
DPCM : 17 80 E7 FF 03 FC 80 C0 7F 00 B5 FF 1F 18 28 01 FF F0 2D F0 FF 02 40 94 7F D2 3F C0 E7 0F 00 51
DPCM : FD 53 3F C0 B8 2F C8 0F F0 C7 17 04 D0 FF A3 1F E0 14 95 56 04 FF BF 0F 80 45 41 F5 4F F0 FF 17
DPCM : 00 A0 3A E4 7F D2 56 DB 12 00 FC A7 6D B5 42 E8 BD 01 F0 5F 45 A5 A9 B0 D9 BF 40 55 55 15 84 FE
DPCM : D6 BF 44 10 A8 53 65 ED 6B BF 16 00 68 96 DE D6 4B F2 2F 00 60 D7 5E 56 3F 20 57 5D 84 D2 DF 05
DPCM : 74 A3 84 FF 0D 14 FA 07 C0 DE 85 DE 7F 05 00 5F 02 7A FF AA 4D 3F 00 80 5F 43 DF EB 01 7D 01 40
DPCM : FF 4D 5D B2 0B 55 47 A0 F6 4B AD 68 15 D4 7F 05 D4 AB 45 C0 7D 25 FD 3F 00 58 AD 04 FC BF D0 FF
DPCM : 01 00 F8 2B A8 FF 0B AE 15 04 A0 FF 07 F9 37 50 55 4B 04 FC 7F 80 57 55 55 D5 93 E0 F6 40 89 1E
DPCM : 7F 9B 2D 02 6E 52 C0 DF F5 75 F1 00 00 7F 48 DF B7 1D F4 01 01 FC 57 D1 CB 1F 18 DC 12 A0 FF E9
DPCM : 80 57 0F E8 6F 01 3E 7D 00 D1 7F 29 FA 07 01 B7 34 01 FF 7F 78 54 01 4A 78 BD E0 FF 0B AA 00 4A
DPCM : 9B 7E 65 EB 17 B0 52 C0 6B 77 25 A9 1F 24 DE 54 A5 5A 5B 00 FE 4B B5 B5 4A 12 7C 05 E8 FF AA D5
DPCM : 48 05 C0 5F 50 FF 5F 56 40 2D 00 FD 97 DA 2F D5 00 DC 15 D0 BF 54 1D E9 0B C1 5F 24 B7 84 3E 92
DPCM : DE 49 7D 12 F8 04 F4 B6 DC A7 6A 0F 80 4A A2 7F F5 7B 80 2F 00 78 C1 7F 2B FF 01 54 0B F8 E0 EB
DPCM : 07 FA 41 C1 1F 5C 56 D0 1F 54 7E E0 4F A9 3E 00 DD 15 7C 69 FF 02 3C 20 E0 8F FF 2A F8 0F 02 1C
DPCM : E0 4F 5F 7F C0 E5 03 2A C0 FF C2 3F 58 68 13 9F 14 F8 53 47 55 F0 D5 D6 0D 70 54 45 3F 64 F7 D1
DPCM : 1F 00 64 E1 5F 15 FD F1 0B 10 60 D3 EA 5F 7A D0 67 03 00 FF E8 57 5D 90 D2 5F 00 FC 74 47 56 55
DPCM : 94 FE 07 14 D4 57 45 6A 57 FA 2F 02 20 B7 56 72 B7 D4 BF 01 00 EA BD D4 BE A4 AD 1D 10 80 FF 53
DPCM : D5 55 45 6D 2B 00 FA 3F 49 6A A5 55 FD 01 A0 5F 8B A8 F4 55 F5 1F 00 E8 57 12 D1 FF C1 BF 00 80
DPCM : DE 5D 01 FF D3 AE 0A 00 B5 FD 03 7C 5B 5B A9 10 0A FC 1F D0 5B BF 48 C1 17 C0 FF C0 12 FD FD 00
DPCM : 3E 00 FF A1 05 8E FE 0F F8 03 F8 E4 C0 09 FC FF C0 0F 28 5E C1 2B C0 FF C7 41 09 5F 05 FE 04 FC
DPCM : 3F C1 02 FA 27 F0 07 F8 7F 20 2D C8 7F E0 07 80 FF 27 E9 00 FF 80 BD 00 FC 7F FC 01 F8 03 E8 05
DPCM : C1 FF F9 07 80 3F 48 5D 01 FE EB 1F 00 7C 17 F8 01 FC 55 FF 00 C0 7F E8 03 F0 4D F7 27 00 FF E0
DPCM : 0D 40 97 BF 7F 01 F0 52 5D 80 A5 3D FD 0F 80 57 7D 80 84 3F F8 FF 00 44 FF 54 00 BE 6A FF 81 02
DPCM : 5F FD 01 C0 4B FD DB 00 4D FE 13 80 0B 7F FD 81 02 77 7F 00 09 BE FE B5 00 43 FF A1 00 A7 7E FD
DPCM : 60 01 FE 5F 00 C0 9F 77 F2 03 A8 FF 14 00 55 FF F4 49 81 5E 7F 00 01 FF 7D 74 A0 4A 7F 52 00 D5
DPCM : 3F DF 20 05 BF 7B 00 E0 AF 76 B5 80 5A 7F 4B 00 6C 5F 75 49 E1 D6 FD 00 00 FF AD 56 52 95 FD 0A
DPCM : 00 EA DF 5E 42 95 DA 3E 10 60 BF FD 20 A9 D2 BD 25 80 B6 DE 2D 98 A4 DE 3F 00 54 F5 2D 55 15 75
DPCM : FF 01 80 E8 DF 52 55 55 FA 0F 10 40 FF B7 50 5D B0 5F 41 01 FC FF 02 55 41 FF 62 11 54 FD 07 55
DPCM : 05 FC F7 02 05 F4 3F D0 15 DA F6 27 05 00 FF C5 55 55 F6 AD 28 00 F8 BF 49 4B 55 2F F4 01 C0 FF
DPCM : 27 51 91 5F F0 17 00 FE 5F 48 01 FF 64 6F 41 E0 3F 51 01 FE 5B 6B 4D 00 7E 55 05 F8 FF 26 5A 04
DPCM : E0 D7 4D A2 FD 57 20 15 D0 FA BD 0A 94 FF 40 15 51 DB DD 95 00 FC 55 2D 55 AA DD 4A 02 F0 77 D7
DPCM : 96 22 6A 69 15 20 FF 7F 49 0A 49 A8 5F 05 FA FD 23 82 28 A9 77 4F 12 BB AB 02 45 BA DB ED 02 A8
DPCM : 7A 4B 45 5E 5D D9 06 01 FC 77 55 A9 AC D4 54 02 EC FF B6 05 51 54 E9 45 A8 FF DD 04 04 2D 69 BF
DPCM : 85 74 FB 41 04 BA 4B DD 0F 12 76 D5 12 D4 B7 F2 A5 00 5A F5 5D 91 BD 34 B4 02 54 F5 FF 03 A9 0D
DPCM : 61 2B A4 76 F7 2F 40 56 A0 77 45 57 B5 5F 00 AC AA FA 55 A5 44 FD 42 C0 6F B5 AD 4A 02 E8 7F 44
DPCM : DD D9 56 90 0A 48 FF 2F 56 25 5B 82 D4 A4 FA 7F 91 88 B4 8A B4 5B E8 FF 04 44 E8 B6 C9 BD 90 76
DPCM : 13 25 54 FD 8B B6 42 A8 AD 95 2A F5 1F A2 4A 20 FA D7 1D D4 77 80 92 94 F8 D7 3F 01 59 55 22 AE
DPCM : F4 AD DD 05 20 F5 45 5B 5A 5B B1 0B 24 F4 57 DB 12 55 D1 95 16 F4 DD 65 05 29 68 D3 B7 54 BD 69
DPCM : 01 45 B4 D5 FF 06 AA 74 11 92 EC 6D F5 17 41 68 55 2B A5 F7 54 53 45 50 D9 F7 41 D5 AA 24 2B A9
DPCM : AE F6 4B 44 52 D1 B6 CA 5E AD 96 04 52 D2 7E AB B5 52 A9 12 C8 B6 EE 6E 55 44 52 9B 60 B7 B5 AD
DPCM : 8A 94 20 7F 55 55 D5 AA 12 EA 22 BB BB 15 92 D4 06 E9 57 B5 B6 95 10 A0 5F B5 AD 5B 25 49 5A 80
DPCM : 7E 77 9B 52 49 15 EC 22 BB DD 96 52 A0 95 DC 55 D5 5A 45 55 41 9B 76 5F 4A 54 15 5A C9 DE D2 5E
DPCM : 4D 00 4B 76 4B F7 A5 22 5B 80 2A FB 5D B6 6A 01 59 25 AB F2 7D 15 52 13 54 AB B7 52 AD 2B 44 4D
DPCM : B2 57 BB 2A 91 5A 44 B7 B2 ED 56 4A 02 D5 2A 6F DB AA 2A 49 05 F0 DB D6 DE 12 49 54 4D B0 F7 AE
DPCM : AA 11 25 A2 7E 55 55 AF 94 24 6A 25 7B BF 10 55 55 0A B5 57 D5 BE 82 88 A8 6D B5 75 2B B5 44 22
DPCM : 52 EF 6D 75 15 54 29 29 65 77 5F C9 0A 21 D5 6E 69 D5 BE 20 55 22 59 DF 6D 09 B5 12 A9 6C AB F5
DPCM : BA 05 40 AB 96 BA 57 9B 64 0B 01 EA 6F B5 AB 5A 90 AA 48 AA BF DD 05 AA 04 D5 B6 45 77 B5 25 50
DPCM : 49 BA FD 86 6C 49 55 50 AB 6E F5 0F 48 41 5D D2 DA BD E4 2D 44 00 FB EE 52 7F 81 4A A9 10 76 FF
DPCM : 87 B4 42 49 D4 55 5B DA 5F 20 11 AD 74 57 5F 50 57 92 10 BB FA AD B6 80 2C A9 49 6F F5 2D 59 02
DPCM : 48 ED AB 6D B5 8D 50 05 49 FA DF 56 89 15 A1 4A 9B F4 7B AD 00 55 D4 AA B7 AA 56 D9 10 24 FD 56
DPCM : 7B 25 45 54 93 4A ED 77 75 81 14 A8 DA 5E D5 5B 55 41 84 D4 F6 F6 A9 2A 49 45 2A D5 5E BF 89 44
DPCM : 52 4A DB 56 AD 75 89 04 A9 6D BB D5 16 29 A5 94 A8 7B 7D 55 89 44 A4 6D B5 B5 6D 25 49 48 AA BD
DPCM : ED 5A 2A 52 8A 54 DA DB 5B 4B 14 41 95 DD 5A DB D6 22 24 A2 56 7B B7 2A A9 4A 24 D5 AE B5 57 29
DPCM : 48 95 5A B5 75 D5 8A 54 48 6A 77 5B AD 54 49 94 54 6D F7 4D 95 50 22 69 AB 5D DD 4B 92 44 A2 DA
DPCM : 5B B7 D4 4A 52 44 D5 7A AD 5D 22 25 55 A5 B6 75 4B 55 91 50 75 57 6D D9 4A 94 24 55 ED B5 AF 88
DPCM : 52 91 94 5D DB B5 AD 10 91 54 D5 5E 6D AB 52 12 29 B5 B5 BD 4A 95 54 92 AA 7A AD B5 24 95 48 AB
DPCM : 57 D5 AD 52 92 94 54 DB BD 4A 55 52 22 55 F6 D6 76 95 44 A2 52 AB 76 B7 AA 8A 12 52 D5 6D D5 AE
DPCM : 94 94 92 AA B5 75 2B 25 55 52 55 6D 6D 59 93 14 AA AA 6D 6D AB 52 52 21 55 DB 76 57 15 49 92 92
DPCM : D5 5E DB 95 24 15 52 75 6B B5 B5 4A 24 55 AA BA AD AA 2A 55 A2 AA 5D B5 AD A4 14 AA D5 AA 6D AB
DPCM : 94 A4 12 6A 7D AD B6 25 4A A1 52 6D DD 5B A9 22 29 51 D5 5E B5 5D A2 14 95 6A AD 6D 95 5A 51 91
DPCM : 5A 6B 2D 6B 43 AA 54 55 6D B5 9B C8 14 25 B5 5D 6D 55 5B 90 44 55 B5 B7 6D 85 AA 24 92 6D 6D BD
DPCM : 6A 05 29 65 A5 B6 D5 2E D2 52 92 6C 57 B5 A5 9A A4 52 55 D5 BD 54 45 95 48 B5 5D 55 6F 4A 11 A9
DPCM : D4 D6 F6 25 4D 2A 45 A4 75 57 F5 95 24 A9 4A 69 B5 5D 55 95 52 A8 DA 5A 55 5B 29 A5 2A 55 6D DD
DPCM : 92 54 95 94 6A 57 B5 B5 89 44 AA 5A D5 DD 2A 55 29 21 A5 DD 55 DB 2A 49 A9 A4 AA 7A D7 52 A9 14
DPCM : 55 55 57 55 5B 29 A5 4A DA 5A AB 4A 55 55 A2 AD 5A B5 B5 44 91 5A A9 6E 6D 2D 95 4A 41 BA 6B D5
DPCM : D6 AA 48 D1 12 D9 5E 5B 55 25 55 A4 B5 AA B6 55 A5 94 AA 52 5D 4D 55 55 A5 92 DA 55 B5 55 52 AA
DPCM : 54 55 6D 5B 55 55 12 4A D5 6E 55 B7 49 54 25 AA 6A BB 55 A9 95 24 55 55 AB D6 36 51 5A 29 B5 6A
DPCM : AD 4A AD 92 54 AB D6 AA AA 4A 54 2B 69 57 6D 2B 49
DPCMDEF  58  4081 "Church_E4"
DPCM : 55 55 55 55 55 55 5A B4 54 57 55 BB 91 50 DF 03 B6 D0 22 3D 1F 5C DA D1 65 51 0F 5C 00 FF FF 00
DPCM : 80 7F 1C F8 07 C0 FF DF 03 80 FF CF 03 60 00 E0 FF 07 00 FF FF C0 03 3F 78 F0 01 C0 E0 FF 07 FE
DPCM : EF 02 A8 FF 00 E0 E3 1F 00 1E FB F0 FF 3F 00 00 FA 1F E0 0D F0 3F C0 03 FF 7F 0C 00 F0 7F 3D 38
DPCM : 00 7F FD 00 F8 F1 F7 03 00 88 FF 7F 3E 00 18 70 FD F1 1F 01 7F 01 F8 FF B3 00 10 C0 1F E0 FF E3
DPCM : 07 FC 01 F0 9F 07 0C FC 05 E0 FF FF 07 00 00 FE 3F FE 00 F0 03 07 C4 FF FF 17 00 70 80 FF 7F 00
DPCM : 00 FC FF 17 E0 7F E0 03 00 FF FF 1F 00 00 F8 1F FC 1F E0 07 80 E7 FF 07 BF 00 00 0E FD 7F F0 01
DPCM : DE 80 FF 03 7F 00 A2 00 FE 3F FF E1 07 00 F8 FF 1F 00 1E 00 F8 FF 07 F0 3F F0 00 E0 FF 87 1F 00
DPCM : 00 FC FF 0F 05 F8 1F 7C 40 AF FD 5F 00 00 F6 FF 03 E0 03 FE 9F 06 C0 FF 03 06 00 FF 17 FC 07 15
DPCM : F8 FF 80 0F F8 0F 00 FC C0 1F FE 07 60 75 FF 03 F0 3F 00 00 FF 05 FD 61 AF 80 FF 0F E0 97 1C 00
DPCM : 2E 70 FF F8 07 01 FE 0B 74 F2 3F 00 0B A8 7D E0 FF 00 F3 FD 03 F0 0F 55 1E E0 03 C0 FF 3F 00 F8
DPCM : 8F D6 1F FC 00 F0 0F 00 F0 FF 17 D9 07 3E 80 FF 07 80 AF 1D 80 FE 87 0F E0 FF 00 F6 AF 06 54 3D
DPCM : 00 1F FE 0F E0 FD 81 03 9F 0F F0 0F 0C 00 FC FF D8 F0 92 07 FE 03 FC C0 FF 00 00 FE FF 01 3F 00
DPCM : FE E3 0F 80 FF 0B 00 E0 7F E0 7F F0 01 F0 7F 00 FF FD 00 E0 07 F0 17 FE 07 00 7F 7D A0 FF 03 00
DPCM : AC 3F 28 FE 0F 58 E0 7F 00 FF 9F 03 00 F0 87 FF 0F 07 E0 7F 80 02 FF FF 00 00 FC 07 FE 1F 00 E9
DPCM : DF 0F C0 1F 7C 01 7E 00 F8 FF 27 00 F8 0F FF E0 1F 00 7E 14 E0 C7 FF 00 7E F0 03 F0 FF 00 7C 81
DPCM : 0B F0 FF 7C 00 FC 0F E0 7F F0 01 FE 07 80 EE FF 00 F0 0F 78 A9 FF 00 FC 87 08 E0 FF 01 5E F0 1F
DPCM : 80 FF 00 7E FF 38 00 76 F0 0F E0 1F E0 FF 04 28 F0 FF C5 00 F8 0F FC 0F 00 1F FF 03 F0 81 FF 01
DPCM : FE 00 E8 BF 0E 00 FE C3 3F C0 FF 01 FC 03 0A EA 7F 80 07 F8 1F 00 FF AF 0E F4 03 E0 0F FE 01 E0
DPCM : 7F C0 3F FC 03 FC 03 10 C0 FF 1F 80 7F FC 00 FF 00 3F 74 37 00 F8 3F 0C C0 3F F0 0F 6E 3F C0 FF
DPCM : 01 80 FE 0F E0 05 BE 15 F8 1F C0 FF 3F 00 F0 C3 D1 04 F8 07 F8 3F 2C E0 FF 01 A8 83 FF 00 FC 03
DPCM : 3E F8 1F C0 FF 01 2C 80 FF 81 1F FF 01 F8 1F 80 3F F4 1F 00 C7 3F 00 FF 01 F0 7F E0 03 F8 5F 0B
DPCM : C0 3F 80 FF 07 80 01 FF 07 15 FF 1F C0 7F 00 FC C1 1F 00 FE FF 00 F8 3F 80 7F 00 07 F8 9F 05 80
DPCM : FF 0F F0 3F F0 03 7E 00 C8 FF 3F 00 F8 0F F8 83 3F E0 51 AD 00 F8 FF 01 7E C0 2B FC 7A 0B A8 F6
DPCM : 07 80 FF 90 05 AC FE 20 DF FF 00 F8 0F 00 BE B6 1F 00 7C 7A C0 FF 03 F8 0F A0 07 F8 3F 5C 80 3F
DPCM : 00 FF 1F D4 07 7C 04 78 FC 1F C0 3F 00 FC 1F BF 80 1D F5 01 F8 1F C0 FF 00 70 F5 1F 3F 00 FF 01
DPCM : E0 3F 80 FF 41 01 3C FC FF 01 FE 03 C0 3F 10 FA 0F 78 01 E0 FF 07 FE 0F 00 FA 05 FD 01 FB 07 00
DPCM : FF 0F 7E 3B 00 7E 80 7F 00 FE 3F 00 EC 5F F4 1F 00 57 81 FF 03 E0 FF 01 A0 17 F4 7F F0 2F 00 F8
DPCM : 0F C0 FF 07 80 16 FC BF C0 FF 01 E0 3F 00 FC 1F 58 01 E0 FF E1 FF 07 80 FF 00 B0 91 FF 07 00 7F
DPCM : 00 FF 7F 00 BE 84 37 01 FF 1F 00 FE 01 F0 FF 03 3B C0 2F 05 F8 FF 00 FC 02 E0 FF EB 0B 00 FE 07
DPCM : E0 FF 00 FE 03 00 FD EB FF 01 E0 0F C0 FF 00 F4 13 A4 07 F0 FF 1F F0 0F 00 FE 0D F4 07 F0 15 80
DPCM : FF 3F F0 17 00 7E 05 FC 47 D6 1F 00 F0 FF 23 1D 00 FE 41 DF 12 DD 7F 02 00 FE DA 3F 00 57 C0 4B
DPCM : DB 56 FF 09 00 9E FC 1F AC 10 B9 11 4A 57 FD 7F A0 00 FC F5 5F 00 84 B4 BE 01 F8 F7 FF 03 00 E0
DPCM : FF 9F 04 00 F8 E9 0F F4 6F FD 04 00 FA F4 3F 80 00 F5 07 7F 37 FB 02 D0 05 FE A7 2B 00 B6 4D 69
DPCM : 17 FC 8F 0F 00 E8 FD FF 01 00 48 FF 05 57 EA 7F 64 00 E8 FF 1F 0E 00 A8 FD 85 DE AA 7D 05 80 3F
DPCM : FD 07 40 01 5E CB 5F 55 FC 1F 40 40 FF EF 0B 00 80 6B FF 07 78 DF 2F 00 80 FE FF 01 18 00 FE 7F
DPCM : 15 F4 A5 8D A0 E4 7F E8 0F 00 50 FF 65 35 F5 D2 03 E0 5F FD 07 08 00 EE BB EA 04 FE 1F 30 C1 DD
DPCM : FF 07 00 00 F2 FF 03 6E DD 2B 19 40 BB FF 81 00 00 FF 7F B5 16 D0 D5 17 C0 3F FC 07 00 E0 BF F6
DPCM : E1 03 FC 03 D8 44 FF FF 00 00 E0 BF 7F 00 FC C4 3D 11 E8 FF 1F 00 00 F0 FF 8F 95 44 FA 0B 48 FE
DPCM : 7F 00 05 80 FF BF 76 01 55 5A 01 F8 7F ED 05 00 F8 FF 5F 2A 00 57 05 B0 AB FE FF 00 00 FC FF 3F
DPCM : 00 70 15 B5 02 F8 FF 3F 00 00 FC FF 0F 5C 00 F5 8A 04 FE FF 90 00 C0 FF FF 5F 00 80 7F 04 E8 BB
DPCM : FB 07 00 F0 FE FF 1F 00 C0 0A D9 22 FE 3F 10 C0 ED FD FF 00 A0 20 FB 01 FE FD 03 A0 22 FA FF 4F
DPCM : 0C 00 AE 17 E0 FF 13 52 01 C0 FF FF 1F 00 E0 3F 04 DA 5B FB 03 00 E0 FF FF 1F 00 B0 4A BC 91 BE
DPCM : 54 85 24 51 FF FF 03 50 80 5F 7A 55 55 A5 2D 01 F8 FF FF 00 00 B4 5B AB 36 61 BF 02 80 FF FF 07
DPCM : 00 E4 16 FC 6F 00 FF 44 01 E8 FF FF 05 A0 04 C0 FF A7 24 5B 05 50 F3 FF 1F B1 05 80 EE 6D 84 FA
DPCM : AA 02 00 FF FF 7F 01 00 E0 FF 51 11 FA 1F 00 FC BD BF 6D 01 00 D0 FF 07 E0 3F 04 55 F6 55 FF 17
DPCM : 01 00 F8 7F A4 55 55 20 B5 F5 FE A5 3E 00 E0 B7 55 54 55 51 12 E4 FF C3 FF 01 00 D5 DE 5B 01 E0
DPCM : 0F C0 FF CB FE 45 0A 04 C1 FF 0F E0 07 80 FE F7 BD 92 20 1D 01 FE 07 F4 2F C0 09 FA F6 7F 80 3F
DPCM : 00 F8 17 DD 12 55 A2 05 F8 7F F0 FF 00 60 E9 3F 69 01 7C 01 F0 7F C1 FF 23 05 E4 55 BF 00 FE 02
DPCM : C0 3F EC 5F 7F 01 14 C0 FF 01 FC 05 E0 D2 BF 54 5F FD 05 00 7C 05 FF 92 05 C0 5F FB 09 F5 3F 00
DPCM : B8 D4 55 FC 85 14 04 FD 0F F0 FF 48 04 FC 4B DB 8A 2E 00 F8 0F F8 F6 FF 00 68 95 BD 50 7F 00 C0
DPCM : FA 07 EA FF 27 09 68 47 E0 7F A1 00 E8 7F F0 7D FD 01 60 47 68 D2 FF 00 C0 BF 56 81 FF 0F 54 24
DPCM : 2D A0 FF 1F 10 D0 7F 80 7E ED 0A D1 7F 00 7C FF 03 00 17 51 D5 FA 3F C0 7F 25 00 FE 3F 80 88 EC
DPCM : 01 F8 FF 27 D5 7F 00 E0 AF 2A 00 FC 03 EA DF 3F C0 FF 00 00 F0 FF 03 F4 55 05 F5 7F 80 2D F9 01
DPCM : 80 FF 5F 41 F5 03 74 47 6C 90 7E 17 01 D4 FF 8F 9D 80 56 C9 2A 55 E9 75 0F 00 DF DA 1F 90 54 AD
DPCM : 5A 55 13 FA 3F 40 00 FC EF 26 25 EA 56 FF 02 6C 55 2D 04 40 7D FF 25 37 A9 7B 51 2A 54 D4 8A 04
DPCM : F0 FF DD 57 A8 4A 4B 2D 24 54 EE 15 50 AB FF 6F 01 2A 55 55 55 20 FD 75 0B 81 F4 7F 4B 48 22 A9
DPCM : 7F 93 92 BA DD 01 50 D9 AE D6 4A 50 7B BF 5A 80 6D 4B 00 A4 B6 7F 5B 45 6A FD 3F 00 A0 5D 05 12
DPCM : EC F3 FF 76 01 C8 FF 05 00 AA 2D 69 4B ED 5A FF 0F 00 F0 57 25 A8 4A 77 55 75 51 72 FF 01 00 FE
DPCM : AD 46 52 DF 22 55 47 40 FF 0F 00 7A FF 1F 48 D5 05 78 2D 01 F0 FF DA 02 7A FF 81 AE 40 00 FF 01
DPCM : E8 FA FF 17 80 7F 45 AA 06 00 FC D7 8A 94 FE FF 00 D4 15 E8 1F 00 D8 DB FF 00 F8 FF 02 70 13 E0
DPCM : FF 25 45 80 FF 1F 00 FE 41 76 05 E8 5F BB 3F 00 E0 7F 40 75 41 5F 05 F4 1F D5 FF 03 00 B8 F4 2F
DPCM : 88 FE 07 A8 B6 C0 F7 0F 80 04 F4 FF 43 FF 1E 00 55 01 FD 49 D6 05 C0 FF 1F FD 2F 00 58 40 BA 21
DPCM : FF 1F 00 FF 5B EA 1F 00 5A 00 7E 90 FE FF 01 78 27 D5 3F 40 17 40 FE 09 F4 FF 07 50 0B F0 27 DE
DPCM : 1F 00 ED 4F 80 FD 07 5D 00 D2 9B FE FF 00 68 FF 00 2C B0 FF 04 28 D5 EA FF 3F 00 27 A8 12 C0 FE
DPCM : 2D F4 B5 02 FE FF 91 04 80 25 95 FE A5 D2 FF 01 70 57 FD 02 04 96 54 F5 5F 54 BF 04 B4 68 DB 4B
DPCM : A4 EC 03 D2 77 D2 5E 24 41 42 F7 7F 21 FB 05 D0 2D 15 55 A9 55 12 B1 FF AF F6 01 50 56 52 11 55
DPCM : FB AD 00 FF DD 77 05 20 41 AA 5A 25 EA FF 92 D4 56 B5 B6 4A 00 44 ED 5F 69 B5 56 AD 12 91 DA DD
DPCM : 56 00 68 FF 56 15 55 69 A5 8A 6C 69 7F AB 40 55 55 55 55 45 24 D9 DB B6 BA 57 25 89 44 52 AB 4A
DPCM : D1 AD 76 75 6B 57 B5 04 00 55 FA 43 AA 76 DB AD B6 12 F5 03 54 00 EC 7F 55 45 DD D2 BF 00 1B 74
DPCM : AD 02 A8 FA 7F A1 56 C0 57 75 0B A1 DD 6B 41 D0 37 F5 03 09 49 F6 5F A9 92 FE 07 54 40 DD 4A 35
DPCM : 11 B2 FB FF 82 6E 54 95 00 2D 45 6E B5 2B D4 FF D6 12 A9 0A 41 AA D4 96 F6 55 69 AD BE 45 50 AB
DPCM : 54 08 DD 6A DB 55 25 A5 FA 15 52 64 B7 54 55 A9 6A D5 56 02 E8 7E 2B 55 6D D5 AA 92 4A 48 77 25
DPCM : 10 DB BF AB AA 55 4B 54 15 01 78 6F 25 64 7F 7F 53 5A 09 51 B5 04 50 ED 5F A5 6A FB 4A 55 4B 80
DPCM : 6C 5D 05 52 7F AB 52 D5 0B A9 BB 22 41 7D 57 92 B4 6D 22 EA 4D 52 EA B5 25 D5 5B 4A 90 BE 04 52
DPCM : DD B6 CA F6 95 AA EA 2E 00 AC 2A 29 E9 5F 95 7D EB 06 D0 AF 00 24 D9 16 F1 5F B5 2A FF 03 C0 56
DPCM : B5 04 EC 0D BA 6B 5F 41 DA 27 52 42 DF 45 AD 54 15 52 7F 45 49 69 5B C9 56 BB AB 52 12 20 6D AB
DPCM : 55 CA DA B5 52 F5 B7 26 81 00 A9 BA B7 52 B5 BD 92 6A AD B6 45 10 40 EA FB 35 55 D5 56 55 49 D5
DPCM : D6 AA 10 A0 FA 77 53 4A A9 56 A5 56 55 EF 26 00 D2 7B D5 4A A4 2A F5 56 55 F5 DF 04 40 A4 F6 56
DPCM : 29 45 D4 DF 5B C8 BF 49 02 01 B4 DB BA 55 84 FA BF 48 6B B5 15 00 A8 B5 6D 7F 05 B0 B7 AB 92 B4
DPCM : BB 40 A0 56 D1 FF 07 04 E9 DE 56 94 F6 0E 64 4D 40 FD BF 02 01 F4 DF 46 F5 17 C8 B6 10 C8 DE 6D
DPCM : 11 80 FF 93 F6 5F 02 6A 15 41 B4 EE 1F 00 FE 56 D5 FF 02 A4 2A 25 01 F8 FF 03 68 6F A9 FE 4B 48
DPCM : 12 FE 02 40 FF 3F 40 6D 42 7D AF BE 00 78 2F 00 FA 7F 90 5A 81 36 E9 FF 07 40 FF 01 A0 7F A4 4D
DPCM : D0 85 D0 FF FF 00 D8 0F 60 4B 76 15 D4 AB 08 F8 FF 1F D0 05 55 44 7B 4B 82 F6 55 00 FF BF 2A 41
DPCM : 55 41 7D B7 42 A0 5F 80 FD 6D 5F 42 2A A1 B6 F5 17 80 55 A0 5F DA 5F D5 22 D0 12 FE 9F A0 12 D0
DPCM : 95 FA 55 FD 42 56 02 F4 6F 6F 01 22 A1 7E A9 6F 49 7F 40 A8 EA FD 52 05 80 56 D5 BF 54 5F 51 45
DPCM : A8 57 7D 27 20 05 E8 DF B6 17 75 11 AA 4A DD 97 54 11 50 D5 FE CA DE 22 4A 41 7D 5B 77 02 09 A4
DPCM : DF AA ED 54 2D 44 6A 75 DF B4 04 80 B6 BA 5B D5 56 52 15 B6 D5 F6 4B 00 20 75 DF D6 A6 56 49 55
DPCM : 95 D6 77 12 04 B0 EA 6F 6D 5B 09 55 95 6A 75 2F 42 84 64 77 5B 6F 15 54 CA 4A 75 B7 55 84 90 DA
DPCM : AA DD AD 42 9A 52 6A B7 EF 12 00 55 55 75 B7 4A 55 55 49 75 FD 37 00 41 49 DA 7B AB 54 55 55 55
DPCM : 69 FF 0A 44 08 49 FD 6F AD 44 55 5B 44 B7 5B 11 95 80 74 BF FD 0A 54 4D 91 B4 BF 92 56 24 54 55
DPCM : FF 15 49 55 15 D0 DF D6 AD 20 55 88 F6 EE 44 B2 55 48 75 DB BF 84 48 12 D1 7E 27 55 AD 4A 15 D5
DPCM : BE 4B 48 48 A2 F6 DF AA AA 6A 45 40 DA B7 52 4A 82 DA 7F 6F 15 A9 29 12 A0 DE B5 B5 94 A4 B6 EF
DPCM : 55 21 52 15 48 B5 76 77 AB 0A 51 D9 FD 22 54 15 29 B5 DA AD DD 94 10 A2 BE 55 55 2D 55 A5 AA B5
DPCM : AD 4A 09 20 ED DD B6 D5 5A 29 49 A9 55 5A 55 81 28 FB F7 6D 25 A5 42 29 25 B2 B7 55 09 69 EF EF
DPCM : 4A 12 91 A4 92 AA DD 76 53 52 D2 76 AB 2A 91 94 94 76 6D 5D DB 12 82 AC DA B5 52 95 68 5B 6D 95
DPCM : D6 26 91 40 74 BF 6D 55 55 2A B5 2A D5 54 A9 80 B4 FB DD D6 5A 12 49 45 55 A5 6E 49 A4 76 DF 6D
DPCM : 2B 82 94 50 2B A9 F6 75 25 49 6D DD 97 50 04 D1 76 4B D5 F6 2E 21 85 BA 55 D5 4A 22 B5 DB AA DC
DPCM : 95 8A 80 6A 55 ED 6D 95 94 75 4B 4B D2 2A 09 52 55 7B F7 2F 21 A9 5A 45 51 AD 4A 4A 6A BB F5 5B
DPCM : 95 40 A9 4A 54 B5 76 55 55 55 DD AA 55 82 A4 A4 6A 55 7B 7B 97 90 AA D4 56 44 4A 49 DB B6 55 DD
DPCM : 57 92 44 A8 56 55 AB 52 A9 DD 2B D5 52 55 4A 48 95 B6 DB 5D 44 55 AD AA 54 D4 4A A9 6A AB D6 BB
DPCM : 4A 22 25 55 49 6B AB 2A 6D 5B B5 6A A5 24 21 95 4A EB DE AA 5A AB 4A 95 AA 52 44 B2 D6 6A DB AE
DPCM : 55 55 92 24 55 5B 89 68 DB 56 AD AD AA A4 54 89 C8 EE 55 55 55 55 B5 AA 2A 25 AA AB 48 ED B6 6D
DPCM : 55 22 25 55 AD 09 A9 BB 55 D5 6A 6D 55 89 14 84 FA 56 D5 5A 6B 6D 55 29 25 A5 5A 04 6A 77 D7 AE
DPCM : 9A 52 55 52 55 50 DB 92 B2 6D AD AD 95 52 45 A8 55 4A 7B 55 55 B5 5A 55 49 55 15 52 6D 69 6D 6F
DPCM : A5 52 52 55 45 6A 55 D4 6E AB B4 6E D5 0A 84 D4 52 D6 B6 D2 B6 57 A9 92 B4 55 04 A9 4A EB DD 55
DPCM : D6 AA 5A 09 91 55 95 AA AA AA DB 6D 55 22 B5 4A 44 AA DA B6 35 B5 56 D5 96 48 52 2B 29 55 D5 DE
DPCM : B6 B6 45 24 2D 45 52 AD D6 56 D2 B6 55 6B 15 91 54 29 A9 AD DD 5D 22 6D A5 54 55 11 D5 AA DA 5A
DPCM : B5 DF 84 28 25 52 6D 25 B5 5A DB AB A4 BB 92 44 09 48 BB DB D6 4A ED 5B 44 AA 52 AA 92 90 B6 ED
DPCM : FD 15 52 AB 44 95 92 54 57 D5 5A A9 FD 2E 22 49 91 D4 2A B5 5D D5 6E 12 D5 56 49 29 91 B4 AD 76
DPCM : B7 AA AE 42 24 AB A4 6A 49 ED 56 B5 B7 52 69 09 41 2A D5 DE AA D6 56 B5 B6 44 54 55 48 4A 6A 7F
DPCM : 5B 6B 55 91 56 45 A4 2A D5 56 D2 6E 6F B5 2A 42 54 A5 D4 AA EA B6 AA AA 55 65 2D 11 52 4A 7B 5B
DPCM : D5 76 4B 52 45 51 D5 A4 AA 54 ED ED 5A AD 49 28 25 A2 AA 5A BB 55 D5 6E 55 56 45 A4 88 54 B5 6D
DPCM : DB 6D AA AA 92 4A 95 A4 2A 55 B5 5B DD 5B 92 94 94 54 A9 D4 DA 5A D5 6A D5 56 92 94 48 AA D6 B6
DPCM : B5 B5 6A A5 24 55 2A A5 52 A9 ED D6 6D AD 52 52 92 48 55 59 DB 6A D5 D6 5A B5 84 54 12 A9 5A D5
DPCM : 6D DB AA 2A 29 6B 52 92 52 D5 D6 56 75 5B 55 4A 24 55 A5 6A 55 B5 D6 56 D5 2A 49 55 24 95 6A DB
DPCM : B6 56 AD 2A 55 25 49 A5 52 55 6B 5B 6F 53 55 89 54 8A 94 5A AD DA 56 75 B7 4A 52 49 52 52 AA B6
DPCM : 5B B5 AD 54 AD 52 52 49 52 55 AD 6D B5 DA 56 92 54 2A 55 55 A9 DA 5A ED 2A 55 55 49 91 54 D5 6E
DPCM : 55 AD 95 B6 2A 49 A5 94 54 55 B5 5B 6B B7 4A 94 52 95 A4 52 DA D6 6A 5B AB B5 8A 48 52 4A 55 55
DPCM : ED 56 B5 AD AA 4A 25 25 A9 54 AD D5 D6 AD 4A 55 A5 54 A5 A4 AA AA 6D B5 5A AD 94 54 25 49 AD 6A
DPCM : 5B 55 B5 AD AA 94 52 52 25 55 AD 75 DD AA 52 55 25 55 92 54 95 B5 6D D5 B6 55 A5 24 45 AA 52 AD
DPCM : AA B6 6D AB AA AA A4 54 24 55 D5 DA 5A B5 D6 AA A4 4A 95 92 52 AD D5 5A 6D AB AA 4A 54 2A 55 55
DPCM : A9 D6 56 D5 B6 92 D4 4A A5 A4 B4 B6 55 55 5B A9 6A 4A AA 4A 55 55 55 DB AD 54 55 52 55 91 4A B5
DPCM : DA 56 55 6D 5B 2A 53 24 A5 4A B5 5A AD DD 96 52 4B AA 54 49 54 5A 6D 57 55 DD 55 2A 49 A9 AA 52
DPCM : A9 55 B5 DD 52 56 53 29 95 A4 AA D5 5A 55 55 6D 95 4A A5 52 2B 95 5A 5B 75 9B 24 55 55 95 92 AA
DPCM : B6 56 D5 AA 6A 9B 92 14 29 AD AA B2 6E D5 DA AA 54 A5 52 25 52 AA 5B AD B5 55 AB A5 24 95 52 55
DPCM : 25 D5 76 55 5B 55 55 A5 54 52 AA B6 55 A9 55 AD 56 95 52 95 2A AB 54 75 6D 55 A5 54 55 55 52 95
DPCM : AA 5D 55 D5 B6 AA 4A 94 94 AA AA 55 55 DB AD AA 54 55 2A 25 52 A9 DA 6D 55 B5 B5 AA 94 54 AA 4A
DPCM : AA AA 6A D7 D6 4A 55 A9 52 49 55 55 D5 56 55 D5 5A
DPCMDEF  59  4081 "Church_Fs"
DPCM : 55 55 55 55 AD 54 DA 16 D5 A8 45 9D 8B 55 2D AD 4A 0F 56 C0 FF 07 04 FC 71 F8 07 E0 EF 3F 00 FC
DPCM : DF 03 60 00 F8 7F 00 F8 FF 83 03 1F 1C 1F 00 0C FF 0F FE EF 01 E8 0F 80 8F 7F 00 4C 3F FC FF 03
DPCM : 00 F8 1F 70 03 FC 07 1C F8 FF 0D 00 F8 DF 0D 03 F8 F5 03 F0 FC 7D 00 80 F8 FF 7F 00 10 D8 3E FE
DPCM : 05 FC 01 F8 FF 2D 00 00 7E 80 FF E7 07 7E 00 FE 79 20 F0 07 E0 FF FF 01 00 F0 7F FC 01 F8 E0 00
DPCM : FC FF 7F 00 10 E0 FF 0F 00 E0 FF 1F E0 3F F8 00 E0 FF 7F 00 00 F8 0F FF 03 3E 00 9E FF 8F 2F 00
DPCM : C0 F0 FF E0 03 5E C0 FF E0 0F 80 02 FC 9F FF FC 00 80 FF 3F 02 1E 00 FC FF 00 FF C0 03 E0 FF E1
DPCM : 03 00 E0 FF 3F 04 FC 87 1D F0 FC 7F 01 00 EC FF 00 7C E0 FF 0A 80 FF 83 03 C0 FF C0 3F 18 FC 3F
DPCM : E0 03 FF 00 70 C0 FB FF 00 7C 78 7C F0 3F 00 F0 31 E0 7F F8 03 F0 07 FC 7F 00 E0 07 DF 83 17 94
DPCM : 7F 00 FC FF 01 80 C1 7F F9 0F 00 FE 1F C0 7F F8 00 C0 C0 FF FF 01 F0 87 97 21 3F 60 69 40 E0 FF
DPCM : 83 37 F8 43 FE 07 00 7E 07 E0 7F F8 80 FF 01 E6 6F 01 AE 03 F0 F1 1F E0 FD E0 E0 F9 80 3F 18 00
DPCM : FC 3F 36 2E 39 F0 0F FC C0 3F 00 C0 FF 0F FE 00 FE F0 03 F0 7F 00 80 FF E0 3F 7C 00 FE 07 F8 F7
DPCM : 01 E0 03 7E E1 3F 00 FE F4 E0 FF 00 80 FA A1 F8 1F 58 F0 1F E0 FF 0D 00 E0 87 FF C7 01 FC 03 02
DPCM : FF 7F 00 00 FF E0 7F 00 E9 DF 07 F0 07 1F F0 01 F0 FF 27 00 FE E1 07 7F 00 7E 04 F8 F1 1F E0 C3
DPCM : 0F E0 7F 00 1F B8 00 FF 7F 00 FC 07 F0 1F 3F C0 0F 00 FE FF 00 FC 81 5F D1 03 FE 41 01 F8 FF C0
DPCM : 03 FE E0 3F 60 81 FF 03 E0 1F 3F 60 05 FC FD 13 00 FF 01 00 FF 8F 1F 28 12 FE 3F C0 D3 1F 80 83
DPCM : 3F 15 FC 03 FC 5F 04 F8 81 C0 D1 FF C0 3F 50 D7 3F 40 7C D1 03 E0 0F FE C7 03 F8 3F 30 00 FE 81
DPCM : 7F E0 C0 FF 03 E0 E3 3F C0 1F 38 F8 07 80 FF F0 03 F8 0F 0F 7F 00 F0 1F F0 C0 FF 80 E1 3F B4 7F
DPCM : 00 7C E0 07 F0 FF 01 E0 7F C0 1F E0 01 FF 04 E0 FF 07 F0 07 FE C1 0F 00 FF 0F 00 FE 81 3F F8 03
DPCM : F7 1F 00 F8 3F C0 03 7E 05 FE 03 FC FF 01 F0 C1 32 00 7F C0 FF 2C E0 FF 00 3A F0 0F F0 07 7C F8
DPCM : 0F F8 1F C0 00 FE 83 1F FF 00 FF 01 FC D0 1F 80 C7 1F E0 1F 80 FF C0 03 FC EF 00 FC 03 FC 0F 80
DPCM : 81 FF 60 F1 FF 00 FF 00 FC F0 07 E0 FF 03 F0 3F 80 1F E0 80 FF 16 00 FF 0F F8 0F 3E F0 01 20 FF
DPCM : 3F 00 FE 81 1F FC 81 47 2D 00 FE 3F E0 07 1E F8 57 17 A4 FD 00 FC 07 06 7E 91 4D 6B 1F C0 7F 00
DPCM : CF 3F 40 C0 ED 1F F8 0F F8 7F 00 80 3F 1F 00 FC 01 FF 2F E0 3F 02 E8 C0 7F E0 3F 00 FE 1F 68 3F
DPCM : E0 01 F8 07 FE 1F 00 FE 0B F8 81 FF 00 FC 07 FC 0B 00 FE E0 1F F0 7F 00 FE 00 F8 3F E0 01 FE 47
DPCM : F8 3F 40 FA 01 F8 C1 1F 00 FE 1F FC 7F 00 3F 00 83 FF 0F 00 FE 0F E0 0F FC 81 3A 00 FC FF 01 F8
DPCM : 81 FF A1 17 80 FF 01 E0 FF C0 07 E0 5F F1 1F C0 FD 03 F0 07 29 80 FE 07 FF 7F 00 7E 00 F8 DC 1F
DPCM : 00 9E 0E FC 3F E0 0F C0 07 EE 0F 05 FE 00 FE 1F FC 01 D4 06 E9 3F C0 3F 00 FC 7F EA 01 F0 05 FF
DPCM : 03 F0 3F 00 F8 CB FF 00 55 80 FF 07 F0 1F 80 07 FA BF F4 0F 00 FE 07 F0 07 90 02 FE 7F 7F 29 00
DPCM : FE 01 2E B9 1F 00 FC 5F FB 1F 00 38 F1 07 F0 47 04 FE 03 FE 3F 40 04 FE 55 55 3F 00 1E 81 FF 5F
DPCM : 03 E0 D7 0F F0 0F E0 05 C0 FF FF 03 00 FE 23 FA 03 F0 81 0A FC FF 7F 00 54 C4 FF 01 01 DE E8 83
DPCM : FE 7F C0 01 F8 E1 27 75 60 F4 00 FE FF 0C 40 AB 7F D0 2A C1 3F 00 BE FF E3 00 80 FF FE 05 C0 15
DPCM : 39 C0 DF FF 03 40 A1 FF 07 05 3C 48 D5 F3 FF 81 07 C0 DF 03 C1 17 A1 05 F9 FF FF 00 00 FE 1F 48
DPCM : 04 FC C3 17 F9 7F 15 00 F0 DB 1F 80 07 BC D4 5D FD 07 00 17 FF C3 0A 61 07 4A 57 FF 1F 28 80 DF
DPCM : 7F 01 80 AC 2F 80 7F FF 1F 00 C0 FF 2F 01 00 9F 3F F0 7D 5F 01 80 4F FF 01 80 F4 07 FF CD 3B 00
DPCM : 1D F8 AF 0B 80 DD 94 6E F0 3F 3E 00 70 FF 3F 00 00 FD 07 57 FC 1F 16 00 FF 3F 1C 00 70 7F B1 53
DPCM : 75 1F 00 7F FE 05 00 E0 FD BB 44 F0 3F 90 A0 FF 3F 00 00 FC FF 07 A0 EA F5 03 BE 7A 01 09 80 FF
DPCM : 7F 28 80 7F AD FA 17 68 01 00 FF FF 01 E0 F7 01 FF A1 D7 01 00 F0 FF 0F 80 7F B4 7B 80 FF 00 00
DPCM : E0 FF 7F 20 2C F8 7F 68 52 AF 08 00 FE FF 5A 00 FC 6D 9B 54 FA 03 00 F8 FF 0F 00 F0 BF 3F 02 F9
DPCM : 0F 00 C0 FF 7F 01 80 ED FF 07 F8 01 05 80 F6 FF 07 0A E0 FF 8F 52 2B 11 00 FA FF 5F 01 C0 FF 27
DPCM : 2A 95 BA 00 E0 DF FF 03 00 F8 FF 17 00 7F 80 16 E0 FF 3F 00 00 FF FF B0 05 E8 0A A0 FF 1F 44 00
DPCM : FF FF 56 82 94 0C C0 FF D7 17 00 FC FF 96 02 70 05 D0 AB FE 3F 00 C0 FF FF 01 60 25 AD 00 FF FF
DPCM : 00 00 FC FF 87 16 C0 2E 12 FC FF 10 01 F0 FF FF 01 00 FE 04 F8 DE 7F 00 80 FB FF 1F 00 B0 84 2D
DPCM : D8 FF 10 C0 DB FF 3F 00 80 FC 05 FC FF 00 28 62 FF 7F 2A 00 AC 07 F8 7F 42 05 80 FF FF 0F 00 F8
DPCM : 07 E8 5E FD 03 00 F8 FF FF 00 A0 4A 7C A1 2F 95 48 91 FE FF 03 40 F0 8B 5E 4B 49 5B 00 FD FF 1F
DPCM : 00 68 A5 FD 15 A0 BA 09 F4 FB 3F 00 2A E0 FF 0F 00 68 FD 40 FF 3F E8 40 48 F9 2F 0D 80 5F 80 FF
DPCM : FF 14 50 21 55 FF 0A C0 1F A0 FF FE 54 04 25 20 FF 1F 70 05 2D FA FB 27 80 1D 00 FF A7 52 25 29
DPCM : D0 FF 7F C0 07 80 7F 9B 44 54 59 01 FE 1F FF 03 00 D3 7F 15 00 7E 80 FF CB FD 91 02 00 FD 3F E0
DPCM : 07 80 FF FD 2B 09 74 00 FE 07 FC 03 1C E4 DB FF 80 1F 00 FE D1 2D 54 91 06 FC 1F FC 1F 00 95 7F
DPCM : 69 01 5E 00 FE 07 FF 0F 05 D8 D5 2F C0 0F 00 FF F0 DF 7E 00 01 FC 1F E0 07 E0 F4 2F F5 D5 1F 00
DPCM : F0 85 BF 64 02 F8 F5 27 D4 3F 00 2E DD C4 1F 49 00 FD 17 F8 3F 42 E0 2F ED 8A 2E 00 FE 01 DF FE
DPCM : 07 60 65 2F D4 0F 00 AA 3F E8 FF 4B 02 7A 01 FE 87 04 E0 3F FC DB 1F 00 1E 68 D2 7F 01 F0 6B 05
DPCM : FE 1F 54 44 0D E8 FF 03 40 FF 04 7E DD 42 DC 0F E0 FD 0F 00 16 54 AD FF 03 FE 15 00 FE 0F 48 C8
DPCM : 1E E0 FF 47 B5 3F 00 7C D5 00 F8 03 F8 FF 07 F4 0F 50 A0 3F A1 5D 09 D0 FF 97 16 E4 05 5A B5 E4
DPCM : F6 0B 80 AF FD 02 52 B6 5A D5 84 FE 07 04 E0 7F 27 45 BA F5 2F C0 55 35 04 40 F7 7F 72 93 FA 45
DPCM : 2A 94 D8 22 02 FE BF 3F A1 CA 4A 0B 21 E5 57 40 AB FF 6F 01 52 55 55 81 F4 77 0B 20 FD BF 04 45
DPCM : A8 7F A3 A2 DE 1E 00 65 B7 D6 0A D2 DE AF 01 DA 2D 00 A4 ED BF 55 A4 D6 FF 01 80 57 81 04 BF FE
DPCM : DF 05 C0 FF 01 80 DA A2 2D 75 5B FF 07 00 FC 55 A0 4A 7D 55 5D 94 FA 1F 00 F0 AF 46 D4 2F 52 6D
DPCM : 00 FD 3F 00 EC FF 07 54 1B E0 2D 01 F0 FF 2E 60 FF 07 B6 00 80 FF 00 AE FF 7F 00 FD 89 AA 01 80
DPCM : 7F 2D 94 FE 7F 00 6D 81 FE 01 C0 EB 7F 00 FE 3F 00 4F C0 FF 25 11 E0 FF 03 E0 0F 7A 4B A0 DF FF
DPCM : 03 00 FE 01 D8 41 7F 55 F6 D0 FF 07 00 5C 40 57 A9 3F 7D 5B 01 FE 0F 00 40 F5 8F 5E AD F4 3F 00
DPCM : FC 07 20 80 FF 2F 7D 03 F4 1F 00 FC F5 21 80 FF 52 FD 01 E0 1F 30 75 FF 0F 80 17 E0 FF 01 40 DB
DPCM : BF A0 FE 0F 30 14 C0 7F 91 06 F8 FF 83 FF 05 C0 00 F8 C2 FF 13 E0 BF C9 7F 00 58 80 17 E8 FF 0F
DPCM : E0 27 F5 0F 70 01 E4 2F D0 FF 0F D0 02 7E E1 BF 00 EC 0F A0 FF C1 05 40 6F FA FF 01 D8 1F C0 02
DPCM : FF 03 28 B5 FA FF 07 70 90 4A 80 7F 0B 7D 2B E0 FF 8F 02 80 45 65 7F 4A FD 07 D0 97 BF 00 50 51
DPCM : D5 7F 51 BF 00 2D B6 BD 90 72 17 D0 5F F4 25 12 84 FC F7 21 F7 05 70 53 51 A5 56 12 F1 FF AB 1F
DPCM : 00 59 49 09 55 7F 2B E0 DF EF 15 00 81 AA 36 91 FE 4F D2 56 B5 B5 22 00 D4 7F A5 D5 56 AD 44 A4
DPCM : DD 6D 01 A0 FF 55 45 95 96 2A B1 A9 FF 2A 48 55 55 55 15 91 E8 BB 55 BF 4B 92 90 90 36 55 65 D5
DPCM : DE 5A DF 56 00 09 6A 5A A9 B7 D6 2B 15 FD 2B 02 08 EA 55 7B 95 D5 BE 40 D2 55 5D 11 2A F5 DD 15
DPCM : 48 DD 94 12 F9 6F 2D 50 92 FE 0E 00 6D 7B 85 BA FD 57 45 00 F8 55 22 C8 B7 DF AA 56 B5 0F 00 40
DPCM : FE E6 22 ED BD BA 09 74 97 10 40 7D 6F 53 6D 49 77 42 55 9D 04 A9 F5 B6 54 2B A9 6D 12 A9 6F A5
DPCM : 94 B4 55 5B 11 50 7F 4D 55 5D 6B 49 29 41 7B 25 C0 F6 DF AA 5A 2D 51 15 00 BE 57 41 FE FD 4D 5A
DPCM : 11 54 4D 00 D5 7F 95 6A DF 4A B5 02 A8 76 05 51 7F AB 54 BD 90 F6 12 21 7D 97 24 DB 46 A8 37 51
DPCM : DA 75 51 DD A5 10 FA 02 51 BD AD 74 5F A9 AA 2F 00 AC 4A 8A FA 57 F6 ED 06 F0 2D 00 91 5D C1 7F
DPCM : B5 CA FF 00 68 55 13 70 0F FA EA 57 A0 3F 44 09 FD 11 5B 59 05 F5 1F 50 E9 3D C0 3F 55 AA 7E 00
DPCM : D8 76 15 F8 93 D6 BB 1B C0 0B 21 01 FF A8 7F AB 42 FE 07 29 C0 15 E0 AF F4 D6 7F 00 5D 7A 01 AD
DPCM : 02 F8 EE 4B EC 0F 5A 94 36 C9 5D 54 40 FF 91 5D 54 55 F0 55 6D B5 2D 80 2B 55 25 FB 12 69 F7 15
DPCM : FD 05 20 89 56 E8 77 55 C9 7D D1 AF 20 04 68 4D B5 FA 2F EA 26 B4 97 4D 00 50 FF A2 F6 55 6D 21
DPCM : 29 F5 5D 41 80 DF B4 5D 94 55 55 51 69 FF 15 50 09 F5 55 95 A4 6A 5B A9 EF 2B 12 04 D2 AD 5A C9
DPCM : BA 2D 55 7F AB 08 04 A4 F6 5B C8 EE 96 EA AE A4 25 84 80 FC 7F 84 7A 55 F5 2B 92 92 5E 00 FC FF
DPCM : 00 6D 42 FD EB 0B 80 BF 00 E8 FF 90 56 A0 93 FE 3F 00 FF 01 E0 2F DA 04 1B 44 FF FF 01 FC 02 B4
DPCM : E8 15 D1 2B 01 FE FF 03 0F 54 42 7D 95 A0 DF 04 F0 FF 2B 21 4B A0 F6 17 81 FF 00 F8 FF 03 29 AD
DPCM : A0 F4 1F C0 3F 04 E0 FF 1F 51 EA 00 FC 1F A0 DD 12 80 FE FF C1 3E 00 FC 2F 40 EA 15 02 FA FF F8
DPCM : 0F 00 78 BF A0 54 5B 01 F8 BF EA 5F 00 A0 5F 5B A0 3F 00 FA 97 D5 7F 01 80 FC 1F A4 2F 00 F5 B6
DPCM : 74 7F 29 00 FC 0F D9 2E 04 D4 95 FE F6 5B 00 78 2B 55 5D 04 5A 6A 2F F5 FF 00 A0 5E D5 0F 44 22
DPCM : FE 05 F6 FF 05 C0 44 FD 47 15 01 7E A9 D6 FF 02 2A C1 5D F5 17 00 D2 2D D9 7F D9 02 D8 A2 F7 53
DPCM : 02 F0 0A FE 55 FF 40 0A B2 DB 3F 00 5A A0 5F FA 57 2D 01 2B F8 7F A0 02 74 A9 5F F5 0B 5A 01 FC
DPCM : DB 17 20 42 FC A5 77 C9 2F 40 AA FE 2B 15 00 56 F5 2F F5 25 15 A1 57 FD 05 48 01 FE DB 5D D4 42
DPCM : AA 64 7F 51 25 A0 AA FE 55 55 52 05 EA 6F BB 02 15 44 FB 5D 11 5B 85 DA DA BF 48 05 00 FA 7F C4
DPCM : 56 55 95 B6 D7 4A 2A 00 F0 7F 75 49 AD 54 55 AF C8 3E 00 E0 FE 5F 4A 52 15 EA 17 D1 5F 01 20 FF
DPCM : 7E 45 AA 00 FA 4F 6A EF 06 04 F2 7E 52 5D 00 F6 D7 6A B7 95 00 E0 37 E9 9D 08 79 B7 B5 AA 6F 00
DPCM : 80 AB F6 AF 88 D4 B5 1B 51 7F 00 50 A5 FB BF 22 44 DA 17 E1 BB 42 51 8A BE DF 5A 00 F0 97 D4 F6
DPCM : AA 94 44 5A ED 3F 00 E0 5E 6D 77 B5 4A 50 01 F9 BF 10 D0 6D BD D7 5A 01 55 02 D4 FF 25 95 54 B7
DPCM : EA 5D 40 2A 09 E8 FF 57 11 69 55 59 5B 52 5A 05 D4 EF BF 00 49 29 B5 6F 52 6D 25 25 EA DF 84 10
DPCM : 85 FA DF AA AA 5A 01 A4 FB 52 49 82 FA BF 57 91 9A 04 A0 BE B5 4D 45 6A F7 57 09 52 25 50 AD 7B
DPCM : AF 2A 44 D9 DF 04 55 89 52 6B B7 ED 94 20 B0 5F 55 B5 54 95 AA 75 AB 92 00 D4 77 B7 D5 56 49 92
DPCM : 5A A9 55 21 28 FB FF 56 52 4A A4 14 B1 6F 55 44 F6 FD 4D 12 91 94 44 75 DF 2D A9 54 B5 56 15 91
DPCM : 52 A5 D5 F7 6B 92 48 49 AD 25 A9 EA 56 A8 FF 2E 41 14 91 76 B5 29 DB 2B A4 B6 2D 49 45 54 B5 F7
DPCM : 92 B6 2A 44 AA B5 56 A9 2A B9 7F 09 A9 2A 41 92 F6 D7 BA 09 D5 BD 09 A4 94 54 92 FD D5 DF 22 50
DPCM : 56 55 25 A1 AD B4 B7 5A BB 15 40 4A F5 16 75 95 5A 6B 15 DD 22 92 50 7F 55 5D 2B 49 55 51 5B A9
DPCM : 25 D4 DD 6D 69 15 A4 12 6A 53 7B 2B 55 75 9B 5A 82 94 48 5B D5 BB 5F 82 AA D4 16 91 94 B4 DB 56
DPCM : F5 57 22 11 6A 55 B5 4A A9 DD 4B B5 54 A5 04 55 DA DD 9B 50 D5 AA 4A 49 2B A9 6A AB F5 AB 44 94
DPCM : 54 29 6B AB 4A B7 55 AB 95 12 21 95 D2 F6 AD 6A AD 4A 95 AA 12 21 6D AD 6E B7 55 95 24 51 B5 25
DPCM : 92 5D 5B 6D AB 2A 49 15 21 FB 56 55 55 55 AB AA 92 A8 AD 48 DB ED 5A 45 92 54 AD 09 6A 6F 55 AD
DPCM : B6 55 45 14 90 BE 55 6D B5 B6 55 29 25 A9 15 A0 EE 5D B7 9A 52 95 54 05 75 2B D2 76 6D 6D A5 54
DPCM : 84 5A 29 BB 55 55 AD 55 95 54 15 A2 B6 D6 B6 AB AA 24 55 25 A5 29 D5 6E 6D AB AA 16 11 52 D5 DA
DPCM : 96 5A D5 EE 0A 51 55 92 94 B6 B7 AD 96 50 B5 4A 91 2A 6B AB 5A B7 B6 25 80 54 AB 5A AA DD 56 6D
DPCM : 49 DA 8A 00 A9 76 5F 55 AF AA 5A 42 B2 2A 49 A9 FA 6D DB 16 A1 2A 89 54 AB 6D 49 DB 55 6D 25 44
DPCM : 95 92 B6 76 6F 22 6B 25 D5 14 52 AD 6A 5B F5 37 41 52 44 B5 25 B5 5A F7 4A DA 2B 11 05 41 7B B7
DPCM : AD D4 7E 09 A9 52 AA 22 A4 DD FE 5B 48 AB 44 A5 44 75 55 6D A5 F6 2F 44 52 48 AD D4 76 D5 6E 42
DPCM : B5 55 94 12 D2 B6 7A B7 AA 2B 41 B2 92 6A 49 DD 56 ED 2B 95 25 04 2A D5 BD AA 75 55 5B 13 54 55
DPCM : 90 92 FA 77 B5 55 49 56 09 A9 4A 6D 49 BD 7B B5 2A 10 55 4A AD AA D7 AA 6A 55 D9 0A 21 29 ED 5B
DPCM : D5 DE 14 55 24 55 93 AA 54 BB BB 55 97 90 94 A0 AA D6 6E 55 ED 56 59 25 24 09 55 ED B6 BD A9 AA
DPCM : 92 4A 25 A9 52 D5 6E ED 5D 92 24 25 95 4A 6B 5B 55 AB B5 95 24 09 A9 DA D6 B6 55 6B 49 4A A5 52
DPCM : 4A AA DD 75 B7 52 25 51 24 95 D6 56 6B B5 6D D5 24 52 22 A9 5A ED B6 AD AA 24 6B 92 A4 94 6D 6B
DPCM : D5 5D 55 8A 48 55 A9 56 D5 D6 56 B5 4A 52 25 52 AA 6D B7 56 AD 52 55 92 94 4A 55 6B DB BB 54 15
DPCM : 51 49 92 5A AB B6 55 7B 2B 49 49 91 92 AA DD 56 B7 52 B5 4A 52 92 54 D5 DA D5 6A 57 22 95 4A 55
DPCM : 95 6A 5B ED 2A 55 55 94 48 55 B7 55 6D A5 AD 8A 54 52 52 55 B5 57 DB AB 44 2A 55 92 52 DA B6 D6
DPCM : B5 DA 2A 42 49 4A 55 D5 6E D5 B6 AA 4A 29 49 2A D5 56 5B B7 4A 55 29 55 4A AA AA 76 B5 5A 2B 25
DPCM : 55 92 B4 6A 5B 55 6D AB 4A 49 29 95 54 AD 6D B7 2A 55 95 54 92 54 A5 6D 57 6D 5B 95 94 44 AA 52
DPCM : AB 6A DB AD AA AA A4 14 51 55 6D 6B 55 6B AB A4 52 29 A5 AA D5 5A DB 2A 95 52 A5 52 55 D5 5A 6B
DPCM : A9 35 25 15 A9 AA 6A 6D AD B5 AA 54 49 25 51 55 6B 6B DD 56 55 92 52 54 4A 59 B5 5B 6D 5B A9 A4
DPCM : 54 22 55 B5 AB 56 6B AD AA 44 49 55 AA AA 6E AB 6A AA 52 55 92 AA 5A 5B 55 DB 2A 55 52 A4 AA 6A
DPCM : AD DA AE 2A 55 49 55 92 A4 D6 76 55 75 57 2A 49 AA 2A 95 5A D5 75 53 D6 54 4A 49 AA 56 6B 55 55
DPCM : 5B A5 54 4A AD 54 5A 5B ED 26 49 55 55 4A AA B6 56 B5 AA B6 49 92 A4 AC AA AC 57 6D AB 52 95 52
DPCM : 49 94 DA D5 DA 56 AD A5 48 A5 54 55 52 DD 55 5B 55 55 29 25 A5 EA 56 A9 55 AB 55 29 55 A9 AC 52
DPCM : 6D 5B 55 29 55 55 49 95 AA 5B 55 75 AB 2A 51 92 AA 6A 55 B5 DD AA 52 55 2A 45 54 AA ED 55 D5 D6
DPCM : AA 24 95 AA A4 AA AA DD D6 4A 55 AA 94 54 55 D5 56 55 D5 56 29 95 AA 4A 6A AB D5 AA 4A 55 55 55
DPCM : A4 B6 AA 56 B5 56 4B 49 51 6A 55 AA B5 B5 D6 4A 55
DPCMDEF  60  4081 "Church_Cs"
DPCM : 3C 78 E9 43 1D C0 3F 1D 9E E1 0D F0 07 7F 71 3C E0 3F 00 E0 BF 77 F0 01 FC 20 08 7F FF 01 FE 20
DPCM : 18 FC 31 9F 39 0E 01 FF 03 78 C6 07 FC 3F E0 FF 80 00 FE 01 FE C7 70 8C 03 80 7F FC 1F E8 03 CE
DPCM : 07 C8 E7 FF 01 E0 83 07 3F 18 FE 1F 80 DF 31 E0 1F 70 FE 01 C0 FF 0F 00 F4 FD C1 07 FC 1F 00 38
DPCM : F0 EF E1 81 DF 01 7C E0 FE 07 80 7F 1F 30 18 F0 FF 03 04 FF 03 E0 FF C0 C7 03 FC 7F 00 F0 E1 0F
DPCM : 0F C8 7F 3E 00 E0 9F 0F 0E 7E 7C 00 C0 FF DF 03 F0 BF C0 00 FC 83 1F 07 F8 E7 01 C0 FF 01 7E 3C
DPCM : D8 FF 01 C0 1F 78 F8 0F F0 0F 01 7E F0 19 FE E1 E1 03 08 F6 3F 70 DC E3 0F E0 08 7E FC E0 83 7F
DPCM : 00 1E 7E 1C E4 03 FE 07 10 FE FD 00 FE C0 9F 07 00 FC 3F E0 E7 05 1F 44 10 FE F1 E1 9F 17 00 1F
DPCM : F8 E1 0F 8F E3 07 1E C0 1F C3 73 82 0F FE 00 F0 7F F0 C1 3F E0 3C 00 FC F1 07 FC 0F 3E 02 E0 C7
DPCM : 1F 81 7F 1E 3E 80 C7 E3 07 F8 1F F8 01 E0 C3 E7 03 7F F0 33 40 D0 EF 13 FC 60 FC C0 40 8F 1F EC
DPCM : 1F F8 94 83 01 FF 07 7C F4 F1 80 07 E0 7F F8 70 F0 07 9C 03 7C 1E FC 60 FF 40 0F 98 3F D8 63 B8
DPCM : 83 8F 00 FE 39 8B E1 C3 C3 0F 80 FF F8 C0 E7 01 FF 00 7C F8 71 E0 0F FC 07 38 D8 F9 01 DE C3 1F
DPCM : 00 3E F2 87 E1 07 FE 07 C0 E3 DF C0 0F C0 FF 00 F8 F8 03 F8 1F 78 3C 38 C0 FF 01 3E 1E 3F 70 04
DPCM : E7 0F 8E 07 FE C0 C1 C0 FF 81 1F F8 79 E0 01 FC 07 3E 7C 74 F0 43 C0 3F 1C 1E FE 10 FC 03 7C 0F
DPCM : 16 FC 1F C0 0F 80 3F 8F 41 FC 83 F7 01 C3 17 7E E0 5F E0 01 94 3F 7C D8 FD 80 C7 03 1E FC 1E F8
DPCM : 87 80 0F 1E 8E 7F 80 F3 83 0F C3 07 F8 71 E0 E7 F9 00 3E 30 FC 61 FE E8 0F 0C 3C F0 0F F0 87 0F
DPCM : 1C 3E 84 FF C0 87 0F 0F F0 0F F0 C3 83 C7 3F 80 7C E0 F1 C1 8B 7F 0F F8 30 E0 72 0F 83 3F 18 5E
DPCM : A1 C7 E1 0F FE 00 FC C1 E1 83 0F FC 6F 80 F8 E0 03 FF 00 FC 37 F0 E1 07 C8 1F 38 7E F0 01 FF 00
DPCM : 3E 0F FE E0 83 E0 87 83 1F F0 FF E0 80 E7 03 FC E0 FD F0 01 C0 3F F0 3D 78 F0 F4 01 7E 04 3E 7C
DPCM : FC C1 0F C0 1F 1C 5E F0 83 FF 01 8F 09 F8 E0 6F F0 07 18 7E F0 E0 FC E0 1F 08 7C 78 3F F8 03 8F
DPCM : 0F 98 0F 7E C0 0F 03 FF 01 1F FC 01 E0 47 F9 0F 7E E0 F1 00 FF C0 1F 7C 10 F8 07 F0 07 3F 3E 1C
DPCM : 80 FF 80 1F 1F 0F 47 03 FC 83 87 C3 DF 01 7F E0 07 E1 E1 B2 1F F8 80 FD 00 D8 1F 3F F8 0F 80 F7
DPCM : 00 0F FE 03 7F 00 C3 87 1F E0 3F F6 61 C0 07 FF 00 7F 78 F0 01 7F F8 01 78 FC F0 0F 78 80 3F 1C
DPCM : F8 C3 3F E0 03 1E 1F E0 1F FE 81 07 84 FF 00 FF E0 C3 83 06 F0 1F F8 F0 C7 03 FE 00 7F 38 E0 97
DPCM : 1F B8 07 7C 28 C0 CF FF 83 0F 20 F7 01 E6 F0 07 3F 70 F0 73 F0 C0 3F 3C 1C 20 7F F0 01 FF 3E 18
DPCM : 0F FC C0 07 D8 DF 03 1F F0 03 3F 00 F1 1F FE C0 07 F8 71 80 7F F8 03 7C F8 E0 03 FC F9 0F 30 F8
DPCM : C0 1F E0 CF 1F 50 F0 07 FE 00 87 7F FC 80 0F F8 03 14 FF F0 03 7E C0 1F 05 F8 F3 1F F0 01 86 3F
DPCM : E0 83 FF C0 C3 03 FE 81 0F F8 C7 81 17 F8 07 1E F0 FF 01 FC C0 0F 7C 00 FE 3F F0 01 3F F0 80 03
DPCM : FF F3 03 F8 E1 81 07 F8 CF 1F E0 C0 87 3F 80 FF 3C C0 E1 0F FC 01 3C FF 40 81 7F E0 07 0C FE D7
DPCM : 07 F0 83 0F 20 F0 FF 3F C0 07 8C 3F 80 7F FF 00 0C 1F F8 00 7E F8 0F 01 7F 55 0F 38 E0 FF 03 DC
DPCM : 07 1F 70 80 FF 1F 80 1F 7E C0 81 E0 FF 0F 14 FC 43 E0 78 F8 3F 0C 38 3E 0E F2 80 FF 07 B0 3F 2C
DPCM : E1 03 EE FF 00 F0 FF 00 85 81 FF 1F 40 FC 47 60 50 CF FF 1C E0 1D E0 81 81 FF 7F 00 FC 07 80 1F
DPCM : 8F FF 07 00 FF 03 05 D3 5B 7F 00 F1 B7 80 07 74 FF 23 E0 FD 03 80 1E F8 FF 03 C0 FF 01 30 1F FE
DPCM : 7D 00 CC 1F 00 3E FE FD 00 C1 FF 00 3C E9 E1 7F 00 F4 3F 00 F8 71 FC 67 00 FF 1B 00 7E F8 FA 01
DPCM : DC 3F 00 D0 FC C5 1F 80 FF 0F 00 F8 87 FF 07 00 FF 01 C0 FF E1 69 20 FE FC 00 F0 DB 3C 1D F0 FD
DPCM : 01 00 BF 03 FF 08 DE 7F 00 C0 1F DE 4F 01 FE 07 00 FE B7 81 75 E0 FB 01 E0 FB 1C 7C 40 FC 3F 00
DPCM : F8 1F 38 7C 04 FF 07 00 FE 2B E8 0F F4 0F 02 F8 EF 81 FA 81 F7 07 00 FE 0F F0 43 E1 FF 00 80 FF
DPCM : 81 7A 1F BC 07 00 F8 7F 02 5F EB 0F 06 80 FF 03 FC 83 9F 77 00 E0 3F C0 CF 1F F8 01 00 FE 0F 0C
DPCM : FF 29 BD 10 E0 FF 01 F8 6F 94 3E 00 FE 0F 00 FF 0F F8 03 80 FF 03 B0 FF E1 03 00 F8 7F 01 FC BF
DPCM : B4 00 C0 FF 1F C0 FF 48 E9 00 7C FF 00 F8 FF 00 0F 0C F8 3F 00 FC DF 06 2C C0 FF 01 E0 FF 2F 10
DPCM : 03 FE 7F 00 FE 9F 00 05 B8 FE 0F C0 FF 07 50 2C E0 FF 00 F0 FF 16 E0 10 FE 17 00 FF 7F 00 0F F0
DPCM : FF 03 C0 FF 07 20 D1 F0 1F 40 FF 3F 00 F0 E1 FF 00 E0 FF 17 80 0E FC 47 01 FC FF 01 7C C0 D7 0F
DPCM : 00 FF 1F A0 C2 C7 53 41 E0 FF 07 C1 79 55 E9 01 FC 7F 00 78 EB E0 0F E0 FF 03 60 F8 07 3E 01 FE
DPCM : 7F 20 80 FF C4 15 C0 FF EF 00 F8 81 AF 04 F8 FF 03 C0 4F C2 1F E0 FF 1F 00 F0 0F 7C 40 7E FD 07
DPCM : 00 3F 3A 15 70 FF F7 01 50 87 0F 80 FE F5 1F 00 A7 6D 00 F8 E7 FF 01 10 5F 1F C0 95 FF 0F 00 0F
DPCM : FC 01 0F F1 FF 01 1C F9 07 D0 0B FE 3F 00 F0 7F 00 F4 C1 FF 39 00 F5 37 C0 01 FF BF 40 50 FF 00
DPCM : 0F FC 7F 05 08 F0 1F 17 8C FF 0F 70 80 BF 51 91 E0 FF F1 00 FE 11 54 05 FC F7 07 40 FF 01 1C F8
DPCM : F7 1F 02 C0 1F 3E 80 FF 5F C0 80 3F F8 41 E0 FF C3 03 F8 BC 50 18 F8 E7 1F 40 FE 06 1C E0 8F FF
DPCM : 04 5C 1F 78 00 CF FF 0F 00 FE E0 01 F2 D7 F7 07 40 F0 67 80 FB 43 3F C0 5C F9 08 C0 1F FE 03 F8
DPCM : ED E8 00 1F F8 7F 40 F9 F0 03 C0 87 FF 27 70 C0 9F 00 3F FE 3F 40 60 FC 03 BC 05 FF 51 D0 E0 3F
DPCM : 80 1F 7C 2F F0 03 FF 03 10 54 FF E1 1F C0 1F 00 1F F8 5F FD 01 BC 02 78 E0 FF F0 07 80 3F F0 0A
DPCM : FC 87 F3 03 7C 09 1F E0 77 E0 1F C0 3F 7C 00 F8 07 FF 03 3E 3C 0C C0 7F F8 0F 1E 82 FE 00 F8 C7
DPCM : 9F 41 1D F0 0F E0 67 FD 03 E0 29 FE 00 7F C2 57 48 3F F8 07 80 97 CB 0F 7E C0 7F 00 E0 C7 1F FE
DPCM : 07 E0 11 C0 E3 FF C1 1F 00 FC C1 83 FB 0F 38 3D E0 47 2D C0 7F 06 7E E0 3F 38 01 CE 0F FC 07 FD
DPCM : E0 01 80 FF C3 7F 70 E0 62 01 F8 7F 7C 5C 40 E8 17 C0 FF 1F 30 B1 94 FE 03 B8 3F 40 AE D5 E0 1F
DPCM : 00 FE 4B E8 FD 81 55 01 E0 FF 3C F9 91 10 2D 04 FC FF A9 4C 03 E4 17 A8 FF 07 52 55 01 FF 03 F0
DPCM : 7F 40 E8 9F E4 3D 00 DE B6 C0 FE 07 F4 02 C0 FE 17 DA 7F 00 16 00 FF FF 03 FC 03 C0 E2 D2 F7 3F
DPCM : 00 57 A0 F4 E5 91 FE 01 F8 1A F4 43 1D E0 1F E0 FF 41 07 3C 01 FE 0F FC 0F 03 C0 07 EC FF C1 1F
DPCM : 2A 00 DF 42 FE 0F 5C F0 01 78 7F E0 3F 30 E0 3F 01 FC 07 3E F8 80 FF 3F 00 0F 70 F0 97 C7 FF 01
DPCM : 10 70 E9 D7 1F F0 0F 00 F0 EB 2D FF 00 3F 00 F0 5F 1F F8 03 78 1F 80 5F 7E 80 0F D4 FF 03 1C FC
DPCM : 03 70 1F F4 1F 03 C0 1F 88 FF C3 7F 10 00 F6 77 F0 0F 3E E0 01 90 FE C7 0F FC 60 07 0F F8 1F 1C
DPCM : B8 C1 DF 1E 80 1F 05 E1 F3 3F FE 01 80 7C E0 C3 FF E1 03 00 F8 E7 15 FC 07 0F 01 F0 7F 3F C0 47
DPCM : 0B 3E 80 BF FF 00 C8 1F F8 83 36 FC 03 00 FF F5 1F 40 E0 63 07 F8 DF 3F 00 80 C3 FF E0 1F 7F 00
DPCM : 81 81 FF 07 1F FD 60 00 3F F8 1F 14 F8 FC 03 FC 80 1F 07 E0 F9 3F F0 07 80 7F 00 AD FF 87 81 02
DPCM : FC C3 2F F8 BF 00 40 F9 4B 7F C0 F7 03 00 D5 3F FD 80 B8 0F F1 03 7E 7C 08 C0 FF E9 07 38 51 69
DPCM : 09 FC FF 0F 40 11 52 FF C0 FF 1F 00 A0 0E FA 2F 5D ED 0A 00 FC 6B 5B 2B A0 F7 06 E0 5F 51 59 0A
DPCM : A7 FF 02 55 55 05 E1 6F FD 13 41 A0 53 D9 FA DA 5F 00 60 9A BE F6 12 FD 03 00 5D 5F D6 3E C0 D5
DPCM : 05 4A FF 05 F4 24 E1 FF 04 E2 1F 80 7E A1 FB 5F 00 78 05 F0 FF 6A D3 0F 00 F0 0E FD EB 01 5F 00
DPCM : F0 5F 79 C9 0B D5 05 A8 BF D4 91 55 D0 7F 05 DC 6A 04 FC 95 DC 7F 00 54 4B C0 FF 43 FF 03 00 F8
DPCM : 43 FA 3F B8 16 04 E0 FF 41 FE 03 55 2D 11 F8 3F E0 55 55 55 4F 84 F7 40 91 C7 DF 79 08 78 51 E0
DPCM : 77 7D 17 0F 00 F8 21 BF 6F 07 7D 00 C0 7F D1 AB 1F 04 AF 00 FE A7 81 D7 0B F8 1B E0 F3 01 88 FF
DPCM : 49 FE 41 E0 52 03 FA 7F 3A 55 80 84 CF 0B FF 0F 2A 80 D2 E5 57 B6 1F D0 52 E0 DA 57 91 F6 10 F5
DPCM : 54 A9 D6 16 C0 3F D5 B5 4A 02 5F 00 FF AF 56 43 05 E0 17 F8 FF 65 01 35 00 FD A7 F6 53 0B 60 17
DPCM : D0 BF 54 87 BE 00 FD 11 DB 84 4F E4 6D F4 25 E0 03 F4 2E 7F A9 FA 00 28 92 7F F6 1F E0 03 40 07
DPCM : FF 2D FF 00 D5 80 0F BE 1F F8 41 F0 87 65 05 7F 50 FE C0 57 AA 0F A0 57 F0 69 FF 01 0E 10 7C FA
DPCM : AF E0 1F 02 06 FC F4 FD 01 E7 03 0A F0 3F FA 43 A1 15 1F 05 FE D8 52 85 57 D7 0E B0 54 F1 43 F6
DPCM : 47 3F 00 68 E1 5F C5 1F 3F 00 60 D3 FA A7 0B 7D 0E 00 FC E9 57 17 24 FD 05 E0 B3 47 56 15 E5 7F
DPCM : 40 C8 57 45 EA 96 FE 23 00 EC 5A 72 2F F5 9F 00 80 FE 52 F7 A8 6D 07 00 F8 5F D5 56 45 DD 0A 80
DPCM : FF 25 71 95 55 7F 00 F8 B5 A0 D2 57 F5 1F 00 F8 25 41 FF A3 3F 01 40 F7 15 F8 1F 5B 17 00 EC FE
DPCM : 80 BF 12 FB 00 58 FC 0F D0 5F E4 0F 2C C0 FF 00 F8 8F 3F E8 00 FA 47 C0 9F FF 80 15 C0 FD 01 5F
DPCM : F5 0F 28 11 F0 1F F8 E9 1F 44 7C 00 FF D0 81 FF 0F E0 03 F8 93 05 8E FF 01 7F C0 63 83 06 FC 3F
DPCM : F4 81 E4 05 2F C0 FF 73 50 F0 15 F8 03 FC 3F B0 80 FE 84 1F E0 FF 20 07 F2 0F 3E 00 FE 1F E9 80
DPCM : 3F D0 13 C0 FF F3 03 F8 01 7A 00 FE EF 0F C0 0F 52 17 E0 BF 7F 00 F8 06 7E 00 BF FD 07 00 7F D8
DPCM : 01 FC F2 9F 02 F8 E1 15 C0 E5 FF 17 80 4B 6D 80 69 CF FF 00 78 F5 10 C4 1F FC 1F 40 FC 53 01 BC
DPCM : DA 7F 20 F0 D5 0F 80 4B FF 3A C0 E2 5F 00 0E FD FD 81 C0 F7 07 20 7C FE 35 C0 E0 3F 0A 98 FA FD
DPCM : 60 04 FF 07 00 7E 7E F1 03 E8 3F 05 40 FD D3 47 81 D7 1F 00 F0 FF D1 81 4A 7F 14 40 FD F3 83 04
DPCM : BF 2F 00 F8 6B 57 03 5A 7F 0B 00 FB 55 17 15 5B FF 00 80 7F A7 45 55 F6 07 00 FA 77 17 54 69 FD
DPCM : 00 E0 77 3F 90 2A FD 16 80 BA 7E 0B 26 E9 FF 00 50 F5 2B 55 45 FB 1F 00 E0 DF 52 55 95 FD 01 00
DPCM : FD BF 50 1B DC 17 14 E0 FF 03 4D C8 3F 59 40 D5 3F 54 05 FE BD 40 40 FF 81 17 DA FD 49 00 F0 1F
DPCM : 57 55 F6 2D 29 00 7F 1B 2D 55 3D FC 00 F0 7F 22 25 7E F0 17 00 FF 87 0A F0 A7 BF 01 E0 4F 1D C0
DPCM : DF FA 15 00 3E FA 04 7E B7 FA 01 80 FA 0F B4 7D D0 1F 00 F8 FF 40 E8 07 BF 10 89 FF 1B 00 1F F5
DPCM : AB 44 58 F7 03 E0 F5 5D 0B 14 F0 1F C0 DB DF 16 50 00 FF 53 D2 AD 9F 80 04 F8 FF 90 55 76 49 56
DPCM : C0 FF 07 90 B4 2F 75 49 E8 3F 00 A1 FF AB 5A 00 FE 92 80 FE 7F A2 02 E0 B7 55 68 FF 05 54 40 DB
DPCM : BF 0A E4 3F 50 21 ED EE 15 04 7E 55 53 A5 76 2B 01 F0 DF 75 25 A4 A5 55 00 FF 7F 92 90 04 7F 15
DPCM : F8 FD 45 40 8A FA 3E 09 DD AB 10 91 DD DD 0D A0 7A 4B 85 DB 96 AD 00 F0 DF 55 29 2B 55 25 C0 FF
DPCM : B7 06 12 35 7A 82 F6 7F 03 14 2C EA 5F 44 F7 07 01 DC 53 FB 03 A1 57 2D D0 BE F2 25 80 56 DF 25
DPCM : F6 34 B2 04 54 FF 3F A0 36 90 2B A4 DE FF 02 58 81 BD 45 57 ED 17 80 AA EA 57 A5 44 F7 00 FC D5
DPCM : B6 4A 12 F0 1F D1 AE 6D 41 4A 40 FF 4F 4D D1 46 50 93 FA 7F 22 22 AD 48 7B A1 FF 05 04 B9 AD DC
DPCM : 0B DA 8B 14 54 FF A2 2B 10 D7 56 2A F5 8F A8 02 A4 7F AF 50 BF 80 44 85 7F FF 04 58 55 82 2B DF
DPCM : DA 1B 80 F4 46 57 DA 96 3A 81 D0 5F DB 12 95 74 69 48 7F A7 05 0A 5A ED 4B D5 A7 05 24 74 F5 7F
DPCM : 81 4A 47 48 F4 5D FD 85 80 56 AD 94 FE D4 54 11 94 FD 1D 54 AB 24 4B AA 6B BF 04 49 C9 B6 D2 5B
DPCM : 6B 89 40 C9 F6 AB AD 54 2A 81 DC BA 77 55 44 D4 46 78 5B B7 4A 52 A0 5F 55 55 AD 4A 68 0B 7D 6F
DPCM : 05 49 6D A0 5F D5 B6 15 04 E8 57 DB B6 95 44 5A 80 BF BD 2A 13 15 F4 22 77 BB 25 05 5A F2 55 D5
DPCM : 56 49 15 B4 D9 7D 49 52 45 56 F4 2D DD 35 01 4C 6E D3 7D 29 72 05 A8 FA 5D AE 5A 80 55 AC CA BF
DPCM : 15 D4 04 B5 7A 4B B5 1D 44 93 EC D5 AB 12 69 21 BB 74 BB 95 24 60 AB 7C DD AA 4A 52 00 7F 5B 77
DPCM : 13 51 54 83 BC DF AA 86 24 A2 5F 55 F5 4A 51 68 25 FB 37 42 55 25 51 5F D5 7E 02 21 EA 56 D7 2D
DPCM : D5 42 44 D4 6F 57 57 50 25 29 E5 DE 57 B4 10 54 BB 65 D5 2F 50 25 92 7D AF 05 B5 12 AA BA DA 6D
DPCM : 17 00 AB A6 DE D5 89 AE 00 E8 7E F5 AA 26 A8 12 A9 FE ED 05 2C 41 6D 9B DC D5 15 50 91 EE 7D B0
DPCM : 25 4D 50 AB 5D FD 41 44 74 C9 DA BD D8 0B 04 70 DF 4B FD 81 4A 2A A0 F7 7F D0 42 49 74 D5 96 FD
DPCM : 41 84 B4 F4 D6 1B B4 25 09 EC 7A AF 2E 10 8B 9A F4 D5 2F 65 00 4A FB EA 56 37 41 05 89 FE B7 8D
DPCM : 58 81 4A 5B F4 5F 2B 40 45 2B DF AA 56 B5 00 C9 6F F5 0D 15 54 A5 52 DF 57 07 51 A0 DA 5E F5 96
DPCM : 15 44 50 BB F7 A9 4A 52 A4 54 7D FD 85 44 52 D2 6E B5 DA 25 04 A9 DD 6E 6D 91 94 52 A4 7B DF 52
DPCM : 44 44 DA 56 DB BD 12 11 A8 EA B7 AE AA 24 05 D1 ED DD 56 22 49 6A AA 57 B7 95 10 4A 75 D7 56 55
DPCM : 2A 05 6A DD BB 4D 12 91 AA 74 DB DD 49 90 08 ED 76 6B 6B 29 04 95 7A F7 56 92 94 12 AD 7A BB 26
DPCM : 51 88 AD 5D 75 2D 95 44 A2 DE ED 56 09 A9 48 A5 7D 6F 4B 12 50 65 AF B5 5B 0B 14 A2 D6 DE AB 12
DPCM : 1B 91 64 77 F5 55 42 54 69 D5 B6 D5 0A 15 94 7A 77 B5 52 49 A4 54 DB FD 54 41 09 69 6B 5B DF 22
DPCM : 91 48 EA 5D B7 B4 12 45 54 ED B6 6E 41 29 55 A9 5B 2F 55 49 50 ED 55 97 AD 48 92 54 F5 ED 2D 24
DPCM : 15 49 7A EB B6 2D 41 24 55 DD B5 AD 4A 12 4A 6D DB 2B 55 52 89 AA 76 6B 4B 52 21 AD 5D D5 AD 14
DPCM : 45 49 6D F7 2A 55 92 48 65 6F DD 55 12 A1 D2 AA BB AB 2A 49 50 D5 5D B5 2B 49 29 A9 B6 75 4B 45
DPCM : A5 54 D5 B5 69 93 24 AA 6A DB B6 4A 49 11 D5 B6 DD 55 91 44 4A D6 5E 7B 25 49 21 D5 AE B5 B5 8A
DPCM : 44 A5 AA B7 AA 2A 55 A2 6A 57 DD 52 52 A8 D5 AA DD 2A 49 2A A4 F5 AD B6 45 92 28 B5 76 6F A9 22
DPCM : 2A 52 F5 56 BB 89 12 95 5A 6B 37 A9 25 45 6A 6D 2D DB 90 4A 55 B5 D5 5B D0 44 49 DD B5 55 5D 90
DPCM : 48 55 DD DD 16 A9 12 91 5D 6B AF 56 90 92 95 DA D5 4D B4 24 C9 5E D5 A6 1A A9 52 55 DD 53 15 55
DPCM : 48 6D 57 75 A7 14 A2 D4 DA F6 49 93 52 44 DA 5D F5 95 44 AA 94 56 F7 64 53 92 A8 B6 55 B5 A5 94
DPCM : B4 A4 5D 77 44 55 49 6A 57 AD BA 22 21 AB B2 D7 AE 54 4A 21 EA B5 5B 5B 22 29 55 D4 57 57 55 49
DPCM : 92 7A A5 B5 56 49 A5 2C 75 57 25 55 45 A5 6E D5 AE 0A 89 AA 56 ED AD 54 29 21 A9 7D D5 B6 12 A5
DPCM : 92 AA FA B6 54 4A 51 55 5D 55 5B 49 A9 92 AD B5 2A 55 55 A4 AB 56 5B 93 44 5A A5 6D 5B 4B 29 25
DPCM : E8 6E D5 B6 2A 94 34 52 7D 5B 55 25 15 6A AB 5A 5B 95 94 AA 52 D7 52 55 95 4A DA 55 6D 95 94 4A
DPCM : 55 B5 5D 55 55 84 54 ED 56 DD 26 54 49 AA DA 5D A5
DPCMDEF  61  4081 "Church_D"
DPCM : 55 55 A9 35 D1 9D 54 8E 35 C2 FC 61 BD 50 07 9E 0F 98 C7 FF 00 F8 61 C1 0F C3 FF 01 FC 8E 80 7F
DPCM : C0 FC 03 C0 FF 07 00 7D 7F 78 C0 FF 01 80 C1 BF C7 07 9E 03 7C E0 FF 03 A0 EF 03 86 01 FF 3F 00
DPCM : FC 0F C0 FF C1 87 03 FC 3F 00 7C FC F0 80 FC F7 01 00 7F 1E 16 7E 7C 00 E0 FF F7 00 FC 0F 0C C0
DPCM : 3F FC 18 E0 9F 03 C0 FF 04 3F 0E F6 3F 00 FC 81 C3 FF 80 3F 04 F8 F1 11 FE E1 F8 01 82 FE 07 C7
DPCM : 39 7E 00 27 F8 F9 C1 86 7F 00 87 1F 0E F9 80 FF 00 E1 EF 07 F0 07 7F 0E 00 FC 3F F0 79 C1 07 09
DPCM : C0 3F 1F 7F 7A 00 7C E0 C7 0F 8F F3 03 07 F0 C7 78 46 F8 E0 0F C0 FF C0 07 7F E0 3D 00 FC F8 81
DPCM : FF C1 23 00 3E FE 0C FE 3C 78 00 C7 E3 07 FE 0F 3E 00 7C 78 3E F8 83 CF 00 E0 DF 13 FC 60 7E 20
DPCM : D0 E3 87 FC 83 4F 1D 0C F8 1F F0 D8 F3 80 07 E0 3F 3E 0C FE 80 3B E0 F7 E0 03 FD 03 1D 98 3F D8
DPCM : 33 EC E1 21 C0 3F E3 0C 1F 1E 3E 00 FF F1 C0 E7 81 3F 00 1E 7E 0E FC C1 7F C0 41 E7 07 3C 87 3F
DPCM : 00 3E F8 63 F8 C1 FF 00 1C FF 0C 3E 00 FF 01 F0 F8 03 F9 0F 3E 0E 0E F8 1F E0 F1 FC C0 11 9C 1F
DPCM : 8E 07 7E E0 30 F0 7F E0 03 DF 07 0F E0 1F F8 F0 F1 E0 43 E0 1F 06 8F 1F 86 7F C0 F3 50 E0 FF 00
DPCM : 1F 80 3F 8F 08 FE E1 7D 40 7C C5 07 FE 05 07 50 FE F8 D0 FD 80 C7 01 0F BF 03 FF 08 F8 E0 31 FC
DPCM : 03 CE 0F 1E C3 07 FC 38 F0 39 1F C0 07 C3 1F F2 C7 1F 30 78 F0 1F F0 C3 07 86 0F F0 1F 78 F8 78
DPCM : 80 7F C0 87 87 C7 3F 00 7E F0 78 B8 F8 EF 80 0F 03 CD 75 0C 7E 70 5C E1 C3 F1 07 3F 80 1F 1C 3E
DPCM : F8 C0 FF 01 E2 C3 07 FE 00 FE 0B 7C F8 01 F9 83 E1 87 07 FC 06 78 3E FC C1 03 F8 C3 C1 07 FE 1B
DPCM : 1E 38 3E E0 83 F7 E1 03 C0 3F F8 1C 3E 3C 7C C0 0F E1 C1 67 0F 3F 80 3F 18 7C F0 C3 FF 80 63 02
DPCM : 1E FE 0A 7F C0 F0 C1 C3 F1 C3 1F 08 3E BC 0F FC E0 F1 81 F9 E0 03 3E 0E FC 07 1E F8 01 E1 47 FC
DPCM : C3 0F 3C 1E F0 0F FC E1 81 E0 1F E0 0F 3F 1E 0E E0 3F F0 E1 F1 70 34 C0 1F 1E 07 7F 07 7E E0 43
DPCM : F0 E2 EC 03 1F D8 0F 80 7F F8 E1 3F 00 F7 00 0F FE C1 1F A0 F8 F0 03 FE E1 07 03 1F FC 03 7E 70
DPCM : F8 81 1F 7E 00 8F 0F FE C0 07 FC 70 F0 07 7F E0 07 8E 0F F0 47 7F F0 00 F8 0F F8 07 0F 0F 0E E0
DPCM : 3F F0 F8 E3 01 1F E0 0F 07 FC F9 81 3F F0 81 80 1F FF 83 0F 98 7D 40 1D FE E0 03 83 BF C1 03 7F
DPCM : 74 38 20 7F F8 80 BF 07 C7 81 1F 7C 40 FD 1F 78 C0 07 3F 00 F1 0F 3F F0 11 3F 0C F8 C7 1F E0 E1
DPCM : C3 07 F8 F1 0F 38 78 E0 07 FC F5 03 05 3F F0 07 1C FE F9 01 1F F0 03 84 7F FC C0 0F FC 50 C0 8F
DPCM : 7F E0 07 88 7F C0 83 7F F0 E0 81 3F F0 81 7F 1C 3C C1 1F 3C C0 FF 03 7C E0 07 1F 80 FF 07 3E F0
DPCM : 81 07 0E FC CF 0F F0 E1 81 07 FC F3 03 1C 7C F8 03 FC F3 01 C5 1F F0 03 3C FF 40 E0 1F F8 81 81
DPCM : FF 3F 80 1F 3C 80 E0 FF 3F C0 07 D2 0F E0 DF 1F C0 F0 C1 07 F0 E3 3F 00 FC 55 0F 18 F0 FF 01 F7
DPCM : E0 07 05 F8 FF 00 7E F8 C0 81 E0 FF 07 05 FF 00 3C 0F FF C3 C0 F1 74 C0 03 FF 0F A0 1F 2B F8 01
DPCM : FB 3F 00 FE 0F 50 14 FC 7F 00 F8 4F 60 50 EF 3F 0E F8 03 1C 18 F8 FF 03 F0 0F 01 1F 1F FF 07 80
DPCM : FF 40 C1 F4 F5 07 90 3F 03 1E 70 FD A7 C0 FD 03 80 0F FC 7F 00 FC 1F 00 F9 F0 FF 01 D0 1F 00 3E
DPCM : FE 3F 40 F0 3F 80 95 1E BF 07 C0 FF 00 F0 63 F9 27 80 FF 07 80 8F AF 1F C0 FD 01 40 F3 97 3F 00
DPCM : FF 07 00 FE E1 FF 00 F0 1F 00 FC 0F AF 81 F8 FB 00 F0 DB 3C 07 7C 3F 00 F0 3B F0 47 F0 FF 01 80
DPCM : 3F DC 4F 01 FD 03 80 FF 1B 58 0F 9E 1F 00 EF 73 F0 C0 F0 3F 00 FE 0F 0C 1F E1 7F 00 F0 6F 84 3F
DPCM : D0 3F 00 F0 FF 81 7E E0 FD 00 A0 FF 01 3F 04 FF 03 80 FF 03 7A 1F FC 05 00 FE 0F E0 B7 FE 60 00
DPCM : FC 0F F0 87 9F 77 00 F0 1F E0 F5 07 3E 00 E0 7F 41 FC A7 F4 02 E0 FF 01 FC 1D E5 07 C0 FF 01 F0
DPCM : 7F C0 0F 00 FE 0F A0 FF E1 03 00 FE 8F 80 FF 4B 0B 00 FE 7F 80 FF 28 E5 00 FC 7F 00 FC 1F F0 00
DPCM : C0 FF 03 F0 7F 15 55 80 FF 05 F0 7F 89 0E 80 FF 07 E0 FF 01 3F 00 FC 1F 80 FF 83 0F 00 F8 3F 02
DPCM : FE 4F 2B 00 F8 FF 01 FE 23 A5 03 F0 FF 01 F0 7F C0 03 01 FF 07 C0 FF 5D C0 00 FF 13 C0 FF 0F 24
DPCM : 81 FF 1F 80 FF 0B 50 80 EB 3F 00 FF 0F 58 34 E0 7F 00 FC BF 01 2E E0 7F 01 F8 FF 01 3C C0 FF 03
DPCM : E0 FF 03 28 34 FC 07 F0 FF 03 80 0F FF 03 80 FF 1F 80 07 FE 51 00 FF 3F C0 07 7C 7F 00 F8 7F 80
DPCM : A2 C7 53 88 F0 FF 01 78 5E 95 0E E0 FF 03 E0 AD C3 0F E0 FF 01 18 FE C1 07 C0 FF 87 00 FE 13 17
DPCM : A0 FF EF 00 F8 A0 AF 00 FE 7F 00 F8 05 FE 00 FF FF 00 E0 0F 3C 50 5F FF 01 C0 8F 53 81 F6 FF 07
DPCM : 40 0D 1F 01 FE F5 0F 80 6B 17 00 7F FC 1F 80 79 F5 01 56 FD 1F 00 0F 7E C0 43 FC 7F 80 8A 7F 00
DPCM : 1F F8 7F 80 C0 FF 00 F4 C1 FF 0E 80 7F 03 38 F0 FF 03 41 FD 03 1E F8 7F 11 00 FC C7 85 E2 FF 01
DPCM : 07 FC 49 45 C0 FF E3 01 FE 11 94 03 FE FF 00 F0 1F E0 80 FF 7D 0A 80 3F 3C C0 FF 17 30 E0 87 1F
DPCM : 04 FE 1F 1E E0 F3 50 61 F0 E7 1F 80 BF 02 07 F8 F1 5F C0 F5 C1 03 1C FF 1F 00 7E F0 80 FC F5 FD
DPCM : 00 14 7E 06 DC 0F FD 80 F4 F0 05 C0 1F FF 04 3E 37 0E E0 C1 FF 03 E5 C3 07 80 1F FF 07 38 F0 27
DPCM : C0 8F FF 07 08 CA 3F E0 16 FC 53 D0 E0 3F 80 1F DE 0B 7E C0 7F 00 41 FD 87 7F 00 3F 80 1E F8 5F
DPCM : 7F 00 AF 00 0F FC 0F 7F 00 FC C0 0B FC 87 F3 01 7E C2 07 F8 1D F8 01 FE E3 03 C0 1F FC 07 3E 3C
DPCM : 14 E0 5F FC 83 A3 E0 0F C0 3F 7E 0A 75 C0 1F E0 67 FD 01 78 8A 3F E0 17 7C 91 FC C0 3F 00 9B CE
DPCM : 0F 7E E0 3F 00 F0 F8 A3 FF 00 1E 02 1E FE 0F 3F 00 FC C1 E1 FE 03 4E 07 FC D4 02 FC 1B F0 83 FF
DPCM : 30 01 CE 0F FE 03 3F 78 00 E0 7F FC 07 83 8B 05 E0 FF 7C 5C 40 F8 15 E0 FF 03 15 4B 79 1F E0 FE
DPCM : 00 B5 D6 E0 1F 00 FE 13 7A 7F 60 35 00 FC AF A3 4F 42 38 02 FC FF 29 CB 00 F5 01 FB FF 00 55 05
DPCM : FC 0F E0 7F 10 E8 9F E8 1F 00 B7 4D E8 7F C0 0E 00 FD 5F 68 FF 00 16 80 F7 FF 01 7F 00 2C 2E 7D
DPCM : FF 01 5C 81 F2 55 87 FE 01 F8 86 FC 50 03 FE 01 FE 0F 75 E0 04 F8 1F F4 8F 03 E0 03 FA 7F F0 A3
DPCM : 0A E0 0D E9 3F 74 E0 07 70 7F E0 1F 0C F8 4F 80 FF C0 E1 0B FC FF 00 1E A0 F0 57 C7 FF 00 04 56
DPCM : FE FC 01 7F 00 C0 EF 35 FD 01 3F 00 F8 CF 07 FE 00 D7 03 F8 D5 07 3C 50 FF 07 1C F8 03 F8 1D FC
DPCM : C7 00 F8 81 F8 3F FE 41 00 D8 7F E0 0F 3F 70 00 94 FF F9 C0 0F 76 70 C0 7F 78 B0 82 7F 1F 80 1F
DPCM : 21 F8 FC C7 3F 00 C8 07 1E FF 87 0F 00 F0 E7 15 FE C3 03 00 FC FF 03 7C B4 F0 00 FE FE 01 D0 1F
DPCM : FC 81 0D FE 01 E0 5F FF 01 04 BE 14 F0 DF 7F 40 00 E6 3F F8 87 1F 30 00 E5 7F FC E0 83 35 1C F0
DPCM : 3F 34 B8 C1 EF 07 E0 47 01 7C FF E3 0F 00 F2 81 8F FF E1 03 00 FC 73 85 FF E0 01 00 FF F7 01 1F
DPCM : 2D 78 80 BF FF 00 D0 0F FE A0 83 7F 00 F0 DF 7F 00 81 8F 17 F8 EF 1F 00 C0 F0 1F FC F3 07 00 1C
DPCM : F8 3F 3C FD 41 00 1F FC 0F 0D 1E FF 00 1F F8 71 00 E7 FF C0 0F 80 7F 00 ED FF 61 20 81 3F FC 84
DPCM : FF 03 00 E5 2F FF 40 F7 03 00 F5 4F 1F 50 FD 10 1F F0 F3 21 00 FF A7 0F 38 51 59 02 FF FF 01 14
DPCM : 21 FD 0B FE 7F 00 80 16 FA 2F 5B DB 02 80 7F B6 B5 02 FA 1B 80 7F 45 69 0A A7 FF 40 55 55 81 F8
DPCM : D7 3F 11 80 4E 65 EB DB 6F 01 40 96 BE 7D 44 7F 00 E0 F5 65 FD 00 57 17 28 7F 07 F4 24 F4 5F 81
DPCM : F8 07 60 1F 7A FF 01 E0 25 E0 FB 6B D3 07 00 BC 43 FF 5E E0 05 80 FE D3 45 2F 54 07 A8 BF B4 62
DPCM : 15 F4 5F 80 AF 46 A0 5F B2 FF 01 50 2B C0 FF 51 FF 01 00 7F A0 FF 83 EB 40 00 FF 07 FE 05 55 2D
DPCM : 02 FE 0F 78 55 65 F5 04 FC 03 45 1E FF E5 04 78 92 E0 5F DF C5 03 00 1F F2 F7 1E F8 01 80 7F D1
DPCM : EB 0F C0 2B 80 FF 59 70 F5 C0 7D 80 CF 07 40 FF 49 FE 10 F0 D2 80 FE 9F 4B 05 88 5C 2F FC 3F B0
DPCM : 00 D2 E5 97 ED 07 B4 04 BC BD 25 E9 07 D2 53 A5 56 17 C0 3F B5 B5 92 C0 17 E0 FF 6A 4D 14 80 5F
DPCM : E0 FF 67 01 35 00 FF A9 BF D4 00 7A 01 FF 52 1D FA 04 FC 09 BB A0 17 E9 1B 7D 01 3E 40 DF F2 A7
DPCM : EA 03 A0 88 7F F6 1F F0 00 70 E1 DF F2 0F 50 0B 3C F8 7D F0 41 F0 C3 65 41 3F 94 1F 7C A5 7A 00
DPCM : 77 C1 A7 FD 07 0C 10 7C FE 2B F8 87 40 01 3F DF 1F 98 1E 28 E0 7E F1 47 61 93 17 81 3F 1E 55 78
DPCM : 75 DD 80 51 C5 0F 79 1F 3F 00 58 F8 57 F1 F3 0B 00 34 ED 3F 2E F4 35 00 F8 E9 57 07 49 7F 01 78
DPCM : 7D 64 55 91 FE 03 41 5F 45 EA 96 FD 03 80 BA 16 7B 53 FF 09 00 F8 4B FB A4 6D 07 00 FC 4F D5 55
DPCM : D4 B6 00 F8 5F A2 56 56 FD 02 F0 B5 A0 F2 55 FD 03 80 5F 12 F4 3F FE 02 00 BB 17 E8 3F DB 06 00
DPCM : BD 3F E0 2F B1 0F 40 F1 3F C0 77 64 1F 2C E0 3F 00 FE D5 07 0F A0 7F 00 FE FE 03 16 C0 FE 01 5F
DPCM : FD 03 4A 00 FE 83 9F FE 81 F0 01 FE C1 0A FF 0F F0 00 FE 64 C1 F8 1F F8 03 3C 0E 0C FC 7F F0 81
DPCM : 78 C1 0B F0 7F 1E 04 7D 81 5F E0 FF C0 04 FE 01 1F F0 7F C8 82 FC C1 07 E0 FF A2 03 FE 40 0F C0
DPCM : FF F3 01 FC 80 1E 80 FF FF 00 FC 20 5D 80 FF FE 00 F8 06 3E C0 5F FD 01 E0 8F 1D C0 4F FF 09 F0
DPCM : 43 0F C0 E5 FF 07 E0 52 17 90 FA FC 0F C0 D5 07 80 3F FC 1F 40 FC 53 00 AF F6 0F 12 5E 7D 00 3C
DPCM : FD DB 80 E2 5F 00 0E 7F 7F 20 D8 7F 00 C2 EB DF 04 C2 7F 08 58 FA 7D 58 C0 FF 01 80 AF 1F 3F 80
DPCM : FE 15 00 F5 D7 47 81 D7 0F 00 FC 7F 1C A8 F4 4B 01 F4 CF 0F 12 FC 3B 00 F8 EB D5 80 D6 DF 00 B0
DPCM : 5F 5D 52 6C FD 01 80 7F 67 45 55 FD 01 80 FE 7B 41 95 F6 03 80 DF 5F 81 2A FD 16 80 AE DF 90 92
DPCM : FE 0F 00 D5 BE 54 25 DD 3F 00 E0 BF 54 55 E5 3F 00 C0 FF 0B 75 70 5F 10 C0 FF 07 4D D0 3F 16 50
DPCM : FD 43 55 E0 FF 02 05 FC 07 17 DA FD 49 00 F8 C7 55 95 DF 92 00 F8 77 B4 54 BD F0 01 F0 BF 44 85
DPCM : 1F FC 01 F0 7F 28 81 9F FE 02 E0 2F 1D C0 BF BE 05 80 97 1F E0 6F AB 0F 00 EA 3F D0 BD D0 0F 00
DPCM : F6 7F 40 7E F0 0B 91 F8 7F 01 78 78 AF 44 58 FF 00 78 FD B6 02 01 FE 03 7A 7F 5B 40 01 FC 4F D2
DPCM : AD 1F 20 01 FE 3F 68 65 17 69 01 FF 1F 40 B2 1F 75 51 F8 0F 40 E8 FF AA 05 E0 4F 12 F8 FF A1 21
DPCM : C0 77 13 E9 7F 01 15 D0 FE 2B 50 FD 41 85 B4 77 8F 00 7E D5 52 A9 BD 0A 01 FE 5D 97 84 96 56 00
DPCM : FD FF 92 90 90 6F 05 FE 3F 02 A1 68 DF 23 71 AF 02 89 DE DD 0B A0 DE 52 E2 75 E9 06 00 FF 57 A5
DPCM : AC 34 25 C0 FF B7 11 24 95 1E A1 FF 37 40 B0 A4 7F 11 DD 1F 10 78 53 FF 40 E8 D5 12 EC 2B 9F 02
DPCM : 58 7D 17 D9 33 B1 04 54 FF 1F A8 13 B8 42 EA FD 2F 40 05 EE 15 57 ED 27 80 AA FA 55 49 B4 0F A0
DPCM : 5F ED 2A 11 D0 7F A4 5E 2D 45 04 E9 FF 43 69 51 2A 92 76 FF 03 54 42 77 D1 55 7F 01 A8 AA 77 95
DPCM : 12 FD 01 F0 D7 B6 4A 02 F8 4F 74 E7 96 A0 04 FC 3F 35 C9 16 48 93 FA 7F 44 44 2B D4 17 FA 5F 40
DPCM : 60 B7 71 0F E9 4D 14 54 FF E8 0A A8 6D A5 52 FF 90 4A 80 FE 7B 50 BF 80 44 89 7F 7F 01 56 25 B8
DPCM : F2 6D 77 01 D0 17 5D DA 96 3A 10 F4 D7 AE 50 45 97 06 FD 6E 16 28 E8 F4 4B D5 A7 01 09 5D FD 1F
DPCM : A8 74 08 C5 BB F5 17 02 5A B5 94 F7 54 55 04 E5 F7 41 B5 4A B4 A8 AE FD 82 44 C5 B6 72 D7 5A 22
DPCM : 90 B2 BF DA 4A A9 02 72 EB BD 55 44 D4 05 EE D6 AD 22 05 EA 57 55 B5 2A A1 8B DC 77 05 49 AD E0
DPCM : 57 AD 5D 09 01 7E 75 DB 56 12 69 80 DF BD 49 25 15 BC A8 DB 5D 52 60 45 5F 55 5B 45 15 D4 D9 7D
DPCM : 49 54 A1 15 7B CB 5D 03 B0 D8 2D 7F 29 B1 05 28 FB 97 AD 26 60 A5 AA FC 57 41 13 D4 DA 2B B5 2E
DPCM : 44 13 7D F5 AA 90 1A B1 4B 77 57 92 80 AD EC ED AA 8A 54 80 DF D6 BB 90 44 35 B0 DF AB 2A 14 A1
DPCM : 6F 55 F5 52 12 5A C9 F7 0B 54 55 42 BD 55 FB 01 11 EA D6 D6 2B B5 10 21 ED 77 75 05 95 92 92 7B
DPCM : 5F B2 10 54 77 59 F5 0B 54 11 D9 F7 9A D0 4A A8 DA 6A 6F 17 00 AB A9 7D 75 A2 0B 80 FE D5 AE 5A
DPCM : A0 4A A4 FE ED 81 4A 50 DB 46 6F 6D 01 25 D9 FD A1 16 55 41 AB 6B FD 41 20 5D AA DE 2B AD 12 80
DPCM : FE 56 B7 15 91 4A 24 FF DD 42 4A 50 DB 46 6F 6D 01 25 D9 FD 21 17 35 41 AB 5D FD 81 04 5D B2 F6
DPCM : 8B BD 40 00 7F 37 F5 43 4A 2A A0 F7 3F B4 50 22 5D 6D D9 1F 48 D0 D2 5B 1F D4 25 09 EC FA AB 0B
DPCM : A8 A4 46 5F FD 92 05 20 FD 6A 57 3B 50 05 92 FF 6D 45 16 A1 B4 C9 F7 AD 00 25 AD FA AA 56 36 40
DPCM : F2 5B FD 44 11 55 2A F5 6F 1D 48 A0 DA 5E F5 55 05 11 D4 BE AF AA 24 45 4A F5 F6 27 44 52 D2 6E
DPCM : B5 76 09 41 EA 76 D7 16 4A 29 91 DE FD 52 42 44 DA 55 77 AF 04 41 AA 7E DB AA 92 14 48 B7 EF 56
DPCM : 22 91 5A EA D5 6B 05 A1 52 6F DD 54 A9 44 A8 ED BB 4D 42 A1 2A DD F6 6E 04 09 D1 ED AD AD 25 81
DPCM : 94 7A F7 96 22 A5 44 AB DB 6D 12 05 BA 76 B5 AD 54 44 C2 BE DD 56 42 2A 54 D9 F7 B6 44 04 95 BD
DPCM : D6 6D 0D 14 A4 D5 77 AB C4 8A 48 F6 D6 5E 25 50 A9 55 DB D5 0A 15 A4 EE 5D AD 54 44 49 B5 FB 53
DPCM : 05 45 64 AD 5B BF 44 11 91 FA D6 4B 2D 51 44 B5 DD 7A 09 25 55 A9 DB 2E 55 11 54 77 B5 D5 0A 25
DPCM : 51 D5 B7 AF 90 14 49 76 DB 6D 4B 20 52 D5 5E BB 2A 45 24 B5 ED AD 54 52 89 AA DE DA 92 94 D0 DA
DPCM : 55 BB 4A 12 25 B5 FB 2A 55 94 50 D9 5D 77 25 11 2A AD 7A AF AA 44 41 D5 6D B5 2B 4A 4A AA 6D BD
DPCM : 52 54 4A 55 DB A6 4D 12 AA 6A DB B6 52 51 48 B5 5B 5F 15 91 24 59 7B DD A5 48 21 D5 6B B5 AD 42
DPCM : 52 A9 7A AB AA 52 89 AA 5B 5D 4B 52 A8 D5 6A B7 52 92 22 5A DF DA 16 49 A2 D4 B6 77 A9 42 8A 54
DPCM : BD B5 5D 24 51 A9 B5 F5 A4 16 15 6A 6D CD BA A0 52 55 6D DD 06 4D A4 B4 D7 56 75 41 44 55 BD DB
DPCM : 15 AA 44 E4 B6 F6 6A 05 49 56 EA 56 2F B2 24 D1 5E B5 A5 46 2A 55 D5 3D 55 52 21 B5 5D D5 97 14
DPCM : A2 D4 B6 7D D2 A8 24 A4 BD 55 5F 12 A9 52 56 7B 65 93 14 AA 6D 55 5D 49 49 53 BA F5 11 55 25 AA
DPCM : 5B AD BA 42 A4 AA 7C 75 4B A5 24 A4 DB 76 6D 11 25 55 D4 D7 56 55 12 A9 5B 5A 6B 25 95 B2 D4 5D
DPCM : 25 55 25 A5 5E D5 AD 42 A4 6A D5 DE 4A 95 14 A4 DE D5 B6 12 A5 A2 AA BE 2D 95 12 55 D5 55 75 25
DPCM : A5 8A B6 B5 2A 55 95 E8 AA D5 B6 44 A4 95 DA B5 2D A5 14 68 6F D5 B5 8A 24 8D D4 DB 56 55 52 A1
DPCM : B5 6A 6D 95 94 AC 52 D7 54 55 A5 92 6E 55 57 49 2A 55 D5 76 55 55 84 54 DB 55 B7 09 55 A2 AA DD
DPCM : 55 6A 49 54 55 AB B6 0B 65 25 B5 5A AB D4 4A 54 AB B5 AA 2A 51 4B B9 D5 B6 48 15 A9 AD D6 56 4D
DPCM : 24 95 D8 57 6D 95 4A A2 36 B5 5D 95 54 56 A4 5B 55 2D 55 91 5D 55 6D 51 95 AC 4A F7 92 2A 45 A5
DPCM : BA 55 BD 92 94 A4 55 DD 95 D6 48 52 AA AD B5 15 55
DPCMDEF  62  3841 "Church_E5"
DPCM : 95 55 69 47 D5 54 89 F9 43 37 D4 81 7B C0 9E FF 00 7C 58 F8 30 FE 0D F0 9D 80 3F 98 3F 00 FE 1F
DPCM : 00 BC 3F 1E F8 1F 00 06 BF C7 83 77 80 07 FF 0F 80 EF 81 23 E0 FF 01 F0 1F C0 FF F0 31 C0 FF 01
DPCM : F0 F8 78 20 FF 3E 00 F8 39 1C 7E 1E 00 FC FE 07 F8 0F 0C E0 87 9F 01 7F 0E 80 FF 80 CF E1 FE 01
DPCM : F0 03 C7 7F E0 47 C0 87 4F FC E1 78 80 F0 3F 70 76 FC 00 13 7E 3E 78 F8 03 1C 1F 07 3E F0 0F 10
DPCM : BF 1F E0 87 9F 03 80 FF 81 EF 86 07 04 F8 E3 F1 F7 01 78 E0 E3 C7 71 3E 38 C0 CF 78 26 3C FC 00
DPCM : FC 07 0F 7F 70 0F 80 8F 1F FC 87 07 00 9F 9F C0 DF E1 01 8E F3 03 FF C1 03 E0 F3 3C F8 E1 33 00
DPCM : FC 5E F0 43 7E 20 70 FC C8 1F 3E 39 0C F8 07 9E 3D 0F 1C C0 3F 1E 87 1F B0 03 DF C1 07 FF 40 03
DPCM : F3 C3 CF F0 E1 11 E0 67 8E F1 71 7C 00 FE 3C F0 3C F8 01 78 7C 0E 7E F0 0F 1C 1C 1F 78 87 1F 80
DPCM : 27 3F C6 07 FF 01 8C 7F C1 07 F0 0F E0 F1 03 FE C3 E3 70 E0 3F E0 71 7C 30 C1 F9 70 1E 7C E0 08
DPCM : FC 0F 1E F8 1E 1E E0 0F 3E 1E 0F 0F 81 3F 86 C7 87 F1 07 DC 43 C1 FF 80 0F E0 F7 80 F8 87 7D 20
DPCM : 5E F1 E0 1F 38 40 FC F8 78 1F F0 1C 78 7C 07 7E 04 1E 3C C6 1F 98 1F 1E E3 01 9F 03 DF 79 C0 07
DPCM : E3 87 7C F4 81 E1 E0 1F F8 E0 73 70 80 7F F0 F8 3C F8 00 FC 78 1C 3F 84 1F F0 0F 06 FF 03 3E 80
DPCM : 9F 23 C2 1F FE 03 F0 C5 87 3F E0 00 F1 C7 63 FF 80 73 E0 F1 39 F8 31 F0 E0 18 7F E0 7C 78 8C 07
DPCM : 7C 1C 7C E7 01 3E 0C 1F F2 B3 0F 06 07 7F C0 8F 07 C3 07 FC C3 C3 E3 01 7F E0 E3 E1 F8 03 F8 E0
DPCM : 78 B8 F8 3F F0 18 30 77 18 7E 18 57 78 8C 1F 7E 01 1F 86 0F 1F FC 0F 80 87 07 7F 80 7F C1 C3 0F
DPCM : E4 83 F1 E1 81 7F C0 79 F8 C3 03 F8 30 FC E0 7F 38 38 1E F8 F0 3C 1E 00 7F F0 1D 0E CF 0F 7C 00
DPCM : 8F C7 0F 1F E0 87 E1 85 0F FF C0 31 81 C3 3F F8 81 F1 C1 E3 7C F0 83 E0 F1 1E FC F0 78 30 0F 1E
DPCM : F8 38 FC 03 07 7E 00 3F E4 8F 0F 9C 07 FC C1 0F 0F C2 1F E0 87 CF E3 00 FE C0 C7 F3 30 0D F8 E1
DPCM : 71 7C 07 7E F0 01 1E CE 3E 7C C0 0F 40 3F 3E FC 03 F8 03 0E FE F0 03 8C 8F 0F F8 E3 87 81 87 3F
DPCM : E0 C7 E1 81 1F 3E C0 F1 F1 07 1E F8 70 F0 C3 0F 39 78 3C E0 C7 3F 3C 00 FF 80 1F 1E 0F 0E F8 07
DPCM : 0F 3F 07 3E C0 87 03 BF 1F F4 C1 83 80 CF FF F0 80 D9 03 3A FC F0 C1 C1 37 3C F8 F1 30 20 3F 3E
DPCM : F0 7B 18 07 1F 7C 20 FF 83 07 3E F8 00 F2 87 1F 3C E0 73 C0 8F 1F F0 F8 F0 81 1F 3F 50 F8 E0 03
DPCM : 3F 1F 38 F8 C1 07 7C 3D 7C E0 C1 0F 00 7F FC E0 11 1F 07 FE F8 01 87 87 0F FC F8 03 83 07 3F F0
DPCM : F3 03 C1 0F FE 80 F1 F3 03 0F FC 00 F1 E7 07 1E F8 51 E0 E3 1F 7C 80 FC 80 87 3F 78 3C F8 81 07
DPCM : FF 18 5C F0 83 07 FE 0F F8 C0 87 07 F0 7F F0 81 07 1E 0C FE F3 01 1F 0E 1E F8 F3 03 03 1F 1F E0
DPCM : DF 03 C6 0F FC 80 F3 07 85 3F F0 81 E0 FF 07 F8 F0 00 E0 FF 1F 78 20 FD 00 FF 3F 80 78 F0 00 1F
DPCM : FF 10 F8 D5 07 04 FE 0F DC 83 0F 06 FC 3F C0 87 07 0E C2 FF 83 C1 1F 81 79 FC C7 C0 F1 1C 70 F0
DPCM : 7F 80 7E 2C F8 C0 FE 07 F0 3F 40 18 FC 3F 00 FF 04 03 DD 7F 06 FC 01 83 81 FF 0F E0 1F 84 C7 E3
DPCM : 7F 00 FE 03 61 7C FD 01 F8 2B 70 C0 FD 27 70 7F 00 78 F0 FF 00 FC 0F 20 0F FF 0F 20 3F 00 8F FF
DPCM : 07 84 FF 00 8E 8E FF 01 F8 0F 80 C7 F1 1F C0 FF 01 F0 F8 7E 80 FD 01 C0 7E F9 01 F8 1F 00 FE F8
DPCM : 1F 00 FF 00 F8 1F E7 00 BF 1F 80 67 75 07 DE 1F 00 BC 83 1F E1 FF 01 C0 87 FF 04 F8 0F 80 7F 1B
DPCM : F4 E0 F9 00 BC 77 F0 20 FC 07 E0 7F 30 1E E1 3F 00 FC 47 F8 41 7F 00 F8 7F E0 07 FE 07 00 FF 81
DPCM : 0F E1 3F 00 F8 0F 7A 0F EF 01 C0 7F 82 B7 FE 10 00 FF 01 7F F8 DE 00 F0 0F 3C 77 F0 03 80 FF 04
DPCM : FE D4 0F 00 FE 1F F0 E1 FB 01 C0 7F E0 43 F8 0F 00 FF 81 DE C3 3B 00 F8 9F E0 AD 3F 04 C0 7F C0
DPCM : 1F 9F 37 00 FC 03 CF 1F 7C 00 E0 5F 08 FF 46 0F 80 FF 03 FC 47 F9 00 FE 07 E0 3F F0 03 C0 7F 00
DPCM : FF E3 03 00 FF 03 F8 3F 2D 00 FC 3F E0 9F 92 0E E0 FF 00 FC 0F 3C 10 FC 0F C0 7F 17 28 E0 5F 80
DPCM : FF 0F C4 C0 FF 03 FC 2F 40 81 FA 0F E0 FF 40 D1 C0 7F 00 FE 77 C0 10 FF 01 F0 FF 01 0F F8 3F 00
DPCM : FF 07 08 0E FF 00 FF 1F 00 1E FF 01 E0 FF 03 38 F8 47 00 FF 0F F8 C0 F7 01 F0 7F A0 E4 78 15 C0
DPCM : FF 43 70 5E 95 03 FC 3F 00 B7 C3 0F E0 FF 00 E1 0F 1F 80 FF 87 80 3F 71 01 FE DF 01 7C E0 0B E0
DPCM : FF 03 F0 05 7E C0 FF 1F 00 3F 78 40 DF 7F 00 7C 58 05 F6 FF 07 40 E3 03 E0 DF 1F 80 5B 07 C0 CF
DPCM : FF 01 E4 F5 01 95 FF 03 F0 F0 01 47 FC 3F 60 F8 07 F0 E0 FF 80 E0 3F 00 1F FE 3B 00 7F 03 0C FC
DPCM : 7F 00 F5 0F 1C F8 7F 80 80 7F 16 D2 FF 01 03 BF 54 04 FE CF 03 BE 02 65 E0 FF 07 C0 7F C0 E0 EF
DPCM : 8F 00 FC F0 80 FF 27 08 F8 F0 21 F8 3F 1E F0 3C 14 06 3F 7F 40 BF 02 03 7E FE 05 D6 83 07 9C FF
DPCM : 07 C0 87 07 F0 D7 FF 00 C4 67 C0 7D F4 01 73 F9 00 F8 F1 0F 78 BD 14 F0 F0 7F 80 3C 1F 00 0F FF
DPCM : 17 04 7F 01 1E FE 0F 04 F5 07 1E FC 5F 00 E0 1F 17 E2 FF 81 81 9F 94 08 FE E7 03 7E 04 59 F0 F7
DPCM : 07 E0 1F 60 F0 F7 27 00 FE 78 80 FF 07 0C 7C F8 20 FC 1F 1E F0 3C 14 82 BF 3F 80 BF 81 01 3F FF
DPCM : 00 F7 C1 03 9C FF 03 E0 87 03 F2 F7 7D 00 E1 27 E0 7D FC 80 74 7C 02 F8 F8 17 78 3B 0E 78 F0 3F
DPCM : 50 1D 1F 80 87 FF 03 07 BE 00 9F FF 07 04 F2 07 6E E1 4F C1 E0 1F F0 C1 3F F0 C1 7F 00 50 FF E1
DPCM : 0F F8 01 38 F8 5F 1F F0 0A 38 F0 1F 7F 00 3E 78 82 3F CE 07 7C E2 03 DE 81 1F F0 C7 07 E0 07 FF
DPCM : E0 C3 31 80 7F FC E1 08 FE 00 FC F9 09 35 F0 07 F8 D6 1F C0 89 3F F0 05 5F C8 0F 7F 00 9C EB 83
DPCM : 0F FC 03 C0 E3 A7 7F 80 07 E0 F8 3F FC 00 FC E0 B0 7F E0 1C F8 52 03 FE 06 3E F8 47 05 CC 0F FE
DPCM : C1 87 07 80 FF F8 87 41 63 01 FE E7 63 40 F8 05 F8 FF 40 29 E5 7D C0 7E 40 6B 15 FE 01 F8 13 6E
DPCM : 3F 54 03 C0 7F 97 4F 42 2C 80 FF 9F 32 03 F4 01 FB 3F 50 55 E0 3F 80 FF 00 FA 4B FE 00 BC 2D F0
DPCM : 7F 60 03 C0 FF 61 FF 01 14 C0 FD 3F F0 03 30 3A 6F FF 00 17 28 5F 4D FC 01 BE 41 1F 1D F0 07 F8
DPCM : 1F 1D 38 80 FF C1 3F 0B C0 81 FE 0F 3F 1A 80 2F F8 1F 1C 7C 00 FF 81 3F 18 F8 17 F0 0F 1C 3E F0
DPCM : FF 00 0F 18 7E 75 FE 03 00 96 7E 7F E0 07 00 BE B7 FC 81 0F 00 7F 7D F0 01 FE 00 7E 7D C0 83 FC
DPCM : 1F 18 FC 00 F7 C1 3F 03 E0 83 F8 8F 7F 18 00 FF C1 1F 3E 30 00 F9 9F 0F 1E 76 70 E0 1F 0E 2B FC
DPCM : 7E 80 0F 01 3E FF FC 01 A0 0F 1C FF F1 03 00 3F 17 FC C7 01 80 FF 3F E0 D1 C2 01 FE 7F 00 F4 C3
DPCM : 0F 1E FC 01 E0 DF 1F 10 78 76 E0 DF 1F 00 30 FC C3 BF 1F 00 18 FC 0F 4F 1F 06 78 F8 1F 04 CF 1F
DPCM : F0 C0 CF 01 EC 7F F0 03 E0 07 B4 FF 63 20 C0 9F 2F F8 3F 00 E0 2F 7F 70 7D 00 50 7F 3D 90 FB C0
DPCM : 07 3E 1F 00 FC AF 0F 4C 94 26 F0 FF 0F 10 41 FD C1 FF 0F 00 38 F8 4F D7 36 00 F8 5B D7 02 FA 07
DPCM : E0 5F 94 29 9A FF 40 55 55 80 7F FD 83 00 4E E5 FA F6 17 00 58 BE BD C4 1F 00 5C 5F F6 03 56 47
DPCM : C8 7F 01 8F C4 FF 80 F8 03 F8 85 F7 1F 00 17 E0 FF DA 7C 00 E0 0E FF 1E F0 01 E0 3F 9E 3C 54 07
DPCM : E8 4F 1D 56 C1 7F 01 AF 06 E8 17 FD 0F 40 2D 81 FF D1 3F 00 F0 83 FE 87 6B 10 C0 7F E1 3F 50 2D
DPCM : 02 FE 07 57 55 55 17 F8 03 89 E7 77 8E C0 49 E0 5F DF 71 00 F0 C8 7F 77 F0 00 E0 5F 3C 7F 00 2F
DPCM : 80 FF 16 5C 0F FC 06 5C 0F 80 FF D2 1F 80 4B 81 FE 9F B3 01 C0 5B F1 7F E0 02 E0 7E 75 7A 50 2D
DPCM : 60 3F 75 58 05 FF 05 BC 16 60 9F EC 3F 00 B5 00 FF C7 7F 00 C0 0F FA 1F 6E 41 00 FF 89 7F 50 B5
DPCM : 10 F8 1F 5C 55 55 4F E0 0F 44 9E 7F 39 02 27 81 7F 7D E7 00 C0 23 FF 7B C1 03 80 7F F1 FC 01 BC
DPCM : 00 FE 5B 70 3D F0 17 70 3D 00 FE 8B 3F 04 2E 05 FC BF 4E 05 10 D7 C3 FF A1 02 C8 E5 57 FB 01 4B
DPCM : E0 FA 15 E9 43 F8 54 6A 6D 80 3F B5 AD 24 F0 01 FE AF 35 14 80 1F F4 FF 16 D0 00 FE A9 3F 35 80
DPCM : 17 F0 4F 3D F8 00 7F C8 0B 3E E4 1D 7D 02 0F F0 AE 7D EA 03 20 A1 BF FF 01 0F 80 C5 DF F1 07 D4
DPCM : C0 C3 FB E0 43 F0 71 59 F0 43 7E F0 95 3E 80 5D 78 FA 1F 30 00 BC FE 0B 7F 08 04 7C DF 1F 98 07
DPCM : 0A EC C7 8F 91 C5 47 E0 E7 51 85 D7 ED 80 52 F1 85 FB FC 00 60 F8 57 FC FC 00 40 B5 7F 3A F4 0E
DPCM : 00 9F 7E 1D 24 7F 01 3C 1F 55 45 F9 0F 04 5F 85 7A E9 5F 00 B8 96 FA D2 7F 00 80 3F F5 93 6D 07
DPCM : 00 FE 55 5B 45 B7 02 F8 97 68 65 F5 07 C0 B7 A0 7C D5 7F 00 78 49 F0 3F FE 00 C0 7B 81 FF DC 06
DPCM : 00 EF 07 FE A2 3E 00 F1 1F F0 17 F6 C1 80 7F 00 FF F8 61 01 FE 01 FC F6 07 05 F0 1F F0 F5 0F 48
DPCM : 00 FF E0 EB 1F C0 07 FC C1 C1 FF 01 0F F0 87 41 FB 0F 7C C0 47 41 F1 3F F8 01 57 61 81 FF F1 81
DPCM : 78 C1 03 FE E7 10 7C 81 1F F0 7F 28 E0 0F 7C E0 7F D0 40 3F 7C 00 FF 93 03 7E 70 03 F8 DF 07 F8
DPCM : 01 17 E0 FF 0F C0 87 74 81 BF 3F 00 77 E0 01 7F FD 01 F0 E3 03 F8 FC 0B E0 E3 03 70 FE 7F 00 53
DPCM : 1D 90 3E FF 01 5C 1F 00 7E FC 0F 20 7F 05 B8 DA 1F 12 5E 1F 80 D3 BF 03 CA 5F 00 C3 DF 0F C0 F7
DPCM : 01 C1 EB 5F 81 F0 A7 80 F9 FD 10 E0 FF 00 F0 7E 7C 80 FE 05 40 FD 7D 04 5E 1F 00 FC 3F 07 4A 3F
DPCM : 05 D0 DF 0F 04 FF 03 C0 AF D7 80 F6 37 00 FA D5 49 71 FD 01 C0 BF 5A 54 F9 07 00 FE 5F 50 69 3F
DPCM : 00 FC 7E 81 4A 7F 01 E8 7E 43 89 FE 0F 00 F5 4B 55 74 7F 00 F0 2F 55 55 FE 01 00 FF 47 1D FC 05
DPCM : 01 FE 1F 4C F0 8F 01 D5 3F 54 C1 DF 03 01 FF 70 A1 FB 47 01 F0 67 55 D9 2F 0A C0 7F B4 54 0F 1F
DPCM : 00 FF 13 85 1F FC 00 FC 8F 02 7E FA 07 C0 4F 07 F8 EB 17 00 8F 4F F0 BB FA 00 A0 7F D0 7D F0 03
DPCM : 80 FF 07 F8 C1 0F 24 FE 1F C0 D1 BD 22 58 7F 00 DE 7D 0B 04 FC 03 EE DF 06 14 E0 3F C9 AD 0F 48
DPCM : C0 FF 83 95 5D 68 01 FF 07 24 FB D4 45 F8 0F 00 FE AF 5A 00 3F 09 F8 FF A8 00 7C 57 64 FF 01 05
DPCM : 6C FF 02 F9 07 85 6C BF 03 C0 5F 55 A5 7D 49 00 7F A7 45 75 F4 00 F8 BF 48 F8 F0 07 E0 BF 28 E0
DPCM : E7 1F 00 7E 35 C0 BF 6F 01 70 FA 80 7F EB 07 00 FE 03 DD 43 3F 00 FC 1F A0 0F 3F 44 F4 7F 00 1E
DPCM : FD 4A 84 FD 03 70 FD B5 40 C0 3F E0 FD 5B 40 00 FF 25 BD 7E 80 00 FE 1F 5A B9 91 05 FC 3F 40 F4
DPCM : 47 97 84 7F 00 E2 FF AA 01 F4 15 A0 FF 8F 11 C0 EF 84 FE 17 50 C0 FE 2B 50 7F 50 D0 DE 5D 00 7E
DPCM : B5 54 DA 2B 01 F8 5F 97 90 A6 15 E0 FF 8B 90 88 5F 81 FF 27 80 A2 F7 23 F4 AB 40 E4 BD 37 80 FA
DPCM : 52 78 5D 76 00 F8 5F A5 2C 55 09 F8 7F 1B 10 8D 1E E8 FF 13 00 8B FE 05 BD 0F 04 3E F5 0F E0 55
DPCM : 13 7C AB 27 80 D5 5F D4 33 B4 00 F5 FF 81 56 E0 42 7A FF 03 58 E0 57 5C F5 07 A0 AA 5F A5 48 3F
DPCM : 80 5F BB 4A 04 FC 43 7D 6E 81 02 F4 7F 56 B2 11 34 AA FF 23 C4 4A F4 85 FF 01 81 DB 71 0F 7A 43
DPCM : 41 FD A3 2B A0 6D A9 F4 0F AA 00 FE 7D D0 1F 40 94 F8 FF 01 56 25 B4 FC 76 07 40 1F 5D DA A5 0E
DPCM : 08 7F DD 42 45 97 06 7F 67 81 82 D3 2F F5 6A 01 C8 D5 FF A0 72 04 C9 6F FD 21 60 D5 92 FE 34 15
DPCM : 41 F6 2F D4 26 B2 A8 6D 3F 41 94 DC CA 57 5B 04 24 FB AB 2D A5 12 70 7B 6F 15 44 1B B8 D7 AE 22
DPCM : 81 7E 55 D5 AA 84 8D 7A 3F 41 54 A5 AE 6D 5D 41 C0 F6 AD AD 94 12 A8 ED 6F 15 42 9D D0 DB AE 22
DPCM : 09 7E 55 55 AB 84 2E BC 6F 41 D4 0A 7E B5 6E 09 80 5F DB 6E 45 A4 01 FD AF 51 51 C1 13 EF 6E 52
DPCM : 60 C9 57 B5 55 54 D0 E5 7D 12 55 68 F1 2D 6F 0B 20 79 B3 5F 22 17 A0 FA 97 AB 05 54 AA F2 5F 41
DPCM : 15 D4 F6 52 EB 01 8D EC F5 2A A1 05 BB EC 5E 49 80 AD 7C B7 AA 48 01 FE D6 3B 21 51 83 FA AF AA
DPCM : 90 A0 5F 55 2F 45 A2 25 FF 13 54 95 D0 5B ED 07 04 EA D6 F5 52 0B 21 B4 7F 75 05 A5 28 B9 7F C9
DPCM : 02 54 6F 59 FD 40 15 64 7F 9B D0 12 CA AE F6 5E 00 AC A9 6F 1D B9 00 E8 5F AF 1A C4 22 A9 FF 1B
DPCM : 28 41 DB C5 5D 17 50 A2 FB 07 17 55 D0 EA D6 1F 10 74 B2 F6 53 0F 02 E8 DF F4 07 4A 0A D8 FF C3
DPCM : 0A 09 5D 6D FA 07 02 2D 7B 7D D0 45 02 BB F7 BA 00 93 26 5F FD 64 00 D2 AF 5D DD 40 05 E4 7F 57
DPCM : 58 81 D2 C5 7F 2D 40 D1 EA AD 5A 35 80 EC D7 57 14 54 29 F5 5F 27 10 A8 DE D5 57 15 80 B4 EF A7
DPCM : 8A 14 29 75 F7 07 91 A4 EC D6 DA 85 80 DA DD B5 91 A4 44 FA FD 52 10 A2 5E DD DE 24 20 AA FD B6
DPCM : 2A 49 04 BD F7 56 48 A4 A6 5E BB 15 84 52 5F 37 95 4A A0 B6 DF 4D 44 A8 D2 6D BF 11 84 D0 7B 6D
DPCM : 6B 11 50 EA 77 9B 24 29 51 7D 5F 25 84 58 D7 B6 37 11 88 EA B7 AD 4A 12 C4 EE BD 15 12 A9 A9 D7
DPCM : 6D 05 24 B5 D7 4D A5 14 A8 7D 6F 13 11 AA 74 DB 6F 04 21 F4 DE DA 96 08 94 FA BD 25 51 8A AC EE
DPCM : 6E 12 41 AE 5B DD 4A 11 11 BF BD 95 90 42 A5 DF B7 44 40 E5 6E DD 36 41 A0 D6 F7 2A 71 84 E4 6D
DPCM : 6F 25 50 69 B5 5D 2D 52 90 F6 5D 2B 15 92 54 F7 4F 05 85 68 EB F5 4D 44 44 DA D7 4B 4B 24 54 7B
DPCM : ED 85 24 55 EA F6 52 25 48 7D B5 D9 22 91 54 7D BF 84 14 49 DE 76 BB 04 24 55 5F BB 4A 11 4A DB
DPCM : BD 52 51 91 AA B7 36 49 21 EB 56 BB 92 44 51 7B AF 54 51 50 D9 D7 5D 11 A1 B4 BA AF AA 48 50 DD
DPCM : D5 AE 48 49 6A 5D 2F 25 25 55 6D 9B 4D 44 AA B6 ED 2A 45 41 B5 DB 57 89 48 52 ED ED 25 51 44 ED
DPCM : D6 B6 0A 51 A9 FA AA 2A 95 A8 76 75 4B 12 6A AD 76 2B 49 0A 5A BF DA 85 14 4A 5B BF A5 42 12 D5
DPCM : 5E BB 89 44 A9 B5 5D A9 45 A1 B6 35 DB A0 52 55 D7 5E 30 91 D4 DB 56 5D 20 52 D5 77 17 AA 84 D8
DPCM : 6D B7 16 24 59 EA D6 8E 2C 11 DD D5 A6 46 2A 55 F5 53 45 45 D4 5E B5 27 05 49 6D FB C9 A4 24 64
DPCM : 6F F5 25 A2 4A 5A FD 54 25 89 DA 56 75 49 49 93 6E 7D 50 95 44 EF 7F BF 1D 7C 7E 2F 6C 55 55 55
DPCM : 55

# Instruments
INST2A03   0    -1  -1  -1  -1  -1 "blank"
KEYDPCM   0   0   0    55  13   0     0  -1
KEYDPCM   0   0   1    53  15   0     0  -1
KEYDPCM   0   0   4    58  15   0     0  -1
KEYDPCM   0   0   6    59  15   0     0  -1
KEYDPCM   0   0   7    25  15   0     0  -1
KEYDPCM   0   0   9    56  15   0     0  -1
KEYDPCM   0   0  11    57  15   0     0  -1
KEYDPCM   0   1   0    21  15   0     0  -1
KEYDPCM   0   1   1    21  14   0     0  -1
KEYDPCM   0   1   2    22  14   0     0  -1
KEYDPCM   0   1   4    23  14   0     0  -1
KEYDPCM   0   1   5    24  14   0     0  -1
KEYDPCM   0   1   7    25  13   0     0  -1
KEYDPCM   0   1   8    60  15   0     0  -1
KEYDPCM   0   1   9    61  15   0     0  -1
KEYDPCM   0   1  10    62  15   0     0  -1
KEYDPCM   0   2   0    16  15   0     0  -1
KEYDPCM   0   3   0     7  15   0     0  -1
KEYDPCM   0   3   1     8  13   0     0  -1
KEYDPCM   0   3   2     9  15   0     0  -1
KEYDPCM   0   3   3    10  15   0     0  -1
KEYDPCM   0   3   4    11  15   0     0  -1
KEYDPCM   0   3   5    12  15   0     0  -1
KEYDPCM   0   3   6    13  13   0     0  -1
KEYDPCM   0   3   7    13  14   0     0  -1
KEYDPCM   0   3   8    14  15   0     0  -1
KEYDPCM   0   3   9    15  14   0     0  -1
KEYDPCM   0   3  10    15  15   0     0  -1
KEYDPCM   0   3  11    17  15   0     0  -1
KEYDPCM   0   4   0     0   8   0     0  -1
KEYDPCM   0   4   2     1  15   0     0  -1
KEYDPCM   0   4   4     2  13   0     0  -1
KEYDPCM   0   4   5     2  14   0     0  -1
KEYDPCM   0   4   7     2  15   0     0  -1
KEYDPCM   0   4   9    12  14   0     0  -1
KEYDPCM   0   4  11    20  15   0     0  -1
KEYDPCM   0   5   0    19  15   0     0  -1
KEYDPCM   0   5   2    18  15   0     0  -1
KEYDPCM   0   5   4    51  15   0     0  -1
KEYDPCM   0   5   5    50  15   0     0  -1
KEYDPCM   0   6   0    52  15   0     0  -1
KEYDPCM   0   6   1    12  15   0     0  -1
KEYDPCM   0   6   2    53  15   0     0  -1
INSTVRC6   1    -1  -1  -1  -1  -1 "Blank"
INST2A03   2    -1  -1  -1  -1  -1 "Blanker"
KEYDPCM   2   0   0    30   2   1     0  -1
KEYDPCM   2   0   1    30   3   1     0  -1
KEYDPCM   2   0   2    29   3   1     0  -1
KEYDPCM   2   0   3    30   4   1     0  -1
KEYDPCM   2   0   4    29   4   1     0  -1
KEYDPCM   2   0   5    30   5   1     0  -1
KEYDPCM   2   0   6    29   5   1     0  -1
KEYDPCM   2   0   7    30   6   1     0  -1
KEYDPCM   2   0   8    30   7   1     0  -1
KEYDPCM   2   0   9    29   7   1     0  -1
KEYDPCM   2   0  10    30   8   1     0  -1
KEYDPCM   2   0  11    29   8   1     0  -1
KEYDPCM   2   1   0    28   8   1     0  -1
KEYDPCM   2   1   1    30   9   1     0  -1
KEYDPCM   2   1   2    29   9   1     0  -1
KEYDPCM   2   1   3    30  10   1     0  -1
KEYDPCM   2   1   4    29  10   1     0  -1
KEYDPCM   2   1   5    30  11   1     0  -1
KEYDPCM   2   1   6    29  11   1     0  -1
KEYDPCM   2   1   7    28  11   1     0  -1
KEYDPCM   2   1   8    30  12   1     0  -1
KEYDPCM   2   1   9    29  12   1     0  -1
KEYDPCM   2   1  10    28  12   1     0  -1
KEYDPCM   2   1  11    27  12   1     0  -1
KEYDPCM   2   2   0    30  13   1     0  -1
KEYDPCM   2   2   1    29  13   1     0  -1
KEYDPCM   2   2   2    28  13   1     0  -1
KEYDPCM   2   2   3    30  14   1     0  -1
KEYDPCM   2   2   4    29  14   1     0  -1
KEYDPCM   2   2   5    28  14   1     0  -1
KEYDPCM   2   2   6    27  14   1     0  -1
KEYDPCM   2   2   7    26  14   1     0  -1
KEYDPCM   2   2   8    30  15   1     0  -1
KEYDPCM   2   2   9    29  15   1     0  -1
KEYDPCM   2   2  10    28  15   1     0  -1
KEYDPCM   2   2  11    27  15   1     0  -1
KEYDPCM   2   3   0    26  15   1     0  -1
KEYDPCM   2   3   1    31  15   1     0  -1
KEYDPCM   2   3   2    32  15   1     0  -1
KEYDPCM   2   3   3    33  15   1     0  -1
KEYDPCM   2   3   4    34  15   1     0  -1
KEYDPCM   2   3   5    35  15   1     0  -1
KEYDPCM   2   3   6    36  15   1     0  -1
KEYDPCM   2   3   7    37  15   1     0  -1
KEYDPCM   2   3   8    38  15   1     0  -1
KEYDPCM   2   3   9    39  15   1     0  -1
KEYDPCM   2   3  10    40  15   1     0  -1
KEYDPCM   2   3  11    41  15   1     0  -1
KEYDPCM   2   4   0    42  15   1     0  -1
KEYDPCM   2   4   1    43  15   1     0  -1
KEYDPCM   2   4   2    44  15   1     0  -1
KEYDPCM   2   4   3    45  15   1     0  -1
KEYDPCM   2   4   4    46  15   1     0  -1
KEYDPCM   2   4   5    47  15   1     0  -1
KEYDPCM   2   4   6    48  15   1     0  -1
KEYDPCM   2   4   7    49  15   1     0  -1

# Tracks

TRACK 256   1 150 "New song"
COLUMNS : 2 2 1 1 1

ORDER 00 : 00 00 77 77 77
ORDER 01 : 01 01 01 01 01
ORDER 02 : 02 02 02 01 01
ORDER 03 : 03 03 03 01 01
ORDER 04 : 02 02 02 01 01
ORDER 05 : 03 03 03 01 01
ORDER 06 : 02 02 02 01 01
ORDER 07 : 03 03 03 01 01
ORDER 08 : 02 02 02 01 01
ORDER 09 : 03 03 03 01 01
ORDER 0A : 02 02 02 01 01
ORDER 0B : 03 03 03 01 01
ORDER 0C : 02 02 02 01 01
ORDER 0D : 03 03 03 01 01
ORDER 0E : 02 02 02 01 01
ORDER 0F : 03 03 03 01 01
ORDER 10 : 02 02 02 01 01
ORDER 11 : 03 03 03 01 01
ORDER 12 : 02 02 02 01 01
ORDER 13 : 03 03 03 01 01
ORDER 14 : 02 02 02 01 01
ORDER 15 : 03 03 03 01 01
ORDER 16 : 02 02 02 02 02
ORDER 17 : 03 03 03 02 02
ORDER 18 : 02 02 02 02 02
ORDER 19 : 03 03 03 03 03
ORDER 1A : 02 02 02 02 02
ORDER 1B : 03 03 03 02 02
ORDER 1C : 02 02 02 02 02
ORDER 1D : 03 03 03 04 04
ORDER 1E : 02 02 02 02 02
ORDER 1F : 03 03 03 02 02
ORDER 20 : 02 02 02 02 02
ORDER 21 : 03 03 03 05 05
ORDER 22 : 02 02 02 02 02
ORDER 23 : 03 03 03 02 02
ORDER 24 : 02 02 02 02 02
ORDER 25 : 03 03 03 02 02
ORDER 26 : 02 02 02 02 02
ORDER 27 : 06 06 03 07 02
ORDER 28 : 04 04 77 06 77
ORDER 29 : 05 05 77 06 77
ORDER 2A : 04 04 77 06 77
ORDER 2B : 05 05 77 06 77
ORDER 2C : 04 04 77 06 77
ORDER 2D : 05 05 77 06 77
ORDER 2E : 04 04 77 06 77
ORDER 2F : 05 05 77 06 77
ORDER 30 : 04 04 77 06 77
ORDER 31 : 05 05 77 06 77
ORDER 32 : 04 04 77 06 77
ORDER 33 : 05 05 77 06 77
ORDER 34 : 04 04 77 06 77
ORDER 35 : 05 05 77 06 77
ORDER 36 : 04 04 77 06 77
ORDER 37 : 05 05 77 06 77
ORDER 38 : 04 04 77 06 77
ORDER 39 : 05 05 77 06 77
ORDER 3A : 07 07 04 08 07
ORDER 3B : 08 08 05 09 08
ORDER 3C : 09 09 08 09 08
ORDER 3D : 08 08 05 09 08
ORDER 3E : 09 09 06 0A 09
ORDER 3F : 0A 0A 07 0B 0A
ORDER 40 : 0B 0B 09 0C 0B
ORDER 41 : 0A 0A 07 0B 0A
ORDER 42 : 0B 0B 0A 0B 0A
ORDER 43 : 0A 0A 07 0B 0A
ORDER 44 : 0B 0B 09 0C 0B
ORDER 45 : 0A 0A 07 0B 0A
ORDER 46 : 0B 0B 0A 0B 0A
ORDER 47 : 0A 0A 07 0B 0A
ORDER 48 : 0B 0B 09 0C 0B
ORDER 49 : 0A 0A 07 0B 0A
ORDER 4A : 0B 0B 0A 0B 0A
ORDER 4B : 0A 0A 07 0B 0A
ORDER 4C : 0B 0B 09 0C 0B
ORDER 4D : 0A 0A 07 0B 0A
ORDER 4E : 0B 0B 0A 0B 0A
ORDER 4F : 0A 0A 07 0B 0A
ORDER 50 : 0B 0B 0A 0C 0B
ORDER 51 : 0D 0D 00 00 00
ORDER 52 : 0C 0C 0B 0D 0C
ORDER 53 : 0E 0E 0C 0E 0D
ORDER 54 : 0C 0F 0B 0D 0C
ORDER 55 : 0E 0E 0D 0F 0E
ORDER 56 : 0C 0F 0B 0D 0C
ORDER 57 : 0E 0E 0C 0E 0D
ORDER 58 : 0C 0F 0B 0D 0C
ORDER 59 : 0E 0E 0E 10 0F
ORDER 5A : 0C 0F 0B 0D 0C
ORDER 5B : 0E 0E 0C 0E 0D
ORDER 5C : 0C 0F 0B 0D 0C
ORDER 5D : 0E 0E 0D 0F 0E
ORDER 5E : 0C 0F 0B 0D 0C
ORDER 5F : 0E 0E 0E 10 0F
ORDER 60 : 0C 0F 0B 0D 0C
ORDER 61 : 0E 0E 0D 0F 0E
ORDER 62 : 0C 0F 0B 0D 0C
ORDER 63 : 0E 0E 0E 10 0F
ORDER 64 : 0C 10 0F 11 10
ORDER 65 : 0E 11 10 11 10
ORDER 66 : 0C 10 0F 11 10
ORDER 67 : 0E 12 10 11 10
ORDER 68 : 0C 13 0F 11 10
ORDER 69 : 0E 14 10 11 10
ORDER 6A : 0C 13 0F 11 10
ORDER 6B : 0E 14 10 11 10
ORDER 6C : 0C 13 0F 11 10
ORDER 6D : 0E 14 10 11 10
ORDER 6E : 0C 13 0F 11 10
ORDER 6F : 0E 14 10 11 10
ORDER 70 : 0C 10 0F 11 10
ORDER 71 : 0E 11 10 11 10
ORDER 72 : 0C 10 0F 11 10
ORDER 73 : 0E 12 10 11 10
ORDER 74 : 0C 13 0F 11 10
ORDER 75 : 0E 14 11 12 11
ORDER 76 : 0C 0F 0B 0D 0C
ORDER 77 : 0E 0E 0E 10 0F
ORDER 78 : 0C 0F 0B 0D 0C
ORDER 79 : 0E 0E 0D 0F 0E
ORDER 7A : 0C 0F 0B 0D 0C
ORDER 7B : 0E 0E 0E 10 0F
ORDER 7C : 0C 0F 0B 0D 0C
ORDER 7D : 0E 0E 0E 10 0F
ORDER 7E : 0F 15 12 13 06
ORDER 7F : 77 77 77 77 77

PATTERN 00
ROW 00 : C#2 00 A V00 P80 : G#2 00 A V00 P7F : C#4 00 . ... : 7-# 00 A ... : F-5 00 . ...
ROW 01 : ... .. 6 V01 ... : ... .. 6 V01 ... : B-3 00 . ... : ... .. 7 ... : ... .. . ...
ROW 02 : ... .. . ... ... : ... .. . ... ... : A-3 00 . ... : ... .. 6 ... : ... .. . ...
ROW 03 : ... .. . ... ... : ... .. . ... ... : G#3 00 . ... : ... .. 4 ... : ... .. . ...
ROW 04 : ... .. 5 ... ... : ... .. . ... ... : F#3 00 . ... : ... .. 2 ... : ... .. . ...
ROW 05 : ... .. . ... ... : ... .. . ... ... : --- .. . ... : ... .. 1 ... : ... .. . ...
ROW 06 : ... .. . ... ... : ... .. . ... ... : ... .. . ... : ... .. . ... : ... .. . ...
ROW 07 : ... .. 4 ... ... : ... .. . ... ... : ... .. . ... : ... .. . ... : ... .. . ...
ROW 08 : D-2 00 A V00 ... : ... .. 5 ... ... : ... .. . ... : ... .. . ... : ... .. . ...
ROW 09 : ... .. 6 V01 ... : ... .. . ... ... : ... .. . ... : ... .. . ... : ... .. . ...
ROW 0A : ... .. . ... ... : ... .. . ... ... : ... .. . ... : ... .. . ... : ... .. . ...
ROW 0B : ... .. . ... ... : ... .. . ... ... : ... .. . ... : ... .. . ... : ... .. . ...
ROW 0C : ... .. 5 ... ... : ... .. . ... ... : ... .. . ... : ... .. . ... : ... .. . ...
ROW 0D : ... .. . ... ... : ... .. . ... ... : ... .. . ... : ... .. . ... : ... .. . ...
ROW 0E : ... .. . ... ... : ... .. . ... ... : ... .. . ... : ... .. . ... : ... .. . ...
ROW 0F : ... .. 4 ... ... : ... .. . ... ... : ... .. . ... : ... .. . ... : ... .. . ...
ROW 10 : G#2 00 A V00 ... : ... .. 4 ... ... : ... .. . ... : ... .. . ... : ... .. . ...
ROW 11 : ... .. 6 V01 ... : ... .. . ... ... : ... .. . ... : ... .. . ... : ... .. . ...
ROW 12 : ... .. . ... ... : ... .. . ... ... : ... .. . ... : ... .. . ... : ... .. . ...
ROW 13 : ... .. . ... ... : ... .. . ... ... : ... .. . ... : ... .. . ... : ... .. . ...
ROW 14 : ... .. 5 ... ... : ... .. . ... ... : ... .. . ... : ... .. . ... : ... .. . ...
ROW 15 : ... .. . ... ... : ... .. . ... ... : ... .. . ... : ... .. . ... : ... .. . ...
ROW 16 : ... .. . ... ... : ... .. . ... ... : ... .. . ... : ... .. . ... : ... .. . ...
ROW 17 : ... .. 4 ... ... : ... .. . ... ... : ... .. . ... : ... .. . ... : ... .. . ...
ROW 18 : D-3 00 A V00 ... : ... .. 3 ... ... : ... .. . ... : ... .. . ... : ... .. . ...
ROW 19 : ... .. 6 V01 ... : ... .. . ... ... : ... .. . ... : ... .. . ... : ... .. . ...
ROW 1A : ... .. . ... ... : ... .. . ... ... : ... .. . ... : ... .. . ... : ... .. . ...
ROW 1B : ... .. . ... ... : ... .. . ... ... : ... .. . ... : ... .. . ... : ... .. . ...
ROW 1C : ... .. 5 ... ... : ... .. . ... ... : ... .. . ... : ... .. . ... : ... .. . ...
ROW 1D : ... .. . ... ... : ... .. . ... ... : ... .. . ... : ... .. . ... : ... .. . ...
ROW 1E : ... .. . ... ... : ... .. . ... ... : ... .. . ... : ... .. . ... : ... .. . ...
ROW 1F : ... .. 4 ... ... : ... .. . ... ... : ... .. . ... : ... .. . ... : ... .. . ...
ROW 20 : ... .. . ... ... : ... .. 2 ... ... : ... .. . ... : ... .. . ... : ... .. . ...
ROW 21 : ... .. . ... ... : ... .. . ... ... : ... .. . ... : ... .. . ... : ... .. . ...
ROW 22 : ... .. 3 ... ... : ... .. . ... ... : ... .. . ... : ... .. . ... : ... .. . ...
ROW 23 : ... .. . ... ... : ... .. . ... ... : ... .. . ... : ... .. . ... : ... .. . ...
ROW 24 : ... .. . ... ... : ... .. . ... ... : ... .. . ... : ... .. . ... : ... .. . ...
ROW 25 : ... .. . ... ... : ... .. . ... ... : ... .. . ... : ... .. . ... : ... .. . ...
ROW 26 : ... .. 2 ... ... : ... .. . ... ... : ... .. . ... : ... .. . ... : ... .. . ...
ROW 27 : ... .. . ... ... : ... .. . ... ... : ... .. . ... : ... .. . ... : ... .. . ...
ROW 28 : F#3 00 A V00 ... : ... .. 1 ... ... : ... .. . ... : ... .. . ... : ... .. . ...
ROW 29 : ... .. 6 V01 ... : ... .. . ... ... : ... .. . ... : ... .. . ... : ... .. . ...
ROW 2A : ... .. . ... ... : ... .. . ... ... : ... .. . ... : ... .. . ... : ... .. . ...
ROW 2B : ... .. . ... ... : ... .. . ... ... : ... .. . ... : ... .. . ... : ... .. . ...
ROW 2C : ... .. 5 ... ... : ... .. . ... ... : ... .. . ... : ... .. . ... : ... .. . ...
ROW 2D : ... .. . ... ... : ... .. . ... ... : ... .. . ... : ... .. . ... : ... .. . ...
ROW 2E : ... .. . ... ... : ... .. . ... ... : ... .. . ... : ... .. . ... : ... .. . ...
ROW 2F : ... .. 4 ... ... : ... .. . ... ... : ... .. . ... : ... .. . ... : ... .. . D00
ROW 30 : ... .. . ... ... : ... .. . ... ... : ... .. . ... : ... .. . ... : ... .. . ...
ROW 31 : ... .. . ... ... : ... .. . ... ... : ... .. . ... : ... .. . ... : ... .. . ...
ROW 32 : ... .. 3 ... ... : ... .. . ... ... : ... .. . ... : ... .. . ... : ... .. . ...
ROW 33 : ... .. . ... ... : ... .. . ... ... : ... .. . ... : ... .. . ... : ... .. . ...
ROW 34 : ... .. . ... ... : ... .. . ... ... : ... .. . ... : ... .. . ... : ... .. . ...
ROW 35 : ... .. . ... ... : ... .. . ... ... : ... .. . ... : ... .. . ... : ... .. . ...
ROW 36 : ... .. 2 ... ... : ... .. . ... ... : ... .. . ... : ... .. . ... : ... .. . ...
ROW 37 : ... .. . ... ... : ... .. . ... ... : ... .. . ... : ... .. . ... : ... .. . ...
ROW 38 : A-3 00 A V00 ... : ... .. . ... ... : ... .. . ... : ... .. . ... : ... .. . ...
ROW 39 : ... .. 6 V01 ... : ... .. . ... ... : ... .. . ... : ... .. . ... : ... .. . ...
ROW 3A : ... .. . ... ... : ... .. . ... ... : ... .. . ... : ... .. . ... : ... .. . ...
ROW 3B : ... .. . ... ... : ... .. . ... ... : ... .. . ... : ... .. . ... : ... .. . ...
ROW 3C : ... .. 5 ... ... : ... .. . ... ... : ... .. . ... : ... .. . ... : ... .. . ...
ROW 3D : ... .. . ... ... : ... .. . ... ... : ... .. . ... : ... .. . ... : ... .. . ...
ROW 3E : ... .. . ... ... : ... .. . ... ... : ... .. . ... : ... .. . ... : ... .. . ...
ROW 3F : ... .. 4 ... ... : ... .. . ... ... : ... .. . ... : ... .. . ... : ... .. . ...
ROW 40 : ... .. . ... ... : ... .. . ... ... : ... .. . ... : ... .. . ... : ... .. . ...
ROW 41 : ... .. . ... ... : ... .. . ... ... : ... .. . ... : ... .. . ... : ... .. . ...
ROW 42 : ... .. 3 ... ... : ... .. . ... ... : ... .. . ... : ... .. . ... : ... .. . ...
ROW 43 : ... .. . ... ... : ... .. . ... ... : ... .. . ... : ... .. . ... : ... .. . ...
ROW 44 : ... .. . ... ... : ... .. . ... ... : ... .. . ... : ... .. . ... : ... .. . ...
ROW 45 : ... .. . ... ... : ... .. . ... ... : ... .. . ... : ... .. . ... : ... .. . ...
ROW 46 : ... .. 2 ... ... : ... .. . ... ... : ... .. . ... : ... .. . ... : ... .. . ...
ROW 47 : ... .. . ... ... : ... .. . ... ... : ... .. . ... : ... .. . ... : ... .. . ...
ROW 48 : F-3 00 A V00 ... : G#2 00 A ... ... : ... .. . ... : ... .. . ... : ... .. . ...
ROW 49 : ... .. 6 V01 ... : ... .. 6 ... ... : ... .. . ... : ... .. . ... : ... .. . ...
ROW 4A : ... .. . ... ... : ... .. . ... ... : ... .. . ... : ... .. . ... : ... .. . ...
ROW 4B : ... .. . ... ... : ... .. . ... ... : ... .. . ... : ... .. . ... : ... .. . ...
ROW 4C : ... .. 5 ... ... : ... .. 5 ... ... : ... .. . ... : ... .. . ... : ... .. . ...
ROW 4D : ... .. . ... ... : ... .. . ... ... : ... .. . ... : ... .. . ... : ... .. . ...
ROW 4E : ... .. . ... ... : ... .. . ... ... : ... .. . ... : ... .. . ... : ... .. . ...
ROW 4F : ... .. 4 ... ... : ... .. 4 ... ... : ... .. . ... : ... .. . ... : ... .. . ...
ROW 50 : G#3 00 A V00 ... : E-2 00 A ... ... : ... .. . ... : ... .. . ... : ... .. . ...
ROW 51 : ... .. 6 V01 ... : ... .. 6 ... ... : ... .. . ... : ... .. . ... : ... .. . ...
ROW 52 : ... .. . ... ... : ... .. . ... ... : ... .. . ... : ... .. . ... : ... .. . ...
ROW 53 : ... .. . ... ... : ... .. . ... ... : ... .. . ... : ... .. . ... : ... .. . ...
ROW 54 : ... .. 5 ... ... : ... .. 5 ... ... : ... .. . ... : ... .. . ... : ... .. . ...
ROW 55 : ... .. . ... ... : ... .. . ... ... : ... .. . ... : ... .. . ... : ... .. . ...
ROW 56 : ... .. . ... ... : ... .. . ... ... : ... .. . ... : ... .. . ... : ... .. . ...
ROW 57 : ... .. 4 ... ... : ... .. 4 ... ... : ... .. . ... : ... .. . ... : ... .. . ...
ROW 58 : B-3 00 A V00 ... : D-2 00 A ... ... : ... .. . ... : ... .. . ... : ... .. . ...
ROW 59 : ... .. 6 V01 ... : ... .. 6 ... ... : ... .. . ... : ... .. . ... : ... .. . ...
ROW 5A : ... .. . ... ... : ... .. . ... ... : ... .. . ... : ... .. . ... : ... .. . ...
ROW 5B : ... .. . ... ... : ... .. . ... ... : ... .. . ... : ... .. . ... : ... .. . ...
ROW 5C : ... .. 5 ... ... : ... .. 5 ... ... : ... .. . ... : ... .. . ... : ... .. . ...
ROW 5D : ... .. . ... ... : ... .. . ... ... : ... .. . ... : ... .. . ... : ... .. . ...
ROW 5E : ... .. . ... ... : ... .. . ... ... : ... .. . ... : ... .. . ... : ... .. . ...
ROW 5F : ... .. 4 ... ... : ... .. 4 ... ... : ... .. . ... : ... .. . ... : ... .. . ...
ROW 60 : C#4 00 A V00 ... : C#2 00 A ... ... : ... .. . ... : ... .. . ... : ... .. . ...
ROW 61 : ... .. 6 V01 ... : ... .. 6 ... ... : ... .. . ... : ... .. . ... : ... .. . ...
ROW 62 : ... .. . ... ... : ... .. . ... ... : ... .. . ... : ... .. . ... : ... .. . ...
ROW 63 : ... .. . ... ... : ... .. . ... ... : ... .. . ... : ... .. . ... : ... .. . ...
ROW 64 : ... .. 5 ... ... : ... .. 5 ... ... : ... .. . ... : ... .. . ... : ... .. . ...
ROW 65 : ... .. . ... ... : ... .. . ... ... : ... .. . ... : ... .. . ... : ... .. . ...
ROW 66 : ... .. . ... ... : ... .. . ... ... : ... .. . ... : ... .. . ... : ... .. . ...
ROW 67 : ... .. 4 ... ... : ... .. 4 ... ... : ... .. . ... : ... .. . ... : ... .. . ...
ROW 68 : ... .. . ... ... : ... .. . ... ... : ... .. . ... : ... .. . ... : ... .. . ...
ROW 69 : ... .. . ... ... : ... .. . ... ... : ... .. . ... : ... .. . ... : ... .. . ...
ROW 6A : ... .. 3 ... ... : ... .. 3 ... ... : ... .. . ... : ... .. . ... : ... .. . ...
ROW 6B : ... .. . ... ... : ... .. . ... ... : ... .. . ... : ... .. . ... : ... .. . ...
ROW 6C : ... .. . ... ... : ... .. . ... ... : ... .. . ... : ... .. . ... : ... .. . ...
ROW 6D : ... .. . ... ... : ... .. . ... ... : ... .. . ... : ... .. . ... : ... .. . ...
ROW 6E : ... .. 2 ... ... : ... .. 2 ... ... : ... .. . ... : ... .. . ... : ... .. . ...
ROW 6F : ... .. . ... ... : ... .. . ... ... : ... .. . ... : ... .. . ... : ... .. . ...
ROW 70 : ... .. . ... ... : ... .. . ... ... : ... .. . ... : ... .. . ... : ... .. . ...
ROW 71 : ... .. . ... ... : ... .. . ... ... : ... .. . ... : ... .. . ... : ... .. . ...
ROW 72 : ... .. . ... ... : ... .. . ... ... : ... .. . ... : ... .. . ... : ... .. . ...
ROW 73 : ... .. . ... ... : ... .. . ... ... : ... .. . ... : ... .. . ... : ... .. . ...
ROW 74 : ... .. . ... ... : ... .. . ... ... : ... .. . ... : ... .. . ... : ... .. . ...
ROW 75 : ... .. . ... ... : ... .. . ... ... : ... .. . ... : ... .. . ... : ... .. . ...
ROW 76 : ... .. . ... ... : ... .. . ... ... : ... .. . ... : ... .. . ... : ... .. . ...
ROW 77 : ... .. . ... ... : ... .. . ... ... : ... .. . ... : ... .. . ... : ... .. . ...
ROW 78 : ... .. . ... ... : ... .. . ... ... : ... .. . ... : ... .. . ... : ... .. . ...
ROW 79 : ... .. . ... ... : ... .. . ... ... : ... .. . ... : ... .. . ... : ... .. . ...
ROW 7A : ... .. . ... ... : ... .. . ... ... : ... .. . ... : ... .. . ... : ... .. . ...
ROW 7B : ... .. . ... ... : ... .. . ... ... : ... .. . ... : ... .. . ... : ... .. . ...
ROW 7C : ... .. 1 ... ... : ... .. 1 ... ... : ... .. . ... : ... .. . ... : ... .. . ...
ROW 7D : ... .. . ... ... : ... .. . ... ... : ... .. . ... : ... .. . ... : ... .. . ...
ROW 7E : ... .. . ... ... : ... .. . ... ... : ... .. . ... : ... .. . ... : ... .. . ...
ROW 7F : ... .. . ... ... : ... .. . ... D00 : ... .. . ... : ... .. . ... : ... .. . ...
ROW 80 : ... .. . ... ... : ... .. . ... ... : ... .. . ... : ... .. . ... : ... .. . ...
ROW 81 : ... .. . ... ... : ... .. . ... ... : ... .. . ... : ... .. . ... : ... .. . ...
ROW 82 : ... .. . ... ... : ... .. . ... ... : ... .. . ... : ... .. . ... : ... .. . ...
ROW 83 : ... .. . ... ... : ... .. . ... ... : ... .. . ... : ... .. . ... : ... .. . ...
ROW 84 : ... .. . ... ... : ... .. . ... ... : ... .. . ... : ... .. . ... : ... .. . ...
ROW 85 : ... .. . ... ... : ... .. . ... ... : ... .. . ... : ... .. . ... : ... .. . ...
ROW 86 : ... .. . ... ... : ... .. . ... ... : ... .. . ... : ... .. . ... : ... .. . ...
ROW 87 : ... .. . ... ... : ... .. . ... ... : ... .. . ... : ... .. . ... : ... .. . ...
ROW 88 : ... .. . ... ... : ... .. . ... ... : ... .. . ... : ... .. . ... : ... .. . ...
ROW 89 : ... .. . ... ... : ... .. . ... ... : ... .. . ... : ... .. . ... : ... .. . ...
ROW 8A : ... .. . ... ... : ... .. . ... ... : ... .. . ... : ... .. . ... : ... .. . ...
ROW 8B : ... .. . ... ... : ... .. . ... ... : ... .. . ... : ... .. . ... : ... .. . ...
ROW 8C : ... .. . ... ... : ... .. . ... ... : ... .. . ... : ... .. . ... : ... .. . ...
ROW 8D : ... .. . ... ... : ... .. . ... ... : ... .. . ... : ... .. . ... : ... .. . ...
ROW 8E : ... .. . ... ... : ... .. . ... ... : ... .. . ... : ... .. . ... : ... .. . ...
ROW 8F : ... .. . ... ... : ... .. . ... ... : ... .. . ... : ... .. . ... : ... .. . ...
ROW 90 : ... .. . ... ... : ... .. . ... ... : ... .. . ... : ... .. . ... : ... .. . ...
ROW 91 : ... .. . ... ... : ... .. . ... ... : ... .. . ... : ... .. . ... : ... .. . ...
ROW 92 : ... .. . ... ... : ... .. . ... ... : ... .. . ... : ... .. . ... : ... .. . ...
ROW 93 : ... .. . ... ... : ... .. . ... ... : ... .. . ... : ... .. . ... : ... .. . ...
ROW 94 : ... .. . ... ... : ... .. . ... ... : ... .. . ... : ... .. . ... : ... .. . ...
ROW 95 : ... .. . ... ... : ... .. . ... ... : ... .. . ... : ... .. . ... : ... .. . ...
ROW 96 : ... .. . ... ... : ... .. . ... ... : ... .. . ... : ... .. . ... : ... .. . ...
ROW 97 : ... .. . ... ... : ... .. . ... ... : ... .. . ... : ... .. . ... : ... .. . ...
ROW 98 : ... .. . ... ... : ... .. . ... ... : ... .. . ... : ... .. . ... : ... .. . ...
ROW 99 : ... .. . ... ... : ... .. . ... ... : ... .. . ... : ... .. . ... : ... .. . ...
ROW 9A : ... .. . ... ... : ... .. . ... ... : ... .. . ... : ... .. . ... : ... .. . ...
ROW 9B : ... .. . ... ... : ... .. . ... ... : ... .. . ... : ... .. . ... : ... .. . ...
ROW 9C : ... .. . ... ... : ... .. . ... ... : ... .. . ... : ... .. . ... : ... .. . ...
ROW 9D : ... .. . ... ... : ... .. . ... ... : ... .. . ... : ... .. . ... : ... .. . ...
ROW 9E : ... .. . ... ... : ... .. . ... ... : ... .. . ... : ... .. . ... : ... .. . ...
ROW 9F : ... .. . ... ... : ... .. . ... ... : ... .. . ... : ... .. . ... : ... .. . ...
ROW A0 : ... .. . ... ... : ... .. . ... ... : ... .. . ... : ... .. . ... : ... .. . ...
ROW A1 : ... .. . ... ... : ... .. . ... ... : ... .. . ... : ... .. . ... : ... .. . ...
ROW A2 : ... .. . ... ... : ... .. . ... ... : ... .. . ... : ... .. . ... : ... .. . ...
ROW A3 : ... .. . ... ... : ... .. . ... ... : ... .. . ... : ... .. . ... : ... .. . ...
ROW A4 : ... .. . ... ... : ... .. . ... ... : ... .. . ... : ... .. . ... : ... .. . ...
ROW A5 : ... .. . ... ... : ... .. . ... ... : ... .. . ... : ... .. . ... : ... .. . ...
ROW A6 : ... .. . ... ... : ... .. . ... ... : ... .. . ... : ... .. . ... : ... .. . ...
ROW A7 : ... .. . ... ... : ... .. . ... ... : ... .. . ... : ... .. . ... : ... .. . ...
ROW A8 : ... .. . ... ... : ... .. . ... ... : ... .. . ... : ... .. . ... : ... .. . ...
ROW A9 : ... .. . ... ... : ... .. . ... ... : ... .. . ... : ... .. . ... : ... .. . ...
ROW AA : ... .. . ... ... : ... .. . ... ... : ... .. . ... : ... .. . ... : ... .. . ...
ROW AB : ... .. . ... ... : ... .. . ... ... : ... .. . ... : ... .. . ... : ... .. . ...
ROW AC : ... .. . ... ... : ... .. . ... ... : ... .. . ... : ... .. . ... : ... .. . ...
ROW AD : ... .. . ... ... : ... .. . ... ... : ... .. . ... : ... .. . ... : ... .. . ...
ROW AE : ... .. . ... ... : ... .. . ... ... : ... .. . ... : ... .. . ... : ... .. . ...
ROW AF : ... .. . ... ... : ... .. . ... ... : ... .. . ... : ... .. . ... : ... .. . ...
ROW B0 : ... .. . ... ... : ... .. . ... ... : ... .. . ... : ... .. . ... : ... .. . ...
ROW B1 : ... .. . ... ... : ... .. . ... ... : ... .. . ... : ... .. . ... : ... .. . ...
ROW B2 : ... .. . ... ... : ... .. . ... ... : ... .. . ... : ... .. . ... : ... .. . ...
ROW B3 : ... .. . ... ... : ... .. . ... ... : ... .. . ... : ... .. . ... : ... .. . ...
ROW B4 : ... .. . ... ... : ... .. . ... ... : ... .. . ... : ... .. . ... : ... .. . ...
ROW B5 : ... .. . ... ... : ... .. . ... ... : ... .. . ... : ... .. . ... : ... .. . ...
ROW B6 : ... .. . ... ... : ... .. . ... ... : ... .. . ... : ... .. . ... : ... .. . ...
ROW B7 : ... .. . ... ... : ... .. . ... ... : ... .. . ... : ... .. . ... : ... .. . ...
ROW B8 : ... .. . ... ... : ... .. . ... ... : ... .. . ... : ... .. . ... : ... .. . ...
ROW B9 : ... .. . ... ... : ... .. . ... ... : ... .. . ... : ... .. . ... : ... .. . ...
ROW BA : ... .. . ... ... : ... .. . ... ... : ... .. . ... : ... .. . ... : ... .. . ...
ROW BB : ... .. . ... ... : ... .. . ... ... : ... .. . ... : ... .. . ... : ... .. . ...
ROW BC : ... .. . ... ... : ... .. . ... ... : ... .. . ... : ... .. . ... : ... .. . ...
ROW BD : ... .. . ... ... : ... .. . ... ... : ... .. . ... : ... .. . ... : ... .. . ...
ROW BE : ... .. . ... ... : ... .. . ... ... : ... .. . ... : ... .. . ... : ... .. . ...
ROW BF : ... .. . ... ... : ... .. . ... ... : ... .. . ... : ... .. . ... : ... .. . ...
ROW C0 : ... .. . ... ... : ... .. . ... ... : ... .. . ... : ... .. . ... : ... .. . ...
ROW C1 : ... .. . ... ... : ... .. . ... ... : ... .. . ... : ... .. . ... : ... .. . ...
ROW C2 : ... .. . ... ... : ... .. . ... ... : ... .. . ... : ... .. . ... : ... .. . ...
ROW C3 : ... .. . ... ... : ... .. . ... ... : ... .. . ... : ... .. . ... : ... .. . ...
ROW C4 : ... .. . ... ... : ... .. . ... ... : ... .. . ... : ... .. . ... : ... .. . ...
ROW C5 : ... .. . ... ... : ... .. . ... ... : ... .. . ... : ... .. . ... : ... .. . ...
ROW C6 : ... .. . ... ... : ... .. . ... ... : ... .. . ... : ... .. . ... : ... .. . ...
ROW C7 : ... .. . ... ... : ... .. . ... ... : ... .. . ... : ... .. . ... : ... .. . ...
ROW C8 : ... .. . ... ... : ... .. . ... ... : ... .. . ... : ... .. . ... : ... .. . ...
ROW C9 : ... .. . ... ... : ... .. . ... ... : ... .. . ... : ... .. . ... : ... .. . ...
ROW CA : ... .. . ... ... : ... .. . ... ... : ... .. . ... : ... .. . ... : ... .. . ...
ROW CB : ... .. . ... ... : ... .. . ... ... : ... .. . ... : ... .. . ... : ... .. . ...
ROW CC : ... .. . ... ... : ... .. . ... ... : ... .. . ... : ... .. . ... : ... .. . ...
ROW CD : ... .. . ... ... : ... .. . ... ... : ... .. . ... : ... .. . ... : ... .. . ...
ROW CE : ... .. . ... ... : ... .. . ... ... : ... .. . ... : ... .. . ... : ... .. . ...
ROW CF : ... .. . ... ... : ... .. . ... ... : ... .. . ... : ... .. . ... : ... .. . ...
ROW D0 : ... .. . ... ... : ... .. . ... ... : ... .. . ... : ... .. . ... : ... .. . ...
ROW D1 : ... .. . ... ... : ... .. . ... ... : ... .. . ... : ... .. . ... : ... .. . ...
ROW D2 : ... .. . ... ... : ... .. . ... ... : ... .. . ... : ... .. . ... : ... .. . ...
ROW D3 : ... .. . ... ... : ... .. . ... ... : ... .. . ... : ... .. . ... : ... .. . ...
ROW D4 : ... .. . ... ... : ... .. . ... ... : ... .. . ... : ... .. . ... : ... .. . ...
ROW D5 : ... .. . ... ... : ... .. . ... ... : ... .. . ... : ... .. . ... : ... .. . ...
ROW D6 : ... .. . ... ... : ... .. . ... ... : ... .. . ... : ... .. . ... : ... .. . ...
ROW D7 : ... .. . ... ... : ... .. . ... ... : ... .. . ... : ... .. . ... : ... .. . ...
ROW D8 : ... .. . ... ... : ... .. . ... ... : ... .. . ... : ... .. . ... : ... .. . ...
ROW D9 : ... .. . ... ... : ... .. . ... ... : ... .. . ... : ... .. . ... : ... .. . ...
ROW DA : ... .. . ... ... : ... .. . ... ... : ... .. . ... : ... .. . ... : ... .. . ...
ROW DB : ... .. . ... ... : ... .. . ... ... : ... .. . ... : ... .. . ... : ... .. . ...
ROW DC : ... .. . ... ... : ... .. . ... ... : ... .. . ... : ... .. . ... : ... .. . ...
ROW DD : ... .. . ... ... : ... .. . ... ... : ... .. . ... : ... .. . ... : ... .. . ...
ROW DE : ... .. . ... ... : ... .. . ... ... : ... .. . ... : ... .. . ... : ... .. . ...
ROW DF : ... .. . ... ... : ... .. . ... ... : ... .. . ... : ... .. . ... : ... .. . ...
ROW E0 : ... .. . ... ... : ... .. . ... ... : ... .. . ... : ... .. . ... : ... .. . ...
ROW E1 : ... .. . ... ... : ... .. . ... ... : ... .. . ... : ... .. . ... : ... .. . ...
ROW E2 : ... .. . ... ... : ... .. . ... ... : ... .. . ... : ... .. . ... : ... .. . ...
ROW E3 : ... .. . ... ... : ... .. . ... ... : ... .. . ... : ... .. . ... : ... .. . ...
ROW E4 : ... .. . ... ... : ... .. . ... ... : ... .. . ... : ... .. . ... : ... .. . ...
ROW E5 : ... .. . ... ... : ... .. . ... ... : ... .. . ... : ... .. . ... : ... .. . ...
ROW E6 : ... .. . ... ... : ... .. . ... ... : ... .. . ... : ... .. . ... : ... .. . ...
ROW E7 : ... .. . ... ... : ... .. . ... ... : ... .. . ... : ... .. . ... : ... .. . ...
ROW E8 : ... .. . ... ... : ... .. . ... ... : ... .. . ... : ... .. . ... : ... .. . ...
ROW E9 : ... .. . ... ... : ... .. . ... ... : ... .. . ... : ... .. . ... : ... .. . ...
ROW EA : ... .. . ... ... : ... .. . ... ... : ... .. . ... : ... .. . ... : ... .. . ...
ROW EB : ... .. . ... ... : ... .. . ... ... : ... .. . ... : ... .. . ... : ... .. . ...
ROW EC : ... .. . ... ... : ... .. . ... ... : ... .. . ... : ... .. . ... : ... .. . ...
ROW ED : ... .. . ... ... : ... .. . ... ... : ... .. . ... : ... .. . ... : ... .. . ...
ROW EE : ... .. . ... ... : ... .. . ... ... : ... .. . ... : ... .. . ... : ... .. . ...
ROW EF : ... .. . ... ... : ... .. . ... ... : ... .. . ... : ... .. . ... : ... .. . ...
ROW F0 : ... .. . ... ... : ... .. . ... ... : ... .. . ... : ... .. . ... : ... .. . ...
ROW F1 : ... .. . ... ... : ... .. . ... ... : ... .. . ... : ... .. . ... : ... .. . ...
ROW F2 : ... .. . ... ... : ... .. . ... ... : ... .. . ... : ... .. . ... : ... .. . ...
ROW F3 : ... .. . ... ... : ... .. . ... ... : ... .. . ... : ... .. . ... : ... .. . ...
ROW F4 : ... .. . ... ... : ... .. . ... ... : ... .. . ... : ... .. . ... : ... .. . ...
ROW F5 : ... .. . ... ... : ... .. . ... ... : ... .. . ... : ... .. . ... : ... .. . ...
ROW F6 : ... .. . ... ... : ... .. . ... ... : ... .. . ... : ... .. . ... : ... .. . ...
ROW F7 : ... .. . ... ... : ... .. . ... ... : ... .. . ... : ... .. . ... : ... .. . ...
ROW F8 : ... .. . ... ... : ... .. . ... ... : ... .. . ... : ... .. . ... : ... .. . ...
ROW F9 : ... .. . ... ... : ... .. . ... ... : ... .. . ... : ... .. . ... : ... .. . ...
ROW FA : ... .. . ... ... : ... .. . ... ... : ... .. . ... : ... .. . ... : ... .. . ...
ROW FB : ... .. . ... ... : ... .. . ... ... : ... .. . ... : ... .. . ... : ... .. . ...
ROW FC : ... .. . ... ... : ... .. . ... ... : ... .. . ... : ... .. . ... : ... .. . ...
ROW FD : ... .. . ... ... : ... .. . ... ... : ... .. . ... : ... .. . ... : ... .. . ...
ROW FE : ... .. . ... ... : ... .. . ... ... : ... .. . ... : ... .. . ... : ... .. . ...
ROW FF : ... .. . ... ... : ... .. . ... ... : ... .. . ... : ... .. . ... : ... .. . ...

PATTERN 01
ROW 00 : ... .. . ... ... : ... .. . ... ... : ... .. . ... : 7-# 00 2 ... : C-3 00 . ...
ROW 01 : ... .. . ... ... : ... .. . ... ... : ... .. . ... : ... .. . ... : ... .. . ...
ROW 02 : ... .. . ... ... : ... .. . ... ... : ... .. . ... : ... .. 1 ... : ... .. . ...
ROW 03 : ... .. . ... ... : ... .. . ... ... : ... .. . ... : ... .. . ... : ... .. . ...
ROW 04 : ... .. . ... ... : ... .. . ... ... : ... .. . ... : ... .. 0 ... : ... .. . ...
ROW 05 : ... .. . ... ... : ... .. . ... ... : ... .. . ... : ... .. . ... : ... .. . ...
ROW 06 : ... .. . ... ... : ... .. . ... ... : ... .. . ... : ... .. . ... : ... .. . ...
ROW 07 : ... .. . ... ... : ... .. . ... ... : ... .. . ... : ... .. . ... : ... .. . ...
ROW 08 : ... .. . ... ... : ... .. . ... ... : ... .. . ... : 3-# 00 2 ... : ... .. . ...
ROW 09 : ... .. . ... ... : ... .. . ... ... : ... .. . ... : ... .. . ... : ... .. . ...
ROW 0A : ... .. . ... ... : ... .. . ... ... : ... .. . ... : ... .. 1 ... : ... .. . ...
ROW 0B : ... .. . ... ... : ... .. . ... ... : ... .. . ... : ... .. . ... : ... .. . ...
ROW 0C : ... .. . ... ... : ... .. . ... ... : ... .. . ... : ... .. 0 ... : ... .. . ...
ROW 0D : ... .. . ... ... : ... .. . ... ... : ... .. . ... : ... .. . ... : ... .. . ...
ROW 0E : ... .. . ... ... : ... .. . ... ... : ... .. . ... : ... .. . ... : ... .. . ...
ROW 0F : ... .. . ... ... : ... .. . ... ... : ... .. . ... : ... .. . ... : ... .. . ...
ROW 10 : ... .. . ... ... : ... .. . ... ... : ... .. . ... : 3-# 00 2 ... : ... .. . ...
ROW 11 : ... .. . ... ... : ... .. . ... ... : ... .. . ... : ... .. . ... : ... .. . ...
ROW 12 : ... .. . ... ... : ... .. . ... ... : ... .. . ... : ... .. 1 ... : ... .. . ...
ROW 13 : ... .. . ... ... : ... .. . ... ... : ... .. . ... : ... .. . ... : ... .. . ...
ROW 14 : ... .. . ... ... : ... .. . ... ... : ... .. . ... : ... .. 0 ... : ... .. . ...
ROW 15 : ... .. . ... ... : ... .. . ... ... : ... .. . ... : ... .. . ... : ... .. . ...
ROW 16 : ... .. . ... ... : ... .. . ... ... : ... .. . ... : ... .. . ... : ... .. . ...
ROW 17 : ... .. . ... ... : ... .. . ... ... : ... .. . ... : ... .. . ... : ... .. . ...
ROW 18 : ... .. . ... ... : ... .. . ... ... : ... .. . ... : 7-# 00 2 ... : ... .. . ...
ROW 19 : ... .. . ... ... : ... .. . ... ... : ... .. . ... : ... .. . ... : ... .. . ...
ROW 1A : ... .. . ... ... : ... .. . ... ... : ... .. . ... : ... .. 1 ... : ... .. . ...
ROW 1B : ... .. . ... ... : ... .. . ... ... : ... .. . ... : ... .. . ... : ... .. . ...
ROW 1C : ... .. . ... ... : ... .. . ... ... : ... .. . ... : ... .. 0 ... : ... .. . ...
ROW 1D : ... .. . ... ... : ... .. . ... ... : ... .. . ... : ... .. . ... : ... .. . ...
ROW 1E : ... .. . ... ... : ... .. . ... ... : ... .. . ... : ... .. . ... : ... .. . ...
ROW 1F : ... .. . ... ... : ... .. . ... ... : ... .. . ... : ... .. . ... : ... .. . ...
ROW 20 : ... .. . ... ... : ... .. . ... ... : ... .. . ... : 7-# 00 2 ... : C-3 00 . ...
ROW 21 : ... .. . ... ... : ... .. . ... ... : ... .. . ... : ... .. . ... : ... .. . ...
ROW 22 : ... .. . ... ... : ... .. . ... ... : ... .. . ... : ... .. 1 ... : ... .. . ...
ROW 23 : ... .. . ... ... : ... .. . ... ... : ... .. . ... : ... .. . ... : ... .. . ...
ROW 24 : ... .. . ... ... : ... .. . ... ... : ... .. . ... : ... .. 0 ... : ... .. . ...
ROW 25 : ... .. . ... ... : ... .. . ... ... : ... .. . ... : ... .. . ... : ... .. . ...
ROW 26 : ... .. . ... ... : ... .. . ... ... : ... .. . ... : ... .. . ... : ... .. . ...
ROW 27 : ... .. . ... ... : ... .. . ... ... : ... .. . ... : ... .. . ... : ... .. . ...
ROW 28 : ... .. . ... ... : ... .. . ... ... : ... .. . ... : 3-# 00 2 ... : ... .. . ...
ROW 29 : ... .. . ... ... : ... .. . ... ... : ... .. . ... : ... .. . ... : ... .. . ...
ROW 2A : ... .. . ... ... : ... .. . ... ... : ... .. . ... : ... .. 1 ... : ... .. . ...
ROW 2B : ... .. . ... ... : ... .. . ... ... : ... .. . ... : ... .. . ... : ... .. . ...
ROW 2C : ... .. . ... ... : ... .. . ... ... : ... .. . ... : ... .. 0 ... : ... .. . ...
ROW 2D : ... .. . ... ... : ... .. . ... ... : ... .. . ... : ... .. . ... : ... .. . ...
ROW 2E : ... .. . ... ... : ... .. . ... ... : ... .. . ... : ... .. . ... : ... .. . ...
ROW 2F : ... .. . ... ... : ... .. . ... ... : ... .. . ... : ... .. . ... : ... .. . ...
ROW 30 : ... .. 0 ... ... : ... .. 0 ... ... : ... .. . ... : 7-# 00 2 ... : ... .. . ...
ROW 31 : ... .. . ... ... : ... .. . ... ... : ... .. . ... : ... .. . ... : ... .. . ...
ROW 32 : ... .. . ... ... : ... .. . ... ... : ... .. . ... : ... .. 1 ... : ... .. . ...
ROW 33 : ... .. . ... ... : ... .. . ... ... : ... .. . ... : ... .. . ... : ... .. . ...
ROW 34 : ... .. . ... ... : ... .. . ... ... : ... .. . ... : ... .. 0 ... : ... .. . ...
ROW 35 : ... .. . ... ... : ... .. . ... ... : ... .. . ... : ... .. . ... : ... .. . ...
ROW 36 : ... .. . ... ... : ... .. . ... ... : ... .. . ... : ... .. . ... : ... .. . ...
ROW 37 : ... .. . ... ... : ... .. . ... ... : ... .. . ... : ... .. . ... : ... .. . ...
ROW 38 : ... .. . ... ... : ... .. . ... ... : ... .. . ... : 3-# 00 2 ... : ... .. . ...
ROW 39 : ... .. . ... ... : ... .. . ... ... : ... .. . ... : ... .. . ... : ... .. . ...
ROW 3A : ... .. . ... ... : ... .. . ... ... : ... .. . ... : ... .. 1 ... : ... .. . ...
ROW 3B : ... .. . ... ... : ... .. . ... ... : ... .. . ... : ... .. . ... : ... .. . ...
ROW 3C : ... .. . ... ... : ... .. . ... ... : ... .. . ... : ... .. 0 ... : ... .. . ...
ROW 3D : ... .. . ... ... : ... .. . ... ... : ... .. . ... : ... .. . ... : ... .. . ...
ROW 3E : ... .. . ... ... : ... .. . ... ... : ... .. . ... : ... .. . ... : ... .. . ...
ROW 3F : ... .. . ... ... : ... .. . ... ... : ... .. . ... : ... .. . ... : ... .. . ...
ROW 40 : ... .. . ... ... : ... .. . ... ... : ... .. . ... : 7-# 00 2 ... : C-3 00 . ...
ROW 41 : ... .. . ... ... : ... .. . ... ... : ... .. . ... : ... .. . ... : ... .. . ...
ROW 42 : ... .. . ... ... : ... .. . ... ... : ... .. . ... : ... .. 1 ... : ... .. . ...
ROW 43 : ... .. . ... ... : ... .. . ... ... : ... .. . ... : ... .. . ... : ... .. . ...
ROW 44 : ... .. . ... ... : ... .. . ... ... : ... .. . ... : ... .. 0 ... : ... .. . ...
ROW 45 : ... .. . ... ... : ... .. . ... ... : ... .. . ... : ... .. . ... : ... .. . ...
ROW 46 : ... .. . ... ... : ... .. . ... ... : ... .. . ... : ... .. . ... : ... .. . ...
ROW 47 : ... .. . ... ... : ... .. . ... ... : ... .. . ... : ... .. . ... : ... .. . ...
ROW 48 : ... .. . ... ... : ... .. . ... ... : ... .. . ... : 3-# 00 2 ... : ... .. . ...
ROW 49 : ... .. . ... ... : ... .. . ... ... : ... .. . ... : ... .. . ... : ... .. . ...
ROW 4A : ... .. . ... ... : ... .. . ... ... : ... .. . ... : ... .. 1 ... : ... .. . ...
ROW 4B : ... .. . ... ... : ... .. . ... ... : ... .. . ... : ... .. . ... : ... .. . ...
ROW 4C : ... .. . ... ... : ... .. . ... ... : ... .. . ... : ... .. 0 ... : ... .. . ...
ROW 4D : ... .. . ... ... : ... .. . ... ... : ... .. . ... : ... .. . ... : ... .. . ...
ROW 4E : ... .. . ... ... : ... .. . ... ... : ... .. . ... : ... .. . ... : ... .. . ...
ROW 4F : ... .. . ... ... : ... .. . ... ... : ... .. . ... : ... .. . ... : ... .. . ...
ROW 50 : ... .. . ... ... : ... .. . ... ... : ... .. . ... : 3-# 00 2 ... : ... .. . ...
ROW 51 : ... .. . ... ... : ... .. . ... ... : ... .. . ... : ... .. . ... : ... .. . ...
ROW 52 : ... .. . ... ... : ... .. . ... ... : ... .. . ... : ... .. 1 ... : ... .. . ...
ROW 53 : ... .. . ... ... : ... .. . ... ... : ... .. . ... : ... .. . ... : ... .. . ...
ROW 54 : ... .. . ... ... : ... .. . ... ... : ... .. . ... : ... .. 0 ... : ... .. . ...
ROW 55 : ... .. . ... ... : ... .. . ... ... : ... .. . ... : ... .. . ... : ... .. . ...
ROW 56 : ... .. . ... ... : ... .. . ... ... : ... .. . ... : ... .. . ... : ... .. . ...
ROW 57 : ... .. . ... ... : ... .. . ... ... : ... .. . ... : ... .. . ... : ... .. . ...
ROW 58 : ... .. . ... ... : ... .. . ... ... : ... .. . ... : 7-# 00 2 ... : ... .. . ...
ROW 59 : ... .. . ... ... : ... .. . ... ... : ... .. . ... : ... .. . ... : ... .. . ...
ROW 5A : ... .. . ... ... : ... .. . ... ... : ... .. . ... : ... .. 1 ... : ... .. . ...
ROW 5B : ... .. . ... ... : ... .. . ... ... : ... .. . ... : ... .. . ... : ... .. . ...
ROW 5C : ... .. . ... ... : ... .. . ... ... : ... .. . ... : ... .. 0 ... : ... .. . ...
ROW 5D : ... .. . ... ... : ... .. . ... ... : ... .. . ... : ... .. . ... : ... .. . ...
ROW 5E : ... .. . ... ... : ... .. . ... ... : ... .. . ... : ... .. . ... : ... .. . ...
ROW 5F : ... .. . ... ... : ... .. . ... ... : ... .. . ... : ... .. . ... : ... .. . ...
ROW 60 : ... .. . ... ... : ... .. . ... ... : ... .. . ... : 7-# 00 2 ... : C-3 00 . ...
ROW 61 : ... .. . ... ... : ... .. . ... ... : ... .. . ... : ... .. . ... : ... .. . ...
ROW 62 : ... .. . ... ... : ... .. . ... ... : ... .. . ... : ... .. 1 ... : ... .. . ...
ROW 63 : ... .. . ... ... : ... .. . ... ... : ... .. . ... : ... .. . ... : ... .. . ...
ROW 64 : ... .. . ... ... : ... .. . ... ... : ... .. . ... : ... .. 0 ... : ... .. . ...
ROW 65 : ... .. . ... ... : ... .. . ... ... : ... .. . ... : ... .. . ... : ... .. . ...
ROW 66 : ... .. . ... ... : ... .. . ... ... : ... .. . ... : ... .. . ... : ... .. . ...
ROW 67 : ... .. . ... ... : ... .. . ... ... : ... .. . ... : ... .. . ... : ... .. . ...
ROW 68 : ... .. . ... ... : ... .. . ... ... : ... .. . ... : 3-# 00 2 ... : ... .. . ...
ROW 69 : ... .. . ... ... : ... .. . ... ... : ... .. . ... : ... .. . ... : ... .. . ...
ROW 6A : ... .. . ... ... : ... .. . ... ... : ... .. . ... : ... .. 1 ... : ... .. . ...
ROW 6B : ... .. . ... ... : ... .. . ... ... : ... .. . ... : ... .. . ... : ... .. . ...
ROW 6C : ... .. . ... ... : ... .. . ... ... : ... .. . ... : ... .. 0 ... : ... .. . ...
ROW 6D : ... .. . ... ... : ... .. . ... ... : ... .. . ... : ... .. . ... : ... .. . ...
ROW 6E : ... .. . ... ... : ... .. . ... ... : ... .. . ... : ... .. . ... : ... .. . ...
ROW 6F : ... .. . ... ... : ... .. . ... ... : ... .. . ... : ... .. . ... : ... .. . ...
ROW 70 : ... .. . ... ... : ... .. . ... ... : ... .. . ... : 7-# 00 2 ... : ... .. . ...
ROW 71 : ... .. . ... ... : ... .. . ... ... : ... .. . ... : ... .. . ... : ... .. . ...
ROW 72 : ... .. . ... ... : ... .. . ... ... : ... .. . ... : ... .. 1 ... : ... .. . ...
ROW 73 : ... .. . ... ... : ... .. . ... ... : ... .. . ... : ... .. . ... : ... .. . ...
ROW 74 : ... .. . ... ... : ... .. . ... ... : ... .. . ... : ... .. 0 ... : ... .. . ...
ROW 75 : ... .. . ... ... : ... .. . ... ... : ... .. . ... : ... .. . ... : ... .. . ...
ROW 76 : ... .. . ... ... : ... .. . ... ... : ... .. . ... : ... .. . ... : ... .. . ...
ROW 77 : ... .. . ... ... : ... .. . ... ... : ... .. . ... : ... .. . ... : ... .. . ...
ROW 78 : ... .. . ... ... : ... .. . ... ... : ... .. . ... : 3-# 00 2 ... : ... .. . ...
ROW 79 : ... .. . ... ... : ... .. . ... ... : ... .. . ... : ... .. . ... : ... .. . ...
ROW 7A : ... .. . ... ... : ... .. . ... ... : ... .. . ... : ... .. 1 ... : ... .. . ...
ROW 7B : ... .. . ... ... : ... .. . ... ... : ... .. . ... : ... .. . ... : ... .. . ...
ROW 7C : ... .. . ... ... : ... .. . ... ... : ... .. . ... : ... .. 0 ... : ... .. . ...
ROW 7D : ... .. . ... ... : ... .. . ... ... : ... .. . ... : ... .. . ... : ... .. . ...
ROW 7E : ... .. . ... ... : ... .. . ... ... : ... .. . ... : ... .. . ... : ... .. . ...
ROW 7F : ... .. . ... ... : ... .. . ... ... : ... .. . ... : ... .. . ... : ... .. . ...
ROW 80 : ... .. . ... ... : ... .. . ... ... : ... .. . ... : 7-# 00 2 ... : C-3 00 . ...
ROW 81 : ... .. . ... ... : ... .. . ... ... : ... .. . ... : ... .. . ... : ... .. . ...
ROW 82 : ... .. . ... ... : ... .. . ... ... : ... .. . ... : ... .. 1 ... : ... .. . ...
ROW 83 : ... .. . ... ... : ... .. . ... ... : ... .. . ... : ... .. . ... : ... .. . ...
ROW 84 : ... .. . ... ... : ... .. . ... ... : ... .. . ... : ... .. 0 ... : ... .. . ...
ROW 85 : ... .. . ... ... : ... .. . ... ... : ... .. . ... : ... .. . ... : ... .. . ...
ROW 86 : ... .. . ... ... : ... .. . ... ... : ... .. . ... : ... .. . ... : ... .. . ...
ROW 87 : ... .. . ... ... : ... .. . ... ... : ... .. . ... : ... .. . ... : ... .. . ...
ROW 88 : ... .. . ... ... : ... .. . ... ... : ... .. . ... : 3-# 00 2 ... : ... .. . ...
ROW 89 : ... .. . ... ... : ... .. . ... ... : ... .. . ... : ... .. . ... : ... .. . ...
ROW 8A : ... .. . ... ... : ... .. . ... ... : ... .. . ... : ... .. 1 ... : ... .. . ...
ROW 8B : ... .. . ... ... : ... .. . ... ... : ... .. . ... : ... .. . ... : ... .. . ...
ROW 8C : ... .. . ... ... : ... .. . ... ... : ... .. . ... : ... .. 0 ... : ... .. . ...
ROW 8D : ... .. . ... ... : ... .. . ... ... : ... .. . ... : ... .. . ... : ... .. . ...
ROW 8E : ... .. . ... ... : ... .. . ... ... : ... .. . ... : ... .. . ... : ... .. . ...
ROW 8F : ... .. . ... ... : ... .. . ... ... : ... .. . ... : ... .. . ... : ... .. . ...
ROW 90 : ... .. . ... ... : ... .. . ... ... : ... .. . ... : 3-# 00 2 ... : ... .. . ...
ROW 91 : ... .. . ... ... : ... .. . ... ... : ... .. . ... : ... .. . ... : ... .. . ...
ROW 92 : ... .. . ... ... : ... .. . ... ... : ... .. . ... : ... .. 1 ... : ... .. . ...
ROW 93 : ... .. . ... ... : ... .. . ... ... : ... .. . ... : ... .. . ... : ... .. . ...
ROW 94 : ... .. . ... ... : ... .. . ... ... : ... .. . ... : ... .. 0 ... : ... .. . ...
ROW 95 : ... .. . ... ... : ... .. . ... ... : ... .. . ... : ... .. . ... : ... .. . ...
ROW 96 : ... .. . ... ... : ... .. . ... ... : ... .. . ... : ... .. . ... : ... .. . ...
ROW 97 : ... .. . ... ... : ... .. . ... ... : ... .. . ... : ... .. . ... : ... .. . ...
ROW 98 : ... .. . ... ... : ... .. . ... ... : ... .. . ... : 7-# 00 2 ... : ... .. . ...
ROW 99 : ... .. . ... ... : ... .. . ... ... : ... .. . ... : ... .. . ... : ... .. . ...
ROW 9A : ... .. . ... ... : ... .. . ... ... : ... .. . ... : ... .. 1 ... : ... .. . ...
ROW 9B : ... .. . ... ... : ... .. . ... ... : ... .. . ... : ... .. . ... : ... .. . ...
ROW 9C : ... .. . ... ... : ... .. . ... ... : ... .. . ... : ... .. 0 ... : ... .. . ...
ROW 9D : ... .. . ... ... : ... .. . ... ... : ... .. . ... : ... .. . ... : ... .. . ...
ROW 9E : ... .. . ... ... : ... .. . ... ... : ... .. . ... : ... .. . ... : ... .. . ...
ROW 9F : ... .. . ... ... : ... .. . ... ... : ... .. . ... : ... .. . ... : ... .. . ...
ROW A0 : ... .. . ... ... : ... .. . ... ... : ... .. . ... : 7-# 00 2 ... : C-3 00 . ...
ROW A1 : ... .. . ... ... : ... .. . ... ... : ... .. . ... : ... .. . ... : ... .. . ...
ROW A2 : ... .. . ... ... : ... .. . ... ... : ... .. . ... : ... .. 1 ... : ... .. . ...
ROW A3 : ... .. . ... ... : ... .. . ... ... : ... .. . ... : ... .. . ... : ... .. . ...
ROW A4 : ... .. . ... ... : ... .. . ... ... : ... .. . ... : ... .. 0 ... : ... .. . ...
ROW A5 : ... .. . ... ... : ... .. . ... ... : ... .. . ... : ... .. . ... : ... .. . ...
ROW A6 : ... .. . ... ... : ... .. . ... ... : ... .. . ... : ... .. . ... : ... .. . ...
ROW A7 : ... .. . ... ... : ... .. . ... ... : ... .. . ... : ... .. . ... : ... .. . ...
ROW A8 : ... .. . ... ... : ... .. . ... ... : ... .. . ... : 3-# 00 2 ... : ... .. . ...
ROW A9 : ... .. . ... ... : ... .. . ... ... : ... .. . ... : ... .. . ... : ... .. . ...
ROW AA : ... .. . ... ... : ... .. . ... ... : ... .. . ... : ... .. 1 ... : ... .. . ...
ROW AB : ... .. . ... ... : ... .. . ... ... : ... .. . ... : ... .. . ... : ... .. . ...
ROW AC : ... .. . ... ... : ... .. . ... ... : ... .. . ... : ... .. 0 ... : ... .. . ...
ROW AD : ... .. . ... ... : ... .. . ... ... : ... .. . ... : ... .. . ... : ... .. . ...
ROW AE : ... .. . ... ... : ... .. . ... ... : ... .. . ... : ... .. . ... : ... .. . ...
ROW AF : ... .. . ... ... : ... .. . ... ... : ... .. . ... : ... .. . ... : ... .. . ...
ROW B0 : ... .. . ... ... : ... .. . ... ... : ... .. . ... : 7-# 00 2 ... : ... .. . ...
ROW B1 : ... .. . ... ... : ... .. . ... ... : ... .. . ... : ... .. . ... : ... .. . ...
ROW B2 : ... .. . ... ... : ... .. . ... ... : ... .. . ... : ... .. 1 ... : ... .. . ...
ROW B3 : ... .. . ... ... : ... .. . ... ... : ... .. . ... : ... .. . ... : ... .. . ...
ROW B4 : ... .. . ... ... : ... .. . ... ... : ... .. . ... : ... .. 0 ... : ... .. . ...
ROW B5 : ... .. . ... ... : ... .. . ... ... : ... .. . ... : ... .. . ... : ... .. . ...
ROW B6 : ... .. . ... ... : ... .. . ... ... : ... .. . ... : ... .. . ... : ... .. . ...
ROW B7 : ... .. . ... ... : ... .. . ... ... : ... .. . ... : ... .. . ... : ... .. . ...
ROW B8 : ... .. . ... ... : ... .. . ... ... : ... .. . ... : 3-# 00 2 ... : ... .. . ...
ROW B9 : ... .. . ... ... : ... .. . ... ... : ... .. . ... : ... .. . ... : ... .. . ...
ROW BA : ... .. . ... ... : ... .. . ... ... : ... .. . ... : ... .. 1 ... : ... .. . ...
ROW BB : ... .. . ... ... : ... .. . ... ... : ... .. . ... : ... .. . ... : ... .. . ...
ROW BC : ... .. . ... ... : ... .. . ... ... : ... .. . ... : ... .. 0 ... : ... .. . ...
ROW BD : ... .. . ... ... : ... .. . ... ... : ... .. . ... : ... .. . ... : ... .. . ...
ROW BE : ... .. . ... ... : ... .. . ... ... : ... .. . ... : ... .. . ... : ... .. . ...
ROW BF : ... .. . ... ... : ... .. . ... ... : ... .. . ... : ... .. . ... : ... .. . ...
ROW C0 : ... .. . ... ... : ... .. . ... ... : ... .. . ... : 7-# 00 2 ... : C-3 00 . ...
ROW C1 : ... .. . ... ... : ... .. . ... ... : ... .. . ... : ... .. . ... : ... .. . ...
ROW C2 : ... .. . ... ... : ... .. . ... ... : ... .. . ... : ... .. 1 ... : ... .. . ...
ROW C3 : ... .. . ... ... : ... .. . ... ... : ... .. . ... : ... .. . ... : ... .. . ...
ROW C4 : ... .. . ... ... : ... .. . ... ... : ... .. . ... : ... .. 0 ... : ... .. . ...
ROW C5 : ... .. . ... ... : ... .. . ... ... : ... .. . ... : ... .. . ... : ... .. . ...
ROW C6 : ... .. . ... ... : ... .. . ... ... : ... .. . ... : ... .. . ... : ... .. . ...
ROW C7 : ... .. . ... ... : ... .. . ... ... : ... .. . ... : ... .. . ... : ... .. . ...
ROW C8 : ... .. . ... ... : ... .. . ... ... : ... .. . ... : 3-# 00 2 ... : ... .. . ...
ROW C9 : ... .. . ... ... : ... .. . ... ... : ... .. . ... : ... .. . ... : ... .. . ...
ROW CA : ... .. . ... ... : ... .. . ... ... : ... .. . ... : ... .. 1 ... : ... .. . ...
ROW CB : ... .. . ... ... : ... .. . ... ... : ... .. . ... : ... .. . ... : ... .. . ...
ROW CC : ... .. . ... ... : ... .. . ... ... : ... .. . ... : ... .. 0 ... : ... .. . ...
ROW CD : ... .. . ... ... : ... .. . ... ... : ... .. . ... : ... .. . ... : ... .. . ...
ROW CE : ... .. . ... ... : ... .. . ... ... : ... .. . ... : ... .. . ... : ... .. . ...
ROW CF : ... .. . ... ... : ... .. . ... ... : ... .. . ... : ... .. . ... : ... .. . ...
ROW D0 : ... .. . ... ... : ... .. . ... ... : ... .. . ... : 3-# 00 2 ... : ... .. . ...
ROW D1 : ... .. . ... ... : ... .. . ... ... : ... .. . ... : ... .. . ... : ... .. . ...
ROW D2 : ... .. . ... ... : ... .. . ... ... : ... .. . ... : ... .. 1 ... : ... .. . ...
ROW D3 : ... .. . ... ... : ... .. . ... ... : ... .. . ... : ... .. . ... : ... .. . ...
ROW D4 : ... .. . ... ... : ... .. . ... ... : ... .. . ... : ... .. 0 ... : ... .. . ...
ROW D5 : ... .. . ... ... : ... .. . ... ... : ... .. . ... : ... .. . ... : ... .. . ...
ROW D6 : ... .. . ... ... : ... .. . ... ... : ... .. . ... : ... .. . ... : ... .. . ...
ROW D7 : ... .. . ... ... : ... .. . ... ... : ... .. . ... : ... .. . ... : ... .. . ...
ROW D8 : ... .. . ... ... : ... .. . ... ... : ... .. . ... : 7-# 00 2 ... : ... .. . ...
ROW D9 : ... .. . ... ... : ... .. . ... ... : ... .. . ... : ... .. . ... : ... .. . ...
ROW DA : ... .. . ... ... : ... .. . ... ... : ... .. . ... : ... .. 1 ... : ... .. . ...
ROW DB : ... .. . ... ... : ... .. . ... ... : ... .. . ... : ... .. . ... : ... .. . ...
ROW DC : ... .. . ... ... : ... .. . ... ... : ... .. . ... : ... .. 0 ... : ... .. . ...
ROW DD : ... .. . ... ... : ... .. . ... ... : ... .. . ... : ... .. . ... : ... .. . ...
ROW DE : ... .. . ... ... : ... .. . ... ... : ... .. . ... : ... .. . ... : ... .. . ...
ROW DF : ... .. . ... ... : ... .. . ... ... : ... .. . ... : ... .. . ... : ... .. . ...
ROW E0 : ... .. . ... ... : ... .. . ... ... : ... .. . ... : 7-# 00 2 ... : C-3 00 . ...
ROW E1 : ... .. . ... ... : ... .. . ... ... : ... .. . ... : ... .. . ... : ... .. . ...
ROW E2 : ... .. . ... ... : ... .. . ... ... : ... .. . ... : ... .. 1 ... : ... .. . ...
ROW E3 : ... .. . ... ... : ... .. . ... ... : ... .. . ... : ... .. . ... : ... .. . ...
ROW E4 : ... .. . ... ... : ... .. . ... ... : ... .. . ... : ... .. 0 ... : ... .. . ...
ROW E5 : ... .. . ... ... : ... .. . ... ... : ... .. . ... : ... .. . ... : ... .. . ...
ROW E6 : ... .. . ... ... : ... .. . ... ... : ... .. . ... : ... .. . ... : ... .. . ...
ROW E7 : ... .. . ... ... : ... .. . ... ... : ... .. . ... : ... .. . ... : ... .. . ...
ROW E8 : ... .. . ... ... : ... .. . ... ... : ... .. . ... : 3-# 00 2 ... : ... .. . ...
ROW E9 : ... .. . ... ... : ... .. . ... ... : ... .. . ... : ... .. . ... : ... .. . ...
ROW EA : ... .. . ... ... : ... .. . ... ... : ... .. . ... : ... .. 1 ... : ... .. . ...
ROW EB : ... .. . ... ... : ... .. . ... ... : ... .. . ... : ... .. . ... : ... .. . ...
ROW EC : ... .. . ... ... : ... .. . ... ... : ... .. . ... : ... .. 0 ... : ... .. . ...
ROW ED : ... .. . ... ... : ... .. . ... ... : ... .. . ... : ... .. . ... : ... .. . ...
ROW EE : ... .. . ... ... : ... .. . ... ... : ... .. . ... : ... .. . ... : ... .. . ...
ROW EF : ... .. . ... ... : ... .. . ... ... : ... .. . ... : ... .. . ... : ... .. . ...
ROW F0 : ... .. . ... ... : ... .. . ... ... : ... .. . ... : 7-# 00 2 ... : ... .. . ...
ROW F1 : ... .. . ... ... : ... .. . ... ... : ... .. . ... : ... .. . ... : ... .. . ...
ROW F2 : ... .. . ... ... : ... .. . ... ... : ... .. . ... : ... .. 1 ... : ... .. . ...
ROW F3 : ... .. . ... ... : ... .. . ... ... : ... .. . ... : ... .. . ... : ... .. . ...
ROW F4 : ... .. . ... ... : ... .. . ... ... : ... .. . ... : ... .. 0 ... : ... .. . ...
ROW F5 : ... .. . ... ... : ... .. . ... ... : ... .. . ... : ... .. . ... : ... .. . ...
ROW F6 : ... .. . ... ... : ... .. . ... ... : ... .. . ... : ... .. . ... : ... .. . ...
ROW F7 : ... .. . ... ... : ... .. . ... ... : ... .. . ... : ... .. . ... : ... .. . ...
ROW F8 : ... .. . ... ... : ... .. . ... ... : ... .. . ... : 3-# 00 2 ... : ... .. . ...
ROW F9 : ... .. . ... ... : ... .. . ... ... : ... .. . ... : ... .. . ... : ... .. . ...
ROW FA : ... .. . ... ... : ... .. . ... ... : ... .. . ... : ... .. 1 ... : ... .. . ...
ROW FB : ... .. . ... ... : ... .. . ... ... : ... .. . ... : ... .. . ... : ... .. . ...
ROW FC : ... .. . ... ... : ... .. . ... ... : ... .. . ... : ... .. 0 ... : ... .. . ...
ROW FD : ... .. . ... ... : ... .. . ... ... : ... .. . ... : ... .. . ... : ... .. . ...
ROW FE : ... .. . ... ... : ... .. . ... ... : ... .. . ... : ... .. . ... : ... .. . ...
ROW FF : ... .. . ... ... : ... .. . ... ... : ... .. . ... : ... .. . ... : ... .. . ...

PATTERN 02
ROW 00 : F#3 00 8 V00 P80 : C#3 00 8 V00 P7F : F#2 00 . P7F : 7-# 00 5 ... : C-2 00 . ...
ROW 01 : ... .. 5 V01 ... : ... .. 5 V01 ... : ... .. . ... : 6-# 00 4 ... : ... .. . ...
ROW 02 : ... .. . ... ... : A-2 00 . ... ... : ... .. . ... : 7-# 00 3 ... : ... .. . ...
ROW 03 : ... .. . ... ... : ... .. . ... ... : ... .. . ... : ... .. 2 ... : ... .. . ...
ROW 04 : ... .. 3 ... ... : C#3 00 3 ... ... : ... .. . ... : ... .. . ... : ... .. . ...
ROW 05 : ... .. . ... ... : ... .. . ... ... : ... .. . ... : ... .. 1 ... : ... .. . ...
ROW 06 : ... .. . ... ... : A-2 00 . ... ... : ... .. . ... : ... .. 0 ... : ... .. . ...
ROW 07 : ... .. 2 ... ... : ... .. 2 ... ... : ... .. . ... : ... .. . ... : ... .. . ...
ROW 08 : F#3 00 8 V00 ... : C#3 00 8 V00 ... : ... .. . ... : 3-# 00 5 ... : ... .. . ...
ROW 09 : ... .. 5 V01 ... : ... .. 5 V01 ... : ... .. . ... : 2-# 00 4 ... : ... .. . ...
ROW 0A : ... .. . ... ... : A-2 00 . ... ... : ... .. . ... : 3-# 00 3 ... : ... .. . ...
ROW 0B : ... .. . ... ... : ... .. . ... ... : ... .. . ... : ... .. 2 ... : ... .. . ...
ROW 0C : ... .. 3 ... ... : C#3 00 3 ... ... : ... .. . ... : ... .. . ... : ... .. . ...
ROW 0D : ... .. . ... ... : ... .. . ... ... : ... .. . ... : ... .. 1 ... : ... .. . ...
ROW 0E : ... .. . ... ... : A-2 00 . ... ... : ... .. . ... : ... .. 0 ... : ... .. . ...
ROW 0F : ... .. 2 ... ... : ... .. 2 ... ... : ... .. . ... : ... .. . ... : ... .. . ...
ROW 10 : F#3 00 8 V00 ... : C#3 00 8 V00 ... : ... .. . ... : 3-# 00 5 ... : ... .. . ...
ROW 11 : ... .. 5 V01 ... : ... .. 5 V01 ... : ... .. . ... : 2-# 00 4 ... : ... .. . ...
ROW 12 : ... .. . ... ... : A-2 00 . ... ... : ... .. . ... : 3-# 00 3 ... : ... .. . ...
ROW 13 : ... .. . ... ... : ... .. . ... ... : ... .. . ... : ... .. 2 ... : ... .. . ...
ROW 14 : ... .. 3 ... ... : C#3 00 3 ... ... : ... .. . ... : ... .. . ... : ... .. . ...
ROW 15 : ... .. . ... ... : ... .. . ... ... : ... .. . ... : ... .. 1 ... : ... .. . ...
ROW 16 : ... .. . ... ... : A-2 00 . ... ... : ... .. . ... : ... .. 0 ... : ... .. . ...
ROW 17 : ... .. 2 ... ... : ... .. 2 ... ... : ... .. . ... : ... .. . ... : ... .. . ...
ROW 18 : F#3 00 8 V00 ... : C#3 00 8 V00 ... : ... .. . ... : 7-# 00 5 ... : ... .. . ...
ROW 19 : ... .. 5 V01 ... : ... .. 5 V01 ... : ... .. . ... : 6-# 00 4 ... : ... .. . ...
ROW 1A : ... .. . ... ... : A-2 00 . ... ... : ... .. . ... : 7-# 00 3 ... : ... .. . ...
ROW 1B : ... .. . ... ... : ... .. . ... ... : ... .. . ... : ... .. 2 ... : ... .. . ...
ROW 1C : ... .. 3 ... ... : C#3 00 3 ... ... : --- .. . ... : ... .. . ... : ... .. . ...
ROW 1D : ... .. . ... ... : ... .. . ... ... : ... .. . ... : ... .. 1 ... : ... .. . ...
ROW 1E : ... .. . ... ... : A-2 00 . ... ... : ... .. . ... : ... .. 0 ... : ... .. . ...
ROW 1F : ... .. 2 ... ... : ... .. 2 ... ... : ... .. . ... : ... .. . ... : ... .. . ...
ROW 20 : ... .. . ... ... : C#3 00 . ... ... : F#2 00 . ... : 7-# 00 5 ... : C#0 00 . ...
ROW 21 : ... .. . ... ... : ... .. . ... ... : ... .. . ... : 6-# 00 4 ... : ... .. . ...
ROW 22 : ... .. . ... ... : A-2 00 . ... ... : ... .. . ... : 7-# 00 3 ... : ... .. . ...
ROW 23 : ... .. . ... ... : ... .. . ... ... : ... .. . ... : ... .. 2 ... : ... .. . ...
ROW 24 : ... .. 1 ... ... : C#3 00 1 ... ... : ... .. . ... : ... .. . ... : ... .. . ...
ROW 25 : ... .. . ... ... : ... .. . ... ... : ... .. . ... : ... .. 1 ... : ... .. . ...
ROW 26 : ... .. . ... ... : A-2 00 . ... ... : ... .. . ... : ... .. 0 ... : ... .. . ...
ROW 27 : ... .. . ... ... : ... .. . ... ... : ... .. . ... : ... .. . ... : ... .. . ...
ROW 28 : F#3 00 8 V00 ... : C#3 00 8 V00 ... : ... .. . ... : 3-# 00 5 ... : ... .. . ...
ROW 29 : ... .. 5 V01 ... : ... .. 5 V01 ... : ... .. . ... : 2-# 00 4 ... : ... .. . ...
ROW 2A : ... .. . ... ... : A-2 00 . ... ... : --- .. . ... : 3-# 00 3 ... : ... .. . ...
ROW 2B : ... .. . ... ... : ... .. . ... ... : ... .. . ... : ... .. 2 ... : ... .. . ...
ROW 2C : ... .. 3 ... ... : C#3 00 3 ... ... : ... .. . ... : ... .. . ... : ... .. . ...
ROW 2D : ... .. . ... ... : ... .. . ... ... : ... .. . ... : ... .. 1 ... : ... .. . ...
ROW 2E : ... .. . ... ... : A-2 00 . ... ... : ... .. . ... : ... .. 0 ... : ... .. . ...
ROW 2F : ... .. 2 ... ... : ... .. 2 ... ... : ... .. . ... : ... .. . ... : ... .. . ...
ROW 30 : ... .. . ... ... : C#3 00 . ... ... : ... .. . ... : 7-# 00 5 ... : ... .. . ...
ROW 31 : ... .. . ... ... : ... .. . ... ... : ... .. . ... : 6-# 00 4 ... : ... .. . ...
ROW 32 : ... .. . ... ... : A-2 00 . ... ... : ... .. . ... : 7-# 00 3 ... : ... .. . ...
ROW 33 : ... .. . ... ... : ... .. . ... ... : ... .. . ... : ... .. 2 ... : ... .. . ...
ROW 34 : ... .. 1 ... ... : C#3 00 1 ... ... : ... .. . ... : ... .. . ... : ... .. . ...
ROW 35 : ... .. . ... ... : ... .. . ... ... : ... .. . ... : ... .. 1 ... : ... .. . ...
ROW 36 : ... .. . ... ... : A-2 00 . ... ... : ... .. . ... : ... .. 0 ... : ... .. . ...
ROW 37 : ... .. . ... ... : ... .. . ... ... : ... .. . ... : ... .. . ... : ... .. . ...
ROW 38 : F#3 00 8 V00 ... : C#3 00 8 V00 ... : ... .. . ... : 3-# 00 5 ... : ... .. . ...
ROW 39 : ... .. 5 V01 ... : ... .. 5 V01 ... : ... .. . ... : 2-# 00 4 ... : ... .. . ...
ROW 3A : ... .. . ... ... : A-2 00 . ... ... : ... .. . ... : 3-# 00 3 ... : ... .. . ...
ROW 3B : ... .. . ... ... : ... .. . ... ... : ... .. . ... : ... .. 2 ... : ... .. . ...
ROW 3C : ... .. 3 ... ... : C#3 00 3 ... ... : ... .. . ... : ... .. . ... : ... .. . ...
ROW 3D : ... .. . ... ... : ... .. . ... ... : ... .. . ... : ... .. 1 ... : ... .. . ...
ROW 3E : ... .. . ... ... : A-2 00 . ... ... : ... .. . ... : ... .. 0 ... : ... .. . ...
ROW 3F : ... .. 2 ... ... : ... .. 2 ... ... : ... .. . ... : ... .. . ... : ... .. . ...
ROW 40 : F#3 00 8 V00 ... : C#3 00 8 V00 ... : F#2 00 . ... : 7-# 00 5 ... : C-2 00 . ...
ROW 41 : ... .. 5 V01 ... : ... .. 5 V01 ... : ... .. . ... : 6-# 00 4 ... : ... .. . ...
ROW 42 : ... .. . ... ... : A-2 00 . ... ... : ... .. . ... : 7-# 00 3 ... : ... .. . ...
ROW 43 : ... .. . ... ... : ... .. . ... ... : ... .. . ... : ... .. 2 ... : ... .. . ...
ROW 44 : ... .. 3 ... ... : C#3 00 3 ... ... : ... .. . ... : ... .. . ... : ... .. . ...
ROW 45 : ... .. . ... ... : ... .. . ... ... : ... .. . ... : ... .. 1 ... : ... .. . ...
ROW 46 : ... .. . ... ... : A-2 00 . ... ... : ... .. . ... : ... .. 0 ... : ... .. . ...
ROW 47 : ... .. 2 ... ... : ... .. 2 ... ... : ... .. . ... : ... .. . ... : ... .. . ...
ROW 48 : F#3 00 8 V00 ... : C#3 00 8 V00 ... : ... .. . ... : 3-# 00 5 ... : ... .. . ...
ROW 49 : ... .. 5 V01 ... : ... .. 5 V01 ... : ... .. . ... : 2-# 00 4 ... : ... .. . ...
ROW 4A : ... .. . ... ... : A-2 00 . ... ... : ... .. . ... : 3-# 00 3 ... : ... .. . ...
ROW 4B : ... .. . ... ... : ... .. . ... ... : ... .. . ... : ... .. 2 ... : ... .. . ...
ROW 4C : ... .. 3 ... ... : C#3 00 3 ... ... : ... .. . ... : ... .. . ... : ... .. . ...
ROW 4D : ... .. . ... ... : ... .. . ... ... : ... .. . ... : ... .. 1 ... : ... .. . ...
ROW 4E : ... .. . ... ... : A-2 00 . ... ... : ... .. . ... : ... .. 0 ... : ... .. . ...
ROW 4F : ... .. 2 ... ... : ... .. 2 ... ... : ... .. . ... : ... .. . ... : ... .. . ...
ROW 50 : F#3 00 8 V00 ... : C#3 00 8 V00 ... : ... .. . ... : 3-# 00 5 ... : ... .. . ...
ROW 51 : ... .. 5 V01 ... : ... .. 5 V01 ... : ... .. . ... : 2-# 00 4 ... : ... .. . ...
ROW 52 : ... .. . ... ... : A-2 00 . ... ... : ... .. . ... : 3-# 00 3 ... : ... .. . ...
ROW 53 : ... .. . ... ... : ... .. . ... ... : ... .. . ... : ... .. 2 ... : ... .. . ...
ROW 54 : ... .. 3 ... ... : C#3 00 3 ... ... : ... .. . ... : ... .. . ... : ... .. . ...
ROW 55 : ... .. . ... ... : ... .. . ... ... : ... .. . ... : ... .. 1 ... : ... .. . ...
ROW 56 : ... .. . ... ... : A-2 00 . ... ... : ... .. . ... : ... .. 0 ... : ... .. . ...
ROW 57 : ... .. 2 ... ... : ... .. 2 ... ... : ... .. . ... : ... .. . ... : ... .. . ...
ROW 58 : F#3 00 8 V00 ... : C#3 00 8 V00 ... : ... .. . ... : 7-# 00 5 ... : ... .. . ...
ROW 59 : ... .. 5 V01 ... : ... .. 5 V01 ... : ... .. . ... : 6-# 00 4 ... : ... .. . ...
ROW 5A : ... .. . ... ... : A-2 00 . ... ... : ... .. . ... : 7-# 00 3 ... : ... .. . ...
ROW 5B : ... .. . ... ... : ... .. . ... ... : ... .. . ... : ... .. 2 ... : ... .. . ...
ROW 5C : ... .. 3 ... ... : C#3 00 3 ... ... : --- .. . ... : ... .. . ... : ... .. . ...
ROW 5D : ... .. . ... ... : ... .. . ... ... : ... .. . ... : ... .. 1 ... : ... .. . ...
ROW 5E : ... .. . ... ... : A-2 00 . ... ... : ... .. . ... : ... .. 0 ... : ... .. . ...
ROW 5F : ... .. 2 ... ... : ... .. 2 ... ... : ... .. . ... : ... .. . ... : ... .. . ...
ROW 60 : ... .. . ... ... : C#3 00 . ... ... : F#2 00 . ... : 7-# 00 5 ... : C#0 00 . ...
ROW 61 : ... .. . ... ... : ... .. . ... ... : ... .. . ... : 6-# 00 4 ... : ... .. . ...
ROW 62 : ... .. . ... ... : A-2 00 . ... ... : ... .. . ... : 7-# 00 3 ... : ... .. . ...
ROW 63 : ... .. . ... ... : ... .. . ... ... : ... .. . ... : ... .. 2 ... : ... .. . ...
ROW 64 : ... .. 1 ... ... : C#3 00 1 ... ... : ... .. . ... : ... .. . ... : ... .. . ...
ROW 65 : ... .. . ... ... : ... .. . ... ... : ... .. . ... : ... .. 1 ... : ... .. . ...
ROW 66 : ... .. . ... ... : A-2 00 . ... ... : ... .. . ... : ... .. 0 ... : ... .. . ...
ROW 67 : ... .. . ... ... : ... .. . ... ... : ... .. . ... : ... .. . ... : ... .. . ...
ROW 68 : F#3 00 8 V00 ... : C#3 00 8 V00 ... : ... .. . ... : 3-# 00 5 ... : ... .. . ...
ROW 69 : ... .. 5 V01 ... : ... .. 5 V01 ... : ... .. . ... : 2-# 00 4 ... : ... .. . ...
ROW 6A : ... .. . ... ... : A-2 00 . ... ... : --- .. . ... : 3-# 00 3 ... : ... .. . ...
ROW 6B : ... .. . ... ... : ... .. . ... ... : ... .. . ... : ... .. 2 ... : ... .. . ...
ROW 6C : ... .. 3 ... ... : C#3 00 3 ... ... : ... .. . ... : ... .. . ... : ... .. . ...
ROW 6D : ... .. . ... ... : ... .. . ... ... : ... .. . ... : ... .. 1 ... : ... .. . ...
ROW 6E : ... .. . ... ... : A-2 00 . ... ... : ... .. . ... : ... .. 0 ... : ... .. . ...
ROW 6F : ... .. 2 ... ... : ... .. 2 ... ... : ... .. . ... : ... .. . ... : ... .. . ...
ROW 70 : ... .. . ... ... : C#3 00 . ... ... : ... .. . ... : 7-# 00 5 ... : ... .. . ...
ROW 71 : ... .. . ... ... : ... .. . ... ... : ... .. . ... : 6-# 00 4 ... : ... .. . ...
ROW 72 : ... .. . ... ... : A-2 00 . ... ... : ... .. . ... : 7-# 00 3 ... : ... .. . ...
ROW 73 : ... .. . ... ... : ... .. . ... ... : ... .. . ... : ... .. 2 ... : ... .. . ...
ROW 74 : ... .. 1 ... ... : C#3 00 1 ... ... : ... .. . ... : ... .. . ... : ... .. . ...
ROW 75 : ... .. . ... ... : ... .. . ... ... : ... .. . ... : ... .. 1 ... : ... .. . ...
ROW 76 : ... .. . ... ... : A-2 00 . ... ... : ... .. . ... : ... .. 0 ... : ... .. . ...
ROW 77 : ... .. . ... ... : ... .. . ... ... : ... .. . ... : ... .. . ... : ... .. . ...
ROW 78 : F#3 00 8 V00 ... : C#3 00 8 V00 ... : ... .. . ... : 3-# 00 5 ... : ... .. . ...
ROW 79 : ... .. 5 V01 ... : ... .. 5 V01 ... : ... .. . ... : 2-# 00 4 ... : ... .. . ...
ROW 7A : ... .. . ... ... : A-2 00 . ... ... : ... .. . ... : 3-# 00 3 ... : ... .. . ...
ROW 7B : ... .. . ... ... : ... .. . ... ... : ... .. . ... : ... .. 2 ... : ... .. . ...
ROW 7C : ... .. 3 ... ... : C#3 00 3 ... ... : ... .. . ... : ... .. . ... : ... .. . ...
ROW 7D : ... .. . ... ... : ... .. . ... ... : ... .. . ... : ... .. 1 ... : ... .. . ...
ROW 7E : ... .. . ... ... : A-2 00 . ... ... : ... .. . ... : ... .. 0 ... : ... .. . ...
ROW 7F : ... .. 2 ... ... : ... .. 2 ... ... : ... .. . ... : ... .. . ... : ... .. . ...
ROW 80 : F#3 00 8 V00 ... : D-3 00 8 V00 ... : D-3 00 . ... : 7-# 00 5 ... : C-2 00 . ...
ROW 81 : ... .. 5 V01 ... : ... .. 5 V01 ... : ... .. . ... : 6-# 00 4 ... : ... .. . ...
ROW 82 : ... .. . ... ... : A-2 00 . ... ... : ... .. . ... : 7-# 00 3 ... : ... .. . ...
ROW 83 : ... .. . ... ... : ... .. . ... ... : ... .. . ... : ... .. 2 ... : ... .. . ...
ROW 84 : ... .. 3 ... ... : D-3 00 3 ... ... : ... .. . ... : ... .. . ... : ... .. . ...
ROW 85 : ... .. . ... ... : ... .. . ... ... : ... .. . ... : ... .. 1 ... : ... .. . ...
ROW 86 : ... .. . ... ... : A-2 00 . ... ... : ... .. . ... : ... .. 0 ... : ... .. . ...
ROW 87 : ... .. 2 ... ... : ... .. 2 ... ... : ... .. . ... : ... .. . ... : ... .. . ...
ROW 88 : F#3 00 8 V00 ... : D-3 00 8 V00 ... : ... .. . ... : 3-# 00 5 ... : ... .. . ...
ROW 89 : ... .. 5 V01 ... : ... .. 5 V01 ... : ... .. . ... : 2-# 00 4 ... : ... .. . ...
ROW 8A : ... .. . ... ... : A-2 00 . ... ... : ... .. . ... : 3-# 00 3 ... : ... .. . ...
ROW 8B : ... .. . ... ... : ... .. . ... ... : ... .. . ... : ... .. 2 ... : ... .. . ...
ROW 8C : ... .. 3 ... ... : D-3 00 3 ... ... : ... .. . ... : ... .. . ... : ... .. . ...
ROW 8D : ... .. . ... ... : ... .. . ... ... : ... .. . ... : ... .. 1 ... : ... .. . ...
ROW 8E : ... .. . ... ... : A-2 00 . ... ... : ... .. . ... : ... .. 0 ... : ... .. . ...
ROW 8F : ... .. 2 ... ... : ... .. 2 ... ... : ... .. . ... : ... .. . ... : ... .. . ...
ROW 90 : F#3 00 8 V00 ... : D-3 00 8 V00 ... : ... .. . ... : 3-# 00 5 ... : ... .. . ...
ROW 91 : ... .. 5 V01 ... : ... .. 5 V01 ... : ... .. . ... : 2-# 00 4 ... : ... .. . ...
ROW 92 : ... .. . ... ... : A-2 00 . ... ... : ... .. . ... : 3-# 00 3 ... : ... .. . ...
ROW 93 : ... .. . ... ... : ... .. . ... ... : ... .. . ... : ... .. 2 ... : ... .. . ...
ROW 94 : ... .. 3 ... ... : D-3 00 3 ... ... : ... .. . ... : ... .. . ... : ... .. . ...
ROW 95 : ... .. . ... ... : ... .. . ... ... : ... .. . ... : ... .. 1 ... : ... .. . ...
ROW 96 : ... .. . ... ... : A-2 00 . ... ... : ... .. . ... : ... .. 0 ... : ... .. . ...
ROW 97 : ... .. 2 ... ... : ... .. 2 ... ... : ... .. . ... : ... .. . ... : ... .. . ...
ROW 98 : F#3 00 8 V00 ... : D-3 00 8 V00 ... : ... .. . ... : 7-# 00 5 ... : ... .. . ...
ROW 99 : ... .. 5 V01 ... : ... .. 5 V01 ... : ... .. . ... : 6-# 00 4 ... : ... .. . ...
ROW 9A : ... .. . ... ... : A-2 00 . ... ... : ... .. . ... : 7-# 00 3 ... : ... .. . ...
ROW 9B : ... .. . ... ... : ... .. . ... ... : ... .. . ... : ... .. 2 ... : ... .. . ...
ROW 9C : ... .. 3 ... ... : D-3 00 3 ... ... : --- .. . ... : ... .. . ... : ... .. . ...
ROW 9D : ... .. . ... ... : ... .. . ... ... : ... .. . ... : ... .. 1 ... : ... .. . ...
ROW 9E : ... .. . ... ... : A-2 00 . ... ... : ... .. . ... : ... .. 0 ... : ... .. . ...
ROW 9F : ... .. 2 ... ... : ... .. 2 ... ... : ... .. . ... : ... .. . ... : ... .. . ...
ROW A0 : ... .. . ... ... : D-3 00 . ... ... : D-3 00 . ... : 7-# 00 5 ... : C#0 00 . ...
ROW A1 : ... .. . ... ... : ... .. . ... ... : ... .. . ... : 6-# 00 4 ... : ... .. . ...
ROW A2 : ... .. . ... ... : A-2 00 . ... ... : ... .. . ... : 7-# 00 3 ... : ... .. . ...
ROW A3 : ... .. . ... ... : ... .. . ... ... : ... .. . ... : ... .. 2 ... : ... .. . ...
ROW A4 : ... .. 1 ... ... : D-3 00 1 ... ... : ... .. . ... : ... .. . ... : ... .. . ...
ROW A5 : ... .. . ... ... : ... .. . ... ... : ... .. . ... : ... .. 1 ... : ... .. . ...
ROW A6 : ... .. . ... ... : A-2 00 . ... ... : ... .. . ... : ... .. 0 ... : ... .. . ...
ROW A7 : ... .. . ... ... : ... .. . ... ... : ... .. . ... : ... .. . ... : ... .. . ...
ROW A8 : F#3 00 8 V00 ... : D-3 00 8 V00 ... : ... .. . ... : 3-# 00 5 ... : ... .. . ...
ROW A9 : ... .. 5 V01 ... : ... .. 5 V01 ... : ... .. . ... : 2-# 00 4 ... : ... .. . ...
ROW AA : ... .. . ... ... : A-2 00 . ... ... : --- .. . ... : 3-# 00 3 ... : ... .. . ...
ROW AB : ... .. . ... ... : ... .. . ... ... : ... .. . ... : ... .. 2 ... : ... .. . ...
ROW AC : ... .. 3 ... ... : D-3 00 3 ... ... : ... .. . ... : ... .. . ... : ... .. . ...
ROW AD : ... .. . ... ... : ... .. . ... ... : ... .. . ... : ... .. 1 ... : ... .. . ...
ROW AE : ... .. . ... ... : A-2 00 . ... ... : ... .. . ... : ... .. 0 ... : ... .. . ...
ROW AF : ... .. 2 ... ... : ... .. 2 ... ... : ... .. . ... : ... .. . ... : ... .. . ...
ROW B0 : ... .. . ... ... : D-3 00 . ... ... : ... .. . ... : 7-# 00 5 ... : ... .. . ...
ROW B1 : ... .. . ... ... : ... .. . ... ... : ... .. . ... : 6-# 00 4 ... : ... .. . ...
ROW B2 : ... .. . ... ... : A-2 00 . ... ... : ... .. . ... : 7-# 00 3 ... : ... .. . ...
ROW B3 : ... .. . ... ... : ... .. . ... ... : ... .. . ... : ... .. 2 ... : ... .. . ...
ROW B4 : ... .. 1 ... ... : D-3 00 1 ... ... : ... .. . ... : ... .. . ... : ... .. . ...
ROW B5 : ... .. . ... ... : ... .. . ... ... : ... .. . ... : ... .. 1 ... : ... .. . ...
ROW B6 : ... .. . ... ... : A-2 00 . ... ... : ... .. . ... : ... .. 0 ... : ... .. . ...
ROW B7 : ... .. . ... ... : ... .. . ... ... : ... .. . ... : ... .. . ... : ... .. . ...
ROW B8 : F#3 00 8 V00 ... : D-3 00 8 V00 ... : ... .. . ... : 3-# 00 5 ... : ... .. . ...
ROW B9 : ... .. 5 V01 ... : ... .. 5 V01 ... : ... .. . ... : 2-# 00 4 ... : ... .. . ...
ROW BA : ... .. . ... ... : A-2 00 . ... ... : ... .. . ... : 3-# 00 3 ... : ... .. . ...
ROW BB : ... .. . ... ... : ... .. . ... ... : ... .. . ... : ... .. 2 ... : ... .. . ...
ROW BC : ... .. 3 ... ... : D-3 00 3 ... ... : ... .. . ... : ... .. . ... : ... .. . ...
ROW BD : ... .. . ... ... : ... .. . ... ... : ... .. . ... : ... .. 1 ... : ... .. . ...
ROW BE : ... .. . ... ... : A-2 00 . ... ... : ... .. . ... : ... .. 0 ... : ... .. . ...
ROW BF : ... .. 2 ... ... : ... .. 2 ... ... : ... .. . ... : ... .. . ... : ... .. . ...
ROW C0 : F#3 00 8 V00 ... : D-3 00 8 V00 ... : D-3 00 . ... : 7-# 00 5 ... : C-2 00 . ...
ROW C1 : ... .. 5 V01 ... : ... .. 5 V01 ... : ... .. . ... : 6-# 00 4 ... : ... .. . ...
ROW C2 : ... .. . ... ... : A-2 00 . ... ... : ... .. . ... : 7-# 00 3 ... : ... .. . ...
ROW C3 : ... .. . ... ... : ... .. . ... ... : ... .. . ... : ... .. 2 ... : ... .. . ...
ROW C4 : ... .. 3 ... ... : D-3 00 3 ... ... : ... .. . ... : ... .. . ... : ... .. . ...
ROW C5 : ... .. . ... ... : ... .. . ... ... : ... .. . ... : ... .. 1 ... : ... .. . ...
ROW C6 : ... .. . ... ... : A-2 00 . ... ... : ... .. . ... : ... .. 0 ... : ... .. . ...
ROW C7 : ... .. 2 ... ... : ... .. 2 ... ... : ... .. . ... : ... .. . ... : ... .. . ...
ROW C8 : F#3 00 8 V00 ... : D-3 00 8 V00 ... : ... .. . ... : 3-# 00 5 ... : ... .. . ...
ROW C9 : ... .. 5 V01 ... : ... .. 5 V01 ... : ... .. . ... : 2-# 00 4 ... : ... .. . ...
ROW CA : ... .. . ... ... : A-2 00 . ... ... : ... .. . ... : 3-# 00 3 ... : ... .. . ...
ROW CB : ... .. . ... ... : ... .. . ... ... : ... .. . ... : ... .. 2 ... : ... .. . ...
ROW CC : ... .. 3 ... ... : D-3 00 3 ... ... : ... .. . ... : ... .. . ... : ... .. . ...
ROW CD : ... .. . ... ... : ... .. . ... ... : ... .. . ... : ... .. 1 ... : ... .. . ...
ROW CE : ... .. . ... ... : A-2 00 . ... ... : ... .. . ... : ... .. 0 ... : ... .. . ...
ROW CF : ... .. 2 ... ... : ... .. 2 ... ... : ... .. . ... : ... .. . ... : ... .. . ...
ROW D0 : F#3 00 8 V00 ... : D-3 00 8 V00 ... : ... .. . ... : 3-# 00 5 ... : ... .. . ...
ROW D1 : ... .. 5 V01 ... : ... .. 5 V01 ... : ... .. . ... : 2-# 00 4 ... : ... .. . ...
ROW D2 : ... .. . ... ... : A-2 00 . ... ... : ... .. . ... : 3-# 00 3 ... : ... .. . ...
ROW D3 : ... .. . ... ... : ... .. . ... ... : ... .. . ... : ... .. 2 ... : ... .. . ...
ROW D4 : ... .. 3 ... ... : D-3 00 3 ... ... : ... .. . ... : ... .. . ... : ... .. . ...
ROW D5 : ... .. . ... ... : ... .. . ... ... : ... .. . ... : ... .. 1 ... : ... .. . ...
ROW D6 : ... .. . ... ... : A-2 00 . ... ... : ... .. . ... : ... .. 0 ... : ... .. . ...
ROW D7 : ... .. 2 ... ... : ... .. 2 ... ... : ... .. . ... : ... .. . ... : ... .. . ...
ROW D8 : F#3 00 8 V00 ... : D-3 00 8 V00 ... : ... .. . ... : 7-# 00 5 ... : ... .. . ...
ROW D9 : ... .. 5 V01 ... : ... .. 5 V01 ... : ... .. . ... : 6-# 00 4 ... : ... .. . ...
ROW DA : ... .. . ... ... : A-2 00 . ... ... : ... .. . ... : 7-# 00 3 ... : ... .. . ...
ROW DB : ... .. . ... ... : ... .. . ... ... : ... .. . ... : ... .. 2 ... : ... .. . ...
ROW DC : ... .. 3 ... ... : D-3 00 3 ... ... : --- .. . ... : ... .. . ... : ... .. . ...
ROW DD : ... .. . ... ... : ... .. . ... ... : ... .. . ... : ... .. 1 ... : ... .. . ...
ROW DE : ... .. . ... ... : A-2 00 . ... ... : ... .. . ... : ... .. 0 ... : ... .. . ...
ROW DF : ... .. 2 ... ... : ... .. 2 ... ... : ... .. . ... : ... .. . ... : ... .. . ...
ROW E0 : ... .. . ... ... : D-3 00 . ... ... : D-3 00 . ... : 7-# 00 5 ... : C#0 00 . ...
ROW E1 : ... .. . ... ... : ... .. . ... ... : ... .. . ... : 6-# 00 4 ... : ... .. . ...
ROW E2 : ... .. . ... ... : A-2 00 . ... ... : ... .. . ... : 7-# 00 3 ... : ... .. . ...
ROW E3 : ... .. . ... ... : ... .. . ... ... : ... .. . ... : ... .. 2 ... : ... .. . ...
ROW E4 : ... .. 1 ... ... : D-3 00 1 ... ... : ... .. . ... : ... .. . ... : ... .. . ...
ROW E5 : ... .. . ... ... : ... .. . ... ... : ... .. . ... : ... .. 1 ... : ... .. . ...
ROW E6 : ... .. . ... ... : A-2 00 . ... ... : ... .. . ... : ... .. 0 ... : ... .. . ...
ROW E7 : ... .. . ... ... : ... .. . ... ... : ... .. . ... : ... .. . ... : ... .. . ...
ROW E8 : F#3 00 8 V00 ... : D-3 00 8 V00 ... : ... .. . ... : 3-# 00 5 ... : ... .. . ...
ROW E9 : ... .. 5 V01 ... : ... .. 5 V01 ... : ... .. . ... : 2-# 00 4 ... : ... .. . ...
ROW EA : ... .. . ... ... : A-2 00 . ... ... : --- .. . ... : 3-# 00 3 ... : ... .. . ...
ROW EB : ... .. . ... ... : ... .. . ... ... : ... .. . ... : ... .. 2 ... : ... .. . ...
ROW EC : ... .. 3 ... ... : D-3 00 3 ... ... : ... .. . ... : ... .. . ... : ... .. . ...
ROW ED : ... .. . ... ... : ... .. . ... ... : ... .. . ... : ... .. 1 ... : ... .. . ...
ROW EE : ... .. . ... ... : A-2 00 . ... ... : ... .. . ... : ... .. 0 ... : ... .. . ...
ROW EF : ... .. 2 ... ... : ... .. 2 ... ... : ... .. . ... : ... .. . ... : ... .. . ...
ROW F0 : ... .. . ... ... : D-3 00 . ... ... : ... .. . ... : 7-# 00 5 ... : ... .. . ...
ROW F1 : ... .. . ... ... : ... .. . ... ... : ... .. . ... : 6-# 00 4 ... : ... .. . ...
ROW F2 : ... .. . ... ... : A-2 00 . ... ... : ... .. . ... : 7-# 00 3 ... : ... .. . ...
ROW F3 : ... .. . ... ... : ... .. . ... ... : ... .. . ... : ... .. 2 ... : ... .. . ...
ROW F4 : ... .. 1 ... ... : D-3 00 1 ... ... : ... .. . ... : ... .. . ... : ... .. . ...
ROW F5 : ... .. . ... ... : ... .. . ... ... : ... .. . ... : ... .. 1 ... : ... .. . ...
ROW F6 : ... .. . ... ... : A-2 00 . ... ... : ... .. . ... : ... .. 0 ... : ... .. . ...
ROW F7 : ... .. . ... ... : ... .. . ... ... : ... .. . ... : ... .. . ... : ... .. . ...
ROW F8 : F#3 00 8 V00 ... : D-3 00 8 V00 ... : ... .. . ... : 3-# 00 5 ... : ... .. . ...
ROW F9 : ... .. 5 V01 ... : ... .. 5 V01 ... : ... .. . ... : 2-# 00 4 ... : ... .. . ...
ROW FA : ... .. . ... ... : A-2 00 . ... ... : ... .. . ... : 3-# 00 3 ... : ... .. . ...
ROW FB : ... .. . ... ... : ... .. . ... ... : ... .. . ... : ... .. 2 ... : ... .. . ...
ROW FC : ... .. 3 ... ... : D-3 00 3 ... ... : ... .. . ... : ... .. . ... : ... .. . ...
ROW FD : ... .. . ... ... : ... .. . ... ... : ... .. . ... : ... .. 1 ... : ... .. . ...
ROW FE : ... .. . ... ... : A-2 00 . ... ... : ... .. . ... : ... .. 0 ... : ... .. . ...
ROW FF : ... .. 2 ... ... : ... .. 2 ... ... : ... .. . ... : ... .. . ... : ... .. . ...

PATTERN 03
ROW 00 : E-3 00 8 V00 P80 : D-3 00 8 V00 P7F : E-3 00 . P7F : 7-# 00 5 ... : C-2 00 . ...
ROW 01 : ... .. 5 V01 ... : ... .. 5 V01 ... : ... .. . ... : 6-# 00 4 ... : ... .. . ...
ROW 02 : ... .. . ... ... : G#2 00 . ... ... : ... .. . ... : 7-# 00 3 ... : ... .. . ...
ROW 03 : ... .. . ... ... : ... .. . ... ... : ... .. . ... : ... .. 2 ... : ... .. . ...
ROW 04 : ... .. 3 ... ... : D-3 00 3 ... ... : ... .. . ... : ... .. . ... : ... .. . ...
ROW 05 : ... .. . ... ... : ... .. . ... ... : ... .. . ... : ... .. 1 ... : ... .. . ...
ROW 06 : ... .. . ... ... : G#2 00 . ... ... : ... .. . ... : ... .. 0 ... : ... .. . ...
ROW 07 : ... .. 2 ... ... : ... .. 2 ... ... : ... .. . ... : ... .. . ... : ... .. . ...
ROW 08 : E-3 00 8 V00 ... : D-3 00 8 V00 ... : ... .. . ... : 3-# 00 5 ... : ... .. . ...
ROW 09 : ... .. 5 V01 ... : ... .. 5 V01 ... : ... .. . ... : 2-# 00 4 ... : ... .. . ...
ROW 0A : ... .. . ... ... : G#2 00 . ... ... : ... .. . ... : 3-# 00 3 ... : ... .. . ...
ROW 0B : ... .. . ... ... : ... .. . ... ... : ... .. . ... : ... .. 2 ... : ... .. . ...
ROW 0C : ... .. 3 ... ... : D-3 00 3 ... ... : ... .. . ... : ... .. . ... : ... .. . ...
ROW 0D : ... .. . ... ... : ... .. . ... ... : ... .. . ... : ... .. 1 ... : ... .. . ...
ROW 0E : ... .. . ... ... : G#2 00 . ... ... : ... .. . ... : ... .. 0 ... : ... .. . ...
ROW 0F : ... .. 2 ... ... : ... .. 2 ... ... : ... .. . ... : ... .. . ... : ... .. . ...
ROW 10 : E-3 00 8 V00 ... : D-3 00 8 V00 ... : ... .. . ... : 3-# 00 5 ... : ... .. . ...
ROW 11 : ... .. 5 V01 ... : ... .. 5 V01 ... : ... .. . ... : 2-# 00 4 ... : ... .. . ...
ROW 12 : ... .. . ... ... : G#2 00 . ... ... : ... .. . ... : 3-# 00 3 ... : ... .. . ...
ROW 13 : ... .. . ... ... : ... .. . ... ... : ... .. . ... : ... .. 2 ... : ... .. . ...
ROW 14 : ... .. 3 ... ... : D-3 00 3 ... ... : ... .. . ... : ... .. . ... : ... .. . ...
ROW 15 : ... .. . ... ... : ... .. . ... ... : ... .. . ... : ... .. 1 ... : ... .. . ...
ROW 16 : ... .. . ... ... : G#2 00 . ... ... : ... .. . ... : ... .. 0 ... : ... .. . ...
ROW 17 : ... .. 2 ... ... : ... .. 2 ... ... : ... .. . ... : ... .. . ... : ... .. . ...
ROW 18 : E-3 00 8 V00 ... : D-3 00 8 V00 ... : ... .. . ... : 7-# 00 5 ... : ... .. . ...
ROW 19 : ... .. 5 V01 ... : ... .. 5 V01 ... : ... .. . ... : 6-# 00 4 ... : ... .. . ...
ROW 1A : ... .. . ... ... : G#2 00 . ... ... : ... .. . ... : 7-# 00 3 ... : ... .. . ...
ROW 1B : ... .. . ... ... : ... .. . ... ... : ... .. . ... : ... .. 2 ... : ... .. . ...
ROW 1C : ... .. 3 ... ... : D-3 00 3 ... ... : --- .. . ... : ... .. . ... : ... .. . ...
ROW 1D : ... .. . ... ... : ... .. . ... ... : ... .. . ... : ... .. 1 ... : ... .. . ...
ROW 1E : ... .. . ... ... : G#2 00 . ... ... : ... .. . ... : ... .. 0 ... : ... .. . ...
ROW 1F : ... .. 2 ... ... : ... .. 2 ... ... : ... .. . ... : ... .. . ... : ... .. . ...
ROW 20 : ... .. . ... ... : D-3 00 . ... ... : E-3 00 . ... : 7-# 00 5 ... : C#0 00 . ...
ROW 21 : ... .. . ... ... : ... .. . ... ... : ... .. . ... : 6-# 00 4 ... : ... .. . ...
ROW 22 : ... .. . ... ... : G#2 00 . ... ... : ... .. . ... : 7-# 00 3 ... : ... .. . ...
ROW 23 : ... .. . ... ... : ... .. . ... ... : ... .. . ... : ... .. 2 ... : ... .. . ...
ROW 24 : ... .. 1 ... ... : D-3 00 1 ... ... : ... .. . ... : ... .. . ... : ... .. . ...
ROW 25 : ... .. . ... ... : ... .. . ... ... : ... .. . ... : ... .. 1 ... : ... .. . ...
ROW 26 : ... .. . ... ... : G#2 00 . ... ... : ... .. . ... : ... .. 0 ... : ... .. . ...
ROW 27 : ... .. . ... ... : ... .. . ... ... : ... .. . ... : ... .. . ... : ... .. . ...
ROW 28 : E-3 00 8 V00 ... : D-3 00 8 V00 ... : ... .. . ... : 3-# 00 5 ... : ... .. . ...
ROW 29 : ... .. 5 V01 ... : ... .. 5 V01 ... : ... .. . ... : 2-# 00 4 ... : ... .. . ...
ROW 2A : ... .. . ... ... : G#2 00 . ... ... : --- .. . ... : 3-# 00 3 ... : ... .. . ...
ROW 2B : ... .. . ... ... : ... .. . ... ... : ... .. . ... : ... .. 2 ... : ... .. . ...
ROW 2C : ... .. 3 ... ... : D-3 00 3 ... ... : ... .. . ... : ... .. . ... : ... .. . ...
ROW 2D : ... .. . ... ... : ... .. . ... ... : ... .. . ... : ... .. 1 ... : ... .. . ...
ROW 2E : ... .. . ... ... : G#2 00 . ... ... : ... .. . ... : ... .. 0 ... : ... .. . ...
ROW 2F : ... .. 2 ... ... : ... .. 2 ... ... : ... .. . ... : ... .. . ... : ... .. . ...
ROW 30 : ... .. . ... ... : D-3 00 . ... ... : ... .. . ... : 7-# 00 5 ... : ... .. . ...
ROW 31 : ... .. . ... ... : ... .. . ... ... : ... .. . ... : 6-# 00 4 ... : ... .. . ...
ROW 32 : ... .. . ... ... : G#2 00 . ... ... : ... .. . ... : 7-# 00 3 ... : ... .. . ...
ROW 33 : ... .. . ... ... : ... .. . ... ... : ... .. . ... : ... .. 2 ... : ... .. . ...
ROW 34 : ... .. 1 ... ... : D-3 00 1 ... ... : ... .. . ... : ... .. . ... : ... .. . ...
ROW 35 : ... .. . ... ... : ... .. . ... ... : ... .. . ... : ... .. 1 ... : ... .. . ...
ROW 36 : ... .. . ... ... : G#2 00 . ... ... : ... .. . ... : ... .. 0 ... : ... .. . ...
ROW 37 : ... .. . ... ... : ... .. . ... ... : ... .. . ... : ... .. . ... : ... .. . ...
ROW 38 : E-3 00 8 V00 ... : D-3 00 8 V00 ... : ... .. . ... : 3-# 00 5 ... : ... .. . ...
ROW 39 : ... .. 5 V01 ... : ... .. 5 V01 ... : ... .. . ... : 2-# 00 4 ... : ... .. . ...
ROW 3A : ... .. . ... ... : G#2 00 . ... ... : ... .. . ... : 3-# 00 3 ... : ... .. . ...
ROW 3B : ... .. . ... ... : ... .. . ... ... : ... .. . ... : ... .. 2 ... : ... .. . ...
ROW 3C : ... .. 3 ... ... : D-3 00 3 ... ... : ... .. . ... : ... .. . ... : ... .. . ...
ROW 3D : ... .. . ... ... : ... .. . ... ... : ... .. . ... : ... .. 1 ... : ... .. . ...
ROW 3E : ... .. . ... ... : G#2 00 . ... ... : ... .. . ... : ... .. 0 ... : ... .. . ...
ROW 3F : ... .. 2 ... ... : ... .. 2 ... ... : ... .. . ... : ... .. . ... : ... .. . ...
ROW 40 : E-3 00 8 V00 ... : D-3 00 8 V00 ... : E-3 00 . ... : 7-# 00 5 ... : C-2 00 . ...
ROW 41 : ... .. 5 V01 ... : ... .. 5 V01 ... : ... .. . ... : 6-# 00 4 ... : ... .. . ...
ROW 42 : ... .. . ... ... : G#2 00 . ... ... : ... .. . ... : 7-# 00 3 ... : ... .. . ...
ROW 43 : ... .. . ... ... : ... .. . ... ... : ... .. . ... : ... .. 2 ... : ... .. . ...
ROW 44 : ... .. 3 ... ... : D-3 00 3 ... ... : ... .. . ... : ... .. . ... : ... .. . ...
ROW 45 : ... .. . ... ... : ... .. . ... ... : ... .. . ... : ... .. 1 ... : ... .. . ...
ROW 46 : ... .. . ... ... : G#2 00 . ... ... : ... .. . ... : ... .. 0 ... : ... .. . ...
ROW 47 : ... .. 2 ... ... : ... .. 2 ... ... : ... .. . ... : ... .. . ... : ... .. . ...
ROW 48 : E-3 00 8 V00 ... : D-3 00 8 V00 ... : ... .. . ... : 3-# 00 5 ... : ... .. . ...
ROW 49 : ... .. 5 V01 ... : ... .. 5 V01 ... : ... .. . ... : 2-# 00 4 ... : ... .. . ...
ROW 4A : ... .. . ... ... : G#2 00 . ... ... : ... .. . ... : 3-# 00 3 ... : ... .. . ...
ROW 4B : ... .. . ... ... : ... .. . ... ... : ... .. . ... : ... .. 2 ... : ... .. . ...
ROW 4C : ... .. 3 ... ... : D-3 00 3 ... ... : ... .. . ... : ... .. . ... : ... .. . ...
ROW 4D : ... .. . ... ... : ... .. . ... ... : ... .. . ... : ... .. 1 ... : ... .. . ...
ROW 4E : ... .. . ... ... : G#2 00 . ... ... : ... .. . ... : ... .. 0 ... : ... .. . ...
ROW 4F : ... .. 2 ... ... : ... .. 2 ... ... : ... .. . ... : ... .. . ... : ... .. . ...
ROW 50 : E-3 00 8 V00 ... : D-3 00 8 V00 ... : ... .. . ... : 3-# 00 5 ... : ... .. . ...
ROW 51 : ... .. 5 V01 ... : ... .. 5 V01 ... : ... .. . ... : 2-# 00 4 ... : ... .. . ...
ROW 52 : ... .. . ... ... : G#2 00 . ... ... : ... .. . ... : 3-# 00 3 ... : ... .. . ...
ROW 53 : ... .. . ... ... : ... .. . ... ... : ... .. . ... : ... .. 2 ... : ... .. . ...
ROW 54 : ... .. 3 ... ... : D-3 00 3 ... ... : ... .. . ... : ... .. . ... : ... .. . ...
ROW 55 : ... .. . ... ... : ... .. . ... ... : ... .. . ... : ... .. 1 ... : ... .. . ...
ROW 56 : ... .. . ... ... : G#2 00 . ... ... : ... .. . ... : ... .. 0 ... : ... .. . ...
ROW 57 : ... .. 2 ... ... : ... .. 2 ... ... : ... .. . ... : ... .. . ... : ... .. . ...
ROW 58 : E-3 00 8 V00 ... : D-3 00 8 V00 ... : ... .. . ... : 7-# 00 5 ... : ... .. . ...
ROW 59 : ... .. 5 V01 ... : ... .. 5 V01 ... : ... .. . ... : 6-# 00 4 ... : ... .. . ...
ROW 5A : ... .. . ... ... : G#2 00 . ... ... : ... .. . ... : 7-# 00 3 ... : ... .. . ...
ROW 5B : ... .. . ... ... : ... .. . ... ... : ... .. . ... : ... .. 2 ... : ... .. . ...
ROW 5C : ... .. 3 ... ... : D-3 00 3 ... ... : --- .. . ... : ... .. . ... : ... .. . ...
ROW 5D : ... .. . ... ... : ... .. . ... ... : ... .. . ... : ... .. 1 ... : ... .. . ...
ROW 5E : ... .. . ... ... : G#2 00 . ... ... : ... .. . ... : ... .. 0 ... : ... .. . ...
ROW 5F : ... .. 2 ... ... : ... .. 2 ... ... : ... .. . ... : ... .. . ... : ... .. . ...
ROW 60 : ... .. . ... ... : D-3 00 . ... ... : E-3 00 . ... : 7-# 00 5 ... : C#0 00 . ...
ROW 61 : ... .. . ... ... : ... .. . ... ... : ... .. . ... : 6-# 00 4 ... : ... .. . ...
ROW 62 : ... .. . ... ... : G#2 00 . ... ... : ... .. . ... : 7-# 00 3 ... : ... .. . ...
ROW 63 : ... .. . ... ... : ... .. . ... ... : ... .. . ... : ... .. 2 ... : ... .. . ...
ROW 64 : ... .. 1 ... ... : D-3 00 1 ... ... : ... .. . ... : ... .. . ... : ... .. . ...
ROW 65 : ... .. . ... ... : ... .. . ... ... : ... .. . ... : ... .. 1 ... : ... .. . ...
ROW 66 : ... .. . ... ... : G#2 00 . ... ... : ... .. . ... : ... .. 0 ... : ... .. . ...
ROW 67 : ... .. . ... ... : ... .. . ... ... : ... .. . ... : ... .. . ... : ... .. . ...
ROW 68 : E-3 00 8 V00 ... : D-3 00 8 V00 ... : ... .. . ... : 3-# 00 5 ... : ... .. . ...
ROW 69 : ... .. 5 V01 ... : ... .. 5 V01 ... : ... .. . ... : 2-# 00 4 ... : ... .. . ...
ROW 6A : ... .. . ... ... : G#2 00 . ... ... : --- .. . ... : 3-# 00 3 ... : ... .. . ...
ROW 6B : ... .. . ... ... : ... .. . ... ... : ... .. . ... : ... .. 2 ... : ... .. . ...
ROW 6C : ... .. 3 ... ... : D-3 00 3 ... ... : ... .. . ... : ... .. . ... : ... .. . ...
ROW 6D : ... .. . ... ... : ... .. . ... ... : ... .. . ... : ... .. 1 ... : ... .. . ...
ROW 6E : ... .. . ... ... : G#2 00 . ... ... : ... .. . ... : ... .. 0 ... : ... .. . ...
ROW 6F : ... .. 2 ... ... : ... .. 2 ... ... : ... .. . ... : ... .. . ... : ... .. . ...
ROW 70 : ... .. . ... ... : D-3 00 . ... ... : ... .. . ... : 7-# 00 5 ... : ... .. . ...
ROW 71 : ... .. . ... ... : ... .. . ... ... : ... .. . ... : 6-# 00 4 ... : ... .. . ...
ROW 72 : ... .. . ... ... : G#2 00 . ... ... : ... .. . ... : 7-# 00 3 ... : ... .. . ...
ROW 73 : ... .. . ... ... : ... .. . ... ... : ... .. . ... : ... .. 2 ... : ... .. . ...
ROW 74 : ... .. 1 ... ... : D-3 00 1 ... ... : ... .. . ... : ... .. . ... : ... .. . ...
ROW 75 : ... .. . ... ... : ... .. . ... ... : ... .. . ... : ... .. 1 ... : ... .. . ...
ROW 76 : ... .. . ... ... : G#2 00 . ... ... : ... .. . ... : ... .. 0 ... : ... .. . ...
ROW 77 : ... .. . ... ... : ... .. . ... ... : ... .. . ... : ... .. . ... : ... .. . ...
ROW 78 : E-3 00 8 V00 ... : D-3 00 8 V00 ... : ... .. . ... : 3-# 00 5 ... : ... .. . ...
ROW 79 : ... .. 5 V01 ... : ... .. 5 V01 ... : ... .. . ... : 2-# 00 4 ... : ... .. . ...
ROW 7A : ... .. . ... ... : G#2 00 . ... ... : ... .. . ... : 3-# 00 3 ... : ... .. . ...
ROW 7B : ... .. . ... ... : ... .. . ... ... : ... .. . ... : ... .. 2 ... : ... .. . ...
ROW 7C : ... .. 3 ... ... : D-3 00 3 ... ... : ... .. . ... : ... .. . ... : ... .. . ...
ROW 7D : ... .. . ... ... : ... .. . ... ... : ... .. . ... : ... .. 1 ... : ... .. . ...
ROW 7E : ... .. . ... ... : G#2 00 . ... ... : ... .. . ... : ... .. 0 ... : ... .. . ...
ROW 7F : ... .. 2 ... ... : ... .. 2 ... ... : ... .. . ... : ... .. . ... : ... .. . ...
ROW 80 : F-3 00 8 V00 ... : B-2 00 8 V00 ... : C#3 00 . ... : 7-# 00 5 ... : C-2 00 . ...
ROW 81 : ... .. 5 V01 ... : ... .. 5 V01 ... : ... .. . ... : 6-# 00 4 ... : ... .. . ...
ROW 82 : ... .. . ... ... : G#2 00 . ... ... : ... .. . ... : 7-# 00 3 ... : ... .. . ...
ROW 83 : ... .. . ... ... : ... .. . ... ... : ... .. . ... : ... .. 2 ... : ... .. . ...
ROW 84 : ... .. 3 ... ... : B-2 00 3 ... ... : ... .. . ... : ... .. . ... : ... .. . ...
ROW 85 : ... .. . ... ... : ... .. . ... ... : ... .. . ... : ... .. 1 ... : ... .. . ...
ROW 86 : ... .. . ... ... : G#2 00 . ... ... : ... .. . ... : ... .. 0 ... : ... .. . ...
ROW 87 : ... .. 2 ... ... : ... .. 2 ... ... : ... .. . ... : ... .. . ... : ... .. . ...
ROW 88 : F-3 00 8 V00 ... : B-2 00 8 V00 ... : ... .. . ... : 3-# 00 5 ... : ... .. . ...
ROW 89 : ... .. 5 V01 ... : ... .. 5 V01 ... : ... .. . ... : 2-# 00 4 ... : ... .. . ...
ROW 8A : ... .. . ... ... : G#2 00 . ... ... : ... .. . ... : 3-# 00 3 ... : ... .. . ...
ROW 8B : ... .. . ... ... : ... .. . ... ... : ... .. . ... : ... .. 2 ... : ... .. . ...
ROW 8C : ... .. 3 ... ... : B-2 00 3 ... ... : ... .. . ... : ... .. . ... : ... .. . ...
ROW 8D : ... .. . ... ... : ... .. . ... ... : ... .. . ... : ... .. 1 ... : ... .. . ...
ROW 8E : ... .. . ... ... : G#2 00 . ... ... : ... .. . ... : ... .. 0 ... : ... .. . ...
ROW 8F : ... .. 2 ... ... : ... .. 2 ... ... : ... .. . ... : ... .. . ... : ... .. . ...
ROW 90 : F-3 00 8 V00 ... : B-2 00 8 V00 ... : ... .. . ... : 3-# 00 5 ... : ... .. . ...
ROW 91 : ... .. 5 V01 ... : ... .. 5 V01 ... : ... .. . ... : 2-# 00 4 ... : ... .. . ...
ROW 92 : ... .. . ... ... : G#2 00 . ... ... : ... .. . ... : 3-# 00 3 ... : ... .. . ...
ROW 93 : ... .. . ... ... : ... .. . ... ... : ... .. . ... : ... .. 2 ... : ... .. . ...
ROW 94 : ... .. 3 ... ... : B-2 00 3 ... ... : ... .. . ... : ... .. . ... : ... .. . ...
ROW 95 : ... .. . ... ... : ... .. . ... ... : ... .. . ... : ... .. 1 ... : ... .. . ...
ROW 96 : ... .. . ... ... : G#2 00 . ... ... : ... .. . ... : ... .. 0 ... : ... .. . ...
ROW 97 : ... .. 2 ... ... : ... .. 2 ... ... : ... .. . ... : ... .. . ... : ... .. . ...
ROW 98 : F-3 00 8 V00 ... : B-2 00 8 V00 ... : ... .. . ... : 7-# 00 5 ... : ... .. . ...
ROW 99 : ... .. 5 V01 ... : ... .. 5 V01 ... : ... .. . ... : 6-# 00 4 ... : ... .. . ...
ROW 9A : ... .. . ... ... : G#2 00 . ... ... : ... .. . ... : 7-# 00 3 ... : ... .. . ...
ROW 9B : ... .. . ... ... : ... .. . ... ... : ... .. . ... : ... .. 2 ... : ... .. . ...
ROW 9C : ... .. 3 ... ... : B-2 00 3 ... ... : --- .. . ... : ... .. . ... : ... .. . ...
ROW 9D : ... .. . ... ... : ... .. . ... ... : ... .. . ... : ... .. 1 ... : ... .. . ...
ROW 9E : ... .. . ... ... : G#2 00 . ... ... : ... .. . ... : ... .. 0 ... : ... .. . ...
ROW 9F : ... .. 2 ... ... : ... .. 2 ... ... : ... .. . ... : ... .. . ... : ... .. . ...
ROW A0 : ... .. . ... ... : B-2 00 . ... ... : C#3 00 . ... : 7-# 00 5 ... : C#0 00 . ...
ROW A1 : ... .. . ... ... : ... .. . ... ... : ... .. . ... : 6-# 00 4 ... : ... .. . ...
ROW A2 : ... .. . ... ... : G#2 00 . ... ... : ... .. . ... : 7-# 00 3 ... : ... .. . ...
ROW A3 : ... .. . ... ... : ... .. . ... ... : ... .. . ... : ... .. 2 ... : ... .. . ...
ROW A4 : ... .. 1 ... ... : B-2 00 1 ... ... : ... .. . ... : ... .. . ... : ... .. . ...
ROW A5 : ... .. . ... ... : ... .. . ... ... : ... .. . ... : ... .. 1 ... : ... .. . ...
ROW A6 : ... .. . ... ... : G#2 00 . ... ... : ... .. . ... : ... .. 0 ... : ... .. . ...
ROW A7 : ... .. . ... ... : ... .. . ... ... : ... .. . ... : ... .. . ... : ... .. . ...
ROW A8 : F-3 00 8 V00 ... : B-2 00 8 V00 ... : ... .. . ... : 3-# 00 5 ... : ... .. . ...
ROW A9 : ... .. 5 V01 ... : ... .. 5 V01 ... : ... .. . ... : 2-# 00 4 ... : ... .. . ...
ROW AA : ... .. . ... ... : G#2 00 . ... ... : --- .. . ... : 3-# 00 3 ... : ... .. . ...
ROW AB : ... .. . ... ... : ... .. . ... ... : ... .. . ... : ... .. 2 ... : ... .. . ...
ROW AC : ... .. 3 ... ... : B-2 00 3 ... ... : ... .. . ... : ... .. . ... : ... .. . ...
ROW AD : ... .. . ... ... : ... .. . ... ... : ... .. . ... : ... .. 1 ... : ... .. . ...
ROW AE : ... .. . ... ... : G#2 00 . ... ... : ... .. . ... : ... .. 0 ... : ... .. . ...
ROW AF : ... .. 2 ... ... : ... .. 2 ... ... : ... .. . ... : ... .. . ... : ... .. . ...
ROW B0 : ... .. . ... ... : B-2 00 . ... ... : ... .. . ... : 7-# 00 5 ... : ... .. . ...
ROW B1 : ... .. . ... ... : ... .. . ... ... : ... .. . ... : 6-# 00 4 ... : ... .. . ...
ROW B2 : ... .. . ... ... : G#2 00 . ... ... : ... .. . ... : 7-# 00 3 ... : ... .. . ...
ROW B3 : ... .. . ... ... : ... .. . ... ... : ... .. . ... : ... .. 2 ... : ... .. . ...
ROW B4 : ... .. 1 ... ... : B-2 00 1 ... ... : ... .. . ... : ... .. . ... : ... .. . ...
ROW B5 : ... .. . ... ... : ... .. . ... ... : ... .. . ... : ... .. 1 ... : ... .. . ...
ROW B6 : ... .. . ... ... : G#2 00 . ... ... : ... .. . ... : ... .. 0 ... : ... .. . ...
ROW B7 : ... .. . ... ... : ... .. . ... ... : ... .. . ... : ... .. . ... : ... .. . ...
ROW B8 : F-3 00 8 V00 ... : B-2 00 8 V00 ... : ... .. . ... : 3-# 00 5 ... : ... .. . ...
ROW B9 : ... .. 5 V01 ... : ... .. 5 V01 ... : ... .. . ... : 2-# 00 4 ... : ... .. . ...
ROW BA : ... .. . ... ... : G#2 00 . ... ... : ... .. . ... : 3-# 00 3 ... : ... .. . ...
ROW BB : ... .. . ... ... : ... .. . ... ... : ... .. . ... : ... .. 2 ... : ... .. . ...
ROW BC : ... .. 3 ... ... : B-2 00 3 ... ... : ... .. . ... : ... .. . ... : ... .. . ...
ROW BD : ... .. . ... ... : ... .. . ... ... : ... .. . ... : ... .. 1 ... : ... .. . ...
ROW BE : ... .. . ... ... : G#2 00 . ... ... : ... .. . ... : ... .. 0 ... : ... .. . ...
ROW BF : ... .. 2 ... ... : ... .. 2 ... ... : ... .. . ... : ... .. . ... : ... .. . ...
ROW C0 : F-3 00 8 V00 ... : B-2 00 8 V00 ... : C#3 00 . ... : 7-# 00 5 ... : C-2 00 . ...
ROW C1 : ... .. 5 V01 ... : ... .. 5 V01 ... : ... .. . ... : 6-# 00 4 ... : ... .. . ...
ROW C2 : ... .. . ... ... : G#2 00 . ... ... : ... .. . ... : 7-# 00 3 ... : ... .. . ...
ROW C3 : ... .. . ... ... : ... .. . ... ... : ... .. . ... : ... .. 2 ... : ... .. . ...
ROW C4 : ... .. 3 ... ... : B-2 00 3 ... ... : ... .. . ... : ... .. . ... : ... .. . ...
ROW C5 : ... .. . ... ... : ... .. . ... ... : ... .. . ... : ... .. 1 ... : ... .. . ...
ROW C6 : ... .. . ... ... : G#2 00 . ... ... : ... .. . ... : ... .. 0 ... : ... .. . ...
ROW C7 : ... .. 2 ... ... : ... .. 2 ... ... : ... .. . ... : ... .. . ... : ... .. . ...
ROW C8 : F-3 00 8 V00 ... : B-2 00 8 V00 ... : ... .. . ... : 3-# 00 5 ... : ... .. . ...
ROW C9 : ... .. 5 V01 ... : ... .. 5 V01 ... : ... .. . ... : 2-# 00 4 ... : ... .. . ...
ROW CA : ... .. . ... ... : G#2 00 . ... ... : ... .. . ... : 3-# 00 3 ... : ... .. . ...
ROW CB : ... .. . ... ... : ... .. . ... ... : ... .. . ... : ... .. 2 ... : ... .. . ...
ROW CC : ... .. 3 ... ... : B-2 00 3 ... ... : ... .. . ... : ... .. . ... : ... .. . ...
ROW CD : ... .. . ... ... : ... .. . ... ... : ... .. . ... : ... .. 1 ... : ... .. . ...
ROW CE : ... .. . ... ... : G#2 00 . ... ... : ... .. . ... : ... .. 0 ... : ... .. . ...
ROW CF : ... .. 2 ... ... : ... .. 2 ... ... : ... .. . ... : ... .. . ... : ... .. . ...
ROW D0 : F-3 00 8 V00 ... : B-2 00 8 V00 ... : ... .. . ... : 3-# 00 5 ... : ... .. . ...
ROW D1 : ... .. 5 V01 ... : ... .. 5 V01 ... : ... .. . ... : 2-# 00 4 ... : ... .. . ...
ROW D2 : ... .. . ... ... : G#2 00 . ... ... : ... .. . ... : 3-# 00 3 ... : ... .. . ...
ROW D3 : ... .. . ... ... : ... .. . ... ... : ... .. . ... : ... .. 2 ... : ... .. . ...
ROW D4 : ... .. 3 ... ... : B-2 00 3 ... ... : ... .. . ... : ... .. . ... : ... .. . ...
ROW D5 : ... .. . ... ... : ... .. . ... ... : ... .. . ... : ... .. 1 ... : ... .. . ...
ROW D6 : ... .. . ... ... : G#2 00 . ... ... : ... .. . ... : ... .. 0 ... : ... .. . ...
ROW D7 : ... .. 2 ... ... : ... .. 2 ... ... : ... .. . ... : ... .. . ... : ... .. . ...
ROW D8 : F-3 00 8 V00 ... : B-2 00 8 V00 ... : ... .. . ... : 7-# 00 5 ... : ... .. . ...
ROW D9 : ... .. 5 V01 ... : ... .. 5 V01 ... : ... .. . ... : 6-# 00 4 ... : ... .. . ...
ROW DA : ... .. . ... ... : G#2 00 . ... ... : ... .. . ... : 7-# 00 3 ... : ... .. . ...
ROW DB : ... .. . ... ... : ... .. . ... ... : ... .. . ... : ... .. 2 ... : ... .. . ...
ROW DC : ... .. 3 ... ... : B-2 00 3 ... ... : --- .. . ... : ... .. . ... : ... .. . ...
ROW DD : ... .. . ... ... : ... .. . ... ... : ... .. . ... : ... .. 1 ... : ... .. . ...
ROW DE : ... .. . ... ... : G#2 00 . ... ... : ... .. . ... : ... .. 0 ... : ... .. . ...
ROW DF : ... .. 2 ... ... : ... .. 2 ... ... : ... .. . ... : ... .. . ... : ... .. . ...
ROW E0 : ... .. . ... ... : B-2 00 . ... ... : C#3 00 . ... : 7-# 00 5 ... : C#0 00 . ...
ROW E1 : ... .. . ... ... : ... .. . ... ... : ... .. . ... : 6-# 00 4 ... : ... .. . ...
ROW E2 : ... .. . ... ... : G#2 00 . ... ... : ... .. . ... : 7-# 00 3 ... : ... .. . ...
ROW E3 : ... .. . ... ... : ... .. . ... ... : ... .. . ... : ... .. 2 ... : ... .. . ...
ROW E4 : ... .. 1 ... ... : B-2 00 1 ... ... : ... .. . ... : ... .. . ... : ... .. . ...
ROW E5 : ... .. . ... ... : ... .. . ... ... : ... .. . ... : ... .. 1 ... : ... .. . ...
ROW E6 : ... .. . ... ... : G#2 00 . ... ... : ... .. . ... : ... .. 0 ... : ... .. . ...
ROW E7 : ... .. . ... ... : ... .. . ... ... : ... .. . ... : ... .. . ... : ... .. . ...
ROW E8 : F-3 00 8 V00 ... : B-2 00 8 V00 ... : ... .. . ... : 7-# 00 5 ... : C#0 00 . ...
ROW E9 : ... .. 5 V01 ... : ... .. 5 V01 ... : ... .. . ... : 6-# 00 4 ... : ... .. . ...
ROW EA : ... .. . ... ... : G#2 00 . ... ... : --- .. . ... : 7-# 00 3 ... : ... .. . ...
ROW EB : ... .. . ... ... : ... .. . ... ... : ... .. . ... : ... .. 2 ... : ... .. . ...
ROW EC : ... .. 3 ... ... : B-2 00 3 ... ... : ... .. . ... : ... .. . ... : ... .. . ...
ROW ED : ... .. . ... ... : ... .. . ... ... : ... .. . ... : ... .. 1 ... : ... .. . ...
ROW EE : ... .. . ... ... : G#2 00 . ... ... : ... .. . ... : ... .. 0 ... : ... .. . ...
ROW EF : ... .. 2 ... ... : ... .. 2 ... ... : ... .. . ... : ... .. . ... : ... .. . ...
ROW F0 : ... .. . ... ... : B-2 00 . ... ... : ... .. . ... : 7-# 00 5 ... : C#0 00 . ...
ROW F1 : ... .. . ... ... : ... .. . ... ... : ... .. . ... : 6-# 00 4 ... : ... .. . ...
ROW F2 : ... .. . ... ... : G#2 00 . ... ... : ... .. . ... : 7-# 00 3 ... : ... .. . ...
ROW F3 : ... .. . ... ... : ... .. . ... ... : ... .. . ... : ... .. 2 ... : ... .. . ...
ROW F4 : ... .. 1 ... ... : B-2 00 1 ... ... : ... .. . ... : ... .. . ... : ... .. . ...
ROW F5 : ... .. . ... ... : ... .. . ... ... : ... .. . ... : ... .. 1 ... : ... .. . ...
ROW F6 : ... .. . ... ... : G#2 00 . ... ... : ... .. . ... : ... .. 0 ... : ... .. . ...
ROW F7 : ... .. . ... ... : ... .. . ... ... : ... .. . ... : ... .. . ... : ... .. . ...
ROW F8 : F-3 00 8 V00 ... : B-2 00 8 V00 ... : ... .. . ... : 7-# 00 5 ... : C#0 00 . ...
ROW F9 : ... .. 5 V01 ... : ... .. 5 V01 ... : ... .. . ... : 6-# 00 4 ... : ... .. . ...
ROW FA : ... .. . ... ... : G#2 00 . ... ... : ... .. . ... : 7-# 00 3 ... : ... .. . ...
ROW FB : ... .. . ... ... : ... .. . ... ... : ... .. . ... : ... .. 2 ... : ... .. . ...
ROW FC : ... .. 3 ... ... : B-2 00 3 ... ... : ... .. . ... : ... .. . ... : ... .. . ...
ROW FD : ... .. . ... ... : ... .. . ... ... : ... .. . ... : ... .. 1 ... : ... .. . ...
ROW FE : ... .. . ... ... : G#2 00 . ... ... : ... .. . ... : ... .. 0 ... : ... .. . ...
ROW FF : ... .. 2 ... ... : ... .. 2 ... ... : ... .. . ... : ... .. . ... : ... .. . ...

PATTERN 04
ROW 00 : F#3 00 3 V02 P80 : C#3 00 2 V02 P7F : B-1 00 . ... : 7-# 00 5 ... : C-2 00 . ...
ROW 01 : ... .. . ... ... : ... .. . ... ... : ... .. . ... : 6-# 00 4 ... : ... .. . ...
ROW 02 : ... .. . ... ... : ... .. . ... ... : ... .. . ... : 7-# 00 3 ... : ... .. . ...
ROW 03 : ... .. . ... ... : ... .. . ... ... : --- .. . ... : ... .. 2 ... : ... .. . ...
ROW 04 : ... .. . ... ... : ... .. . ... ... : C-2 00 . ... : ... .. . ... : ... .. . ...
ROW 05 : ... .. . ... ... : ... .. . ... ... : ... .. . ... : ... .. 1 ... : ... .. . ...
ROW 06 : ... .. . ... ... : ... .. . ... ... : ... .. . ... : ... .. 0 ... : ... .. . ...
ROW 07 : ... .. . ... ... : ... .. . ... ... : --- .. . ... : ... .. . ... : ... .. . ...
ROW 08 : ... .. 2 ... ... : ... .. . ... ... : C#2 00 . ... : 3-# 00 5 ... : ... .. . ...
ROW 09 : ... .. . ... ... : ... .. . ... ... : ... .. . ... : 2-# 00 4 ... : ... .. . ...
ROW 0A : ... .. . ... ... : ... .. . ... ... : ... .. . ... : 3-# 00 3 ... : ... .. . ...
ROW 0B : ... .. . ... ... : ... .. . ... ... : --- .. . ... : ... .. 2 ... : ... .. . ...
ROW 0C : ... .. . ... ... : ... .. 1 ... ... : D-2 00 . ... : ... .. . ... : ... .. . ...
ROW 0D : ... .. . ... ... : ... .. . ... ... : ... .. . ... : ... .. 1 ... : ... .. . ...
ROW 0E : ... .. . ... ... : ... .. . ... ... : ... .. . ... : ... .. 0 ... : ... .. . ...
ROW 0F : ... .. . ... ... : ... .. . ... ... : --- .. . ... : ... .. . ... : ... .. . ...
ROW 10 : ... .. 1 ... ... : ... .. . ... ... : D#2 00 . ... : 3-# 00 5 ... : ... .. . ...
ROW 11 : ... .. . ... ... : ... .. . ... ... : ... .. . ... : 2-# 00 4 ... : ... .. . ...
ROW 12 : ... .. . ... ... : ... .. . ... ... : ... .. . ... : 3-# 00 3 ... : ... .. . ...
ROW 13 : ... .. . ... ... : ... .. . ... ... : --- .. . ... : ... .. 2 ... : ... .. . ...
ROW 14 : ... .. . ... ... : ... .. . ... ... : E-2 00 . ... : ... .. . ... : ... .. . ...
ROW 15 : ... .. . ... ... : ... .. . ... ... : ... .. . ... : ... .. 1 ... : ... .. . ...
ROW 16 : ... .. . ... ... : ... .. . ... ... : ... .. . ... : ... .. 0 ... : ... .. . ...
ROW 17 : ... .. . ... ... : ... .. . ... ... : --- .. . D00 : ... .. . ... : ... .. . ...
ROW 18 : F#3 00 3 ... ... : C#3 00 2 ... ... : C#3 00 . ... : 7-# 00 5 ... : ... .. . ...
ROW 19 : ... .. . ... ... : ... .. . ... ... : ... .. . ... : 6-# 00 4 ... : ... .. . ...
ROW 1A : ... .. . ... ... : ... .. . ... ... : ... .. . ... : 7-# 00 3 ... : ... .. . ...
ROW 1B : ... .. . ... ... : ... .. . ... ... : ... .. . ... : ... .. 2 ... : ... .. . ...
ROW 1C : ... .. . ... ... : ... .. . ... ... : ... .. . ... : ... .. . ... : ... .. . ...
ROW 1D : ... .. . ... ... : ... .. . ... ... : ... .. . ... : ... .. 1 ... : ... .. . ...
ROW 1E : ... .. . ... ... : ... .. . ... ... : ... .. . ... : ... .. 0 ... : ... .. . ...
ROW 1F : ... .. . ... ... : ... .. . ... ... : ... .. . ... : ... .. . ... : ... .. . ...
ROW 20 : ... .. 2 ... ... : ... .. . ... ... : ... .. . ... : 7-# 00 5 ... : C#0 00 . ...
ROW 21 : ... .. . ... ... : ... .. . ... ... : ... .. . ... : 6-# 00 4 ... : ... .. . ...
ROW 22 : ... .. . ... ... : ... .. . ... ... : ... .. . ... : 7-# 00 3 ... : ... .. . ...
ROW 23 : ... .. . ... ... : ... .. . ... ... : ... .. . ... : ... .. 2 ... : ... .. . ...
ROW 24 : ... .. . ... ... : ... .. 1 ... ... : ... .. . ... : ... .. . ... : ... .. . ...
ROW 25 : ... .. . ... ... : ... .. . ... ... : ... .. . ... : ... .. 1 ... : ... .. . ...
ROW 26 : ... .. . ... ... : ... .. . ... ... : ... .. . ... : ... .. 0 ... : ... .. . ...
ROW 27 : ... .. . ... ... : ... .. . ... ... : ... .. . ... : ... .. . ... : ... .. . ...
ROW 28 : ... .. 1 ... ... : ... .. . ... ... : ... .. . ... : 3-# 00 5 ... : ... .. . ...
ROW 29 : ... .. . ... ... : ... .. . ... ... : ... .. . ... : 2-# 00 4 ... : ... .. . ...
ROW 2A : ... .. . ... ... : ... .. . ... ... : ... .. . ... : 3-# 00 3 ... : ... .. . ...
ROW 2B : ... .. . ... ... : ... .. . ... ... : ... .. . ... : ... .. 2 ... : ... .. . ...
ROW 2C : ... .. . ... ... : ... .. . ... ... : ... .. . ... : ... .. . ... : ... .. . ...
ROW 2D : ... .. . ... ... : ... .. . ... ... : ... .. . ... : ... .. 1 ... : ... .. . ...
ROW 2E : ... .. . ... ... : ... .. . ... ... : ... .. . ... : ... .. 0 ... : ... .. . ...
ROW 2F : ... .. . ... ... : ... .. . ... ... : ... .. . ... : ... .. . ... : ... .. . ...
ROW 30 : F#3 00 3 ... ... : C#3 00 2 ... ... : ... .. . ... : 7-# 00 5 ... : ... .. . ...
ROW 31 : ... .. . ... ... : ... .. . ... ... : ... .. . ... : 6-# 00 4 ... : ... .. . ...
ROW 32 : ... .. . ... ... : ... .. . ... ... : ... .. . ... : 7-# 00 3 ... : ... .. . ...
ROW 33 : ... .. . ... ... : ... .. . ... ... : ... .. . ... : ... .. 2 ... : ... .. . ...
ROW 34 : ... .. . ... ... : ... .. . ... ... : ... .. . ... : ... .. . ... : ... .. . ...
ROW 35 : ... .. . ... ... : ... .. . ... ... : ... .. . ... : ... .. 1 ... : ... .. . ...
ROW 36 : ... .. 2 ... ... : ... .. . ... ... : ... .. . ... : ... .. 0 ... : ... .. . ...
ROW 37 : ... .. . ... ... : ... .. . ... ... : ... .. . ... : ... .. . ... : ... .. . ...
ROW 38 : ... .. . ... ... : ... .. 1 ... ... : ... .. . ... : 3-# 00 5 ... : ... .. . ...
ROW 39 : ... .. . ... ... : ... .. . ... ... : ... .. . ... : 2-# 00 4 ... : ... .. . ...
ROW 3A : ... .. . ... ... : ... .. . ... ... : ... .. . ... : 3-# 00 3 ... : ... .. . ...
ROW 3B : ... .. . ... ... : ... .. . ... ... : ... .. . ... : ... .. 2 ... : ... .. . ...
ROW 3C : ... .. 1 ... ... : ... .. . ... ... : ... .. . ... : ... .. . ... : ... .. . ...
ROW 3D : ... .. . ... ... : ... .. . ... ... : ... .. . ... : ... .. 1 ... : ... .. . ...
ROW 3E : ... .. . ... ... : ... .. . ... ... : ... .. . ... : ... .. 0 ... : ... .. . ...
ROW 3F : ... .. . ... ... : ... .. . ... ... : ... .. . ... : ... .. . ... : ... .. . ...
ROW 40 : F#3 00 3 ... ... : C#3 00 2 ... ... : ... .. . ... : 7-# 00 5 ... : C-2 00 . ...
ROW 41 : ... .. . ... ... : ... .. . ... ... : ... .. . ... : 6-# 00 4 ... : ... .. . ...
ROW 42 : ... .. . ... ... : ... .. . ... ... : ... .. . ... : 7-# 00 3 ... : ... .. . ...
ROW 43 : ... .. . ... ... : ... .. . ... ... : ... .. . ... : ... .. 2 ... : ... .. . ...
ROW 44 : ... .. . ... ... : ... .. . ... ... : ... .. . ... : ... .. . ... : ... .. . ...
ROW 45 : ... .. . ... ... : ... .. . ... ... : ... .. . ... : ... .. 1 ... : ... .. . ...
ROW 46 : ... .. . ... ... : ... .. . ... ... : ... .. . ... : ... .. 0 ... : ... .. . ...
ROW 47 : ... .. . ... ... : ... .. . ... ... : ... .. . ... : ... .. . ... : ... .. . ...
ROW 48 : ... .. 2 ... ... : ... .. . ... ... : ... .. . ... : 3-# 00 5 ... : ... .. . ...
ROW 49 : ... .. . ... ... : ... .. . ... ... : ... .. . ... : 2-# 00 4 ... : ... .. . ...
ROW 4A : ... .. . ... ... : ... .. . ... ... : ... .. . ... : 3-# 00 3 ... : ... .. . ...
ROW 4B : ... .. . ... ... : ... .. . ... ... : ... .. . ... : ... .. 2 ... : ... .. . ...
ROW 4C : ... .. . ... ... : ... .. 1 ... ... : ... .. . ... : ... .. . ... : ... .. . ...
ROW 4D : ... .. . ... ... : ... .. . ... ... : ... .. . ... : ... .. 1 ... : ... .. . ...
ROW 4E : ... .. . ... ... : ... .. . ... ... : ... .. . ... : ... .. 0 ... : ... .. . ...
ROW 4F : ... .. . ... ... : ... .. . ... ... : ... .. . ... : ... .. . ... : ... .. . ...
ROW 50 : ... .. 1 ... ... : ... .. . ... ... : ... .. . ... : 3-# 00 5 ... : ... .. . ...
ROW 51 : ... .. . ... ... : ... .. . ... ... : ... .. . ... : 2-# 00 4 ... : ... .. . ...
ROW 52 : ... .. . ... ... : ... .. . ... ... : ... .. . ... : 3-# 00 3 ... : ... .. . ...
ROW 53 : ... .. . ... ... : ... .. . ... ... : ... .. . ... : ... .. 2 ... : ... .. . ...
ROW 54 : ... .. . ... ... : ... .. . ... ... : ... .. . ... : ... .. . ... : ... .. . ...
ROW 55 : ... .. . ... ... : ... .. . ... ... : ... .. . ... : ... .. 1 ... : ... .. . ...
ROW 56 : ... .. . ... ... : ... .. . ... ... : ... .. . ... : ... .. 0 ... : ... .. . ...
ROW 57 : ... .. . ... ... : ... .. . ... ... : ... .. . ... : ... .. . ... : ... .. . ...
ROW 58 : F#3 00 3 ... ... : C#3 00 2 ... ... : ... .. . ... : 7-# 00 5 ... : ... .. . ...
ROW 59 : ... .. . ... ... : ... .. . ... ... : ... .. . ... : 6-# 00 4 ... : ... .. . ...
ROW 5A : ... .. . ... ... : ... .. . ... ... : ... .. . ... : 7-# 00 3 ... : ... .. . ...
ROW 5B : ... .. . ... ... : ... .. . ... ... : ... .. . ... : ... .. 2 ... : ... .. . ...
ROW 5C : ... .. . ... ... : ... .. . ... ... : ... .. . ... : ... .. . ... : ... .. . ...
ROW 5D : ... .. . ... ... : ... .. . ... ... : ... .. . ... : ... .. 1 ... : ... .. . ...
ROW 5E : ... .. . ... ... : ... .. . ... ... : ... .. . ... : ... .. 0 ... : ... .. . ...
ROW 5F : ... .. . ... ... : ... .. . ... ... : ... .. . ... : ... .. . ... : ... .. . ...
ROW 60 : ... .. 2 ... ... : ... .. . ... ... : ... .. . ... : 7-# 00 5 ... : C#0 00 . ...
ROW 61 : ... .. . ... ... : ... .. . ... ... : ... .. . ... : 6-# 00 4 ... : ... .. . ...
ROW 62 : ... .. . ... ... : ... .. . ... ... : ... .. . ... : 7-# 00 3 ... : ... .. . ...
ROW 63 : ... .. . ... ... : ... .. . ... ... : ... .. . ... : ... .. 2 ... : ... .. . ...
ROW 64 : ... .. . ... ... : ... .. 1 ... ... : ... .. . ... : ... .. . ... : ... .. . ...
ROW 65 : ... .. . ... ... : ... .. . ... ... : ... .. . ... : ... .. 1 ... : ... .. . ...
ROW 66 : ... .. . ... ... : ... .. . ... ... : ... .. . ... : ... .. 0 ... : ... .. . ...
ROW 67 : ... .. . ... ... : ... .. . ... ... : ... .. . ... : ... .. . ... : ... .. . ...
ROW 68 : ... .. 1 ... ... : ... .. . ... ... : ... .. . ... : 3-# 00 5 ... : ... .. . ...
ROW 69 : ... .. . ... ... : ... .. . ... ... : ... .. . ... : 2-# 00 4 ... : ... .. . ...
ROW 6A : ... .. . ... ... : ... .. . ... ... : ... .. . ... : 3-# 00 3 ... : ... .. . ...
ROW 6B : ... .. . ... ... : ... .. . ... ... : ... .. . ... : ... .. 2 ... : ... .. . ...
ROW 6C : ... .. . ... ... : ... .. . ... ... : ... .. . ... : ... .. . ... : ... .. . ...
ROW 6D : ... .. . ... ... : ... .. . ... ... : ... .. . ... : ... .. 1 ... : ... .. . ...
ROW 6E : ... .. . ... ... : ... .. . ... ... : ... .. . ... : ... .. 0 ... : ... .. . ...
ROW 6F : ... .. . ... ... : ... .. . ... ... : ... .. . ... : ... .. . ... : ... .. . ...
ROW 70 : F#3 00 3 ... ... : C#3 00 2 ... ... : ... .. . ... : 7-# 00 5 ... : ... .. . ...
ROW 71 : ... .. . ... ... : ... .. . ... ... : ... .. . ... : 6-# 00 4 ... : ... .. . ...
ROW 72 : ... .. . ... ... : ... .. . ... ... : ... .. . ... : 7-# 00 3 ... : ... .. . ...
ROW 73 : ... .. . ... ... : ... .. . ... ... : ... .. . ... : ... .. 2 ... : ... .. . ...
ROW 74 : ... .. . ... ... : ... .. . ... ... : ... .. . ... : ... .. . ... : ... .. . ...
ROW 75 : ... .. . ... ... : ... .. . ... ... : ... .. . ... : ... .. 1 ... : ... .. . ...
ROW 76 : ... .. 2 ... ... : ... .. . ... ... : ... .. . ... : ... .. 0 ... : ... .. . ...
ROW 77 : ... .. . ... ... : ... .. . ... ... : ... .. . ... : ... .. . ... : ... .. . ...
ROW 78 : ... .. . ... ... : ... .. 1 ... ... : ... .. . ... : 3-# 00 5 ... : ... .. . ...
ROW 79 : ... .. . ... ... : ... .. . ... ... : ... .. . ... : 2-# 00 4 ... : ... .. . ...
ROW 7A : ... .. . ... ... : ... .. . ... ... : ... .. . ... : 3-# 00 3 ... : ... .. . ...
ROW 7B : ... .. . ... ... : ... .. . ... ... : ... .. . ... : ... .. 2 ... : ... .. . ...
ROW 7C : ... .. 1 ... ... : ... .. . ... ... : ... .. . ... : ... .. . ... : ... .. . ...
ROW 7D : ... .. . ... ... : ... .. . ... ... : ... .. . ... : ... .. 1 ... : ... .. . ...
ROW 7E : ... .. . ... ... : ... .. . ... ... : ... .. . ... : ... .. 0 ... : ... .. . ...
ROW 7F : ... .. . ... ... : ... .. . ... ... : ... .. . ... : ... .. . ... : ... .. . ...
ROW 80 : F#3 00 3 ... ... : D-3 00 2 ... ... : ... .. . ... : 7-# 00 5 ... : C-2 00 . ...
ROW 81 : ... .. . ... ... : ... .. . ... ... : ... .. . ... : 6-# 00 4 ... : ... .. . ...
ROW 82 : ... .. . ... ... : ... .. . ... ... : ... .. . ... : 7-# 00 3 ... : ... .. . ...
ROW 83 : ... .. . ... ... : ... .. . ... ... : ... .. . ... : ... .. 2 ... : ... .. . ...
ROW 84 : ... .. . ... ... : ... .. . ... ... : ... .. . ... : ... .. . ... : ... .. . ...
ROW 85 : ... .. . ... ... : ... .. . ... ... : ... .. . ... : ... .. 1 ... : ... .. . ...
ROW 86 : ... .. . ... ... : ... .. . ... ... : ... .. . ... : ... .. 0 ... : ... .. . ...
ROW 87 : ... .. . ... ... : ... .. . ... ... : ... .. . ... : ... .. . ... : ... .. . ...
ROW 88 : ... .. 2 ... ... : ... .. . ... ... : ... .. . ... : 3-# 00 5 ... : ... .. . ...
ROW 89 : ... .. . ... ... : ... .. . ... ... : ... .. . ... : 2-# 00 4 ... : ... .. . ...
ROW 8A : ... .. . ... ... : ... .. . ... ... : ... .. . ... : 3-# 00 3 ... : ... .. . ...
ROW 8B : ... .. . ... ... : ... .. . ... ... : ... .. . ... : ... .. 2 ... : ... .. . ...
ROW 8C : ... .. . ... ... : ... .. 1 ... ... : ... .. . ... : ... .. . ... : ... .. . ...
ROW 8D : ... .. . ... ... : ... .. . ... ... : ... .. . ... : ... .. 1 ... : ... .. . ...
ROW 8E : ... .. . ... ... : ... .. . ... ... : ... .. . ... : ... .. 0 ... : ... .. . ...
ROW 8F : ... .. . ... ... : ... .. . ... ... : ... .. . ... : ... .. . ... : ... .. . ...
ROW 90 : ... .. 1 ... ... : ... .. . ... ... : ... .. . ... : 3-# 00 5 ... : ... .. . ...
ROW 91 : ... .. . ... ... : ... .. . ... ... : ... .. . ... : 2-# 00 4 ... : ... .. . ...
ROW 92 : ... .. . ... ... : ... .. . ... ... : ... .. . ... : 3-# 00 3 ... : ... .. . ...
ROW 93 : ... .. . ... ... : ... .. . ... ... : ... .. . ... : ... .. 2 ... : ... .. . ...
ROW 94 : ... .. . ... ... : ... .. . ... ... : ... .. . ... : ... .. . ... : ... .. . ...
ROW 95 : ... .. . ... ... : ... .. . ... ... : ... .. . ... : ... .. 1 ... : ... .. . ...
ROW 96 : ... .. . ... ... : ... .. . ... ... : ... .. . ... : ... .. 0 ... : ... .. . ...
ROW 97 : ... .. . ... ... : ... .. . ... ... : ... .. . ... : ... .. . ... : ... .. . ...
ROW 98 : F#3 00 3 ... ... : D-3 00 2 ... ... : ... .. . ... : 7-# 00 5 ... : ... .. . ...
ROW 99 : ... .. . ... ... : ... .. . ... ... : ... .. . ... : 6-# 00 4 ... : ... .. . ...
ROW 9A : ... .. . ... ... : ... .. . ... ... : ... .. . ... : 7-# 00 3 ... : ... .. . ...
ROW 9B : ... .. . ... ... : ... .. . ... ... : ... .. . ... : ... .. 2 ... : ... .. . ...
ROW 9C : ... .. . ... ... : ... .. . ... ... : ... .. . ... : ... .. . ... : ... .. . ...
ROW 9D : ... .. . ... ... : ... .. . ... ... : ... .. . ... : ... .. 1 ... : ... .. . ...
ROW 9E : ... .. . ... ... : ... .. . ... ... : ... .. . ... : ... .. 0 ... : ... .. . ...
ROW 9F : ... .. . ... ... : ... .. . ... ... : ... .. . ... : ... .. . ... : ... .. . ...
ROW A0 : ... .. 2 ... ... : ... .. . ... ... : ... .. . ... : 7-# 00 5 ... : C#0 00 . ...
ROW A1 : ... .. . ... ... : ... .. . ... ... : ... .. . ... : 6-# 00 4 ... : ... .. . ...
ROW A2 : ... .. . ... ... : ... .. . ... ... : ... .. . ... : 7-# 00 3 ... : ... .. . ...
ROW A3 : ... .. . ... ... : ... .. . ... ... : ... .. . ... : ... .. 2 ... : ... .. . ...
ROW A4 : ... .. . ... ... : ... .. 1 ... ... : ... .. . ... : ... .. . ... : ... .. . ...
ROW A5 : ... .. . ... ... : ... .. . ... ... : ... .. . ... : ... .. 1 ... : ... .. . ...
ROW A6 : ... .. . ... ... : ... .. . ... ... : ... .. . ... : ... .. 0 ... : ... .. . ...
ROW A7 : ... .. . ... ... : ... .. . ... ... : ... .. . ... : ... .. . ... : ... .. . ...
ROW A8 : ... .. 1 ... ... : ... .. . ... ... : ... .. . ... : 3-# 00 5 ... : ... .. . ...
ROW A9 : ... .. . ... ... : ... .. . ... ... : ... .. . ... : 2-# 00 4 ... : ... .. . ...
ROW AA : ... .. . ... ... : ... .. . ... ... : ... .. . ... : 3-# 00 3 ... : ... .. . ...
ROW AB : ... .. . ... ... : ... .. . ... ... : ... .. . ... : ... .. 2 ... : ... .. . ...
ROW AC : ... .. . ... ... : ... .. . ... ... : ... .. . ... : ... .. . ... : ... .. . ...
ROW AD : ... .. . ... ... : ... .. . ... ... : ... .. . ... : ... .. 1 ... : ... .. . ...
ROW AE : ... .. . ... ... : ... .. . ... ... : ... .. . ... : ... .. 0 ... : ... .. . ...
ROW AF : ... .. . ... ... : ... .. . ... ... : ... .. . ... : ... .. . ... : ... .. . ...
ROW B0 : F#3 00 3 ... ... : D-3 00 2 ... ... : ... .. . ... : 7-# 00 5 ... : ... .. . ...
ROW B1 : ... .. . ... ... : ... .. . ... ... : ... .. . ... : 6-# 00 4 ... : ... .. . ...
ROW B2 : ... .. . ... ... : ... .. . ... ... : ... .. . ... : 7-# 00 3 ... : ... .. . ...
ROW B3 : ... .. . ... ... : ... .. . ... ... : ... .. . ... : ... .. 2 ... : ... .. . ...
ROW B4 : ... .. . ... ... : ... .. . ... ... : ... .. . ... : ... .. . ... : ... .. . ...
ROW B5 : ... .. . ... ... : ... .. . ... ... : ... .. . ... : ... .. 1 ... : ... .. . ...
ROW B6 : ... .. 2 ... ... : ... .. . ... ... : ... .. . ... : ... .. 0 ... : ... .. . ...
ROW B7 : ... .. . ... ... : ... .. . ... ... : ... .. . ... : ... .. . ... : ... .. . ...
ROW B8 : ... .. . ... ... : ... .. 1 ... ... : ... .. . ... : 3-# 00 5 ... : ... .. . ...
ROW B9 : ... .. . ... ... : ... .. . ... ... : ... .. . ... : 2-# 00 4 ... : ... .. . ...
ROW BA : ... .. . ... ... : ... .. . ... ... : ... .. . ... : 3-# 00 3 ... : ... .. . ...
ROW BB : ... .. . ... ... : ... .. . ... ... : ... .. . ... : ... .. 2 ... : ... .. . ...
ROW BC : ... .. 1 ... ... : ... .. . ... ... : ... .. . ... : ... .. . ... : ... .. . ...
ROW BD : ... .. . ... ... : ... .. . ... ... : ... .. . ... : ... .. 1 ... : ... .. . ...
ROW BE : ... .. . ... ... : ... .. . ... ... : ... .. . ... : ... .. 0 ... : ... .. . ...
ROW BF : ... .. . ... ... : ... .. . ... ... : ... .. . ... : ... .. . ... : ... .. . ...
ROW C0 : F#3 00 3 ... ... : D-3 00 2 ... ... : ... .. . ... : 7-# 00 5 ... : C-2 00 . ...
ROW C1 : ... .. . ... ... : ... .. . ... ... : ... .. . ... : 6-# 00 4 ... : ... .. . ...
ROW C2 : ... .. . ... ... : ... .. . ... ... : ... .. . ... : 7-# 00 3 ... : ... .. . ...
ROW C3 : ... .. . ... ... : ... .. . ... ... : ... .. . ... : ... .. 2 ... : ... .. . ...
ROW C4 : ... .. . ... ... : ... .. . ... ... : ... .. . ... : ... .. . ... : ... .. . ...
ROW C5 : ... .. . ... ... : ... .. . ... ... : ... .. . ... : ... .. 1 ... : ... .. . ...
ROW C6 : ... .. . ... ... : ... .. . ... ... : ... .. . ... : ... .. 0 ... : ... .. . ...
ROW C7 : ... .. . ... ... : ... .. . ... ... : ... .. . ... : ... .. . ... : ... .. . ...
ROW C8 : ... .. 2 ... ... : ... .. . ... ... : ... .. . ... : 3-# 00 5 ... : ... .. . ...
ROW C9 : ... .. . ... ... : ... .. . ... ... : ... .. . ... : 2-# 00 4 ... : ... .. . ...
ROW CA : ... .. . ... ... : ... .. . ... ... : ... .. . ... : 3-# 00 3 ... : ... .. . ...
ROW CB : ... .. . ... ... : ... .. . ... ... : ... .. . ... : ... .. 2 ... : ... .. . ...
ROW CC : ... .. . ... ... : ... .. 1 ... ... : ... .. . ... : ... .. . ... : ... .. . ...
ROW CD : ... .. . ... ... : ... .. . ... ... : ... .. . ... : ... .. 1 ... : ... .. . ...
ROW CE : ... .. . ... ... : ... .. . ... ... : ... .. . ... : ... .. 0 ... : ... .. . ...
ROW CF : ... .. . ... ... : ... .. . ... ... : ... .. . ... : ... .. . ... : ... .. . ...
ROW D0 : ... .. 1 ... ... : ... .. . ... ... : ... .. . ... : 3-# 00 5 ... : ... .. . ...
ROW D1 : ... .. . ... ... : ... .. . ... ... : ... .. . ... : 2-# 00 4 ... : ... .. . ...
ROW D2 : ... .. . ... ... : ... .. . ... ... : ... .. . ... : 3-# 00 3 ... : ... .. . ...
ROW D3 : ... .. . ... ... : ... .. . ... ... : ... .. . ... : ... .. 2 ... : ... .. . ...
ROW D4 : ... .. . ... ... : ... .. . ... ... : ... .. . ... : ... .. . ... : ... .. . ...
ROW D5 : ... .. . ... ... : ... .. . ... ... : ... .. . ... : ... .. 1 ... : ... .. . ...
ROW D6 : ... .. . ... ... : ... .. . ... ... : ... .. . ... : ... .. 0 ... : ... .. . ...
ROW D7 : ... .. . ... ... : ... .. . ... ... : ... .. . ... : ... .. . ... : ... .. . ...
ROW D8 : F#3 00 3 ... ... : D-3 00 2 ... ... : ... .. . ... : 7-# 00 5 ... : ... .. . ...
ROW D9 : ... .. . ... ... : ... .. . ... ... : ... .. . ... : 6-# 00 4 ... : ... .. . ...
ROW DA : ... .. . ... ... : ... .. . ... ... : ... .. . ... : 7-# 00 3 ... : ... .. . ...
ROW DB : ... .. . ... ... : ... .. . ... ... : ... .. . ... : ... .. 2 ... : ... .. . ...
ROW DC : ... .. . ... ... : ... .. . ... ... : ... .. . ... : ... .. . ... : ... .. . ...
ROW DD : ... .. . ... ... : ... .. . ... ... : ... .. . ... : ... .. 1 ... : ... .. . ...
ROW DE : ... .. . ... ... : ... .. . ... ... : ... .. . ... : ... .. 0 ... : ... .. . ...
ROW DF : ... .. . ... ... : ... .. . ... ... : ... .. . ... : ... .. . ... : ... .. . ...
ROW E0 : ... .. 2 ... ... : ... .. . ... ... : ... .. . ... : 7-# 00 5 ... : C#0 00 . ...
ROW E1 : ... .. . ... ... : ... .. . ... ... : ... .. . ... : 6-# 00 4 ... : ... .. . ...
ROW E2 : ... .. . ... ... : ... .. . ... ... : ... .. . ... : 7-# 00 3 ... : ... .. . ...
ROW E3 : ... .. . ... ... : ... .. . ... ... : ... .. . ... : ... .. 2 ... : ... .. . ...
ROW E4 : ... .. . ... ... : ... .. 1 ... ... : ... .. . ... : ... .. . ... : ... .. . ...
ROW E5 : ... .. . ... ... : ... .. . ... ... : ... .. . ... : ... .. 1 ... : ... .. . ...
ROW E6 : ... .. . ... ... : ... .. . ... ... : ... .. . ... : ... .. 0 ... : ... .. . ...
ROW E7 : ... .. . ... ... : ... .. . ... ... : ... .. . ... : ... .. . ... : ... .. . ...
ROW E8 : ... .. 1 ... ... : ... .. . ... ... : ... .. . ... : 3-# 00 5 ... : ... .. . ...
ROW E9 : ... .. . ... ... : ... .. . ... ... : ... .. . ... : 2-# 00 4 ... : ... .. . ...
ROW EA : ... .. . ... ... : ... .. . ... ... : ... .. . ... : 3-# 00 3 ... : ... .. . ...
ROW EB : ... .. . ... ... : ... .. . ... ... : ... .. . ... : ... .. 2 ... : ... .. . ...
ROW EC : ... .. . ... ... : ... .. . ... ... : ... .. . ... : ... .. . ... : ... .. . ...
ROW ED : ... .. . ... ... : ... .. . ... ... : ... .. . ... : ... .. 1 ... : ... .. . ...
ROW EE : ... .. . ... ... : ... .. . ... ... : ... .. . ... : ... .. 0 ... : ... .. . ...
ROW EF : ... .. . ... ... : ... .. . ... ... : ... .. . ... : ... .. . ... : ... .. . ...
ROW F0 : F#3 00 3 ... ... : D-3 00 2 ... ... : ... .. . ... : 7-# 00 5 ... : C#0 00 . ...
ROW F1 : ... .. . ... ... : ... .. . ... ... : ... .. . ... : 6-# 00 4 ... : ... .. . ...
ROW F2 : ... .. . ... ... : ... .. . ... ... : ... .. . ... : 7-# 00 3 ... : ... .. . ...
ROW F3 : ... .. . ... ... : ... .. . ... ... : ... .. . ... : ... .. 2 ... : ... .. . ...
ROW F4 : ... .. . ... ... : ... .. . ... ... : ... .. . ... : ... .. . ... : ... .. . ...
ROW F5 : ... .. . ... ... : ... .. . ... ... : ... .. . ... : ... .. 1 ... : ... .. . ...
ROW F6 : ... .. 2 ... ... : ... .. . ... ... : ... .. . ... : ... .. 0 ... : ... .. . ...
ROW F7 : ... .. . ... ... : ... .. . ... ... : ... .. . ... : ... .. . ... : ... .. . ...
ROW F8 : ... .. . ... ... : ... .. 1 ... ... : ... .. . ... : 7-# 00 5 ... : C#0 00 . ...
ROW F9 : ... .. . ... ... : ... .. . ... ... : ... .. . ... : 6-# 00 4 ... : ... .. . ...
ROW FA : ... .. . ... ... : ... .. . ... ... : ... .. . ... : 7-# 00 3 ... : ... .. . ...
ROW FB : ... .. . ... ... : ... .. . ... ... : ... .. . ... : ... .. 2 ... : ... .. . ...
ROW FC : ... .. 1 ... ... : ... .. . ... ... : ... .. . ... : ... .. . ... : ... .. . ...
ROW FD : ... .. . ... ... : ... .. . ... ... : ... .. . ... : ... .. 1 ... : ... .. . ...
ROW FE : ... .. . ... ... : ... .. . ... ... : ... .. . ... : ... .. 0 ... : ... .. . ...
ROW FF : ... .. . ... ... : ... .. . ... ... : ... .. . ... : ... .. . ... : ... .. . ...

PATTERN 05
ROW 00 : E-3 00 3 V02 P80 : D-3 00 2 V02 P7F : F#2 00 . ... : 7-# 00 5 ... : C-2 00 . ...
ROW 01 : ... .. . ... ... : ... .. . ... ... : ... .. . ... : 6-# 00 4 ... : ... .. . ...
ROW 02 : ... .. . ... ... : ... .. . ... ... : ... .. . ... : 7-# 00 3 ... : ... .. . ...
ROW 03 : ... .. . ... ... : ... .. . ... ... : ... .. . ... : ... .. 2 ... : ... .. . ...
ROW 04 : ... .. . ... ... : ... .. . ... ... : ... .. . ... : ... .. . ... : ... .. . ...
ROW 05 : ... .. . ... ... : ... .. . ... ... : --- .. . ... : ... .. 1 ... : ... .. . ...
ROW 06 : ... .. . ... ... : ... .. . ... ... : F#2 00 . ... : ... .. 0 ... : ... .. . ...
ROW 07 : ... .. . ... ... : ... .. . ... ... : ... .. . ... : ... .. . ... : ... .. . ...
ROW 08 : ... .. 2 ... ... : ... .. . ... ... : ... .. . ... : 3-# 00 5 ... : ... .. . ...
ROW 09 : ... .. . ... ... : ... .. . ... ... : ... .. . ... : 2-# 00 4 ... : ... .. . ...
ROW 0A : ... .. . ... ... : ... .. . ... ... : ... .. . ... : 3-# 00 3 ... : ... .. . ...
ROW 0B : ... .. . ... ... : ... .. . ... ... : --- .. . ... : ... .. 2 ... : ... .. . ...
ROW 0C : ... .. . ... ... : ... .. 1 ... ... : F#2 00 . ... : ... .. . ... : ... .. . ...
ROW 0D : ... .. . ... ... : ... .. . ... ... : ... .. . ... : ... .. 1 ... : ... .. . ...
ROW 0E : ... .. . ... ... : ... .. . ... ... : ... .. . ... : ... .. 0 ... : ... .. . ...
ROW 0F : ... .. . ... ... : ... .. . ... ... : ... .. . ... : ... .. . ... : ... .. . ...
ROW 10 : ... .. 1 ... ... : ... .. . ... ... : ... .. . ... : 3-# 00 5 ... : ... .. . ...
ROW 11 : ... .. . ... ... : ... .. . ... ... : --- .. . ... : 2-# 00 4 ... : ... .. . ...
ROW 12 : ... .. . ... ... : ... .. . ... ... : F#2 00 . ... : 3-# 00 3 ... : ... .. . ...
ROW 13 : ... .. . ... ... : ... .. . ... ... : ... .. . ... : ... .. 2 ... : ... .. . ...
ROW 14 : ... .. . ... ... : ... .. . ... ... : ... .. . ... : ... .. . ... : ... .. . ...
ROW 15 : ... .. . ... ... : ... .. . ... ... : ... .. . ... : ... .. 1 ... : ... .. . ...
ROW 16 : ... .. . ... ... : ... .. . ... ... : ... .. . ... : ... .. 0 ... : ... .. . ...
ROW 17 : ... .. . ... ... : ... .. . ... ... : ... .. . ... : ... .. . ... : ... .. . ...
ROW 18 : E-3 00 3 ... ... : D-3 00 2 ... ... : --- .. . ... : 7-# 00 5 ... : ... .. . ...
ROW 19 : ... .. . ... ... : ... .. . ... ... : ... .. . ... : 6-# 00 4 ... : ... .. . ...
ROW 1A : ... .. . ... ... : ... .. . ... ... : ... .. . ... : 7-# 00 3 ... : ... .. . ...
ROW 1B : ... .. . ... ... : ... .. . ... ... : ... .. . ... : ... .. 2 ... : ... .. . ...
ROW 1C : ... .. . ... ... : ... .. . ... ... : ... .. . ... : ... .. . ... : ... .. . ...
ROW 1D : ... .. . ... ... : ... .. . ... ... : ... .. . ... : ... .. 1 ... : ... .. . ...
ROW 1E : ... .. . ... ... : ... .. . ... ... : F#2 00 . ... : ... .. 0 ... : ... .. . ...
ROW 1F : ... .. . ... ... : ... .. . ... ... : ... .. . ... : ... .. . ... : ... .. . ...
ROW 20 : ... .. 2 ... ... : ... .. . ... ... : ... .. . ... : 7-# 00 5 ... : C#0 00 . ...
ROW 21 : ... .. . ... ... : ... .. . ... ... : ... .. . ... : 6-# 00 4 ... : ... .. . ...
ROW 22 : ... .. . ... ... : ... .. . ... ... : ... .. . ... : 7-# 00 3 ... : ... .. . ...
ROW 23 : ... .. . ... ... : ... .. . ... ... : --- .. . ... : ... .. 2 ... : ... .. . ...
ROW 24 : ... .. . ... ... : ... .. 1 ... ... : F#2 00 . ... : ... .. . ... : ... .. . ...
ROW 25 : ... .. . ... ... : ... .. . ... ... : ... .. . ... : ... .. 1 ... : ... .. . ...
ROW 26 : ... .. . ... ... : ... .. . ... ... : ... .. . ... : ... .. 0 ... : ... .. . ...
ROW 27 : ... .. . ... ... : ... .. . ... ... : ... .. . ... : ... .. . ... : ... .. . ...
ROW 28 : ... .. 1 ... ... : ... .. . ... ... : ... .. . ... : 3-# 00 5 ... : ... .. . ...
ROW 29 : ... .. . ... ... : ... .. . ... ... : --- .. . ... : 2-# 00 4 ... : ... .. . ...
ROW 2A : ... .. . ... ... : ... .. . ... ... : F#2 00 . ... : 3-# 00 3 ... : ... .. . ...
ROW 2B : ... .. . ... ... : ... .. . ... ... : ... .. . ... : ... .. 2 ... : ... .. . ...
ROW 2C : ... .. . ... ... : ... .. . ... ... : ... .. . ... : ... .. . ... : ... .. . ...
ROW 2D : ... .. . ... ... : ... .. . ... ... : ... .. . ... : ... .. 1 ... : ... .. . ...
ROW 2E : ... .. . ... ... : ... .. . ... ... : ... .. . ... : ... .. 0 ... : ... .. . ...
ROW 2F : ... .. . ... ... : ... .. . ... ... : --- .. . ... : ... .. . ... : ... .. . ...
ROW 30 : E-3 00 3 ... ... : D-3 00 2 ... ... : F#2 00 . ... : 7-# 00 5 ... : ... .. . ...
ROW 31 : ... .. . ... ... : ... .. . ... ... : ... .. . ... : 6-# 00 4 ... : ... .. . ...
ROW 32 : ... .. . ... ... : ... .. . ... ... : ... .. . ... : 7-# 00 3 ... : ... .. . ...
ROW 33 : ... .. . ... ... : ... .. . ... ... : ... .. . ... : ... .. 2 ... : ... .. . ...
ROW 34 : ... .. . ... ... : ... .. . ... ... : ... .. . ... : ... .. . ... : ... .. . ...
ROW 35 : ... .. . ... ... : ... .. . ... ... : --- .. . ... : ... .. 1 ... : ... .. . ...
ROW 36 : ... .. 2 ... ... : ... .. . ... ... : F#2 00 . ... : ... .. 0 ... : ... .. . ...
ROW 37 : ... .. . ... ... : ... .. . ... ... : ... .. . ... : ... .. . ... : ... .. . ...
ROW 38 : ... .. . ... ... : ... .. 1 ... ... : ... .. . ... : 3-# 00 5 ... : ... .. . ...
ROW 39 : ... .. . ... ... : ... .. . ... ... : ... .. . ... : 2-# 00 4 ... : ... .. . ...
ROW 3A : ... .. . ... ... : ... .. . ... ... : ... .. . ... : 3-# 00 3 ... : ... .. . ...
ROW 3B : ... .. . ... ... : ... .. . ... ... : --- .. . ... : ... .. 2 ... : ... .. . ...
ROW 3C : ... .. 1 ... ... : ... .. . ... ... : F#2 00 . ... : ... .. . ... : ... .. . ...
ROW 3D : ... .. . ... ... : ... .. . ... ... : ... .. . ... : ... .. 1 ... : ... .. . ...
ROW 3E : ... .. . ... ... : ... .. . ... ... : ... .. . ... : ... .. 0 ... : ... .. . ...
ROW 3F : ... .. . ... ... : ... .. . ... ... : ... .. . ... : ... .. . ... : ... .. . ...
ROW 40 : E-3 00 3 ... ... : D-3 00 2 ... ... : ... .. . ... : 7-# 00 5 ... : C-2 00 . ...
ROW 41 : ... .. . ... ... : ... .. . ... ... : --- .. . ... : 6-# 00 4 ... : ... .. . ...
ROW 42 : ... .. . ... ... : ... .. . ... ... : F#2 00 . ... : 7-# 00 3 ... : ... .. . ...
ROW 43 : ... .. . ... ... : ... .. . ... ... : ... .. . ... : ... .. 2 ... : ... .. . ...
ROW 44 : ... .. . ... ... : ... .. . ... ... : ... .. . ... : ... .. . ... : ... .. . ...
ROW 45 : ... .. . ... ... : ... .. . ... ... : ... .. . ... : ... .. 1 ... : ... .. . ...
ROW 46 : ... .. . ... ... : ... .. . ... ... : ... .. . ... : ... .. 0 ... : ... .. . ...
ROW 47 : ... .. . ... ... : ... .. . ... ... : ... .. . ... : ... .. . ... : ... .. . ...
ROW 48 : ... .. 2 ... ... : ... .. . ... ... : --- .. . ... : 3-# 00 5 ... : ... .. . ...
ROW 49 : ... .. . ... ... : ... .. . ... ... : ... .. . ... : 2-# 00 4 ... : ... .. . ...
ROW 4A : ... .. . ... ... : ... .. . ... ... : ... .. . ... : 3-# 00 3 ... : ... .. . ...
ROW 4B : ... .. . ... ... : ... .. . ... ... : ... .. . ... : ... .. 2 ... : ... .. . ...
ROW 4C : ... .. . ... ... : ... .. 1 ... ... : ... .. . ... : ... .. . ... : ... .. . ...
ROW 4D : ... .. . ... ... : ... .. . ... ... : ... .. . ... : ... .. 1 ... : ... .. . ...
ROW 4E : ... .. . ... ... : ... .. . ... ... : F#2 00 . ... : ... .. 0 ... : ... .. . ...
ROW 4F : ... .. . ... ... : ... .. . ... ... : ... .. . ... : ... .. . ... : ... .. . ...
ROW 50 : ... .. 1 ... ... : ... .. . ... ... : ... .. . ... : 3-# 00 5 ... : ... .. . ...
ROW 51 : ... .. . ... ... : ... .. . ... ... : ... .. . ... : 2-# 00 4 ... : ... .. . ...
ROW 52 : ... .. . ... ... : ... .. . ... ... : ... .. . ... : 3-# 00 3 ... : ... .. . ...
ROW 53 : ... .. . ... ... : ... .. . ... ... : --- .. . ... : ... .. 2 ... : ... .. . ...
ROW 54 : ... .. . ... ... : ... .. . ... ... : F#2 00 . ... : ... .. . ... : ... .. . ...
ROW 55 : ... .. . ... ... : ... .. . ... ... : ... .. . ... : ... .. 1 ... : ... .. . ...
ROW 56 : ... .. . ... ... : ... .. . ... ... : ... .. . ... : ... .. 0 ... : ... .. . ...
ROW 57 : ... .. . ... ... : ... .. . ... ... : ... .. . ... : ... .. . ... : ... .. . ...
ROW 58 : E-3 00 3 ... ... : D-3 00 2 ... ... : ... .. . ... : 7-# 00 5 ... : ... .. . ...
ROW 59 : ... .. . ... ... : ... .. . ... ... : --- .. . ... : 6-# 00 4 ... : ... .. . ...
ROW 5A : ... .. . ... ... : ... .. . ... ... : F#2 00 . ... : 7-# 00 3 ... : ... .. . ...
ROW 5B : ... .. . ... ... : ... .. . ... ... : ... .. . ... : ... .. 2 ... : ... .. . ...
ROW 5C : ... .. . ... ... : ... .. . ... ... : ... .. . ... : ... .. . ... : ... .. . ...
ROW 5D : ... .. . ... ... : ... .. . ... ... : ... .. . ... : ... .. 1 ... : ... .. . ...
ROW 5E : ... .. . ... ... : ... .. . ... ... : ... .. . ... : ... .. 0 ... : ... .. . ...
ROW 5F : ... .. . ... ... : ... .. . ... ... : --- .. . ... : ... .. . ... : ... .. . ...
ROW 60 : ... .. 2 ... ... : ... .. . ... ... : D-2 00 . ... : 7-# 00 5 ... : C#0 00 . ...
ROW 61 : ... .. . ... ... : ... .. . ... ... : ... .. . ... : 6-# 00 4 ... : ... .. . ...
ROW 62 : ... .. . ... ... : ... .. . ... ... : ... .. . ... : 7-# 00 3 ... : ... .. . ...
ROW 63 : ... .. . ... ... : ... .. . ... ... : ... .. . ... : ... .. 2 ... : ... .. . ...
ROW 64 : ... .. . ... ... : ... .. 1 ... ... : ... .. . ... : ... .. . ... : ... .. . ...
ROW 65 : ... .. . ... ... : ... .. . ... ... : --- .. . ... : ... .. 1 ... : ... .. . ...
ROW 66 : ... .. . ... ... : ... .. . ... ... : D-2 00 . ... : ... .. 0 ... : ... .. . ...
ROW 67 : ... .. . ... ... : ... .. . ... ... : ... .. . ... : ... .. . ... : ... .. . ...
ROW 68 : ... .. 1 ... ... : ... .. . ... ... : ... .. . ... : 3-# 00 5 ... : ... .. . ...
ROW 69 : ... .. . ... ... : ... .. . ... ... : ... .. . ... : 2-# 00 4 ... : ... .. . ...
ROW 6A : ... .. . ... ... : ... .. . ... ... : ... .. . ... : 3-# 00 3 ... : ... .. . ...
ROW 6B : ... .. . ... ... : ... .. . ... ... : --- .. . ... : ... .. 2 ... : ... .. . ...
ROW 6C : ... .. . ... ... : ... .. . ... ... : D-2 00 . ... : ... .. . ... : ... .. . ...
ROW 6D : ... .. . ... ... : ... .. . ... ... : ... .. . ... : ... .. 1 ... : ... .. . ...
ROW 6E : ... .. . ... ... : ... .. . ... ... : ... .. . ... : ... .. 0 ... : ... .. . ...
ROW 6F : ... .. . ... ... : ... .. . ... ... : ... .. . ... : ... .. . ... : ... .. . ...
ROW 70 : E-3 00 3 ... ... : D-3 00 2 ... ... : ... .. . ... : 7-# 00 5 ... : ... .. . ...
ROW 71 : ... .. . ... ... : ... .. . ... ... : --- .. . ... : 6-# 00 4 ... : ... .. . ...
ROW 72 : ... .. . ... ... : ... .. . ... ... : D-2 00 . ... : 7-# 00 3 ... : ... .. . ...
ROW 73 : ... .. . ... ... : ... .. . ... ... : ... .. . ... : ... .. 2 ... : ... .. . ...
ROW 74 : ... .. . ... ... : ... .. . ... ... : ... .. . ... : ... .. . ... : ... .. . ...
ROW 75 : ... .. . ... ... : ... .. . ... ... : ... .. . ... : ... .. 1 ... : ... .. . ...
ROW 76 : ... .. 2 ... ... : ... .. . ... ... : ... .. . ... : ... .. 0 ... : ... .. . ...
ROW 77 : ... .. . ... ... : ... .. . ... ... : ... .. . ... : ... .. . ... : ... .. . ...
ROW 78 : ... .. . ... ... : ... .. 1 ... ... : --- .. . ... : 3-# 00 5 ... : ... .. . ...
ROW 79 : ... .. . ... ... : ... .. . ... ... : ... .. . ... : 2-# 00 4 ... : ... .. . ...
ROW 7A : ... .. . ... ... : ... .. . ... ... : ... .. . ... : 3-# 00 3 ... : ... .. . ...
ROW 7B : ... .. . ... ... : ... .. . ... ... : ... .. . ... : ... .. 2 ... : ... .. . ...
ROW 7C : ... .. 1 ... ... : ... .. . ... ... : ... .. . ... : ... .. . ... : ... .. . ...
ROW 7D : ... .. . ... ... : ... .. . ... ... : ... .. . ... : ... .. 1 ... : ... .. . ...
ROW 7E : ... .. . ... ... : ... .. . ... ... : D-2 00 . ... : ... .. 0 ... : ... .. . ...
ROW 7F : ... .. . ... ... : ... .. . ... ... : ... .. . ... : ... .. . ... : ... .. . ...
ROW 80 : F-3 00 3 ... ... : B-2 00 2 ... ... : ... .. . ... : 7-# 00 5 ... : C-2 00 . ...
ROW 81 : ... .. . ... ... : ... .. . ... ... : ... .. . ... : 6-# 00 4 ... : ... .. . ...
ROW 82 : ... .. . ... ... : ... .. . ... ... : ... .. . ... : 7-# 00 3 ... : ... .. . ...
ROW 83 : ... .. . ... ... : ... .. . ... ... : --- .. . ... : ... .. 2 ... : ... .. . ...
ROW 84 : ... .. . ... ... : ... .. . ... ... : D-2 00 . ... : ... .. . ... : ... .. . ...
ROW 85 : ... .. . ... ... : ... .. . ... ... : ... .. . ... : ... .. 1 ... : ... .. . ...
ROW 86 : ... .. . ... ... : ... .. . ... ... : ... .. . ... : ... .. 0 ... : ... .. . ...
ROW 87 : ... .. . ... ... : ... .. . ... ... : ... .. . ... : ... .. . ... : ... .. . ...
ROW 88 : ... .. 2 ... ... : ... .. . ... ... : ... .. . ... : 3-# 00 5 ... : ... .. . ...
ROW 89 : ... .. . ... ... : ... .. . ... ... : --- .. . ... : 2-# 00 4 ... : ... .. . ...
ROW 8A : ... .. . ... ... : ... .. . ... ... : D-2 00 . ... : 3-# 00 3 ... : ... .. . ...
ROW 8B : ... .. . ... ... : ... .. . ... ... : ... .. . ... : ... .. 2 ... : ... .. . ...
ROW 8C : ... .. . ... ... : ... .. 1 ... ... : ... .. . ... : ... .. . ... : ... .. . ...
ROW 8D : ... .. . ... ... : ... .. . ... ... : ... .. . ... : ... .. 1 ... : ... .. . ...
ROW 8E : ... .. . ... ... : ... .. . ... ... : ... .. . ... : ... .. 0 ... : ... .. . ...
ROW 8F : ... .. . ... ... : ... .. . ... ... : --- .. . ... : ... .. . ... : ... .. . ...
ROW 90 : ... .. 1 ... ... : ... .. . ... ... : D-2 00 . ... : 3-# 00 5 ... : ... .. . ...
ROW 91 : ... .. . ... ... : ... .. . ... ... : ... .. . ... : 2-# 00 4 ... : ... .. . ...
ROW 92 : ... .. . ... ... : ... .. . ... ... : ... .. . ... : 3-# 00 3 ... : ... .. . ...
ROW 93 : ... .. . ... ... : ... .. . ... ... : ... .. . ... : ... .. 2 ... : ... .. . ...
ROW 94 : ... .. . ... ... : ... .. . ... ... : ... .. . ... : ... .. . ... : ... .. . ...
ROW 95 : ... .. . ... ... : ... .. . ... ... : --- .. . ... : ... .. 1 ... : ... .. . ...
ROW 96 : ... .. . ... ... : ... .. . ... ... : D-2 00 . ... : ... .. 0 ... : ... .. . ...
ROW 97 : ... .. . ... ... : ... .. . ... ... : ... .. . ... : ... .. . ... : ... .. . ...
ROW 98 : F-3 00 3 ... ... : B-2 00 2 ... ... : ... .. . ... : 7-# 00 5 ... : ... .. . ...
ROW 99 : ... .. . ... ... : ... .. . ... ... : ... .. . ... : 6-# 00 4 ... : ... .. . ...
ROW 9A : ... .. . ... ... : ... .. . ... ... : ... .. . ... : 7-# 00 3 ... : ... .. . ...
ROW 9B : ... .. . ... ... : ... .. . ... ... : --- .. . ... : ... .. 2 ... : ... .. . ...
ROW 9C : ... .. . ... ... : ... .. . ... ... : D-2 00 . ... : ... .. . ... : ... .. . ...
ROW 9D : ... .. . ... ... : ... .. . ... ... : ... .. . ... : ... .. 1 ... : ... .. . ...
ROW 9E : ... .. . ... ... : ... .. . ... ... : ... .. . ... : ... .. 0 ... : ... .. . ...
ROW 9F : ... .. . ... ... : ... .. . ... ... : ... .. . ... : ... .. . ... : ... .. . ...
ROW A0 : ... .. 2 ... ... : ... .. . ... ... : ... .. . ... : 7-# 00 5 ... : C#0 00 . ...
ROW A1 : ... .. . ... ... : ... .. . ... ... : --- .. . ... : 6-# 00 4 ... : ... .. . ...
ROW A2 : ... .. . ... ... : ... .. . ... ... : D-2 00 . ... : 7-# 00 3 ... : ... .. . ...
ROW A3 : ... .. . ... ... : ... .. . ... ... : ... .. . ... : ... .. 2 ... : ... .. . ...
ROW A4 : ... .. . ... ... : ... .. 1 ... ... : ... .. . ... : ... .. . ... : ... .. . ...
ROW A5 : ... .. . ... ... : ... .. . ... ... : ... .. . ... : ... .. 1 ... : ... .. . ...
ROW A6 : ... .. . ... ... : ... .. . ... ... : ... .. . ... : ... .. 0 ... : ... .. . ...
ROW A7 : ... .. . ... ... : ... .. . ... ... : ... .. . ... : ... .. . ... : ... .. . ...
ROW A8 : ... .. 1 ... ... : ... .. . ... ... : --- .. . ... : 3-# 00 5 ... : ... .. . ...
ROW A9 : ... .. . ... ... : ... .. . ... ... : ... .. . ... : 2-# 00 4 ... : ... .. . ...
ROW AA : ... .. . ... ... : ... .. . ... ... : ... .. . ... : 3-# 00 3 ... : ... .. . ...
ROW AB : ... .. . ... ... : ... .. . ... ... : ... .. . ... : ... .. 2 ... : ... .. . ...
ROW AC : ... .. . ... ... : ... .. . ... ... : ... .. . ... : ... .. . ... : ... .. . ...
ROW AD : ... .. . ... ... : ... .. . ... ... : ... .. . ... : ... .. 1 ... : ... .. . ...
ROW AE : ... .. . ... ... : ... .. . ... ... : D-2 00 . ... : ... .. 0 ... : ... .. . ...
ROW AF : ... .. . ... ... : ... .. . ... ... : ... .. . ... : ... .. . ... : ... .. . ...
ROW B0 : F-3 00 3 ... ... : B-2 00 2 ... ... : ... .. . ... : 7-# 00 5 ... : ... .. . ...
ROW B1 : ... .. . ... ... : ... .. . ... ... : ... .. . ... : 6-# 00 4 ... : ... .. . ...
ROW B2 : ... .. . ... ... : ... .. . ... ... : ... .. . ... : 7-# 00 3 ... : ... .. . ...
ROW B3 : ... .. . ... ... : ... .. . ... ... : --- .. . ... : ... .. 2 ... : ... .. . ...
ROW B4 : ... .. . ... ... : ... .. . ... ... : D-2 00 . ... : ... .. . ... : ... .. . ...
ROW B5 : ... .. . ... ... : ... .. . ... ... : ... .. . ... : ... .. 1 ... : ... .. . ...
ROW B6 : ... .. 2 ... ... : ... .. . ... ... : ... .. . ... : ... .. 0 ... : ... .. . ...
ROW B7 : ... .. . ... ... : ... .. . ... ... : ... .. . ... : ... .. . ... : ... .. . ...
ROW B8 : ... .. . ... ... : ... .. 1 ... ... : ... .. . ... : 3-# 00 5 ... : ... .. . ...
ROW B9 : ... .. . ... ... : ... .. . ... ... : --- .. . ... : 2-# 00 4 ... : ... .. . ...
ROW BA : ... .. . ... ... : ... .. . ... ... : D-2 00 . ... : 3-# 00 3 ... : ... .. . ...
ROW BB : ... .. . ... ... : ... .. . ... ... : ... .. . ... : ... .. 2 ... : ... .. . ...
ROW BC : ... .. 1 ... ... : ... .. . ... ... : ... .. . ... : ... .. . ... : ... .. . ...
ROW BD : ... .. . ... ... : ... .. . ... ... : ... .. . ... : ... .. 1 ... : ... .. . ...
ROW BE : ... .. . ... ... : ... .. . ... ... : ... .. . ... : ... .. 0 ... : ... .. . ...
ROW BF : ... .. . ... ... : ... .. . ... ... : --- .. . ... : ... .. . ... : ... .. . ...
ROW C0 : F-3 00 3 ... ... : B-2 00 2 ... ... : ... .. . ... : 7-# 00 5 ... : C-2 00 . ...
ROW C1 : ... .. . ... ... : ... .. . ... ... : ... .. . ... : 6-# 00 4 ... : ... .. . ...
ROW C2 : ... .. . ... ... : ... .. . ... ... : ... .. . ... : 7-# 00 3 ... : ... .. . ...
ROW C3 : ... .. . ... ... : ... .. . ... ... : ... .. . ... : ... .. 2 ... : ... .. . ...
ROW C4 : ... .. . ... ... : ... .. . ... ... : ... .. . ... : ... .. . ... : ... .. . ...
ROW C5 : ... .. . ... ... : ... .. . ... ... : ... .. . ... : ... .. 1 ... : ... .. . ...
ROW C6 : ... .. . ... ... : ... .. . ... ... : ... .. . ... : ... .. 0 ... : ... .. . ...
ROW C7 : ... .. . ... ... : ... .. . ... ... : ... .. . ... : ... .. . ... : ... .. . ...
ROW C8 : ... .. 2 ... ... : ... .. . ... ... : ... .. . ... : 3-# 00 5 ... : ... .. . ...
ROW C9 : ... .. . ... ... : ... .. . ... ... : ... .. . ... : 2-# 00 4 ... : ... .. . ...
ROW CA : ... .. . ... ... : ... .. . ... ... : ... .. . ... : 3-# 00 3 ... : ... .. . ...
ROW CB : ... .. . ... ... : ... .. . ... ... : ... .. . ... : ... .. 2 ... : ... .. . ...
ROW CC : ... .. . ... ... : ... .. 1 ... ... : ... .. . ... : ... .. . ... : ... .. . ...
ROW CD : ... .. . ... ... : ... .. . ... ... : ... .. . ... : ... .. 1 ... : ... .. . ...
ROW CE : ... .. . ... ... : ... .. . ... ... : ... .. . ... : ... .. 0 ... : ... .. . ...
ROW CF : ... .. . ... ... : ... .. . ... ... : ... .. . ... : ... .. . ... : ... .. . ...
ROW D0 : ... .. 1 ... ... : ... .. . ... ... : ... .. . ... : 3-# 00 5 ... : ... .. . ...
ROW D1 : ... .. . ... ... : ... .. . ... ... : ... .. . ... : 2-# 00 4 ... : ... .. . ...
ROW D2 : ... .. . ... ... : ... .. . ... ... : ... .. . ... : 3-# 00 3 ... : ... .. . ...
ROW D3 : ... .. . ... ... : ... .. . ... ... : ... .. . ... : ... .. 2 ... : ... .. . ...
ROW D4 : ... .. . ... ... : ... .. . ... ... : ... .. . ... : ... .. . ... : ... .. . ...
ROW D5 : ... .. . ... ... : ... .. . ... ... : ... .. . ... : ... .. 1 ... : ... .. . ...
ROW D6 : ... .. . ... ... : ... .. . ... ... : ... .. . ... : ... .. 0 ... : ... .. . ...
ROW D7 : ... .. . ... ... : ... .. . ... ... : ... .. . ... : ... .. . ... : ... .. . ...
ROW D8 : F-3 00 3 ... ... : B-2 00 2 ... ... : ... .. . ... : 7-# 00 5 ... : ... .. . ...
ROW D9 : ... .. . ... ... : ... .. . ... ... : ... .. . ... : 6-# 00 4 ... : ... .. . ...
ROW DA : ... .. . ... ... : ... .. . ... ... : ... .. . ... : 7-# 00 3 ... : ... .. . ...
ROW DB : ... .. . ... ... : ... .. . ... ... : ... .. . ... : ... .. 2 ... : ... .. . ...
ROW DC : ... .. . ... ... : ... .. . ... ... : ... .. . ... : ... .. . ... : ... .. . ...
ROW DD : ... .. . ... ... : ... .. . ... ... : ... .. . ... : ... .. 1 ... : ... .. . ...
ROW DE : ... .. . ... ... : ... .. . ... ... : ... .. . ... : ... .. 0 ... : ... .. . ...
ROW DF : ... .. . ... ... : ... .. . ... ... : ... .. . ... : ... .. . ... : ... .. . ...
ROW E0 : ... .. 2 ... ... : ... .. . ... ... : ... .. . ... : 7-# 00 5 ... : C#0 00 . ...
ROW E1 : ... .. . ... ... : ... .. . ... ... : ... .. . ... : 6-# 00 4 ... : ... .. . ...
ROW E2 : ... .. . ... ... : ... .. . ... ... : ... .. . ... : 7-# 00 3 ... : ... .. . ...
ROW E3 : ... .. . ... ... : ... .. . ... ... : ... .. . ... : ... .. 2 ... : ... .. . ...
ROW E4 : ... .. . ... ... : ... .. 1 ... ... : ... .. . ... : ... .. . ... : ... .. . ...
ROW E5 : ... .. . ... ... : ... .. . ... ... : ... .. . ... : ... .. 1 ... : ... .. . ...
ROW E6 : ... .. . ... ... : ... .. . ... ... : ... .. . ... : ... .. 0 ... : ... .. . ...
ROW E7 : ... .. . ... ... : ... .. . ... ... : ... .. . ... : ... .. . ... : ... .. . ...
ROW E8 : ... .. 1 ... ... : ... .. . ... ... : ... .. . ... : 7-# 00 5 ... : C#0 00 . ...
ROW E9 : ... .. . ... ... : ... .. . ... ... : ... .. . ... : 6-# 00 4 ... : ... .. . ...
ROW EA : ... .. . ... ... : ... .. . ... ... : ... .. . ... : 7-# 00 3 ... : ... .. . ...
ROW EB : ... .. . ... ... : ... .. . ... ... : ... .. . ... : ... .. 2 ... : ... .. . ...
ROW EC : ... .. . ... ... : ... .. . ... ... : ... .. . ... : 7-# 00 5 ... : C#0 00 . ...
ROW ED : ... .. . ... ... : ... .. . ... ... : ... .. . ... : 6-# 00 4 ... : ... .. . ...
ROW EE : ... .. . ... ... : ... .. . ... ... : ... .. . ... : 7-# 00 3 ... : ... .. . ...
ROW EF : ... .. . ... ... : ... .. . ... ... : ... .. . ... : ... .. 2 ... : ... .. . ...
ROW F0 : F-3 00 3 ... ... : B-2 00 2 ... ... : ... .. . ... : 7-# 00 5 ... : C#0 00 . ...
ROW F1 : ... .. . ... ... : ... .. . ... ... : ... .. . ... : 6-# 00 4 ... : ... .. . ...
ROW F2 : ... .. . ... ... : ... .. . ... ... : ... .. . ... : 7-# 00 3 ... : ... .. . ...
ROW F3 : ... .. . ... ... : ... .. . ... ... : ... .. . ... : ... .. 2 ... : ... .. . ...
ROW F4 : ... .. . ... ... : ... .. . ... ... : ... .. . ... : ... .. . ... : ... .. . ...
ROW F5 : ... .. . ... ... : ... .. . ... ... : ... .. . ... : ... .. 1 ... : ... .. . ...
ROW F6 : ... .. 2 ... ... : ... .. . ... ... : ... .. . ... : ... .. 0 ... : ... .. . ...
ROW F7 : ... .. . ... ... : ... .. . ... ... : ... .. . ... : ... .. . ... : ... .. . ...
ROW F8 : ... .. . ... ... : ... .. 1 ... ... : ... .. . ... : 7-# 00 5 ... : C#0 00 . ...
ROW F9 : ... .. . ... ... : ... .. . ... ... : ... .. . ... : 6-# 00 4 ... : ... .. . ...
ROW FA : ... .. . ... ... : ... .. . ... ... : ... .. . ... : 7-# 00 3 ... : ... .. . ...
ROW FB : ... .. . ... ... : ... .. . ... ... : ... .. . ... : ... .. 2 ... : ... .. . ...
ROW FC : ... .. 1 ... ... : ... .. . ... ... : ... .. . ... : ... .. . ... : ... .. . ...
ROW FD : ... .. . ... ... : ... .. . ... ... : ... .. . ... : ... .. 1 ... : ... .. . ...
ROW FE : ... .. . ... ... : ... .. . ... ... : ... .. . ... : ... .. 0 ... : ... .. . ...
ROW FF : ... .. . ... ... : ... .. . ... ... : ... .. . ... : ... .. . ... : ... .. . ...

PATTERN 06
ROW 00 : E-3 00 8 V00 P80 : D-3 00 8 V00 P7F : E-2 00 . ... : F-# 00 7 ... : ... .. . ...
ROW 01 : ... .. 5 V01 ... : ... .. 5 V01 ... : ... .. . ... : ... .. 5 ... : ... .. . ...
ROW 02 : ... .. . ... ... : G#2 00 . ... ... : ... .. . ... : ... .. . ... : ... .. . ...
ROW 03 : ... .. . ... ... : ... .. . ... ... : ... .. . ... : ... .. . ... : ... .. . ...
ROW 04 : ... .. 3 ... ... : D-3 00 3 ... ... : ... .. . ... : ... .. . ... : ... .. . ...
ROW 05 : ... .. . ... ... : ... .. . ... ... : --- .. . ... : ... .. 4 ... : ... .. . ...
ROW 06 : ... .. . ... ... : G#2 00 . ... ... : E-2 00 . ... : ... .. . ... : ... .. . ...
ROW 07 : ... .. 2 ... ... : ... .. 2 ... ... : ... .. . ... : ... .. . ... : ... .. . ...
ROW 08 : E-3 00 8 V00 ... : D-3 00 8 V00 ... : ... .. . ... : ... .. 3 ... : ... .. . ...
ROW 09 : ... .. 5 V01 ... : ... .. 5 V01 ... : ... .. . ... : ... .. . ... : ... .. . ...
ROW 0A : ... .. . ... ... : G#2 00 . ... ... : ... .. . ... : ... .. . ... : ... .. . ...
ROW 0B : ... .. . ... ... : ... .. . ... ... : --- .. . ... : ... .. 2 ... : ... .. . ...
ROW 0C : ... .. 3 ... ... : D-3 00 3 ... ... : E-2 00 . ... : ... .. . ... : ... .. . ...
ROW 0D : ... .. . ... ... : ... .. . ... ... : ... .. . ... : ... .. . ... : ... .. . ...
ROW 0E : ... .. . ... ... : G#2 00 . ... ... : ... .. . ... : ... .. 1 ... : ... .. . ...
ROW 0F : ... .. 2 ... ... : ... .. 2 ... ... : ... .. . ... : ... .. . ... : ... .. . ...
ROW 10 : E-3 00 8 V00 ... : D-3 00 8 V00 ... : ... .. . ... : F-# 00 7 ... : ... .. . ...
ROW 11 : ... .. 5 V01 ... : ... .. 5 V01 ... : --- .. . ... : ... .. 5 ... : ... .. . ...
ROW 12 : ... .. . ... ... : G#2 00 . ... ... : E-2 00 . ... : ... .. . ... : ... .. . ...
ROW 13 : ... .. . ... ... : ... .. . ... ... : ... .. . ... : ... .. 4 ... : ... .. . ...
ROW 14 : ... .. 3 ... ... : D-3 00 3 ... ... : ... .. . ... : ... .. . ... : ... .. . ...
ROW 15 : ... .. . ... ... : ... .. . ... ... : ... .. . ... : ... .. 3 ... : ... .. . ...
ROW 16 : ... .. . ... ... : G#2 00 . ... ... : ... .. . ... : ... .. 2 ... : ... .. . ...
ROW 17 : ... .. 2 ... ... : ... .. 2 ... ... : ... .. . ... : ... .. 1 ... : ... .. . ...
ROW 18 : E-3 00 8 V00 ... : D-3 00 8 V00 ... : --- .. . ... : F-# 00 7 ... : ... .. . ...
ROW 19 : ... .. 5 V01 ... : ... .. 5 V01 ... : ... .. . ... : ... .. 5 ... : ... .. . ...
ROW 1A : ... .. . ... ... : G#2 00 . ... ... : ... .. . ... : ... .. . ... : ... .. . ...
ROW 1B : ... .. . ... ... : ... .. . ... ... : ... .. . ... : ... .. . ... : ... .. . ...
ROW 1C : ... .. 3 ... ... : D-3 00 3 ... ... : ... .. . ... : ... .. . ... : ... .. . ...
ROW 1D : ... .. . ... ... : ... .. . ... ... : ... .. . ... : ... .. 4 ... : ... .. . ...
ROW 1E : ... .. . ... ... : G#2 00 . ... ... : E-2 00 . ... : ... .. . ... : ... .. . ...
ROW 1F : ... .. 2 ... ... : ... .. 2 ... ... : ... .. . ... : ... .. . ... : ... .. . ...
ROW 20 : ... .. . ... ... : D-3 00 . ... ... : ... .. . ... : ... .. 3 ... : ... .. . ...
ROW 21 : ... .. . ... ... : ... .. . ... ... : ... .. . ... : ... .. . ... : ... .. . ...
ROW 22 : ... .. . ... ... : G#2 00 . ... ... : ... .. . ... : ... .. . ... : ... .. . ...
ROW 23 : ... .. . ... ... : ... .. . ... ... : --- .. . ... : ... .. 2 ... : ... .. . ...
ROW 24 : ... .. 1 ... ... : D-3 00 1 ... ... : E-2 00 . ... : ... .. . ... : ... .. . ...
ROW 25 : ... .. . ... ... : ... .. . ... ... : ... .. . ... : ... .. . ... : ... .. . ...
ROW 26 : ... .. . ... ... : G#2 00 . ... ... : ... .. . ... : ... .. 1 ... : ... .. . ...
ROW 27 : ... .. . ... ... : ... .. . ... ... : ... .. . ... : ... .. . ... : ... .. . ...
ROW 28 : E-3 00 8 V00 ... : D-3 00 8 V00 ... : ... .. . ... : ... .. . ... : ... .. . ...
ROW 29 : ... .. 5 V01 ... : ... .. 5 V01 ... : --- .. . ... : ... .. 0 ... : ... .. . ...
ROW 2A : ... .. . ... ... : G#2 00 . ... ... : E-2 00 . ... : ... .. . ... : ... .. . ...
ROW 2B : ... .. . ... ... : ... .. . ... ... : ... .. . ... : ... .. . ... : ... .. . ...
ROW 2C : ... .. 3 ... ... : D-3 00 3 ... ... : ... .. . ... : ... .. . ... : ... .. . ...
ROW 2D : ... .. . ... ... : ... .. . ... ... : ... .. . ... : ... .. . ... : ... .. . ...
ROW 2E : ... .. . ... ... : G#2 00 . ... ... : ... .. . ... : ... .. . ... : ... .. . ...
ROW 2F : ... .. 2 ... ... : ... .. 2 ... ... : --- .. . ... : ... .. . ... : ... .. . ...
ROW 30 : ... .. . ... ... : D-3 00 . ... ... : E-2 00 . ... : F-# 00 7 ... : ... .. . ...
ROW 31 : ... .. . ... ... : ... .. . ... ... : ... .. . ... : ... .. 5 ... : ... .. . ...
ROW 32 : ... .. . ... ... : G#2 00 . ... ... : ... .. . ... : ... .. . ... : ... .. . ...
ROW 33 : ... .. . ... ... : ... .. . ... ... : ... .. . ... : ... .. . ... : ... .. . ...
ROW 34 : ... .. 1 ... ... : D-3 00 1 ... ... : ... .. . ... : ... .. . ... : ... .. . ...
ROW 35 : ... .. . ... ... : ... .. . ... ... : --- .. . ... : ... .. 4 ... : ... .. . ...
ROW 36 : ... .. . ... ... : G#2 00 . ... ... : E-2 00 . ... : ... .. . ... : ... .. . ...
ROW 37 : ... .. . ... ... : ... .. . ... ... : ... .. . ... : ... .. . ... : ... .. . ...
ROW 38 : E-3 00 8 V00 ... : D-3 00 8 V00 ... : ... .. . ... : ... .. 3 ... : ... .. . ...
ROW 39 : ... .. 5 V01 ... : ... .. 5 V01 ... : ... .. . ... : ... .. . ... : ... .. . ...
ROW 3A : ... .. . ... ... : G#2 00 . ... ... : ... .. . ... : ... .. . ... : ... .. . ...
ROW 3B : ... .. . ... ... : ... .. . ... ... : --- .. . ... : ... .. 2 ... : ... .. . ...
ROW 3C : ... .. 3 ... ... : D-3 00 3 ... ... : E-2 00 . ... : ... .. . ... : ... .. . ...
ROW 3D : ... .. . ... ... : ... .. . ... ... : ... .. . ... : ... .. . ... : ... .. . ...
ROW 3E : ... .. . ... ... : G#2 00 . ... ... : ... .. . ... : ... .. 1 ... : ... .. . ...
ROW 3F : ... .. 2 ... ... : ... .. 2 ... ... : ... .. . ... : ... .. . ... : ... .. . ...
ROW 40 : E-3 00 8 V00 ... : D-3 00 8 V00 ... : ... .. . ... : F-# 00 7 ... : ... .. . ...
ROW 41 : ... .. 5 V01 ... : ... .. 5 V01 ... : --- .. . ... : ... .. 5 ... : ... .. . ...
ROW 42 : ... .. . ... ... : G#2 00 . ... ... : E-2 00 . ... : ... .. . ... : ... .. . ...
ROW 43 : ... .. . ... ... : ... .. . ... ... : ... .. . ... : ... .. . ... : ... .. . ...
ROW 44 : ... .. 3 ... ... : D-3 00 3 ... ... : ... .. . ... : ... .. . ... : ... .. . ...
ROW 45 : ... .. . ... ... : ... .. . ... ... : ... .. . ... : ... .. 4 ... : ... .. . ...
ROW 46 : ... .. . ... ... : G#2 00 . ... ... : ... .. . ... : ... .. . ... : ... .. . ...
ROW 47 : ... .. 2 ... ... : ... .. 2 ... ... : ... .. . ... : ... .. . ... : ... .. . ...
ROW 48 : E-3 00 8 V00 ... : D-3 00 8 V00 ... : --- .. . ... : ... .. 3 ... : ... .. . ...
ROW 49 : ... .. 5 V01 ... : ... .. 5 V01 ... : ... .. . ... : ... .. . ... : ... .. . ...
ROW 4A : ... .. . ... ... : G#2 00 . ... ... : ... .. . ... : ... .. . ... : ... .. . ...
ROW 4B : ... .. . ... ... : ... .. . ... ... : ... .. . ... : ... .. 2 ... : ... .. . ...
ROW 4C : ... .. 3 ... ... : D-3 00 3 ... ... : ... .. . ... : ... .. . ... : ... .. . ...
ROW 4D : ... .. . ... ... : ... .. . ... ... : ... .. . ... : ... .. . ... : ... .. . ...
ROW 4E : ... .. . ... ... : G#2 00 . ... ... : E-2 00 . ... : ... .. 1 ... : ... .. . ...
ROW 4F : ... .. 2 ... ... : ... .. 2 ... ... : ... .. . ... : ... .. . ... : ... .. . ...
ROW 50 : E-3 00 8 V00 ... : D-3 00 8 V00 ... : ... .. . ... : F-# 00 7 ... : ... .. . ...
ROW 51 : ... .. 5 V01 ... : ... .. 5 V01 ... : ... .. . ... : ... .. 5 ... : ... .. . ...
ROW 52 : ... .. . ... ... : G#2 00 . ... ... : ... .. . ... : ... .. . ... : ... .. . ...
ROW 53 : ... .. . ... ... : ... .. . ... ... : --- .. . ... : ... .. 4 ... : ... .. . ...
ROW 54 : ... .. 3 ... ... : D-3 00 3 ... ... : E-2 00 . ... : ... .. . ... : ... .. . ...
ROW 55 : ... .. . ... ... : ... .. . ... ... : ... .. . ... : ... .. 3 ... : ... .. . ...
ROW 56 : ... .. . ... ... : G#2 00 . ... ... : ... .. . ... : ... .. 2 ... : ... .. . ...
ROW 57 : ... .. 2 ... ... : ... .. 2 ... ... : ... .. . ... : ... .. 1 ... : ... .. . ...
ROW 58 : E-3 00 8 V00 ... : D-3 00 8 V00 ... : ... .. . ... : F-# 00 7 ... : ... .. . ...
ROW 59 : ... .. 5 V01 ... : ... .. 5 V01 ... : --- .. . ... : ... .. 5 ... : ... .. . ...
ROW 5A : ... .. . ... ... : G#2 00 . ... ... : E-2 00 . ... : ... .. . ... : ... .. . ...
ROW 5B : ... .. . ... ... : ... .. . ... ... : ... .. . ... : ... .. . ... : ... .. . ...
ROW 5C : ... .. 3 ... ... : D-3 00 3 ... ... : ... .. . ... : ... .. . ... : ... .. . ...
ROW 5D : ... .. . ... ... : ... .. . ... ... : ... .. . ... : ... .. 4 ... : ... .. . ...
ROW 5E : ... .. . ... ... : G#2 00 . ... ... : ... .. . ... : ... .. . ... : ... .. . ...
ROW 5F : ... .. 2 ... ... : ... .. 2 ... ... : --- .. . ... : ... .. . ... : ... .. . ...
ROW 60 : ... .. . ... ... : D-3 00 . ... ... : C#2 00 . ... : ... .. 3 ... : ... .. . ...
ROW 61 : ... .. . ... ... : ... .. . ... ... : ... .. . ... : ... .. . ... : ... .. . ...
ROW 62 : ... .. . ... ... : G#2 00 . ... ... : ... .. . ... : ... .. . ... : ... .. . ...
ROW 63 : ... .. . ... ... : ... .. . ... ... : ... .. . ... : ... .. 2 ... : ... .. . ...
ROW 64 : ... .. 1 ... ... : D-3 00 1 ... ... : ... .. . ... : ... .. . ... : ... .. . ...
ROW 65 : ... .. . ... ... : ... .. . ... ... : --- .. . ... : ... .. . ... : ... .. . ...
ROW 66 : ... .. . ... ... : G#2 00 . ... ... : C#2 00 . ... : ... .. 1 ... : ... .. . ...
ROW 67 : ... .. . ... ... : ... .. . ... ... : ... .. . ... : ... .. . ... : ... .. . ...
ROW 68 : E-3 00 8 V00 ... : D-3 00 8 V00 ... : ... .. . ... : ... .. . ... : ... .. . ...
ROW 69 : ... .. 5 V01 ... : ... .. 5 V01 ... : ... .. . ... : ... .. 0 ... : ... .. . ...
ROW 6A : ... .. . ... ... : G#2 00 . ... ... : ... .. . ... : ... .. . ... : ... .. . ...
ROW 6B : ... .. . ... ... : ... .. . ... ... : --- .. . ... : ... .. . ... : ... .. . ...
ROW 6C : ... .. 3 ... ... : D-3 00 3 ... ... : C#2 00 . ... : ... .. . ... : ... .. . ...
ROW 6D : ... .. . ... ... : ... .. . ... ... : ... .. . ... : ... .. . ... : ... .. . ...
ROW 6E : ... .. . ... ... : G#2 00 . ... ... : ... .. . ... : ... .. . ... : ... .. . ...
ROW 6F : ... .. 2 ... ... : ... .. 2 ... ... : ... .. . ... : ... .. . ... : ... .. . ...
ROW 70 : ... .. . ... ... : D-3 00 . ... ... : ... .. . ... : F-# 00 7 ... : ... .. . ...
ROW 71 : ... .. . ... ... : ... .. . ... ... : --- .. . ... : ... .. 5 ... : ... .. . ...
ROW 72 : ... .. . ... ... : G#2 00 . ... ... : C#2 00 . ... : ... .. . ... : ... .. . ...
ROW 73 : ... .. . ... ... : ... .. . ... ... : ... .. . ... : ... .. 4 ... : ... .. . ...
ROW 74 : ... .. 1 ... ... : D-3 00 1 ... ... : ... .. . ... : ... .. . ... : ... .. . ...
ROW 75 : ... .. . ... ... : ... .. . ... ... : ... .. . ... : ... .. 3 ... : ... .. . ...
ROW 76 : ... .. . ... ... : G#2 00 . ... ... : ... .. . ... : ... .. 2 ... : ... .. . ...
ROW 77 : ... .. . ... ... : ... .. . ... ... : ... .. . ... : ... .. 1 ... : ... .. . ...
ROW 78 : E-3 00 8 V00 ... : D-3 00 8 V00 ... : --- .. . ... : F-# 00 7 ... : ... .. . ...
ROW 79 : ... .. 5 V01 ... : ... .. 5 V01 ... : ... .. . ... : ... .. 5 ... : ... .. . ...
ROW 7A : ... .. . ... ... : G#2 00 . ... ... : ... .. . ... : ... .. . ... : ... .. . ...
ROW 7B : ... .. . ... ... : ... .. . ... ... : ... .. . ... : ... .. 4 ... : ... .. . ...
ROW 7C : ... .. 3 ... ... : D-3 00 3 ... ... : ... .. . ... : ... .. . ... : ... .. . ...
ROW 7D : ... .. . ... ... : ... .. . ... ... : ... .. . ... : ... .. 3 ... : ... .. . ...
ROW 7E : ... .. . ... ... : G#2 00 . ... ... : C#2 00 . ... : ... .. 2 ... : ... .. . ...
ROW 7F : ... .. 2 ... ... : ... .. 2 ... ... : ... .. . ... : ... .. 1 ... : ... .. . ...
ROW 80 : F-3 00 8 V00 ... : B-2 00 8 V00 ... : ... .. . ... : F-# 00 7 ... : ... .. . ...
ROW 81 : ... .. 5 V01 ... : ... .. 5 V01 ... : ... .. . ... : ... .. 5 ... : ... .. . ...
ROW 82 : ... .. . ... ... : G#2 00 . ... ... : ... .. . ... : ... .. . ... : ... .. . ...
ROW 83 : ... .. . ... ... : ... .. . ... ... : --- .. . ... : ... .. . ... : ... .. . ...
ROW 84 : ... .. 3 ... ... : B-2 00 3 ... ... : C#2 00 . ... : ... .. . ... : ... .. . ...
ROW 85 : ... .. . ... ... : ... .. . ... ... : ... .. . ... : ... .. 4 ... : ... .. . ...
ROW 86 : ... .. . ... ... : G#2 00 . ... ... : ... .. . ... : ... .. . ... : ... .. . ...
ROW 87 : ... .. 2 ... ... : ... .. 2 ... ... : ... .. . ... : ... .. . ... : ... .. . ...
ROW 88 : F-3 00 8 V00 ... : B-2 00 8 V00 ... : ... .. . ... : ... .. 3 ... : ... .. . ...
ROW 89 : ... .. 5 V01 ... : ... .. 5 V01 ... : --- .. . ... : ... .. . ... : ... .. . ...
ROW 8A : ... .. . ... ... : G#2 00 . ... ... : C#2 00 . ... : ... .. . ... : ... .. . ...
ROW 8B : ... .. . ... ... : ... .. . ... ... : ... .. . ... : ... .. 2 ... : ... .. . ...
ROW 8C : ... .. 3 ... ... : B-2 00 3 ... ... : ... .. . ... : ... .. . ... : ... .. . ...
ROW 8D : ... .. . ... ... : ... .. . ... ... : ... .. . ... : ... .. . ... : ... .. . ...
ROW 8E : ... .. . ... ... : G#2 00 . ... ... : ... .. . ... : ... .. 1 ... : ... .. . ...
ROW 8F : ... .. 2 ... ... : ... .. 2 ... ... : --- .. . ... : ... .. . ... : ... .. . ...
ROW 90 : F-3 00 8 V00 ... : B-2 00 8 V00 ... : C#2 00 . ... : F-# 00 7 ... : ... .. . ...
ROW 91 : ... .. 5 V01 ... : ... .. 5 V01 ... : ... .. . ... : ... .. 5 ... : ... .. . ...
ROW 92 : ... .. . ... ... : G#2 00 . ... ... : ... .. . ... : ... .. . ... : ... .. . ...
ROW 93 : ... .. . ... ... : ... .. . ... ... : ... .. . ... : ... .. 4 ... : ... .. . ...
ROW 94 : ... .. 3 ... ... : B-2 00 3 ... ... : ... .. . ... : ... .. . ... : ... .. . ...
ROW 95 : ... .. . ... ... : ... .. . ... ... : --- .. . ... : ... .. 3 ... : ... .. . ...
ROW 96 : ... .. . ... ... : G#2 00 . ... ... : G#4 00 . ... : ... .. 2 ... : ... .. . ...
ROW 97 : ... .. 2 ... ... : ... .. 2 ... ... : F-4 00 . ... : ... .. 1 ... : ... .. . ...
ROW 98 : F-3 00 8 V00 ... : B-2 00 8 V00 ... : E-4 00 . ... : F-# 00 7 ... : ... .. . ...
ROW 99 : ... .. 5 V01 ... : ... .. 5 V01 ... : D-4 00 . ... : ... .. 5 ... : ... .. . ...
ROW 9A : ... .. . ... ... : G#2 00 . ... ... : C#4 00 . ... : ... .. . ... : ... .. . ...
ROW 9B : ... .. . ... ... : ... .. . ... ... : --- .. . ... : ... .. . ... : ... .. . ...
ROW 9C : ... .. 3 ... ... : B-2 00 3 ... ... : F-4 00 . ... : ... .. . ... : ... .. . ...
ROW 9D : ... .. . ... ... : ... .. . ... ... : E-4 00 . ... : ... .. 4 ... : ... .. . ...
ROW 9E : ... .. . ... ... : G#2 00 . ... ... : D-4 00 . ... : ... .. . ... : ... .. . ...
ROW 9F : ... .. 2 ... ... : ... .. 2 ... ... : C#4 00 . ... : ... .. . ... : ... .. . ...
ROW A0 : ... .. . ... ... : B-2 00 . ... ... : B-3 00 . ... : ... .. 3 ... : ... .. . ...
ROW A1 : ... .. . ... ... : ... .. . ... ... : --- .. . ... : ... .. . ... : ... .. . ...
ROW A2 : ... .. . ... ... : G#2 00 . ... ... : F-4 00 . ... : ... .. . ... : ... .. . ...
ROW A3 : ... .. . ... ... : ... .. . ... ... : E-4 00 . ... : ... .. 2 ... : ... .. . ...
ROW A4 : ... .. 1 ... ... : B-2 00 1 ... ... : D-4 00 . ... : ... .. . ... : ... .. . ...
ROW A5 : ... .. . ... ... : ... .. . ... ... : C#4 00 . ... : ... .. . ... : ... .. . ...
ROW A6 : ... .. . ... ... : G#2 00 . ... ... : B-3 00 . ... : ... .. 1 ... : ... .. . ...
ROW A7 : ... .. . ... ... : ... .. . ... ... : --- .. . ... : ... .. . ... : ... .. . ...
ROW A8 : F-3 00 8 V00 ... : B-2 00 8 V00 ... : E-4 00 . ... : F-# 00 7 ... : ... .. . ...
ROW A9 : ... .. 5 V01 ... : ... .. 5 V01 ... : D-4 00 . ... : ... .. 5 ... : ... .. . ...
ROW AA : ... .. . ... ... : G#2 00 . ... ... : --- 00 . ... : ... .. . ... : ... .. . ...
ROW AB : ... .. . ... ... : ... .. . ... ... : E-4 00 . ... : ... .. 4 ... : ... .. . ...
ROW AC : ... .. 3 ... ... : B-2 00 3 ... ... : D-4 00 . ... : ... .. . ... : ... .. . ...
ROW AD : ... .. . ... ... : ... .. . ... ... : --- 00 . ... : ... .. 3 ... : ... .. . ...
ROW AE : ... .. . ... ... : G#2 00 . ... ... : E-4 00 . ... : ... .. 2 ... : ... .. . ...
ROW AF : ... .. 2 ... ... : ... .. 2 ... ... : D-4 00 . ... : ... .. 1 ... : ... .. . ...
ROW B0 : ... .. . ... ... : B-2 00 . ... ... : C#4 00 . ... : F-# 00 7 ... : ... .. . ...
ROW B1 : ... .. . ... ... : ... .. . ... ... : B-3 00 . ... : ... .. 5 ... : ... .. . ...
ROW B2 : ... .. . ... ... : G#2 00 . ... ... : A-3 00 . ... : ... .. . ... : ... .. . ...
ROW B3 : ... .. . ... ... : ... .. . ... ... : --- .. . ... : ... .. . ... : ... .. . ...
ROW B4 : ... .. 1 ... ... : B-2 00 1 ... ... : C#4 00 . ... : ... .. . ... : ... .. . ...
ROW B5 : ... .. . ... ... : ... .. . ... ... : B-3 00 . ... : ... .. 4 ... : ... .. . ...
ROW B6 : ... .. . ... ... : G#2 00 . ... ... : A-3 00 . ... : ... .. . ... : ... .. . ...
ROW B7 : ... .. . ... ... : ... .. . ... ... : G#3 00 . ... : ... .. . ... : ... .. . ...
ROW B8 : F-3 00 8 V00 ... : B-2 00 8 V00 ... : F-3 00 . ... : ... .. 3 ... : ... .. . ...
ROW B9 : ... .. 5 V01 ... : ... .. 5 V01 ... : --- .. . ... : ... .. . ... : ... .. . ...
ROW BA : ... .. . ... ... : G#2 00 . ... ... : C#4 00 . ... : ... .. . ... : ... .. . ...
ROW BB : ... .. . ... ... : ... .. . ... ... : B-3 00 . ... : ... .. 2 ... : ... .. . ...
ROW BC : ... .. 3 ... ... : B-2 00 3 ... ... : A-3 00 . ... : ... .. . ... : ... .. . ...
ROW BD : ... .. . ... ... : ... .. . ... ... : G#3 00 . ... : ... .. . ... : ... .. . ...
ROW BE : ... .. . ... ... : G#2 00 . ... ... : F-3 00 . ... : ... .. 1 ... : ... .. . ...
ROW BF : ... .. 2 ... ... : ... .. 2 ... ... : --- .. . ... : ... .. . ... : ... .. . ...
ROW C0 : F-3 00 8 V00 ... : B-2 00 8 V00 ... : ... .. . ... : F-# 00 7 ... : ... .. . ...
ROW C1 : ... .. 5 V01 ... : ... .. 5 V01 ... : ... .. . ... : ... .. 5 ... : ... .. . ...
ROW C2 : ... .. . ... ... : G#2 00 . ... ... : ... .. . ... : ... .. . ... : ... .. . ...
ROW C3 : ... .. . ... ... : ... .. . ... ... : ... .. . ... : ... .. . ... : ... .. . ...
ROW C4 : ... .. 3 ... ... : B-2 00 3 ... ... : ... .. . ... : ... .. . ... : ... .. . ...
ROW C5 : ... .. . ... ... : ... .. . ... ... : ... .. . ... : ... .. 4 ... : ... .. . ...
ROW C6 : ... .. . ... ... : G#2 00 . ... ... : ... .. . ... : ... .. . ... : ... .. . ...
ROW C7 : ... .. 2 ... ... : ... .. 2 ... ... : ... .. . ... : ... .. . ... : ... .. . ...
ROW C8 : F-3 00 8 V00 ... : B-2 00 8 V00 ... : ... .. . ... : ... .. 3 ... : ... .. . ...
ROW C9 : ... .. 5 V01 ... : ... .. 5 V01 ... : ... .. . ... : ... .. . ... : ... .. . ...
ROW CA : ... .. . ... ... : G#2 00 . ... ... : ... .. . ... : ... .. . ... : ... .. . ...
ROW CB : ... .. . ... ... : ... .. . ... ... : ... .. . ... : ... .. 2 ... : ... .. . ...
ROW CC : ... .. 3 ... ... : B-2 00 3 ... ... : ... .. . ... : ... .. . ... : ... .. . ...
ROW CD : ... .. . ... ... : ... .. . ... ... : ... .. . ... : ... .. . ... : ... .. . ...
ROW CE : ... .. . ... ... : G#2 00 . ... ... : ... .. . ... : ... .. 1 ... : ... .. . ...
ROW CF : ... .. 2 ... ... : ... .. 2 ... ... : ... .. . ... : ... .. . ... : ... .. . ...
ROW D0 : F-3 00 8 V00 ... : B-2 00 8 V00 ... : ... .. . ... : F-# 00 7 ... : ... .. . ...
ROW D1 : ... .. 5 V01 ... : ... .. 5 V01 ... : ... .. . ... : ... .. 5 ... : ... .. . ...
ROW D2 : ... .. . ... ... : G#2 00 . ... ... : ... .. . ... : ... .. . ... : ... .. . ...
ROW D3 : ... .. . ... ... : ... .. . ... ... : ... .. . ... : ... .. 4 ... : ... .. . ...
ROW D4 : ... .. 3 ... ... : B-2 00 3 ... ... : ... .. . ... : ... .. . ... : ... .. . ...
ROW D5 : ... .. . ... ... : ... .. . ... ... : ... .. . ... : ... .. 3 ... : ... .. . ...
ROW D6 : ... .. . ... ... : G#2 00 . ... ... : ... .. . ... : ... .. 2 ... : ... .. . ...
ROW D7 : ... .. 2 ... ... : ... .. 2 ... ... : ... .. . ... : ... .. 1 ... : ... .. . ...
ROW D8 : F-3 00 8 V00 ... : B-2 00 8 V00 ... : ... .. . ... : F-# 00 7 ... : ... .. . ...
ROW D9 : ... .. 5 V01 ... : ... .. 5 V01 ... : ... .. . ... : ... .. 5 ... : ... .. . ...
ROW DA : ... .. . ... ... : G#2 00 . ... ... : ... .. . ... : ... .. . ... : ... .. . ...
ROW DB : ... .. . ... ... : ... .. . ... ... : ... .. . ... : ... .. . ... : ... .. . ...
ROW DC : ... .. 3 ... ... : B-2 00 3 ... ... : ... .. . ... : ... .. . ... : ... .. . ...
ROW DD : ... .. . ... ... : ... .. . ... ... : ... .. . ... : ... .. 4 ... : ... .. . ...
ROW DE : ... .. . ... ... : G#2 00 . ... ... : ... .. . ... : ... .. . ... : ... .. . ...
ROW DF : ... .. 2 ... ... : ... .. 2 ... ... : ... .. . ... : ... .. . ... : ... .. . ...
ROW E0 : ... .. . ... ... : B-2 00 . ... ... : ... .. . ... : ... .. 3 ... : ... .. . ...
ROW E1 : ... .. . ... ... : ... .. . ... ... : ... .. . ... : ... .. . ... : ... .. . ...
ROW E2 : ... .. . ... ... : G#2 00 . ... ... : ... .. . ... : ... .. . ... : ... .. . ...
ROW E3 : ... .. . ... ... : ... .. . ... ... : ... .. . ... : ... .. 2 ... : ... .. . ...
ROW E4 : ... .. 1 ... ... : B-2 00 1 ... ... : ... .. . ... : ... .. . ... : ... .. . ...
ROW E5 : ... .. . ... ... : ... .. . ... ... : ... .. . ... : ... .. . ... : ... .. . ...
ROW E6 : ... .. . ... ... : G#2 00 . ... ... : ... .. . ... : ... .. 1 ... : ... .. . ...
ROW E7 : ... .. . ... ... : ... .. . ... ... : ... .. . ... : ... .. . ... : ... .. . ...
ROW E8 : F-3 00 8 V00 ... : B-2 00 8 V00 ... : ... .. . ... : F-# 00 7 ... : ... .. . ...
ROW E9 : ... .. 5 V01 ... : ... .. 5 V01 ... : ... .. . ... : ... .. 5 ... : ... .. . ...
ROW EA : ... .. . ... ... : G#2 00 . ... ... : ... .. . ... : ... .. . ... : ... .. . ...
ROW EB : ... .. . ... ... : ... .. . ... ... : ... .. . ... : ... .. 4 ... : ... .. . ...
ROW EC : ... .. 3 ... ... : B-2 00 3 ... ... : ... .. . ... : ... .. . ... : ... .. . ...
ROW ED : ... .. . ... ... : ... .. . ... ... : ... .. . ... : ... .. 3 ... : ... .. . ...
ROW EE : ... .. . ... ... : G#2 00 . ... ... : ... .. . ... : ... .. 2 ... : ... .. . ...
ROW EF : ... .. 2 ... ... : ... .. 2 ... ... : ... .. . ... : ... .. 1 ... : ... .. . ...
ROW F0 : ... .. . ... ... : B-2 00 . ... ... : ... .. . ... : F-# 00 7 ... : ... .. . ...
ROW F1 : ... .. . ... ... : ... .. . ... ... : ... .. . ... : ... .. 5 ... : ... .. . ...
ROW F2 : ... .. . ... ... : G#2 00 . ... ... : ... .. . ... : ... .. . ... : ... .. . ...
ROW F3 : ... .. . ... ... : ... .. . ... ... : ... .. . ... : ... .. 4 ... : ... .. . ...
ROW F4 : ... .. 1 ... ... : B-2 00 1 ... ... : ... .. . ... : ... .. . ... : ... .. . ...
ROW F5 : ... .. . ... ... : ... .. . ... ... : ... .. . ... : ... .. 3 ... : ... .. . ...
ROW F6 : ... .. . ... ... : G#2 00 . ... ... : ... .. . ... : ... .. 2 ... : ... .. . ...
ROW F7 : ... .. . ... ... : ... .. . ... ... : ... .. . ... : ... .. 1 ... : ... .. . ...
ROW F8 : ... .. . ... ... : ... .. . ... ... : ... .. . ... : F-# 00 7 ... : ... .. . ...
ROW F9 : ... .. . ... ... : ... .. . ... ... : ... .. . ... : ... .. 5 ... : ... .. . ...
ROW FA : ... .. . ... ... : ... .. . ... ... : ... .. . ... : ... .. . ... : ... .. . ...
ROW FB : ... .. . ... ... : ... .. . ... ... : ... .. . ... : ... .. 4 ... : ... .. . ...
ROW FC : ... .. . ... ... : ... .. . ... ... : ... .. . ... : ... .. . ... : ... .. . ...
ROW FD : ... .. . ... ... : ... .. . ... ... : ... .. . ... : ... .. 3 ... : ... .. . ...
ROW FE : ... .. . ... ... : ... .. . ... ... : ... .. . ... : ... .. 2 ... : ... .. . ...
ROW FF : ... .. . ... ... : ... .. . ... ... : ... .. . ... : ... .. 1 ... : ... .. . ...

PATTERN 07
ROW 00 : D-1 00 D V03 P7F : B-0 00 D V03 P81 : F#2 00 . ... : 7-# 00 5 ... : C-5 00 . ...
ROW 01 : B-1 00 . V00 ... : F#1 00 . V00 ... : ... .. . ... : 6-# 00 4 ... : ... .. . ...
ROW 02 : ... .. . V01 ... : ... .. . V01 ... : ... .. . ... : 7-# 00 3 ... : ... .. . ...
ROW 03 : ... .. 4 V00 ... : ... .. 4 V00 ... : ... .. . ... : ... .. 2 ... : ... .. . ...
ROW 04 : D#1 00 D V03 ... : C-1 00 D V03 ... : ... .. . ... : ... .. . ... : ... .. . ...
ROW 05 : C-2 00 . V00 ... : G-1 00 . V00 ... : --- .. . ... : ... .. 1 ... : ... .. . ...
ROW 06 : ... .. . V01 ... : ... .. . V01 ... : F#2 00 . ... : ... .. 0 ... : ... .. . ...
ROW 07 : ... .. 4 V00 ... : ... .. 4 V00 ... : ... .. . ... : ... .. . ... : ... .. . ...
ROW 08 : E-1 00 D V03 ... : C#1 00 D V03 ... : ... .. . ... : 3-# 00 5 ... : ... .. . ...
ROW 09 : C#2 00 . V00 ... : G#1 00 . V00 ... : ... .. . ... : 2-# 00 4 ... : ... .. . ...
ROW 0A : ... .. . V01 ... : ... .. . V01 ... : ... .. . ... : 3-# 00 3 ... : ... .. . ...
ROW 0B : ... .. 4 V00 ... : ... .. 4 V00 ... : --- .. . ... : ... .. 2 ... : ... .. . ...
ROW 0C : F-1 00 D V03 ... : D-1 00 D V03 ... : F#2 00 . ... : ... .. . ... : ... .. . ...
ROW 0D : D-2 00 . V00 ... : A-1 00 . V00 ... : ... .. . ... : ... .. 1 ... : ... .. . ...
ROW 0E : ... .. . V01 ... : ... .. . V01 ... : ... .. . ... : ... .. 0 ... : ... .. . ...
ROW 0F : ... .. 4 V00 ... : ... .. 4 V00 ... : ... .. . ... : ... .. . ... : ... .. . ...
ROW 10 : F#1 00 D V03 ... : D#1 00 D V03 ... : ... .. . ... : 3-# 00 5 ... : ... .. . ...
ROW 11 : D#2 00 . V00 ... : A#1 00 . V00 ... : --- .. . ... : 2-# 00 4 ... : ... .. . ...
ROW 12 : ... .. . V01 ... : ... .. . V01 ... : F#2 00 . ... : 3-# 00 3 ... : ... .. . ...
ROW 13 : ... .. 4 V00 ... : ... .. 4 V00 ... : ... .. . ... : ... .. 2 ... : ... .. . ...
ROW 14 : G-1 00 D V03 ... : E-1 00 D V03 ... : ... .. . ... : ... .. . ... : ... .. . ...
ROW 15 : E-2 00 . V00 ... : B-1 00 . V00 ... : ... .. . ... : ... .. 1 ... : ... .. . ...
ROW 16 : ... .. . V01 ... : ... .. . V01 ... : ... .. . ... : ... .. 0 ... : ... .. . ...
ROW 17 : ... .. 4 V00 ... : ... .. 4 V00 ... : ... .. . ... : ... .. . ... : ... .. . ...
ROW 18 : ... .. 2 ... ... : ... .. 2 ... ... : --- .. . ... : 7-# 00 5 ... : ... .. . ...
ROW 19 : ... .. 1 ... ... : ... .. 1 ... ... : ... .. . ... : 6-# 00 4 ... : ... .. . ...
ROW 1A : ... .. . ... ... : ... .. . ... ... : ... .. . ... : 7-# 00 3 ... : ... .. . ...
ROW 1B : ... .. . ... ... : ... .. . ... ... : ... .. . ... : ... .. 2 ... : ... .. . ...
ROW 1C : ... .. . ... ... : ... .. . ... ... : ... .. . ... : ... .. . ... : ... .. . ...
ROW 1D : ... .. . ... ... : ... .. . ... ... : ... .. . ... : ... .. 1 ... : ... .. . ...
ROW 1E : ... .. . ... ... : ... .. . ... ... : F#4 00 . ... : ... .. 0 ... : ... .. . ...
ROW 1F : ... .. . ... ... : ... .. . ... ... : C#4 00 . ... : ... .. . ... : ... .. . ...
ROW 20 : ... .. . ... ... : ... .. . ... ... : --- .. . ... : 7-# 00 5 ... : ... .. . ...
ROW 21 : ... .. . ... ... : ... .. . ... ... : F#4 00 . ... : 6-# 00 4 ... : ... .. . ...
ROW 22 : ... .. . ... ... : ... .. . ... ... : C#4 00 . ... : 7-# 00 3 ... : ... .. . ...
ROW 23 : ... .. . ... ... : ... .. . ... ... : --- .. . ... : ... .. 2 ... : ... .. . ...
ROW 24 : ... .. . ... ... : ... .. . ... ... : F#4 00 . ... : ... .. . ... : ... .. . ...
ROW 25 : ... .. . ... ... : ... .. . ... ... : E-4 00 . ... : ... .. 1 ... : ... .. . ...
ROW 26 : ... .. . ... ... : ... .. . ... ... : D-4 00 . ... : ... .. 0 ... : ... .. . ...
ROW 27 : ... .. . ... ... : ... .. . ... ... : C#4 00 . ... : ... .. . ... : ... .. . ...
ROW 28 : ... .. . ... ... : ... .. . ... ... : B-3 00 . ... : 3-# 00 5 ... : ... .. . ...
ROW 29 : ... .. . ... ... : ... .. . ... ... : --- .. . ... : 2-# 00 4 ... : ... .. . ...
ROW 2A : ... .. . ... ... : ... .. . ... ... : F#2 00 . ... : 3-# 00 3 ... : ... .. . ...
ROW 2B : ... .. . ... ... : ... .. . ... ... : ... .. . ... : ... .. 2 ... : ... .. . ...
ROW 2C : ... .. . ... ... : ... .. . ... ... : ... .. . ... : ... .. . ... : ... .. . ...
ROW 2D : ... .. . ... ... : ... .. . ... ... : ... .. . ... : ... .. 1 ... : ... .. . ...
ROW 2E : ... .. . ... ... : ... .. . ... ... : ... .. . ... : ... .. 0 ... : ... .. . ...
ROW 2F : ... .. . ... ... : ... .. . ... ... : --- .. . ... : ... .. . ... : ... .. . ...
ROW 30 : ... .. . ... ... : ... .. . ... ... : F#2 00 . ... : 7-# 00 5 ... : ... .. . ...
ROW 31 : ... .. . ... ... : ... .. . ... ... : ... .. . ... : 6-# 00 4 ... : ... .. . ...
ROW 32 : ... .. . ... ... : ... .. . ... ... : ... .. . ... : 7-# 00 3 ... : ... .. . ...
ROW 33 : ... .. . ... ... : ... .. . ... ... : ... .. . ... : ... .. 2 ... : ... .. . ...
ROW 34 : ... .. . ... ... : ... .. . ... ... : ... .. . ... : ... .. . ... : ... .. . ...
ROW 35 : ... .. . ... ... : ... .. . ... ... : --- .. . ... : ... .. 1 ... : ... .. . ...
ROW 36 : ... .. . ... ... : ... .. . ... ... : F#2 00 . ... : ... .. 0 ... : ... .. . ...
ROW 37 : ... .. . ... ... : ... .. . ... ... : ... .. . ... : ... .. . ... : ... .. . ...
ROW 38 : ... .. . ... ... : ... .. . ... ... : ... .. . ... : 3-# 00 5 ... : ... .. . ...
ROW 39 : ... .. . ... ... : ... .. . ... ... : ... .. . ... : 2-# 00 4 ... : ... .. . ...
ROW 3A : ... .. . ... ... : ... .. . ... ... : ... .. . ... : 3-# 00 3 ... : ... .. . ...
ROW 3B : ... .. . ... ... : ... .. . ... ... : --- .. . ... : ... .. 2 ... : ... .. . ...
ROW 3C : ... .. . ... ... : ... .. . ... ... : F#2 00 . ... : ... .. . ... : ... .. . ...
ROW 3D : ... .. . ... ... : ... .. . ... ... : ... .. . ... : ... .. 1 ... : ... .. . ...
ROW 3E : ... .. . ... ... : ... .. . ... ... : ... .. . ... : ... .. 0 ... : ... .. . ...
ROW 3F : ... .. . ... ... : ... .. . ... ... : ... .. . ... : ... .. . ... : ... .. . ...
ROW 40 : ... .. . ... ... : ... .. . ... ... : ... .. . ... : 7-# 00 5 ... : ... .. . ...
ROW 41 : ... .. . ... ... : ... .. . ... ... : --- .. . ... : 6-# 00 4 ... : ... .. . ...
ROW 42 : ... .. . ... ... : ... .. . ... ... : F#2 00 . ... : 7-# 00 3 ... : ... .. . ...
ROW 43 : ... .. . ... ... : ... .. . ... ... : ... .. . ... : ... .. 2 ... : ... .. . ...
ROW 44 : ... .. . ... ... : ... .. . ... ... : ... .. . ... : ... .. . ... : ... .. . ...
ROW 45 : ... .. . ... ... : ... .. . ... ... : ... .. . ... : ... .. 1 ... : ... .. . ...
ROW 46 : ... .. . ... ... : ... .. . ... ... : ... .. . ... : ... .. 0 ... : ... .. . ...
ROW 47 : ... .. . ... ... : ... .. . ... ... : ... .. . ... : ... .. . ... : ... .. . ...
ROW 48 : ... .. . ... ... : ... .. . ... ... : --- .. . ... : 3-# 00 5 ... : ... .. . ...
ROW 49 : ... .. . ... ... : ... .. . ... ... : ... .. . ... : 2-# 00 4 ... : ... .. . ...
ROW 4A : ... .. . ... ... : ... .. . ... ... : ... .. . ... : 3-# 00 3 ... : ... .. . ...
ROW 4B : ... .. . ... ... : ... .. . ... ... : ... .. . ... : ... .. 2 ... : ... .. . ...
ROW 4C : ... .. . ... ... : ... .. . ... ... : ... .. . ... : ... .. . ... : ... .. . ...
ROW 4D : ... .. . ... ... : ... .. . ... ... : ... .. . ... : ... .. 1 ... : ... .. . ...
ROW 4E : ... .. . ... ... : ... .. . ... ... : F#4 00 . ... : ... .. 0 ... : ... .. . ...
ROW 4F : ... .. . ... ... : ... .. . ... ... : C#4 00 . ... : ... .. . ... : ... .. . ...
ROW 50 : ... .. . ... ... : ... .. . ... ... : --- .. . ... : 3-# 00 5 ... : ... .. . ...
ROW 51 : ... .. . ... ... : ... .. . ... ... : F#4 00 . ... : 2-# 00 4 ... : ... .. . ...
ROW 52 : ... .. . ... ... : ... .. . ... ... : C#4 00 . ... : 3-# 00 3 ... : ... .. . ...
ROW 53 : ... .. . ... ... : ... .. . ... ... : --- .. . ... : ... .. 2 ... : ... .. . ...
ROW 54 : ... .. . ... ... : ... .. . ... ... : F#4 00 . ... : ... .. . ... : ... .. . ...
ROW 55 : ... .. . ... ... : ... .. . ... ... : E-4 00 . ... : ... .. 1 ... : ... .. . ...
ROW 56 : ... .. . ... ... : ... .. . ... ... : D-4 00 . ... : ... .. 0 ... : ... .. . ...
ROW 57 : ... .. . ... ... : ... .. . ... ... : C#4 00 . ... : ... .. . ... : ... .. . ...
ROW 58 : ... .. . ... ... : ... .. . ... ... : B-3 00 . ... : 7-# 00 5 ... : ... .. . ...
ROW 59 : ... .. . ... ... : ... .. . ... ... : --- .. . ... : 6-# 00 4 ... : ... .. . ...
ROW 5A : ... .. . ... ... : ... .. . ... ... : F#2 00 . ... : 7-# 00 3 ... : ... .. . ...
ROW 5B : ... .. . ... ... : ... .. . ... ... : ... .. . ... : ... .. 2 ... : ... .. . ...
ROW 5C : ... .. . ... ... : ... .. . ... ... : ... .. . ... : ... .. . ... : ... .. . ...
ROW 5D : ... .. . ... ... : ... .. . ... ... : ... .. . ... : ... .. 1 ... : ... .. . ...
ROW 5E : ... .. . ... ... : ... .. . ... ... : ... .. . ... : ... .. 0 ... : ... .. . ...
ROW 5F : ... .. . ... ... : ... .. . ... ... : --- .. . ... : ... .. . ... : ... .. . ...
ROW 60 : ... .. . ... ... : ... .. . ... ... : D-2 00 . ... : 7-# 00 5 ... : ... .. . ...
ROW 61 : ... .. . ... ... : ... .. . ... ... : ... .. . ... : 6-# 00 4 ... : ... .. . ...
ROW 62 : ... .. . ... ... : ... .. . ... ... : ... .. . ... : 7-# 00 3 ... : ... .. . ...
ROW 63 : ... .. . ... ... : ... .. . ... ... : ... .. . ... : ... .. 2 ... : ... .. . ...
ROW 64 : ... .. . ... ... : ... .. . ... ... : ... .. . ... : ... .. . ... : ... .. . ...
ROW 65 : ... .. . ... ... : ... .. . ... ... : --- .. . ... : ... .. 1 ... : ... .. . ...
ROW 66 : ... .. . ... ... : ... .. . ... ... : D-2 00 . ... : ... .. 0 ... : ... .. . ...
ROW 67 : ... .. . ... ... : ... .. . ... ... : ... .. . ... : ... .. . ... : ... .. . ...
ROW 68 : ... .. . ... ... : ... .. . ... ... : ... .. . ... : 3-# 00 5 ... : ... .. . ...
ROW 69 : ... .. . ... ... : ... .. . ... ... : ... .. . ... : 2-# 00 4 ... : ... .. . ...
ROW 6A : ... .. . ... ... : ... .. . ... ... : ... .. . ... : 3-# 00 3 ... : ... .. . ...
ROW 6B : ... .. . ... ... : ... .. . ... ... : --- .. . ... : ... .. 2 ... : ... .. . ...
ROW 6C : ... .. . ... ... : ... .. . ... ... : D-2 00 . ... : ... .. . ... : ... .. . ...
ROW 6D : ... .. . ... ... : ... .. . ... ... : ... .. . ... : ... .. 1 ... : ... .. . ...
ROW 6E : ... .. . ... ... : ... .. . ... ... : ... .. . ... : ... .. 0 ... : ... .. . ...
ROW 6F : ... .. . ... ... : ... .. . ... ... : ... .. . ... : ... .. . ... : ... .. . ...
ROW 70 : ... .. . ... ... : ... .. . ... ... : ... .. . ... : 7-# 00 5 ... : ... .. . ...
ROW 71 : ... .. . ... ... : ... .. . ... ... : --- .. . ... : 6-# 00 4 ... : ... .. . ...
ROW 72 : ... .. . ... ... : ... .. . ... ... : D-2 00 . ... : 7-# 00 3 ... : ... .. . ...
ROW 73 : ... .. . ... ... : ... .. . ... ... : ... .. . ... : ... .. 2 ... : ... .. . ...
ROW 74 : ... .. . ... ... : ... .. . ... ... : ... .. . ... : ... .. . ... : ... .. . ...
ROW 75 : ... .. . ... ... : ... .. . ... ... : ... .. . ... : ... .. 1 ... : ... .. . ...
ROW 76 : ... .. . ... ... : ... .. . ... ... : ... .. . ... : ... .. 0 ... : ... .. . ...
ROW 77 : ... .. . ... ... : ... .. . ... ... : ... .. . ... : ... .. . ... : ... .. . ...
ROW 78 : ... .. . ... ... : ... .. . ... ... : --- .. . ... : 3-# 00 5 ... : ... .. . ...
ROW 79 : ... .. . ... ... : ... .. . ... ... : ... .. . ... : 2-# 00 4 ... : ... .. . ...
ROW 7A : ... .. . ... ... : ... .. . ... ... : ... .. . ... : 3-# 00 3 ... : ... .. . ...
ROW 7B : ... .. . ... ... : ... .. . ... ... : ... .. . ... : ... .. 2 ... : ... .. . ...
ROW 7C : ... .. . ... ... : ... .. . ... ... : ... .. . ... : ... .. . ... : ... .. . ...
ROW 7D : ... .. . ... ... : ... .. . ... ... : ... .. . ... : ... .. 1 ... : ... .. . ...
ROW 7E : ... .. . ... ... : ... .. . ... ... : D-4 00 . ... : ... .. 0 ... : ... .. . ...
ROW 7F : ... .. . ... ... : ... .. . ... ... : A-3 00 . ... : ... .. . ... : ... .. . ...
ROW 80 : ... .. . ... ... : ... .. . ... ... : --- .. . ... : 7-# 00 5 ... : ... .. . ...
ROW 81 : ... .. . ... ... : ... .. . ... ... : D-4 00 . ... : 6-# 00 4 ... : ... .. . ...
ROW 82 : ... .. . ... ... : ... .. . ... ... : A-3 00 . ... : 7-# 00 3 ... : ... .. . ...
ROW 83 : ... .. . ... ... : ... .. . ... ... : --- .. . ... : ... .. 2 ... : ... .. . ...
ROW 84 : ... .. . ... ... : ... .. . ... ... : D-4 00 . ... : ... .. . ... : ... .. . ...
ROW 85 : ... .. . ... ... : ... .. . ... ... : C#4 00 . ... : ... .. 1 ... : ... .. . ...
ROW 86 : ... .. . ... ... : ... .. . ... ... : B-3 00 . ... : ... .. 0 ... : ... .. . ...
ROW 87 : ... .. . ... ... : ... .. . ... ... : A-3 00 . ... : ... .. . ... : ... .. . ...
ROW 88 : ... .. . ... ... : ... .. . ... ... : G#3 00 . ... : 3-# 00 5 ... : ... .. . ...
ROW 89 : ... .. . ... ... : ... .. . ... ... : --- .. . ... : 2-# 00 4 ... : ... .. . ...
ROW 8A : ... .. . ... ... : ... .. . ... ... : D-2 00 . ... : 3-# 00 3 ... : ... .. . ...
ROW 8B : ... .. . ... ... : ... .. . ... ... : ... .. . ... : ... .. 2 ... : ... .. . ...
ROW 8C : ... .. . ... ... : ... .. . ... ... : ... .. . ... : ... .. . ... : ... .. . ...
ROW 8D : ... .. . ... ... : ... .. . ... ... : ... .. . ... : ... .. 1 ... : ... .. . ...
ROW 8E : ... .. . ... ... : ... .. . ... ... : ... .. . ... : ... .. 0 ... : ... .. . ...
ROW 8F : ... .. . ... ... : ... .. . ... ... : --- .. . ... : ... .. . ... : ... .. . ...
ROW 90 : ... .. . ... ... : ... .. . ... ... : D-2 00 . ... : 3-# 00 5 ... : ... .. . ...
ROW 91 : ... .. . ... ... : ... .. . ... ... : ... .. . ... : 2-# 00 4 ... : ... .. . ...
ROW 92 : ... .. . ... ... : ... .. . ... ... : ... .. . ... : 3-# 00 3 ... : ... .. . ...
ROW 93 : ... .. . ... ... : ... .. . ... ... : ... .. . ... : ... .. 2 ... : ... .. . ...
ROW 94 : ... .. . ... ... : ... .. . ... ... : ... .. . ... : ... .. . ... : ... .. . ...
ROW 95 : ... .. . ... ... : ... .. . ... ... : --- .. . ... : ... .. 1 ... : ... .. . ...
ROW 96 : ... .. . ... ... : ... .. . ... ... : D-2 00 . ... : ... .. 0 ... : ... .. . ...
ROW 97 : ... .. . ... ... : ... .. . ... ... : ... .. . ... : ... .. . ... : ... .. . ...
ROW 98 : ... .. . ... ... : ... .. . ... ... : ... .. . ... : 7-# 00 5 ... : ... .. . ...
ROW 99 : ... .. . ... ... : ... .. . ... ... : ... .. . ... : 6-# 00 4 ... : ... .. . ...
ROW 9A : ... .. . ... ... : ... .. . ... ... : ... .. . ... : 7-# 00 3 ... : ... .. . ...
ROW 9B : ... .. . ... ... : ... .. . ... ... : --- .. . ... : ... .. 2 ... : ... .. . ...
ROW 9C : ... .. . ... ... : ... .. . ... ... : D-2 00 . ... : ... .. . ... : ... .. . ...
ROW 9D : ... .. . ... ... : ... .. . ... ... : ... .. . ... : ... .. 1 ... : ... .. . ...
ROW 9E : ... .. . ... ... : ... .. . ... ... : ... .. . ... : ... .. 0 ... : ... .. . ...
ROW 9F : ... .. . ... ... : ... .. . ... ... : ... .. . ... : ... .. . ... : ... .. . ...
ROW A0 : ... .. . ... ... : ... .. . ... ... : ... .. . ... : 7-# 00 5 ... : ... .. . ...
ROW A1 : ... .. . ... ... : ... .. . ... ... : --- .. . ... : 6-# 00 4 ... : ... .. . ...
ROW A2 : ... .. . ... ... : ... .. . ... ... : D-2 00 . ... : 7-# 00 3 ... : ... .. . ...
ROW A3 : ... .. . ... ... : ... .. . ... ... : ... .. . ... : ... .. 2 ... : ... .. . ...
ROW A4 : ... .. . ... ... : ... .. . ... ... : ... .. . ... : ... .. . ... : ... .. . ...
ROW A5 : ... .. . ... ... : ... .. . ... ... : ... .. . ... : ... .. 1 ... : ... .. . ...
ROW A6 : ... .. . ... ... : ... .. . ... ... : ... .. . ... : ... .. 0 ... : ... .. . ...
ROW A7 : ... .. . ... ... : ... .. . ... ... : ... .. . ... : ... .. . ... : ... .. . ...
ROW A8 : ... .. . ... ... : ... .. . ... ... : --- .. . ... : 3-# 00 5 ... : ... .. . ...
ROW A9 : ... .. . ... ... : ... .. . ... ... : ... .. . ... : 2-# 00 4 ... : ... .. . ...
ROW AA : ... .. . ... ... : ... .. . ... ... : ... .. . ... : 3-# 00 3 ... : ... .. . ...
ROW AB : ... .. . ... ... : ... .. . ... ... : ... .. . ... : ... .. 2 ... : ... .. . ...
ROW AC : ... .. . ... ... : ... .. . ... ... : ... .. . ... : ... .. . ... : ... .. . ...
ROW AD : ... .. . ... ... : ... .. . ... ... : ... .. . ... : ... .. 1 ... : ... .. . ...
ROW AE : ... .. . ... ... : ... .. . ... ... : D-4 00 . ... : ... .. 0 ... : ... .. . ...
ROW AF : ... .. . ... ... : ... .. . ... ... : A-3 00 . ... : ... .. . ... : ... .. . ...
ROW B0 : ... .. . ... ... : ... .. . ... ... : --- .. . ... : 7-# 00 5 ... : ... .. . ...
ROW B1 : ... .. . ... ... : ... .. . ... ... : D-4 00 . ... : 6-# 00 4 ... : ... .. . ...
ROW B2 : ... .. . ... ... : ... .. . ... ... : A-3 00 . ... : 7-# 00 3 ... : ... .. . ...
ROW B3 : ... .. . ... ... : ... .. . ... ... : --- .. . ... : ... .. 2 ... : ... .. . ...
ROW B4 : ... .. . ... ... : ... .. . ... ... : D-4 00 . ... : ... .. . ... : ... .. . ...
ROW B5 : ... .. . ... ... : ... .. . ... ... : C#4 00 . ... : ... .. 1 ... : ... .. . ...
ROW B6 : ... .. . ... ... : ... .. . ... ... : B-3 00 . ... : ... .. 0 ... : ... .. . ...
ROW B7 : ... .. . ... ... : ... .. . ... ... : A-3 00 . ... : ... .. . ... : ... .. . ...
ROW B8 : ... .. . ... ... : ... .. . ... ... : G#3 00 . ... : 3-# 00 5 ... : ... .. . ...
ROW B9 : ... .. . ... ... : ... .. . ... ... : --- .. . ... : 2-# 00 4 ... : ... .. . ...
ROW BA : ... .. . ... ... : ... .. . ... ... : D-2 00 . ... : 3-# 00 3 ... : ... .. . ...
ROW BB : ... .. . ... ... : ... .. . ... ... : ... .. . ... : ... .. 2 ... : ... .. . ...
ROW BC : ... .. . ... ... : ... .. . ... ... : ... .. . ... : ... .. . ... : ... .. . ...
ROW BD : ... .. . ... ... : ... .. . ... ... : ... .. . ... : ... .. 1 ... : ... .. . ...
ROW BE : ... .. . ... ... : ... .. . ... ... : ... .. . ... : ... .. 0 ... : ... .. . ...
ROW BF : ... .. . ... ... : ... .. . ... ... : --- .. . ... : ... .. . ... : ... .. . ...
ROW C0 : ... .. . ... ... : ... .. . ... ... : ... .. . ... : 7-# 00 5 ... : ... .. . ...
ROW C1 : ... .. . ... ... : ... .. . ... ... : ... .. . ... : 6-# 00 4 ... : ... .. . ...
ROW C2 : ... .. . ... ... : ... .. . ... ... : ... .. . ... : 7-# 00 3 ... : ... .. . ...
ROW C3 : ... .. . ... ... : ... .. . ... ... : ... .. . ... : ... .. 2 ... : ... .. . ...
ROW C4 : ... .. . ... ... : ... .. . ... ... : ... .. . ... : ... .. . ... : ... .. . ...
ROW C5 : ... .. . ... ... : ... .. . ... ... : ... .. . ... : ... .. 1 ... : ... .. . ...
ROW C6 : ... .. . ... ... : ... .. . ... ... : ... .. . ... : ... .. 0 ... : ... .. . ...
ROW C7 : ... .. . ... ... : ... .. . ... ... : ... .. . ... : ... .. . ... : ... .. . ...
ROW C8 : ... .. . ... ... : ... .. . ... ... : ... .. . ... : 3-# 00 5 ... : ... .. . ...
ROW C9 : ... .. . ... ... : ... .. . ... ... : ... .. . ... : 2-# 00 4 ... : ... .. . ...
ROW CA : ... .. . ... ... : ... .. . ... ... : ... .. . ... : 3-# 00 3 ... : ... .. . ...
ROW CB : ... .. . ... ... : ... .. . ... ... : ... .. . ... : ... .. 2 ... : ... .. . ...
ROW CC : ... .. . ... ... : ... .. . ... ... : ... .. . ... : ... .. . ... : ... .. . ...
ROW CD : ... .. . ... ... : ... .. . ... ... : ... .. . ... : ... .. 1 ... : ... .. . ...
ROW CE : ... .. . ... ... : ... .. . ... ... : ... .. . ... : ... .. 0 ... : ... .. . ...
ROW CF : ... .. . ... ... : ... .. . ... ... : ... .. . ... : ... .. . ... : ... .. . ...
ROW D0 : ... .. . ... ... : ... .. . ... ... : ... .. . ... : 3-# 00 5 ... : ... .. . ...
ROW D1 : ... .. . ... ... : ... .. . ... ... : ... .. . ... : 2-# 00 4 ... : ... .. . ...
ROW D2 : ... .. . ... ... : ... .. . ... ... : ... .. . ... : 3-# 00 3 ... : ... .. . ...
ROW D3 : ... .. . ... ... : ... .. . ... ... : ... .. . ... : ... .. 2 ... : ... .. . ...
ROW D4 : ... .. . ... ... : ... .. . ... ... : ... .. . ... : ... .. . ... : ... .. . ...
ROW D5 : ... .. . ... ... : ... .. . ... ... : ... .. . ... : ... .. 1 ... : ... .. . ...
ROW D6 : ... .. . ... ... : ... .. . ... ... : ... .. . ... : ... .. 0 ... : ... .. . ...
ROW D7 : ... .. . ... ... : ... .. . ... ... : ... .. . ... : ... .. . ... : ... .. . ...
ROW D8 : ... .. . ... ... : ... .. . ... ... : ... .. . ... : 7-# 00 5 ... : ... .. . ...
ROW D9 : ... .. . ... ... : ... .. . ... ... : ... .. . ... : 6-# 00 4 ... : ... .. . ...
ROW DA : ... .. . ... ... : ... .. . ... ... : ... .. . ... : 7-# 00 3 ... : ... .. . ...
ROW DB : ... .. . ... ... : ... .. . ... ... : ... .. . ... : ... .. 2 ... : ... .. . ...
ROW DC : ... .. . ... ... : ... .. . ... ... : ... .. . ... : ... .. . ... : ... .. . ...
ROW DD : ... .. . ... ... : ... .. . ... ... : ... .. . ... : ... .. 1 ... : ... .. . ...
ROW DE : ... .. . ... ... : ... .. . ... ... : ... .. . ... : ... .. 0 ... : ... .. . ...
ROW DF : ... .. . ... ... : ... .. . ... ... : ... .. . ... : ... .. . ... : ... .. . ...
ROW E0 : ... .. . ... ... : ... .. . ... ... : ... .. . ... : 7-# 00 5 ... : ... .. . ...
ROW E1 : ... .. . ... ... : ... .. . ... ... : ... .. . ... : 6-# 00 4 ... : ... .. . ...
ROW E2 : ... .. . ... ... : ... .. . ... ... : ... .. . ... : 7-# 00 3 ... : ... .. . ...
ROW E3 : ... .. . ... ... : ... .. . ... ... : ... .. . ... : ... .. 2 ... : ... .. . ...
ROW E4 : ... .. . ... ... : ... .. . ... ... : ... .. . ... : ... .. . ... : ... .. . ...
ROW E5 : ... .. . ... ... : ... .. . ... ... : ... .. . ... : ... .. 1 ... : ... .. . ...
ROW E6 : ... .. . ... ... : ... .. . ... ... : ... .. . ... : ... .. 0 ... : ... .. . ...
ROW E7 : ... .. . ... ... : ... .. . ... ... : ... .. . ... : ... .. . ... : ... .. . ...
ROW E8 : ... .. . ... ... : ... .. . ... ... : ... .. . ... : 3-# 00 5 ... : ... .. . ...
ROW E9 : ... .. . ... ... : ... .. . ... ... : ... .. . ... : 2-# 00 4 ... : ... .. . ...
ROW EA : ... .. . ... ... : ... .. . ... ... : ... .. . ... : 3-# 00 3 ... : ... .. . ...
ROW EB : ... .. . ... ... : ... .. . ... ... : ... .. . ... : ... .. 2 ... : ... .. . ...
ROW EC : ... .. . ... ... : ... .. . ... ... : ... .. . ... : ... .. . ... : ... .. . ...
ROW ED : ... .. . ... ... : ... .. . ... ... : ... .. . ... : ... .. 1 ... : ... .. . ...
ROW EE : ... .. . ... ... : ... .. . ... ... : ... .. . ... : ... .. 0 ... : ... .. . ...
ROW EF : ... .. . ... ... : ... .. . ... ... : ... .. . ... : ... .. . ... : ... .. . ...
ROW F0 : ... .. . ... ... : ... .. . ... ... : ... .. . ... : 7-# 00 5 ... : ... .. . ...
ROW F1 : ... .. . ... ... : ... .. . ... ... : ... .. . ... : 6-# 00 4 ... : ... .. . ...
ROW F2 : ... .. . ... ... : ... .. . ... ... : ... .. . ... : 7-# 00 3 ... : ... .. . ...
ROW F3 : ... .. . ... ... : ... .. . ... ... : ... .. . ... : ... .. 2 ... : ... .. . ...
ROW F4 : ... .. . ... ... : ... .. . ... ... : ... .. . ... : ... .. . ... : ... .. . ...
ROW F5 : ... .. . ... ... : ... .. . ... ... : ... .. . ... : ... .. 1 ... : ... .. . ...
ROW F6 : ... .. . ... ... : ... .. . ... ... : ... .. . ... : ... .. 0 ... : ... .. . ...
ROW F7 : ... .. . ... ... : ... .. . ... ... : ... .. . ... : ... .. . ... : ... .. . ...
ROW F8 : ... .. . ... ... : ... .. . ... ... : ... .. . ... : ... .. . ... : ... .. . ...
ROW F9 : ... .. . ... ... : ... .. . ... ... : ... .. . ... : ... .. . ... : ... .. . ...
ROW FA : ... .. . ... ... : ... .. . ... ... : ... .. . ... : ... .. . ... : ... .. . ...
ROW FB : ... .. . ... ... : ... .. . ... ... : ... .. . ... : ... .. . ... : ... .. . ...
ROW FC : ... .. . ... ... : ... .. . ... ... : ... .. . ... : ... .. . ... : ... .. . ...
ROW FD : ... .. . ... ... : ... .. . ... ... : ... .. . ... : ... .. . ... : ... .. . ...
ROW FE : ... .. . ... ... : ... .. . ... ... : ... .. . ... : ... .. . ... : ... .. . ...
ROW FF : ... .. . ... ... : ... .. . ... ... : ... .. . ... : ... .. . ... : ... .. . ...

PATTERN 08
ROW 00 : A-1 00 D V03 P7C : F#1 00 D V03 P82 : E-2 00 . ... : A-# 00 7 ... : C-5 00 . ...
ROW 01 : F#2 00 . V00 ... : C#2 00 . V00 ... : ... .. . ... : ... .. 5 ... : ... .. . ...
ROW 02 : ... .. . V01 ... : ... .. . V01 ... : ... .. . ... : ... .. 3 ... : ... .. . ...
ROW 03 : ... .. 4 V00 ... : ... .. 4 V00 ... : ... .. . ... : ... .. 1 ... : ... .. . ...
ROW 04 : ... .. 2 ... ... : ... .. 2 ... ... : ... .. . ... : A-# 00 7 ... : ... .. . ...
ROW 05 : ... .. 1 ... ... : ... .. 1 ... ... : --- .. . ... : ... .. 5 ... : ... .. . ...
ROW 06 : A-1 00 D V03 ... : F#1 00 D V03 ... : E-2 00 . ... : ... .. 3 ... : ... .. . ...
ROW 07 : F#2 00 . V00 ... : C#2 00 . V00 ... : ... .. . ... : ... .. 1 ... : ... .. . ...
ROW 08 : ... .. . V01 ... : ... .. . V01 ... : ... .. . ... : A-# 00 7 ... : ... .. . ...
ROW 09 : ... .. 4 V00 ... : ... .. 4 V00 ... : ... .. . ... : ... .. 5 ... : ... .. . ...
ROW 0A : ... .. 2 ... ... : ... .. 2 ... ... : ... .. . ... : ... .. 3 ... : ... .. . ...
ROW 0B : ... .. 1 ... ... : ... .. 1 ... ... : --- .. . ... : ... .. 1 ... : ... .. . ...
ROW 0C : A-1 00 D V03 ... : F#1 00 D V03 ... : E-2 00 . ... : A-# 00 7 ... : ... .. . ...
ROW 0D : F#2 00 . V00 ... : C#2 00 . V00 ... : ... .. . ... : ... .. 5 ... : ... .. . ...
ROW 0E : ... .. . V01 ... : ... .. . V01 ... : ... .. . ... : ... .. 3 ... : ... .. . ...
ROW 0F : ... .. 4 V00 ... : ... .. 4 V00 ... : ... .. . ... : ... .. 1 ... : ... .. . ...
ROW 10 : ... .. 2 ... ... : ... .. 2 ... ... : ... .. . ... : A-# 00 7 ... : ... .. . ...
ROW 11 : ... .. 1 ... ... : ... .. 1 ... ... : --- .. . ... : ... .. 5 ... : ... .. . ...
ROW 12 : A-1 00 D V03 ... : F#1 00 D V03 ... : E-2 00 . ... : ... .. 3 ... : ... .. . ...
ROW 13 : F#2 00 . V00 ... : C#2 00 . V00 ... : ... .. . ... : ... .. 1 ... : ... .. . ...
ROW 14 : ... .. . V01 ... : ... .. . V01 ... : ... .. . ... : A-# 00 7 ... : ... .. . ...
ROW 15 : ... .. 4 V00 ... : ... .. 4 V00 ... : ... .. . ... : ... .. 5 ... : ... .. . ...
ROW 16 : ... .. 2 ... ... : ... .. 2 ... ... : ... .. . ... : ... .. 3 ... : ... .. . ...
ROW 17 : ... .. 1 ... ... : ... .. 1 ... ... : ... .. . ... : ... .. 1 ... : ... .. . ...
ROW 18 : ... .. . ... ... : ... .. . ... ... : --- .. . ... : ... .. . ... : ... .. . ...
ROW 19 : ... .. . ... ... : ... .. . ... ... : ... .. . ... : ... .. . ... : ... .. . ...
ROW 1A : ... .. . ... ... : ... .. . ... ... : ... .. . ... : ... .. . ... : ... .. . ...
ROW 1B : ... .. . ... ... : ... .. . ... ... : ... .. . ... : ... .. . ... : ... .. . ...
ROW 1C : ... .. . ... ... : ... .. . ... ... : ... .. . ... : ... .. . ... : ... .. . ...
ROW 1D : ... .. . ... ... : ... .. . ... ... : ... .. . ... : ... .. . ... : ... .. . ...
ROW 1E : A-1 00 D V03 ... : F#1 00 D V03 ... : E-2 00 . ... : ... .. . ... : C-5 00 . ...
ROW 1F : F#2 00 . V00 ... : C#2 00 . V00 ... : ... .. . ... : ... .. . ... : ... .. . ...
ROW 20 : ... .. . V01 ... : ... .. . V01 ... : ... .. . ... : ... .. . ... : ... .. . ...
ROW 21 : ... .. 4 V00 ... : ... .. 4 V00 ... : ... .. . ... : ... .. . ... : ... .. . ...
ROW 22 : ... .. 2 ... ... : ... .. 2 ... ... : ... .. . ... : ... .. . ... : ... .. . ...
ROW 23 : ... .. 1 ... ... : ... .. 1 ... ... : --- .. . ... : ... .. . ... : ... .. . ...
ROW 24 : A-1 00 D V03 ... : F#1 00 D V03 ... : E-2 00 . ... : ... .. . ... : C-5 00 . ...
ROW 25 : F#2 00 . V00 ... : C#2 00 . V00 ... : ... .. . ... : ... .. . ... : ... .. . ...
ROW 26 : ... .. . V01 ... : ... .. . V01 ... : ... .. . ... : ... .. . ... : ... .. . ...
ROW 27 : ... .. 4 V00 ... : ... .. 4 V00 ... : ... .. . ... : ... .. . ... : ... .. . ...
ROW 28 : ... .. 2 ... ... : ... .. 2 ... ... : ... .. . ... : ... .. . ... : ... .. . ...
ROW 29 : ... .. 1 ... ... : ... .. 1 ... ... : --- .. . ... : ... .. . ... : ... .. . ...
ROW 2A : A-1 00 D V03 ... : F#1 00 D V03 ... : E-2 00 . ... : ... .. . ... : ... .. . ...
ROW 2B : F#2 00 . V00 ... : C#2 00 . V00 ... : ... .. . ... : ... .. . ... : ... .. . ...
ROW 2C : ... .. . V01 ... : ... .. . V01 ... : ... .. . ... : ... .. . ... : ... .. . ...
ROW 2D : ... .. 4 V00 ... : ... .. 4 V00 ... : ... .. . ... : ... .. . ... : ... .. . ...
ROW 2E : ... .. 2 ... ... : ... .. 2 ... ... : ... .. . ... : ... .. . ... : ... .. . ...
ROW 2F : ... .. 1 ... ... : ... .. 1 ... ... : --- .. . ... : ... .. . ... : ... .. . ...
ROW 30 : A-1 00 D V03 ... : F#1 00 D V03 ... : E-2 00 . ... : ... .. . ... : C-5 00 . ...
ROW 31 : F#2 00 . V00 ... : C#2 00 . V00 ... : ... .. . ... : ... .. . ... : ... .. . ...
ROW 32 : ... .. . V01 ... : ... .. . V01 ... : ... .. . ... : ... .. . ... : ... .. . ...
ROW 33 : ... .. 4 V00 ... : ... .. 4 V00 ... : ... .. . ... : ... .. . ... : ... .. . ...
ROW 34 : ... .. 2 ... ... : ... .. 2 ... ... : ... .. . ... : ... .. . ... : ... .. . ...
ROW 35 : ... .. 1 ... ... : ... .. 1 ... ... : --- .. . ... : ... .. . ... : ... .. . ...
ROW 36 : A-1 00 D V03 ... : F#1 00 D V03 ... : E-2 00 . ... : ... .. . ... : ... .. . ...
ROW 37 : F#2 00 . V00 ... : C#2 00 . V00 ... : ... .. . ... : ... .. . ... : ... .. . ...
ROW 38 : ... .. . V01 ... : ... .. . V01 ... : ... .. . ... : ... .. . ... : ... .. . ...
ROW 39 : ... .. 4 V00 ... : ... .. 4 V00 ... : ... .. . ... : ... .. . ... : ... .. . ...
ROW 3A : ... .. 2 ... ... : ... .. 2 ... ... : ... .. . ... : ... .. . ... : ... .. . ...
ROW 3B : ... .. 1 ... ... : ... .. 1 ... ... : --- .. . ... : ... .. . ... : ... .. . ...
ROW 3C : A-1 00 D V03 ... : F#1 00 D V03 ... : E-2 00 . ... : ... .. . ... : ... .. . ...
ROW 3D : F#2 00 . V00 ... : C#2 00 . V00 ... : ... .. . ... : ... .. . ... : ... .. . ...
ROW 3E : ... .. . V01 ... : ... .. . V01 ... : ... .. . ... : ... .. . ... : ... .. . ...
ROW 3F : ... .. 4 V00 ... : ... .. 4 V00 ... : ... .. . ... : ... .. . ... : ... .. . ...
ROW 40 : ... .. 2 ... ... : ... .. 2 ... ... : ... .. . ... : ... .. . ... : ... .. . ...
ROW 41 : ... .. 1 ... ... : ... .. 1 ... ... : --- .. . ... : ... .. . ... : ... .. . ...
ROW 42 : A-1 00 D V03 ... : F#1 00 D V03 ... : E-2 00 . ... : ... .. . ... : ... .. . ...
ROW 43 : F#2 00 . V00 ... : C#2 00 . V00 ... : ... .. . ... : ... .. . ... : ... .. . ...
ROW 44 : ... .. . V01 ... : ... .. . V01 ... : ... .. . ... : ... .. . ... : ... .. . ...
ROW 45 : ... .. 4 V00 ... : ... .. 4 V00 ... : ... .. . ... : ... .. . ... : ... .. . ...
ROW 46 : ... .. 2 ... ... : ... .. 2 ... ... : ... .. . ... : ... .. . ... : ... .. . ...
ROW 47 : ... .. 1 ... ... : ... .. 1 ... ... : ... .. . ... : ... .. . ... : ... .. . ...
ROW 48 : ... .. . ... ... : ... .. . ... ... : --- .. . ... : ... .. . ... : ... .. . ...
ROW 49 : ... .. . ... ... : ... .. . ... ... : ... .. . ... : ... .. . ... : ... .. . ...
ROW 4A : ... .. . ... ... : ... .. . ... ... : ... .. . ... : ... .. . ... : ... .. . ...
ROW 4B : ... .. . ... ... : ... .. . ... ... : ... .. . ... : ... .. . ... : ... .. . ...
ROW 4C : ... .. . ... ... : ... .. . ... ... : ... .. . ... : ... .. . ... : ... .. . ...
ROW 4D : ... .. . ... ... : ... .. . ... ... : ... .. . ... : ... .. . ... : ... .. . ...
ROW 4E : A-1 00 D V03 ... : F#1 00 D V03 ... : E-2 00 . ... : ... .. . ... : C-5 00 . ...
ROW 4F : F#2 00 . V00 ... : C#2 00 . V00 ... : ... .. . ... : ... .. . ... : ... .. . ...
ROW 50 : ... .. . V01 ... : ... .. . V01 ... : ... .. . ... : ... .. . ... : ... .. . ...
ROW 51 : ... .. 4 V00 ... : ... .. 4 V00 ... : ... .. . ... : ... .. . ... : ... .. . ...
ROW 52 : ... .. 2 ... ... : ... .. 2 ... ... : ... .. . ... : ... .. . ... : ... .. . ...
ROW 53 : ... .. 1 ... ... : ... .. 1 ... ... : --- .. . ... : ... .. . ... : ... .. . ...
ROW 54 : A-1 00 D V03 ... : F#1 00 D V03 ... : E-2 00 . ... : ... .. . ... : C-5 00 . ...
ROW 55 : F#2 00 . V00 ... : C#2 00 . V00 ... : ... .. . ... : ... .. . ... : ... .. . ...
ROW 56 : ... .. . V01 ... : ... .. . V01 ... : ... .. . ... : ... .. . ... : ... .. . ...
ROW 57 : ... .. 4 V00 ... : ... .. 4 V00 ... : ... .. . ... : ... .. . ... : ... .. . ...
ROW 58 : ... .. 2 ... ... : ... .. 2 ... ... : ... .. . ... : ... .. . ... : ... .. . ...
ROW 59 : ... .. 1 ... ... : ... .. 1 ... ... : --- .. . ... : ... .. . ... : ... .. . ...
ROW 5A : A-1 00 D V03 ... : F#1 00 D V03 ... : E-2 00 . ... : ... .. . ... : ... .. . ...
ROW 5B : F#2 00 . V00 ... : C#2 00 . V00 ... : ... .. . ... : ... .. . ... : ... .. . ...
ROW 5C : ... .. . V01 ... : ... .. . V01 ... : ... .. . ... : ... .. . ... : ... .. . ...
ROW 5D : ... .. 4 V00 ... : ... .. 4 V00 ... : ... .. . ... : ... .. . ... : ... .. . ...
ROW 5E : ... .. 2 ... ... : ... .. 2 ... ... : ... .. . ... : ... .. . ... : ... .. . ...
ROW 5F : ... .. 1 ... ... : ... .. 1 ... ... : --- .. . ... : ... .. . ... : ... .. . ...
ROW 60 : A-1 00 D V03 ... : F#1 00 D V03 ... : C#2 00 . ... : ... .. . ... : C-5 00 . ...
ROW 61 : F#2 00 . V00 ... : D-2 00 . V00 ... : ... .. . ... : ... .. . ... : ... .. . ...
ROW 62 : ... .. . V01 ... : ... .. . V01 ... : ... .. . ... : ... .. . ... : ... .. . ...
ROW 63 : ... .. 4 V00 ... : ... .. 4 V00 ... : ... .. . ... : ... .. 4 ... : ... .. . ...
ROW 64 : ... .. 2 ... ... : ... .. 2 ... ... : ... .. . ... : ... .. . ... : ... .. . ...
ROW 65 : ... .. 1 ... ... : ... .. 1 ... ... : --- .. . ... : ... .. . ... : ... .. . ...
ROW 66 : A-1 00 D V03 ... : F#1 00 D V03 ... : C#2 00 . ... : ... .. 3 ... : ... .. . ...
ROW 67 : F#2 00 . V00 ... : D-2 00 . V00 ... : ... .. . ... : ... .. . ... : ... .. . ...
ROW 68 : ... .. . V01 ... : ... .. . V01 ... : ... .. . ... : ... .. . ... : ... .. . ...
ROW 69 : ... .. 4 V00 ... : ... .. 4 V00 ... : ... .. . ... : ... .. 2 ... : ... .. . ...
ROW 6A : ... .. 2 ... ... : ... .. 2 ... ... : ... .. . ... : ... .. . ... : ... .. . ...
ROW 6B : ... .. 1 ... ... : ... .. 1 ... ... : --- .. . ... : ... .. . ... : ... .. . ...
ROW 6C : A-1 00 D V03 ... : F#1 00 D V03 ... : C#2 00 . ... : ... .. 1 ... : ... .. . ...
ROW 6D : F#2 00 . V00 ... : D-2 00 . V00 ... : ... .. . ... : ... .. . ... : ... .. . ...
ROW 6E : ... .. . V01 ... : ... .. . V01 ... : ... .. . ... : ... .. . ... : ... .. . ...
ROW 6F : ... .. 4 V00 ... : ... .. 4 V00 ... : ... .. . ... : ... .. . ... : ... .. . ...
ROW 70 : ... .. 2 ... ... : ... .. 2 ... ... : ... .. . ... : ... .. . ... : ... .. . ...
ROW 71 : ... .. 1 ... ... : ... .. 1 ... ... : --- .. . ... : ... .. . ... : ... .. . ...
ROW 72 : A-1 00 D V03 ... : F#1 00 D V03 ... : C#2 00 . ... : ... .. . ... : ... .. . ...
ROW 73 : F#2 00 . V00 ... : D-2 00 . V00 ... : ... .. . ... : ... .. . ... : ... .. . ...
ROW 74 : ... .. . V01 ... : ... .. . V01 ... : ... .. . ... : ... .. . ... : ... .. . ...
ROW 75 : ... .. 4 V00 ... : ... .. 4 V00 ... : ... .. . ... : ... .. . ... : ... .. . ...
ROW 76 : ... .. 2 ... ... : ... .. 2 ... ... : ... .. . ... : ... .. . ... : ... .. . ...
ROW 77 : ... .. 1 ... ... : ... .. 1 ... ... : ... .. . ... : ... .. . ... : ... .. . ...
ROW 78 : ... .. . ... ... : ... .. . ... ... : --- .. . ... : ... .. . ... : ... .. . ...
ROW 79 : ... .. . ... ... : ... .. . ... ... : ... .. . ... : ... .. . ... : ... .. . ...
ROW 7A : ... .. . ... ... : ... .. . ... ... : ... .. . ... : ... .. . ... : ... .. . ...
ROW 7B : ... .. . ... ... : ... .. . ... ... : ... .. . ... : ... .. . ... : ... .. . ...
ROW 7C : ... .. . ... ... : ... .. . ... ... : ... .. . ... : ... .. . ... : ... .. . ...
ROW 7D : ... .. . ... ... : ... .. . ... ... : ... .. . ... : ... .. . ... : ... .. . ...
ROW 7E : A-1 00 D V03 ... : F#1 00 D V03 ... : C#2 00 . ... : ... .. . ... : C-5 00 . ...
ROW 7F : F#2 00 . V00 ... : D-2 00 . V00 ... : ... .. . ... : ... .. . ... : ... .. . ...
ROW 80 : ... .. . V01 ... : ... .. . V01 ... : ... .. . ... : ... .. . ... : ... .. . ...
ROW 81 : ... .. 4 V00 ... : ... .. 4 V00 ... : ... .. . ... : ... .. . ... : ... .. . ...
ROW 82 : ... .. 2 ... ... : ... .. 2 ... ... : ... .. . ... : ... .. . ... : ... .. . ...
ROW 83 : ... .. 1 ... ... : ... .. 1 ... ... : --- .. . ... : ... .. . ... : ... .. . ...
ROW 84 : A-1 00 D V03 ... : F#1 00 D V03 ... : C#2 00 . ... : ... .. . ... : C-5 00 . ...
ROW 85 : F#2 00 . V00 ... : D-2 00 . V00 ... : ... .. . ... : ... .. . ... : ... .. . ...
ROW 86 : ... .. . V01 ... : ... .. . V01 ... : ... .. . ... : ... .. . ... : ... .. . ...
ROW 87 : ... .. 4 V00 ... : ... .. 4 V00 ... : ... .. . ... : ... .. . ... : ... .. . ...
ROW 88 : ... .. 2 ... ... : ... .. 2 ... ... : ... .. . ... : ... .. . ... : ... .. . ...
ROW 89 : ... .. 1 ... ... : ... .. 1 ... ... : --- .. . ... : ... .. . ... : ... .. . ...
ROW 8A : A-1 00 D V03 ... : F#1 00 D V03 ... : C#2 00 . ... : ... .. . ... : ... .. . ...
ROW 8B : F#2 00 . V00 ... : D-2 00 . V00 ... : ... .. . ... : ... .. . ... : ... .. . ...
ROW 8C : ... .. . V01 ... : ... .. . V01 ... : ... .. . ... : ... .. . ... : ... .. . ...
ROW 8D : ... .. 4 V00 ... : ... .. 4 V00 ... : ... .. . ... : ... .. . ... : ... .. . ...
ROW 8E : ... .. 2 ... ... : ... .. 2 ... ... : ... .. . ... : ... .. . ... : ... .. . ...
ROW 8F : ... .. 1 ... ... : ... .. 1 ... ... : --- .. . ... : ... .. . ... : ... .. . ...
ROW 90 : A-1 00 D V03 ... : F#1 00 D V03 ... : C#2 00 . ... : ... .. . ... : C-5 00 . ...
ROW 91 : F#2 00 . V00 ... : D-2 00 . V00 ... : ... .. . ... : ... .. . ... : ... .. . ...
ROW 92 : ... .. . V01 ... : ... .. . V01 ... : ... .. . ... : ... .. . ... : ... .. . ...
ROW 93 : ... .. 4 V00 ... : ... .. 4 V00 ... : ... .. . ... : ... .. . ... : ... .. . ...
ROW 94 : ... .. 2 ... ... : ... .. 2 ... ... : ... .. . ... : ... .. . ... : ... .. . ...
ROW 95 : ... .. 1 ... ... : ... .. 1 ... ... : --- .. . ... : ... .. . ... : ... .. . ...
ROW 96 : A-1 00 D V03 ... : F#1 00 D V03 ... : C#2 00 . ... : ... .. . ... : ... .. . ...
ROW 97 : F#2 00 . V00 ... : D-2 00 . V00 ... : ... .. . ... : ... .. . ... : ... .. . ...
ROW 98 : ... .. . V01 ... : ... .. . V01 ... : ... .. . ... : ... .. . ... : ... .. . ...
ROW 99 : ... .. 4 V00 ... : ... .. 4 V00 ... : ... .. . ... : ... .. . ... : ... .. . ...
ROW 9A : ... .. 2 ... ... : ... .. 2 ... ... : ... .. . ... : ... .. . ... : ... .. . ...
ROW 9B : ... .. 1 ... ... : ... .. 1 ... ... : --- .. . ... : ... .. . ... : ... .. . ...
ROW 9C : A-1 00 D V03 ... : F#1 00 D V03 ... : C#2 00 . ... : ... .. . ... : ... .. . ...
ROW 9D : F#2 00 . V00 ... : D-2 00 . V00 ... : ... .. . ... : ... .. . ... : ... .. . ...
ROW 9E : ... .. . V01 ... : ... .. . V01 ... : ... .. . ... : ... .. . ... : ... .. . ...
ROW 9F : ... .. 4 V00 ... : ... .. 4 V00 ... : ... .. . ... : ... .. . ... : ... .. . ...
ROW A0 : ... .. 2 ... ... : ... .. 2 ... ... : ... .. . ... : ... .. . ... : ... .. . ...
ROW A1 : ... .. 1 ... ... : ... .. 1 ... ... : --- .. . ... : ... .. . ... : ... .. . ...
ROW A2 : A-1 00 D V03 ... : F#1 00 D V03 ... : C#2 00 . ... : ... .. . ... : ... .. . ...
ROW A3 : F#2 00 . V00 ... : D-2 00 . V00 ... : ... .. . ... : ... .. . ... : ... .. . ...
ROW A4 : ... .. . V01 ... : ... .. . V01 ... : ... .. . ... : ... .. . ... : ... .. . ...
ROW A5 : ... .. 4 V00 ... : ... .. 4 V00 ... : ... .. . ... : ... .. . ... : ... .. . ...
ROW A6 : ... .. 2 ... ... : ... .. 2 ... ... : ... .. . ... : ... .. . ... : ... .. . ...
ROW A7 : ... .. 1 ... ... : ... .. 1 ... ... : ... .. . ... : ... .. . ... : ... .. . ...
ROW A8 : ... .. . ... ... : ... .. . ... ... : --- .. . ... : ... .. . ... : ... .. . ...
ROW A9 : ... .. . ... ... : ... .. . ... ... : ... .. . ... : ... .. . ... : ... .. . ...
ROW AA : ... .. . ... ... : ... .. . ... ... : ... .. . ... : ... .. . ... : ... .. . ...
ROW AB : ... .. . ... ... : ... .. . ... ... : ... .. . ... : ... .. . ... : ... .. . ...
ROW AC : ... .. . ... ... : ... .. . ... ... : ... .. . ... : ... .. . ... : ... .. . ...
ROW AD : ... .. . ... ... : ... .. . ... ... : ... .. . ... : ... .. . ... : ... .. . ...
ROW AE : A-1 00 D V03 ... : F#1 00 D V03 ... : C#2 00 . ... : ... .. . ... : C-5 00 . ...
ROW AF : F#2 00 . V00 ... : D-2 00 . V00 ... : ... .. . ... : ... .. . ... : ... .. . ...
ROW B0 : ... .. . V01 ... : ... .. . V01 ... : ... .. . ... : ... .. . ... : ... .. . ...
ROW B1 : ... .. 4 V00 ... : ... .. 4 V00 ... : ... .. . ... : ... .. . ... : ... .. . ...
ROW B2 : ... .. 2 ... ... : ... .. 2 ... ... : ... .. . ... : ... .. . ... : ... .. . ...
ROW B3 : ... .. 1 ... ... : ... .. 1 ... ... : --- .. . ... : ... .. . ... : ... .. . ...
ROW B4 : A-1 00 D V03 ... : F#1 00 D V03 ... : C#2 00 . ... : ... .. . ... : C-5 00 . ...
ROW B5 : F#2 00 . V00 ... : D-2 00 . V00 ... : ... .. . ... : ... .. . ... : ... .. . ...
ROW B6 : ... .. . V01 ... : ... .. . V01 ... : ... .. . ... : ... .. . ... : ... .. . ...
ROW B7 : ... .. 4 V00 ... : ... .. 4 V00 ... : ... .. . ... : ... .. . ... : ... .. . ...
ROW B8 : ... .. 2 ... ... : ... .. 2 ... ... : ... .. . ... : ... .. . ... : ... .. . ...
ROW B9 : ... .. 1 ... ... : ... .. 1 ... ... : --- .. . ... : ... .. . ... : ... .. . ...
ROW BA : A-1 00 D V03 ... : F#1 00 D V03 ... : C#2 00 . ... : ... .. . ... : ... .. . ...
ROW BB : F#2 00 . V00 ... : D-2 00 . V00 ... : ... .. . ... : ... .. . ... : ... .. . ...
ROW BC : ... .. . V01 ... : ... .. . V01 ... : ... .. . ... : ... .. . ... : ... .. . ...
ROW BD : ... .. 4 V00 ... : ... .. 4 V00 ... : ... .. . ... : ... .. . ... : ... .. . ...
ROW BE : ... .. 2 ... ... : ... .. 2 ... ... : ... .. . ... : ... .. . ... : ... .. . ...
ROW BF : ... .. 1 ... ... : ... .. 1 ... ... : --- .. . ... : ... .. . ... : ... .. . D00
ROW C0 : ... .. . ... ... : ... .. . ... ... : ... .. . ... : ... .. . ... : ... .. . ...
ROW C1 : ... .. . ... ... : ... .. . ... ... : ... .. . ... : ... .. . ... : ... .. . ...
ROW C2 : ... .. . ... ... : ... .. . ... ... : ... .. . ... : ... .. . ... : ... .. . ...
ROW C3 : ... .. . ... ... : ... .. . ... ... : ... .. . ... : ... .. . ... : ... .. . ...
ROW C4 : ... .. . ... ... : ... .. . ... ... : ... .. . ... : ... .. . ... : ... .. . ...
ROW C5 : ... .. . ... ... : ... .. . ... ... : ... .. . ... : ... .. . ... : ... .. . ...
ROW C6 : ... .. . ... ... : ... .. . ... ... : ... .. . ... : ... .. . ... : ... .. . ...
ROW C7 : ... .. . ... ... : ... .. . ... ... : ... .. . ... : ... .. . ... : ... .. . ...
ROW C8 : ... .. . ... ... : ... .. . ... ... : ... .. . ... : ... .. . ... : ... .. . ...
ROW C9 : ... .. . ... ... : ... .. . ... ... : ... .. . ... : ... .. . ... : ... .. . ...
ROW CA : ... .. . ... ... : ... .. . ... ... : ... .. . ... : ... .. . ... : ... .. . ...
ROW CB : ... .. . ... ... : ... .. . ... ... : ... .. . ... : ... .. . ... : ... .. . ...
ROW CC : ... .. . ... ... : ... .. . ... ... : ... .. . ... : ... .. . ... : ... .. . ...
ROW CD : ... .. . ... ... : ... .. . ... ... : ... .. . ... : ... .. . ... : ... .. . ...
ROW CE : ... .. . ... ... : ... .. . ... ... : ... .. . ... : ... .. . ... : ... .. . ...
ROW CF : ... .. . ... ... : ... .. . ... ... : ... .. . ... : ... .. . ... : ... .. . ...
ROW D0 : ... .. . ... ... : ... .. . ... ... : ... .. . ... : ... .. . ... : ... .. . ...
ROW D1 : ... .. . ... ... : ... .. . ... ... : ... .. . ... : ... .. . ... : ... .. . ...
ROW D2 : ... .. . ... ... : ... .. . ... ... : ... .. . ... : ... .. . ... : ... .. . ...
ROW D3 : ... .. . ... ... : ... .. . ... ... : ... .. . ... : ... .. . ... : ... .. . ...
ROW D4 : ... .. . ... ... : ... .. . ... ... : ... .. . ... : ... .. . ... : ... .. . ...
ROW D5 : ... .. . ... ... : ... .. . ... ... : ... .. . ... : ... .. . ... : ... .. . ...
ROW D6 : ... .. . ... ... : ... .. . ... ... : ... .. . ... : ... .. . ... : ... .. . ...
ROW D7 : ... .. . ... ... : ... .. . ... ... : ... .. . ... : ... .. . ... : ... .. . ...
ROW D8 : ... .. . ... ... : ... .. . ... ... : ... .. . ... : ... .. . ... : ... .. . ...
ROW D9 : ... .. . ... ... : ... .. . ... ... : ... .. . ... : ... .. . ... : ... .. . ...
ROW DA : ... .. . ... ... : ... .. . ... ... : ... .. . ... : ... .. . ... : ... .. . ...
ROW DB : ... .. . ... ... : ... .. . ... ... : ... .. . ... : ... .. . ... : ... .. . ...
ROW DC : ... .. . ... ... : ... .. . ... ... : ... .. . ... : ... .. . ... : ... .. . ...
ROW DD : ... .. . ... ... : ... .. . ... ... : ... .. . ... : ... .. . ... : ... .. . ...
ROW DE : ... .. . ... ... : ... .. . ... ... : ... .. . ... : ... .. . ... : ... .. . ...
ROW DF : ... .. . ... ... : ... .. . ... ... : ... .. . ... : ... .. . ... : ... .. . ...
ROW E0 : ... .. . ... ... : ... .. . ... ... : ... .. . ... : ... .. . ... : ... .. . ...
ROW E1 : ... .. . ... ... : ... .. . ... ... : ... .. . ... : ... .. . ... : ... .. . ...
ROW E2 : ... .. . ... ... : ... .. . ... ... : ... .. . ... : ... .. . ... : ... .. . ...
ROW E3 : ... .. . ... ... : ... .. . ... ... : ... .. . ... : ... .. . ... : ... .. . ...
ROW E4 : ... .. . ... ... : ... .. . ... ... : ... .. . ... : ... .. . ... : ... .. . ...
ROW E5 : ... .. . ... ... : ... .. . ... ... : ... .. . ... : ... .. . ... : ... .. . ...
ROW E6 : ... .. . ... ... : ... .. . ... ... : ... .. . ... : ... .. . ... : ... .. . ...
ROW E7 : ... .. . ... ... : ... .. . ... ... : ... .. . ... : ... .. . ... : ... .. . ...
ROW E8 : ... .. . ... ... : ... .. . ... ... : ... .. . ... : ... .. . ... : ... .. . ...
ROW E9 : ... .. . ... ... : ... .. . ... ... : ... .. . ... : ... .. . ... : ... .. . ...
ROW EA : ... .. . ... ... : ... .. . ... ... : ... .. . ... : ... .. . ... : ... .. . ...
ROW EB : ... .. . ... ... : ... .. . ... ... : ... .. . ... : ... .. . ... : ... .. . ...
ROW EC : ... .. . ... ... : ... .. . ... ... : ... .. . ... : ... .. . ... : ... .. . ...
ROW ED : ... .. . ... ... : ... .. . ... ... : ... .. . ... : ... .. . ... : ... .. . ...
ROW EE : ... .. . ... ... : ... .. . ... ... : ... .. . ... : ... .. . ... : ... .. . ...
ROW EF : ... .. . ... ... : ... .. . ... ... : ... .. . ... : ... .. . ... : ... .. . ...
ROW F0 : ... .. . ... ... : ... .. . ... ... : ... .. . ... : ... .. . ... : ... .. . ...
ROW F1 : ... .. . ... ... : ... .. . ... ... : ... .. . ... : ... .. . ... : ... .. . ...
ROW F2 : ... .. . ... ... : ... .. . ... ... : ... .. . ... : ... .. . ... : ... .. . ...
ROW F3 : ... .. . ... ... : ... .. . ... ... : ... .. . ... : ... .. . ... : ... .. . ...
ROW F4 : ... .. . ... ... : ... .. . ... ... : ... .. . ... : ... .. . ... : ... .. . ...
ROW F5 : ... .. . ... ... : ... .. . ... ... : ... .. . ... : ... .. . ... : ... .. . ...
ROW F6 : ... .. . ... ... : ... .. . ... ... : ... .. . ... : ... .. . ... : ... .. . ...
ROW F7 : ... .. . ... ... : ... .. . ... ... : ... .. . ... : ... .. . ... : ... .. . ...
ROW F8 : ... .. . ... ... : ... .. . ... ... : ... .. . ... : ... .. . ... : ... .. . ...
ROW F9 : ... .. . ... ... : ... .. . ... ... : ... .. . ... : ... .. . ... : ... .. . ...
ROW FA : ... .. . ... ... : ... .. . ... ... : ... .. . ... : ... .. . ... : ... .. . ...
ROW FB : ... .. . ... ... : ... .. . ... ... : ... .. . ... : ... .. . ... : ... .. . ...
ROW FC : ... .. . ... ... : ... .. . ... ... : ... .. . ... : ... .. . ... : ... .. . ...
ROW FD : ... .. . ... ... : ... .. . ... ... : ... .. . ... : ... .. . ... : ... .. . ...
ROW FE : ... .. . ... ... : ... .. . ... ... : ... .. . ... : ... .. . ... : ... .. . ...
ROW FF : ... .. . ... ... : ... .. . ... ... : ... .. . ... : ... .. . ... : ... .. . ...

PATTERN 09
ROW 00 : G#1 00 D V03 P7F : E-1 00 D V03 P81 : E-2 00 . ... : 4-# 00 A ... : C-5 00 . ...
ROW 01 : E-2 00 . V00 ... : B-1 00 . V00 ... : ... .. . ... : A-# 00 7 ... : ... .. . ...
ROW 02 : ... .. . V01 ... : ... .. . V01 ... : ... .. . ... : ... .. 6 ... : ... .. . ...
ROW 03 : ... .. 4 V00 ... : ... .. 4 V00 ... : ... .. . ... : ... .. 4 ... : ... .. . ...
ROW 04 : ... .. 2 ... ... : ... .. 2 ... ... : ... .. . ... : ... .. 2 ... : ... .. . ...
ROW 05 : ... .. 1 ... ... : ... .. 1 ... ... : --- .. . ... : ... .. 1 ... : ... .. . ...
ROW 06 : G#1 00 D V03 ... : E-1 00 D V03 ... : E-2 00 . ... : A-# 00 A ... : ... .. . ...
ROW 07 : E-2 00 . V00 ... : B-1 00 . V00 ... : ... .. . ... : E-# 00 7 ... : ... .. . ...
ROW 08 : ... .. . V01 ... : ... .. . V01 ... : ... .. . ... : ... .. 6 ... : ... .. . ...
ROW 09 : ... .. 4 V00 ... : ... .. 4 V00 ... : ... .. . ... : ... .. 4 ... : ... .. . ...
ROW 0A : ... .. 2 ... ... : ... .. 2 ... ... : ... .. . ... : ... .. 2 ... : ... .. . ...
ROW 0B : ... .. 1 ... ... : ... .. 1 ... ... : --- .. . ... : ... .. 1 ... : ... .. . ...
ROW 0C : G#1 00 D V03 ... : E-1 00 D V03 ... : E-2 00 . ... : A-# 00 A ... : ... .. . ...
ROW 0D : E-2 00 . V00 ... : B-1 00 . V00 ... : ... .. . ... : E-# 00 7 ... : ... .. . ...
ROW 0E : ... .. . V01 ... : ... .. . V01 ... : ... .. . ... : ... .. 6 ... : ... .. . ...
ROW 0F : ... .. 4 V00 ... : ... .. 4 V00 ... : ... .. . ... : ... .. 4 ... : ... .. . ...
ROW 10 : ... .. 2 ... ... : ... .. 2 ... ... : ... .. . ... : ... .. 2 ... : ... .. . ...
ROW 11 : ... .. 1 ... ... : ... .. 1 ... ... : --- .. . ... : ... .. 1 ... : ... .. . ...
ROW 12 : G#1 00 D V03 ... : E-1 00 D V03 ... : E-2 00 . ... : A-# 00 A ... : ... .. . ...
ROW 13 : E-2 00 . V00 ... : B-1 00 . V00 ... : ... .. . ... : E-# 00 7 ... : ... .. . ...
ROW 14 : ... .. . V01 ... : ... .. . V01 ... : ... .. . ... : ... .. 6 ... : ... .. . ...
ROW 15 : ... .. 4 V00 ... : ... .. 4 V00 ... : ... .. . ... : ... .. 4 ... : ... .. . ...
ROW 16 : ... .. 2 ... ... : ... .. 2 ... ... : ... .. . ... : ... .. 2 ... : ... .. . ...
ROW 17 : ... .. 1 ... ... : ... .. 1 ... ... : ... .. . ... : ... .. 1 ... : ... .. . ...
ROW 18 : ... .. . ... ... : ... .. . ... ... : --- .. . ... : A-# 00 A ... : ... .. . ...
ROW 19 : ... .. . ... ... : ... .. . ... ... : ... .. . ... : E-# 00 7 ... : ... .. . ...
ROW 1A : ... .. . ... ... : ... .. . ... ... : ... .. . ... : ... .. 6 ... : ... .. . ...
ROW 1B : ... .. . ... ... : ... .. . ... ... : ... .. . ... : ... .. 4 ... : ... .. . ...
ROW 1C : ... .. . ... ... : ... .. . ... ... : ... .. . ... : ... .. 2 ... : ... .. . ...
ROW 1D : ... .. . ... ... : ... .. . ... ... : ... .. . ... : ... .. 1 ... : ... .. . ...
ROW 1E : G#1 00 D V03 ... : E-1 00 D V03 ... : E-4 00 . ... : A-# 00 A ... : C-5 00 . ...
ROW 1F : E-2 00 . V00 ... : B-1 00 . V00 ... : B-3 00 . ... : E-# 00 7 ... : ... .. . ...
ROW 20 : ... .. . V01 ... : ... .. . V01 ... : --- .. . ... : ... .. 6 ... : ... .. . ...
ROW 21 : ... .. 4 V00 ... : ... .. 4 V00 ... : E-4 00 . ... : ... .. 4 ... : ... .. . ...
ROW 22 : ... .. 2 ... ... : ... .. 2 ... ... : B-3 00 . ... : ... .. 2 ... : ... .. . ...
ROW 23 : ... .. 1 ... ... : ... .. 1 ... ... : --- .. . ... : ... .. 1 ... : ... .. . ...
ROW 24 : G#1 00 D V03 ... : E-1 00 D V03 ... : E-4 00 . ... : A-# 00 A ... : C-5 00 . ...
ROW 25 : E-2 00 . V00 ... : B-1 00 . V00 ... : D-4 00 . ... : E-# 00 7 ... : ... .. . ...
ROW 26 : ... .. . V01 ... : ... .. . V01 ... : C#4 00 . ... : ... .. 6 ... : ... .. . ...
ROW 27 : ... .. 4 V00 ... : ... .. 4 V00 ... : B-3 00 . ... : ... .. 4 ... : ... .. . ...
ROW 28 : ... .. 2 ... ... : ... .. 2 ... ... : A-3 00 . ... : ... .. 2 ... : ... .. . ...
ROW 29 : ... .. 1 ... ... : ... .. 1 ... ... : --- .. . ... : ... .. 1 ... : ... .. . ...
ROW 2A : G#1 00 D V03 ... : E-1 00 D V03 ... : E-2 00 . ... : A-# 00 A ... : ... .. . ...
ROW 2B : E-2 00 . V00 ... : B-1 00 . V00 ... : ... .. . ... : E-# 00 7 ... : ... .. . ...
ROW 2C : ... .. . V01 ... : ... .. . V01 ... : ... .. . ... : ... .. 6 ... : ... .. . ...
ROW 2D : ... .. 4 V00 ... : ... .. 4 V00 ... : ... .. . ... : ... .. 4 ... : ... .. . ...
ROW 2E : ... .. 2 ... ... : ... .. 2 ... ... : ... .. . ... : ... .. 2 ... : ... .. . ...
ROW 2F : ... .. 1 ... ... : ... .. 1 ... ... : --- .. . ... : ... .. 1 ... : ... .. . ...
ROW 30 : G#1 00 D V03 ... : E-1 00 D V03 ... : E-2 00 . ... : 4-# 00 A ... : C-5 00 . ...
ROW 31 : E-2 00 . V00 ... : B-1 00 . V00 ... : ... .. . ... : A-# 00 7 ... : ... .. . ...
ROW 32 : ... .. . V01 ... : ... .. . V01 ... : ... .. . ... : ... .. 6 ... : ... .. . ...
ROW 33 : ... .. 4 V00 ... : ... .. 4 V00 ... : ... .. . ... : ... .. 4 ... : ... .. . ...
ROW 34 : ... .. 2 ... ... : ... .. 2 ... ... : ... .. . ... : ... .. 2 ... : ... .. . ...
ROW 35 : ... .. 1 ... ... : ... .. 1 ... ... : --- .. . ... : ... .. 1 ... : ... .. . ...
ROW 36 : G#1 00 D V03 ... : E-1 00 D V03 ... : E-2 00 . ... : A-# 00 A ... : ... .. . ...
ROW 37 : E-2 00 . V00 ... : B-1 00 . V00 ... : ... .. . ... : E-# 00 7 ... : ... .. . ...
ROW 38 : ... .. . V01 ... : ... .. . V01 ... : ... .. . ... : ... .. 6 ... : ... .. . ...
ROW 39 : ... .. 4 V00 ... : ... .. 4 V00 ... : ... .. . ... : ... .. 4 ... : ... .. . ...
ROW 3A : ... .. 2 ... ... : ... .. 2 ... ... : ... .. . ... : ... .. 2 ... : ... .. . ...
ROW 3B : ... .. 1 ... ... : ... .. 1 ... ... : --- .. . ... : ... .. 1 ... : ... .. . ...
ROW 3C : G#1 00 D V03 ... : E-1 00 D V03 ... : E-2 00 . ... : A-# 00 A ... : ... .. . ...
ROW 3D : E-2 00 . V00 ... : B-1 00 . V00 ... : ... .. . ... : E-# 00 7 ... : ... .. . ...
ROW 3E : ... .. . V01 ... : ... .. . V01 ... : ... .. . ... : ... .. 6 ... : ... .. . ...
ROW 3F : ... .. 4 V00 ... : ... .. 4 V00 ... : ... .. . ... : ... .. 4 ... : ... .. . ...
ROW 40 : ... .. 2 ... ... : ... .. 2 ... ... : ... .. . ... : ... .. 2 ... : ... .. . ...
ROW 41 : ... .. 1 ... ... : ... .. 1 ... ... : --- .. . ... : ... .. 1 ... : ... .. . ...
ROW 42 : G#1 00 D V03 ... : E-1 00 D V03 ... : E-2 00 . ... : A-# 00 A ... : ... .. . ...
ROW 43 : E-2 00 . V00 ... : B-1 00 . V00 ... : ... .. . ... : E-# 00 7 ... : ... .. . ...
ROW 44 : ... .. . V01 ... : ... .. . V01 ... : ... .. . ... : ... .. 6 ... : ... .. . ...
ROW 45 : ... .. 4 V00 ... : ... .. 4 V00 ... : ... .. . ... : ... .. 4 ... : ... .. . ...
ROW 46 : ... .. 2 ... ... : ... .. 2 ... ... : ... .. . ... : ... .. 2 ... : ... .. . ...
ROW 47 : ... .. 1 ... ... : ... .. 1 ... ... : ... .. . ... : ... .. 1 ... : ... .. . ...
ROW 48 : ... .. . ... ... : ... .. . ... ... : --- .. . ... : A-# 00 A ... : ... .. . ...
ROW 49 : ... .. . ... ... : ... .. . ... ... : ... .. . ... : E-# 00 7 ... : ... .. . ...
ROW 4A : ... .. . ... ... : ... .. . ... ... : ... .. . ... : ... .. 6 ... : ... .. . ...
ROW 4B : ... .. . ... ... : ... .. . ... ... : ... .. . ... : ... .. 4 ... : ... .. . ...
ROW 4C : ... .. . ... ... : ... .. . ... ... : ... .. . ... : ... .. 2 ... : ... .. . ...
ROW 4D : ... .. . ... ... : ... .. . ... ... : ... .. . ... : ... .. 1 ... : ... .. . ...
ROW 4E : G#1 00 D V03 ... : E-1 00 D V03 ... : E-4 00 . ... : A-# 00 A ... : C-5 00 . ...
ROW 4F : E-2 00 . V00 ... : B-1 00 . V00 ... : B-3 00 . ... : E-# 00 7 ... : ... .. . ...
ROW 50 : ... .. . V01 ... : ... .. . V01 ... : --- .. . ... : ... .. 6 ... : ... .. . ...
ROW 51 : ... .. 4 V00 ... : ... .. 4 V00 ... : E-4 00 . ... : ... .. 4 ... : ... .. . ...
ROW 52 : ... .. 2 ... ... : ... .. 2 ... ... : B-3 00 . ... : ... .. 2 ... : ... .. . ...
ROW 53 : ... .. 1 ... ... : ... .. 1 ... ... : --- .. . ... : ... .. 1 ... : ... .. . ...
ROW 54 : G#1 00 D V03 ... : E-1 00 D V03 ... : E-4 00 . ... : A-# 00 A ... : C-5 00 . ...
ROW 55 : E-2 00 . V00 ... : B-1 00 . V00 ... : D-4 00 . ... : E-# 00 7 ... : ... .. . ...
ROW 56 : ... .. . V01 ... : ... .. . V01 ... : C#4 00 . ... : ... .. 6 ... : ... .. . ...
ROW 57 : ... .. 4 V00 ... : ... .. 4 V00 ... : B-3 00 . ... : ... .. 4 ... : ... .. . ...
ROW 58 : ... .. 2 ... ... : ... .. 2 ... ... : A-3 00 . ... : ... .. 2 ... : ... .. . ...
ROW 59 : ... .. 1 ... ... : ... .. 1 ... ... : --- .. . ... : ... .. 1 ... : ... .. . ...
ROW 5A : G#1 00 D V03 ... : E-1 00 D V03 ... : E-2 00 . ... : A-# 00 A ... : ... .. . ...
ROW 5B : E-2 00 . V00 ... : B-1 00 . V00 ... : ... .. . ... : E-# 00 7 ... : ... .. . ...
ROW 5C : ... .. . V01 ... : ... .. . V01 ... : ... .. . ... : ... .. 6 ... : ... .. . ...
ROW 5D : ... .. 4 V00 ... : ... .. 4 V00 ... : ... .. . ... : ... .. 4 ... : ... .. . ...
ROW 5E : ... .. 2 ... ... : ... .. 2 ... ... : ... .. . ... : ... .. 2 ... : ... .. . ...
ROW 5F : ... .. 1 ... ... : ... .. 1 ... ... : --- .. . ... : ... .. 1 ... : ... .. . ...
ROW 60 : G#1 00 D V03 ... : F-1 00 D V03 ... : C#2 00 . ... : 4-# 00 A ... : C-5 00 . ...
ROW 61 : F-2 00 . V00 ... : B-1 00 . V00 ... : ... .. . ... : A-# 00 7 ... : ... .. . ...
ROW 62 : ... .. . V01 ... : ... .. . V01 ... : ... .. . ... : ... .. 6 ... : ... .. . ...
ROW 63 : ... .. 4 V00 ... : ... .. 4 V00 ... : ... .. . ... : ... .. 4 ... : ... .. . ...
ROW 64 : ... .. 2 ... ... : ... .. 2 ... ... : ... .. . ... : ... .. 2 ... : ... .. . ...
ROW 65 : ... .. 1 ... ... : ... .. 1 ... ... : --- .. . ... : ... .. 1 ... : ... .. . ...
ROW 66 : G#1 00 D V03 ... : F-1 00 D V03 ... : C#2 00 . ... : A-# 00 A ... : ... .. . ...
ROW 67 : F-2 00 . V00 ... : B-1 00 . V00 ... : ... .. . ... : E-# 00 7 ... : ... .. . ...
ROW 68 : ... .. . V01 ... : ... .. . V01 ... : ... .. . ... : ... .. 6 ... : ... .. . ...
ROW 69 : ... .. 4 V00 ... : ... .. 4 V00 ... : ... .. . ... : ... .. 4 ... : ... .. . ...
ROW 6A : ... .. 2 ... ... : ... .. 2 ... ... : ... .. . ... : ... .. 2 ... : ... .. . ...
ROW 6B : ... .. 1 ... ... : ... .. 1 ... ... : --- .. . ... : ... .. 1 ... : ... .. . ...
ROW 6C : G#1 00 D V03 ... : F-1 00 D V03 ... : C#2 00 . ... : A-# 00 A ... : ... .. . ...
ROW 6D : F-2 00 . V00 ... : B-1 00 . V00 ... : ... .. . ... : E-# 00 7 ... : ... .. . ...
ROW 6E : ... .. . V01 ... : ... .. . V01 ... : ... .. . ... : ... .. 6 ... : ... .. . ...
ROW 6F : ... .. 4 V00 ... : ... .. 4 V00 ... : ... .. . ... : ... .. 4 ... : ... .. . ...
ROW 70 : ... .. 2 ... ... : ... .. 2 ... ... : ... .. . ... : ... .. 2 ... : ... .. . ...
ROW 71 : ... .. 1 ... ... : ... .. 1 ... ... : --- .. . ... : ... .. 1 ... : ... .. . ...
ROW 72 : G#1 00 D V03 ... : F-1 00 D V03 ... : C#2 00 . ... : A-# 00 A ... : ... .. . ...
ROW 73 : F-2 00 . V00 ... : B-1 00 . V00 ... : ... .. . ... : E-# 00 7 ... : ... .. . ...
ROW 74 : ... .. . V01 ... : ... .. . V01 ... : ... .. . ... : ... .. 6 ... : ... .. . ...
ROW 75 : ... .. 4 V00 ... : ... .. 4 V00 ... : ... .. . ... : ... .. 4 ... : ... .. . ...
ROW 76 : ... .. 2 ... ... : ... .. 2 ... ... : ... .. . ... : ... .. 2 ... : ... .. . ...
ROW 77 : ... .. 1 ... ... : ... .. 1 ... ... : ... .. . ... : ... .. 1 ... : ... .. . ...
ROW 78 : ... .. . ... ... : ... .. . ... ... : --- .. . ... : A-# 00 A ... : ... .. . ...
ROW 79 : ... .. . ... ... : ... .. . ... ... : ... .. . ... : E-# 00 7 ... : ... .. . ...
ROW 7A : ... .. . ... ... : ... .. . ... ... : ... .. . ... : ... .. 6 ... : ... .. . ...
ROW 7B : ... .. . ... ... : ... .. . ... ... : ... .. . ... : ... .. 4 ... : ... .. . ...
ROW 7C : ... .. . ... ... : ... .. . ... ... : ... .. . ... : ... .. 2 ... : ... .. . ...
ROW 7D : ... .. . ... ... : ... .. . ... ... : ... .. . ... : ... .. 1 ... : ... .. . ...
ROW 7E : G#1 00 D V03 ... : F-1 00 D V03 ... : C#4 00 . ... : A-# 00 A ... : C-5 00 . ...
ROW 7F : F-2 00 . V00 ... : B-1 00 . V00 ... : G#3 00 . ... : E-# 00 7 ... : ... .. . ...
ROW 80 : ... .. . V01 ... : ... .. . V01 ... : --- .. . ... : ... .. 6 ... : ... .. . ...
ROW 81 : ... .. 4 V00 ... : ... .. 4 V00 ... : C#4 00 . ... : ... .. 4 ... : ... .. . ...
ROW 82 : ... .. 2 ... ... : ... .. 2 ... ... : G#3 00 . ... : ... .. 2 ... : ... .. . ...
ROW 83 : ... .. 1 ... ... : ... .. 1 ... ... : --- .. . ... : ... .. 1 ... : ... .. . ...
ROW 84 : G#1 00 D V03 ... : F-1 00 D V03 ... : C#4 00 . ... : A-# 00 A ... : C-5 00 . ...
ROW 85 : F-2 00 . V00 ... : B-1 00 . V00 ... : B-3 00 . ... : E-# 00 7 ... : ... .. . ...
ROW 86 : ... .. . V01 ... : ... .. . V01 ... : A-3 00 . ... : ... .. 6 ... : ... .. . ...
ROW 87 : ... .. 4 V00 ... : ... .. 4 V00 ... : G#3 00 . ... : ... .. 4 ... : ... .. . ...
ROW 88 : ... .. 2 ... ... : ... .. 2 ... ... : F#3 00 . ... : ... .. 2 ... : ... .. . ...
ROW 89 : ... .. 1 ... ... : ... .. 1 ... ... : --- .. . ... : ... .. 1 ... : ... .. . ...
ROW 8A : G#1 00 D V03 ... : F-1 00 D V03 ... : C#2 00 . ... : A-# 00 A ... : ... .. . ...
ROW 8B : F-2 00 . V00 ... : B-1 00 . V00 ... : ... .. . ... : E-# 00 7 ... : ... .. . ...
ROW 8C : ... .. . V01 ... : ... .. . V01 ... : ... .. . ... : ... .. 6 ... : ... .. . ...
ROW 8D : ... .. 4 V00 ... : ... .. 4 V00 ... : ... .. . ... : ... .. 4 ... : ... .. . ...
ROW 8E : ... .. 2 ... ... : ... .. 2 ... ... : ... .. . ... : ... .. 2 ... : ... .. . ...
ROW 8F : ... .. 1 ... ... : ... .. 1 ... ... : --- .. . ... : ... .. 1 ... : ... .. . ...
ROW 90 : G#1 00 D V03 ... : F-1 00 D V03 ... : C#2 00 . ... : 4-# 00 A ... : C-5 00 . ...
ROW 91 : F-2 00 . V00 ... : B-1 00 . V00 ... : ... .. . ... : A-# 00 7 ... : ... .. . ...
ROW 92 : ... .. . V01 ... : ... .. . V01 ... : ... .. . ... : ... .. 6 ... : ... .. . ...
ROW 93 : ... .. 4 V00 ... : ... .. 4 V00 ... : ... .. . ... : ... .. 4 ... : ... .. . ...
ROW 94 : ... .. 2 ... ... : ... .. 2 ... ... : ... .. . ... : ... .. 2 ... : ... .. . ...
ROW 95 : ... .. 1 ... ... : ... .. 1 ... ... : --- .. . ... : ... .. 1 ... : ... .. . ...
ROW 96 : G#1 00 D V03 ... : F-1 00 D V03 ... : G#4 00 . ... : A-# 00 A ... : F-5 00 . ...
ROW 97 : F-2 00 . V00 ... : B-1 00 . V00 ... : F-4 00 . ... : E-# 00 7 ... : ... .. . ...
ROW 98 : ... .. . V01 ... : ... .. . V01 ... : E-4 00 . ... : ... .. 6 ... : ... .. . ...
ROW 99 : ... .. 4 V00 ... : ... .. 4 V00 ... : D-4 00 . ... : ... .. 4 ... : ... .. . ...
ROW 9A : ... .. 2 ... ... : ... .. 2 ... ... : C#4 00 . ... : ... .. 2 ... : ... .. . ...
ROW 9B : ... .. 1 ... ... : ... .. 1 ... ... : --- .. . ... : ... .. 1 ... : ... .. . ...
ROW 9C : G#1 00 D V03 ... : F-1 00 D V03 ... : F-4 00 . ... : A-# 00 A ... : F-5 00 . ...
ROW 9D : F-2 00 . V00 ... : B-1 00 . V00 ... : E-4 00 . ... : E-# 00 7 ... : ... .. . ...
ROW 9E : ... .. . V01 ... : ... .. . V01 ... : D-4 00 . ... : ... .. 6 ... : ... .. . ...
ROW 9F : ... .. 4 V00 ... : ... .. 4 V00 ... : C#4 00 . ... : ... .. 4 ... : ... .. . ...
ROW A0 : ... .. 2 ... ... : ... .. 2 ... ... : B-3 00 . ... : ... .. 2 ... : ... .. . ...
ROW A1 : ... .. 1 ... ... : ... .. 1 ... ... : --- .. . ... : ... .. 1 ... : ... .. . ...
ROW A2 : G#1 00 D V03 ... : F-1 00 D V03 ... : F-4 00 . ... : A-# 00 A ... : F-5 00 . ...
ROW A3 : F-2 00 . V00 ... : B-1 00 . V00 ... : E-4 00 . ... : E-# 00 7 ... : ... .. . ...
ROW A4 : ... .. . V01 ... : ... .. . V01 ... : D-4 00 . ... : ... .. 6 ... : ... .. . ...
ROW A5 : ... .. 4 V00 ... : ... .. 4 V00 ... : C#4 00 . ... : ... .. 4 ... : ... .. . ...
ROW A6 : ... .. 2 ... ... : ... .. 2 ... ... : B-3 00 . ... : ... .. 2 ... : ... .. . ...
ROW A7 : ... .. 1 ... ... : ... .. 1 ... ... : --- .. . ... : ... .. 1 ... : ... .. . ...
ROW A8 : ... .. . ... ... : ... .. . ... ... : E-4 00 . ... : A-# 00 A ... : F-5 00 . ...
ROW A9 : ... .. . ... ... : ... .. . ... ... : D-4 00 . ... : E-# 00 7 ... : ... .. . ...
ROW AA : ... .. . ... ... : ... .. . ... ... : --- 00 . ... : ... .. 6 ... : ... .. . ...
ROW AB : ... .. . ... ... : ... .. . ... ... : E-4 00 . ... : ... .. 4 ... : F-5 00 . ...
ROW AC : ... .. . ... ... : ... .. . ... ... : D-4 00 . ... : ... .. 2 ... : ... .. . ...
ROW AD : ... .. . ... ... : ... .. . ... ... : --- 00 . ... : ... .. 1 ... : ... .. . ...
ROW AE : G#1 00 D V03 ... : F-1 00 D V03 ... : E-4 00 . ... : A-# 00 A ... : F-5 00 . ...
ROW AF : F-2 00 . V00 ... : B-1 00 . V00 ... : D-4 00 . ... : E-# 00 7 ... : ... .. . ...
ROW B0 : ... .. . V01 ... : ... .. . V01 ... : C#4 00 . ... : ... .. 6 ... : ... .. . ...
ROW B1 : ... .. 4 V00 ... : ... .. 4 V00 ... : B-3 00 . ... : ... .. 4 ... : ... .. . ...
ROW B2 : ... .. 2 ... ... : ... .. 2 ... ... : A-3 00 . ... : ... .. 2 ... : ... .. . ...
ROW B3 : ... .. 1 ... ... : ... .. 1 ... ... : --- .. . ... : ... .. 1 ... : ... .. . ...
ROW B4 : G#1 00 D V03 ... : F-1 00 D V03 ... : C#4 00 . ... : A-# 00 A ... : F-5 00 . ...
ROW B5 : F-2 00 . V00 ... : B-1 00 . V00 ... : B-3 00 . ... : E-# 00 7 ... : ... .. . ...
ROW B6 : ... .. . V01 ... : ... .. . V01 ... : A-3 00 . ... : ... .. 6 ... : ... .. . ...
ROW B7 : ... .. 4 V00 ... : ... .. 4 V00 ... : G#3 00 . ... : ... .. 4 ... : ... .. . ...
ROW B8 : ... .. 2 ... ... : ... .. 2 ... ... : F-3 00 . ... : ... .. 2 ... : ... .. . ...
ROW B9 : ... .. 1 ... ... : ... .. 1 ... ... : --- .. . ... : ... .. 1 ... : ... .. . ...
ROW BA : G#1 00 D V03 ... : F-1 00 D V03 ... : C#4 00 . ... : A-# 00 A ... : F-5 00 . ...
ROW BB : F-2 00 . V00 ... : B-1 00 . V00 ... : B-3 00 . ... : E-# 00 7 ... : ... .. . ...
ROW BC : ... .. . V01 ... : ... .. . V01 ... : A-3 00 . ... : ... .. 6 ... : ... .. . ...
ROW BD : ... .. 4 V00 ... : ... .. 4 V00 ... : G#3 00 . ... : ... .. 4 ... : ... .. . ...
ROW BE : ... .. 2 ... ... : ... .. 2 ... ... : F-3 00 . ... : ... .. 2 ... : ... .. . ...
ROW BF : ... .. 1 ... ... : ... .. 1 ... ... : --- .. . ... : ... .. 1 ... : ... .. . D00
ROW C0 : ... .. . ... ... : ... .. . ... ... : ... .. . ... : ... .. . ... : ... .. . ...
ROW C1 : ... .. . ... ... : ... .. . ... ... : ... .. . ... : ... .. . ... : ... .. . ...
ROW C2 : ... .. . ... ... : ... .. . ... ... : ... .. . ... : ... .. . ... : ... .. . ...
ROW C3 : ... .. . ... ... : ... .. . ... ... : ... .. . ... : ... .. . ... : ... .. . ...
ROW C4 : ... .. . ... ... : ... .. . ... ... : ... .. . ... : ... .. . ... : ... .. . ...
ROW C5 : ... .. . ... ... : ... .. . ... ... : ... .. . ... : ... .. . ... : ... .. . ...
ROW C6 : ... .. . ... ... : ... .. . ... ... : ... .. . ... : ... .. . ... : ... .. . ...
ROW C7 : ... .. . ... ... : ... .. . ... ... : ... .. . ... : ... .. . ... : ... .. . ...
ROW C8 : ... .. . ... ... : ... .. . ... ... : ... .. . ... : ... .. . ... : ... .. . ...
ROW C9 : ... .. . ... ... : ... .. . ... ... : ... .. . ... : ... .. . ... : ... .. . ...
ROW CA : ... .. . ... ... : ... .. . ... ... : ... .. . ... : ... .. . ... : ... .. . ...
ROW CB : ... .. . ... ... : ... .. . ... ... : ... .. . ... : ... .. . ... : ... .. . ...
ROW CC : ... .. . ... ... : ... .. . ... ... : ... .. . ... : ... .. . ... : ... .. . ...
ROW CD : ... .. . ... ... : ... .. . ... ... : ... .. . ... : ... .. . ... : ... .. . ...
ROW CE : ... .. . ... ... : ... .. . ... ... : ... .. . ... : ... .. . ... : ... .. . ...
ROW CF : ... .. . ... ... : ... .. . ... ... : ... .. . ... : ... .. . ... : ... .. . ...
ROW D0 : ... .. . ... ... : ... .. . ... ... : ... .. . ... : ... .. . ... : ... .. . ...
ROW D1 : ... .. . ... ... : ... .. . ... ... : ... .. . ... : ... .. . ... : ... .. . ...
ROW D2 : ... .. . ... ... : ... .. . ... ... : ... .. . ... : ... .. . ... : ... .. . ...
ROW D3 : ... .. . ... ... : ... .. . ... ... : ... .. . ... : ... .. . ... : ... .. . ...
ROW D4 : ... .. . ... ... : ... .. . ... ... : ... .. . ... : ... .. . ... : ... .. . ...
ROW D5 : ... .. . ... ... : ... .. . ... ... : ... .. . ... : ... .. . ... : ... .. . ...
ROW D6 : ... .. . ... ... : ... .. . ... ... : ... .. . ... : ... .. . ... : ... .. . ...
ROW D7 : ... .. . ... ... : ... .. . ... ... : ... .. . ... : ... .. . ... : ... .. . ...
ROW D8 : ... .. . ... ... : ... .. . ... ... : ... .. . ... : ... .. . ... : ... .. . ...
ROW D9 : ... .. . ... ... : ... .. . ... ... : ... .. . ... : ... .. . ... : ... .. . ...
ROW DA : ... .. . ... ... : ... .. . ... ... : ... .. . ... : ... .. . ... : ... .. . ...
ROW DB : ... .. . ... ... : ... .. . ... ... : ... .. . ... : ... .. . ... : ... .. . ...
ROW DC : ... .. . ... ... : ... .. . ... ... : ... .. . ... : ... .. . ... : ... .. . ...
ROW DD : ... .. . ... ... : ... .. . ... ... : ... .. . ... : ... .. . ... : ... .. . ...
ROW DE : ... .. . ... ... : ... .. . ... ... : ... .. . ... : ... .. . ... : ... .. . ...
ROW DF : ... .. . ... ... : ... .. . ... ... : ... .. . ... : ... .. . ... : ... .. . ...
ROW E0 : ... .. . ... ... : ... .. . ... ... : ... .. . ... : ... .. . ... : ... .. . ...
ROW E1 : ... .. . ... ... : ... .. . ... ... : ... .. . ... : ... .. . ... : ... .. . ...
ROW E2 : ... .. . ... ... : ... .. . ... ... : ... .. . ... : ... .. . ... : ... .. . ...
ROW E3 : ... .. . ... ... : ... .. . ... ... : ... .. . ... : ... .. . ... : ... .. . ...
ROW E4 : ... .. . ... ... : ... .. . ... ... : ... .. . ... : ... .. . ... : ... .. . ...
ROW E5 : ... .. . ... ... : ... .. . ... ... : ... .. . ... : ... .. . ... : ... .. . ...
ROW E6 : ... .. . ... ... : ... .. . ... ... : ... .. . ... : ... .. . ... : ... .. . ...
ROW E7 : ... .. . ... ... : ... .. . ... ... : ... .. . ... : ... .. . ... : ... .. . ...
ROW E8 : ... .. . ... ... : ... .. . ... ... : ... .. . ... : ... .. . ... : ... .. . ...
ROW E9 : ... .. . ... ... : ... .. . ... ... : ... .. . ... : ... .. . ... : ... .. . ...
ROW EA : ... .. . ... ... : ... .. . ... ... : ... .. . ... : ... .. . ... : ... .. . ...
ROW EB : ... .. . ... ... : ... .. . ... ... : ... .. . ... : ... .. . ... : ... .. . ...
ROW EC : ... .. . ... ... : ... .. . ... ... : ... .. . ... : ... .. . ... : ... .. . ...
ROW ED : ... .. . ... ... : ... .. . ... ... : ... .. . ... : ... .. . ... : ... .. . ...
ROW EE : ... .. . ... ... : ... .. . ... ... : ... .. . ... : ... .. . ... : ... .. . ...
ROW EF : ... .. . ... ... : ... .. . ... ... : ... .. . ... : ... .. . ... : ... .. . ...
ROW F0 : ... .. . ... ... : ... .. . ... ... : ... .. . ... : ... .. . ... : ... .. . ...
ROW F1 : ... .. . ... ... : ... .. . ... ... : ... .. . ... : ... .. . ... : ... .. . ...
ROW F2 : ... .. . ... ... : ... .. . ... ... : ... .. . ... : ... .. . ... : ... .. . ...
ROW F3 : ... .. . ... ... : ... .. . ... ... : ... .. . ... : ... .. . ... : ... .. . ...
ROW F4 : ... .. . ... ... : ... .. . ... ... : ... .. . ... : ... .. . ... : ... .. . ...
ROW F5 : ... .. . ... ... : ... .. . ... ... : ... .. . ... : ... .. . ... : ... .. . ...
ROW F6 : ... .. . ... ... : ... .. . ... ... : ... .. . ... : ... .. . ... : ... .. . ...
ROW F7 : ... .. . ... ... : ... .. . ... ... : ... .. . ... : ... .. . ... : ... .. . ...
ROW F8 : ... .. . ... ... : ... .. . ... ... : ... .. . ... : ... .. . ... : ... .. . ...
ROW F9 : ... .. . ... ... : ... .. . ... ... : ... .. . ... : ... .. . ... : ... .. . ...
ROW FA : ... .. . ... ... : ... .. . ... ... : ... .. . ... : ... .. . ... : ... .. . ...
ROW FB : ... .. . ... ... : ... .. . ... ... : ... .. . ... : ... .. . ... : ... .. . ...
ROW FC : ... .. . ... ... : ... .. . ... ... : ... .. . ... : ... .. . ... : ... .. . ...
ROW FD : ... .. . ... ... : ... .. . ... ... : ... .. . ... : ... .. . ... : ... .. . ...
ROW FE : ... .. . ... ... : ... .. . ... ... : ... .. . ... : ... .. . ... : ... .. . ...
ROW FF : ... .. . ... ... : ... .. . ... ... : ... .. . ... : ... .. . ... : ... .. . ...

PATTERN 0A
ROW 00 : A-1 00 D V03 P7C : F#1 00 D V03 P82 : E-2 00 . ... : 4-# 00 A ... : C-5 00 . ...
ROW 01 : F#2 00 . V00 ... : C#2 00 . V00 ... : ... .. . ... : A-# 00 7 ... : ... .. . ...
ROW 02 : ... .. . V01 ... : ... .. . V01 ... : ... .. . ... : ... .. 6 ... : ... .. . ...
ROW 03 : ... .. 4 V00 ... : ... .. 4 V00 ... : ... .. . ... : ... .. 4 ... : ... .. . ...
ROW 04 : ... .. 2 ... ... : ... .. 2 ... ... : ... .. . ... : ... .. 2 ... : ... .. . ...
ROW 05 : ... .. 1 ... ... : ... .. 1 ... ... : --- .. . ... : ... .. 1 ... : ... .. . ...
ROW 06 : A-1 00 D V03 ... : F#1 00 D V03 ... : E-2 00 . ... : A-# 00 A ... : ... .. . ...
ROW 07 : F#2 00 . V00 ... : C#2 00 . V00 ... : ... .. . ... : E-# 00 7 ... : ... .. . ...
ROW 08 : ... .. . V01 ... : ... .. . V01 ... : ... .. . ... : ... .. 6 ... : ... .. . ...
ROW 09 : ... .. 4 V00 ... : ... .. 4 V00 ... : ... .. . ... : ... .. 4 ... : ... .. . ...
ROW 0A : ... .. 2 ... ... : ... .. 2 ... ... : ... .. . ... : ... .. 2 ... : ... .. . ...
ROW 0B : ... .. 1 ... ... : ... .. 1 ... ... : --- .. . ... : ... .. 1 ... : ... .. . ...
ROW 0C : A-1 00 D V03 ... : F#1 00 D V03 ... : E-2 00 . ... : A-# 00 A ... : F-5 00 . ...
ROW 0D : F#2 00 . V00 ... : C#2 00 . V00 ... : ... .. . ... : E-# 00 7 ... : ... .. . ...
ROW 0E : ... .. . V01 ... : ... .. . V01 ... : ... .. . ... : ... .. 6 ... : ... .. . ...
ROW 0F : ... .. 4 V00 ... : ... .. 4 V00 ... : ... .. . ... : ... .. 4 ... : ... .. . ...
ROW 10 : ... .. 2 ... ... : ... .. 2 ... ... : ... .. . ... : ... .. 2 ... : ... .. . ...
ROW 11 : ... .. 1 ... ... : ... .. 1 ... ... : --- .. . ... : ... .. 1 ... : ... .. . ...
ROW 12 : A-1 00 D V03 ... : F#1 00 D V03 ... : E-2 00 . ... : A-# 00 A ... : ... .. . ...
ROW 13 : F#2 00 . V00 ... : C#2 00 . V00 ... : ... .. . ... : E-# 00 7 ... : ... .. . ...
ROW 14 : ... .. . V01 ... : ... .. . V01 ... : ... .. . ... : ... .. 6 ... : ... .. . ...
ROW 15 : ... .. 4 V00 ... : ... .. 4 V00 ... : ... .. . ... : ... .. 4 ... : ... .. . ...
ROW 16 : ... .. 2 ... ... : ... .. 2 ... ... : ... .. . ... : ... .. 2 ... : ... .. . ...
ROW 17 : ... .. 1 ... ... : ... .. 1 ... ... : ... .. . ... : ... .. 1 ... : ... .. . ...
ROW 18 : ... .. . ... ... : ... .. . ... ... : --- .. . ... : A-# 00 A ... : C-5 00 . ...
ROW 19 : ... .. . ... ... : ... .. . ... ... : ... .. . ... : E-# 00 7 ... : ... .. . ...
ROW 1A : ... .. . ... ... : ... .. . ... ... : ... .. . ... : ... .. 6 ... : ... .. . ...
ROW 1B : ... .. . ... ... : ... .. . ... ... : ... .. . ... : ... .. 4 ... : ... .. . ...
ROW 1C : ... .. . ... ... : ... .. . ... ... : ... .. . ... : ... .. 2 ... : ... .. . ...
ROW 1D : ... .. . ... ... : ... .. . ... ... : ... .. . ... : ... .. 1 ... : ... .. . ...
ROW 1E : A-1 00 D V03 ... : F#1 00 D V03 ... : E-4 00 . ... : A-# 00 A ... : ... .. . ...
ROW 1F : F#2 00 . V00 ... : C#2 00 . V00 ... : B-3 00 . ... : E-# 00 7 ... : ... .. . ...
ROW 20 : ... .. . V01 ... : ... .. . V01 ... : --- .. . ... : ... .. 6 ... : ... .. . ...
ROW 21 : ... .. 4 V00 ... : ... .. 4 V00 ... : E-4 00 . ... : ... .. 4 ... : ... .. . ...
ROW 22 : ... .. 2 ... ... : ... .. 2 ... ... : B-3 00 . ... : ... .. 2 ... : ... .. . ...
ROW 23 : ... .. 1 ... ... : ... .. 1 ... ... : --- .. . ... : ... .. 1 ... : ... .. . ...
ROW 24 : ... .. . ... ... : ... .. . ... ... : E-4 00 . ... : A-# 00 A ... : F-5 00 . ...
ROW 25 : ... .. . ... ... : ... .. . ... ... : D-4 00 . ... : E-# 00 7 ... : ... .. . ...
ROW 26 : ... .. . ... ... : ... .. . ... ... : C#4 00 . ... : ... .. 6 ... : ... .. . ...
ROW 27 : ... .. . ... ... : ... .. . ... ... : B-3 00 . ... : ... .. 4 ... : ... .. . ...
ROW 28 : ... .. . ... ... : ... .. . ... ... : A-3 00 . ... : ... .. 2 ... : ... .. . ...
ROW 29 : ... .. . ... ... : ... .. . ... ... : --- .. . ... : ... .. 1 ... : ... .. . ...
ROW 2A : A-1 00 D V03 ... : F#1 00 D V03 ... : E-2 00 . ... : A-# 00 A ... : ... .. . ...
ROW 2B : F#2 00 . V00 ... : C#2 00 . V00 ... : ... .. . ... : E-# 00 7 ... : ... .. . ...
ROW 2C : ... .. . V01 ... : ... .. . V01 ... : ... .. . ... : ... .. 6 ... : ... .. . ...
ROW 2D : ... .. 4 V00 ... : ... .. 4 V00 ... : ... .. . ... : ... .. 4 ... : ... .. . ...
ROW 2E : ... .. 2 ... ... : ... .. 2 ... ... : ... .. . ... : ... .. 2 ... : ... .. . ...
ROW 2F : ... .. 1 ... ... : ... .. 1 ... ... : --- .. . ... : ... .. 1 ... : ... .. . ...
ROW 30 : A-1 00 D V03 ... : F#1 00 D V03 ... : E-2 00 . ... : 4-# 00 A ... : C-5 00 . ...
ROW 31 : F#2 00 . V00 ... : C#2 00 . V00 ... : ... .. . ... : A-# 00 7 ... : ... .. . ...
ROW 32 : ... .. . V01 ... : ... .. . V01 ... : ... .. . ... : ... .. 6 ... : ... .. . ...
ROW 33 : ... .. 4 V00 ... : ... .. 4 V00 ... : ... .. . ... : ... .. 4 ... : ... .. . ...
ROW 34 : ... .. 2 ... ... : ... .. 2 ... ... : ... .. . ... : ... .. 2 ... : ... .. . ...
ROW 35 : ... .. 1 ... ... : ... .. 1 ... ... : --- .. . ... : ... .. 1 ... : ... .. . ...
ROW 36 : A-1 00 D V03 ... : F#1 00 D V03 ... : E-2 00 . ... : A-# 00 A ... : ... .. . ...
ROW 37 : F#2 00 . V00 ... : C#2 00 . V00 ... : ... .. . ... : E-# 00 7 ... : ... .. . ...
ROW 38 : ... .. . V01 ... : ... .. . V01 ... : ... .. . ... : ... .. 6 ... : ... .. . ...
ROW 39 : ... .. 4 V00 ... : ... .. 4 V00 ... : ... .. . ... : ... .. 4 ... : ... .. . ...
ROW 3A : ... .. 2 ... ... : ... .. 2 ... ... : ... .. . ... : ... .. 2 ... : ... .. . ...
ROW 3B : ... .. 1 ... ... : ... .. 1 ... ... : --- .. . ... : ... .. 1 ... : ... .. . ...
ROW 3C : A-1 00 D V03 ... : F#1 00 D V03 ... : E-2 00 . ... : A-# 00 A ... : F-5 00 . ...
ROW 3D : F#2 00 . V00 ... : C#2 00 . V00 ... : ... .. . ... : E-# 00 7 ... : ... .. . ...
ROW 3E : ... .. . V01 ... : ... .. . V01 ... : ... .. . ... : ... .. 6 ... : ... .. . ...
ROW 3F : ... .. 4 V00 ... : ... .. 4 V00 ... : ... .. . ... : ... .. 4 ... : ... .. . ...
ROW 40 : ... .. 2 ... ... : ... .. 2 ... ... : ... .. . ... : ... .. 2 ... : ... .. . ...
ROW 41 : ... .. 1 ... ... : ... .. 1 ... ... : --- .. . ... : ... .. 1 ... : ... .. . ...
ROW 42 : A-1 00 D V03 ... : F#1 00 D V03 ... : E-2 00 . ... : A-# 00 A ... : ... .. . ...
ROW 43 : F#2 00 . V00 ... : C#2 00 . V00 ... : ... .. . ... : E-# 00 7 ... : ... .. . ...
ROW 44 : ... .. . V01 ... : ... .. . V01 ... : ... .. . ... : ... .. 6 ... : ... .. . ...
ROW 45 : ... .. 4 V00 ... : ... .. 4 V00 ... : ... .. . ... : ... .. 4 ... : ... .. . ...
ROW 46 : ... .. 2 ... ... : ... .. 2 ... ... : ... .. . ... : ... .. 2 ... : ... .. . ...
ROW 47 : ... .. 1 ... ... : ... .. 1 ... ... : ... .. . ... : ... .. 1 ... : ... .. . ...
ROW 48 : ... .. . ... ... : ... .. . ... ... : --- .. . ... : A-# 00 A ... : C-5 00 . ...
ROW 49 : ... .. . ... ... : ... .. . ... ... : ... .. . ... : E-# 00 7 ... : ... .. . ...
ROW 4A : ... .. . ... ... : ... .. . ... ... : ... .. . ... : ... .. 6 ... : ... .. . ...
ROW 4B : ... .. . ... ... : ... .. . ... ... : ... .. . ... : ... .. 4 ... : ... .. . ...
ROW 4C : ... .. . ... ... : ... .. . ... ... : ... .. . ... : ... .. 2 ... : ... .. . ...
ROW 4D : ... .. . ... ... : ... .. . ... ... : ... .. . ... : ... .. 1 ... : ... .. . ...
ROW 4E : A-1 00 D V03 ... : F#1 00 D V03 ... : E-4 00 . ... : A-# 00 A ... : ... .. . ...
ROW 4F : F#2 00 . V00 ... : C#2 00 . V00 ... : B-3 00 . ... : E-# 00 7 ... : ... .. . ...
ROW 50 : ... .. . V01 ... : ... .. . V01 ... : --- .. . ... : ... .. 6 ... : ... .. . ...
ROW 51 : ... .. 4 V00 ... : ... .. 4 V00 ... : E-4 00 . ... : ... .. 4 ... : ... .. . ...
ROW 52 : ... .. 2 ... ... : ... .. 2 ... ... : B-3 00 . ... : ... .. 2 ... : ... .. . ...
ROW 53 : ... .. 1 ... ... : ... .. 1 ... ... : --- .. . ... : ... .. 1 ... : ... .. . ...
ROW 54 : ... .. . ... ... : ... .. . ... ... : E-4 00 . ... : A-# 00 A ... : F-5 00 . ...
ROW 55 : ... .. . ... ... : ... .. . ... ... : D-4 00 . ... : E-# 00 7 ... : ... .. . ...
ROW 56 : ... .. . ... ... : ... .. . ... ... : C#4 00 . ... : ... .. 6 ... : ... .. . ...
ROW 57 : ... .. . ... ... : ... .. . ... ... : B-3 00 . ... : ... .. 4 ... : ... .. . ...
ROW 58 : ... .. . ... ... : ... .. . ... ... : A-3 00 . ... : ... .. 2 ... : ... .. . ...
ROW 59 : ... .. . ... ... : ... .. . ... ... : --- .. . ... : ... .. 1 ... : ... .. . ...
ROW 5A : A-1 00 D V03 ... : F#1 00 D V03 ... : E-2 00 . ... : A-# 00 A ... : ... .. . ...
ROW 5B : F#2 00 . V00 ... : C#2 00 . V00 ... : ... .. . ... : E-# 00 7 ... : ... .. . ...
ROW 5C : ... .. . V01 ... : ... .. . V01 ... : ... .. . ... : ... .. 6 ... : ... .. . ...
ROW 5D : ... .. 4 V00 ... : ... .. 4 V00 ... : ... .. . ... : ... .. 4 ... : ... .. . ...
ROW 5E : ... .. 2 ... ... : ... .. 2 ... ... : ... .. . ... : ... .. 2 ... : ... .. . ...
ROW 5F : ... .. 1 ... ... : ... .. 1 ... ... : --- .. . ... : ... .. 1 ... : ... .. . ...
ROW 60 : A-1 00 D V03 ... : F#1 00 D V03 ... : C#2 00 . ... : 4-# 00 A ... : C-5 00 . ...
ROW 61 : F#2 00 . V00 ... : D-2 00 . V00 ... : ... .. . ... : A-# 00 7 ... : ... .. . ...
ROW 62 : ... .. . V01 ... : ... .. . V01 ... : ... .. . ... : ... .. 6 ... : ... .. . ...
ROW 63 : ... .. 4 V00 ... : ... .. 4 V00 ... : ... .. . ... : ... .. 4 ... : ... .. . ...
ROW 64 : ... .. 2 ... ... : ... .. 2 ... ... : ... .. . ... : ... .. 2 ... : ... .. . ...
ROW 65 : ... .. 1 ... ... : ... .. 1 ... ... : --- .. . ... : ... .. 1 ... : ... .. . ...
ROW 66 : A-1 00 D V03 ... : F#1 00 D V03 ... : C#2 00 . ... : A-# 00 A ... : ... .. . ...
ROW 67 : F#2 00 . V00 ... : D-2 00 . V00 ... : ... .. . ... : E-# 00 7 ... : ... .. . ...
ROW 68 : ... .. . V01 ... : ... .. . V01 ... : ... .. . ... : ... .. 6 ... : ... .. . ...
ROW 69 : ... .. 4 V00 ... : ... .. 4 V00 ... : ... .. . ... : ... .. 4 ... : ... .. . ...
ROW 6A : ... .. 2 ... ... : ... .. 2 ... ... : ... .. . ... : ... .. 2 ... : ... .. . ...
ROW 6B : ... .. 1 ... ... : ... .. 1 ... ... : --- .. . ... : ... .. 1 ... : ... .. . ...
ROW 6C : A-1 00 D V03 ... : F#1 00 D V03 ... : C#2 00 . ... : A-# 00 A ... : F-5 00 . ...
ROW 6D : F#2 00 . V00 ... : D-2 00 . V00 ... : ... .. . ... : E-# 00 7 ... : ... .. . ...
ROW 6E : ... .. . V01 ... : ... .. . V01 ... : ... .. . ... : ... .. 6 ... : ... .. . ...
ROW 6F : ... .. 4 V00 ... : ... .. 4 V00 ... : ... .. . ... : ... .. 4 ... : ... .. . ...
ROW 70 : ... .. 2 ... ... : ... .. 2 ... ... : ... .. . ... : ... .. 2 ... : ... .. . ...
ROW 71 : ... .. 1 ... ... : ... .. 1 ... ... : --- .. . ... : ... .. 1 ... : ... .. . ...
ROW 72 : A-1 00 D V03 ... : F#1 00 D V03 ... : C#2 00 . ... : A-# 00 A ... : ... .. . ...
ROW 73 : F#2 00 . V00 ... : D-2 00 . V00 ... : ... .. . ... : E-# 00 7 ... : ... .. . ...
ROW 74 : ... .. . V01 ... : ... .. . V01 ... : ... .. . ... : ... .. 6 ... : ... .. . ...
ROW 75 : ... .. 4 V00 ... : ... .. 4 V00 ... : ... .. . ... : ... .. 4 ... : ... .. . ...
ROW 76 : ... .. 2 ... ... : ... .. 2 ... ... : ... .. . ... : ... .. 2 ... : ... .. . ...
ROW 77 : ... .. 1 ... ... : ... .. 1 ... ... : ... .. . ... : ... .. 1 ... : ... .. . ...
ROW 78 : ... .. . ... ... : ... .. . ... ... : --- .. . ... : A-# 00 A ... : C-5 00 . ...
ROW 79 : ... .. . ... ... : ... .. . ... ... : ... .. . ... : E-# 00 7 ... : ... .. . ...
ROW 7A : ... .. . ... ... : ... .. . ... ... : ... .. . ... : ... .. 6 ... : ... .. . ...
ROW 7B : ... .. . ... ... : ... .. . ... ... : ... .. . ... : ... .. 4 ... : ... .. . ...
ROW 7C : ... .. . ... ... : ... .. . ... ... : ... .. . ... : ... .. 2 ... : ... .. . ...
ROW 7D : ... .. . ... ... : ... .. . ... ... : ... .. . ... : ... .. 1 ... : ... .. . ...
ROW 7E : A-1 00 D V03 ... : F#1 00 D V03 ... : C#4 00 . ... : A-# 00 A ... : ... .. . ...
ROW 7F : F#2 00 . V00 ... : D-2 00 . V00 ... : G#3 00 . ... : E-# 00 7 ... : ... .. . ...
ROW 80 : ... .. . V01 ... : ... .. . V01 ... : --- .. . ... : ... .. 6 ... : ... .. . ...
ROW 81 : ... .. 4 V00 ... : ... .. 4 V00 ... : C#4 00 . ... : ... .. 4 ... : ... .. . ...
ROW 82 : ... .. 2 ... ... : ... .. 2 ... ... : G#3 00 . ... : ... .. 2 ... : ... .. . ...
ROW 83 : ... .. 1 ... ... : ... .. 1 ... ... : --- .. . ... : ... .. 1 ... : ... .. . ...
ROW 84 : ... .. . ... ... : ... .. . ... ... : C#4 00 . ... : A-# 00 A ... : F-5 00 . ...
ROW 85 : ... .. . ... ... : ... .. . ... ... : B-3 00 . ... : E-# 00 7 ... : ... .. . ...
ROW 86 : ... .. . ... ... : ... .. . ... ... : A-3 00 . ... : ... .. 6 ... : ... .. . ...
ROW 87 : ... .. . ... ... : ... .. . ... ... : G#3 00 . ... : ... .. 4 ... : ... .. . ...
ROW 88 : ... .. . ... ... : ... .. . ... ... : F#3 00 . ... : ... .. 2 ... : ... .. . ...
ROW 89 : ... .. . ... ... : ... .. . ... ... : --- .. . ... : ... .. 1 ... : ... .. . ...
ROW 8A : A-1 00 D V03 ... : F#1 00 D V03 ... : C#2 00 . ... : A-# 00 A ... : ... .. . ...
ROW 8B : F#2 00 . V00 ... : D-2 00 . V00 ... : ... .. . ... : E-# 00 7 ... : ... .. . ...
ROW 8C : ... .. . V01 ... : ... .. . V01 ... : ... .. . ... : ... .. 6 ... : ... .. . ...
ROW 8D : ... .. 4 V00 ... : ... .. 4 V00 ... : ... .. . ... : ... .. 4 ... : ... .. . ...
ROW 8E : ... .. 2 ... ... : ... .. 2 ... ... : ... .. . ... : ... .. 2 ... : ... .. . ...
ROW 8F : ... .. 1 ... ... : ... .. 1 ... ... : --- .. . ... : ... .. 1 ... : ... .. . ...
ROW 90 : A-1 00 D V03 ... : F#1 00 D V03 ... : C#2 00 . ... : 4-# 00 A ... : C-5 00 . ...
ROW 91 : F#2 00 . V00 ... : D-2 00 . V00 ... : ... .. . ... : A-# 00 7 ... : ... .. . ...
ROW 92 : ... .. . V01 ... : ... .. . V01 ... : ... .. . ... : ... .. 6 ... : ... .. . ...
ROW 93 : ... .. 4 V00 ... : ... .. 4 V00 ... : ... .. . ... : ... .. 4 ... : ... .. . ...
ROW 94 : ... .. 2 ... ... : ... .. 2 ... ... : ... .. . ... : ... .. 2 ... : ... .. . ...
ROW 95 : ... .. 1 ... ... : ... .. 1 ... ... : --- .. . ... : ... .. 1 ... : ... .. . ...
ROW 96 : A-1 00 D V03 ... : F#1 00 D V03 ... : C#2 00 . ... : 2-# 00 A ... : ... .. . ...
ROW 97 : F#2 00 . V00 ... : D-2 00 . V00 ... : ... .. . ... : 9-# 00 7 ... : ... .. . ...
ROW 98 : ... .. . V01 ... : ... .. . V01 ... : ... .. . ... : ... .. 6 ... : ... .. . ...
ROW 99 : ... .. 4 V00 ... : ... .. 4 V00 ... : ... .. . ... : ... .. 4 ... : ... .. . ...
ROW 9A : ... .. 2 ... ... : ... .. 2 ... ... : ... .. . ... : ... .. 2 ... : ... .. . ...
ROW 9B : ... .. 1 ... ... : ... .. 1 ... ... : --- .. . ... : ... .. 1 ... : ... .. . ...
ROW 9C : A-1 00 D V03 ... : F#1 00 D V03 ... : C#2 00 . ... : 2-# 00 A ... : F-5 00 . ...
ROW 9D : F#2 00 . V00 ... : D-2 00 . V00 ... : ... .. . ... : 9-# 00 7 ... : ... .. . ...
ROW 9E : ... .. . V01 ... : ... .. . V01 ... : ... .. . ... : ... .. 6 ... : ... .. . ...
ROW 9F : ... .. 4 V00 ... : ... .. 4 V00 ... : ... .. . ... : ... .. 4 ... : ... .. . ...
ROW A0 : ... .. 2 ... ... : ... .. 2 ... ... : ... .. . ... : ... .. 2 ... : ... .. . ...
ROW A1 : ... .. 1 ... ... : ... .. 1 ... ... : --- .. . ... : ... .. 1 ... : ... .. . ...
ROW A2 : A-1 00 D V03 ... : F#1 00 D V03 ... : C#2 00 . ... : 2-# 00 A ... : ... .. . ...
ROW A3 : F#2 00 . V00 ... : D-2 00 . V00 ... : ... .. . ... : A-# 00 7 ... : ... .. . ...
ROW A4 : ... .. . V01 ... : ... .. . V01 ... : ... .. . ... : ... .. 6 ... : ... .. . ...
ROW A5 : ... .. 4 V00 ... : ... .. 4 V00 ... : ... .. . ... : ... .. 4 ... : ... .. . ...
ROW A6 : ... .. 2 ... ... : ... .. 2 ... ... : ... .. . ... : ... .. 2 ... : ... .. . ...
ROW A7 : ... .. 1 ... ... : ... .. 1 ... ... : ... .. . ... : ... .. 1 ... : ... .. . ...
ROW A8 : ... .. . ... ... : ... .. . ... ... : --- .. . ... : 3-# 00 A ... : C-5 00 . ...
ROW A9 : ... .. . ... ... : ... .. . ... ... : ... .. . ... : A-# 00 7 ... : ... .. . ...
ROW AA : ... .. . ... ... : ... .. . ... ... : ... .. . ... : ... .. 6 ... : ... .. . ...
ROW AB : ... .. . ... ... : ... .. . ... ... : ... .. . ... : 3-# 00 A ... : ... .. . ...
ROW AC : ... .. . ... ... : ... .. . ... ... : ... .. . ... : A-# 00 7 ... : ... .. . ...
ROW AD : ... .. . ... ... : ... .. . ... ... : ... .. . ... : ... .. 6 ... : ... .. . ...
ROW AE : A-1 00 D V03 ... : F#1 00 D V03 ... : C#4 00 . ... : 3-# 00 A ... : ... .. . ...
ROW AF : F#2 00 . V00 ... : D-2 00 . V00 ... : G#3 00 . ... : A-# 00 7 ... : ... .. . ...
ROW B0 : ... .. . V01 ... : ... .. . V01 ... : --- .. . ... : ... .. 6 ... : ... .. . ...
ROW B1 : ... .. 4 V00 ... : ... .. 4 V00 ... : C#4 00 . ... : ... .. 4 ... : ... .. . ...
ROW B2 : ... .. 2 ... ... : ... .. 2 ... ... : G#3 00 . ... : ... .. 2 ... : ... .. . ...
ROW B3 : ... .. 1 ... ... : ... .. 1 ... ... : --- .. . ... : ... .. 1 ... : ... .. . ...
ROW B4 : ... .. . ... ... : ... .. . ... ... : C#4 00 . ... : 4-# 00 A ... : F-5 00 . ...
ROW B5 : ... .. . ... ... : ... .. . ... ... : B-3 00 . ... : B-# 00 7 ... : ... .. . ...
ROW B6 : ... .. . ... ... : ... .. . ... ... : A-3 00 . ... : ... .. 6 ... : ... .. . ...
ROW B7 : ... .. . ... ... : ... .. . ... ... : G#3 00 . ... : ... .. 4 ... : ... .. . ...
ROW B8 : ... .. . ... ... : ... .. . ... ... : F#3 00 . ... : ... .. 2 ... : ... .. . ...
ROW B9 : ... .. . ... ... : ... .. . ... ... : --- .. . ... : ... .. 1 ... : ... .. . ...
ROW BA : A-1 00 D V03 ... : F#1 00 D V03 ... : C#2 00 . ... : 4-# 00 A ... : ... .. . ...
ROW BB : F#2 00 . V00 ... : D-2 00 . V00 ... : ... .. . ... : B-# 00 7 ... : ... .. . ...
ROW BC : ... .. . V01 ... : ... .. . V01 ... : ... .. . ... : ... .. 6 ... : ... .. . ...
ROW BD : ... .. 4 V00 ... : ... .. 4 V00 ... : ... .. . ... : ... .. 4 ... : ... .. . ...
ROW BE : ... .. 2 ... ... : ... .. 2 ... ... : ... .. . ... : ... .. 2 ... : ... .. . ...
ROW BF : ... .. 1 ... ... : ... .. 1 ... ... : --- .. . ... : ... .. 1 ... : ... .. . D00
ROW C0 : ... .. . ... ... : ... .. . ... ... : C#2 00 . ... : ... .. . ... : ... .. . ...
ROW C1 : ... .. . ... ... : ... .. . ... ... : ... .. . ... : ... .. . ... : ... .. . ...
ROW C2 : ... .. . ... ... : ... .. . ... ... : ... .. . ... : ... .. . ... : ... .. . ...
ROW C3 : ... .. . ... ... : ... .. . ... ... : ... .. . ... : ... .. . ... : ... .. . ...
ROW C4 : ... .. . ... ... : ... .. . ... ... : ... .. . ... : ... .. . ... : ... .. . ...
ROW C5 : ... .. . ... ... : ... .. . ... ... : ... .. . ... : ... .. . ... : ... .. . ...
ROW C6 : ... .. . ... ... : ... .. . ... ... : ... .. . ... : ... .. . ... : ... .. . ...
ROW C7 : ... .. . ... ... : ... .. . ... ... : ... .. . ... : ... .. . ... : ... .. . ...
ROW C8 : ... .. . ... ... : ... .. . ... ... : ... .. . ... : ... .. . ... : ... .. . ...
ROW C9 : ... .. . ... ... : ... .. . ... ... : ... .. . ... : ... .. . ... : ... .. . ...
ROW CA : ... .. . ... ... : ... .. . ... ... : ... .. . ... : ... .. . ... : ... .. . ...
ROW CB : ... .. . ... ... : ... .. . ... ... : ... .. . ... : ... .. . ... : ... .. . ...
ROW CC : ... .. . ... ... : ... .. . ... ... : ... .. . ... : ... .. . ... : ... .. . ...
ROW CD : ... .. . ... ... : ... .. . ... ... : ... .. . ... : ... .. . ... : ... .. . ...
ROW CE : ... .. . ... ... : ... .. . ... ... : ... .. . ... : ... .. . ... : ... .. . ...
ROW CF : ... .. . ... ... : ... .. . ... ... : ... .. . ... : ... .. . ... : ... .. . ...
ROW D0 : ... .. . ... ... : ... .. . ... ... : ... .. . ... : ... .. . ... : ... .. . ...
ROW D1 : ... .. . ... ... : ... .. . ... ... : ... .. . ... : ... .. . ... : ... .. . ...
ROW D2 : ... .. . ... ... : ... .. . ... ... : ... .. . ... : ... .. . ... : ... .. . ...
ROW D3 : ... .. . ... ... : ... .. . ... ... : ... .. . ... : ... .. . ... : ... .. . ...
ROW D4 : ... .. . ... ... : ... .. . ... ... : ... .. . ... : ... .. . ... : ... .. . ...
ROW D5 : ... .. . ... ... : ... .. . ... ... : ... .. . ... : ... .. . ... : ... .. . ...
ROW D6 : ... .. . ... ... : ... .. . ... ... : ... .. . ... : ... .. . ... : ... .. . ...
ROW D7 : ... .. . ... ... : ... .. . ... ... : ... .. . ... : ... .. . ... : ... .. . ...
ROW D8 : ... .. . ... ... : ... .. . ... ... : ... .. . ... : ... .. . ... : ... .. . ...
ROW D9 : ... .. . ... ... : ... .. . ... ... : ... .. . ... : ... .. . ... : ... .. . ...
ROW DA : ... .. . ... ... : ... .. . ... ... : ... .. . ... : ... .. . ... : ... .. . ...
ROW DB : ... .. . ... ... : ... .. . ... ... : ... .. . ... : ... .. . ... : ... .. . ...
ROW DC : ... .. . ... ... : ... .. . ... ... : ... .. . ... : ... .. . ... : ... .. . ...
ROW DD : ... .. . ... ... : ... .. . ... ... : ... .. . ... : ... .. . ... : ... .. . ...
ROW DE : ... .. . ... ... : ... .. . ... ... : ... .. . ... : ... .. . ... : ... .. . ...
ROW DF : ... .. . ... ... : ... .. . ... ... : ... .. . ... : ... .. . ... : ... .. . ...
ROW E0 : ... .. . ... ... : ... .. . ... ... : ... .. . ... : ... .. . ... : ... .. . ...
ROW E1 : ... .. . ... ... : ... .. . ... ... : ... .. . ... : ... .. . ... : ... .. . ...
ROW E2 : ... .. . ... ... : ... .. . ... ... : ... .. . ... : ... .. . ... : ... .. . ...
ROW E3 : ... .. . ... ... : ... .. . ... ... : ... .. . ... : ... .. . ... : ... .. . ...
ROW E4 : ... .. . ... ... : ... .. . ... ... : ... .. . ... : ... .. . ... : ... .. . ...
ROW E5 : ... .. . ... ... : ... .. . ... ... : ... .. . ... : ... .. . ... : ... .. . ...
ROW E6 : ... .. . ... ... : ... .. . ... ... : ... .. . ... : ... .. . ... : ... .. . ...
ROW E7 : ... .. . ... ... : ... .. . ... ... : ... .. . ... : ... .. . ... : ... .. . ...
ROW E8 : ... .. . ... ... : ... .. . ... ... : ... .. . ... : ... .. . ... : ... .. . ...
ROW E9 : ... .. . ... ... : ... .. . ... ... : ... .. . ... : ... .. . ... : ... .. . ...
ROW EA : ... .. . ... ... : ... .. . ... ... : ... .. . ... : ... .. . ... : ... .. . ...
ROW EB : ... .. . ... ... : ... .. . ... ... : ... .. . ... : ... .. . ... : ... .. . ...
ROW EC : ... .. . ... ... : ... .. . ... ... : ... .. . ... : ... .. . ... : ... .. . ...
ROW ED : ... .. . ... ... : ... .. . ... ... : ... .. . ... : ... .. . ... : ... .. . ...
ROW EE : ... .. . ... ... : ... .. . ... ... : ... .. . ... : ... .. . ... : ... .. . ...
ROW EF : ... .. . ... ... : ... .. . ... ... : ... .. . ... : ... .. . ... : ... .. . ...
ROW F0 : ... .. . ... ... : ... .. . ... ... : ... .. . ... : ... .. . ... : ... .. . ...
ROW F1 : ... .. . ... ... : ... .. . ... ... : ... .. . ... : ... .. . ... : ... .. . ...
ROW F2 : ... .. . ... ... : ... .. . ... ... : ... .. . ... : ... .. . ... : ... .. . ...
ROW F3 : ... .. . ... ... : ... .. . ... ... : ... .. . ... : ... .. . ... : ... .. . ...
ROW F4 : ... .. . ... ... : ... .. . ... ... : ... .. . ... : ... .. . ... : ... .. . ...
ROW F5 : ... .. . ... ... : ... .. . ... ... : ... .. . ... : ... .. . ... : ... .. . ...
ROW F6 : ... .. . ... ... : ... .. . ... ... : ... .. . ... : ... .. . ... : ... .. . ...
ROW F7 : ... .. . ... ... : ... .. . ... ... : ... .. . ... : ... .. . ... : ... .. . ...
ROW F8 : ... .. . ... ... : ... .. . ... ... : ... .. . ... : ... .. . ... : ... .. . ...
ROW F9 : ... .. . ... ... : ... .. . ... ... : ... .. . ... : ... .. . ... : ... .. . ...
ROW FA : ... .. . ... ... : ... .. . ... ... : ... .. . ... : ... .. . ... : ... .. . ...
ROW FB : ... .. . ... ... : ... .. . ... ... : ... .. . ... : ... .. . ... : ... .. . ...
ROW FC : ... .. . ... ... : ... .. . ... ... : ... .. . ... : ... .. . ... : ... .. . ...
ROW FD : ... .. . ... ... : ... .. . ... ... : ... .. . ... : ... .. . ... : ... .. . ...
ROW FE : ... .. . ... ... : ... .. . ... ... : ... .. . ... : ... .. . ... : ... .. . ...
ROW FF : ... .. . ... ... : ... .. . ... ... : ... .. . ... : ... .. . ... : ... .. . ...

PATTERN 0B
ROW 00 : G#1 00 D V03 P7F : E-1 00 D V03 P81 : F#2 00 . P80 : 1-# 00 A ... : C-5 00 . ...
ROW 01 : E-2 00 . V00 ... : B-1 00 . V00 ... : ... .. . ... : ... .. 7 ... : ... .. . ...
ROW 02 : ... .. . V01 ... : ... .. . V01 ... : ... .. . ... : ... .. 6 ... : ... .. . ...
ROW 03 : ... .. 4 V00 ... : ... .. 4 V00 ... : ... .. . ... : ... .. 4 ... : ... .. . ...
ROW 04 : ... .. 2 ... ... : ... .. 2 ... ... : ... .. . ... : ... .. 2 ... : ... .. . ...
ROW 05 : ... .. 1 ... ... : ... .. 1 ... ... : ... .. . ... : ... .. 1 ... : ... .. . ...
ROW 06 : G#1 00 D V03 ... : E-1 00 D V03 ... : ... .. . ... : 4-# 00 A ... : ... .. . ...
ROW 07 : E-2 00 . V00 ... : B-1 00 . V00 ... : --- .. . ... : B-# 00 7 ... : ... .. . ...
ROW 08 : ... .. . V01 ... : ... .. . V01 ... : ... .. . ... : ... .. 6 ... : ... .. . ...
ROW 09 : ... .. 4 V00 ... : ... .. 4 V00 ... : ... .. . ... : ... .. 4 ... : ... .. . ...
ROW 0A : ... .. 2 ... ... : ... .. 2 ... ... : ... .. . ... : ... .. 2 ... : ... .. . ...
ROW 0B : ... .. 1 ... ... : ... .. 1 ... ... : ... .. . ... : ... .. 1 ... : ... .. . ...
ROW 0C : G#1 00 D V03 ... : E-1 00 D V03 ... : ... .. . ... : 7-# 00 A ... : F-5 00 . ...
ROW 0D : E-2 00 . V00 ... : B-1 00 . V00 ... : ... .. . ... : ... .. 7 ... : ... .. . ...
ROW 0E : ... .. . V01 ... : ... .. . V01 ... : F#2 00 . ... : ... .. 6 ... : ... .. . ...
ROW 0F : ... .. 4 V00 ... : ... .. 4 V00 ... : ... .. . ... : ... .. 4 ... : ... .. . ...
ROW 10 : ... .. 2 ... ... : ... .. 2 ... ... : ... .. . ... : ... .. 2 ... : ... .. . ...
ROW 11 : ... .. 1 ... ... : ... .. 1 ... ... : ... .. . ... : ... .. 1 ... : ... .. . ...
ROW 12 : G#1 00 D V03 ... : E-1 00 D V03 ... : ... .. . ... : 4-# 00 A ... : ... .. . ...
ROW 13 : E-2 00 . V00 ... : B-1 00 . V00 ... : ... .. . ... : B-# 00 7 ... : ... .. . ...
ROW 14 : ... .. . V01 ... : ... .. . V01 ... : --- .. . ... : ... .. 6 ... : ... .. . ...
ROW 15 : ... .. 4 V00 ... : ... .. 4 V00 ... : F#2 00 . ... : ... .. 4 ... : ... .. . ...
ROW 16 : ... .. 2 ... ... : ... .. 2 ... ... : ... .. . ... : ... .. 2 ... : ... .. . ...
ROW 17 : ... .. 1 ... ... : ... .. 1 ... ... : ... .. . ... : ... .. 1 ... : ... .. . ...
ROW 18 : ... .. . ... ... : ... .. . ... ... : ... .. . ... : 1-# 00 A ... : C-5 00 . ...
ROW 19 : ... .. . ... ... : ... .. . ... ... : ... .. . ... : ... .. 7 ... : ... .. . ...
ROW 1A : ... .. . ... ... : ... .. . ... ... : ... .. . ... : ... .. 6 ... : ... .. . ...
ROW 1B : ... .. . ... ... : ... .. . ... ... : --- .. . ... : ... .. 4 ... : ... .. . ...
ROW 1C : ... .. . ... ... : ... .. . ... ... : G#4 00 . ... : ... .. 2 ... : ... .. . ...
ROW 1D : ... .. . ... ... : ... .. . ... ... : F#4 00 . ... : ... .. 1 ... : ... .. . ...
ROW 1E : G#1 00 D V03 ... : E-1 00 D V03 ... : E-4 00 . ... : 4-# 00 A ... : ... .. . ...
ROW 1F : E-2 00 . V00 ... : B-1 00 . V00 ... : D-4 00 . ... : B-# 00 7 ... : ... .. . ...
ROW 20 : ... .. . V01 ... : ... .. . V01 ... : C#4 00 . ... : ... .. 6 ... : ... .. . ...
ROW 21 : ... .. 4 V00 ... : ... .. 4 V00 ... : B-3 00 . ... : 4-# 00 A ... : ... .. . ...
ROW 22 : ... .. 2 ... ... : ... .. 2 ... ... : A-3 00 . ... : B-# 00 7 ... : ... .. . ...
ROW 23 : ... .. 1 ... ... : ... .. 1 ... ... : G#3 00 . ... : ... .. 6 ... : ... .. . ...
ROW 24 : ... .. . ... ... : ... .. . ... ... : F#3 00 . ... : 7-# 00 A ... : F-5 00 . ...
ROW 25 : ... .. . ... ... : ... .. . ... ... : --- .. . ... : ... .. 7 ... : ... .. . ...
ROW 26 : ... .. . ... ... : ... .. . ... ... : ... .. . ... : ... .. 6 ... : ... .. . ...
ROW 27 : ... .. . ... ... : ... .. . ... ... : ... .. . ... : ... .. 4 ... : ... .. . ...
ROW 28 : ... .. . ... ... : ... .. . ... ... : ... .. . ... : ... .. 2 ... : ... .. . ...
ROW 29 : ... .. . ... ... : ... .. . ... ... : ... .. . ... : ... .. 1 ... : ... .. . ...
ROW 2A : G#1 00 D V03 ... : E-1 00 D V03 ... : F#2 00 . ... : 7-# 00 A ... : ... .. . ...
ROW 2B : E-2 00 . V00 ... : B-1 00 . V00 ... : ... .. . ... : ... .. 7 ... : ... .. . ...
ROW 2C : ... .. . V01 ... : ... .. . V01 ... : ... .. . ... : ... .. 6 ... : ... .. . ...
ROW 2D : ... .. 4 V00 ... : ... .. 4 V00 ... : ... .. . ... : ... .. 4 ... : ... .. . ...
ROW 2E : ... .. 2 ... ... : ... .. 2 ... ... : ... .. . ... : ... .. 2 ... : ... .. . ...
ROW 2F : ... .. 1 ... ... : ... .. 1 ... ... : ... .. . ... : ... .. 1 ... : ... .. . ...
ROW 30 : G#1 00 D V03 ... : E-1 00 D V03 ... : ... .. . ... : 1-# 00 A ... : C-5 00 . ...
ROW 31 : E-2 00 . V00 ... : B-1 00 . V00 ... : --- .. . ... : ... .. 7 ... : ... .. . ...
ROW 32 : ... .. . V01 ... : ... .. . V01 ... : ... .. . ... : ... .. 6 ... : ... .. . ...
ROW 33 : ... .. 4 V00 ... : ... .. 4 V00 ... : ... .. . ... : ... .. 4 ... : ... .. . ...
ROW 34 : ... .. 2 ... ... : ... .. 2 ... ... : ... .. . ... : ... .. 2 ... : ... .. . ...
ROW 35 : ... .. 1 ... ... : ... .. 1 ... ... : ... .. . ... : ... .. 1 ... : ... .. . ...
ROW 36 : G#1 00 D V03 ... : E-1 00 D V03 ... : ... .. . ... : 4-# 00 A ... : ... .. . ...
ROW 37 : E-2 00 . V00 ... : B-1 00 . V00 ... : ... .. . ... : B-# 00 7 ... : ... .. . ...
ROW 38 : ... .. . V01 ... : ... .. . V01 ... : F#2 00 . ... : ... .. 6 ... : ... .. . ...
ROW 39 : ... .. 4 V00 ... : ... .. 4 V00 ... : ... .. . ... : ... .. 4 ... : ... .. . ...
ROW 3A : ... .. 2 ... ... : ... .. 2 ... ... : ... .. . ... : ... .. 2 ... : ... .. . ...
ROW 3B : ... .. 1 ... ... : ... .. 1 ... ... : ... .. . ... : ... .. 1 ... : ... .. . ...
ROW 3C : G#1 00 D V03 ... : E-1 00 D V03 ... : ... .. . ... : 7-# 00 A ... : F-5 00 . ...
ROW 3D : E-2 00 . V00 ... : B-1 00 . V00 ... : ... .. . ... : ... .. 7 ... : ... .. . ...
ROW 3E : ... .. . V01 ... : ... .. . V01 ... : ... .. . ... : ... .. 6 ... : ... .. . ...
ROW 3F : ... .. 4 V00 ... : ... .. 4 V00 ... : --- .. . ... : ... .. 4 ... : ... .. . ...
ROW 40 : ... .. 2 ... ... : ... .. 2 ... ... : ... .. . ... : ... .. 2 ... : ... .. . ...
ROW 41 : ... .. 1 ... ... : ... .. 1 ... ... : ... .. . ... : ... .. 1 ... : ... .. . ...
ROW 42 : G#1 00 D V03 ... : E-1 00 D V03 ... : ... .. . ... : 4-# 00 A ... : ... .. . ...
ROW 43 : E-2 00 . V00 ... : B-1 00 . V00 ... : ... .. . ... : B-# 00 7 ... : ... .. . ...
ROW 44 : ... .. . V01 ... : ... .. . V01 ... : ... .. . ... : ... .. 6 ... : ... .. . ...
ROW 45 : ... .. 4 V00 ... : ... .. 4 V00 ... : ... .. . ... : ... .. 4 ... : ... .. . ...
ROW 46 : ... .. 2 ... ... : ... .. 2 ... ... : F#2 00 . ... : ... .. 2 ... : ... .. . ...
ROW 47 : ... .. 1 ... ... : ... .. 1 ... ... : ... .. . ... : ... .. 1 ... : ... .. . ...
ROW 48 : ... .. . ... ... : ... .. . ... ... : ... .. . ... : 1-# 00 A ... : C-5 00 . ...
ROW 49 : ... .. . ... ... : ... .. . ... ... : ... .. . ... : ... .. 7 ... : ... .. . ...
ROW 4A : ... .. . ... ... : ... .. . ... ... : ... .. . ... : ... .. 6 ... : ... .. . ...
ROW 4B : ... .. . ... ... : ... .. . ... ... : ... .. . ... : ... .. 4 ... : ... .. . ...
ROW 4C : ... .. . ... ... : ... .. . ... ... : --- .. . ... : ... .. 2 ... : ... .. . ...
ROW 4D : ... .. . ... ... : ... .. . ... ... : F#2 00 . ... : ... .. 1 ... : ... .. . ...
ROW 4E : G#1 00 D V03 ... : E-1 00 D V03 ... : ... .. . ... : 4-# 00 A ... : ... .. . ...
ROW 4F : E-2 00 . V00 ... : B-1 00 . V00 ... : ... .. . ... : B-# 00 7 ... : ... .. . ...
ROW 50 : ... .. . V01 ... : ... .. . V01 ... : ... .. . ... : ... .. 6 ... : ... .. . ...
ROW 51 : ... .. 4 V00 ... : ... .. 4 V00 ... : ... .. . ... : ... .. 4 ... : ... .. . ...
ROW 52 : ... .. 2 ... ... : ... .. 2 ... ... : ... .. . ... : ... .. 2 ... : ... .. . ...
ROW 53 : ... .. 1 ... ... : ... .. 1 ... ... : --- .. . ... : ... .. 1 ... : ... .. . ...
ROW 54 : ... .. . ... ... : ... .. . ... ... : G#4 00 . ... : 7-# 00 A ... : F-5 00 . ...
ROW 55 : ... .. . ... ... : ... .. . ... ... : F#4 00 . ... : ... .. 7 ... : ... .. . ...
ROW 56 : ... .. . ... ... : ... .. . ... ... : E-4 00 . ... : ... .. 6 ... : ... .. . ...
ROW 57 : ... .. . ... ... : ... .. . ... ... : D-4 00 . ... : ... .. 4 ... : ... .. . ...
ROW 58 : ... .. . ... ... : ... .. . ... ... : C#4 00 . ... : ... .. 2 ... : ... .. . ...
ROW 59 : ... .. . ... ... : ... .. . ... ... : B-3 00 . ... : ... .. 1 ... : ... .. . ...
ROW 5A : G#1 00 D V03 ... : E-1 00 D V03 ... : A-3 00 . ... : 4-# 00 A ... : ... .. . ...
ROW 5B : E-2 00 . V00 ... : B-1 00 . V00 ... : G#3 00 . ... : B-# 00 7 ... : ... .. . ...
ROW 5C : ... .. . V01 ... : ... .. . V01 ... : F#3 00 . ... : ... .. 6 ... : ... .. . ...
ROW 5D : ... .. 4 V00 ... : ... .. 4 V00 ... : --- .. . ... : ... .. 4 ... : ... .. . ...
ROW 5E : ... .. 2 ... ... : ... .. 2 ... ... : ... .. . ... : ... .. 2 ... : ... .. . ...
ROW 5F : ... .. 1 ... ... : ... .. 1 ... ... : ... .. . ... : ... .. 1 ... : ... .. . ...
ROW 60 : G#1 00 D V03 ... : F-1 00 D V03 ... : ... .. . ... : 1-# 00 A ... : C-5 00 . ...
ROW 61 : F-2 00 . V00 ... : B-1 00 . V00 ... : ... .. . ... : ... .. 7 ... : ... .. . ...
ROW 62 : ... .. . V01 ... : ... .. . V01 ... : F#2 00 . ... : ... .. 6 ... : ... .. . ...
ROW 63 : ... .. 4 V00 ... : ... .. 4 V00 ... : ... .. . ... : ... .. 4 ... : ... .. . ...
ROW 64 : ... .. 2 ... ... : ... .. 2 ... ... : ... .. . ... : ... .. 2 ... : ... .. . ...
ROW 65 : ... .. 1 ... ... : ... .. 1 ... ... : ... .. . ... : ... .. 1 ... : ... .. . ...
ROW 66 : G#1 00 D V03 ... : F-1 00 D V03 ... : ... .. . ... : 4-# 00 A ... : ... .. . ...
ROW 67 : F-2 00 . V00 ... : B-1 00 . V00 ... : ... .. . ... : B-# 00 7 ... : ... .. . ...
ROW 68 : ... .. . V01 ... : ... .. . V01 ... : ... .. . ... : ... .. 6 ... : ... .. . ...
ROW 69 : ... .. 4 V00 ... : ... .. 4 V00 ... : --- .. . ... : ... .. 4 ... : ... .. . ...
ROW 6A : ... .. 2 ... ... : ... .. 2 ... ... : ... .. . ... : ... .. 2 ... : ... .. . ...
ROW 6B : ... .. 1 ... ... : ... .. 1 ... ... : ... .. . ... : ... .. 1 ... : ... .. . ...
ROW 6C : G#1 00 D V03 ... : F-1 00 D V03 ... : ... .. . ... : 7-# 00 A ... : F-5 00 . ...
ROW 6D : F-2 00 . V00 ... : B-1 00 . V00 ... : ... .. . ... : ... .. 7 ... : ... .. . ...
ROW 6E : ... .. . V01 ... : ... .. . V01 ... : ... .. . ... : ... .. 6 ... : ... .. . ...
ROW 6F : ... .. 4 V00 ... : ... .. 4 V00 ... : ... .. . ... : ... .. 4 ... : ... .. . ...
ROW 70 : ... .. 2 ... ... : ... .. 2 ... ... : D-2 00 . ... : ... .. 2 ... : ... .. . ...
ROW 71 : ... .. 1 ... ... : ... .. 1 ... ... : ... .. . ... : ... .. 1 ... : ... .. . ...
ROW 72 : G#1 00 D V03 ... : F-1 00 D V03 ... : ... .. . ... : 4-# 00 A ... : ... .. . ...
ROW 73 : F-2 00 . V00 ... : B-1 00 . V00 ... : ... .. . ... : B-# 00 7 ... : ... .. . ...
ROW 74 : ... .. . V01 ... : ... .. . V01 ... : ... .. . ... : ... .. 6 ... : ... .. . ...
ROW 75 : ... .. 4 V00 ... : ... .. 4 V00 ... : ... .. . ... : ... .. 4 ... : ... .. . ...
ROW 76 : ... .. 2 ... ... : ... .. 2 ... ... : ... .. . ... : ... .. 2 ... : ... .. . ...
ROW 77 : ... .. 1 ... ... : ... .. 1 ... ... : --- .. . ... : ... .. 1 ... : ... .. . ...
ROW 78 : ... .. . ... ... : ... .. . ... ... : ... .. . ... : 1-# 00 A ... : C-5 00 . ...
ROW 79 : ... .. . ... ... : ... .. . ... ... : ... .. . ... : ... .. 7 ... : ... .. . ...
ROW 7A : ... .. . ... ... : ... .. . ... ... : ... .. . ... : ... .. 6 ... : ... .. . ...
ROW 7B : ... .. . ... ... : ... .. . ... ... : ... .. . ... : ... .. 4 ... : ... .. . ...
ROW 7C : ... .. . ... ... : ... .. . ... ... : ... .. . ... : ... .. 2 ... : ... .. . ...
ROW 7D : ... .. . ... ... : ... .. . ... ... : ... .. . ... : ... .. 1 ... : ... .. . ...
ROW 7E : G#1 00 D V03 ... : F-1 00 D V03 ... : D-2 00 . ... : 4-# 00 A ... : ... .. . ...
ROW 7F : F-2 00 . V00 ... : B-1 00 . V00 ... : ... .. . ... : B-# 00 7 ... : ... .. . ...
ROW 80 : ... .. . V01 ... : ... .. . V01 ... : ... .. . ... : ... .. 6 ... : ... .. . ...
ROW 81 : ... .. 4 V00 ... : ... .. 4 V00 ... : ... .. . ... : 4-# 00 A ... : ... .. . ...
ROW 82 : ... .. 2 ... ... : ... .. 2 ... ... : ... .. . ... : B-# 00 7 ... : ... .. . ...
ROW 83 : ... .. 1 ... ... : ... .. 1 ... ... : ... .. . ... : ... .. 6 ... : ... .. . ...
ROW 84 : ... .. . ... ... : ... .. . ... ... : --- .. . ... : 7-# 00 A ... : F-5 00 . ...
ROW 85 : ... .. . ... ... : ... .. . ... ... : D-2 00 . ... : ... .. 7 ... : ... .. . ...
ROW 86 : ... .. . ... ... : ... .. . ... ... : ... .. . ... : ... .. 6 ... : ... .. . ...
ROW 87 : ... .. . ... ... : ... .. . ... ... : ... .. . ... : ... .. 4 ... : ... .. . ...
ROW 88 : ... .. . ... ... : ... .. . ... ... : ... .. . ... : ... .. 2 ... : ... .. . ...
ROW 89 : ... .. . ... ... : ... .. . ... ... : ... .. . ... : ... .. 1 ... : ... .. . ...
ROW 8A : G#1 00 D V03 ... : F-1 00 D V03 ... : ... .. . ... : 7-# 00 A ... : ... .. . ...
ROW 8B : F-2 00 . V00 ... : B-1 00 . V00 ... : --- .. . ... : ... .. 7 ... : ... .. . ...
ROW 8C : ... .. . V01 ... : ... .. . V01 ... : E-4 00 . ... : ... .. 6 ... : ... .. . ...
ROW 8D : ... .. 4 V00 ... : ... .. 4 V00 ... : D-4 00 . ... : ... .. 4 ... : ... .. . ...
ROW 8E : ... .. 2 ... ... : ... .. 2 ... ... : C-4 00 . ... : ... .. 2 ... : ... .. . ...
ROW 8F : ... .. 1 ... ... : ... .. 1 ... ... : A#3 00 . ... : ... .. 1 ... : ... .. . ...
ROW 90 : G#1 00 D V03 ... : F-1 00 D V03 ... : A-3 00 . ... : 1-# 00 A ... : C-5 00 . ...
ROW 91 : F-2 00 . V00 ... : B-1 00 . V00 ... : G-3 00 . ... : ... .. 7 ... : ... .. . ...
ROW 92 : ... .. . V01 ... : ... .. . V01 ... : F-3 00 . ... : ... .. 6 ... : ... .. . ...
ROW 93 : ... .. 4 V00 ... : ... .. 4 V00 ... : E-3 00 . ... : ... .. 4 ... : ... .. . ...
ROW 94 : ... .. 2 ... ... : ... .. 2 ... ... : D-3 00 . ... : ... .. 2 ... : ... .. . ...
ROW 95 : ... .. 1 ... ... : ... .. 1 ... ... : --- .. . ... : ... .. 1 ... : ... .. . ...
ROW 96 : G#1 00 D V03 ... : F-1 00 D V03 ... : ... .. . ... : 4-# 00 A ... : F-5 00 . ...
ROW 97 : F-2 00 . V00 ... : B-1 00 . V00 ... : ... .. . ... : B-# 00 7 ... : ... .. . ...
ROW 98 : ... .. . V01 ... : ... .. . V01 ... : ... .. . ... : ... .. 6 ... : ... .. . ...
ROW 99 : ... .. 4 V00 ... : ... .. 4 V00 ... : ... .. . ... : ... .. 4 ... : ... .. . ...
ROW 9A : ... .. 2 ... ... : ... .. 2 ... ... : D-2 00 . ... : ... .. 2 ... : ... .. . ...
ROW 9B : ... .. 1 ... ... : ... .. 1 ... ... : ... .. . ... : ... .. 1 ... : ... .. . ...
ROW 9C : G#1 00 D V03 ... : F-1 00 D V03 ... : ... .. . ... : 7-# 00 A ... : F-5 00 . ...
ROW 9D : F-2 00 . V00 ... : B-1 00 . V00 ... : ... .. . ... : ... .. 7 ... : ... .. . ...
ROW 9E : ... .. . V01 ... : ... .. . V01 ... : ... .. . ... : ... .. 6 ... : ... .. . ...
ROW 9F : ... .. 4 V00 ... : ... .. 4 V00 ... : ... .. . ... : ... .. 4 ... : ... .. . ...
ROW A0 : ... .. 2 ... ... : ... .. 2 ... ... : ... .. . ... : ... .. 2 ... : ... .. . ...
ROW A1 : ... .. 1 ... ... : ... .. 1 ... ... : --- .. . ... : ... .. 1 ... : ... .. . ...
ROW A2 : G#1 00 D V03 ... : F-1 00 D V03 ... : ... .. . ... : 4-# 00 A ... : F-5 00 . ...
ROW A3 : F-2 00 . V00 ... : B-1 00 . V00 ... : ... .. . ... : B-# 00 7 ... : ... .. . ...
ROW A4 : ... .. . V01 ... : ... .. . V01 ... : ... .. . ... : ... .. 6 ... : ... .. . ...
ROW A5 : ... .. 4 V00 ... : ... .. 4 V00 ... : ... .. . ... : ... .. 4 ... : ... .. . ...
ROW A6 : ... .. 2 ... ... : ... .. 2 ... ... : ... .. . ... : ... .. 2 ... : ... .. . ...
ROW A7 : ... .. 1 ... ... : ... .. 1 ... ... : ... .. . ... : ... .. 1 ... : ... .. . ...
ROW A8 : ... .. . ... ... : ... .. . ... ... : D-2 00 . ... : 1-# 00 A ... : F-5 00 . ...
ROW A9 : ... .. . ... ... : ... .. . ... ... : ... .. . ... : ... .. 7 ... : ... .. . ...
ROW AA : ... .. . ... ... : ... .. . ... ... : ... .. . ... : ... .. 6 ... : ... .. . ...
ROW AB : ... .. . ... ... : ... .. . ... ... : ... .. . ... : ... .. 4 ... : F-5 00 . ...
ROW AC : ... .. . ... ... : ... .. . ... ... : ... .. . ... : ... .. 2 ... : ... .. . ...
ROW AD : ... .. . ... ... : ... .. . ... ... : ... .. . ... : ... .. 1 ... : ... .. . ...
ROW AE : G#1 00 D V03 ... : F-1 00 D V03 ... : ... .. . ... : 4-# 00 A ... : F-5 00 . ...
ROW AF : F-2 00 . V00 ... : B-1 00 . V00 ... : --- .. . ... : B-# 00 7 ... : ... .. . ...
ROW B0 : ... .. . V01 ... : ... .. . V01 ... : ... .. . ... : ... .. 6 ... : ... .. . ...
ROW B1 : ... .. 4 V00 ... : ... .. 4 V00 ... : ... .. . ... : 4-# 00 A ... : ... .. . ...
ROW B2 : ... .. 2 ... ... : ... .. 2 ... ... : ... .. . ... : B-# 00 7 ... : ... .. . ...
ROW B3 : ... .. 1 ... ... : ... .. 1 ... ... : ... .. . ... : ... .. 6 ... : ... .. . ...
ROW B4 : ... .. . ... ... : ... .. . ... ... : ... .. . ... : 7-# 00 A ... : F-5 00 . ...
ROW B5 : ... .. . ... ... : ... .. . ... ... : ... .. . ... : ... .. 7 ... : ... .. . ...
ROW B6 : ... .. . ... ... : ... .. . ... ... : D-2 00 . ... : ... .. 6 ... : ... .. . ...
ROW B7 : ... .. . ... ... : ... .. . ... ... : ... .. . ... : ... .. 4 ... : ... .. . ...
ROW B8 : ... .. . ... ... : ... .. . ... ... : ... .. . ... : ... .. 2 ... : ... .. . ...
ROW B9 : ... .. . ... ... : ... .. . ... ... : ... .. . ... : ... .. 1 ... : ... .. . ...
ROW BA : G#1 00 D V03 ... : F-1 00 D V03 ... : ... .. . ... : 7-# 00 A ... : F-5 00 . ...
ROW BB : F-2 00 . V00 ... : B-1 00 . V00 ... : ... .. . ... : ... .. 7 ... : ... .. . ...
ROW BC : ... .. . V01 ... : ... .. . V01 ... : --- .. . ... : ... .. 6 ... : ... .. . ...
ROW BD : ... .. 4 V00 ... : ... .. 4 V00 ... : D-2 00 . ... : ... .. 4 ... : ... .. . ...
ROW BE : ... .. 2 ... ... : ... .. 2 ... ... : ... .. . ... : ... .. 2 ... : ... .. . ...
ROW BF : ... .. 1 ... ... : ... .. 1 ... ... : ... .. . ... : ... .. 1 ... : ... .. . D00
ROW C0 : ... .. . ... ... : ... .. . ... ... : ... .. . ... : ... .. . ... : ... .. . ...
ROW C1 : ... .. . ... ... : ... .. . ... ... : ... .. . ... : ... .. . ... : ... .. . ...
ROW C2 : ... .. . ... ... : ... .. . ... ... : ... .. . ... : ... .. . ... : ... .. . ...
ROW C3 : ... .. . ... ... : ... .. . ... ... : --- .. . ... : ... .. . ... : ... .. . ...
ROW C4 : ... .. . ... ... : ... .. . ... ... : E-4 00 . ... : ... .. . ... : ... .. . ...
ROW C5 : ... .. . ... ... : ... .. . ... ... : D-4 00 . ... : ... .. . ... : ... .. . ...
ROW C6 : ... .. . ... ... : ... .. . ... ... : C-4 00 . ... : ... .. . ... : ... .. . ...
ROW C7 : ... .. . ... ... : ... .. . ... ... : A#3 00 . ... : ... .. . ... : ... .. . ...
ROW C8 : ... .. . ... ... : ... .. . ... ... : A-3 00 . ... : ... .. . ... : ... .. . ...
ROW C9 : ... .. . ... ... : ... .. . ... ... : G-3 00 . ... : ... .. . ... : ... .. . ...
ROW CA : ... .. . ... ... : ... .. . ... ... : F-3 00 . ... : ... .. . ... : ... .. . ...
ROW CB : ... .. . ... ... : ... .. . ... ... : E-3 00 . ... : ... .. . ... : ... .. . ...
ROW CC : ... .. . ... ... : ... .. . ... ... : D-3 00 . ... : ... .. . ... : ... .. . ...
ROW CD : ... .. . ... ... : ... .. . ... ... : --- .. . ... : ... .. . ... : ... .. . ...
ROW CE : ... .. . ... ... : ... .. . ... ... : ... .. . ... : ... .. . ... : ... .. . ...
ROW CF : ... .. . ... ... : ... .. . ... ... : ... .. . ... : ... .. . ... : ... .. . ...
ROW D0 : ... .. . ... ... : ... .. . ... ... : ... .. . ... : ... .. . ... : ... .. . ...
ROW D1 : ... .. . ... ... : ... .. . ... ... : ... .. . ... : ... .. . ... : ... .. . ...
ROW D2 : ... .. . ... ... : ... .. . ... ... : D-2 00 . ... : ... .. . ... : ... .. . ...
ROW D3 : ... .. . ... ... : ... .. . ... ... : ... .. . ... : ... .. . ... : ... .. . ...
ROW D4 : ... .. . ... ... : ... .. . ... ... : ... .. . ... : ... .. . ... : ... .. . ...
ROW D5 : ... .. . ... ... : ... .. . ... ... : ... .. . ... : ... .. . ... : ... .. . ...
ROW D6 : ... .. . ... ... : ... .. . ... ... : ... .. . ... : ... .. . ... : ... .. . ...
ROW D7 : ... .. . ... ... : ... .. . ... ... : ... .. . ... : ... .. . ... : ... .. . ...
ROW D8 : ... .. . ... ... : ... .. . ... ... : ... .. . ... : ... .. . ... : ... .. . ...
ROW D9 : ... .. . ... ... : ... .. . ... ... : --- .. . ... : ... .. . ... : ... .. . ...
ROW DA : ... .. . ... ... : ... .. . ... ... : ... .. . ... : ... .. . ... : ... .. . ...
ROW DB : ... .. . ... ... : ... .. . ... ... : ... .. . ... : ... .. . ... : ... .. . ...
ROW DC : ... .. . ... ... : ... .. . ... ... : ... .. . ... : ... .. . ... : ... .. . ...
ROW DD : ... .. . ... ... : ... .. . ... ... : ... .. . ... : ... .. . ... : ... .. . ...
ROW DE : ... .. . ... ... : ... .. . ... ... : ... .. . ... : ... .. . ... : ... .. . ...
ROW DF : ... .. . ... ... : ... .. . ... ... : ... .. . ... : ... .. . ... : ... .. . ...
ROW E0 : ... .. . ... ... : ... .. . ... ... : ... .. . ... : ... .. . ... : ... .. . ...
ROW E1 : ... .. . ... ... : ... .. . ... ... : ... .. . ... : ... .. . ... : ... .. . ...
ROW E2 : ... .. . ... ... : ... .. . ... ... : ... .. . ... : ... .. . ... : ... .. . ...
ROW E3 : ... .. . ... ... : ... .. . ... ... : ... .. . ... : ... .. . ... : ... .. . ...
ROW E4 : ... .. . ... ... : ... .. . ... ... : ... .. . ... : ... .. . ... : ... .. . ...
ROW E5 : ... .. . ... ... : ... .. . ... ... : ... .. . ... : ... .. . ... : ... .. . ...
ROW E6 : ... .. . ... ... : ... .. . ... ... : ... .. . ... : ... .. . ... : ... .. . ...
ROW E7 : ... .. . ... ... : ... .. . ... ... : ... .. . ... : ... .. . ... : ... .. . ...
ROW E8 : ... .. . ... ... : ... .. . ... ... : ... .. . ... : ... .. . ... : ... .. . ...
ROW E9 : ... .. . ... ... : ... .. . ... ... : ... .. . ... : ... .. . ... : ... .. . ...
ROW EA : ... .. . ... ... : ... .. . ... ... : ... .. . ... : ... .. . ... : ... .. . ...
ROW EB : ... .. . ... ... : ... .. . ... ... : ... .. . ... : ... .. . ... : ... .. . ...
ROW EC : ... .. . ... ... : ... .. . ... ... : ... .. . ... : ... .. . ... : ... .. . ...
ROW ED : ... .. . ... ... : ... .. . ... ... : ... .. . ... : ... .. . ... : ... .. . ...
ROW EE : ... .. . ... ... : ... .. . ... ... : ... .. . ... : ... .. . ... : ... .. . ...
ROW EF : ... .. . ... ... : ... .. . ... ... : ... .. . ... : ... .. . ... : ... .. . ...
ROW F0 : ... .. . ... ... : ... .. . ... ... : ... .. . ... : ... .. . ... : ... .. . ...
ROW F1 : ... .. . ... ... : ... .. . ... ... : ... .. . ... : ... .. . ... : ... .. . ...
ROW F2 : ... .. . ... ... : ... .. . ... ... : ... .. . ... : ... .. . ... : ... .. . ...
ROW F3 : ... .. . ... ... : ... .. . ... ... : ... .. . ... : ... .. . ... : ... .. . ...
ROW F4 : ... .. . ... ... : ... .. . ... ... : ... .. . ... : ... .. . ... : ... .. . ...
ROW F5 : ... .. . ... ... : ... .. . ... ... : ... .. . ... : ... .. . ... : ... .. . ...
ROW F6 : ... .. . ... ... : ... .. . ... ... : ... .. . ... : ... .. . ... : ... .. . ...
ROW F7 : ... .. . ... ... : ... .. . ... ... : ... .. . ... : ... .. . ... : ... .. . ...
ROW F8 : ... .. . ... ... : ... .. . ... ... : ... .. . ... : ... .. . ... : ... .. . ...
ROW F9 : ... .. . ... ... : ... .. . ... ... : ... .. . ... : ... .. . ... : ... .. . ...
ROW FA : ... .. . ... ... : ... .. . ... ... : ... .. . ... : ... .. . ... : ... .. . ...
ROW FB : ... .. . ... ... : ... .. . ... ... : ... .. . ... : ... .. . ... : ... .. . ...
ROW FC : ... .. . ... ... : ... .. . ... ... : ... .. . ... : ... .. . ... : ... .. . ...
ROW FD : ... .. . ... ... : ... .. . ... ... : ... .. . ... : ... .. . ... : ... .. . ...
ROW FE : ... .. . ... ... : ... .. . ... ... : ... .. . ... : ... .. . ... : ... .. . ...
ROW FF : ... .. . ... ... : ... .. . ... ... : ... .. . ... : ... .. . ... : ... .. . ...

PATTERN 0C
ROW 00 : F#3 00 8 V00 P80 : F#5 00 3 V02 P80 : E-2 00 . ... : 1-# 00 A ... : C-5 00 . ...
ROW 01 : ... .. 5 V01 ... : ... .. . ... ... : ... .. . ... : ... .. 7 ... : ... .. . ...
ROW 02 : ... .. . ... ... : ... .. . ... ... : ... .. . ... : ... .. 6 ... : ... .. . ...
ROW 03 : A-2 00 . V00 ... : ... .. . ... ... : ... .. . ... : ... .. 4 ... : ... .. . ...
ROW 04 : ... .. 3 V01 ... : ... .. 2 ... ... : ... .. . ... : ... .. 2 ... : ... .. . ...
ROW 05 : C#3 00 . V00 ... : ... .. . ... ... : ... .. . ... : ... .. 1 ... : ... .. . ...
ROW 06 : ... .. . V01 ... : ... .. 1 ... ... : ... .. . ... : 4-# 00 A ... : ... .. . ...
ROW 07 : F#3 00 8 V00 ... : E-5 00 3 ... ... : --- .. . ... : B-# 00 7 ... : ... .. . ...
ROW 08 : ... .. 5 V01 ... : ... .. . ... ... : ... .. . ... : ... .. 6 ... : ... .. . ...
ROW 09 : ... .. . ... ... : ... .. . ... ... : ... .. . ... : ... .. 4 ... : ... .. . ...
ROW 0A : A-2 00 . V00 ... : ... .. . ... ... : ... .. . ... : ... .. 2 ... : ... .. . ...
ROW 0B : ... .. 3 V01 ... : F#5 00 2 ... ... : ... .. . ... : ... .. 1 ... : ... .. . ...
ROW 0C : C#3 00 . V00 ... : ... .. . ... ... : ... .. . ... : 7-# 00 A ... : ... .. . ...
ROW 0D : ... .. . V01 ... : ... .. 1 ... ... : ... .. . ... : ... .. 7 ... : ... .. . ...
ROW 0E : F#3 00 8 V00 ... : C#5 00 3 ... ... : E-2 00 . ... : ... .. 6 ... : ... .. . ...
ROW 0F : ... .. 5 V01 ... : ... .. . ... ... : ... .. . ... : ... .. 4 ... : ... .. . ...
ROW 10 : ... .. . ... ... : ... .. . ... ... : ... .. . ... : ... .. 2 ... : ... .. . ...
ROW 11 : A-2 00 . V00 ... : ... .. . ... ... : ... .. . ... : ... .. 1 ... : ... .. . ...
ROW 12 : ... .. 3 V01 ... : E-5 00 2 ... ... : ... .. . ... : 4-# 00 A ... : ... .. . ...
ROW 13 : C#3 00 . V00 ... : ... .. . ... ... : ... .. . ... : B-# 00 7 ... : ... .. . ...
ROW 14 : ... .. . V01 ... : ... .. 1 ... ... : --- .. . ... : ... .. 6 ... : ... .. . ...
ROW 15 : F#3 00 8 V00 ... : B-4 00 3 ... ... : E-2 00 . ... : ... .. 4 ... : C-3 00 . ...
ROW 16 : ... .. 5 V01 ... : ... .. . ... ... : ... .. . ... : ... .. 2 ... : ... .. . ...
ROW 17 : ... .. . ... ... : ... .. . ... ... : ... .. . ... : ... .. 1 ... : ... .. . ...
ROW 18 : A-2 00 . V00 ... : ... .. . ... ... : ... .. . ... : 1-# 00 A ... : ... .. . ...
ROW 19 : ... .. 3 V01 ... : C#5 00 2 ... ... : ... .. . ... : ... .. 7 ... : ... .. . ...
ROW 1A : C#3 00 . V00 ... : ... .. . ... ... : ... .. . ... : ... .. 6 ... : ... .. . ...
ROW 1B : ... .. . V01 ... : ... .. 1 ... ... : --- .. . ... : ... .. 4 ... : ... .. . ...
ROW 1C : F#3 00 2 V00 ... : F#4 00 3 ... ... : F#4 00 . ... : ... .. 2 ... : F-5 00 . ...
ROW 1D : ... .. . V01 ... : ... .. . ... ... : E-4 00 . ... : ... .. 1 ... : ... .. . ...
ROW 1E : ... .. . ... ... : ... .. . ... ... : D-4 00 . ... : 4-# 00 A ... : ... .. . ...
ROW 1F : A-2 00 . V00 ... : ... .. . ... ... : C#4 00 . ... : B-# 00 7 ... : ... .. . ...
ROW 20 : ... .. . V01 ... : B-4 00 2 ... ... : B-3 00 . ... : ... .. 6 ... : ... .. . ...
ROW 21 : C#3 00 1 V00 ... : ... .. . ... ... : A-3 00 . ... : 4-# 00 A ... : ... .. . ...
ROW 22 : ... .. . V01 ... : ... .. 1 ... ... : G#3 00 . ... : B-# 00 7 ... : ... .. . ...
ROW 23 : F#3 00 8 V00 ... : ... .. . ... ... : F#3 00 . ... : ... .. 6 ... : ... .. . ...
ROW 24 : ... .. 5 V01 ... : ... .. . ... ... : E-3 00 . ... : 7-# 00 A ... : ... .. . ...
ROW 25 : ... .. . ... ... : ... .. . ... ... : --- .. . ... : ... .. 7 ... : ... .. . ...
ROW 26 : A-2 00 . V00 ... : ... .. . ... ... : ... .. . ... : ... .. 6 ... : ... .. . ...
ROW 27 : ... .. 3 V01 ... : F#4 00 2 ... ... : ... .. . ... : ... .. 4 ... : ... .. . ...
ROW 28 : C#3 00 . V00 ... : ... .. . ... ... : ... .. . ... : ... .. 2 ... : ... .. . ...
ROW 29 : ... .. . V01 ... : ... .. 1 ... ... : ... .. . ... : ... .. 1 ... : ... .. . ...
ROW 2A : F#3 00 2 V00 ... : E-4 00 3 ... ... : E-2 00 . ... : 7-# 00 A ... : ... .. . ...
ROW 2B : ... .. . V01 ... : ... .. . ... ... : ... .. . ... : ... .. 7 ... : ... .. . ...
ROW 2C : ... .. . ... ... : ... .. . ... ... : ... .. . ... : ... .. 6 ... : ... .. . ...
ROW 2D : A-2 00 . V00 ... : ... .. . ... ... : ... .. . ... : ... .. 4 ... : ... .. . ...
ROW 2E : ... .. . V01 ... : ... .. 2 ... ... : ... .. . ... : ... .. 2 ... : ... .. . ...
ROW 2F : C#3 00 1 V00 ... : ... .. . ... ... : ... .. . ... : ... .. 1 ... : ... .. . ...
ROW 30 : ... .. . V01 ... : ... .. 1 ... ... : ... .. . ... : 1-# 00 A ... : ... .. . ...
ROW 31 : F#3 00 8 V00 ... : F#4 00 3 ... ... : --- .. . ... : ... .. 7 ... : C-3 00 . ...
ROW 32 : ... .. 5 V01 ... : ... .. . ... ... : ... .. . ... : ... .. 6 ... : ... .. . ...
ROW 33 : ... .. . ... ... : ... .. . ... ... : ... .. . ... : ... .. 4 ... : ... .. . ...
ROW 34 : A-2 00 . V00 ... : ... .. . ... ... : ... .. . ... : ... .. 2 ... : ... .. . ...
ROW 35 : ... .. 3 V01 ... : E-4 00 2 ... ... : ... .. . ... : ... .. 1 ... : ... .. . ...
ROW 36 : C#3 00 . V00 ... : ... .. . ... ... : ... .. . ... : 4-# 00 A ... : ... .. . ...
ROW 37 : ... .. . V01 ... : ... .. 1 ... ... : ... .. . ... : B-# 00 7 ... : ... .. . ...
ROW 38 : F#3 00 8 V00 ... : F#4 00 3 ... ... : E-2 00 . ... : ... .. 6 ... : C-5 00 . ...
ROW 39 : ... .. 5 V01 ... : ... .. . ... ... : ... .. . ... : ... .. 4 ... : ... .. . ...
ROW 3A : ... .. . ... ... : ... .. . ... ... : ... .. . ... : ... .. 2 ... : ... .. . ...
ROW 3B : A-2 00 . V00 ... : ... .. . ... ... : ... .. . ... : ... .. 1 ... : ... .. . ...
ROW 3C : ... .. 3 V01 ... : F#4 00 2 ... ... : ... .. . ... : 7-# 00 A ... : ... .. . ...
ROW 3D : C#3 00 . V00 ... : ... .. . ... ... : ... .. . ... : ... .. 7 ... : ... .. . ...
ROW 3E : ... .. . V01 ... : ... .. 1 ... ... : ... .. . ... : ... .. 6 ... : ... .. . ...
ROW 3F : F#3 00 8 V00 ... : E-4 00 3 ... ... : --- .. . ... : ... .. 4 ... : ... .. . ...
ROW 40 : ... .. 5 V01 ... : ... .. . ... ... : ... .. . ... : ... .. 2 ... : ... .. . ...
ROW 41 : ... .. . ... ... : ... .. . ... ... : ... .. . ... : ... .. 1 ... : ... .. . ...
ROW 42 : A-2 00 . V00 ... : ... .. . ... ... : ... .. . ... : 4-# 00 A ... : ... .. . ...
ROW 43 : ... .. 3 V01 ... : F#4 00 2 ... ... : ... .. . ... : B-# 00 7 ... : ... .. . ...
ROW 44 : C#3 00 . V00 ... : ... .. . ... ... : ... .. . ... : ... .. 6 ... : ... .. . ...
ROW 45 : ... .. . V01 ... : ... .. 1 ... ... : ... .. . ... : ... .. 4 ... : ... .. . ...
ROW 46 : F#3 00 8 V00 ... : A-4 00 3 ... ... : E-2 00 . ... : ... .. 2 ... : C-5 00 . ...
ROW 47 : ... .. 5 V01 ... : ... .. . ... ... : ... .. . ... : ... .. 1 ... : ... .. . ...
ROW 48 : ... .. . ... ... : ... .. . ... ... : ... .. . ... : 1-# 00 A ... : ... .. . ...
ROW 49 : A-2 00 . V00 ... : ... .. . ... ... : ... .. . ... : ... .. 7 ... : ... .. . ...
ROW 4A : ... .. 3 V01 ... : E-4 00 2 ... ... : ... .. . ... : ... .. 6 ... : ... .. . ...
ROW 4B : C#3 00 . V00 ... : ... .. . ... ... : ... .. . ... : ... .. 4 ... : ... .. . ...
ROW 4C : ... .. . V01 ... : ... .. 1 ... ... : --- .. . ... : ... .. 2 ... : ... .. . ...
ROW 4D : F#3 00 8 V00 ... : F#4 00 3 ... ... : E-2 00 . ... : ... .. 1 ... : ... .. . ...
ROW 4E : ... .. 5 V01 ... : ... .. . ... ... : ... .. . ... : 4-# 00 A ... : ... .. . ...
ROW 4F : ... .. . ... ... : ... .. . ... ... : ... .. . ... : B-# 00 7 ... : ... .. . ...
ROW 50 : A-2 00 . V00 ... : ... .. . ... ... : ... .. . ... : ... .. 6 ... : ... .. . ...
ROW 51 : ... .. 3 V01 ... : A-4 00 2 ... ... : ... .. . ... : ... .. 4 ... : ... .. . ...
ROW 52 : C#3 00 . V00 ... : ... .. . ... ... : ... .. . ... : ... .. 2 ... : ... .. . ...
ROW 53 : ... .. . V01 ... : ... .. 1 ... ... : --- .. . ... : ... .. 1 ... : ... .. . ...
ROW 54 : F#3 00 2 V00 ... : G#4 00 3 ... ... : F#4 00 . ... : 7-# 00 A ... : F-5 00 . ...
ROW 55 : ... .. . V01 ... : ... .. . ... ... : E-4 00 . ... : ... .. 7 ... : ... .. . ...
ROW 56 : ... .. . ... ... : ... .. . ... ... : D-4 00 . ... : ... .. 6 ... : ... .. . ...
ROW 57 : A-2 00 . V00 ... : ... .. . ... ... : C#4 00 . ... : ... .. 4 ... : ... .. . ...
ROW 58 : ... .. . V01 ... : F#4 00 2 ... ... : B-3 00 . ... : ... .. 2 ... : ... .. . ...
ROW 59 : C#3 00 1 V00 ... : ... .. . ... ... : A-3 00 . ... : ... .. 1 ... : ... .. . ...
ROW 5A : ... .. . V01 ... : ... .. 1 ... ... : G#3 00 . ... : 4-# 00 A ... : ... .. . ...
ROW 5B : F#3 00 8 V00 ... : A-4 00 3 ... ... : F#3 00 . ... : B-# 00 7 ... : ... .. . ...
ROW 5C : ... .. 5 V01 ... : ... .. . ... ... : E-3 00 . ... : ... .. 6 ... : ... .. . ...
ROW 5D : ... .. . ... ... : ... .. . ... ... : --- .. . ... : ... .. 4 ... : ... .. . ...
ROW 5E : A-2 00 . V00 ... : ... .. . ... ... : ... .. . ... : ... .. 2 ... : ... .. . ...
ROW 5F : ... .. 3 V01 ... : G#4 00 2 ... ... : ... .. . ... : ... .. 1 ... : ... .. . ...
ROW 60 : C#3 00 . V00 ... : ... .. . ... ... : ... .. . ... : 1-# 00 A ... : ... .. . ...
ROW 61 : ... .. . V01 ... : ... .. 1 ... ... : ... .. . ... : ... .. 7 ... : ... .. . ...
ROW 62 : F#3 00 2 V00 ... : B-4 00 3 ... ... : E-2 00 . ... : ... .. 6 ... : ... .. . ...
ROW 63 : ... .. . V01 ... : ... .. . ... ... : ... .. . ... : ... .. 4 ... : ... .. . ...
ROW 64 : ... .. . ... ... : ... .. . ... ... : ... .. . ... : ... .. 2 ... : ... .. . ...
ROW 65 : A-2 00 . V00 ... : ... .. . ... ... : ... .. . ... : ... .. 1 ... : ... .. . ...
ROW 66 : ... .. . V01 ... : A-4 00 2 ... ... : ... .. . ... : 4-# 00 A ... : ... .. . ...
ROW 67 : C#3 00 1 V00 ... : ... .. . ... ... : ... .. . ... : B-# 00 7 ... : ... .. . ...
ROW 68 : ... .. . V01 ... : ... .. 1 ... ... : ... .. . ... : ... .. 6 ... : ... .. . ...
ROW 69 : F#3 00 8 V00 ... : C#5 00 3 ... ... : --- .. . ... : ... .. 4 ... : ... .. . ...
ROW 6A : ... .. 5 V01 ... : ... .. . ... ... : ... .. . ... : ... .. 2 ... : ... .. . ...
ROW 6B : ... .. . ... ... : ... .. . ... ... : ... .. . ... : ... .. 1 ... : ... .. . ...
ROW 6C : A-2 00 . V00 ... : ... .. . ... ... : ... .. . ... : 7-# 00 A ... : ... .. . ...
ROW 6D : ... .. 3 V01 ... : B-4 00 2 ... ... : ... .. . ... : ... .. 7 ... : ... .. . ...
ROW 6E : C#3 00 . V00 ... : ... .. . ... ... : ... .. . ... : ... .. 6 ... : ... .. . ...
ROW 6F : ... .. . V01 ... : ... .. 1 ... ... : ... .. . ... : ... .. 4 ... : ... .. . ...
ROW 70 : F#3 00 8 V00 ... : F#5 00 3 ... ... : C#2 00 . ... : ... .. 2 ... : C-5 00 . ...
ROW 71 : ... .. 5 V01 ... : ... .. . ... ... : ... .. . ... : ... .. 1 ... : ... .. . ...
ROW 72 : ... .. . ... ... : ... .. . ... ... : ... .. . ... : 4-# 00 A ... : ... .. . ...
ROW 73 : A-2 00 . V00 ... : ... .. . ... ... : ... .. . ... : B-# 00 7 ... : ... .. . ...
ROW 74 : ... .. 3 V01 ... : C#5 00 2 ... ... : ... .. . ... : ... .. 6 ... : ... .. . ...
ROW 75 : D-3 00 . V00 ... : ... .. . ... ... : ... .. . ... : ... .. 4 ... : ... .. . ...
ROW 76 : ... .. . V01 ... : ... .. 1 ... ... : ... .. . ... : ... .. 2 ... : ... .. . ...
ROW 77 : F#3 00 8 V00 ... : E-5 00 3 ... ... : --- .. . ... : ... .. 1 ... : ... .. . ...
ROW 78 : ... .. 5 V01 ... : ... .. . ... ... : ... .. . ... : 1-# 00 A ... : ... .. . ...
ROW 79 : ... .. . ... ... : ... .. . ... ... : ... .. . ... : ... .. 7 ... : ... .. . ...
ROW 7A : A-2 00 . V00 ... : ... .. . ... ... : ... .. . ... : ... .. 6 ... : ... .. . ...
ROW 7B : ... .. 3 V01 ... : F#5 00 2 ... ... : ... .. . ... : ... .. 4 ... : ... .. . ...
ROW 7C : D-3 00 . V00 ... : ... .. . ... ... : ... .. . ... : ... .. 2 ... : ... .. . ...
ROW 7D : ... .. . V01 ... : ... .. 1 ... ... : ... .. . ... : ... .. 1 ... : ... .. . ...
ROW 7E : F#3 00 8 V00 ... : D-5 00 3 ... ... : C#2 00 . ... : 4-# 00 A ... : ... .. . ...
ROW 7F : ... .. 5 V01 ... : ... .. . ... ... : ... .. . ... : B-# 00 7 ... : ... .. . ...
ROW 80 : ... .. . ... ... : ... .. . ... ... : ... .. . ... : ... .. 6 ... : ... .. . ...
ROW 81 : A-2 00 . V00 ... : ... .. . ... ... : ... .. . ... : 4-# 00 A ... : ... .. . ...
ROW 82 : ... .. 3 V01 ... : E-5 00 2 ... ... : ... .. . ... : B-# 00 7 ... : ... .. . ...
ROW 83 : D-3 00 . V00 ... : ... .. . ... ... : ... .. . ... : ... .. 6 ... : ... .. . ...
ROW 84 : ... .. . V01 ... : ... .. 1 ... ... : --- .. . ... : 7-# 00 A ... : ... .. . ...
ROW 85 : F#3 00 8 V00 ... : C#5 00 3 ... ... : C#2 00 . ... : ... .. 7 ... : C-3 00 . ...
ROW 86 : ... .. 5 V01 ... : ... .. . ... ... : ... .. . ... : ... .. 6 ... : ... .. . ...
ROW 87 : ... .. . ... ... : ... .. . ... ... : ... .. . ... : ... .. 4 ... : ... .. . ...
ROW 88 : A-2 00 . V00 ... : ... .. . ... ... : ... .. . ... : ... .. 2 ... : ... .. . ...
ROW 89 : ... .. 3 V01 ... : D-5 00 2 ... ... : ... .. . ... : ... .. 1 ... : ... .. . ...
ROW 8A : D-3 00 . V00 ... : ... .. . ... ... : ... .. . ... : 7-# 00 A ... : ... .. . ...
ROW 8B : ... .. . V01 ... : ... .. 1 ... ... : --- .. . ... : ... .. 7 ... : ... .. . ...
ROW 8C : F#3 00 2 V00 ... : A-4 00 3 ... ... : D-4 00 . ... : ... .. 6 ... : F-5 00 . ...
ROW 8D : ... .. . V01 ... : ... .. . ... ... : C#4 00 . ... : ... .. 4 ... : ... .. . ...
ROW 8E : ... .. . ... ... : ... .. . ... ... : B-3 00 . ... : ... .. 2 ... : ... .. . ...
ROW 8F : A-2 00 . V00 ... : ... .. . ... ... : A-3 00 . ... : ... .. 1 ... : ... .. . ...
ROW 90 : ... .. . V01 ... : C#5 00 2 ... ... : G#3 00 . ... : 1-# 00 A ... : ... .. . ...
ROW 91 : D-3 00 1 V00 ... : ... .. . ... ... : F#3 00 . ... : ... .. 7 ... : ... .. . ...
ROW 92 : ... .. . V01 ... : ... .. 1 ... ... : E-3 00 . ... : ... .. 6 ... : ... .. . ...
ROW 93 : F#3 00 8 V00 ... : ... .. . ... ... : D-3 00 . ... : ... .. 4 ... : ... .. . ...
ROW 94 : ... .. 5 V01 ... : ... .. . ... ... : C#3 00 . ... : ... .. 2 ... : ... .. . ...
ROW 95 : ... .. . ... ... : ... .. . ... ... : --- .. . ... : ... .. 1 ... : ... .. . ...
ROW 96 : A-2 00 . V00 ... : ... .. . ... ... : ... .. . ... : 7-# 00 A ... : ... .. . ...
ROW 97 : ... .. 3 V01 ... : A-4 00 2 ... ... : ... .. . ... : ... .. 7 ... : ... .. . ...
ROW 98 : D-3 00 . V00 ... : ... .. . ... ... : ... .. . ... : ... .. 6 ... : ... .. . ...
ROW 99 : ... .. . V01 ... : ... .. 1 ... ... : ... .. . ... : ... .. 4 ... : ... .. . ...
ROW 9A : F#3 00 2 V00 ... : G#4 00 3 ... ... : C#2 00 . ... : ... .. 2 ... : ... .. . ...
ROW 9B : ... .. . V01 ... : ... .. . ... ... : ... .. . ... : ... .. 1 ... : ... .. . ...
ROW 9C : ... .. . ... ... : ... .. . ... ... : ... .. . ... : 7-# 00 A ... : ... .. . ...
ROW 9D : A-2 00 . V00 ... : ... .. . ... ... : ... .. . ... : ... .. 7 ... : ... .. . ...
ROW 9E : ... .. . V01 ... : ... .. 2 ... ... : ... .. . ... : ... .. 6 ... : ... .. . ...
ROW 9F : D-3 00 1 V00 ... : ... .. . ... ... : ... .. . ... : ... .. 4 ... : ... .. . ...
ROW A0 : ... .. . V01 ... : ... .. 1 ... ... : ... .. . ... : ... .. 2 ... : ... .. . ...
ROW A1 : F#3 00 8 V00 ... : A-4 00 3 ... ... : --- .. . ... : ... .. 1 ... : C-3 00 . ...
ROW A2 : ... .. 5 V01 ... : ... .. . ... ... : ... .. . ... : 7-# 00 A ... : ... .. . ...
ROW A3 : ... .. . ... ... : ... .. . ... ... : ... .. . ... : ... .. 7 ... : ... .. . ...
ROW A4 : A-2 00 . V00 ... : ... .. . ... ... : ... .. . ... : ... .. 6 ... : ... .. . ...
ROW A5 : ... .. 3 V01 ... : G#4 00 2 ... ... : ... .. . ... : ... .. 4 ... : ... .. . ...
ROW A6 : D-3 00 . V00 ... : ... .. . ... ... : ... .. . ... : ... .. 2 ... : ... .. . ...
ROW A7 : ... .. . V01 ... : ... .. 1 ... ... : ... .. . ... : ... .. 1 ... : ... .. . ...
ROW A8 : F#3 00 8 V00 ... : A-4 00 3 ... ... : C#2 00 . ... : 7-# 00 A ... : C-5 00 . ...
ROW A9 : ... .. 5 V01 ... : ... .. . ... ... : ... .. . ... : ... .. 7 ... : ... .. . ...
ROW AA : ... .. . ... ... : ... .. . ... ... : ... .. . ... : ... .. 6 ... : ... .. . ...
ROW AB : A-2 00 . V00 ... : ... .. . ... ... : ... .. . ... : 7-# 00 A ... : ... .. . ...
ROW AC : ... .. 3 V01 ... : A-4 00 2 ... ... : ... .. . ... : ... .. 7 ... : ... .. . ...
ROW AD : D-3 00 . V00 ... : ... .. . ... ... : ... .. . ... : ... .. 6 ... : ... .. . ...
ROW AE : ... .. . V01 ... : ... .. 1 ... ... : ... .. . ... : 7-# 00 A ... : ... .. . ...
ROW AF : F#3 00 8 V00 ... : G#4 00 3 ... ... : --- .. . ... : ... .. 7 ... : ... .. . ...
ROW B0 : ... .. 5 V01 ... : ... .. . ... ... : ... .. . ... : ... .. 6 ... : ... .. . ...
ROW B1 : ... .. . ... ... : ... .. . ... ... : ... .. . ... : ... .. 4 ... : ... .. . ...
ROW B2 : A-2 00 . V00 ... : ... .. . ... ... : ... .. . ... : ... .. 2 ... : ... .. . ...
ROW B3 : ... .. 3 V01 ... : A-4 00 2 ... ... : ... .. . ... : ... .. 1 ... : ... .. . ...
ROW B4 : D-3 00 . V00 ... : ... .. . ... ... : ... .. . ... : 7-# 00 A ... : ... .. . ...
ROW B5 : ... .. . V01 ... : ... .. 1 ... ... : ... .. . ... : ... .. 7 ... : ... .. . ...
ROW B6 : F#3 00 8 V00 ... : C#5 00 3 ... ... : C#2 00 . ... : ... .. 6 ... : C-5 00 . ...
ROW B7 : ... .. 5 V01 ... : ... .. . ... ... : ... .. . ... : ... .. 4 ... : ... .. . ...
ROW B8 : ... .. . ... ... : ... .. . ... ... : ... .. . ... : ... .. 2 ... : ... .. . ...
ROW B9 : A-2 00 . V00 ... : ... .. . ... ... : ... .. . ... : ... .. 1 ... : ... .. . ...
ROW BA : ... .. 3 V01 ... : G#4 00 2 ... ... : ... .. . ... : 7-# 00 A ... : ... .. . ...
ROW BB : D-3 00 . V00 ... : ... .. . ... ... : ... .. . ... : ... .. 7 ... : ... .. . ...
ROW BC : ... .. . V01 ... : ... .. 1 ... ... : --- .. . ... : ... .. 6 ... : ... .. . ...
ROW BD : F#3 00 8 V00 ... : A-4 00 3 ... ... : C#2 00 . ... : ... .. 4 ... : ... .. . ...
ROW BE : ... .. 5 V01 ... : ... .. . ... ... : ... .. . ... : ... .. 2 ... : ... .. . ...
ROW BF : ... .. . ... ... : ... .. . ... ... : ... .. . ... : ... .. 1 ... : ... .. . ...
ROW C0 : A-2 00 . V00 ... : ... .. . ... ... : ... .. . ... : ... .. . ... : ... .. . ...
ROW C1 : ... .. 3 V01 ... : C#5 00 2 ... ... : ... .. . ... : ... .. . ... : ... .. . ...
ROW C2 : D-3 00 . V00 ... : ... .. . ... ... : ... .. . ... : ... .. . ... : ... .. . ...
ROW C3 : ... .. . V01 ... : ... .. 1 ... ... : --- .. . ... : ... .. . ... : ... .. . ...
ROW C4 : F#3 00 2 V00 ... : E-5 00 3 ... ... : D-4 00 . ... : ... .. . ... : F-5 00 . ...
ROW C5 : ... .. . V01 ... : ... .. . ... ... : C#4 00 . ... : ... .. . ... : ... .. . ...
ROW C6 : ... .. . ... ... : ... .. . ... ... : B-3 00 . ... : ... .. . ... : ... .. . ...
ROW C7 : A-2 00 . V00 ... : ... .. . ... ... : A-3 00 . ... : ... .. . ... : ... .. . ...
ROW C8 : ... .. . V01 ... : A-4 00 2 ... ... : G#3 00 . ... : ... .. . ... : ... .. . ...
ROW C9 : D-3 00 1 V00 ... : ... .. . ... ... : F#3 00 . ... : ... .. . ... : ... .. . ...
ROW CA : ... .. . V01 ... : ... .. 1 ... ... : E-3 00 . ... : ... .. . ... : ... .. . ...
ROW CB : F#3 00 8 V00 ... : B-4 00 3 ... ... : D-3 00 . ... : ... .. . ... : ... .. . ...
ROW CC : ... .. 5 V01 ... : ... .. . ... ... : C#3 00 . ... : ... .. . ... : ... .. . ...
ROW CD : ... .. . ... ... : ... .. . ... ... : --- .. . ... : ... .. . ... : ... .. . ...
ROW CE : A-2 00 . V00 ... : ... .. . ... ... : ... .. . ... : ... .. . ... : ... .. . ...
ROW CF : ... .. 3 V01 ... : E-5 00 2 ... ... : ... .. . ... : ... .. . ... : ... .. . ...
ROW D0 : D-3 00 . V00 ... : ... .. . ... ... : ... .. . ... : ... .. . ... : ... .. . ...
ROW D1 : ... .. . V01 ... : ... .. 1 ... ... : ... .. . ... : ... .. . ... : ... .. . ...
ROW D2 : F#3 00 2 V00 ... : C#5 00 3 ... ... : C#2 00 . ... : ... .. . ... : ... .. . ...
ROW D3 : ... .. . V01 ... : ... .. . ... ... : ... .. . ... : ... .. . ... : ... .. . ...
ROW D4 : ... .. . ... ... : ... .. . ... ... : ... .. . ... : ... .. . ... : ... .. . ...
ROW D5 : A-2 00 . V00 ... : ... .. . ... ... : ... .. . ... : ... .. . ... : ... .. . ...
ROW D6 : ... .. . V01 ... : B-4 00 2 ... ... : ... .. . ... : ... .. . ... : ... .. . ...
ROW D7 : D-3 00 1 V00 ... : ... .. . ... ... : ... .. . ... : ... .. . ... : ... .. . ...
ROW D8 : ... .. . V01 ... : ... .. 1 ... ... : ... .. . ... : ... .. . ... : ... .. . ...
ROW D9 : F#3 00 8 V00 ... : D-5 00 3 ... ... : --- .. . ... : ... .. . ... : ... .. . ...
ROW DA : ... .. 5 V01 ... : ... .. . ... ... : ... .. . ... : ... .. . ... : ... .. . ...
ROW DB : ... .. . ... ... : ... .. . ... ... : ... .. . ... : ... .. . ... : ... .. . ...
ROW DC : A-2 00 . V00 ... : ... .. . ... ... : ... .. . ... : ... .. . ... : ... .. . ...
ROW DD : ... .. 3 V01 ... : C#5 00 2 ... ... : ... .. . ... : ... .. . ... : ... .. . ...
ROW DE : D-3 00 . V00 ... : ... .. . ... ... : ... .. . ... : ... .. . ... : ... .. . ...
ROW DF : ... .. . V01 ... : ... .. 1 ... ... : ... .. . ... : ... .. . ... : ... .. . D00
ROW E0 : F#3 00 2 V00 ... : ... .. 3 ... ... : ... .. . ... : ... .. . ... : C-2 00 . ...
ROW E1 : ... .. . V01 ... : ... .. . ... ... : ... .. . ... : ... .. . ... : ... .. . ...
ROW E2 : ... .. . ... ... : ... .. . ... ... : ... .. . ... : ... .. . ... : ... .. . ...
ROW E3 : A-2 00 . ... ... : ... .. . ... ... : ... .. . ... : ... .. . ... : ... .. . ...
ROW E4 : ... .. . ... ... : ... .. 2 ... ... : ... .. . ... : ... .. . ... : ... .. . ...
ROW E5 : D-3 00 . ... ... : ... .. . ... ... : ... .. . ... : ... .. . ... : ... .. . ...
ROW E6 : ... .. . ... ... : ... .. 1 ... ... : ... .. . ... : ... .. . ... : ... .. . ...
ROW E7 : ... .. . ... ... : ... .. 3 ... ... : ... .. . ... : ... .. . ... : ... .. . ...
ROW E8 : F#3 00 8 V00 ... : ... .. . ... ... : ... .. . ... : ... .. . ... : ... .. . ...
ROW E9 : ... .. 5 V01 ... : ... .. . ... ... : ... .. . ... : ... .. . ... : ... .. . ...
ROW EA : ... .. . ... ... : ... .. . ... ... : ... .. . ... : ... .. . ... : ... .. . ...
ROW EB : ... .. . ... ... : ... .. 2 ... ... : ... .. . ... : ... .. . ... : ... .. . ...
ROW EC : ... .. 3 ... ... : ... .. . ... ... : ... .. . ... : ... .. . ... : ... .. . ...
ROW ED : ... .. . ... ... : ... .. 1 ... ... : ... .. . ... : ... .. . ... : ... .. . ...
ROW EE : ... .. . ... ... : ... .. . ... ... : ... .. . ... : ... .. . ... : ... .. . ...
ROW EF : ... .. 2 ... ... : ... .. . ... ... : ... .. . ... : ... .. . ... : ... .. . ...
ROW F0 : ... .. . ... ... : ... .. . ... ... : ... .. . ... : ... .. . ... : ... .. . ...
ROW F1 : ... .. . ... ... : ... .. . ... ... : ... .. . ... : ... .. . ... : ... .. . ...
ROW F2 : ... .. . ... ... : ... .. . ... ... : ... .. . ... : ... .. . ... : ... .. . ...
ROW F3 : ... .. . ... ... : ... .. . ... ... : ... .. . ... : ... .. . ... : ... .. . ...
ROW F4 : ... .. 1 ... ... : ... .. . ... ... : ... .. . ... : ... .. . ... : ... .. . ...
ROW F5 : ... .. . ... ... : ... .. . ... ... : ... .. . ... : ... .. . ... : ... .. . ...
ROW F6 : ... .. . ... ... : ... .. . ... ... : ... .. . ... : ... .. . ... : ... .. . ...
ROW F7 : ... .. . ... ... : ... .. . ... ... : ... .. . ... : ... .. . ... : ... .. . ...
ROW F8 : F#3 00 8 V00 ... : ... .. . ... ... : ... .. . ... : ... .. . ... : ... .. . ...
ROW F9 : ... .. 5 V01 ... : ... .. . ... ... : ... .. . ... : ... .. . ... : ... .. . ...
ROW FA : ... .. . ... ... : ... .. . ... ... : ... .. . ... : ... .. . ... : ... .. . ...
ROW FB : ... .. . ... ... : ... .. . ... ... : ... .. . ... : ... .. . ... : ... .. . ...
ROW FC : ... .. 3 ... ... : ... .. . ... ... : ... .. . ... : ... .. . ... : C-2 00 . ...
ROW FD : ... .. . ... ... : ... .. . ... ... : ... .. . ... : ... .. . ... : ... .. . ...
ROW FE : ... .. . ... ... : ... .. . ... ... : ... .. . ... : ... .. . ... : ... .. . ...
ROW FF : ... .. 2 ... ... : ... .. . ... ... : ... .. . ... : ... .. . ... : ... .. . ...

PATTERN 0D
ROW 00 : A-1 00 D V03 P7C : F#1 00 D V03 P82 : E-2 00 . ... : D-# 00 7 ... : C-5 00 . ...
ROW 01 : F#2 00 . V00 ... : C#2 00 . V00 ... : ... .. . ... : ... .. 5 ... : ... .. . ...
ROW 02 : ... .. . V01 ... : ... .. . V01 ... : ... .. . ... : ... .. . ... : ... .. . ...
ROW 03 : ... .. 4 V00 ... : ... .. 4 V00 ... : ... .. . ... : ... .. 3 ... : ... .. . ...
ROW 04 : ... .. 2 ... ... : ... .. 2 ... ... : ... .. . ... : ... .. . ... : ... .. . ...
ROW 05 : ... .. 1 ... ... : ... .. 1 ... ... : ... .. . ... : ... .. . ... : ... .. . ...
ROW 06 : ... .. . ... ... : ... .. . ... ... : ... .. . ... : ... .. 2 ... : ... .. . ...
ROW 07 : ... .. . ... ... : ... .. . ... ... : --- .. . ... : ... .. 1 ... : ... .. . ...
ROW 08 : ... .. . ... ... : ... .. . ... ... : ... .. . ... : ... .. 0 ... : ... .. . ...
ROW 09 : ... .. . ... ... : ... .. . ... ... : ... .. . ... : ... .. . ... : ... .. . ...
ROW 0A : ... .. . ... ... : ... .. . ... ... : ... .. . ... : ... .. . ... : ... .. . ...
ROW 0B : ... .. . ... ... : ... .. . ... ... : ... .. . ... : ... .. . ... : ... .. . ...
ROW 0C : ... .. . ... ... : ... .. . ... ... : ... .. . ... : ... .. . ... : ... .. . ...
ROW 0D : ... .. . ... ... : ... .. . ... ... : ... .. . ... : ... .. . ... : ... .. . ...
ROW 0E : ... .. . ... ... : ... .. . ... ... : E-2 00 . ... : E-# 00 5 ... : ... .. . ...
ROW 0F : ... .. . ... ... : ... .. . ... ... : ... .. . ... : ... .. . ... : ... .. . ...
ROW 10 : ... .. . ... ... : ... .. . ... ... : ... .. . ... : ... .. 4 ... : ... .. . ...
ROW 11 : ... .. . ... ... : ... .. . ... ... : ... .. . ... : ... .. . ... : ... .. . ...
ROW 12 : ... .. . ... ... : ... .. . ... ... : ... .. . ... : ... .. 3 ... : ... .. . ...
ROW 13 : ... .. . ... ... : ... .. . ... ... : ... .. . ... : ... .. . ... : ... .. . ...
ROW 14 : ... .. . ... ... : ... .. . ... ... : --- .. . ... : ... .. 2 ... : ... .. . ...
ROW 15 : ... .. . ... ... : ... .. . ... ... : E-2 00 . ... : E-# 00 5 ... : C-3 00 . ...
ROW 16 : ... .. . ... ... : ... .. . ... ... : ... .. . ... : ... .. . ... : ... .. . ...
ROW 17 : ... .. . ... ... : ... .. . ... ... : ... .. . ... : ... .. 4 ... : ... .. . ...
ROW 18 : ... .. . ... ... : ... .. . ... ... : ... .. . ... : ... .. . ... : ... .. . ...
ROW 19 : ... .. . ... ... : ... .. . ... ... : ... .. . ... : ... .. 3 ... : ... .. . ...
ROW 1A : ... .. . ... ... : ... .. . ... ... : ... .. . ... : ... .. . ... : ... .. . ...
ROW 1B : ... .. . ... ... : ... .. . ... ... : --- .. . ... : ... .. 2 ... : ... .. . ...
ROW 1C : ... .. . ... ... : ... .. . ... ... : F#4 00 . ... : 4-# 00 9 ... : F-5 00 . ...
ROW 1D : ... .. . ... ... : ... .. . ... ... : E-4 00 . ... : 7-# 00 7 ... : ... .. . ...
ROW 1E : ... .. . ... ... : ... .. . ... ... : D-4 00 . ... : ... .. 5 ... : ... .. . ...
ROW 1F : ... .. . ... ... : ... .. . ... ... : C#4 00 . ... : ... .. 4 ... : ... .. . ...
ROW 20 : ... .. . ... ... : ... .. . ... ... : B-3 00 . ... : ... .. 3 ... : ... .. . ...
ROW 21 : ... .. . ... ... : ... .. . ... ... : A-3 00 . ... : ... .. . ... : ... .. . ...
ROW 22 : ... .. . ... ... : ... .. . ... ... : G#3 00 . ... : B-# 00 2 ... : ... .. . ...
ROW 23 : ... .. . ... ... : ... .. . ... ... : F#3 00 . ... : ... .. . ... : ... .. . ...
ROW 24 : ... .. . ... ... : ... .. . ... ... : E-3 00 . ... : D-# 00 . ... : ... .. . ...
ROW 25 : ... .. . ... ... : ... .. . ... ... : --- .. . ... : E-# 00 . ... : ... .. . ...
ROW 26 : ... .. . ... ... : ... .. . ... ... : ... .. . ... : ... .. 1 ... : ... .. . ...
ROW 27 : ... .. . ... ... : ... .. . ... ... : ... .. . ... : ... .. 0 ... : ... .. . ...
ROW 28 : ... .. . ... ... : ... .. . ... ... : ... .. . ... : ... .. . ... : ... .. . ...
ROW 29 : ... .. . ... ... : ... .. . ... ... : ... .. . ... : ... .. . ... : ... .. . ...
ROW 2A : ... .. . ... ... : ... .. . ... ... : E-2 00 . ... : E-# 00 5 ... : ... .. . ...
ROW 2B : ... .. . ... ... : ... .. . ... ... : ... .. . ... : ... .. . ... : ... .. . ...
ROW 2C : ... .. . ... ... : ... .. . ... ... : ... .. . ... : ... .. 4 ... : ... .. . ...
ROW 2D : ... .. . ... ... : ... .. . ... ... : ... .. . ... : ... .. . ... : ... .. . ...
ROW 2E : ... .. . ... ... : ... .. . ... ... : ... .. . ... : ... .. 3 ... : ... .. . ...
ROW 2F : ... .. . ... ... : ... .. . ... ... : ... .. . ... : ... .. . ... : ... .. . ...
ROW 30 : ... .. . ... ... : ... .. . ... ... : ... .. . ... : ... .. 2 ... : ... .. . ...
ROW 31 : ... .. . ... ... : ... .. . ... ... : --- .. . ... : E-# 00 5 ... : C-3 00 . ...
ROW 32 : ... .. . ... ... : ... .. . ... ... : ... .. . ... : ... .. . ... : ... .. . ...
ROW 33 : ... .. . ... ... : ... .. . ... ... : ... .. . ... : ... .. 4 ... : ... .. . ...
ROW 34 : ... .. . ... ... : ... .. . ... ... : ... .. . ... : ... .. . ... : ... .. . ...
ROW 35 : ... .. . ... ... : ... .. . ... ... : ... .. . ... : ... .. 3 ... : ... .. . ...
ROW 36 : ... .. . ... ... : ... .. . ... ... : ... .. . ... : ... .. . ... : ... .. . ...
ROW 37 : ... .. . ... ... : ... .. . ... ... : ... .. . ... : ... .. 2 ... : ... .. . ...
ROW 38 : ... .. . ... ... : ... .. . ... ... : E-2 00 . ... : D-# 00 7 ... : C-5 00 . ...
ROW 39 : ... .. . ... ... : ... .. . ... ... : ... .. . ... : ... .. 5 ... : ... .. . ...
ROW 3A : ... .. . ... ... : ... .. . ... ... : ... .. . ... : ... .. . ... : ... .. . ...
ROW 3B : ... .. . ... ... : ... .. . ... ... : ... .. . ... : ... .. 3 ... : ... .. . ...
ROW 3C : ... .. . ... ... : ... .. . ... ... : ... .. . ... : ... .. . ... : ... .. . ...
ROW 3D : ... .. . ... ... : ... .. . ... ... : ... .. . ... : ... .. . ... : ... .. . ...
ROW 3E : ... .. . ... ... : ... .. . ... ... : ... .. . ... : ... .. 2 ... : ... .. . ...
ROW 3F : ... .. . ... ... : ... .. . ... ... : --- .. . ... : ... .. 1 ... : ... .. . ...
ROW 40 : ... .. . ... ... : ... .. . ... ... : ... .. . ... : ... .. 0 ... : ... .. . ...
ROW 41 : ... .. . ... ... : ... .. . ... ... : ... .. . ... : ... .. . ... : ... .. . ...
ROW 42 : ... .. . ... ... : ... .. . ... ... : ... .. . ... : ... .. . ... : ... .. . ...
ROW 43 : ... .. . ... ... : ... .. . ... ... : ... .. . ... : ... .. . ... : ... .. . ...
ROW 44 : ... .. . ... ... : ... .. . ... ... : ... .. . ... : ... .. . ... : ... .. . ...
ROW 45 : ... .. . ... ... : ... .. . ... ... : ... .. . ... : ... .. . ... : ... .. . ...
ROW 46 : ... .. . ... ... : ... .. . ... ... : E-2 00 . ... : E-# 00 5 ... : C-5 00 . ...
ROW 47 : ... .. . ... ... : ... .. . ... ... : ... .. . ... : ... .. . ... : ... .. . ...
ROW 48 : ... .. . ... ... : ... .. . ... ... : ... .. . ... : ... .. 4 ... : ... .. . ...
ROW 49 : ... .. . ... ... : ... .. . ... ... : ... .. . ... : ... .. . ... : ... .. . ...
ROW 4A : ... .. . ... ... : ... .. . ... ... : ... .. . ... : ... .. 3 ... : ... .. . ...
ROW 4B : ... .. . ... ... : ... .. . ... ... : ... .. . ... : ... .. . ... : ... .. . ...
ROW 4C : ... .. . ... ... : ... .. . ... ... : --- .. . ... : ... .. 2 ... : ... .. . ...
ROW 4D : ... .. . ... ... : ... .. . ... ... : E-2 00 . ... : E-# 00 5 ... : ... .. . ...
ROW 4E : ... .. . ... ... : ... .. . ... ... : ... .. . ... : ... .. . ... : ... .. . ...
ROW 4F : ... .. . ... ... : ... .. . ... ... : ... .. . ... : ... .. 4 ... : ... .. . ...
ROW 50 : ... .. . ... ... : ... .. . ... ... : ... .. . ... : ... .. . ... : ... .. . ...
ROW 51 : ... .. . ... ... : ... .. . ... ... : ... .. . ... : ... .. 3 ... : ... .. . ...
ROW 52 : ... .. . ... ... : ... .. . ... ... : ... .. . ... : ... .. . ... : ... .. . ...
ROW 53 : ... .. . ... ... : ... .. . ... ... : --- .. . ... : ... .. 2 ... : ... .. . ...
ROW 54 : ... .. . ... ... : ... .. . ... ... : F#4 00 . ... : 4-# 00 9 ... : F-5 00 . ...
ROW 55 : ... .. . ... ... : ... .. . ... ... : E-4 00 . ... : 7-# 00 7 ... : ... .. . ...
ROW 56 : ... .. . ... ... : ... .. . ... ... : D-4 00 . ... : ... .. 5 ... : ... .. . ...
ROW 57 : ... .. . ... ... : ... .. . ... ... : C#4 00 . ... : ... .. 4 ... : ... .. . ...
ROW 58 : ... .. . ... ... : ... .. . ... ... : B-3 00 . ... : ... .. 3 ... : ... .. . ...
ROW 59 : ... .. . ... ... : ... .. . ... ... : A-3 00 . ... : ... .. . ... : ... .. . ...
ROW 5A : ... .. . ... ... : ... .. . ... ... : G#3 00 . ... : B-# 00 2 ... : ... .. . ...
ROW 5B : ... .. . ... ... : ... .. . ... ... : F#3 00 . ... : ... .. . ... : ... .. . ...
ROW 5C : ... .. . ... ... : ... .. . ... ... : E-3 00 . ... : D-# 00 . ... : ... .. . ...
ROW 5D : ... .. . ... ... : ... .. . ... ... : --- .. . ... : E-# 00 . ... : ... .. . ...
ROW 5E : ... .. . ... ... : ... .. . ... ... : ... .. . ... : ... .. 1 ... : ... .. . ...
ROW 5F : ... .. . ... ... : ... .. . ... ... : ... .. . ... : ... .. 0 ... : ... .. . ...
ROW 60 : ... .. . ... ... : ... .. . ... ... : ... .. . ... : ... .. . ... : ... .. . ...
ROW 61 : ... .. . ... ... : ... .. . ... ... : ... .. . ... : ... .. . ... : ... .. . ...
ROW 62 : ... .. . ... ... : ... .. . ... ... : E-2 00 . ... : E-# 00 5 ... : ... .. . ...
ROW 63 : ... .. . ... ... : ... .. . ... ... : ... .. . ... : ... .. . ... : ... .. . ...
ROW 64 : ... .. . ... ... : ... .. . ... ... : ... .. . ... : ... .. 4 ... : ... .. . ...
ROW 65 : ... .. . ... ... : ... .. . ... ... : ... .. . ... : ... .. . ... : ... .. . ...
ROW 66 : ... .. . ... ... : ... .. . ... ... : ... .. . ... : ... .. 3 ... : ... .. . ...
ROW 67 : ... .. . ... ... : ... .. . ... ... : ... .. . ... : ... .. . ... : ... .. . ...
ROW 68 : ... .. . ... ... : ... .. . ... ... : ... .. . ... : ... .. 2 ... : ... .. . ...
ROW 69 : ... .. . ... ... : ... .. . ... ... : --- .. . ... : E-# 00 5 ... : ... .. . ...
ROW 6A : ... .. . ... ... : ... .. . ... ... : ... .. . ... : ... .. . ... : ... .. . ...
ROW 6B : ... .. . ... ... : ... .. . ... ... : ... .. . ... : ... .. 4 ... : ... .. . ...
ROW 6C : ... .. . ... ... : ... .. . ... ... : ... .. . ... : ... .. . ... : ... .. . ...
ROW 6D : ... .. . ... ... : ... .. . ... ... : ... .. . ... : ... .. 3 ... : ... .. . ...
ROW 6E : ... .. . ... ... : ... .. . ... ... : ... .. . ... : ... .. . ... : ... .. . ...
ROW 6F : ... .. . ... ... : ... .. . ... ... : ... .. . ... : ... .. 2 ... : ... .. . ...
ROW 70 : ... .. . ... ... : ... .. . ... ... : C#2 00 . ... : D-# 00 7 ... : C-5 00 . ...
ROW 71 : ... .. . ... ... : ... .. . ... ... : ... .. . ... : ... .. 5 ... : ... .. . ...
ROW 72 : ... .. . ... ... : ... .. . ... ... : ... .. . ... : ... .. . ... : ... .. . ...
ROW 73 : ... .. . ... ... : ... .. . ... ... : ... .. . ... : ... .. 3 ... : ... .. . ...
ROW 74 : ... .. . ... ... : ... .. . ... ... : ... .. . ... : ... .. . ... : ... .. . ...
ROW 75 : ... .. . ... ... : ... .. . ... ... : ... .. . ... : ... .. . ... : ... .. . ...
ROW 76 : ... .. . ... ... : ... .. . ... ... : ... .. . ... : ... .. 2 ... : ... .. . ...
ROW 77 : ... .. . ... ... : ... .. . ... ... : --- .. . ... : ... .. 1 ... : ... .. . ...
ROW 78 : ... .. . ... ... : ... .. . ... ... : ... .. . ... : ... .. 0 ... : ... .. . ...
ROW 79 : ... .. . ... ... : ... .. . ... ... : ... .. . ... : ... .. . ... : ... .. . ...
ROW 7A : ... .. . ... ... : ... .. . ... ... : ... .. . ... : ... .. . ... : ... .. . ...
ROW 7B : ... .. . ... ... : ... .. . ... ... : ... .. . ... : ... .. . ... : ... .. . ...
ROW 7C : ... .. . ... ... : ... .. . ... ... : ... .. . ... : ... .. . ... : ... .. . ...
ROW 7D : ... .. . ... ... : ... .. . ... ... : ... .. . ... : ... .. . ... : ... .. . ...
ROW 7E : ... .. . ... ... : ... .. . ... ... : C#2 00 . ... : E-# 00 5 ... : ... .. . ...
ROW 7F : ... .. . ... ... : ... .. . ... ... : ... .. . ... : ... .. . ... : ... .. . ...
ROW 80 : ... .. . ... ... : ... .. . ... ... : ... .. . ... : ... .. 4 ... : ... .. . ...
ROW 81 : ... .. . ... ... : ... .. . ... ... : ... .. . ... : ... .. . ... : ... .. . ...
ROW 82 : ... .. . ... ... : ... .. . ... ... : ... .. . ... : ... .. 3 ... : ... .. . ...
ROW 83 : ... .. . ... ... : ... .. . ... ... : ... .. . ... : ... .. . ... : ... .. . ...
ROW 84 : ... .. . ... ... : ... .. . ... ... : --- .. . ... : ... .. 2 ... : ... .. . ...
ROW 85 : ... .. . ... ... : ... .. . ... ... : C#2 00 . ... : E-# 00 5 ... : C-3 00 . ...
ROW 86 : ... .. . ... ... : ... .. . ... ... : ... .. . ... : ... .. . ... : ... .. . ...
ROW 87 : ... .. . ... ... : ... .. . ... ... : ... .. . ... : ... .. 4 ... : ... .. . ...
ROW 88 : ... .. . ... ... : ... .. . ... ... : ... .. . ... : ... .. . ... : ... .. . ...
ROW 89 : ... .. . ... ... : ... .. . ... ... : ... .. . ... : ... .. 3 ... : ... .. . ...
ROW 8A : ... .. . ... ... : ... .. . ... ... : ... .. . ... : ... .. . ... : ... .. . ...
ROW 8B : ... .. . ... ... : ... .. . ... ... : --- .. . ... : ... .. 2 ... : ... .. . ...
ROW 8C : ... .. . ... ... : ... .. . ... ... : D-4 00 . ... : 4-# 00 9 ... : F-5 00 . ...
ROW 8D : ... .. . ... ... : ... .. . ... ... : C#4 00 . ... : 7-# 00 7 ... : ... .. . ...
ROW 8E : ... .. . ... ... : ... .. . ... ... : B-3 00 . ... : ... .. 5 ... : ... .. . ...
ROW 8F : ... .. . ... ... : ... .. . ... ... : A-3 00 . ... : ... .. 4 ... : ... .. . ...
ROW 90 : ... .. . ... ... : ... .. . ... ... : G#3 00 . ... : ... .. 3 ... : ... .. . ...
ROW 91 : ... .. . ... ... : ... .. . ... ... : F#3 00 . ... : ... .. . ... : ... .. . ...
ROW 92 : ... .. . ... ... : ... .. . ... ... : E-3 00 . ... : B-# 00 2 ... : ... .. . ...
ROW 93 : ... .. . ... ... : ... .. . ... ... : D-3 00 . ... : ... .. . ... : ... .. . ...
ROW 94 : ... .. . ... ... : ... .. . ... ... : C#3 00 . ... : D-# 00 . ... : ... .. . ...
ROW 95 : ... .. . ... ... : ... .. . ... ... : --- .. . ... : E-# 00 . ... : ... .. . ...
ROW 96 : ... .. . ... ... : ... .. . ... ... : ... .. . ... : ... .. 1 ... : ... .. . ...
ROW 97 : ... .. . ... ... : ... .. . ... ... : ... .. . ... : ... .. 0 ... : ... .. . ...
ROW 98 : ... .. . ... ... : ... .. . ... ... : ... .. . ... : ... .. . ... : ... .. . ...
ROW 99 : ... .. . ... ... : ... .. . ... ... : ... .. . ... : ... .. . ... : ... .. . ...
ROW 9A : ... .. . ... ... : ... .. . ... ... : C#2 00 . ... : E-# 00 5 ... : ... .. . ...
ROW 9B : ... .. . ... ... : ... .. . ... ... : ... .. . ... : ... .. . ... : ... .. . ...
ROW 9C : ... .. . ... ... : ... .. . ... ... : ... .. . ... : ... .. 4 ... : ... .. . ...
ROW 9D : ... .. . ... ... : ... .. . ... ... : ... .. . ... : ... .. . ... : ... .. . ...
ROW 9E : ... .. . ... ... : ... .. . ... ... : ... .. . ... : ... .. 3 ... : ... .. . ...
ROW 9F : ... .. . ... ... : ... .. . ... ... : ... .. . ... : ... .. . ... : ... .. . ...
ROW A0 : ... .. . ... ... : ... .. . ... ... : ... .. . ... : ... .. 2 ... : ... .. . ...
ROW A1 : ... .. . ... ... : ... .. . ... ... : --- .. . ... : E-# 00 5 ... : C-3 00 . ...
ROW A2 : ... .. . ... ... : ... .. . ... ... : ... .. . ... : ... .. . ... : ... .. . ...
ROW A3 : ... .. . ... ... : ... .. . ... ... : ... .. . ... : ... .. 4 ... : ... .. . ...
ROW A4 : ... .. . ... ... : ... .. . ... ... : ... .. . ... : ... .. . ... : ... .. . ...
ROW A5 : ... .. . ... ... : ... .. . ... ... : ... .. . ... : ... .. 3 ... : ... .. . ...
ROW A6 : ... .. . ... ... : ... .. . ... ... : ... .. . ... : ... .. . ... : ... .. . ...
ROW A7 : ... .. . ... ... : ... .. . ... ... : ... .. . ... : ... .. 2 ... : ... .. . ...
ROW A8 : ... .. . ... ... : ... .. . ... ... : C#2 00 . ... : D-# 00 7 ... : C-5 00 . ...
ROW A9 : ... .. . ... ... : ... .. . ... ... : ... .. . ... : ... .. 5 ... : ... .. . ...
ROW AA : ... .. . ... ... : ... .. . ... ... : ... .. . ... : ... .. . ... : ... .. . ...
ROW AB : ... .. . ... ... : ... .. . ... ... : ... .. . ... : ... .. 3 ... : ... .. . ...
ROW AC : ... .. . ... ... : ... .. . ... ... : ... .. . ... : ... .. . ... : ... .. . ...
ROW AD : ... .. . ... ... : ... .. . ... ... : ... .. . ... : ... .. . ... : ... .. . ...
ROW AE : ... .. . ... ... : ... .. . ... ... : ... .. . ... : ... .. 2 ... : ... .. . ...
ROW AF : ... .. . ... ... : ... .. . ... ... : --- .. . ... : ... .. 1 ... : ... .. . ...
ROW B0 : ... .. . ... ... : ... .. . ... ... : ... .. . ... : ... .. 0 ... : ... .. . ...
ROW B1 : ... .. . ... ... : ... .. . ... ... : ... .. . ... : ... .. . ... : ... .. . ...
ROW B2 : ... .. . ... ... : ... .. . ... ... : ... .. . ... : ... .. . ... : ... .. . ...
ROW B3 : ... .. . ... ... : ... .. . ... ... : ... .. . ... : ... .. . ... : ... .. . ...
ROW B4 : ... .. . ... ... : ... .. . ... ... : ... .. . ... : ... .. . ... : ... .. . ...
ROW B5 : ... .. . ... ... : ... .. . ... ... : ... .. . ... : ... .. . ... : ... .. . ...
ROW B6 : ... .. . ... ... : ... .. . ... ... : C#2 00 . ... : E-# 00 5 ... : C-5 00 . ...
ROW B7 : ... .. . ... ... : ... .. . ... ... : ... .. . ... : ... .. . ... : ... .. . ...
ROW B8 : ... .. . ... ... : ... .. . ... ... : ... .. . ... : ... .. 4 ... : ... .. . ...
ROW B9 : ... .. . ... ... : ... .. . ... ... : ... .. . ... : ... .. . ... : ... .. . ...
ROW BA : ... .. . ... ... : ... .. . ... ... : ... .. . ... : ... .. 3 ... : ... .. . ...
ROW BB : ... .. . ... ... : ... .. . ... ... : ... .. . ... : ... .. . ... : ... .. . ...
ROW BC : ... .. . ... ... : ... .. . ... ... : --- .. . ... : ... .. 2 ... : ... .. . ...
ROW BD : ... .. . ... ... : ... .. . ... ... : C#2 00 . ... : E-# 00 5 ... : ... .. . ...
ROW BE : ... .. . ... ... : ... .. . ... ... : ... .. . ... : ... .. . ... : ... .. . ...
ROW BF : ... .. . ... ... : ... .. . ... ... : ... .. . ... : ... .. 4 ... : ... .. . ...
ROW C0 : ... .. . ... ... : ... .. . ... ... : ... .. . ... : ... .. . ... : ... .. . ...
ROW C1 : ... .. . ... ... : ... .. . ... ... : ... .. . ... : ... .. 3 ... : ... .. . ...
ROW C2 : ... .. . ... ... : ... .. . ... ... : ... .. . ... : ... .. . ... : ... .. . ...
ROW C3 : ... .. . ... ... : ... .. . ... ... : --- .. . ... : ... .. 2 ... : ... .. . ...
ROW C4 : ... .. . ... ... : ... .. . ... ... : F-4 00 . ... : 4-# 00 9 ... : F-5 00 . ...
ROW C5 : ... .. . ... ... : ... .. . ... ... : E-4 00 . ... : 7-# 00 7 ... : ... .. . ...
ROW C6 : ... .. . ... ... : ... .. . ... ... : D-4 00 . ... : ... .. 5 ... : ... .. . ...
ROW C7 : ... .. . ... ... : ... .. . ... ... : C#4 00 . ... : ... .. 4 ... : ... .. . ...
ROW C8 : ... .. . ... ... : ... .. . ... ... : B-3 00 . ... : ... .. 3 ... : ... .. . ...
ROW C9 : ... .. . ... ... : ... .. . ... ... : A-3 00 . ... : ... .. . ... : ... .. . ...
ROW CA : ... .. . ... ... : ... .. . ... ... : --- 00 . ... : B-# 00 2 ... : ... .. . ...
ROW CB : ... .. . ... ... : ... .. . ... ... : E-4 00 . ... : ... .. . ... : ... .. . ...
ROW CC : ... .. . ... ... : ... .. . ... ... : D-4 00 . ... : D-# 00 . ... : ... .. . ...
ROW CD : ... .. . ... ... : ... .. . ... ... : --- 00 . ... : E-# 00 . ... : ... .. . ...
ROW CE : ... .. . ... ... : ... .. . ... ... : E-4 00 . ... : ... .. 1 ... : ... .. . ...
ROW CF : ... .. . ... ... : ... .. . ... ... : D-4 00 . ... : ... .. 0 ... : ... .. . ...
ROW D0 : ... .. . ... ... : ... .. . ... ... : C#4 00 . ... : ... .. . ... : ... .. . ...
ROW D1 : ... .. . ... ... : ... .. . ... ... : --- 00 . ... : ... .. . ... : ... .. . ...
ROW D2 : ... .. . ... ... : ... .. . ... ... : D-4 00 . ... : E-# 00 5 ... : F-5 00 . ...
ROW D3 : ... .. . ... ... : ... .. . ... ... : C#4 00 . ... : ... .. . ... : ... .. . ...
ROW D4 : ... .. . ... ... : ... .. . ... ... : B-3 00 . ... : ... .. 4 ... : ... .. . ...
ROW D5 : ... .. . ... ... : ... .. . ... ... : A-3 00 . ... : ... .. . ... : ... .. . ...
ROW D6 : ... .. . ... ... : ... .. . ... ... : G#3 00 . ... : ... .. 3 ... : ... .. . ...
ROW D7 : ... .. . ... ... : ... .. . ... ... : F-3 00 . ... : ... .. . ... : ... .. . ...
ROW D8 : ... .. . ... ... : ... .. . ... ... : --- 00 . ... : ... .. 2 ... : ... .. . ...
ROW D9 : ... .. . ... ... : ... .. . ... ... : D-4 00 . ... : E-# 00 5 ... : F-5 00 . ...
ROW DA : ... .. . ... ... : ... .. . ... ... : C#4 00 . ... : ... .. . ... : ... .. . ...
ROW DB : ... .. . ... ... : ... .. . ... ... : B-3 00 . ... : ... .. 4 ... : ... .. . ...
ROW DC : ... .. . ... ... : ... .. . ... ... : A-3 00 . ... : ... .. . ... : ... .. . ...
ROW DD : ... .. . ... ... : ... .. . ... ... : G#3 00 . ... : ... .. 3 ... : ... .. . ...
ROW DE : ... .. . ... ... : ... .. . ... ... : F-3 00 . ... : ... .. . ... : ... .. . ...
ROW DF : ... .. . ... ... : ... .. . ... ... : --- 00 . ... : ... .. 2 ... : ... .. . D00
ROW E0 : ... .. . ... ... : ... .. . ... ... : C#3 00 . ... : 7-# 00 2 ... : ... .. . ...
ROW E1 : ... .. . ... ... : ... .. . ... ... : --- .. . ... : ... .. . ... : ... .. . ...
ROW E2 : ... .. . ... ... : ... .. . ... ... : ... .. . ... : ... .. 1 ... : ... .. . ...
ROW E3 : ... .. . ... ... : ... .. . ... ... : ... .. . ... : ... .. . ... : ... .. . ...
ROW E4 : ... .. . ... ... : ... .. . ... ... : ... .. . ... : ... .. 0 ... : ... .. . ...
ROW E5 : ... .. . ... ... : ... .. . ... ... : ... .. . ... : ... .. . ... : ... .. . ...
ROW E6 : ... .. . ... ... : ... .. . ... ... : ... .. . ... : ... .. . ... : ... .. . ...
ROW E7 : ... .. . ... ... : ... .. . ... ... : ... .. . ... : ... .. . ... : ... .. . ...
ROW E8 : ... .. . ... ... : ... .. . ... ... : ... .. . ... : 3-# 00 2 ... : ... .. . ...
ROW E9 : ... .. . ... ... : ... .. . ... ... : ... .. . ... : ... .. . ... : ... .. . ...
ROW EA : ... .. . ... ... : ... .. . ... ... : ... .. . ... : ... .. 1 ... : ... .. . ...
ROW EB : ... .. . ... ... : ... .. . ... ... : ... .. . ... : ... .. . ... : ... .. . ...
ROW EC : ... .. . ... ... : ... .. . ... ... : ... .. . ... : ... .. 0 ... : ... .. . ...
ROW ED : ... .. . ... ... : ... .. . ... ... : ... .. . ... : ... .. . ... : ... .. . ...
ROW EE : ... .. . ... ... : ... .. . ... ... : ... .. . ... : ... .. . ... : ... .. . ...
ROW EF : ... .. . ... ... : ... .. . ... ... : ... .. . ... : ... .. . ... : ... .. . ...
ROW F0 : ... .. . ... ... : ... .. . ... ... : ... .. . ... : 7-# 00 2 ... : ... .. . ...
ROW F1 : ... .. . ... ... : ... .. . ... ... : ... .. . ... : ... .. . ... : ... .. . ...
ROW F2 : ... .. . ... ... : ... .. . ... ... : ... .. . ... : ... .. 1 ... : ... .. . ...
ROW F3 : ... .. . ... ... : ... .. . ... ... : ... .. . ... : ... .. . ... : ... .. . ...
ROW F4 : ... .. . ... ... : ... .. . ... ... : ... .. . ... : ... .. 0 ... : ... .. . ...
ROW F5 : ... .. . ... ... : ... .. . ... ... : ... .. . ... : ... .. . ... : ... .. . ...
ROW F6 : ... .. . ... ... : ... .. . ... ... : ... .. . ... : ... .. . ... : ... .. . ...
ROW F7 : ... .. . ... ... : ... .. . ... ... : ... .. . ... : ... .. . ... : ... .. . ...
ROW F8 : ... .. . ... ... : ... .. . ... ... : ... .. . ... : 3-# 00 2 ... : ... .. . ...
ROW F9 : ... .. . ... ... : ... .. . ... ... : ... .. . ... : ... .. . ... : ... .. . ...
ROW FA : ... .. . ... ... : ... .. . ... ... : ... .. . ... : ... .. 1 ... : ... .. . ...
ROW FB : ... .. . ... ... : ... .. . ... ... : ... .. . ... : ... .. . ... : ... .. . ...
ROW FC : ... .. . ... ... : ... .. . ... ... : ... .. . ... : ... .. 0 ... : ... .. . ...
ROW FD : ... .. . ... ... : ... .. . ... ... : ... .. . ... : ... .. . ... : ... .. . ...
ROW FE : ... .. . ... ... : ... .. . ... ... : ... .. . ... : ... .. . ... : ... .. . ...
ROW FF : ... .. . ... ... : ... .. . ... ... : ... .. . ... : ... .. . ... : ... .. . ...

PATTERN 0E
ROW 00 : E-3 00 8 V00 P80 : E-5 00 3 V02 P80 : E-2 00 . ... : D-# 00 7 ... : C-5 00 . ...
ROW 01 : ... .. 5 V01 ... : ... .. . ... ... : ... .. . ... : ... .. 5 ... : ... .. . ...
ROW 02 : ... .. . ... ... : ... .. . ... ... : ... .. . ... : ... .. . ... : ... .. . ...
ROW 03 : G#2 00 . V00 ... : ... .. . ... ... : ... .. . ... : ... .. 3 ... : ... .. . ...
ROW 04 : ... .. 3 V01 ... : D-5 00 2 ... ... : ... .. . ... : ... .. . ... : ... .. . ...
ROW 05 : B-2 00 . V00 ... : ... .. . ... ... : ... .. . ... : ... .. . ... : ... .. . ...
ROW 06 : ... .. . V01 ... : ... .. 1 ... ... : ... .. . ... : ... .. 2 ... : ... .. . ...
ROW 07 : E-3 00 8 V00 ... : D-5 00 3 ... ... : --- .. . ... : ... .. 1 ... : ... .. . ...
ROW 08 : ... .. 5 V01 ... : ... .. . ... ... : ... .. . ... : ... .. 0 ... : ... .. . ...
ROW 09 : ... .. . ... ... : ... .. . ... ... : ... .. . ... : ... .. . ... : ... .. . ...
ROW 0A : G#2 00 . V00 ... : ... .. . ... ... : ... .. . ... : ... .. . ... : ... .. . ...
ROW 0B : ... .. 3 V01 ... : E-5 00 2 ... ... : ... .. . ... : ... .. . ... : ... .. . ...
ROW 0C : B-2 00 . V00 ... : ... .. . ... ... : ... .. . ... : ... .. . ... : ... .. . ...
ROW 0D : ... .. . V01 ... : ... .. 1 ... ... : ... .. . ... : ... .. . ... : ... .. . ...
ROW 0E : E-3 00 8 V00 ... : A-4 00 3 ... ... : E-2 00 . ... : E-# 00 5 ... : ... .. . ...
ROW 0F : ... .. 5 V01 ... : ... .. . ... ... : ... .. . ... : ... .. . ... : ... .. . ...
ROW 10 : ... .. . ... ... : ... .. . ... ... : ... .. . ... : ... .. 4 ... : ... .. . ...
ROW 11 : G#2 00 . V00 ... : ... .. . ... ... : ... .. . ... : ... .. . ... : ... .. . ...
ROW 12 : ... .. 3 V01 ... : D-5 00 2 ... ... : ... .. . ... : ... .. 3 ... : ... .. . ...
ROW 13 : B-2 00 . V00 ... : ... .. . ... ... : ... .. . ... : ... .. . ... : ... .. . ...
ROW 14 : ... .. . V01 ... : ... .. 1 ... ... : --- .. . ... : ... .. 2 ... : ... .. . ...
ROW 15 : E-3 00 8 V00 ... : F#4 00 3 ... ... : E-2 00 . ... : E-# 00 5 ... : C-3 00 . ...
ROW 16 : ... .. 5 V01 ... : ... .. . ... ... : ... .. . ... : ... .. . ... : ... .. . ...
ROW 17 : ... .. . ... ... : ... .. . ... ... : ... .. . ... : ... .. 4 ... : ... .. . ...
ROW 18 : G#2 00 . V00 ... : ... .. . ... ... : ... .. . ... : ... .. . ... : ... .. . ...
ROW 19 : ... .. 3 V01 ... : A-4 00 2 ... ... : ... .. . ... : ... .. 3 ... : ... .. . ...
ROW 1A : B-2 00 . V00 ... : ... .. . ... ... : ... .. . ... : ... .. . ... : ... .. . ...
ROW 1B : ... .. . V01 ... : ... .. 1 ... ... : --- .. . ... : ... .. 2 ... : ... .. . ...
ROW 1C : E-3 00 2 V00 ... : E-4 00 3 ... ... : F#4 00 . ... : 4-# 00 9 ... : F-5 00 . ...
ROW 1D : ... .. . V01 ... : ... .. . ... ... : E-4 00 . ... : 7-# 00 7 ... : ... .. . ...
ROW 1E : ... .. . ... ... : ... .. . ... ... : D-4 00 . ... : ... .. 5 ... : ... .. . ...
ROW 1F : G#2 00 . V00 ... : ... .. . ... ... : C#4 00 . ... : ... .. 4 ... : ... .. . ...
ROW 20 : ... .. . V01 ... : F#4 00 2 ... ... : B-3 00 . ... : ... .. 3 ... : ... .. . ...
ROW 21 : B-2 00 1 V00 ... : ... .. . ... ... : A-3 00 . ... : ... .. . ... : ... .. . ...
ROW 22 : ... .. . V01 ... : ... .. 1 ... ... : G#3 00 . ... : B-# 00 2 ... : ... .. . ...
ROW 23 : E-3 00 8 V00 ... : ... .. . ... ... : F#3 00 . ... : ... .. . ... : ... .. . ...
ROW 24 : ... .. 5 V01 ... : ... .. . ... ... : E-3 00 . ... : D-# 00 . ... : ... .. . ...
ROW 25 : ... .. . ... ... : ... .. . ... ... : --- .. . ... : E-# 00 . ... : ... .. . ...
ROW 26 : G#2 00 . V00 ... : ... .. . ... ... : ... .. . ... : ... .. 1 ... : ... .. . ...
ROW 27 : ... .. 3 V01 ... : E-4 00 2 ... ... : ... .. . ... : ... .. 0 ... : ... .. . ...
ROW 28 : B-2 00 . V00 ... : ... .. . ... ... : ... .. . ... : ... .. . ... : ... .. . ...
ROW 29 : ... .. . V01 ... : ... .. 1 ... ... : ... .. . ... : ... .. . ... : ... .. . ...
ROW 2A : E-3 00 2 V00 ... : D-4 00 3 ... ... : E-2 00 . ... : E-# 00 5 ... : ... .. . ...
ROW 2B : ... .. . V01 ... : ... .. . ... ... : ... .. . ... : ... .. . ... : ... .. . ...
ROW 2C : ... .. . ... ... : ... .. . ... ... : ... .. . ... : ... .. 4 ... : ... .. . ...
ROW 2D : G#2 00 . V00 ... : ... .. . ... ... : ... .. . ... : ... .. . ... : ... .. . ...
ROW 2E : ... .. . V01 ... : ... .. 2 ... ... : ... .. . ... : ... .. 3 ... : ... .. . ...
ROW 2F : B-2 00 1 V00 ... : ... .. . ... ... : ... .. . ... : ... .. . ... : ... .. . ...
ROW 30 : ... .. . V01 ... : ... .. 1 ... ... : ... .. . ... : ... .. 2 ... : ... .. . ...
ROW 31 : E-3 00 8 V00 ... : E-4 00 3 ... ... : --- .. . ... : E-# 00 5 ... : C-3 00 . ...
ROW 32 : ... .. 5 V01 ... : ... .. . ... ... : ... .. . ... : ... .. . ... : ... .. . ...
ROW 33 : ... .. . ... ... : ... .. . ... ... : ... .. . ... : ... .. 4 ... : ... .. . ...
ROW 34 : G#2 00 . V00 ... : ... .. . ... ... : ... .. . ... : ... .. . ... : ... .. . ...
ROW 35 : ... .. 3 V01 ... : D-4 00 2 ... ... : ... .. . ... : ... .. 3 ... : ... .. . ...
ROW 36 : B-2 00 . V00 ... : ... .. . ... ... : ... .. . ... : ... .. . ... : ... .. . ...
ROW 37 : ... .. . V01 ... : ... .. 1 ... ... : ... .. . ... : ... .. 2 ... : ... .. . ...
ROW 38 : E-3 00 8 V00 ... : E-4 00 3 ... ... : E-2 00 . ... : D-# 00 7 ... : C-5 00 . ...
ROW 39 : ... .. 5 V01 ... : ... .. . ... ... : ... .. . ... : ... .. 5 ... : ... .. . ...
ROW 3A : ... .. . ... ... : ... .. . ... ... : ... .. . ... : ... .. . ... : ... .. . ...
ROW 3B : G#2 00 . V00 ... : ... .. . ... ... : ... .. . ... : ... .. 3 ... : ... .. . ...
ROW 3C : ... .. 3 V01 ... : E-4 00 2 ... ... : ... .. . ... : ... .. . ... : ... .. . ...
ROW 3D : B-2 00 . V00 ... : ... .. . ... ... : ... .. . ... : ... .. . ... : ... .. . ...
ROW 3E : ... .. . V01 ... : ... .. 1 ... ... : ... .. . ... : ... .. 2 ... : ... .. . ...
ROW 3F : E-3 00 8 V00 ... : D-4 00 3 ... ... : --- .. . ... : ... .. 1 ... : ... .. . ...
ROW 40 : ... .. 5 V01 ... : ... .. . ... ... : ... .. . ... : ... .. 0 ... : ... .. . ...
ROW 41 : ... .. . ... ... : ... .. . ... ... : ... .. . ... : ... .. . ... : ... .. . ...
ROW 42 : G#2 00 . V00 ... : ... .. . ... ... : ... .. . ... : ... .. . ... : ... .. . ...
ROW 43 : ... .. 3 V01 ... : E-4 00 2 ... ... : ... .. . ... : ... .. . ... : ... .. . ...
ROW 44 : B-2 00 . V00 ... : ... .. . ... ... : ... .. . ... : ... .. . ... : ... .. . ...
ROW 45 : ... .. . V01 ... : ... .. 1 ... ... : ... .. . ... : ... .. . ... : ... .. . ...
ROW 46 : E-3 00 8 V00 ... : A-4 00 3 ... ... : E-2 00 . ... : E-# 00 5 ... : C-5 00 . ...
ROW 47 : ... .. 5 V01 ... : ... .. . ... ... : ... .. . ... : ... .. . ... : ... .. . ...
ROW 48 : ... .. . ... ... : ... .. . ... ... : ... .. . ... : ... .. 4 ... : ... .. . ...
ROW 49 : G#2 00 . V00 ... : ... .. . ... ... : ... .. . ... : ... .. . ... : ... .. . ...
ROW 4A : ... .. 3 V01 ... : D-4 00 2 ... ... : ... .. . ... : ... .. 3 ... : ... .. . ...
ROW 4B : B-2 00 . V00 ... : ... .. . ... ... : ... .. . ... : ... .. . ... : ... .. . ...
ROW 4C : ... .. . V01 ... : ... .. 1 ... ... : --- .. . ... : ... .. 2 ... : ... .. . ...
ROW 4D : E-3 00 8 V00 ... : E-4 00 3 ... ... : E-2 00 . ... : E-# 00 5 ... : ... .. . ...
ROW 4E : ... .. 5 V01 ... : ... .. . ... ... : ... .. . ... : ... .. . ... : ... .. . ...
ROW 4F : ... .. . ... ... : ... .. . ... ... : ... .. . ... : ... .. 4 ... : ... .. . ...
ROW 50 : G#2 00 . V00 ... : ... .. . ... ... : ... .. . ... : ... .. . ... : ... .. . ...
ROW 51 : ... .. 3 V01 ... : A-4 00 2 ... ... : ... .. . ... : ... .. 3 ... : ... .. . ...
ROW 52 : B-2 00 . V00 ... : ... .. . ... ... : ... .. . ... : ... .. . ... : ... .. . ...
ROW 53 : ... .. . V01 ... : ... .. 1 ... ... : --- .. . ... : ... .. 2 ... : ... .. . ...
ROW 54 : E-3 00 2 V00 ... : B-4 00 3 ... ... : F#4 00 . ... : 4-# 00 9 ... : F-5 00 . ...
ROW 55 : ... .. . V01 ... : ... .. . ... ... : E-4 00 . ... : 7-# 00 7 ... : ... .. . ...
ROW 56 : ... .. . ... ... : ... .. . ... ... : D-4 00 . ... : ... .. 5 ... : ... .. . ...
ROW 57 : G#2 00 . V00 ... : ... .. . ... ... : C#4 00 . ... : ... .. 4 ... : ... .. . ...
ROW 58 : ... .. . V01 ... : E-4 00 2 ... ... : B-3 00 . ... : ... .. 3 ... : ... .. . ...
ROW 59 : B-2 00 1 V00 ... : ... .. . ... ... : A-3 00 . ... : ... .. . ... : ... .. . ...
ROW 5A : ... .. . V01 ... : ... .. 1 ... ... : G#3 00 . ... : B-# 00 2 ... : ... .. . ...
ROW 5B : E-3 00 8 V00 ... : A-4 00 3 ... ... : F#3 00 . ... : ... .. . ... : ... .. . ...
ROW 5C : ... .. 5 V01 ... : ... .. . ... ... : E-3 00 . ... : D-# 00 . ... : ... .. . ...
ROW 5D : ... .. . ... ... : ... .. . ... ... : --- .. . ... : E-# 00 . ... : ... .. . ...
ROW 5E : G#2 00 . V00 ... : ... .. . ... ... : ... .. . ... : ... .. 1 ... : ... .. . ...
ROW 5F : ... .. 3 V01 ... : B-4 00 2 ... ... : ... .. . ... : ... .. 0 ... : ... .. . ...
ROW 60 : B-2 00 . V00 ... : ... .. . ... ... : ... .. . ... : ... .. . ... : ... .. . ...
ROW 61 : ... .. . V01 ... : ... .. 1 ... ... : ... .. . ... : ... .. . ... : ... .. . ...
ROW 62 : E-3 00 2 V00 ... : B-4 00 3 ... ... : E-2 00 . ... : E-# 00 5 ... : ... .. . ...
ROW 63 : ... .. . V01 ... : ... .. . ... ... : ... .. . ... : ... .. . ... : ... .. . ...
ROW 64 : ... .. . ... ... : ... .. . ... ... : ... .. . ... : ... .. 4 ... : ... .. . ...
ROW 65 : G#2 00 . V00 ... : ... .. . ... ... : ... .. . ... : ... .. . ... : ... .. . ...
ROW 66 : ... .. . V01 ... : A-4 00 2 ... ... : ... .. . ... : ... .. 3 ... : ... .. . ...
ROW 67 : B-2 00 1 V00 ... : ... .. . ... ... : ... .. . ... : ... .. . ... : ... .. . ...
ROW 68 : ... .. . V01 ... : ... .. 1 ... ... : ... .. . ... : ... .. 2 ... : ... .. . ...
ROW 69 : E-3 00 8 V00 ... : D-5 00 3 ... ... : --- .. . ... : E-# 00 5 ... : ... .. . ...
ROW 6A : ... .. 5 V01 ... : ... .. . ... ... : ... .. . ... : ... .. . ... : ... .. . ...
ROW 6B : ... .. . ... ... : ... .. . ... ... : ... .. . ... : ... .. 4 ... : ... .. . ...
ROW 6C : G#2 00 . V00 ... : ... .. . ... ... : ... .. . ... : ... .. . ... : ... .. . ...
ROW 6D : ... .. 3 V01 ... : B-4 00 2 ... ... : ... .. . ... : ... .. 3 ... : ... .. . ...
ROW 6E : B-2 00 . V00 ... : ... .. . ... ... : ... .. . ... : ... .. . ... : ... .. . ...
ROW 6F : ... .. . V01 ... : ... .. 1 ... ... : ... .. . ... : ... .. 2 ... : ... .. . ...
ROW 70 : F-3 00 8 V00 ... : F-5 00 3 ... ... : C#2 00 . ... : D-# 00 7 ... : C-5 00 . ...
ROW 71 : ... .. 5 V01 ... : ... .. . ... ... : ... .. . ... : ... .. 5 ... : ... .. . ...
ROW 72 : ... .. . ... ... : ... .. . ... ... : ... .. . ... : ... .. . ... : ... .. . ...
ROW 73 : G#2 00 . V00 ... : ... .. . ... ... : ... .. . ... : ... .. 3 ... : ... .. . ...
ROW 74 : ... .. 3 V01 ... : D-5 00 2 ... ... : ... .. . ... : ... .. . ... : ... .. . ...
ROW 75 : B-2 00 . V00 ... : ... .. . ... ... : ... .. . ... : ... .. . ... : ... .. . ...
ROW 76 : ... .. . V01 ... : ... .. 1 ... ... : ... .. . ... : ... .. 2 ... : ... .. . ...
ROW 77 : F-3 00 8 V00 ... : E-5 00 3 ... ... : --- .. . ... : ... .. 1 ... : ... .. . ...
ROW 78 : ... .. 5 V01 ... : ... .. . ... ... : ... .. . ... : ... .. 0 ... : ... .. . ...
ROW 79 : ... .. . ... ... : ... .. . ... ... : ... .. . ... : ... .. . ... : ... .. . ...
ROW 7A : G#2 00 . V00 ... : ... .. . ... ... : ... .. . ... : ... .. . ... : ... .. . ...
ROW 7B : ... .. 3 V01 ... : F-5 00 2 ... ... : ... .. . ... : ... .. . ... : ... .. . ...
ROW 7C : B-2 00 . V00 ... : ... .. . ... ... : ... .. . ... : ... .. . ... : ... .. . ...
ROW 7D : ... .. . V01 ... : ... .. 1 ... ... : ... .. . ... : ... .. . ... : ... .. . ...
ROW 7E : F-3 00 8 V00 ... : B-4 00 3 ... ... : C#2 00 . ... : E-# 00 5 ... : ... .. . ...
ROW 7F : ... .. 5 V01 ... : ... .. . ... ... : ... .. . ... : ... .. . ... : ... .. . ...
ROW 80 : ... .. . ... ... : ... .. . ... ... : ... .. . ... : ... .. 4 ... : ... .. . ...
ROW 81 : G#2 00 . V00 ... : ... .. . ... ... : ... .. . ... : ... .. . ... : ... .. . ...
ROW 82 : ... .. 3 V01 ... : E-5 00 2 ... ... : ... .. . ... : ... .. 3 ... : ... .. . ...
ROW 83 : B-2 00 . V00 ... : ... .. . ... ... : ... .. . ... : ... .. . ... : ... .. . ...
ROW 84 : ... .. . V01 ... : ... .. 1 ... ... : --- .. . ... : ... .. 2 ... : ... .. . ...
ROW 85 : F-3 00 8 V00 ... : G#4 00 3 ... ... : C#2 00 . ... : E-# 00 5 ... : C-3 00 . ...
ROW 86 : ... .. 5 V01 ... : ... .. . ... ... : ... .. . ... : ... .. . ... : ... .. . ...
ROW 87 : ... .. . ... ... : ... .. . ... ... : ... .. . ... : ... .. 4 ... : ... .. . ...
ROW 88 : G#2 00 . V00 ... : ... .. . ... ... : ... .. . ... : ... .. . ... : ... .. . ...
ROW 89 : ... .. 3 V01 ... : B-4 00 2 ... ... : ... .. . ... : ... .. 3 ... : ... .. . ...
ROW 8A : B-2 00 . V00 ... : ... .. . ... ... : ... .. . ... : ... .. . ... : ... .. . ...
ROW 8B : ... .. . V01 ... : ... .. 1 ... ... : --- .. . ... : ... .. 2 ... : ... .. . ...
ROW 8C : F-3 00 2 V00 ... : F-4 00 3 ... ... : D-4 00 . ... : 4-# 00 9 ... : F-5 00 . ...
ROW 8D : ... .. . V01 ... : ... .. . ... ... : C#4 00 . ... : 7-# 00 7 ... : ... .. . ...
ROW 8E : ... .. . ... ... : ... .. . ... ... : B-3 00 . ... : ... .. 5 ... : ... .. . ...
ROW 8F : G#2 00 . V00 ... : ... .. . ... ... : A-3 00 . ... : ... .. 4 ... : ... .. . ...
ROW 90 : ... .. . V01 ... : G#4 00 2 ... ... : G#3 00 . ... : ... .. 3 ... : ... .. . ...
ROW 91 : B-2 00 1 V00 ... : ... .. . ... ... : F#3 00 . ... : ... .. . ... : ... .. . ...
ROW 92 : ... .. . V01 ... : ... .. 1 ... ... : E-3 00 . ... : B-# 00 2 ... : ... .. . ...
ROW 93 : F-3 00 8 V00 ... : ... .. . ... ... : D-3 00 . ... : ... .. . ... : ... .. . ...
ROW 94 : ... .. 5 V01 ... : ... .. . ... ... : C#3 00 . ... : D-# 00 . ... : ... .. . ...
ROW 95 : ... .. . ... ... : ... .. . ... ... : --- .. . ... : E-# 00 . ... : ... .. . ...
ROW 96 : G#2 00 . V00 ... : ... .. . ... ... : ... .. . ... : ... .. 1 ... : ... .. . ...
ROW 97 : ... .. 3 V01 ... : F-4 00 2 ... ... : ... .. . ... : ... .. 0 ... : ... .. . ...
ROW 98 : B-2 00 . V00 ... : ... .. . ... ... : ... .. . ... : ... .. . ... : ... .. . ...
ROW 99 : ... .. . V01 ... : ... .. 1 ... ... : ... .. . ... : ... .. . ... : ... .. . ...
ROW 9A : F-3 00 2 V00 ... : E-4 00 3 ... ... : C#2 00 . ... : E-# 00 5 ... : ... .. . ...
ROW 9B : ... .. . V01 ... : ... .. . ... ... : ... .. . ... : ... .. . ... : ... .. . ...
ROW 9C : ... .. . ... ... : ... .. . ... ... : ... .. . ... : ... .. 4 ... : ... .. . ...
ROW 9D : G#2 00 . V00 ... : ... .. . ... ... : ... .. . ... : ... .. . ... : ... .. . ...
ROW 9E : ... .. . V01 ... : ... .. 2 ... ... : ... .. . ... : ... .. 3 ... : ... .. . ...
ROW 9F : B-2 00 1 V00 ... : ... .. . ... ... : ... .. . ... : ... .. . ... : ... .. . ...
ROW A0 : ... .. . V01 ... : ... .. 1 ... ... : ... .. . ... : ... .. 2 ... : ... .. . ...
ROW A1 : F-3 00 8 V00 ... : F-4 00 3 ... ... : --- .. . ... : E-# 00 5 ... : C-3 00 . ...
ROW A2 : ... .. 5 V01 ... : ... .. . ... ... : ... .. . ... : ... .. . ... : ... .. . ...
ROW A3 : ... .. . ... ... : ... .. . ... ... : ... .. . ... : ... .. 4 ... : ... .. . ...
ROW A4 : G#2 00 . V00 ... : ... .. . ... ... : ... .. . ... : ... .. . ... : ... .. . ...
ROW A5 : ... .. 3 V01 ... : E-4 00 2 ... ... : ... .. . ... : ... .. 3 ... : ... .. . ...
ROW A6 : B-2 00 . V00 ... : ... .. . ... ... : ... .. . ... : ... .. . ... : ... .. . ...
ROW A7 : ... .. . V01 ... : ... .. 1 ... ... : ... .. . ... : ... .. 2 ... : ... .. . ...
ROW A8 : F-3 00 8 V00 ... : F-4 00 3 ... ... : C#2 00 . ... : D-# 00 7 ... : C-5 00 . ...
ROW A9 : ... .. 5 V01 ... : ... .. . ... ... : ... .. . ... : ... .. 5 ... : ... .. . ...
ROW AA : ... .. . ... ... : ... .. . ... ... : ... .. . ... : ... .. . ... : ... .. . ...
ROW AB : G#2 00 . V00 ... : ... .. . ... ... : ... .. . ... : ... .. 3 ... : ... .. . ...
ROW AC : ... .. 3 V01 ... : F-4 00 2 ... ... : ... .. . ... : ... .. . ... : ... .. . ...
ROW AD : B-2 00 . V00 ... : ... .. . ... ... : ... .. . ... : ... .. . ... : ... .. . ...
ROW AE : ... .. . V01 ... : ... .. 1 ... ... : ... .. . ... : ... .. 2 ... : ... .. . ...
ROW AF : F-3 00 8 V00 ... : E-4 00 3 ... ... : --- .. . ... : ... .. 1 ... : ... .. . ...
ROW B0 : ... .. 5 V01 ... : ... .. . ... ... : ... .. . ... : ... .. 0 ... : ... .. . ...
ROW B1 : ... .. . ... ... : ... .. . ... ... : ... .. . ... : ... .. . ... : ... .. . ...
ROW B2 : G#2 00 . V00 ... : ... .. . ... ... : ... .. . ... : ... .. . ... : ... .. . ...
ROW B3 : ... .. 3 V01 ... : F-4 00 2 ... ... : ... .. . ... : ... .. . ... : ... .. . ...
ROW B4 : B-2 00 . V00 ... : ... .. . ... ... : ... .. . ... : ... .. . ... : ... .. . ...
ROW B5 : ... .. . V01 ... : ... .. 1 ... ... : ... .. . ... : ... .. . ... : ... .. . ...
ROW B6 : F-3 00 8 V00 ... : B-4 00 3 ... ... : C#2 00 . ... : E-# 00 5 ... : C-5 00 . ...
ROW B7 : ... .. 5 V01 ... : ... .. . ... ... : ... .. . ... : ... .. . ... : ... .. . ...
ROW B8 : ... .. . ... ... : ... .. . ... ... : ... .. . ... : ... .. 4 ... : ... .. . ...
ROW B9 : G#2 00 . V00 ... : ... .. . ... ... : ... .. . ... : ... .. . ... : ... .. . ...
ROW BA : ... .. 3 V01 ... : E-4 00 2 ... ... : ... .. . ... : ... .. 3 ... : ... .. . ...
ROW BB : B-2 00 . V00 ... : ... .. . ... ... : ... .. . ... : ... .. . ... : ... .. . ...
ROW BC : ... .. . V01 ... : ... .. 1 ... ... : --- .. . ... : ... .. 2 ... : ... .. . ...
ROW BD : F-3 00 8 V00 ... : F-4 00 3 ... ... : C#2 00 . ... : E-# 00 5 ... : ... .. . ...
ROW BE : ... .. 5 V01 ... : ... .. . ... ... : ... .. . ... : ... .. . ... : ... .. . ...
ROW BF : ... .. . ... ... : ... .. . ... ... : ... .. . ... : ... .. 4 ... : ... .. . ...
ROW C0 : G#2 00 . V00 ... : ... .. . ... ... : ... .. . ... : ... .. . ... : ... .. . ...
ROW C1 : ... .. 3 V01 ... : B-4 00 2 ... ... : ... .. . ... : ... .. 3 ... : ... .. . ...
ROW C2 : B-2 00 . V00 ... : ... .. . ... ... : ... .. . ... : ... .. . ... : ... .. . ...
ROW C3 : ... .. . V01 ... : ... .. 1 ... ... : --- .. . ... : ... .. 2 ... : ... .. . ...
ROW C4 : F-3 00 2 V00 ... : C#5 00 3 ... ... : F-4 00 . ... : 4-# 00 9 ... : F-5 00 . ...
ROW C5 : ... .. . V01 ... : ... .. . ... ... : E-4 00 . ... : 7-# 00 7 ... : ... .. . ...
ROW C6 : ... .. . ... ... : ... .. . ... ... : D-4 00 . ... : ... .. 5 ... : ... .. . ...
ROW C7 : G#2 00 . V00 ... : ... .. . ... ... : C#4 00 . ... : ... .. 4 ... : ... .. . ...
ROW C8 : ... .. . V01 ... : F-4 00 2 ... ... : B-3 00 . ... : ... .. 3 ... : ... .. . ...
ROW C9 : B-2 00 1 V00 ... : ... .. . ... ... : A-3 00 . ... : ... .. . ... : ... .. . ...
ROW CA : ... .. . V01 ... : ... .. 1 ... ... : --- 00 . ... : B-# 00 2 ... : ... .. . ...
ROW CB : F-3 00 8 V00 ... : B-4 00 3 ... ... : F-4 00 . ... : ... .. . ... : F-5 00 . ...
ROW CC : ... .. 5 V01 ... : ... .. . ... ... : E-4 00 . ... : ... .. . ... : ... .. . ...
ROW CD : ... .. . ... ... : ... .. . ... ... : D-4 00 . ... : ... .. 1 ... : ... .. . ...
ROW CE : G#2 00 . V00 ... : ... .. . ... ... : C#4 00 . ... : ... .. . ... : F-5 00 . ...
ROW CF : ... .. 3 V01 ... : C#5 00 2 ... ... : B-3 00 . ... : ... .. . ... : ... .. . ...
ROW D0 : B-2 00 . V00 ... : ... .. . ... ... : A-3 00 . ... : ... .. . ... : ... .. . ...
ROW D1 : ... .. . V01 ... : ... .. 1 ... ... : --- 00 . ... : ... .. 0 ... : ... .. . ...
ROW D2 : F-3 00 2 V00 ... : B-4 00 3 ... ... : D-4 00 . ... : 4-# 00 9 ... : F-5 00 . ...
ROW D3 : ... .. . V01 ... : ... .. . ... ... : C#4 00 . ... : 7-# 00 7 ... : ... .. . ...
ROW D4 : ... .. . ... ... : ... .. . ... ... : B-3 00 . ... : ... .. 5 ... : ... .. . ...
ROW D5 : G#2 00 . V00 ... : ... .. . ... ... : A-3 00 . ... : ... .. 4 ... : ... .. . ...
ROW D6 : ... .. . V01 ... : B-4 00 2 ... ... : G#3 00 . ... : ... .. 3 ... : ... .. . ...
ROW D7 : B-2 00 1 V00 ... : ... .. . ... ... : F-3 00 . ... : ... .. . ... : ... .. . ...
ROW D8 : ... .. . V01 ... : ... .. 1 ... ... : --- 00 . ... : B-# 00 2 ... : ... .. . ...
ROW D9 : F-3 00 8 V00 ... : C#5 00 3 ... ... : D-4 00 . ... : 4-# 00 9 ... : F-5 00 . ...
ROW DA : ... .. 5 V01 ... : ... .. . ... ... : C#4 00 . ... : 7-# 00 7 ... : ... .. . ...
ROW DB : ... .. . ... ... : ... .. . ... ... : B-3 00 . ... : ... .. 5 ... : ... .. . ...
ROW DC : G#2 00 . V00 ... : ... .. . ... ... : A-3 00 . ... : ... .. 4 ... : ... .. . ...
ROW DD : ... .. 3 V01 ... : B-4 00 2 ... ... : G#3 00 . ... : ... .. 3 ... : ... .. . ...
ROW DE : B-2 00 . V00 ... : ... .. . ... ... : F-3 00 . ... : ... .. . ... : ... .. . ...
ROW DF : ... .. . V01 ... : ... .. 1 ... ... : --- .. . ... : B-# 00 2 ... : ... .. . D00
ROW E0 : ... .. . ... ... : ... .. . ... ... : ... .. . ... : ... .. . ... : ... .. . ...
ROW E1 : ... .. . ... ... : ... .. . ... ... : ... .. . ... : ... .. . ... : ... .. . ...
ROW E2 : ... .. . ... ... : ... .. . ... ... : ... .. . ... : ... .. . ... : ... .. . ...
ROW E3 : ... .. . ... ... : ... .. . ... ... : ... .. . ... : ... .. . ... : ... .. . ...
ROW E4 : ... .. . ... ... : ... .. . ... ... : ... .. . ... : ... .. . ... : ... .. . ...
ROW E5 : ... .. . ... ... : ... .. . ... ... : ... .. . ... : ... .. . ... : ... .. . ...
ROW E6 : ... .. . ... ... : ... .. . ... ... : ... .. . ... : ... .. . ... : ... .. . ...
ROW E7 : ... .. . ... ... : ... .. . ... ... : ... .. . ... : ... .. . ... : ... .. . ...
ROW E8 : ... .. . ... ... : ... .. . ... ... : ... .. . ... : ... .. . ... : ... .. . ...
ROW E9 : ... .. . ... ... : ... .. . ... ... : ... .. . ... : ... .. . ... : ... .. . ...
ROW EA : ... .. . ... ... : ... .. . ... ... : ... .. . ... : ... .. . ... : ... .. . ...
ROW EB : ... .. . ... ... : ... .. . ... ... : ... .. . ... : ... .. . ... : ... .. . ...
ROW EC : ... .. . ... ... : ... .. . ... ... : ... .. . ... : ... .. . ... : ... .. . ...
ROW ED : ... .. . ... ... : ... .. . ... ... : ... .. . ... : ... .. . ... : ... .. . ...
ROW EE : ... .. . ... ... : ... .. . ... ... : ... .. . ... : ... .. . ... : ... .. . ...
ROW EF : ... .. . ... ... : ... .. . ... ... : ... .. . ... : ... .. . ... : ... .. . ...
ROW F0 : ... .. . ... ... : ... .. . ... ... : ... .. . ... : ... .. . ... : ... .. . ...
ROW F1 : ... .. . ... ... : ... .. . ... ... : ... .. . ... : ... .. . ... : ... .. . ...
ROW F2 : ... .. . ... ... : ... .. . ... ... : ... .. . ... : ... .. . ... : ... .. . ...
ROW F3 : ... .. . ... ... : ... .. . ... ... : ... .. . ... : ... .. . ... : ... .. . ...
ROW F4 : ... .. . ... ... : ... .. . ... ... : ... .. . ... : ... .. . ... : ... .. . ...
ROW F5 : ... .. . ... ... : ... .. . ... ... : ... .. . ... : ... .. . ... : ... .. . ...
ROW F6 : ... .. . ... ... : ... .. . ... ... : ... .. . ... : ... .. . ... : ... .. . ...
ROW F7 : ... .. . ... ... : ... .. . ... ... : ... .. . ... : ... .. . ... : ... .. . ...
ROW F8 : ... .. . ... ... : ... .. . ... ... : ... .. . ... : ... .. . ... : ... .. . ...
ROW F9 : ... .. . ... ... : ... .. . ... ... : ... .. . ... : ... .. . ... : ... .. . ...
ROW FA : ... .. . ... ... : ... .. . ... ... : ... .. . ... : ... .. . ... : ... .. . ...
ROW FB : ... .. . ... ... : ... .. . ... ... : ... .. . ... : ... .. . ... : ... .. . ...
ROW FC : ... .. . ... ... : ... .. . ... ... : ... .. . ... : ... .. . ... : ... .. . ...
ROW FD : ... .. . ... ... : ... .. . ... ... : ... .. . ... : ... .. . ... : ... .. . ...
ROW FE : ... .. . ... ... : ... .. . ... ... : ... .. . ... : ... .. . ... : ... .. . ...
ROW FF : ... .. . ... ... : ... .. . ... ... : ... .. . ... : ... .. . ... : ... .. . ...

PATTERN 0F
ROW 00 : ... .. 0 ... ... : F#5 00 3 V02 P80 : F#2 00 . ... : D-# 00 7 ... : C-5 00 . ...
ROW 01 : ... .. . ... ... : ... .. . ... ... : ... .. . ... : ... .. 5 ... : ... .. . ...
ROW 02 : ... .. . ... ... : ... .. . ... ... : ... .. . ... : ... .. . ... : ... .. . ...
ROW 03 : ... .. . ... ... : ... .. . ... ... : ... .. . ... : ... .. 3 ... : ... .. . ...
ROW 04 : ... .. . ... ... : C#5 00 2 ... ... : ... .. . ... : ... .. . ... : ... .. . ...
ROW 05 : ... .. . ... ... : ... .. . ... ... : ... .. . ... : ... .. . ... : ... .. . ...
ROW 06 : ... .. . ... ... : ... .. 1 ... ... : ... .. . ... : ... .. 2 ... : ... .. . ...
ROW 07 : ... .. . ... ... : E-5 00 3 ... ... : ... .. . ... : ... .. 1 ... : ... .. . ...
ROW 08 : ... .. . ... ... : ... .. . ... ... : ... .. . ... : ... .. 0 ... : ... .. . ...
ROW 09 : ... .. . ... ... : ... .. . ... ... : ... .. . ... : ... .. . ... : ... .. . ...
ROW 0A : ... .. . ... ... : ... .. . ... ... : ... .. . ... : ... .. . ... : ... .. . ...
ROW 0B : ... .. . ... ... : F#5 00 2 ... ... : ... .. . ... : ... .. . ... : ... .. . ...
ROW 0C : ... .. . ... ... : ... .. . ... ... : ... .. . ... : ... .. . ... : ... .. . ...
ROW 0D : ... .. . ... ... : ... .. 1 ... ... : ... .. . ... : ... .. . ... : ... .. . ...
ROW 0E : ... .. . ... ... : C#5 00 3 ... ... : ... .. . ... : E-# 00 5 ... : ... .. . ...
ROW 0F : ... .. . ... ... : ... .. . ... ... : ... .. . ... : ... .. . ... : ... .. . ...
ROW 10 : ... .. . ... ... : ... .. . ... ... : ... .. . ... : ... .. 4 ... : ... .. . ...
ROW 11 : ... .. . ... ... : ... .. . ... ... : ... .. . ... : ... .. . ... : ... .. . ...
ROW 12 : ... .. . ... ... : E-5 00 2 ... ... : ... .. . ... : ... .. 3 ... : ... .. . ...
ROW 13 : ... .. . ... ... : ... .. . ... ... : ... .. . ... : ... .. . ... : ... .. . ...
ROW 14 : ... .. . ... ... : ... .. 1 ... ... : ... .. . ... : ... .. 2 ... : ... .. . ...
ROW 15 : ... .. . ... ... : B-4 00 3 ... ... : --- .. . ... : E-# 00 5 ... : C-3 00 . ...
ROW 16 : ... .. . ... ... : ... .. . ... ... : ... .. . ... : ... .. . ... : ... .. . ...
ROW 17 : ... .. . ... ... : ... .. . ... ... : ... .. . ... : ... .. 4 ... : ... .. . ...
ROW 18 : ... .. . ... ... : ... .. . ... ... : ... .. . ... : ... .. . ... : ... .. . ...
ROW 19 : ... .. . ... ... : C#5 00 2 ... ... : ... .. . ... : ... .. 3 ... : ... .. . ...
ROW 1A : ... .. . ... ... : ... .. . ... ... : ... .. . ... : ... .. . ... : ... .. . ...
ROW 1B : ... .. . ... ... : ... .. 1 ... ... : ... .. . ... : ... .. 2 ... : ... .. . ...
ROW 1C : ... .. . ... ... : F#4 00 3 ... ... : F#2 00 . ... : 4-# 00 9 ... : F-5 00 . ...
ROW 1D : ... .. . ... ... : ... .. . ... ... : ... .. . ... : 7-# 00 7 ... : ... .. . ...
ROW 1E : ... .. . ... ... : ... .. . ... ... : ... .. . ... : ... .. 5 ... : ... .. . ...
ROW 1F : ... .. . ... ... : ... .. . ... ... : ... .. . ... : ... .. 4 ... : ... .. . ...
ROW 20 : ... .. . ... ... : B-4 00 2 ... ... : ... .. . ... : ... .. 3 ... : ... .. . ...
ROW 21 : ... .. . ... ... : ... .. . ... ... : ... .. . ... : ... .. . ... : ... .. . ...
ROW 22 : ... .. . ... ... : ... .. 1 ... ... : ... .. . ... : B-# 00 2 ... : ... .. . ...
ROW 23 : ... .. . ... ... : ... .. . ... ... : --- .. . ... : ... .. . ... : ... .. . ...
ROW 24 : ... .. . ... ... : ... .. . ... ... : ... .. . ... : D-# 00 . ... : ... .. . ...
ROW 25 : ... .. . ... ... : ... .. . ... ... : ... .. . ... : E-# 00 . ... : ... .. . ...
ROW 26 : ... .. . ... ... : ... .. . ... ... : ... .. . ... : ... .. 1 ... : ... .. . ...
ROW 27 : ... .. . ... ... : F#4 00 2 ... ... : ... .. . ... : ... .. 0 ... : ... .. . ...
ROW 28 : ... .. . ... ... : ... .. . ... ... : ... .. . ... : ... .. . ... : ... .. . ...
ROW 29 : ... .. . ... ... : ... .. 1 ... ... : ... .. . ... : ... .. . ... : ... .. . ...
ROW 2A : ... .. . ... ... : E-4 00 3 ... ... : ... .. . ... : E-# 00 5 ... : ... .. . ...
ROW 2B : ... .. . ... ... : ... .. . ... ... : ... .. . ... : ... .. . ... : ... .. . ...
ROW 2C : ... .. . ... ... : ... .. . ... ... : ... .. . ... : ... .. 4 ... : ... .. . ...
ROW 2D : ... .. . ... ... : ... .. . ... ... : ... .. . ... : ... .. . ... : ... .. . ...
ROW 2E : ... .. . ... ... : ... .. 2 ... ... : ... .. . ... : ... .. 3 ... : ... .. . ...
ROW 2F : ... .. . ... ... : ... .. . ... ... : ... .. . ... : ... .. . ... : ... .. . ...
ROW 30 : ... .. . ... ... : ... .. 1 ... ... : ... .. . ... : ... .. 2 ... : ... .. . ...
ROW 31 : ... .. . ... ... : F#4 00 3 ... ... : ... .. . ... : E-# 00 5 ... : C-3 00 . ...
ROW 32 : ... .. . ... ... : ... .. . ... ... : ... .. . ... : ... .. . ... : ... .. . ...
ROW 33 : ... .. . ... ... : ... .. . ... ... : ... .. . ... : ... .. 4 ... : ... .. . ...
ROW 34 : ... .. . ... ... : ... .. . ... ... : ... .. . ... : ... .. . ... : ... .. . ...
ROW 35 : ... .. . ... ... : E-4 00 2 ... ... : ... .. . ... : ... .. 3 ... : ... .. . ...
ROW 36 : ... .. . ... ... : ... .. . ... ... : ... .. . ... : ... .. . ... : ... .. . ...
ROW 37 : ... .. . ... ... : ... .. 1 ... ... : ... .. . ... : ... .. 2 ... : ... .. . ...
ROW 38 : ... .. . ... ... : F#4 00 3 ... ... : F#2 00 . ... : D-# 00 7 ... : C-5 00 . ...
ROW 39 : ... .. . ... ... : ... .. . ... ... : ... .. . ... : ... .. 5 ... : ... .. . ...
ROW 3A : ... .. . ... ... : ... .. . ... ... : ... .. . ... : ... .. . ... : ... .. . ...
ROW 3B : ... .. . ... ... : ... .. . ... ... : ... .. . ... : ... .. 3 ... : ... .. . ...
ROW 3C : ... .. . ... ... : F#4 00 2 ... ... : ... .. . ... : ... .. . ... : ... .. . ...
ROW 3D : ... .. . ... ... : ... .. . ... ... : ... .. . ... : ... .. . ... : ... .. . ...
ROW 3E : ... .. . ... ... : ... .. 1 ... ... : ... .. . ... : ... .. 2 ... : ... .. . ...
ROW 3F : ... .. . ... ... : E-4 00 3 ... ... : ... .. . ... : ... .. 1 ... : ... .. . ...
ROW 40 : ... .. . ... ... : ... .. . ... ... : ... .. . ... : ... .. 0 ... : ... .. . ...
ROW 41 : ... .. . ... ... : ... .. . ... ... : ... .. . ... : ... .. . ... : ... .. . ...
ROW 42 : ... .. . ... ... : ... .. . ... ... : ... .. . ... : ... .. . ... : ... .. . ...
ROW 43 : ... .. . ... ... : F#4 00 2 ... ... : ... .. . ... : ... .. . ... : ... .. . ...
ROW 44 : ... .. . ... ... : ... .. . ... ... : ... .. . ... : ... .. . ... : ... .. . ...
ROW 45 : ... .. . ... ... : ... .. 1 ... ... : ... .. . ... : ... .. . ... : ... .. . ...
ROW 46 : ... .. . ... ... : A-4 00 3 ... ... : ... .. . ... : E-# 00 5 ... : C-5 00 . ...
ROW 47 : ... .. . ... ... : ... .. . ... ... : ... .. . ... : ... .. . ... : ... .. . ...
ROW 48 : ... .. . ... ... : ... .. . ... ... : ... .. . ... : ... .. 4 ... : ... .. . ...
ROW 49 : ... .. . ... ... : ... .. . ... ... : ... .. . ... : ... .. . ... : ... .. . ...
ROW 4A : ... .. . ... ... : E-4 00 2 ... ... : ... .. . ... : ... .. 3 ... : ... .. . ...
ROW 4B : ... .. . ... ... : ... .. . ... ... : ... .. . ... : ... .. . ... : ... .. . ...
ROW 4C : ... .. . ... ... : ... .. 1 ... ... : ... .. . ... : ... .. 2 ... : ... .. . ...
ROW 4D : ... .. . ... ... : F#4 00 3 ... ... : --- .. . ... : E-# 00 5 ... : ... .. . ...
ROW 4E : ... .. . ... ... : ... .. . ... ... : ... .. . ... : ... .. . ... : ... .. . ...
ROW 4F : ... .. . ... ... : ... .. . ... ... : ... .. . ... : ... .. 4 ... : ... .. . ...
ROW 50 : ... .. . ... ... : ... .. . ... ... : ... .. . ... : ... .. . ... : ... .. . ...
ROW 51 : ... .. . ... ... : A-4 00 2 ... ... : ... .. . ... : ... .. 3 ... : ... .. . ...
ROW 52 : ... .. . ... ... : ... .. . ... ... : ... .. . ... : ... .. . ... : ... .. . ...
ROW 53 : ... .. . ... ... : ... .. 1 ... ... : ... .. . ... : ... .. 2 ... : ... .. . ...
ROW 54 : ... .. . ... ... : G#4 00 3 ... ... : F#2 00 . ... : 4-# 00 9 ... : F-5 00 . ...
ROW 55 : ... .. . ... ... : ... .. . ... ... : ... .. . ... : 7-# 00 7 ... : ... .. . ...
ROW 56 : ... .. . ... ... : ... .. . ... ... : ... .. . ... : ... .. 5 ... : ... .. . ...
ROW 57 : ... .. . ... ... : ... .. . ... ... : ... .. . ... : ... .. 4 ... : ... .. . ...
ROW 58 : ... .. . ... ... : F#4 00 2 ... ... : ... .. . ... : ... .. 3 ... : ... .. . ...
ROW 59 : ... .. . ... ... : ... .. . ... ... : ... .. . ... : ... .. . ... : ... .. . ...
ROW 5A : ... .. . ... ... : ... .. 1 ... ... : ... .. . ... : B-# 00 2 ... : ... .. . ...
ROW 5B : ... .. . ... ... : A-4 00 3 ... ... : --- .. . ... : ... .. . ... : ... .. . ...
ROW 5C : ... .. . ... ... : ... .. . ... ... : ... .. . ... : D-# 00 . ... : ... .. . ...
ROW 5D : ... .. . ... ... : ... .. . ... ... : ... .. . ... : E-# 00 . ... : ... .. . ...
ROW 5E : ... .. . ... ... : ... .. . ... ... : ... .. . ... : ... .. 1 ... : ... .. . ...
ROW 5F : ... .. . ... ... : G#4 00 2 ... ... : ... .. . ... : ... .. 0 ... : ... .. . ...
ROW 60 : ... .. . ... ... : ... .. . ... ... : ... .. . ... : ... .. . ... : ... .. . ...
ROW 61 : ... .. . ... ... : ... .. 1 ... ... : ... .. . ... : ... .. . ... : ... .. . ...
ROW 62 : ... .. . ... ... : B-4 00 3 ... ... : ... .. . ... : E-# 00 5 ... : ... .. . ...
ROW 63 : ... .. . ... ... : ... .. . ... ... : ... .. . ... : ... .. . ... : ... .. . ...
ROW 64 : ... .. . ... ... : ... .. . ... ... : ... .. . ... : ... .. 4 ... : ... .. . ...
ROW 65 : ... .. . ... ... : ... .. . ... ... : ... .. . ... : ... .. . ... : ... .. . ...
ROW 66 : ... .. . ... ... : A-4 00 2 ... ... : ... .. . ... : ... .. 3 ... : ... .. . ...
ROW 67 : ... .. . ... ... : ... .. . ... ... : ... .. . ... : ... .. . ... : ... .. . ...
ROW 68 : ... .. . ... ... : ... .. 1 ... ... : ... .. . ... : ... .. 2 ... : ... .. . ...
ROW 69 : ... .. . ... ... : C#5 00 3 ... ... : ... .. . ... : E-# 00 5 ... : ... .. . ...
ROW 6A : ... .. . ... ... : ... .. . ... ... : ... .. . ... : ... .. . ... : ... .. . ...
ROW 6B : ... .. . ... ... : ... .. . ... ... : ... .. . ... : ... .. 4 ... : ... .. . ...
ROW 6C : ... .. . ... ... : ... .. . ... ... : ... .. . ... : ... .. . ... : ... .. . ...
ROW 6D : ... .. . ... ... : B-4 00 2 ... ... : ... .. . ... : ... .. 3 ... : ... .. . ...
ROW 6E : ... .. . ... ... : ... .. . ... ... : ... .. . ... : ... .. . ... : ... .. . ...
ROW 6F : ... .. . ... ... : ... .. 1 ... ... : ... .. . ... : ... .. 2 ... : ... .. . ...
ROW 70 : ... .. . ... ... : F#5 00 3 ... ... : D-2 00 . ... : D-# 00 7 ... : C-5 00 . ...
ROW 71 : ... .. . ... ... : ... .. . ... ... : ... .. . ... : ... .. 5 ... : ... .. . ...
ROW 72 : ... .. . ... ... : ... .. . ... ... : ... .. . ... : ... .. . ... : ... .. . ...
ROW 73 : ... .. . ... ... : ... .. . ... ... : ... .. . ... : ... .. 3 ... : ... .. . ...
ROW 74 : ... .. . ... ... : C#5 00 2 ... ... : ... .. . ... : ... .. . ... : ... .. . ...
ROW 75 : ... .. . ... ... : ... .. . ... ... : ... .. . ... : ... .. . ... : ... .. . ...
ROW 76 : ... .. . ... ... : ... .. 1 ... ... : ... .. . ... : ... .. 2 ... : ... .. . ...
ROW 77 : ... .. . ... ... : E-5 00 3 ... ... : ... .. . ... : ... .. 1 ... : ... .. . ...
ROW 78 : ... .. . ... ... : ... .. . ... ... : ... .. . ... : ... .. 0 ... : ... .. . ...
ROW 79 : ... .. . ... ... : ... .. . ... ... : ... .. . ... : ... .. . ... : ... .. . ...
ROW 7A : ... .. . ... ... : ... .. . ... ... : ... .. . ... : ... .. . ... : ... .. . ...
ROW 7B : ... .. . ... ... : F#5 00 2 ... ... : ... .. . ... : ... .. . ... : ... .. . ...
ROW 7C : ... .. . ... ... : ... .. . ... ... : ... .. . ... : ... .. . ... : ... .. . ...
ROW 7D : ... .. . ... ... : ... .. 1 ... ... : ... .. . ... : ... .. . ... : ... .. . ...
ROW 7E : ... .. . ... ... : D-5 00 3 ... ... : ... .. . ... : E-# 00 5 ... : ... .. . ...
ROW 7F : ... .. . ... ... : ... .. . ... ... : ... .. . ... : ... .. . ... : ... .. . ...
ROW 80 : ... .. . ... ... : ... .. . ... ... : ... .. . ... : ... .. 4 ... : ... .. . ...
ROW 81 : ... .. . ... ... : ... .. . ... ... : ... .. . ... : ... .. . ... : ... .. . ...
ROW 82 : ... .. . ... ... : E-5 00 2 ... ... : ... .. . ... : ... .. 3 ... : ... .. . ...
ROW 83 : ... .. . ... ... : ... .. . ... ... : ... .. . ... : ... .. . ... : ... .. . ...
ROW 84 : ... .. . ... ... : ... .. 1 ... ... : ... .. . ... : ... .. 2 ... : ... .. . ...
ROW 85 : ... .. . ... ... : C#5 00 3 ... ... : --- .. . ... : E-# 00 5 ... : C-3 00 . ...
ROW 86 : ... .. . ... ... : ... .. . ... ... : ... .. . ... : ... .. . ... : ... .. . ...
ROW 87 : ... .. . ... ... : ... .. . ... ... : ... .. . ... : ... .. 4 ... : ... .. . ...
ROW 88 : ... .. . ... ... : ... .. . ... ... : ... .. . ... : ... .. . ... : ... .. . ...
ROW 89 : ... .. . ... ... : D-5 00 2 ... ... : ... .. . ... : ... .. 3 ... : ... .. . ...
ROW 8A : ... .. . ... ... : ... .. . ... ... : ... .. . ... : ... .. . ... : ... .. . ...
ROW 8B : ... .. . ... ... : ... .. 1 ... ... : ... .. . ... : ... .. 2 ... : ... .. . ...
ROW 8C : ... .. . ... ... : A-4 00 3 ... ... : D-2 00 . ... : 4-# 00 9 ... : F-5 00 . ...
ROW 8D : ... .. . ... ... : ... .. . ... ... : ... .. . ... : 7-# 00 7 ... : ... .. . ...
ROW 8E : ... .. . ... ... : ... .. . ... ... : ... .. . ... : ... .. 5 ... : ... .. . ...
ROW 8F : ... .. . ... ... : ... .. . ... ... : ... .. . ... : ... .. 4 ... : ... .. . ...
ROW 90 : ... .. . ... ... : C#5 00 2 ... ... : ... .. . ... : ... .. 3 ... : ... .. . ...
ROW 91 : ... .. . ... ... : ... .. . ... ... : ... .. . ... : ... .. . ... : ... .. . ...
ROW 92 : ... .. . ... ... : ... .. 1 ... ... : ... .. . ... : B-# 00 2 ... : ... .. . ...
ROW 93 : ... .. . ... ... : ... .. . ... ... : --- .. . ... : ... .. . ... : ... .. . ...
ROW 94 : ... .. . ... ... : ... .. . ... ... : ... .. . ... : D-# 00 . ... : ... .. . ...
ROW 95 : ... .. . ... ... : ... .. . ... ... : ... .. . ... : E-# 00 . ... : ... .. . ...
ROW 96 : ... .. . ... ... : ... .. . ... ... : ... .. . ... : ... .. 1 ... : ... .. . ...
ROW 97 : ... .. . ... ... : A-4 00 2 ... ... : ... .. . ... : ... .. 0 ... : ... .. . ...
ROW 98 : ... .. . ... ... : ... .. . ... ... : ... .. . ... : ... .. . ... : ... .. . ...
ROW 99 : ... .. . ... ... : ... .. 1 ... ... : ... .. . ... : ... .. . ... : ... .. . ...
ROW 9A : ... .. . ... ... : G#4 00 3 ... ... : ... .. . ... : E-# 00 5 ... : ... .. . ...
ROW 9B : ... .. . ... ... : ... .. . ... ... : ... .. . ... : ... .. . ... : ... .. . ...
ROW 9C : ... .. . ... ... : ... .. . ... ... : ... .. . ... : ... .. 4 ... : ... .. . ...
ROW 9D : ... .. . ... ... : ... .. . ... ... : ... .. . ... : ... .. . ... : ... .. . ...
ROW 9E : ... .. . ... ... : ... .. 2 ... ... : ... .. . ... : ... .. 3 ... : ... .. . ...
ROW 9F : ... .. . ... ... : ... .. . ... ... : ... .. . ... : ... .. . ... : ... .. . ...
ROW A0 : ... .. . ... ... : ... .. 1 ... ... : ... .. . ... : ... .. 2 ... : ... .. . ...
ROW A1 : ... .. . ... ... : A-4 00 3 ... ... : ... .. . ... : E-# 00 5 ... : C-3 00 . ...
ROW A2 : ... .. . ... ... : ... .. . ... ... : ... .. . ... : ... .. . ... : ... .. . ...
ROW A3 : ... .. . ... ... : ... .. . ... ... : ... .. . ... : ... .. 4 ... : ... .. . ...
ROW A4 : ... .. . ... ... : ... .. . ... ... : ... .. . ... : ... .. . ... : ... .. . ...
ROW A5 : ... .. . ... ... : G#4 00 2 ... ... : ... .. . ... : ... .. 3 ... : ... .. . ...
ROW A6 : ... .. . ... ... : ... .. . ... ... : ... .. . ... : ... .. . ... : ... .. . ...
ROW A7 : ... .. . ... ... : ... .. 1 ... ... : ... .. . ... : ... .. 2 ... : ... .. . ...
ROW A8 : ... .. . ... ... : A-4 00 3 ... ... : D-2 00 . ... : D-# 00 7 ... : C-5 00 . ...
ROW A9 : ... .. . ... ... : ... .. . ... ... : ... .. . ... : ... .. 5 ... : ... .. . ...
ROW AA : ... .. . ... ... : ... .. . ... ... : ... .. . ... : ... .. . ... : ... .. . ...
ROW AB : ... .. . ... ... : ... .. . ... ... : ... .. . ... : ... .. 3 ... : ... .. . ...
ROW AC : ... .. . ... ... : A-4 00 2 ... ... : ... .. . ... : ... .. . ... : ... .. . ...
ROW AD : ... .. . ... ... : ... .. . ... ... : ... .. . ... : ... .. . ... : ... .. . ...
ROW AE : ... .. . ... ... : ... .. 1 ... ... : ... .. . ... : ... .. 2 ... : ... .. . ...
ROW AF : ... .. . ... ... : G#4 00 3 ... ... : ... .. . ... : ... .. 1 ... : ... .. . ...
ROW B0 : ... .. . ... ... : ... .. . ... ... : ... .. . ... : ... .. 0 ... : ... .. . ...
ROW B1 : ... .. . ... ... : ... .. . ... ... : ... .. . ... : ... .. . ... : ... .. . ...
ROW B2 : ... .. . ... ... : ... .. . ... ... : ... .. . ... : ... .. . ... : ... .. . ...
ROW B3 : ... .. . ... ... : A-4 00 2 ... ... : ... .. . ... : ... .. . ... : ... .. . ...
ROW B4 : ... .. . ... ... : ... .. . ... ... : ... .. . ... : ... .. . ... : ... .. . ...
ROW B5 : ... .. . ... ... : ... .. 1 ... ... : ... .. . ... : ... .. . ... : ... .. . ...
ROW B6 : ... .. . ... ... : C#5 00 3 ... ... : ... .. . ... : E-# 00 5 ... : C-5 00 . ...
ROW B7 : ... .. . ... ... : ... .. . ... ... : ... .. . ... : ... .. . ... : ... .. . ...
ROW B8 : ... .. . ... ... : ... .. . ... ... : ... .. . ... : ... .. 4 ... : ... .. . ...
ROW B9 : ... .. . ... ... : ... .. . ... ... : ... .. . ... : ... .. . ... : ... .. . ...
ROW BA : ... .. . ... ... : G#4 00 2 ... ... : ... .. . ... : ... .. 3 ... : ... .. . ...
ROW BB : ... .. . ... ... : ... .. . ... ... : ... .. . ... : ... .. . ... : ... .. . ...
ROW BC : ... .. . ... ... : ... .. 1 ... ... : ... .. . ... : ... .. 2 ... : ... .. . ...
ROW BD : ... .. . ... ... : A-4 00 3 ... ... : --- .. . ... : E-# 00 5 ... : ... .. . ...
ROW BE : ... .. . ... ... : ... .. . ... ... : ... .. . ... : ... .. . ... : ... .. . ...
ROW BF : ... .. . ... ... : ... .. . ... ... : ... .. . ... : ... .. 4 ... : ... .. . ...
ROW C0 : ... .. . ... ... : ... .. . ... ... : ... .. . ... : ... .. . ... : ... .. . ...
ROW C1 : ... .. . ... ... : C#5 00 2 ... ... : ... .. . ... : ... .. 3 ... : ... .. . ...
ROW C2 : ... .. . ... ... : ... .. . ... ... : ... .. . ... : ... .. . ... : ... .. . ...
ROW C3 : ... .. . ... ... : ... .. 1 ... ... : ... .. . ... : ... .. 2 ... : ... .. . ...
ROW C4 : ... .. . ... ... : E-5 00 3 ... ... : D-2 00 . ... : 4-# 00 9 ... : F-5 00 . ...
ROW C5 : ... .. . ... ... : ... .. . ... ... : ... .. . ... : 7-# 00 7 ... : ... .. . ...
ROW C6 : ... .. . ... ... : ... .. . ... ... : ... .. . ... : ... .. 5 ... : ... .. . ...
ROW C7 : ... .. . ... ... : ... .. . ... ... : ... .. . ... : ... .. 4 ... : ... .. . ...
ROW C8 : ... .. . ... ... : A-4 00 2 ... ... : ... .. . ... : ... .. 3 ... : ... .. . ...
ROW C9 : ... .. . ... ... : ... .. . ... ... : ... .. . ... : ... .. . ... : ... .. . ...
ROW CA : ... .. . ... ... : ... .. 1 ... ... : ... .. . ... : B-# 00 2 ... : ... .. . ...
ROW CB : ... .. . ... ... : B-4 00 3 ... ... : --- .. . ... : 4-# 00 9 ... : F-5 00 . ...
ROW CC : ... .. . ... ... : ... .. . ... ... : ... .. . ... : 7-# 00 7 ... : ... .. . ...
ROW CD : ... .. . ... ... : ... .. . ... ... : ... .. . ... : ... .. 5 ... : ... .. . ...
ROW CE : ... .. . ... ... : ... .. . ... ... : ... .. . ... : 4-# 00 9 ... : ... .. . ...
ROW CF : ... .. . ... ... : E-5 00 2 ... ... : ... .. . ... : 7-# 00 7 ... : ... .. . ...
ROW D0 : ... .. . ... ... : ... .. . ... ... : ... .. . ... : ... .. 5 ... : ... .. . ...
ROW D1 : ... .. . ... ... : ... .. 1 ... ... : ... .. . ... : ... .. 4 ... : ... .. . ...
ROW D2 : ... .. . ... ... : C#5 00 3 ... ... : ... .. . ... : 4-# 00 9 ... : F-5 00 . ...
ROW D3 : ... .. . ... ... : ... .. . ... ... : ... .. . ... : 7-# 00 7 ... : ... .. . ...
ROW D4 : ... .. . ... ... : ... .. . ... ... : ... .. . ... : ... .. 5 ... : ... .. . ...
ROW D5 : ... .. . ... ... : ... .. . ... ... : ... .. . ... : ... .. 4 ... : ... .. . ...
ROW D6 : ... .. . ... ... : B-4 00 2 ... ... : ... .. . ... : ... .. 3 ... : ... .. . ...
ROW D7 : ... .. . ... ... : ... .. . ... ... : ... .. . ... : ... .. . ... : ... .. . ...
ROW D8 : ... .. . ... ... : ... .. 1 ... ... : ... .. . ... : B-# 00 2 ... : ... .. . ...
ROW D9 : ... .. . ... ... : D-5 00 3 ... ... : ... .. . ... : 4-# 00 9 ... : F-5 00 . ...
ROW DA : ... .. . ... ... : ... .. . ... ... : ... .. . ... : 7-# 00 7 ... : ... .. . ...
ROW DB : ... .. . ... ... : ... .. . ... ... : ... .. . ... : ... .. 5 ... : ... .. . ...
ROW DC : ... .. . ... ... : ... .. . ... ... : ... .. . ... : ... .. 4 ... : ... .. . ...
ROW DD : ... .. . ... ... : C#5 00 2 ... ... : ... .. . ... : ... .. 3 ... : ... .. . ...
ROW DE : ... .. . ... ... : ... .. . ... ... : ... .. . ... : ... .. . ... : ... .. . ...
ROW DF : ... .. . ... ... : ... .. 1 ... ... : ... .. . ... : B-# 00 2 ... : ... .. . D00
ROW E0 : ... .. . ... ... : ... .. . ... ... : ... .. . ... : ... .. . ... : ... .. . ...
ROW E1 : ... .. . ... ... : ... .. . ... ... : ... .. . ... : ... .. . ... : ... .. . ...
ROW E2 : ... .. . ... ... : ... .. . ... ... : ... .. . ... : ... .. . ... : ... .. . ...
ROW E3 : ... .. . ... ... : ... .. . ... ... : ... .. . ... : ... .. . ... : ... .. . ...
ROW E4 : ... .. . ... ... : ... .. . ... ... : ... .. . ... : ... .. . ... : ... .. . ...
ROW E5 : ... .. . ... ... : ... .. . ... ... : ... .. . ... : ... .. . ... : ... .. . ...
ROW E6 : ... .. . ... ... : ... .. . ... ... : ... .. . ... : ... .. . ... : ... .. . ...
ROW E7 : ... .. . ... ... : ... .. . ... ... : ... .. . ... : ... .. . ... : ... .. . ...
ROW E8 : ... .. . ... ... : ... .. . ... ... : ... .. . ... : ... .. . ... : ... .. . ...
ROW E9 : ... .. . ... ... : ... .. . ... ... : ... .. . ... : ... .. . ... : ... .. . ...
ROW EA : ... .. . ... ... : ... .. . ... ... : ... .. . ... : ... .. . ... : ... .. . ...
ROW EB : ... .. . ... ... : ... .. . ... ... : ... .. . ... : ... .. . ... : ... .. . ...
ROW EC : ... .. . ... ... : ... .. . ... ... : ... .. . ... : ... .. . ... : ... .. . ...
ROW ED : ... .. . ... ... : ... .. . ... ... : ... .. . ... : ... .. . ... : ... .. . ...
ROW EE : ... .. . ... ... : ... .. . ... ... : ... .. . ... : ... .. . ... : ... .. . ...
ROW EF : ... .. . ... ... : ... .. . ... ... : ... .. . ... : ... .. . ... : ... .. . ...
ROW F0 : ... .. . ... ... : ... .. . ... ... : ... .. . ... : ... .. . ... : ... .. . ...
ROW F1 : ... .. . ... ... : ... .. . ... ... : ... .. . ... : ... .. . ... : ... .. . ...
ROW F2 : ... .. . ... ... : ... .. . ... ... : ... .. . ... : ... .. . ... : ... .. . ...
ROW F3 : ... .. . ... ... : ... .. . ... ... : ... .. . ... : ... .. . ... : ... .. . ...
ROW F4 : ... .. . ... ... : ... .. . ... ... : ... .. . ... : ... .. . ... : ... .. . ...
ROW F5 : ... .. . ... ... : ... .. . ... ... : ... .. . ... : ... .. . ... : ... .. . ...
ROW F6 : ... .. . ... ... : ... .. . ... ... : ... .. . ... : ... .. . ... : ... .. . ...
ROW F7 : ... .. . ... ... : ... .. . ... ... : ... .. . ... : ... .. . ... : ... .. . ...
ROW F8 : ... .. . ... ... : ... .. . ... ... : ... .. . ... : ... .. . ... : ... .. . ...
ROW F9 : ... .. . ... ... : ... .. . ... ... : ... .. . ... : ... .. . ... : ... .. . ...
ROW FA : ... .. . ... ... : ... .. . ... ... : ... .. . ... : ... .. . ... : ... .. . ...
ROW FB : ... .. . ... ... : ... .. . ... ... : ... .. . ... : ... .. . ... : ... .. . ...
ROW FC : ... .. . ... ... : ... .. . ... ... : ... .. . ... : ... .. . ... : ... .. . ...
ROW FD : ... .. . ... ... : ... .. . ... ... : ... .. . ... : ... .. . ... : ... .. . ...
ROW FE : ... .. . ... ... : ... .. . ... ... : ... .. . ... : ... .. . ... : ... .. . ...
ROW FF : ... .. . ... ... : ... .. . ... ... : ... .. . ... : ... .. . ... : ... .. . ...

PATTERN 10
ROW 00 : ... .. . ... ... : F#2 00 4 V01 P82 : E-2 00 . ... : D-# 00 7 ... : C-5 00 . ...
ROW 01 : ... .. . ... ... : ... .. . ... ... : ... .. . ... : ... .. 5 ... : ... .. . ...
ROW 02 : ... .. . ... ... : ... .. . V02 ... : ... .. . ... : ... .. . ... : ... .. . ...
ROW 03 : ... .. . ... ... : ... .. . ... ... : ... .. . ... : ... .. 3 ... : ... .. . ...
ROW 04 : ... .. . ... ... : ... .. . V01 ... : ... .. . ... : ... .. . ... : ... .. . ...
ROW 05 : ... .. . ... ... : ... .. . ... ... : ... .. . ... : ... .. . ... : ... .. . ...
ROW 06 : ... .. . ... ... : ... .. . V02 ... : ... .. . ... : ... .. 2 ... : ... .. . ...
ROW 07 : ... .. . ... ... : ... .. . ... ... : ... .. . ... : ... .. 1 ... : ... .. . ...
ROW 08 : ... .. . ... ... : ... .. . V01 ... : ... .. . ... : ... .. 0 ... : ... .. . ...
ROW 09 : ... .. . ... ... : ... .. . ... ... : ... .. . ... : ... .. . ... : ... .. . ...
ROW 0A : ... .. . ... ... : ... .. . V02 ... : ... .. . ... : ... .. . ... : ... .. . ...
ROW 0B : ... .. . ... ... : ... .. . ... ... : ... .. . ... : ... .. . ... : ... .. . ...
ROW 0C : ... .. . ... ... : ... .. . V01 ... : ... .. . ... : ... .. . ... : ... .. . ...
ROW 0D : ... .. . ... ... : ... .. . ... ... : ... .. . ... : ... .. . ... : ... .. . ...
ROW 0E : ... .. . ... ... : ... .. . V02 ... : ... .. . ... : E-# 00 5 ... : ... .. . ...
ROW 0F : ... .. . ... ... : ... .. . ... ... : ... .. . ... : ... .. . ... : ... .. . ...
ROW 10 : ... .. . ... ... : ... .. . V01 ... : ... .. . ... : ... .. 4 ... : ... .. . ...
ROW 11 : ... .. . ... ... : ... .. . ... ... : ... .. . ... : ... .. . ... : ... .. . ...
ROW 12 : ... .. . ... ... : ... .. . V02 ... : ... .. . ... : ... .. 3 ... : ... .. . ...
ROW 13 : ... .. . ... ... : ... .. . ... ... : ... .. . ... : ... .. . ... : ... .. . ...
ROW 14 : ... .. . ... ... : ... .. . V01 ... : ... .. . ... : ... .. 2 ... : ... .. . ...
ROW 15 : ... .. . ... ... : ... .. . ... ... : --- .. . ... : E-# 00 5 ... : ... .. . ...
ROW 16 : ... .. . ... ... : ... .. . V02 ... : ... .. . ... : ... .. . ... : ... .. . ...
ROW 17 : ... .. . ... ... : ... .. . ... ... : ... .. . ... : ... .. 4 ... : ... .. . ...
ROW 18 : ... .. . ... ... : ... .. . V01 ... : ... .. . ... : ... .. . ... : ... .. . ...
ROW 19 : ... .. . ... ... : ... .. . ... ... : ... .. . ... : ... .. 3 ... : ... .. . ...
ROW 1A : ... .. . ... ... : ... .. . V02 ... : ... .. . ... : ... .. . ... : ... .. . ...
ROW 1B : ... .. . ... ... : ... .. . ... ... : ... .. . ... : ... .. 2 ... : ... .. . ...
ROW 1C : ... .. . ... ... : ... .. 3 V01 ... : E-2 00 . ... : 4-# 00 9 ... : ... .. . ...
ROW 1D : ... .. . ... ... : ... .. . ... ... : ... .. . ... : 7-# 00 7 ... : ... .. . ...
ROW 1E : ... .. . ... ... : ... .. . V02 ... : ... .. . ... : ... .. 5 ... : ... .. . ...
ROW 1F : ... .. . ... ... : ... .. . ... ... : ... .. . ... : ... .. 4 ... : ... .. . ...
ROW 20 : ... .. . ... ... : ... .. . V01 ... : ... .. . ... : ... .. 3 ... : ... .. . ...
ROW 21 : ... .. . ... ... : ... .. . ... ... : ... .. . ... : ... .. . ... : ... .. . ...
ROW 22 : ... .. . ... ... : ... .. . V02 ... : ... .. . ... : B-# 00 2 ... : ... .. . ...
ROW 23 : ... .. . ... ... : ... .. . ... ... : --- .. . ... : ... .. . ... : ... .. . ...
ROW 24 : ... .. . ... ... : ... .. . V01 ... : ... .. . ... : D-# 00 . ... : ... .. . ...
ROW 25 : ... .. . ... ... : ... .. . ... ... : ... .. . ... : E-# 00 . ... : ... .. . ...
ROW 26 : ... .. . ... ... : ... .. . V02 ... : ... .. . ... : ... .. 1 ... : ... .. . ...
ROW 27 : ... .. . ... ... : ... .. . ... ... : ... .. . ... : ... .. 0 ... : ... .. . ...
ROW 28 : ... .. . ... ... : ... .. . V01 ... : ... .. . ... : ... .. . ... : ... .. . ...
ROW 29 : ... .. . ... ... : ... .. . ... ... : ... .. . ... : ... .. . ... : ... .. . ...
ROW 2A : ... .. . ... ... : ... .. . V02 ... : ... .. . ... : E-# 00 5 ... : C-5 00 . ...
ROW 2B : ... .. . ... ... : ... .. . ... ... : ... .. . ... : ... .. . ... : ... .. . ...
ROW 2C : ... .. . ... ... : ... .. . V01 ... : ... .. . ... : ... .. 4 ... : ... .. . ...
ROW 2D : ... .. . ... ... : ... .. . ... ... : ... .. . ... : ... .. . ... : ... .. . ...
ROW 2E : ... .. . ... ... : ... .. . V02 ... : ... .. . ... : ... .. 3 ... : ... .. . ...
ROW 2F : ... .. . ... ... : ... .. . ... ... : ... .. . ... : ... .. . ... : ... .. . ...
ROW 30 : ... .. . ... ... : ... .. . V01 ... : ... .. . ... : ... .. 2 ... : ... .. . ...
ROW 31 : ... .. . ... ... : ... .. . ... ... : ... .. . ... : E-# 00 5 ... : ... .. . ...
ROW 32 : ... .. . ... ... : ... .. . V02 ... : ... .. . ... : ... .. . ... : ... .. . ...
ROW 33 : ... .. . ... ... : ... .. . ... ... : ... .. . ... : ... .. 4 ... : ... .. . ...
ROW 34 : ... .. . ... ... : ... .. . V01 ... : ... .. . ... : ... .. . ... : ... .. . ...
ROW 35 : ... .. . ... ... : ... .. . ... ... : ... .. . ... : ... .. 3 ... : ... .. . ...
ROW 36 : ... .. . ... ... : ... .. . V02 ... : ... .. . ... : ... .. . ... : ... .. . ...
ROW 37 : ... .. . ... ... : ... .. . ... ... : ... .. . ... : ... .. 2 ... : ... .. . ...
ROW 38 : ... .. . ... ... : ... .. 2 V01 ... : E-2 00 . ... : D-# 00 7 ... : C-5 00 . ...
ROW 39 : ... .. . ... ... : ... .. . ... ... : ... .. . ... : ... .. 5 ... : ... .. . ...
ROW 3A : ... .. . ... ... : ... .. . V02 ... : ... .. . ... : ... .. . ... : ... .. . ...
ROW 3B : ... .. . ... ... : ... .. . ... ... : ... .. . ... : ... .. 3 ... : ... .. . ...
ROW 3C : ... .. . ... ... : ... .. . V01 ... : ... .. . ... : ... .. . ... : ... .. . ...
ROW 3D : ... .. . ... ... : ... .. . ... ... : ... .. . ... : ... .. . ... : ... .. . ...
ROW 3E : ... .. . ... ... : ... .. . V02 ... : ... .. . ... : ... .. 2 ... : ... .. . ...
ROW 3F : ... .. . ... ... : ... .. . ... ... : ... .. . ... : ... .. 1 ... : ... .. . ...
ROW 40 : ... .. . ... ... : ... .. . V01 ... : ... .. . ... : ... .. 0 ... : ... .. . ...
ROW 41 : ... .. . ... ... : ... .. . ... ... : ... .. . ... : ... .. . ... : ... .. . ...
ROW 42 : ... .. . ... ... : ... .. . V02 ... : ... .. . ... : ... .. . ... : ... .. . ...
ROW 43 : ... .. . ... ... : ... .. . ... ... : ... .. . ... : ... .. . ... : ... .. . ...
ROW 44 : ... .. . ... ... : ... .. . V01 ... : ... .. . ... : ... .. . ... : ... .. . ...
ROW 45 : ... .. . ... ... : ... .. . ... ... : ... .. . ... : ... .. . ... : ... .. . ...
ROW 46 : ... .. . ... ... : ... .. . V02 ... : ... .. . ... : E-# 00 5 ... : ... .. . ...
ROW 47 : ... .. . ... ... : ... .. . ... ... : ... .. . ... : ... .. . ... : ... .. . ...
ROW 48 : ... .. . ... ... : ... .. . V01 ... : ... .. . ... : ... .. 4 ... : ... .. . ...
ROW 49 : ... .. . ... ... : ... .. . ... ... : ... .. . ... : ... .. . ... : ... .. . ...
ROW 4A : ... .. . ... ... : ... .. . V02 ... : ... .. . ... : ... .. 3 ... : ... .. . ...
ROW 4B : ... .. . ... ... : ... .. . ... ... : ... .. . ... : ... .. . ... : ... .. . ...
ROW 4C : ... .. . ... ... : ... .. . V01 ... : ... .. . ... : ... .. 2 ... : ... .. . ...
ROW 4D : ... .. . ... ... : ... .. . ... ... : --- .. . ... : E-# 00 5 ... : ... .. . ...
ROW 4E : ... .. . ... ... : ... .. . V02 ... : ... .. . ... : ... .. . ... : ... .. . ...
ROW 4F : ... .. . ... ... : ... .. . ... ... : ... .. . ... : ... .. 4 ... : ... .. . ...
ROW 50 : ... .. . ... ... : ... .. . V01 ... : ... .. . ... : ... .. . ... : ... .. . ...
ROW 51 : ... .. . ... ... : ... .. . ... ... : ... .. . ... : ... .. 3 ... : ... .. . ...
ROW 52 : ... .. . ... ... : ... .. . V02 ... : ... .. . ... : ... .. . ... : ... .. . ...
ROW 53 : ... .. . ... ... : ... .. . ... ... : ... .. . ... : ... .. 2 ... : ... .. . ...
ROW 54 : ... .. . ... ... : D-3 00 4 V01 ... : E-2 00 . ... : 4-# 00 9 ... : ... .. . ...
ROW 55 : ... .. . ... ... : ... .. . ... ... : ... .. . ... : 7-# 00 7 ... : ... .. . ...
ROW 56 : ... .. . ... ... : ... .. . V02 ... : ... .. . ... : ... .. 5 ... : ... .. . ...
ROW 57 : ... .. . ... ... : ... .. . ... ... : ... .. . ... : ... .. 4 ... : ... .. . ...
ROW 58 : ... .. . ... ... : ... .. . V01 ... : ... .. . ... : ... .. 3 ... : ... .. . ...
ROW 59 : ... .. . ... ... : ... .. . ... ... : ... .. . ... : ... .. . ... : ... .. . ...
ROW 5A : ... .. . ... ... : ... .. . V02 ... : ... .. . ... : B-# 00 2 ... : ... .. . ...
ROW 5B : ... .. . ... ... : ... .. . ... ... : --- .. . ... : ... .. . ... : ... .. . ...
ROW 5C : ... .. . ... ... : ... .. . V01 ... : ... .. . ... : D-# 00 . ... : ... .. . ...
ROW 5D : ... .. . ... ... : ... .. . ... ... : ... .. . ... : E-# 00 . ... : ... .. . ...
ROW 5E : ... .. . ... ... : ... .. . V02 ... : ... .. . ... : ... .. 1 ... : ... .. . ...
ROW 5F : ... .. . ... ... : ... .. . ... ... : ... .. . ... : ... .. 0 ... : ... .. . ...
ROW 60 : ... .. . ... ... : ... .. . V01 ... : ... .. . ... : ... .. . ... : ... .. . ...
ROW 61 : ... .. . ... ... : ... .. . ... ... : ... .. . ... : ... .. . ... : ... .. . ...
ROW 62 : ... .. . ... ... : ... .. . V02 ... : ... .. . ... : E-# 00 5 ... : ... .. . ...
ROW 63 : ... .. . ... ... : ... .. . ... ... : ... .. . ... : ... .. . ... : ... .. . ...
ROW 64 : ... .. . ... ... : ... .. . V01 ... : ... .. . ... : ... .. 4 ... : ... .. . ...
ROW 65 : ... .. . ... ... : ... .. . ... ... : ... .. . ... : ... .. . ... : ... .. . ...
ROW 66 : ... .. . ... ... : ... .. . V02 ... : ... .. . ... : ... .. 3 ... : ... .. . ...
ROW 67 : ... .. . ... ... : ... .. . ... ... : ... .. . ... : ... .. . ... : ... .. . ...
ROW 68 : ... .. . ... ... : ... .. . V01 ... : ... .. . ... : ... .. 2 ... : ... .. . ...
ROW 69 : ... .. . ... ... : ... .. . ... ... : ... .. . ... : E-# 00 5 ... : ... .. . ...
ROW 6A : ... .. . ... ... : ... .. . V02 ... : ... .. . ... : ... .. . ... : ... .. . ...
ROW 6B : ... .. . ... ... : ... .. . ... ... : ... .. . ... : ... .. 4 ... : ... .. . ...
ROW 6C : ... .. . ... ... : ... .. . V01 ... : ... .. . ... : ... .. . ... : ... .. . ...
ROW 6D : ... .. . ... ... : ... .. . ... ... : ... .. . ... : ... .. 3 ... : ... .. . ...
ROW 6E : ... .. . ... ... : ... .. . V02 ... : ... .. . ... : ... .. . ... : ... .. . ...
ROW 6F : ... .. . ... ... : ... .. . ... ... : ... .. . ... : ... .. 2 ... : ... .. . ...
ROW 70 : ... .. . ... ... : C#3 00 . V01 ... : C#2 00 . ... : D-# 00 7 ... : C-5 00 . ...
ROW 71 : ... .. . ... ... : ... .. . ... ... : ... .. . ... : ... .. 5 ... : ... .. . ...
ROW 72 : ... .. . ... ... : ... .. . V02 ... : ... .. . ... : ... .. . ... : ... .. . ...
ROW 73 : ... .. . ... ... : ... .. . ... ... : ... .. . ... : ... .. 3 ... : ... .. . ...
ROW 74 : ... .. . ... ... : ... .. . V01 ... : ... .. . ... : ... .. . ... : ... .. . ...
ROW 75 : ... .. . ... ... : ... .. . ... ... : ... .. . ... : ... .. . ... : ... .. . ...
ROW 76 : ... .. . ... ... : ... .. . V02 ... : ... .. . ... : ... .. 2 ... : ... .. . ...
ROW 77 : ... .. . ... ... : ... .. . ... ... : ... .. . ... : ... .. 1 ... : ... .. . ...
ROW 78 : ... .. . ... ... : ... .. . V01 ... : ... .. . ... : ... .. 0 ... : ... .. . ...
ROW 79 : ... .. . ... ... : ... .. . ... ... : ... .. . ... : ... .. . ... : ... .. . ...
ROW 7A : ... .. . ... ... : ... .. . V02 ... : ... .. . ... : ... .. . ... : ... .. . ...
ROW 7B : ... .. . ... ... : ... .. . ... ... : ... .. . ... : ... .. . ... : ... .. . ...
ROW 7C : ... .. . ... ... : ... .. . V01 ... : ... .. . ... : ... .. . ... : ... .. . ...
ROW 7D : ... .. . ... ... : ... .. . ... ... : ... .. . ... : ... .. . ... : ... .. . ...
ROW 7E : ... .. . ... ... : ... .. . V02 ... : ... .. . ... : E-# 00 5 ... : ... .. . ...
ROW 7F : ... .. . ... ... : ... .. . ... ... : ... .. . ... : ... .. . ... : ... .. . ...
ROW 80 : ... .. . ... ... : ... .. . V01 ... : ... .. . ... : ... .. 4 ... : ... .. . ...
ROW 81 : ... .. . ... ... : ... .. . ... ... : ... .. . ... : ... .. . ... : ... .. . ...
ROW 82 : ... .. . ... ... : ... .. . V02 ... : ... .. . ... : ... .. 3 ... : ... .. . ...
ROW 83 : ... .. . ... ... : ... .. . ... ... : ... .. . ... : ... .. . ... : ... .. . ...
ROW 84 : ... .. . ... ... : ... .. . V01 ... : ... .. . ... : ... .. 2 ... : ... .. . ...
ROW 85 : ... .. . ... ... : ... .. . ... ... : --- .. . ... : E-# 00 5 ... : ... .. . ...
ROW 86 : ... .. . ... ... : ... .. . V02 ... : ... .. . ... : ... .. . ... : ... .. . ...
ROW 87 : ... .. . ... ... : ... .. . ... ... : ... .. . ... : ... .. 4 ... : ... .. . ...
ROW 88 : ... .. . ... ... : ... .. . V01 ... : ... .. . ... : ... .. . ... : ... .. . ...
ROW 89 : ... .. . ... ... : ... .. . ... ... : ... .. . ... : ... .. 3 ... : ... .. . ...
ROW 8A : ... .. . ... ... : ... .. . V02 ... : ... .. . ... : ... .. . ... : ... .. . ...
ROW 8B : ... .. . ... ... : ... .. . ... ... : ... .. . ... : ... .. 2 ... : ... .. . ...
ROW 8C : ... .. . ... ... : ... .. 3 V01 ... : C#2 00 . ... : 4-# 00 9 ... : ... .. . ...
ROW 8D : ... .. . ... ... : ... .. . ... ... : ... .. . ... : 7-# 00 7 ... : ... .. . ...
ROW 8E : ... .. . ... ... : ... .. . V02 ... : ... .. . ... : ... .. 5 ... : ... .. . ...
ROW 8F : ... .. . ... ... : ... .. . ... ... : ... .. . ... : ... .. 4 ... : ... .. . ...
ROW 90 : ... .. . ... ... : ... .. . V01 ... : ... .. . ... : ... .. 3 ... : ... .. . ...
ROW 91 : ... .. . ... ... : ... .. . ... ... : ... .. . ... : ... .. . ... : ... .. . ...
ROW 92 : ... .. . ... ... : ... .. . V02 ... : ... .. . ... : B-# 00 2 ... : ... .. . ...
ROW 93 : ... .. . ... ... : ... .. . ... ... : --- .. . ... : ... .. . ... : ... .. . ...
ROW 94 : ... .. . ... ... : ... .. . V01 ... : ... .. . ... : D-# 00 . ... : ... .. . ...
ROW 95 : ... .. . ... ... : ... .. . ... ... : ... .. . ... : E-# 00 . ... : ... .. . ...
ROW 96 : ... .. . ... ... : ... .. . V02 ... : ... .. . ... : ... .. 1 ... : ... .. . ...
ROW 97 : ... .. . ... ... : ... .. . ... ... : ... .. . ... : ... .. 0 ... : ... .. . ...
ROW 98 : ... .. . ... ... : ... .. . V01 ... : ... .. . ... : ... .. . ... : ... .. . ...
ROW 99 : ... .. . ... ... : ... .. . ... ... : ... .. . ... : ... .. . ... : ... .. . ...
ROW 9A : ... .. . ... ... : ... .. . V02 ... : ... .. . ... : E-# 00 5 ... : C-5 00 . ...
ROW 9B : ... .. . ... ... : ... .. . ... ... : ... .. . ... : ... .. . ... : ... .. . ...
ROW 9C : ... .. . ... ... : ... .. . V01 ... : ... .. . ... : ... .. 4 ... : ... .. . ...
ROW 9D : ... .. . ... ... : ... .. . ... ... : ... .. . ... : ... .. . ... : ... .. . ...
ROW 9E : ... .. . ... ... : ... .. . V02 ... : ... .. . ... : ... .. 3 ... : ... .. . ...
ROW 9F : ... .. . ... ... : ... .. . ... ... : ... .. . ... : ... .. . ... : ... .. . ...
ROW A0 : ... .. . ... ... : ... .. . V01 ... : ... .. . ... : ... .. 2 ... : ... .. . ...
ROW A1 : ... .. . ... ... : ... .. . ... ... : ... .. . ... : E-# 00 5 ... : ... .. . ...
ROW A2 : ... .. . ... ... : ... .. . V02 ... : ... .. . ... : ... .. . ... : ... .. . ...
ROW A3 : ... .. . ... ... : ... .. . ... ... : ... .. . ... : ... .. 4 ... : ... .. . ...
ROW A4 : ... .. . ... ... : ... .. . V01 ... : ... .. . ... : ... .. . ... : ... .. . ...
ROW A5 : ... .. . ... ... : ... .. . ... ... : ... .. . ... : ... .. 3 ... : ... .. . ...
ROW A6 : ... .. . ... ... : ... .. . V02 ... : ... .. . ... : ... .. . ... : ... .. . ...
ROW A7 : ... .. . ... ... : ... .. . ... ... : ... .. . ... : ... .. 2 ... : ... .. . ...
ROW A8 : ... .. . ... ... : A-2 00 4 V01 ... : C#2 00 . ... : D-# 00 7 ... : C-5 00 . ...
ROW A9 : ... .. . ... ... : ... .. . ... ... : ... .. . ... : ... .. 5 ... : ... .. . ...
ROW AA : ... .. . ... ... : ... .. . V02 ... : ... .. . ... : ... .. . ... : ... .. . ...
ROW AB : ... .. . ... ... : ... .. . ... ... : ... .. . ... : ... .. 3 ... : ... .. . ...
ROW AC : ... .. . ... ... : ... .. . V01 ... : ... .. . ... : ... .. . ... : ... .. . ...
ROW AD : ... .. . ... ... : ... .. . ... ... : ... .. . ... : ... .. . ... : ... .. . ...
ROW AE : ... .. . ... ... : ... .. . V02 ... : ... .. . ... : ... .. 2 ... : ... .. . ...
ROW AF : ... .. . ... ... : ... .. . ... ... : ... .. . ... : ... .. 1 ... : ... .. . ...
ROW B0 : ... .. . ... ... : ... .. . V01 ... : ... .. . ... : ... .. 0 ... : ... .. . ...
ROW B1 : ... .. . ... ... : ... .. . ... ... : ... .. . ... : ... .. . ... : ... .. . ...
ROW B2 : ... .. . ... ... : ... .. . V02 ... : ... .. . ... : ... .. . ... : ... .. . ...
ROW B3 : ... .. . ... ... : ... .. . ... ... : ... .. . ... : ... .. . ... : ... .. . ...
ROW B4 : ... .. . ... ... : ... .. . V01 ... : ... .. . ... : ... .. . ... : ... .. . ...
ROW B5 : ... .. . ... ... : ... .. . ... ... : ... .. . ... : ... .. . ... : ... .. . ...
ROW B6 : ... .. . ... ... : ... .. . V02 ... : ... .. . ... : E-# 00 5 ... : ... .. . ...
ROW B7 : ... .. . ... ... : ... .. . ... ... : ... .. . ... : ... .. . ... : ... .. . ...
ROW B8 : ... .. . ... ... : ... .. . V01 ... : ... .. . ... : ... .. 4 ... : ... .. . ...
ROW B9 : ... .. . ... ... : ... .. . ... ... : ... .. . ... : ... .. . ... : ... .. . ...
ROW BA : ... .. . ... ... : ... .. . V02 ... : ... .. . ... : ... .. 3 ... : ... .. . ...
ROW BB : ... .. . ... ... : ... .. . ... ... : ... .. . ... : ... .. . ... : ... .. . ...
ROW BC : ... .. . ... ... : ... .. . V01 ... : ... .. . ... : ... .. 2 ... : ... .. . ...
ROW BD : ... .. . ... ... : ... .. . ... ... : --- .. . ... : E-# 00 5 ... : ... .. . ...
ROW BE : ... .. . ... ... : ... .. . V02 ... : ... .. . ... : ... .. . ... : ... .. . ...
ROW BF : ... .. . ... ... : ... .. . ... ... : ... .. . ... : ... .. 4 ... : ... .. . ...
ROW C0 : ... .. . ... ... : ... .. . V01 ... : ... .. . ... : ... .. . ... : ... .. . ...
ROW C1 : ... .. . ... ... : ... .. . ... ... : ... .. . ... : ... .. 3 ... : ... .. . ...
ROW C2 : ... .. . ... ... : ... .. . V02 ... : ... .. . ... : ... .. . ... : ... .. . ...
ROW C3 : ... .. . ... ... : ... .. . ... ... : ... .. . ... : ... .. 2 ... : ... .. . ...
ROW C4 : ... .. . ... ... : ... .. 3 V01 ... : C#2 00 . ... : 4-# 00 9 ... : ... .. . ...
ROW C5 : ... .. . ... ... : ... .. . ... ... : ... .. . ... : 7-# 00 7 ... : ... .. . ...
ROW C6 : ... .. . ... ... : ... .. . V02 ... : ... .. . ... : ... .. 5 ... : ... .. . ...
ROW C7 : ... .. . ... ... : ... .. . ... ... : ... .. . ... : ... .. 4 ... : ... .. . ...
ROW C8 : ... .. . ... ... : ... .. . V01 ... : ... .. . ... : ... .. 3 ... : ... .. . ...
ROW C9 : ... .. . ... ... : ... .. . ... ... : ... .. . ... : ... .. . ... : ... .. . ...
ROW CA : ... .. . ... ... : ... .. . V02 ... : ... .. . ... : B-# 00 2 ... : ... .. . ...
ROW CB : ... .. . ... ... : ... .. . ... ... : --- .. . ... : 4-# 00 9 ... : ... .. . ...
ROW CC : ... .. . ... ... : ... .. . V01 ... : ... .. . ... : 7-# 00 7 ... : ... .. . ...
ROW CD : ... .. . ... ... : ... .. . ... ... : ... .. . ... : ... .. 5 ... : ... .. . ...
ROW CE : ... .. . ... ... : ... .. . V02 ... : ... .. . ... : ... .. 4 ... : ... .. . ...
ROW CF : ... .. . ... ... : ... .. . ... ... : ... .. . ... : ... .. 3 ... : ... .. . ...
ROW D0 : ... .. . ... ... : ... .. . V01 ... : ... .. . ... : ... .. . ... : ... .. . ...
ROW D1 : ... .. . ... ... : ... .. . ... ... : ... .. . ... : B-# 00 2 ... : ... .. . ...
ROW D2 : ... .. . ... ... : ... .. . V02 ... : ... .. . ... : 4-# 00 9 ... : ... .. . ...
ROW D3 : ... .. . ... ... : ... .. . ... ... : ... .. . ... : 7-# 00 7 ... : ... .. . ...
ROW D4 : ... .. . ... ... : ... .. . V01 ... : ... .. . ... : ... .. 5 ... : ... .. . ...
ROW D5 : ... .. . ... ... : ... .. . ... ... : ... .. . ... : ... .. 4 ... : ... .. . ...
ROW D6 : ... .. . ... ... : ... .. . V02 ... : ... .. . ... : ... .. 3 ... : ... .. . ...
ROW D7 : ... .. . ... ... : ... .. . ... ... : ... .. . ... : ... .. . ... : ... .. . ...
ROW D8 : ... .. . ... ... : ... .. . V01 ... : ... .. . ... : B-# 00 2 ... : ... .. . ...
ROW D9 : ... .. . ... ... : ... .. . ... ... : ... .. . ... : 4-# 00 9 ... : ... .. . ...
ROW DA : ... .. . ... ... : ... .. . V02 ... : ... .. . ... : 7-# 00 7 ... : ... .. . ...
ROW DB : ... .. . ... ... : ... .. . ... ... : ... .. . ... : ... .. 5 ... : ... .. . ...
ROW DC : ... .. . ... ... : ... .. . V01 ... : ... .. . ... : ... .. 4 ... : ... .. . ...
ROW DD : ... .. . ... ... : ... .. . ... ... : ... .. . ... : ... .. 3 ... : ... .. . ...
ROW DE : ... .. . ... ... : ... .. . V02 ... : ... .. . ... : ... .. . ... : ... .. . ...
ROW DF : ... .. . ... ... : ... .. . ... ... : ... .. . ... : B-# 00 2 ... : ... .. . D00
ROW E0 : ... .. . ... ... : ... .. . ... ... : ... .. . ... : ... .. . ... : ... .. . ...
ROW E1 : ... .. . ... ... : ... .. . ... ... : ... .. . ... : ... .. . ... : ... .. . ...
ROW E2 : ... .. . ... ... : ... .. . ... ... : ... .. . ... : ... .. . ... : ... .. . ...
ROW E3 : ... .. . ... ... : ... .. . ... ... : ... .. . ... : ... .. . ... : ... .. . ...
ROW E4 : ... .. . ... ... : ... .. . ... ... : ... .. . ... : ... .. . ... : ... .. . ...
ROW E5 : ... .. . ... ... : ... .. . ... ... : ... .. . ... : ... .. . ... : ... .. . ...
ROW E6 : ... .. . ... ... : ... .. . ... ... : ... .. . ... : ... .. . ... : ... .. . ...
ROW E7 : ... .. . ... ... : ... .. . ... ... : ... .. . ... : ... .. . ... : ... .. . ...
ROW E8 : ... .. . ... ... : ... .. . ... ... : ... .. . ... : ... .. . ... : ... .. . ...
ROW E9 : ... .. . ... ... : ... .. . ... ... : ... .. . ... : ... .. . ... : ... .. . ...
ROW EA : ... .. . ... ... : ... .. . ... ... : ... .. . ... : ... .. . ... : ... .. . ...
ROW EB : ... .. . ... ... : ... .. . ... ... : ... .. . ... : ... .. . ... : ... .. . ...
ROW EC : ... .. . ... ... : ... .. . ... ... : ... .. . ... : ... .. . ... : ... .. . ...
ROW ED : ... .. . ... ... : ... .. . ... ... : ... .. . ... : ... .. . ... : ... .. . ...
ROW EE : ... .. . ... ... : ... .. . ... ... : ... .. . ... : ... .. . ... : ... .. . ...
ROW EF : ... .. . ... ... : ... .. . ... ... : ... .. . ... : ... .. . ... : ... .. . ...
ROW F0 : ... .. . ... ... : ... .. . ... ... : ... .. . ... : ... .. . ... : ... .. . ...
ROW F1 : ... .. . ... ... : ... .. . ... ... : ... .. . ... : ... .. . ... : ... .. . ...
ROW F2 : ... .. . ... ... : ... .. . ... ... : ... .. . ... : ... .. . ... : ... .. . ...
ROW F3 : ... .. . ... ... : ... .. . ... ... : ... .. . ... : ... .. . ... : ... .. . ...
ROW F4 : ... .. . ... ... : ... .. . ... ... : ... .. . ... : ... .. . ... : ... .. . ...
ROW F5 : ... .. . ... ... : ... .. . ... ... : ... .. . ... : ... .. . ... : ... .. . ...
ROW F6 : ... .. . ... ... : ... .. . ... ... : ... .. . ... : ... .. . ... : ... .. . ...
ROW F7 : ... .. . ... ... : ... .. . ... ... : ... .. . ... : ... .. . ... : ... .. . ...
ROW F8 : ... .. . ... ... : ... .. . ... ... : ... .. . ... : ... .. . ... : ... .. . ...
ROW F9 : ... .. . ... ... : ... .. . ... ... : ... .. . ... : ... .. . ... : ... .. . ...
ROW FA : ... .. . ... ... : ... .. . ... ... : ... .. . ... : ... .. . ... : ... .. . ...
ROW FB : ... .. . ... ... : ... .. . ... ... : ... .. . ... : ... .. . ... : ... .. . ...
ROW FC : ... .. . ... ... : ... .. . ... ... : ... .. . ... : ... .. . ... : ... .. . ...
ROW FD : ... .. . ... ... : ... .. . ... ... : ... .. . ... : ... .. . ... : ... .. . ...
ROW FE : ... .. . ... ... : ... .. . ... ... : ... .. . ... : ... .. . ... : ... .. . ...
ROW FF : ... .. . ... ... : ... .. . ... ... : ... .. . ... : ... .. . ... : ... .. . ...

PATTERN 11
ROW 00 : ... .. . ... ... : G#2 00 4 V01 P82 : E-2 00 . ... : D-# 00 7 ... : C-5 00 . ...
ROW 01 : ... .. . ... ... : ... .. . ... ... : ... .. . ... : ... .. 5 ... : ... .. . ...
ROW 02 : ... .. . ... ... : ... .. . V02 ... : ... .. . ... : ... .. . ... : ... .. . ...
ROW 03 : ... .. . ... ... : ... .. . ... ... : ... .. . ... : ... .. 3 ... : ... .. . ...
ROW 04 : ... .. . ... ... : ... .. . V01 ... : ... .. . ... : ... .. . ... : ... .. . ...
ROW 05 : ... .. . ... ... : ... .. . ... ... : ... .. . ... : ... .. . ... : ... .. . ...
ROW 06 : ... .. . ... ... : ... .. . V02 ... : ... .. . ... : ... .. 2 ... : ... .. . ...
ROW 07 : ... .. . ... ... : ... .. . ... ... : ... .. . ... : ... .. 1 ... : ... .. . ...
ROW 08 : ... .. . ... ... : ... .. . V01 ... : ... .. . ... : ... .. 0 ... : ... .. . ...
ROW 09 : ... .. . ... ... : ... .. . ... ... : ... .. . ... : ... .. . ... : ... .. . ...
ROW 0A : ... .. . ... ... : ... .. . V02 ... : ... .. . ... : ... .. . ... : ... .. . ...
ROW 0B : ... .. . ... ... : ... .. . ... ... : ... .. . ... : ... .. . ... : ... .. . ...
ROW 0C : ... .. . ... ... : ... .. . V01 ... : ... .. . ... : ... .. . ... : ... .. . ...
ROW 0D : ... .. . ... ... : ... .. . ... ... : ... .. . ... : ... .. . ... : ... .. . ...
ROW 0E : ... .. . ... ... : ... .. . V02 ... : ... .. . ... : E-# 00 5 ... : ... .. . ...
ROW 0F : ... .. . ... ... : ... .. . ... ... : ... .. . ... : ... .. . ... : ... .. . ...
ROW 10 : ... .. . ... ... : ... .. . V01 ... : ... .. . ... : ... .. 4 ... : ... .. . ...
ROW 11 : ... .. . ... ... : ... .. . ... ... : ... .. . ... : ... .. . ... : ... .. . ...
ROW 12 : ... .. . ... ... : ... .. . V02 ... : ... .. . ... : ... .. 3 ... : ... .. . ...
ROW 13 : ... .. . ... ... : ... .. . ... ... : ... .. . ... : ... .. . ... : ... .. . ...
ROW 14 : ... .. . ... ... : ... .. . V01 ... : ... .. . ... : ... .. 2 ... : ... .. . ...
ROW 15 : ... .. . ... ... : ... .. . ... ... : --- .. . ... : E-# 00 5 ... : ... .. . ...
ROW 16 : ... .. . ... ... : ... .. . V02 ... : ... .. . ... : ... .. . ... : ... .. . ...
ROW 17 : ... .. . ... ... : ... .. . ... ... : ... .. . ... : ... .. 4 ... : ... .. . ...
ROW 18 : ... .. . ... ... : ... .. . V01 ... : ... .. . ... : ... .. . ... : ... .. . ...
ROW 19 : ... .. . ... ... : ... .. . ... ... : ... .. . ... : ... .. 3 ... : ... .. . ...
ROW 1A : ... .. . ... ... : ... .. . V02 ... : ... .. . ... : ... .. . ... : ... .. . ...
ROW 1B : ... .. . ... ... : ... .. . ... ... : ... .. . ... : ... .. 2 ... : ... .. . ...
ROW 1C : ... .. . ... ... : ... .. 3 V01 ... : E-2 00 . ... : F-# 00 7 ... : ... .. . ...
ROW 1D : ... .. . ... ... : ... .. . ... ... : ... .. . ... : ... .. . ... : ... .. . ...
ROW 1E : ... .. . ... ... : ... .. . V02 ... : ... .. . ... : ... .. 6 ... : ... .. . ...
ROW 1F : ... .. . ... ... : ... .. . ... ... : ... .. . ... : ... .. . ... : ... .. . ...
ROW 20 : ... .. . ... ... : ... .. . V01 ... : ... .. . ... : ... .. 5 ... : ... .. . ...
ROW 21 : ... .. . ... ... : ... .. . ... ... : ... .. . ... : ... .. . ... : ... .. . ...
ROW 22 : ... .. . ... ... : ... .. . V02 ... : ... .. . ... : ... .. 4 ... : ... .. . ...
ROW 23 : ... .. . ... ... : ... .. . ... ... : --- .. . ... : ... .. . ... : ... .. . ...
ROW 24 : ... .. . ... ... : ... .. . V01 ... : ... .. . ... : ... .. 3 ... : ... .. . ...
ROW 25 : ... .. . ... ... : ... .. . ... ... : ... .. . ... : ... .. . ... : ... .. . ...
ROW 26 : ... .. . ... ... : ... .. . V02 ... : ... .. . ... : ... .. 2 ... : ... .. . ...
ROW 27 : ... .. . ... ... : ... .. . ... ... : ... .. . ... : ... .. . ... : ... .. . ...
ROW 28 : ... .. . ... ... : ... .. . V01 ... : ... .. . ... : ... .. 1 ... : ... .. . ...
ROW 29 : ... .. . ... ... : ... .. . ... ... : ... .. . ... : ... .. . ... : ... .. . ...
ROW 2A : ... .. . ... ... : ... .. . V02 ... : ... .. . ... : E-# 00 5 ... : C-5 00 . ...
ROW 2B : ... .. . ... ... : ... .. . ... ... : ... .. . ... : ... .. . ... : ... .. . ...
ROW 2C : ... .. . ... ... : ... .. . V01 ... : ... .. . ... : ... .. 4 ... : ... .. . ...
ROW 2D : ... .. . ... ... : ... .. . ... ... : ... .. . ... : ... .. . ... : ... .. . ...
ROW 2E : ... .. . ... ... : ... .. . V02 ... : ... .. . ... : ... .. 3 ... : ... .. . ...
ROW 2F : ... .. . ... ... : ... .. . ... ... : ... .. . ... : ... .. . ... : ... .. . ...
ROW 30 : ... .. . ... ... : ... .. . V01 ... : ... .. . ... : ... .. 2 ... : ... .. . ...
ROW 31 : ... .. . ... ... : ... .. . ... ... : ... .. . ... : E-# 00 5 ... : ... .. . ...
ROW 32 : ... .. . ... ... : ... .. . V02 ... : ... .. . ... : ... .. . ... : ... .. . ...
ROW 33 : ... .. . ... ... : ... .. . ... ... : ... .. . ... : ... .. 4 ... : ... .. . ...
ROW 34 : ... .. . ... ... : ... .. . V01 ... : ... .. . ... : ... .. . ... : ... .. . ...
ROW 35 : ... .. . ... ... : ... .. . ... ... : ... .. . ... : ... .. 3 ... : ... .. . ...
ROW 36 : ... .. . ... ... : ... .. . V02 ... : ... .. . ... : ... .. . ... : ... .. . ...
ROW 37 : ... .. . ... ... : ... .. . ... ... : ... .. . ... : ... .. 2 ... : ... .. . ...
ROW 38 : ... .. . ... ... : ... .. 2 V01 ... : E-2 00 . ... : D-# 00 7 ... : C-5 00 . ...
ROW 39 : ... .. . ... ... : ... .. . ... ... : ... .. . ... : ... .. 5 ... : ... .. . ...
ROW 3A : ... .. . ... ... : ... .. . V02 ... : ... .. . ... : ... .. . ... : ... .. . ...
ROW 3B : ... .. . ... ... : ... .. . ... ... : ... .. . ... : ... .. 3 ... : ... .. . ...
ROW 3C : ... .. . ... ... : ... .. . V01 ... : ... .. . ... : ... .. . ... : ... .. . ...
ROW 3D : ... .. . ... ... : ... .. . ... ... : ... .. . ... : ... .. . ... : ... .. . ...
ROW 3E : ... .. . ... ... : ... .. . V02 ... : ... .. . ... : ... .. 2 ... : ... .. . ...
ROW 3F : ... .. . ... ... : ... .. . ... ... : ... .. . ... : ... .. 1 ... : ... .. . ...
ROW 40 : ... .. . ... ... : ... .. . V01 ... : ... .. . ... : ... .. 0 ... : ... .. . ...
ROW 41 : ... .. . ... ... : ... .. . ... ... : ... .. . ... : ... .. . ... : ... .. . ...
ROW 42 : ... .. . ... ... : ... .. . V02 ... : ... .. . ... : ... .. . ... : ... .. . ...
ROW 43 : ... .. . ... ... : ... .. . ... ... : ... .. . ... : ... .. . ... : ... .. . ...
ROW 44 : ... .. . ... ... : ... .. . V01 ... : ... .. . ... : ... .. . ... : ... .. . ...
ROW 45 : ... .. . ... ... : ... .. . ... ... : ... .. . ... : ... .. . ... : ... .. . ...
ROW 46 : ... .. . ... ... : ... .. . V02 ... : ... .. . ... : E-# 00 5 ... : ... .. . ...
ROW 47 : ... .. . ... ... : ... .. . ... ... : ... .. . ... : ... .. . ... : ... .. . ...
ROW 48 : ... .. . ... ... : ... .. . V01 ... : ... .. . ... : ... .. 4 ... : ... .. . ...
ROW 49 : ... .. . ... ... : ... .. . ... ... : ... .. . ... : ... .. . ... : ... .. . ...
ROW 4A : ... .. . ... ... : ... .. . V02 ... : ... .. . ... : ... .. 3 ... : ... .. . ...
ROW 4B : ... .. . ... ... : ... .. . ... ... : ... .. . ... : ... .. . ... : ... .. . ...
ROW 4C : ... .. . ... ... : ... .. . V01 ... : ... .. . ... : ... .. 2 ... : ... .. . ...
ROW 4D : ... .. . ... ... : ... .. . ... ... : --- .. . ... : E-# 00 5 ... : ... .. . ...
ROW 4E : ... .. . ... ... : ... .. . V02 ... : ... .. . ... : ... .. . ... : ... .. . ...
ROW 4F : ... .. . ... ... : ... .. . ... ... : ... .. . ... : ... .. 4 ... : ... .. . ...
ROW 50 : ... .. . ... ... : ... .. . V01 ... : ... .. . ... : ... .. . ... : ... .. . ...
ROW 51 : ... .. . ... ... : ... .. . ... ... : ... .. . ... : ... .. 3 ... : ... .. . ...
ROW 52 : ... .. . ... ... : ... .. . V02 ... : ... .. . ... : ... .. . ... : ... .. . ...
ROW 53 : ... .. . ... ... : ... .. . ... ... : ... .. . ... : ... .. 2 ... : ... .. . ...
ROW 54 : ... .. . ... ... : F#2 00 4 V01 ... : E-2 00 . ... : F-# 00 7 ... : ... .. . ...
ROW 55 : ... .. . ... ... : ... .. . ... ... : ... .. . ... : ... .. . ... : ... .. . ...
ROW 56 : ... .. . ... ... : ... .. . V02 ... : ... .. . ... : ... .. 6 ... : ... .. . ...
ROW 57 : ... .. . ... ... : ... .. . ... ... : ... .. . ... : ... .. . ... : ... .. . ...
ROW 58 : ... .. . ... ... : ... .. . V01 ... : ... .. . ... : ... .. 5 ... : ... .. . ...
ROW 59 : ... .. . ... ... : ... .. . ... ... : ... .. . ... : ... .. . ... : ... .. . ...
ROW 5A : ... .. . ... ... : ... .. . V02 ... : ... .. . ... : ... .. 4 ... : ... .. . ...
ROW 5B : ... .. . ... ... : ... .. . ... ... : --- .. . ... : ... .. . ... : ... .. . ...
ROW 5C : ... .. . ... ... : ... .. . V01 ... : ... .. . ... : ... .. 3 ... : ... .. . ...
ROW 5D : ... .. . ... ... : ... .. . ... ... : ... .. . ... : ... .. . ... : ... .. . ...
ROW 5E : ... .. . ... ... : ... .. . V02 ... : ... .. . ... : ... .. 2 ... : ... .. . ...
ROW 5F : ... .. . ... ... : ... .. . ... ... : ... .. . ... : ... .. . ... : ... .. . ...
ROW 60 : ... .. . ... ... : ... .. . V01 ... : ... .. . ... : ... .. 1 ... : ... .. . ...
ROW 61 : ... .. . ... ... : ... .. . ... ... : ... .. . ... : ... .. . ... : ... .. . ...
ROW 62 : ... .. . ... ... : ... .. . V02 ... : ... .. . ... : E-# 00 5 ... : ... .. . ...
ROW 63 : ... .. . ... ... : ... .. . ... ... : ... .. . ... : ... .. . ... : ... .. . ...
ROW 64 : ... .. . ... ... : ... .. . V01 ... : ... .. . ... : ... .. 4 ... : ... .. . ...
ROW 65 : ... .. . ... ... : ... .. . ... ... : ... .. . ... : ... .. . ... : ... .. . ...
ROW 66 : ... .. . ... ... : ... .. . V02 ... : ... .. . ... : ... .. 3 ... : ... .. . ...
ROW 67 : ... .. . ... ... : ... .. . ... ... : ... .. . ... : ... .. . ... : ... .. . ...
ROW 68 : ... .. . ... ... : ... .. . V01 ... : ... .. . ... : ... .. 2 ... : ... .. . ...
ROW 69 : ... .. . ... ... : ... .. . ... ... : ... .. . ... : E-# 00 5 ... : ... .. . ...
ROW 6A : ... .. . ... ... : ... .. . V02 ... : ... .. . ... : ... .. . ... : ... .. . ...
ROW 6B : ... .. . ... ... : ... .. . ... ... : ... .. . ... : ... .. 4 ... : ... .. . ...
ROW 6C : ... .. . ... ... : ... .. . V01 ... : ... .. . ... : ... .. . ... : ... .. . ...
ROW 6D : ... .. . ... ... : ... .. . ... ... : ... .. . ... : ... .. 3 ... : ... .. . ...
ROW 6E : ... .. . ... ... : ... .. . V02 ... : ... .. . ... : ... .. . ... : ... .. . ...
ROW 6F : ... .. . ... ... : ... .. . ... ... : ... .. . ... : ... .. 2 ... : ... .. . ...
ROW 70 : ... .. . ... ... : G#2 00 . V01 ... : C#2 00 . ... : D-# 00 7 ... : C-5 00 . ...
ROW 71 : ... .. . ... ... : ... .. . ... ... : ... .. . ... : ... .. 5 ... : ... .. . ...
ROW 72 : ... .. . ... ... : ... .. . V02 ... : ... .. . ... : ... .. . ... : ... .. . ...
ROW 73 : ... .. . ... ... : ... .. . ... ... : ... .. . ... : ... .. 3 ... : ... .. . ...
ROW 74 : ... .. . ... ... : ... .. . V01 ... : ... .. . ... : ... .. . ... : ... .. . ...
ROW 75 : ... .. . ... ... : ... .. . ... ... : ... .. . ... : ... .. . ... : ... .. . ...
ROW 76 : ... .. . ... ... : ... .. . V02 ... : ... .. . ... : ... .. 2 ... : ... .. . ...
ROW 77 : ... .. . ... ... : ... .. . ... ... : ... .. . ... : ... .. 1 ... : ... .. . ...
ROW 78 : ... .. . ... ... : ... .. . V01 ... : ... .. . ... : ... .. 0 ... : ... .. . ...
ROW 79 : ... .. . ... ... : ... .. . ... ... : ... .. . ... : ... .. . ... : ... .. . ...
ROW 7A : ... .. . ... ... : ... .. . V02 ... : ... .. . ... : ... .. . ... : ... .. . ...
ROW 7B : ... .. . ... ... : ... .. . ... ... : ... .. . ... : ... .. . ... : ... .. . ...
ROW 7C : ... .. . ... ... : ... .. . V01 ... : ... .. . ... : ... .. . ... : ... .. . ...
ROW 7D : ... .. . ... ... : ... .. . ... ... : ... .. . ... : ... .. . ... : ... .. . ...
ROW 7E : ... .. . ... ... : ... .. . V02 ... : ... .. . ... : E-# 00 5 ... : ... .. . ...
ROW 7F : ... .. . ... ... : ... .. . ... ... : ... .. . ... : ... .. . ... : ... .. . ...
ROW 80 : ... .. . ... ... : ... .. . V01 ... : ... .. . ... : ... .. 4 ... : ... .. . ...
ROW 81 : ... .. . ... ... : ... .. . ... ... : ... .. . ... : ... .. . ... : ... .. . ...
ROW 82 : ... .. . ... ... : ... .. . V02 ... : ... .. . ... : ... .. 3 ... : ... .. . ...
ROW 83 : ... .. . ... ... : ... .. . ... ... : ... .. . ... : ... .. . ... : ... .. . ...
ROW 84 : ... .. . ... ... : ... .. . V01 ... : ... .. . ... : ... .. 2 ... : ... .. . ...
ROW 85 : ... .. . ... ... : ... .. . ... ... : --- .. . ... : E-# 00 5 ... : ... .. . ...
ROW 86 : ... .. . ... ... : ... .. . V02 ... : ... .. . ... : ... .. . ... : ... .. . ...
ROW 87 : ... .. . ... ... : ... .. . ... ... : ... .. . ... : ... .. 4 ... : ... .. . ...
ROW 88 : ... .. . ... ... : ... .. . V01 ... : ... .. . ... : ... .. . ... : ... .. . ...
ROW 89 : ... .. . ... ... : ... .. . ... ... : ... .. . ... : ... .. 3 ... : ... .. . ...
ROW 8A : ... .. . ... ... : ... .. . V02 ... : ... .. . ... : ... .. . ... : ... .. . ...
ROW 8B : ... .. . ... ... : ... .. . ... ... : ... .. . ... : ... .. 2 ... : ... .. . ...
ROW 8C : ... .. . ... ... : ... .. 3 V01 ... : C#2 00 . ... : F-# 00 7 ... : ... .. . ...
ROW 8D : ... .. . ... ... : ... .. . ... ... : ... .. . ... : ... .. . ... : ... .. . ...
ROW 8E : ... .. . ... ... : ... .. . V02 ... : ... .. . ... : ... .. 6 ... : ... .. . ...
ROW 8F : ... .. . ... ... : ... .. . ... ... : ... .. . ... : ... .. . ... : ... .. . ...
ROW 90 : ... .. . ... ... : ... .. . V01 ... : ... .. . ... : ... .. 5 ... : ... .. . ...
ROW 91 : ... .. . ... ... : ... .. . ... ... : ... .. . ... : ... .. . ... : ... .. . ...
ROW 92 : ... .. . ... ... : ... .. . V02 ... : ... .. . ... : ... .. 4 ... : ... .. . ...
ROW 93 : ... .. . ... ... : ... .. . ... ... : --- .. . ... : ... .. . ... : ... .. . ...
ROW 94 : ... .. . ... ... : ... .. . V01 ... : ... .. . ... : ... .. 3 ... : ... .. . ...
ROW 95 : ... .. . ... ... : ... .. . ... ... : ... .. . ... : ... .. . ... : ... .. . ...
ROW 96 : ... .. . ... ... : ... .. . V02 ... : ... .. . ... : ... .. 2 ... : ... .. . ...
ROW 97 : ... .. . ... ... : ... .. . ... ... : ... .. . ... : ... .. . ... : ... .. . ...
ROW 98 : ... .. . ... ... : ... .. . V01 ... : ... .. . ... : ... .. 1 ... : ... .. . ...
ROW 99 : ... .. . ... ... : ... .. . ... ... : ... .. . ... : ... .. . ... : ... .. . ...
ROW 9A : ... .. . ... ... : ... .. . V02 ... : ... .. . ... : E-# 00 5 ... : C-5 00 . ...
ROW 9B : ... .. . ... ... : ... .. . ... ... : ... .. . ... : ... .. . ... : ... .. . ...
ROW 9C : ... .. . ... ... : ... .. . V01 ... : ... .. . ... : ... .. 4 ... : ... .. . ...
ROW 9D : ... .. . ... ... : ... .. . ... ... : ... .. . ... : ... .. . ... : ... .. . ...
ROW 9E : ... .. . ... ... : ... .. . V02 ... : ... .. . ... : ... .. 3 ... : ... .. . ...
ROW 9F : ... .. . ... ... : ... .. . ... ... : ... .. . ... : ... .. . ... : ... .. . ...
ROW A0 : ... .. . ... ... : ... .. . V01 ... : ... .. . ... : ... .. 2 ... : ... .. . ...
ROW A1 : ... .. . ... ... : ... .. . ... ... : ... .. . ... : E-# 00 5 ... : ... .. . ...
ROW A2 : ... .. . ... ... : ... .. . V02 ... : ... .. . ... : ... .. . ... : ... .. . ...
ROW A3 : ... .. . ... ... : ... .. . ... ... : ... .. . ... : ... .. 4 ... : ... .. . ...
ROW A4 : ... .. . ... ... : ... .. . V01 ... : ... .. . ... : ... .. . ... : ... .. . ...
ROW A5 : ... .. . ... ... : ... .. . ... ... : ... .. . ... : ... .. 3 ... : ... .. . ...
ROW A6 : ... .. . ... ... : ... .. . V02 ... : ... .. . ... : ... .. . ... : ... .. . ...
ROW A7 : ... .. . ... ... : ... .. . ... ... : ... .. . ... : ... .. 2 ... : ... .. . ...
ROW A8 : ... .. . ... ... : ... .. 2 V01 ... : C#2 00 . ... : D-# 00 7 ... : C-5 00 . ...
ROW A9 : ... .. . ... ... : ... .. . ... ... : ... .. . ... : ... .. 5 ... : ... .. . ...
ROW AA : ... .. . ... ... : ... .. . V02 ... : ... .. . ... : ... .. . ... : ... .. . ...
ROW AB : ... .. . ... ... : ... .. . ... ... : ... .. . ... : ... .. 3 ... : ... .. . ...
ROW AC : ... .. . ... ... : ... .. . V01 ... : ... .. . ... : ... .. . ... : ... .. . ...
ROW AD : ... .. . ... ... : ... .. . ... ... : ... .. . ... : ... .. . ... : ... .. . ...
ROW AE : ... .. . ... ... : ... .. . V02 ... : ... .. . ... : ... .. 2 ... : ... .. . ...
ROW AF : ... .. . ... ... : ... .. . ... ... : ... .. . ... : ... .. 1 ... : ... .. . ...
ROW B0 : ... .. . ... ... : ... .. . V01 ... : ... .. . ... : ... .. 0 ... : ... .. . ...
ROW B1 : ... .. . ... ... : ... .. . ... ... : ... .. . ... : ... .. . ... : ... .. . ...
ROW B2 : ... .. . ... ... : ... .. . V02 ... : ... .. . ... : ... .. . ... : ... .. . ...
ROW B3 : ... .. . ... ... : ... .. . ... ... : ... .. . ... : ... .. . ... : ... .. . ...
ROW B4 : ... .. . ... ... : ... .. . V01 ... : ... .. . ... : ... .. . ... : ... .. . ...
ROW B5 : ... .. . ... ... : ... .. . ... ... : ... .. . ... : ... .. . ... : ... .. . ...
ROW B6 : ... .. . ... ... : ... .. . V02 ... : ... .. . ... : E-# 00 5 ... : ... .. . ...
ROW B7 : ... .. . ... ... : ... .. . ... ... : ... .. . ... : ... .. . ... : ... .. . ...
ROW B8 : ... .. . ... ... : ... .. . V01 ... : ... .. . ... : ... .. 4 ... : ... .. . ...
ROW B9 : ... .. . ... ... : ... .. . ... ... : ... .. . ... : ... .. . ... : ... .. . ...
ROW BA : ... .. . ... ... : ... .. . V02 ... : ... .. . ... : ... .. 3 ... : ... .. . ...
ROW BB : ... .. . ... ... : ... .. . ... ... : ... .. . ... : ... .. . ... : ... .. . ...
ROW BC : ... .. . ... ... : ... .. . V01 ... : ... .. . ... : ... .. 2 ... : ... .. . ...
ROW BD : ... .. . ... ... : ... .. . ... ... : --- .. . ... : E-# 00 5 ... : ... .. . ...
ROW BE : ... .. . ... ... : ... .. . V02 ... : ... .. . ... : ... .. . ... : ... .. . ...
ROW BF : ... .. . ... ... : ... .. . ... ... : ... .. . ... : ... .. 4 ... : ... .. . ...
ROW C0 : ... .. . ... ... : ... .. . V01 ... : ... .. . ... : ... .. . ... : ... .. . ...
ROW C1 : ... .. . ... ... : ... .. . ... ... : ... .. . ... : ... .. 3 ... : ... .. . ...
ROW C2 : ... .. . ... ... : ... .. . V02 ... : ... .. . ... : ... .. . ... : ... .. . ...
ROW C3 : ... .. . ... ... : ... .. . ... ... : ... .. . ... : ... .. 2 ... : ... .. . ...
ROW C4 : ... .. . ... ... : ... .. 3 V01 ... : F-4 00 . ... : F-# 00 7 ... : F-5 00 . ...
ROW C5 : ... .. . ... ... : ... .. . ... ... : E-4 00 . ... : ... .. . ... : ... .. . ...
ROW C6 : ... .. . ... ... : ... .. . V02 ... : D-4 00 . ... : ... .. 6 ... : ... .. . ...
ROW C7 : ... .. . ... ... : ... .. . ... ... : C#4 00 . ... : ... .. . ... : ... .. . ...
ROW C8 : ... .. . ... ... : ... .. . V01 ... : B-3 00 . ... : ... .. 5 ... : ... .. . ...
ROW C9 : ... .. . ... ... : ... .. . ... ... : A-3 00 . ... : ... .. . ... : ... .. . ...
ROW CA : ... .. . ... ... : ... .. . V02 ... : --- 00 . ... : ... .. 4 ... : ... .. . ...
ROW CB : ... .. . ... ... : ... .. . ... ... : F-4 00 . ... : ... .. . ... : F-5 00 . ...
ROW CC : ... .. . ... ... : ... .. . V01 ... : E-4 00 . ... : ... .. 3 ... : ... .. . ...
ROW CD : ... .. . ... ... : ... .. . ... ... : D-4 00 . ... : ... .. . ... : ... .. . ...
ROW CE : ... .. . ... ... : ... .. . V02 ... : C#4 00 . ... : ... .. 2 ... : ... .. . ...
ROW CF : ... .. . ... ... : ... .. . ... ... : B-3 00 . ... : ... .. . ... : ... .. . ...
ROW D0 : ... .. . ... ... : ... .. . V01 ... : A-3 00 . ... : ... .. 1 ... : ... .. . ...
ROW D1 : ... .. . ... ... : ... .. . ... ... : --- 00 . ... : ... .. . ... : ... .. . ...
ROW D2 : ... .. . ... ... : ... .. . V02 ... : D-4 00 . ... : E-# 00 5 ... : F-5 00 . ...
ROW D3 : ... .. . ... ... : ... .. . ... ... : C#4 00 . ... : ... .. . ... : ... .. . ...
ROW D4 : ... .. . ... ... : ... .. . V01 ... : B-3 00 . ... : ... .. 4 ... : ... .. . ...
ROW D5 : ... .. . ... ... : ... .. . ... ... : A-3 00 . ... : ... .. . ... : ... .. . ...
ROW D6 : ... .. . ... ... : ... .. . V02 ... : G#3 00 . ... : ... .. 3 ... : ... .. . ...
ROW D7 : ... .. . ... ... : ... .. . ... ... : F-3 00 . ... : ... .. . ... : ... .. . ...
ROW D8 : ... .. . ... ... : ... .. . V01 ... : --- 00 . ... : ... .. 2 ... : ... .. . ...
ROW D9 : ... .. . ... ... : ... .. . ... ... : D-4 00 . ... : E-# 00 5 ... : F-5 00 . ...
ROW DA : ... .. . ... ... : ... .. . V02 ... : C#4 00 . ... : ... .. . ... : ... .. . ...
ROW DB : ... .. . ... ... : ... .. . ... ... : B-3 00 . ... : ... .. 4 ... : ... .. . ...
ROW DC : ... .. . ... ... : ... .. . V01 ... : A-3 00 . ... : ... .. . ... : ... .. . ...
ROW DD : ... .. . ... ... : ... .. . ... ... : G#3 00 . ... : ... .. 3 ... : ... .. . ...
ROW DE : ... .. . ... ... : ... .. . V02 ... : F-3 00 . ... : ... .. . ... : ... .. . ...
ROW DF : ... .. . ... ... : ... .. . ... ... : --- .. . ... : ... .. 2 ... : ... .. . D00
ROW E0 : ... .. . ... ... : ... .. . ... ... : ... .. . ... : ... .. . ... : ... .. . ...
ROW E1 : ... .. . ... ... : ... .. . ... ... : ... .. . ... : ... .. . ... : ... .. . ...
ROW E2 : ... .. . ... ... : ... .. . ... ... : ... .. . ... : ... .. . ... : ... .. . ...
ROW E3 : ... .. . ... ... : ... .. . ... ... : ... .. . ... : ... .. . ... : ... .. . ...
ROW E4 : ... .. . ... ... : ... .. . ... ... : ... .. . ... : ... .. . ... : ... .. . ...
ROW E5 : ... .. . ... ... : ... .. . ... ... : ... .. . ... : ... .. . ... : ... .. . ...
ROW E6 : ... .. . ... ... : ... .. . ... ... : ... .. . ... : ... .. . ... : ... .. . ...
ROW E7 : ... .. . ... ... : ... .. . ... ... : ... .. . ... : ... .. . ... : ... .. . ...
ROW E8 : ... .. . ... ... : ... .. . ... ... : ... .. . ... : ... .. . ... : ... .. . ...
ROW E9 : ... .. . ... ... : ... .. . ... ... : ... .. . ... : ... .. . ... : ... .. . ...
ROW EA : ... .. . ... ... : ... .. . ... ... : ... .. . ... : ... .. . ... : ... .. . ...
ROW EB : ... .. . ... ... : ... .. . ... ... : ... .. . ... : ... .. . ... : ... .. . ...
ROW EC : ... .. . ... ... : ... .. . ... ... : ... .. . ... : ... .. . ... : ... .. . ...
ROW ED : ... .. . ... ... : ... .. . ... ... : ... .. . ... : ... .. . ... : ... .. . ...
ROW EE : ... .. . ... ... : ... .. . ... ... : ... .. . ... : ... .. . ... : ... .. . ...
ROW EF : ... .. . ... ... : ... .. . ... ... : ... .. . ... : ... .. . ... : ... .. . ...
ROW F0 : ... .. . ... ... : ... .. . ... ... : ... .. . ... : ... .. . ... : ... .. . ...
ROW F1 : ... .. . ... ... : ... .. . ... ... : ... .. . ... : ... .. . ... : ... .. . ...
ROW F2 : ... .. . ... ... : ... .. . ... ... : ... .. . ... : ... .. . ... : ... .. . ...
ROW F3 : ... .. . ... ... : ... .. . ... ... : ... .. . ... : ... .. . ... : ... .. . ...
ROW F4 : ... .. . ... ... : ... .. . ... ... : ... .. . ... : ... .. . ... : ... .. . ...
ROW F5 : ... .. . ... ... : ... .. . ... ... : ... .. . ... : ... .. . ... : ... .. . ...
ROW F6 : ... .. . ... ... : ... .. . ... ... : ... .. . ... : ... .. . ... : ... .. . ...
ROW F7 : ... .. . ... ... : ... .. . ... ... : ... .. . ... : ... .. . ... : ... .. . ...
ROW F8 : ... .. . ... ... : ... .. . ... ... : ... .. . ... : ... .. . ... : ... .. . ...
ROW F9 : ... .. . ... ... : ... .. . ... ... : ... .. . ... : ... .. . ... : ... .. . ...
ROW FA : ... .. . ... ... : ... .. . ... ... : ... .. . ... : ... .. . ... : ... .. . ...
ROW FB : ... .. . ... ... : ... .. . ... ... : ... .. . ... : ... .. . ... : ... .. . ...
ROW FC : ... .. . ... ... : ... .. . ... ... : ... .. . ... : ... .. . ... : ... .. . ...
ROW FD : ... .. . ... ... : ... .. . ... ... : ... .. . ... : ... .. . ... : ... .. . ...
ROW FE : ... .. . ... ... : ... .. . ... ... : ... .. . ... : ... .. . ... : ... .. . ...
ROW FF : ... .. . ... ... : ... .. . ... ... : ... .. . ... : ... .. . ... : ... .. . ...

PATTERN 12
ROW 00 : ... .. . ... ... : B-2 00 4 V01 P82 : ... .. . ... : D-# 00 7 ... : ... .. . ...
ROW 01 : ... .. . ... ... : ... .. . ... ... : ... .. . ... : ... .. 5 ... : ... .. . ...
ROW 02 : ... .. . ... ... : ... .. . V02 ... : ... .. . ... : ... .. . ... : ... .. . ...
ROW 03 : ... .. . ... ... : ... .. . ... ... : ... .. . ... : ... .. 3 ... : ... .. . ...
ROW 04 : ... .. . ... ... : ... .. . V01 ... : ... .. . ... : ... .. . ... : ... .. . ...
ROW 05 : ... .. . ... ... : ... .. . ... ... : ... .. . ... : ... .. . ... : ... .. . ...
ROW 06 : ... .. . ... ... : ... .. . V02 ... : ... .. . ... : ... .. 2 ... : ... .. . ...
ROW 07 : ... .. . ... ... : ... .. . ... ... : ... .. . ... : ... .. 1 ... : ... .. . ...
ROW 08 : ... .. . ... ... : ... .. . V01 ... : ... .. . ... : ... .. 0 ... : ... .. . ...
ROW 09 : ... .. . ... ... : ... .. . ... ... : ... .. . ... : ... .. . ... : ... .. . ...
ROW 0A : ... .. . ... ... : ... .. . V02 ... : ... .. . ... : ... .. . ... : ... .. . ...
ROW 0B : ... .. . ... ... : ... .. . ... ... : ... .. . ... : ... .. . ... : ... .. . ...
ROW 0C : ... .. . ... ... : ... .. . V01 ... : ... .. . ... : ... .. . ... : ... .. . ...
ROW 0D : ... .. . ... ... : ... .. . ... ... : ... .. . ... : ... .. . ... : ... .. . ...
ROW 0E : ... .. . ... ... : ... .. . V02 ... : ... .. . ... : E-# 00 5 ... : ... .. . ...
ROW 0F : ... .. . ... ... : ... .. . ... ... : ... .. . ... : ... .. . ... : ... .. . ...
ROW 10 : ... .. . ... ... : ... .. . V01 ... : ... .. . ... : ... .. 4 ... : ... .. . ...
ROW 11 : ... .. . ... ... : ... .. . ... ... : ... .. . ... : ... .. . ... : ... .. . ...
ROW 12 : ... .. . ... ... : ... .. . V02 ... : ... .. . ... : ... .. 3 ... : ... .. . ...
ROW 13 : ... .. . ... ... : ... .. . ... ... : ... .. . ... : ... .. . ... : ... .. . ...
ROW 14 : ... .. . ... ... : ... .. . V01 ... : ... .. . ... : ... .. 2 ... : ... .. . ...
ROW 15 : ... .. . ... ... : ... .. . ... ... : ... .. . ... : E-# 00 5 ... : ... .. . ...
ROW 16 : ... .. . ... ... : ... .. . V02 ... : ... .. . ... : ... .. . ... : ... .. . ...
ROW 17 : ... .. . ... ... : ... .. . ... ... : ... .. . ... : ... .. 4 ... : ... .. . ...
ROW 18 : ... .. . ... ... : ... .. . V01 ... : ... .. . ... : ... .. . ... : ... .. . ...
ROW 19 : ... .. . ... ... : ... .. . ... ... : ... .. . ... : ... .. 3 ... : ... .. . ...
ROW 1A : ... .. . ... ... : ... .. . V02 ... : ... .. . ... : ... .. . ... : ... .. . ...
ROW 1B : ... .. . ... ... : ... .. . ... ... : ... .. . ... : ... .. 2 ... : ... .. . ...
ROW 1C : ... .. . ... ... : ... .. 3 V01 ... : ... .. . ... : F-# 00 7 ... : ... .. . ...
ROW 1D : ... .. . ... ... : ... .. . ... ... : ... .. . ... : ... .. . ... : ... .. . ...
ROW 1E : ... .. . ... ... : ... .. . V02 ... : ... .. . ... : ... .. 6 ... : ... .. . ...
ROW 1F : ... .. . ... ... : ... .. . ... ... : ... .. . ... : ... .. . ... : ... .. . ...
ROW 20 : ... .. . ... ... : ... .. . V01 ... : ... .. . ... : ... .. 5 ... : ... .. . ...
ROW 21 : ... .. . ... ... : ... .. . ... ... : ... .. . ... : ... .. . ... : ... .. . ...
ROW 22 : ... .. . ... ... : ... .. . V02 ... : ... .. . ... : ... .. 4 ... : ... .. . ...
ROW 23 : ... .. . ... ... : ... .. . ... ... : ... .. . ... : ... .. . ... : ... .. . ...
ROW 24 : ... .. . ... ... : ... .. . V01 ... : ... .. . ... : ... .. 3 ... : ... .. . ...
ROW 25 : ... .. . ... ... : ... .. . ... ... : ... .. . ... : ... .. . ... : ... .. . ...
ROW 26 : ... .. . ... ... : ... .. . V02 ... : ... .. . ... : ... .. 2 ... : ... .. . ...
ROW 27 : ... .. . ... ... : ... .. . ... ... : ... .. . ... : ... .. . ... : ... .. . ...
ROW 28 : ... .. . ... ... : ... .. . V01 ... : ... .. . ... : ... .. 1 ... : ... .. . ...
ROW 29 : ... .. . ... ... : ... .. . ... ... : ... .. . ... : ... .. . ... : ... .. . ...
ROW 2A : ... .. . ... ... : ... .. . V02 ... : ... .. . ... : E-# 00 5 ... : ... .. . ...
ROW 2B : ... .. . ... ... : ... .. . ... ... : ... .. . ... : ... .. . ... : ... .. . ...
ROW 2C : ... .. . ... ... : ... .. . V01 ... : ... .. . ... : ... .. 4 ... : ... .. . ...
ROW 2D : ... .. . ... ... : ... .. . ... ... : ... .. . ... : ... .. . ... : ... .. . ...
ROW 2E : ... .. . ... ... : ... .. . V02 ... : ... .. . ... : ... .. 3 ... : ... .. . ...
ROW 2F : ... .. . ... ... : ... .. . ... ... : ... .. . ... : ... .. . ... : ... .. . ...
ROW 30 : ... .. . ... ... : ... .. . V01 ... : ... .. . ... : ... .. 2 ... : ... .. . ...
ROW 31 : ... .. . ... ... : ... .. . ... ... : ... .. . ... : E-# 00 5 ... : ... .. . ...
ROW 32 : ... .. . ... ... : ... .. . V02 ... : ... .. . ... : ... .. . ... : ... .. . ...
ROW 33 : ... .. . ... ... : ... .. . ... ... : ... .. . ... : ... .. 4 ... : ... .. . ...
ROW 34 : ... .. . ... ... : ... .. . V01 ... : ... .. . ... : ... .. . ... : ... .. . ...
ROW 35 : ... .. . ... ... : ... .. . ... ... : ... .. . ... : ... .. 3 ... : ... .. . ...
ROW 36 : ... .. . ... ... : ... .. . V02 ... : ... .. . ... : ... .. . ... : ... .. . ...
ROW 37 : ... .. . ... ... : ... .. . ... ... : ... .. . ... : ... .. 2 ... : ... .. . ...
ROW 38 : ... .. . ... ... : ... .. 2 V01 ... : ... .. . ... : D-# 00 7 ... : ... .. . ...
ROW 39 : ... .. . ... ... : ... .. . ... ... : ... .. . ... : ... .. 5 ... : ... .. . ...
ROW 3A : ... .. . ... ... : ... .. . V02 ... : ... .. . ... : ... .. . ... : ... .. . ...
ROW 3B : ... .. . ... ... : ... .. . ... ... : ... .. . ... : ... .. 3 ... : ... .. . ...
ROW 3C : ... .. . ... ... : ... .. . V01 ... : ... .. . ... : ... .. . ... : ... .. . ...
ROW 3D : ... .. . ... ... : ... .. . ... ... : ... .. . ... : ... .. . ... : ... .. . ...
ROW 3E : ... .. . ... ... : ... .. . V02 ... : ... .. . ... : ... .. 2 ... : ... .. . ...
ROW 3F : ... .. . ... ... : ... .. . ... ... : ... .. . ... : ... .. 1 ... : ... .. . ...
ROW 40 : ... .. . ... ... : ... .. . V01 ... : ... .. . ... : ... .. 0 ... : ... .. . ...
ROW 41 : ... .. . ... ... : ... .. . ... ... : ... .. . ... : ... .. . ... : ... .. . ...
ROW 42 : ... .. . ... ... : ... .. . V02 ... : ... .. . ... : ... .. . ... : ... .. . ...
ROW 43 : ... .. . ... ... : ... .. . ... ... : ... .. . ... : ... .. . ... : ... .. . ...
ROW 44 : ... .. . ... ... : ... .. . V01 ... : ... .. . ... : ... .. . ... : ... .. . ...
ROW 45 : ... .. . ... ... : ... .. . ... ... : ... .. . ... : ... .. . ... : ... .. . ...
ROW 46 : ... .. . ... ... : ... .. . V02 ... : ... .. . ... : E-# 00 5 ... : ... .. . ...
ROW 47 : ... .. . ... ... : ... .. . ... ... : ... .. . ... : ... .. . ... : ... .. . ...
ROW 48 : ... .. . ... ... : ... .. . V01 ... : ... .. . ... : ... .. 4 ... : ... .. . ...
ROW 49 : ... .. . ... ... : ... .. . ... ... : ... .. . ... : ... .. . ... : ... .. . ...
ROW 4A : ... .. . ... ... : ... .. . V02 ... : ... .. . ... : ... .. 3 ... : ... .. . ...
ROW 4B : ... .. . ... ... : ... .. . ... ... : ... .. . ... : ... .. . ... : ... .. . ...
ROW 4C : ... .. . ... ... : ... .. . V01 ... : ... .. . ... : ... .. 2 ... : ... .. . ...
ROW 4D : ... .. . ... ... : ... .. . ... ... : ... .. . ... : E-# 00 5 ... : ... .. . ...
ROW 4E : ... .. . ... ... : ... .. . V02 ... : ... .. . ... : ... .. . ... : ... .. . ...
ROW 4F : ... .. . ... ... : ... .. . ... ... : ... .. . ... : ... .. 4 ... : ... .. . ...
ROW 50 : ... .. . ... ... : ... .. . V01 ... : ... .. . ... : ... .. . ... : ... .. . ...
ROW 51 : ... .. . ... ... : ... .. . ... ... : ... .. . ... : ... .. 3 ... : ... .. . ...
ROW 52 : ... .. . ... ... : ... .. . V02 ... : ... .. . ... : ... .. . ... : ... .. . ...
ROW 53 : ... .. . ... ... : ... .. . ... ... : ... .. . ... : ... .. 2 ... : ... .. . ...
ROW 54 : ... .. . ... ... : C#3 00 4 V01 ... : ... .. . ... : F-# 00 7 ... : ... .. . ...
ROW 55 : ... .. . ... ... : ... .. . ... ... : ... .. . ... : ... .. . ... : ... .. . ...
ROW 56 : ... .. . ... ... : ... .. . V02 ... : ... .. . ... : ... .. 6 ... : ... .. . ...
ROW 57 : ... .. . ... ... : ... .. . ... ... : ... .. . ... : ... .. . ... : ... .. . ...
ROW 58 : ... .. . ... ... : ... .. . V01 ... : ... .. . ... : ... .. 5 ... : ... .. . ...
ROW 59 : ... .. . ... ... : ... .. . ... ... : ... .. . ... : ... .. . ... : ... .. . ...
ROW 5A : ... .. . ... ... : ... .. . V02 ... : ... .. . ... : ... .. 4 ... : ... .. . ...
ROW 5B : ... .. . ... ... : ... .. . ... ... : ... .. . ... : ... .. . ... : ... .. . ...
ROW 5C : ... .. . ... ... : ... .. . V01 ... : ... .. . ... : ... .. 3 ... : ... .. . ...
ROW 5D : ... .. . ... ... : ... .. . ... ... : ... .. . ... : ... .. . ... : ... .. . ...
ROW 5E : ... .. . ... ... : ... .. . V02 ... : ... .. . ... : ... .. 2 ... : ... .. . ...
ROW 5F : ... .. . ... ... : ... .. . ... ... : ... .. . ... : ... .. . ... : ... .. . ...
ROW 60 : ... .. . ... ... : ... .. . V01 ... : ... .. . ... : ... .. 1 ... : ... .. . ...
ROW 61 : ... .. . ... ... : ... .. . ... ... : ... .. . ... : ... .. . ... : ... .. . ...
ROW 62 : ... .. . ... ... : E-3 00 . V02 ... : ... .. . ... : E-# 00 5 ... : ... .. . ...
ROW 63 : ... .. . ... ... : ... .. . ... ... : ... .. . ... : ... .. . ... : ... .. . ...
ROW 64 : ... .. . ... ... : ... .. . V01 ... : ... .. . ... : ... .. 4 ... : ... .. . ...
ROW 65 : ... .. . ... ... : ... .. . ... ... : ... .. . ... : ... .. . ... : ... .. . ...
ROW 66 : ... .. . ... ... : ... .. . V02 ... : ... .. . ... : ... .. 3 ... : ... .. . ...
ROW 67 : ... .. . ... ... : ... .. . ... ... : ... .. . ... : ... .. . ... : ... .. . ...
ROW 68 : ... .. . ... ... : ... .. . V01 ... : ... .. . ... : ... .. 2 ... : ... .. . ...
ROW 69 : ... .. . ... ... : ... .. . ... ... : ... .. . ... : E-# 00 5 ... : ... .. . ...
ROW 6A : ... .. . ... ... : ... .. . V02 ... : ... .. . ... : ... .. . ... : ... .. . ...
ROW 6B : ... .. . ... ... : ... .. . ... ... : ... .. . ... : ... .. 4 ... : ... .. . ...
ROW 6C : ... .. . ... ... : ... .. . V01 ... : ... .. . ... : ... .. . ... : ... .. . ...
ROW 6D : ... .. . ... ... : ... .. . ... ... : ... .. . ... : ... .. 3 ... : ... .. . ...
ROW 6E : ... .. . ... ... : ... .. . V02 ... : ... .. . ... : ... .. . ... : ... .. . ...
ROW 6F : ... .. . ... ... : ... .. . ... ... : ... .. . ... : ... .. 2 ... : ... .. . ...
ROW 70 : ... .. . ... ... : F-3 00 . V01 ... : ... .. . ... : D-# 00 7 ... : ... .. . ...
ROW 71 : ... .. . ... ... : ... .. . ... ... : ... .. . ... : ... .. 5 ... : ... .. . ...
ROW 72 : ... .. . ... ... : ... .. . V02 ... : ... .. . ... : ... .. . ... : ... .. . ...
ROW 73 : ... .. . ... ... : ... .. . ... ... : ... .. . ... : ... .. 3 ... : ... .. . ...
ROW 74 : ... .. . ... ... : ... .. . V01 ... : ... .. . ... : ... .. . ... : ... .. . ...
ROW 75 : ... .. . ... ... : ... .. . ... ... : ... .. . ... : ... .. . ... : ... .. . ...
ROW 76 : ... .. . ... ... : ... .. . V02 ... : ... .. . ... : ... .. 2 ... : ... .. . ...
ROW 77 : ... .. . ... ... : ... .. . ... ... : ... .. . ... : ... .. 1 ... : ... .. . ...
ROW 78 : ... .. . ... ... : ... .. . V01 ... : ... .. . ... : ... .. 0 ... : ... .. . ...
ROW 79 : ... .. . ... ... : ... .. . ... ... : ... .. . ... : ... .. . ... : ... .. . ...
ROW 7A : ... .. . ... ... : ... .. . V02 ... : ... .. . ... : ... .. . ... : ... .. . ...
ROW 7B : ... .. . ... ... : ... .. . ... ... : ... .. . ... : ... .. . ... : ... .. . ...
ROW 7C : ... .. . ... ... : ... .. . V01 ... : ... .. . ... : ... .. . ... : ... .. . ...
ROW 7D : ... .. . ... ... : ... .. . ... ... : ... .. . ... : ... .. . ... : ... .. . ...
ROW 7E : ... .. . ... ... : ... .. . V02 ... : ... .. . ... : E-# 00 5 ... : ... .. . ...
ROW 7F : ... .. . ... ... : ... .. . ... ... : ... .. . ... : ... .. . ... : ... .. . ...
ROW 80 : ... .. . ... ... : ... .. . V01 ... : ... .. . ... : ... .. 4 ... : ... .. . ...
ROW 81 : ... .. . ... ... : ... .. . ... ... : ... .. . ... : ... .. . ... : ... .. . ...
ROW 82 : ... .. . ... ... : ... .. . V02 ... : ... .. . ... : ... .. 3 ... : ... .. . ...
ROW 83 : ... .. . ... ... : ... .. . ... ... : ... .. . ... : ... .. . ... : ... .. . ...
ROW 84 : ... .. . ... ... : ... .. . V01 ... : ... .. . ... : ... .. 2 ... : ... .. . ...
ROW 85 : ... .. . ... ... : ... .. . ... ... : ... .. . ... : E-# 00 5 ... : ... .. . ...
ROW 86 : ... .. . ... ... : ... .. . V02 ... : ... .. . ... : ... .. . ... : ... .. . ...
ROW 87 : ... .. . ... ... : ... .. . ... ... : ... .. . ... : ... .. 4 ... : ... .. . ...
ROW 88 : ... .. . ... ... : ... .. . V01 ... : ... .. . ... : ... .. . ... : ... .. . ...
ROW 89 : ... .. . ... ... : ... .. . ... ... : ... .. . ... : ... .. 3 ... : ... .. . ...
ROW 8A : ... .. . ... ... : ... .. . V02 ... : ... .. . ... : ... .. . ... : ... .. . ...
ROW 8B : ... .. . ... ... : ... .. . ... ... : ... .. . ... : ... .. 2 ... : ... .. . ...
ROW 8C : ... .. . ... ... : ... .. 3 V01 ... : ... .. . ... : F-# 00 7 ... : ... .. . ...
ROW 8D : ... .. . ... ... : ... .. . ... ... : ... .. . ... : ... .. . ... : ... .. . ...
ROW 8E : ... .. . ... ... : ... .. . V02 ... : ... .. . ... : ... .. 6 ... : ... .. . ...
ROW 8F : ... .. . ... ... : ... .. . ... ... : ... .. . ... : ... .. . ... : ... .. . ...
ROW 90 : ... .. . ... ... : ... .. . V01 ... : ... .. . ... : ... .. 5 ... : ... .. . ...
ROW 91 : ... .. . ... ... : ... .. . ... ... : ... .. . ... : ... .. . ... : ... .. . ...
ROW 92 : ... .. . ... ... : ... .. . V02 ... : ... .. . ... : ... .. 4 ... : ... .. . ...
ROW 93 : ... .. . ... ... : ... .. . ... ... : ... .. . ... : ... .. . ... : ... .. . ...
ROW 94 : ... .. . ... ... : ... .. . V01 ... : ... .. . ... : ... .. 3 ... : ... .. . ...
ROW 95 : ... .. . ... ... : ... .. . ... ... : ... .. . ... : ... .. . ... : ... .. . ...
ROW 96 : ... .. . ... ... : ... .. . V02 ... : ... .. . ... : ... .. 2 ... : ... .. . ...
ROW 97 : ... .. . ... ... : ... .. . ... ... : ... .. . ... : ... .. . ... : ... .. . ...
ROW 98 : ... .. . ... ... : ... .. . V01 ... : ... .. . ... : ... .. 1 ... : ... .. . ...
ROW 99 : ... .. . ... ... : ... .. . ... ... : ... .. . ... : ... .. . ... : ... .. . ...
ROW 9A : ... .. . ... ... : ... .. . V02 ... : ... .. . ... : E-# 00 5 ... : ... .. . ...
ROW 9B : ... .. . ... ... : ... .. . ... ... : ... .. . ... : ... .. . ... : ... .. . ...
ROW 9C : ... .. . ... ... : ... .. . V01 ... : ... .. . ... : ... .. 4 ... : ... .. . ...
ROW 9D : ... .. . ... ... : ... .. . ... ... : ... .. . ... : ... .. . ... : ... .. . ...
ROW 9E : ... .. . ... ... : ... .. . V02 ... : ... .. . ... : ... .. 3 ... : ... .. . ...
ROW 9F : ... .. . ... ... : ... .. . ... ... : ... .. . ... : ... .. . ... : ... .. . ...
ROW A0 : ... .. . ... ... : ... .. . V01 ... : ... .. . ... : ... .. 2 ... : ... .. . ...
ROW A1 : ... .. . ... ... : ... .. . ... ... : ... .. . ... : E-# 00 5 ... : ... .. . ...
ROW A2 : ... .. . ... ... : ... .. . V02 ... : ... .. . ... : ... .. . ... : ... .. . ...
ROW A3 : ... .. . ... ... : ... .. . ... ... : ... .. . ... : ... .. 4 ... : ... .. . ...
ROW A4 : ... .. . ... ... : ... .. . V01 ... : ... .. . ... : ... .. . ... : ... .. . ...
ROW A5 : ... .. . ... ... : ... .. . ... ... : ... .. . ... : ... .. 3 ... : ... .. . ...
ROW A6 : ... .. . ... ... : ... .. . V02 ... : ... .. . ... : ... .. . ... : ... .. . ...
ROW A7 : ... .. . ... ... : ... .. . ... ... : ... .. . ... : ... .. 2 ... : ... .. . ...
ROW A8 : ... .. . ... ... : ... .. 2 V01 ... : ... .. . ... : D-# 00 7 ... : ... .. . ...
ROW A9 : ... .. . ... ... : ... .. . ... ... : ... .. . ... : ... .. 5 ... : ... .. . ...
ROW AA : ... .. . ... ... : ... .. . V02 ... : ... .. . ... : ... .. . ... : ... .. . ...
ROW AB : ... .. . ... ... : ... .. . ... ... : ... .. . ... : ... .. 3 ... : ... .. . ...
ROW AC : ... .. . ... ... : ... .. . V01 ... : ... .. . ... : ... .. . ... : ... .. . ...
ROW AD : ... .. . ... ... : ... .. . ... ... : ... .. . ... : ... .. . ... : ... .. . ...
ROW AE : ... .. . ... ... : ... .. . V02 ... : ... .. . ... : ... .. 2 ... : ... .. . ...
ROW AF : ... .. . ... ... : ... .. . ... ... : ... .. . ... : ... .. 1 ... : ... .. . ...
ROW B0 : ... .. . ... ... : ... .. . V01 ... : ... .. . ... : ... .. 0 ... : ... .. . ...
ROW B1 : ... .. . ... ... : ... .. . ... ... : ... .. . ... : ... .. . ... : ... .. . ...
ROW B2 : ... .. . ... ... : ... .. . V02 ... : ... .. . ... : ... .. . ... : ... .. . ...
ROW B3 : ... .. . ... ... : ... .. . ... ... : ... .. . ... : ... .. . ... : ... .. . ...
ROW B4 : ... .. . ... ... : ... .. . V01 ... : ... .. . ... : ... .. . ... : ... .. . ...
ROW B5 : ... .. . ... ... : ... .. . ... ... : ... .. . ... : ... .. . ... : ... .. . ...
ROW B6 : ... .. . ... ... : ... .. . V02 ... : ... .. . ... : E-# 00 5 ... : ... .. . ...
ROW B7 : ... .. . ... ... : ... .. . ... ... : ... .. . ... : ... .. . ... : ... .. . ...
ROW B8 : ... .. . ... ... : ... .. . V01 ... : ... .. . ... : ... .. 4 ... : ... .. . ...
ROW B9 : ... .. . ... ... : ... .. . ... ... : ... .. . ... : ... .. . ... : ... .. . ...
ROW BA : ... .. . ... ... : ... .. . V02 ... : ... .. . ... : ... .. 3 ... : ... .. . ...
ROW BB : ... .. . ... ... : ... .. . ... ... : ... .. . ... : ... .. . ... : ... .. . ...
ROW BC : ... .. . ... ... : ... .. . V01 ... : ... .. . ... : ... .. 2 ... : ... .. . ...
ROW BD : ... .. . ... ... : ... .. . ... ... : ... .. . ... : E-# 00 5 ... : ... .. . ...
ROW BE : ... .. . ... ... : ... .. . V02 ... : ... .. . ... : ... .. . ... : ... .. . ...
ROW BF : ... .. . ... ... : ... .. . ... ... : ... .. . ... : ... .. 4 ... : ... .. . ...
ROW C0 : ... .. . ... ... : ... .. . V01 ... : ... .. . ... : ... .. . ... : ... .. . ...
ROW C1 : ... .. . ... ... : ... .. . ... ... : ... .. . ... : ... .. 3 ... : ... .. . ...
ROW C2 : ... .. . ... ... : ... .. . V02 ... : ... .. . ... : ... .. . ... : ... .. . ...
ROW C3 : ... .. . ... ... : ... .. . ... ... : ... .. . ... : ... .. 2 ... : ... .. . ...
ROW C4 : ... .. . ... ... : ... .. 3 V01 ... : ... .. . ... : 4-# 00 9 ... : ... .. . ...
ROW C5 : ... .. . ... ... : ... .. . ... ... : ... .. . ... : 7-# 00 7 ... : ... .. . ...
ROW C6 : ... .. . ... ... : ... .. . V02 ... : ... .. . ... : ... .. 5 ... : ... .. . ...
ROW C7 : ... .. . ... ... : ... .. . ... ... : ... .. . ... : ... .. 4 ... : ... .. . ...
ROW C8 : ... .. . ... ... : ... .. . V01 ... : ... .. . ... : ... .. 3 ... : ... .. . ...
ROW C9 : ... .. . ... ... : ... .. . ... ... : ... .. . ... : ... .. . ... : ... .. . ...
ROW CA : ... .. . ... ... : ... .. . V02 ... : ... .. . ... : B-# 00 2 ... : ... .. . ...
ROW CB : ... .. . ... ... : ... .. . ... ... : ... .. . ... : 4-# 00 9 ... : ... .. . ...
ROW CC : ... .. . ... ... : ... .. . V01 ... : ... .. . ... : 7-# 00 7 ... : ... .. . ...
ROW CD : ... .. . ... ... : ... .. . ... ... : ... .. . ... : ... .. 5 ... : ... .. . ...
ROW CE : ... .. . ... ... : ... .. . V02 ... : ... .. . ... : ... .. 4 ... : ... .. . ...
ROW CF : ... .. . ... ... : ... .. . ... ... : ... .. . ... : ... .. 3 ... : ... .. . ...
ROW D0 : ... .. . ... ... : ... .. . V01 ... : ... .. . ... : ... .. . ... : ... .. . ...
ROW D1 : ... .. . ... ... : ... .. . ... ... : ... .. . ... : B-# 00 2 ... : ... .. . ...
ROW D2 : ... .. . ... ... : ... .. . V02 ... : ... .. . ... : 4-# 00 9 ... : ... .. . ...
ROW D3 : ... .. . ... ... : ... .. . ... ... : ... .. . ... : 7-# 00 7 ... : ... .. . ...
ROW D4 : ... .. . ... ... : ... .. . V01 ... : ... .. . ... : ... .. 5 ... : ... .. . ...
ROW D5 : ... .. . ... ... : ... .. . ... ... : ... .. . ... : ... .. 4 ... : ... .. . ...
ROW D6 : ... .. . ... ... : ... .. . V02 ... : ... .. . ... : ... .. 3 ... : ... .. . ...
ROW D7 : ... .. . ... ... : ... .. . ... ... : ... .. . ... : ... .. . ... : ... .. . ...
ROW D8 : ... .. . ... ... : ... .. . V01 ... : ... .. . ... : B-# 00 2 ... : ... .. . ...
ROW D9 : ... .. . ... ... : ... .. . ... ... : ... .. . ... : 4-# 00 9 ... : ... .. . ...
ROW DA : ... .. . ... ... : ... .. . V02 ... : ... .. . ... : 7-# 00 7 ... : ... .. . ...
ROW DB : ... .. . ... ... : ... .. . ... ... : ... .. . ... : ... .. 5 ... : ... .. . ...
ROW DC : ... .. . ... ... : ... .. . V01 ... : ... .. . ... : ... .. 4 ... : ... .. . ...
ROW DD : ... .. . ... ... : ... .. . ... ... : ... .. . ... : ... .. 3 ... : ... .. . ...
ROW DE : ... .. . ... ... : ... .. . V02 ... : ... .. . ... : ... .. . ... : ... .. . ...
ROW DF : ... .. . ... ... : ... .. . ... ... : ... .. . ... : B-# 00 2 ... : ... .. . ...
ROW E0 : ... .. . ... ... : ... .. . ... ... : ... .. . ... : ... .. . ... : ... .. . ...
ROW E1 : ... .. . ... ... : ... .. . ... ... : ... .. . ... : ... .. . ... : ... .. . ...
ROW E2 : ... .. . ... ... : ... .. . ... ... : ... .. . ... : ... .. . ... : ... .. . ...
ROW E3 : ... .. . ... ... : ... .. . ... ... : ... .. . ... : ... .. . ... : ... .. . ...
ROW E4 : ... .. . ... ... : ... .. . ... ... : ... .. . ... : ... .. . ... : ... .. . ...
ROW E5 : ... .. . ... ... : ... .. . ... ... : ... .. . ... : ... .. . ... : ... .. . ...
ROW E6 : ... .. . ... ... : ... .. . ... ... : ... .. . ... : ... .. . ... : ... .. . ...
ROW E7 : ... .. . ... ... : ... .. . ... ... : ... .. . ... : ... .. . ... : ... .. . ...
ROW E8 : ... .. . ... ... : ... .. . ... ... : ... .. . ... : ... .. . ... : ... .. . ...
ROW E9 : ... .. . ... ... : ... .. . ... ... : ... .. . ... : ... .. . ... : ... .. . ...
ROW EA : ... .. . ... ... : ... .. . ... ... : ... .. . ... : ... .. . ... : ... .. . ...
ROW EB : ... .. . ... ... : ... .. . ... ... : ... .. . ... : ... .. . ... : ... .. . ...
ROW EC : ... .. . ... ... : ... .. . ... ... : ... .. . ... : ... .. . ... : ... .. . ...
ROW ED : ... .. . ... ... : ... .. . ... ... : ... .. . ... : ... .. . ... : ... .. . ...
ROW EE : ... .. . ... ... : ... .. . ... ... : ... .. . ... : ... .. . ... : ... .. . ...
ROW EF : ... .. . ... ... : ... .. . ... ... : ... .. . ... : ... .. . ... : ... .. . ...
ROW F0 : ... .. . ... ... : ... .. . ... ... : ... .. . ... : ... .. . ... : ... .. . ...
ROW F1 : ... .. . ... ... : ... .. . ... ... : ... .. . ... : ... .. . ... : ... .. . ...
ROW F2 : ... .. . ... ... : ... .. . ... ... : ... .. . ... : ... .. . ... : ... .. . ...
ROW F3 : ... .. . ... ... : ... .. . ... ... : ... .. . ... : ... .. . ... : ... .. . ...
ROW F4 : ... .. . ... ... : ... .. . ... ... : ... .. . ... : ... .. . ... : ... .. . ...
ROW F5 : ... .. . ... ... : ... .. . ... ... : ... .. . ... : ... .. . ... : ... .. . ...
ROW F6 : ... .. . ... ... : ... .. . ... ... : ... .. . ... : ... .. . ... : ... .. . ...
ROW F7 : ... .. . ... ... : ... .. . ... ... : ... .. . ... : ... .. . ... : ... .. . ...
ROW F8 : ... .. . ... ... : ... .. . ... ... : ... .. . ... : ... .. . ... : ... .. . ...
ROW F9 : ... .. . ... ... : ... .. . ... ... : ... .. . ... : ... .. . ... : ... .. . ...
ROW FA : ... .. . ... ... : ... .. . ... ... : ... .. . ... : ... .. . ... : ... .. . ...
ROW FB : ... .. . ... ... : ... .. . ... ... : ... .. . ... : ... .. . ... : ... .. . ...
ROW FC : ... .. . ... ... : ... .. . ... ... : ... .. . ... : ... .. . ... : ... .. . ...
ROW FD : ... .. . ... ... : ... .. . ... ... : ... .. . ... : ... .. . ... : ... .. . ...
ROW FE : ... .. . ... ... : ... .. . ... ... : ... .. . ... : ... .. . ... : ... .. . ...
ROW FF : ... .. . ... ... : ... .. . ... ... : ... .. . ... : ... .. . ... : ... .. . ...

PATTERN 13
ROW 00 : ... .. . ... ... : F#4 00 2 V01 P81 : ... .. . ... : ... .. . ... : ... .. . ...
ROW 01 : ... .. . ... ... : ... .. . ... ... : ... .. . ... : ... .. . ... : ... .. . ...
ROW 02 : ... .. . ... ... : ... .. . V02 ... : ... .. . ... : ... .. 1 ... : ... .. . ...
ROW 03 : ... .. . ... ... : A-3 00 . ... ... : ... .. . ... : ... .. . ... : ... .. . ...
ROW 04 : ... .. . ... ... : ... .. . V01 ... : ... .. . ... : ... .. . ... : ... .. . ...
ROW 05 : ... .. . ... ... : C#4 00 . ... ... : ... .. . ... : ... .. . ... : ... .. . ...
ROW 06 : ... .. . ... ... : ... .. . V02 ... : ... .. . ... : ... .. . ... : ... .. . ...
ROW 07 : ... .. . ... ... : F#4 00 . ... ... : ... .. . ... : ... .. . ... : ... .. . ...
ROW 08 : ... .. . ... ... : ... .. . V01 ... : ... .. . ... : ... .. . ... : ... .. . ...
ROW 09 : ... .. . ... ... : ... .. . ... ... : ... .. . ... : ... .. . ... : ... .. . ...
ROW 0A : ... .. . ... ... : A-3 00 . V02 ... : ... .. . ... : ... .. . ... : ... .. . ...
ROW 0B : ... .. . ... ... : ... .. . ... ... : ... .. . ... : ... .. . ... : ... .. . ...
ROW 0C : ... .. . ... ... : C#4 00 . V01 ... : ... .. . ... : ... .. . ... : ... .. . ...
ROW 0D : ... .. . ... ... : ... .. . ... ... : ... .. . ... : ... .. . ... : ... .. . ...
ROW 0E : ... .. . ... ... : F#4 00 . V02 ... : ... .. . ... : ... .. . ... : ... .. . ...
ROW 0F : ... .. . ... ... : ... .. . ... ... : ... .. . ... : ... .. . ... : ... .. . ...
ROW 10 : ... .. . ... ... : ... .. . V01 ... : ... .. . ... : ... .. 0 ... : ... .. . ...
ROW 11 : ... .. . ... ... : A-3 00 . ... ... : ... .. . ... : ... .. . ... : ... .. . ...
ROW 12 : ... .. . ... ... : ... .. . V02 ... : ... .. . ... : ... .. . ... : ... .. . ...
ROW 13 : ... .. . ... ... : C#4 00 . ... ... : ... .. . ... : ... .. . ... : ... .. . ...
ROW 14 : ... .. . ... ... : ... .. . V01 ... : ... .. . ... : ... .. . ... : ... .. . ...
ROW 15 : ... .. . ... ... : F#4 00 . ... ... : ... .. . ... : ... .. . ... : ... .. . ...
ROW 16 : ... .. . ... ... : ... .. . V02 ... : ... .. . ... : ... .. . ... : ... .. . ...
ROW 17 : ... .. . ... ... : ... .. . ... ... : ... .. . ... : ... .. . ... : ... .. . ...
ROW 18 : ... .. . ... ... : A-3 00 . V01 ... : ... .. . ... : ... .. . ... : ... .. . ...
ROW 19 : ... .. . ... ... : ... .. . ... ... : ... .. . ... : ... .. . ... : ... .. . ...
ROW 1A : ... .. . ... ... : C#4 00 . V02 ... : ... .. . ... : ... .. . ... : ... .. . ...
ROW 1B : ... .. . ... ... : ... .. . ... ... : ... .. . ... : ... .. . ... : ... .. . ...
ROW 1C : ... .. . ... ... : F#4 00 . V01 ... : ... .. . ... : ... .. . ... : ... .. . ...
ROW 1D : ... .. . ... ... : ... .. . ... ... : ... .. . ... : ... .. . ... : ... .. . ...
ROW 1E : ... .. . ... ... : ... .. . V02 ... : ... .. . ... : ... .. . ... : ... .. . ...
ROW 1F : ... .. . ... ... : A-3 00 . ... ... : ... .. . ... : ... .. . ... : ... .. . ...
ROW 20 : ... .. . ... ... : ... .. . V01 ... : ... .. . ... : ... .. . ... : ... .. . ...
ROW 21 : ... .. . ... ... : C#4 00 . ... ... : ... .. . ... : ... .. . ... : ... .. . ...
ROW 22 : ... .. . ... ... : ... .. . V02 ... : ... .. . ... : ... .. . ... : ... .. . ...
ROW 23 : ... .. . ... ... : F#4 00 . ... ... : ... .. . ... : ... .. . ... : ... .. . ...
ROW 24 : ... .. . ... ... : ... .. . V01 ... : ... .. . ... : ... .. . ... : ... .. . ...
ROW 25 : ... .. . ... ... : ... .. . ... ... : ... .. . ... : ... .. . ... : ... .. . ...
ROW 26 : ... .. . ... ... : A-3 00 . V02 ... : ... .. . ... : ... .. . ... : ... .. . ...
ROW 27 : ... .. . ... ... : ... .. . ... ... : ... .. . ... : ... .. . ... : ... .. . ...
ROW 28 : ... .. . ... ... : C#4 00 . V01 ... : ... .. . ... : ... .. . ... : ... .. . ...
ROW 29 : ... .. . ... ... : ... .. . ... ... : ... .. . ... : ... .. . ... : ... .. . ...
ROW 2A : ... .. . ... ... : F#4 00 . V02 ... : ... .. . ... : ... .. . ... : ... .. . ...
ROW 2B : ... .. . ... ... : ... .. . ... ... : ... .. . ... : ... .. . ... : ... .. . ...
ROW 2C : ... .. . ... ... : ... .. . V01 ... : ... .. . ... : ... .. . ... : ... .. . ...
ROW 2D : ... .. . ... ... : A-3 00 . ... ... : ... .. . ... : ... .. . ... : ... .. . ...
ROW 2E : ... .. . ... ... : ... .. . V02 ... : ... .. . ... : ... .. . ... : ... .. . ...
ROW 2F : ... .. . ... ... : C#4 00 . ... ... : ... .. . ... : ... .. . ... : ... .. . ...
ROW 30 : ... .. . ... ... : ... .. . V01 ... : ... .. . ... : ... .. . ... : ... .. . ...
ROW 31 : ... .. . ... ... : F#4 00 . ... ... : ... .. . ... : ... .. . ... : ... .. . ...
ROW 32 : ... .. . ... ... : ... .. . V02 ... : ... .. . ... : ... .. . ... : ... .. . ...
ROW 33 : ... .. . ... ... : ... .. . ... ... : ... .. . ... : ... .. . ... : ... .. . ...
ROW 34 : ... .. . ... ... : A-3 00 . V01 ... : ... .. . ... : ... .. . ... : ... .. . ...
ROW 35 : ... .. . ... ... : ... .. . ... ... : ... .. . ... : ... .. . ... : ... .. . ...
ROW 36 : ... .. . ... ... : C#4 00 . V02 ... : ... .. . ... : ... .. . ... : ... .. . ...
ROW 37 : ... .. . ... ... : ... .. . ... ... : ... .. . ... : ... .. . ... : ... .. . ...
ROW 38 : ... .. . ... ... : F#4 00 . V01 ... : ... .. . ... : ... .. . ... : ... .. . ...
ROW 39 : ... .. . ... ... : ... .. . ... ... : ... .. . ... : ... .. . ... : ... .. . ...
ROW 3A : ... .. . ... ... : ... .. . V02 ... : ... .. . ... : ... .. . ... : ... .. . ...
ROW 3B : ... .. . ... ... : A-3 00 . ... ... : ... .. . ... : ... .. . ... : ... .. . ...
ROW 3C : ... .. . ... ... : ... .. . V01 ... : ... .. . ... : ... .. . ... : ... .. . ...
ROW 3D : ... .. . ... ... : C#4 00 . ... ... : ... .. . ... : ... .. . ... : ... .. . ...
ROW 3E : ... .. . ... ... : ... .. . V02 ... : ... .. . ... : ... .. . ... : ... .. . ...
ROW 3F : ... .. . ... ... : F#4 00 . ... ... : ... .. . ... : ... .. . ... : ... .. . ...
ROW 40 : ... .. . ... ... : ... .. . V01 ... : ... .. . ... : ... .. . ... : ... .. . ...
ROW 41 : ... .. . ... ... : ... .. . ... ... : ... .. . ... : ... .. . ... : ... .. . ...
ROW 42 : ... .. . ... ... : A-3 00 . V02 ... : ... .. . ... : ... .. . ... : ... .. . ...
ROW 43 : ... .. . ... ... : ... .. . ... ... : ... .. . ... : ... .. . ... : ... .. . ...
ROW 44 : ... .. . ... ... : C#4 00 . V01 ... : ... .. . ... : ... .. . ... : ... .. . ...
ROW 45 : ... .. . ... ... : ... .. . ... ... : ... .. . ... : ... .. . ... : ... .. . ...
ROW 46 : ... .. . ... ... : F#4 00 . V02 ... : ... .. . ... : ... .. . ... : ... .. . ...
ROW 47 : ... .. . ... ... : ... .. . ... ... : ... .. . ... : ... .. . ... : ... .. . ...
ROW 48 : ... .. . ... ... : ... .. . V01 ... : ... .. . ... : ... .. . ... : ... .. . ...
ROW 49 : ... .. . ... ... : A-3 00 . ... ... : ... .. . ... : ... .. . ... : ... .. . ...
ROW 4A : ... .. . ... ... : ... .. . V02 ... : ... .. . ... : ... .. . ... : ... .. . ...
ROW 4B : ... .. . ... ... : C#4 00 . ... ... : ... .. . ... : ... .. . ... : ... .. . ...
ROW 4C : ... .. . ... ... : ... .. . V01 ... : ... .. . ... : ... .. . ... : ... .. . ...
ROW 4D : ... .. . ... ... : F#4 00 . ... ... : ... .. . ... : ... .. . ... : ... .. . ...
ROW 4E : ... .. . ... ... : ... .. . V02 ... : ... .. . ... : ... .. . ... : ... .. . ...
ROW 4F : ... .. . ... ... : ... .. . ... ... : ... .. . ... : ... .. . ... : ... .. . ...
ROW 50 : ... .. . ... ... : A-3 00 . V01 ... : ... .. . ... : ... .. . ... : ... .. . ...
ROW 51 : ... .. . ... ... : ... .. . ... ... : ... .. . ... : ... .. . ... : ... .. . ...
ROW 52 : ... .. . ... ... : C#4 00 . V02 ... : ... .. . ... : ... .. . ... : ... .. . ...
ROW 53 : ... .. . ... ... : ... .. . ... ... : ... .. . ... : ... .. . ... : ... .. . ...
ROW 54 : ... .. . ... ... : F#4 00 . V01 ... : ... .. . ... : ... .. . ... : ... .. . ...
ROW 55 : ... .. . ... ... : ... .. . ... ... : ... .. . ... : ... .. . ... : ... .. . ...
ROW 56 : ... .. . ... ... : ... .. . V02 ... : ... .. . ... : ... .. . ... : ... .. . ...
ROW 57 : ... .. . ... ... : A-3 00 . ... ... : ... .. . ... : ... .. . ... : ... .. . ...
ROW 58 : ... .. . ... ... : ... .. . V01 ... : ... .. . ... : ... .. . ... : ... .. . ...
ROW 59 : ... .. . ... ... : C#4 00 . ... ... : ... .. . ... : ... .. . ... : ... .. . ...
ROW 5A : ... .. . ... ... : ... .. . V02 ... : ... .. . ... : ... .. . ... : ... .. . ...
ROW 5B : ... .. . ... ... : F#4 00 . ... ... : ... .. . ... : ... .. . ... : ... .. . ...
ROW 5C : ... .. . ... ... : ... .. . V01 ... : ... .. . ... : ... .. . ... : ... .. . ...
ROW 5D : ... .. . ... ... : ... .. . ... ... : ... .. . ... : ... .. . ... : ... .. . ...
ROW 5E : ... .. . ... ... : A-3 00 . V02 ... : ... .. . ... : ... .. . ... : ... .. . ...
ROW 5F : ... .. . ... ... : ... .. . ... ... : ... .. . ... : ... .. . ... : ... .. . ...
ROW 60 : ... .. . ... ... : C#4 00 . V01 ... : ... .. . ... : ... .. . ... : ... .. . ...
ROW 61 : ... .. . ... ... : ... .. . ... ... : ... .. . ... : ... .. . ... : ... .. . ...
ROW 62 : ... .. . ... ... : F#4 00 . V02 ... : ... .. . ... : ... .. . ... : ... .. . ...
ROW 63 : ... .. . ... ... : ... .. . ... ... : ... .. . ... : ... .. . ... : ... .. . ...
ROW 64 : ... .. . ... ... : ... .. . V01 ... : ... .. . ... : ... .. . ... : ... .. . ...
ROW 65 : ... .. . ... ... : A-3 00 . ... ... : ... .. . ... : ... .. . ... : ... .. . ...
ROW 66 : ... .. . ... ... : ... .. . V02 ... : ... .. . ... : ... .. . ... : ... .. . ...
ROW 67 : ... .. . ... ... : C#4 00 . ... ... : ... .. . ... : ... .. . ... : ... .. . ...
ROW 68 : ... .. . ... ... : ... .. . V01 ... : ... .. . ... : ... .. . ... : ... .. . ...
ROW 69 : ... .. . ... ... : F#4 00 . ... ... : ... .. . ... : ... .. . ... : ... .. . ...
ROW 6A : ... .. . ... ... : ... .. . V02 ... : ... .. . ... : ... .. . ... : ... .. . ...
ROW 6B : ... .. . ... ... : ... .. . ... ... : ... .. . ... : ... .. . ... : ... .. . ...
ROW 6C : ... .. . ... ... : A-3 00 . V01 ... : ... .. . ... : ... .. . ... : ... .. . ...
ROW 6D : ... .. . ... ... : ... .. . ... ... : ... .. . ... : ... .. . ... : ... .. . ...
ROW 6E : ... .. . ... ... : C#4 00 . V02 ... : ... .. . ... : ... .. . ... : ... .. . ...
ROW 6F : ... .. . ... ... : ... .. . ... ... : ... .. . ... : ... .. . ... : ... .. . ...
ROW 70 : ... .. . ... ... : F#4 00 . V01 ... : ... .. . ... : ... .. . ... : ... .. . ...
ROW 71 : ... .. . ... ... : ... .. . ... ... : ... .. . ... : ... .. . ... : ... .. . ...
ROW 72 : ... .. . ... ... : ... .. . V02 ... : ... .. . ... : ... .. . ... : ... .. . ...
ROW 73 : ... .. . ... ... : A-3 00 . ... ... : ... .. . ... : ... .. . ... : ... .. . ...
ROW 74 : ... .. . ... ... : ... .. . V01 ... : ... .. . ... : ... .. . ... : ... .. . ...
ROW 75 : ... .. . ... ... : D-4 00 . ... ... : ... .. . ... : ... .. . ... : ... .. . ...
ROW 76 : ... .. . ... ... : ... .. . V02 ... : ... .. . ... : ... .. . ... : ... .. . ...
ROW 77 : ... .. . ... ... : F#4 00 . ... ... : ... .. . ... : ... .. . ... : ... .. . ...
ROW 78 : ... .. . ... ... : ... .. . V01 ... : ... .. . ... : ... .. . ... : ... .. . ...
ROW 79 : ... .. . ... ... : ... .. . ... ... : ... .. . ... : ... .. . ... : ... .. . ...
ROW 7A : ... .. . ... ... : A-3 00 . V02 ... : ... .. . ... : ... .. . ... : ... .. . ...
ROW 7B : ... .. . ... ... : ... .. . ... ... : ... .. . ... : ... .. . ... : ... .. . ...
ROW 7C : ... .. . ... ... : D-4 00 . V01 ... : ... .. . ... : ... .. . ... : ... .. . ...
ROW 7D : ... .. . ... ... : ... .. . ... ... : ... .. . ... : ... .. . ... : ... .. . ...
ROW 7E : ... .. . ... ... : F#4 00 . V02 ... : ... .. . ... : ... .. . ... : ... .. . ...
ROW 7F : ... .. . ... ... : ... .. . ... ... : ... .. . ... : ... .. . ... : ... .. . ...
ROW 80 : ... .. . ... ... : ... .. . V01 ... : ... .. . ... : ... .. . ... : ... .. . ...
ROW 81 : ... .. . ... ... : A-3 00 . ... ... : ... .. . ... : ... .. . ... : ... .. . ...
ROW 82 : ... .. . ... ... : ... .. . V02 ... : ... .. . ... : ... .. . ... : ... .. . ...
ROW 83 : ... .. . ... ... : D-4 00 . ... ... : ... .. . ... : ... .. . ... : ... .. . ...
ROW 84 : ... .. . ... ... : ... .. . V01 ... : ... .. . ... : ... .. . ... : ... .. . ...
ROW 85 : ... .. . ... ... : F#4 00 . ... ... : ... .. . ... : ... .. . ... : ... .. . ...
ROW 86 : ... .. . ... ... : ... .. . V02 ... : ... .. . ... : ... .. . ... : ... .. . ...
ROW 87 : ... .. . ... ... : ... .. . ... ... : ... .. . ... : ... .. . ... : ... .. . ...
ROW 88 : ... .. . ... ... : A-3 00 . V01 ... : ... .. . ... : ... .. . ... : ... .. . ...
ROW 89 : ... .. . ... ... : ... .. . ... ... : ... .. . ... : ... .. . ... : ... .. . ...
ROW 8A : ... .. . ... ... : D-4 00 . V02 ... : ... .. . ... : ... .. . ... : ... .. . ...
ROW 8B : ... .. . ... ... : ... .. . ... ... : ... .. . ... : ... .. . ... : ... .. . ...
ROW 8C : ... .. . ... ... : F#4 00 . V01 ... : ... .. . ... : ... .. . ... : ... .. . ...
ROW 8D : ... .. . ... ... : ... .. . ... ... : ... .. . ... : ... .. . ... : ... .. . ...
ROW 8E : ... .. . ... ... : ... .. . V02 ... : ... .. . ... : ... .. . ... : ... .. . ...
ROW 8F : ... .. . ... ... : A-3 00 . ... ... : ... .. . ... : ... .. . ... : ... .. . ...
ROW 90 : ... .. . ... ... : ... .. . V01 ... : ... .. . ... : ... .. . ... : ... .. . ...
ROW 91 : ... .. . ... ... : D-4 00 . ... ... : ... .. . ... : ... .. . ... : ... .. . ...
ROW 92 : ... .. . ... ... : ... .. . V02 ... : ... .. . ... : ... .. . ... : ... .. . ...
ROW 93 : ... .. . ... ... : F#4 00 . ... ... : ... .. . ... : ... .. . ... : ... .. . ...
ROW 94 : ... .. . ... ... : ... .. . V01 ... : ... .. . ... : ... .. . ... : ... .. . ...
ROW 95 : ... .. . ... ... : ... .. . ... ... : ... .. . ... : ... .. . ... : ... .. . ...
ROW 96 : ... .. . ... ... : A-3 00 . V02 ... : ... .. . ... : ... .. . ... : ... .. . ...
ROW 97 : ... .. . ... ... : ... .. . ... ... : ... .. . ... : ... .. . ... : ... .. . ...
ROW 98 : ... .. . ... ... : D-4 00 . V01 ... : ... .. . ... : ... .. . ... : ... .. . ...
ROW 99 : ... .. . ... ... : ... .. . ... ... : ... .. . ... : ... .. . ... : ... .. . ...
ROW 9A : ... .. . ... ... : F#4 00 . V02 ... : ... .. . ... : ... .. . ... : ... .. . ...
ROW 9B : ... .. . ... ... : ... .. . ... ... : ... .. . ... : ... .. . ... : ... .. . ...
ROW 9C : ... .. . ... ... : ... .. . V01 ... : ... .. . ... : ... .. . ... : ... .. . ...
ROW 9D : ... .. . ... ... : A-3 00 . ... ... : ... .. . ... : ... .. . ... : ... .. . ...
ROW 9E : ... .. . ... ... : ... .. . V02 ... : ... .. . ... : ... .. . ... : ... .. . ...
ROW 9F : ... .. . ... ... : D-4 00 . ... ... : ... .. . ... : ... .. . ... : ... .. . ...
ROW A0 : ... .. . ... ... : ... .. . V01 ... : ... .. . ... : ... .. . ... : ... .. . ...
ROW A1 : ... .. . ... ... : F#4 00 . ... ... : ... .. . ... : ... .. . ... : ... .. . ...
ROW A2 : ... .. . ... ... : ... .. . V02 ... : ... .. . ... : ... .. . ... : ... .. . ...
ROW A3 : ... .. . ... ... : ... .. . ... ... : ... .. . ... : ... .. . ... : ... .. . ...
ROW A4 : ... .. . ... ... : A-3 00 . V01 ... : ... .. . ... : ... .. . ... : ... .. . ...
ROW A5 : ... .. . ... ... : ... .. . ... ... : ... .. . ... : ... .. . ... : ... .. . ...
ROW A6 : ... .. . ... ... : D-4 00 . V02 ... : ... .. . ... : ... .. . ... : ... .. . ...
ROW A7 : ... .. . ... ... : ... .. . ... ... : ... .. . ... : ... .. . ... : ... .. . ...
ROW A8 : ... .. . ... ... : F#4 00 . V01 ... : ... .. . ... : ... .. . ... : ... .. . ...
ROW A9 : ... .. . ... ... : ... .. . ... ... : ... .. . ... : ... .. . ... : ... .. . ...
ROW AA : ... .. . ... ... : ... .. . V02 ... : ... .. . ... : ... .. . ... : ... .. . ...
ROW AB : ... .. . ... ... : A-3 00 . ... ... : ... .. . ... : ... .. . ... : ... .. . ...
ROW AC : ... .. . ... ... : ... .. . V01 ... : ... .. . ... : ... .. . ... : ... .. . ...
ROW AD : ... .. . ... ... : D-4 00 . ... ... : ... .. . ... : ... .. . ... : ... .. . ...
ROW AE : ... .. . ... ... : ... .. . V02 ... : ... .. . ... : ... .. . ... : ... .. . ...
ROW AF : ... .. . ... ... : F#4 00 . ... ... : ... .. . ... : ... .. . ... : ... .. . ...
ROW B0 : ... .. . ... ... : ... .. . V01 ... : ... .. . ... : ... .. . ... : ... .. . ...
ROW B1 : ... .. . ... ... : ... .. . ... ... : ... .. . ... : ... .. . ... : ... .. . ...
ROW B2 : ... .. . ... ... : A-3 00 . V02 ... : ... .. . ... : ... .. . ... : ... .. . ...
ROW B3 : ... .. . ... ... : ... .. . ... ... : ... .. . ... : ... .. . ... : ... .. . ...
ROW B4 : ... .. . ... ... : D-4 00 . V01 ... : ... .. . ... : ... .. . ... : ... .. . ...
ROW B5 : ... .. . ... ... : ... .. . ... ... : ... .. . ... : ... .. . ... : ... .. . ...
ROW B6 : ... .. . ... ... : F#4 00 . V02 ... : ... .. . ... : ... .. . ... : ... .. . ...
ROW B7 : ... .. . ... ... : ... .. . ... ... : ... .. . ... : ... .. . ... : ... .. . ...
ROW B8 : ... .. . ... ... : ... .. . V01 ... : ... .. . ... : ... .. . ... : ... .. . ...
ROW B9 : ... .. . ... ... : A-3 00 . ... ... : ... .. . ... : ... .. . ... : ... .. . ...
ROW BA : ... .. . ... ... : ... .. . V02 ... : ... .. . ... : ... .. . ... : ... .. . ...
ROW BB : ... .. . ... ... : D-4 00 . ... ... : ... .. . ... : ... .. . ... : ... .. . ...
ROW BC : ... .. . ... ... : ... .. . V01 ... : ... .. . ... : ... .. . ... : ... .. . ...
ROW BD : ... .. . ... ... : F#4 00 . ... ... : ... .. . ... : ... .. . ... : ... .. . ...
ROW BE : ... .. . ... ... : ... .. . V02 ... : ... .. . ... : ... .. . ... : ... .. . ...
ROW BF : ... .. . ... ... : ... .. . ... ... : ... .. . ... : ... .. . ... : ... .. . ...
ROW C0 : ... .. . ... ... : A-3 00 . V01 ... : ... .. . ... : ... .. . ... : ... .. . ...
ROW C1 : ... .. . ... ... : ... .. . ... ... : ... .. . ... : ... .. . ... : ... .. . ...
ROW C2 : ... .. . ... ... : D-4 00 . V02 ... : ... .. . ... : ... .. . ... : ... .. . ...
ROW C3 : ... .. . ... ... : ... .. . ... ... : ... .. . ... : ... .. . ... : ... .. . ...
ROW C4 : ... .. . ... ... : F#4 00 . V01 ... : ... .. . ... : ... .. . ... : ... .. . ...
ROW C5 : ... .. . ... ... : ... .. . ... ... : ... .. . ... : ... .. . ... : ... .. . ...
ROW C6 : ... .. . ... ... : ... .. . V02 ... : ... .. . ... : ... .. . ... : ... .. . ...
ROW C7 : ... .. . ... ... : A-3 00 . ... ... : ... .. . ... : ... .. . ... : ... .. . ...
ROW C8 : ... .. . ... ... : ... .. . V01 ... : ... .. . ... : ... .. . ... : ... .. . ...
ROW C9 : ... .. . ... ... : D-4 00 . ... ... : ... .. . ... : ... .. . ... : ... .. . ...
ROW CA : ... .. . ... ... : ... .. . V02 ... : ... .. . ... : ... .. . ... : ... .. . ...
ROW CB : ... .. . ... ... : F#4 00 . ... ... : ... .. . ... : ... .. . ... : ... .. . ...
ROW CC : ... .. . ... ... : ... .. . V01 ... : ... .. . ... : ... .. . ... : ... .. . ...
ROW CD : ... .. . ... ... : ... .. . ... ... : ... .. . ... : ... .. . ... : ... .. . ...
ROW CE : ... .. . ... ... : A-3 00 . V02 ... : ... .. . ... : ... .. . ... : ... .. . ...
ROW CF : ... .. . ... ... : ... .. . ... ... : ... .. . ... : ... .. . ... : ... .. . ...
ROW D0 : ... .. . ... ... : D-4 00 . V01 ... : ... .. . ... : ... .. . ... : ... .. . ...
ROW D1 : ... .. . ... ... : ... .. . ... ... : ... .. . ... : ... .. . ... : ... .. . ...
ROW D2 : ... .. . ... ... : F#4 00 . V02 ... : ... .. . ... : ... .. . ... : ... .. . ...
ROW D3 : ... .. . ... ... : ... .. . ... ... : ... .. . ... : ... .. . ... : ... .. . ...
ROW D4 : ... .. . ... ... : ... .. . V01 ... : ... .. . ... : ... .. . ... : ... .. . ...
ROW D5 : ... .. . ... ... : A-3 00 . ... ... : ... .. . ... : ... .. . ... : ... .. . ...
ROW D6 : ... .. . ... ... : ... .. . V02 ... : ... .. . ... : ... .. . ... : ... .. . ...
ROW D7 : ... .. . ... ... : D-4 00 . ... ... : ... .. . ... : ... .. . ... : ... .. . ...
ROW D8 : ... .. . ... ... : ... .. . V01 ... : ... .. . ... : ... .. . ... : ... .. . ...
ROW D9 : ... .. . ... ... : F#4 00 . ... ... : ... .. . ... : ... .. . ... : ... .. . ...
ROW DA : ... .. . ... ... : ... .. . V02 ... : ... .. . ... : ... .. . ... : ... .. . ...
ROW DB : ... .. . ... ... : ... .. . ... ... : ... .. . ... : ... .. . ... : ... .. . ...
ROW DC : ... .. . ... ... : A-3 00 . V01 ... : ... .. . ... : ... .. . ... : ... .. . ...
ROW DD : ... .. . ... ... : ... .. . ... ... : ... .. . ... : ... .. . ... : ... .. . ...
ROW DE : ... .. . ... ... : D-4 00 . V02 ... : ... .. . ... : ... .. . ... : ... .. . ...
ROW DF : ... .. . ... ... : ... .. . ... ... : ... .. . ... : ... .. . ... : ... .. . ...
ROW E0 : ... .. . ... ... : ... .. . ... ... : ... .. . ... : ... .. . ... : ... .. . ...
ROW E1 : ... .. . ... ... : ... .. . ... ... : ... .. . ... : ... .. . ... : ... .. . ...
ROW E2 : ... .. . ... ... : ... .. . ... ... : ... .. . ... : ... .. . ... : ... .. . ...
ROW E3 : ... .. . ... ... : ... .. . ... ... : ... .. . ... : ... .. . ... : ... .. . ...
ROW E4 : ... .. . ... ... : ... .. . ... ... : ... .. . ... : ... .. . ... : ... .. . ...
ROW E5 : ... .. . ... ... : ... .. . ... ... : ... .. . ... : ... .. . ... : ... .. . ...
ROW E6 : ... .. . ... ... : ... .. . ... ... : ... .. . ... : ... .. . ... : ... .. . ...
ROW E7 : ... .. . ... ... : ... .. . ... ... : ... .. . ... : ... .. . ... : ... .. . ...
ROW E8 : ... .. . ... ... : ... .. . ... ... : ... .. . ... : ... .. . ... : ... .. . ...
ROW E9 : ... .. . ... ... : ... .. . ... ... : ... .. . ... : ... .. . ... : ... .. . ...
ROW EA : ... .. . ... ... : ... .. . ... ... : ... .. . ... : ... .. . ... : ... .. . ...
ROW EB : ... .. . ... ... : ... .. . ... ... : ... .. . ... : ... .. . ... : ... .. . ...
ROW EC : ... .. . ... ... : ... .. . ... ... : ... .. . ... : ... .. . ... : ... .. . ...
ROW ED : ... .. . ... ... : ... .. . ... ... : ... .. . ... : ... .. . ... : ... .. . ...
ROW EE : ... .. . ... ... : ... .. . ... ... : ... .. . ... : ... .. . ... : ... .. . ...
ROW EF : ... .. . ... ... : ... .. . ... ... : ... .. . ... : ... .. . ... : ... .. . ...
ROW F0 : ... .. . ... ... : ... .. . ... ... : ... .. . ... : ... .. . ... : ... .. . ...
ROW F1 : ... .. . ... ... : ... .. . ... ... : ... .. . ... : ... .. . ... : ... .. . ...
ROW F2 : ... .. . ... ... : ... .. . ... ... : ... .. . ... : ... .. . ... : ... .. . ...
ROW F3 : ... .. . ... ... : ... .. . ... ... : ... .. . ... : ... .. . ... : ... .. . ...
ROW F4 : ... .. . ... ... : ... .. . ... ... : ... .. . ... : ... .. . ... : ... .. . ...
ROW F5 : ... .. . ... ... : ... .. . ... ... : ... .. . ... : ... .. . ... : ... .. . ...
ROW F6 : ... .. . ... ... : ... .. . ... ... : ... .. . ... : ... .. . ... : ... .. . ...
ROW F7 : ... .. . ... ... : ... .. . ... ... : ... .. . ... : ... .. . ... : ... .. . ...
ROW F8 : ... .. . ... ... : ... .. . ... ... : ... .. . ... : ... .. . ... : ... .. . ...
ROW F9 : ... .. . ... ... : ... .. . ... ... : ... .. . ... : ... .. . ... : ... .. . ...
ROW FA : ... .. . ... ... : ... .. . ... ... : ... .. . ... : ... .. . ... : ... .. . ...
ROW FB : ... .. . ... ... : ... .. . ... ... : ... .. . ... : ... .. . ... : ... .. . ...
ROW FC : ... .. . ... ... : ... .. . ... ... : ... .. . ... : ... .. . ... : ... .. . ...
ROW FD : ... .. . ... ... : ... .. . ... ... : ... .. . ... : ... .. . ... : ... .. . ...
ROW FE : ... .. . ... ... : ... .. . ... ... : ... .. . ... : ... .. . ... : ... .. . ...
ROW FF : ... .. . ... ... : ... .. . ... ... : ... .. . ... : ... .. . ... : ... .. . ...

PATTERN 14
ROW 00 : ... .. . ... ... : E-4 00 2 V01 P81 : ... .. . ... : ... .. . ... : ... .. . ...
ROW 01 : ... .. . ... ... : ... .. . ... ... : ... .. . ... : ... .. . ... : ... .. . ...
ROW 02 : ... .. . ... ... : ... .. . V02 ... : ... .. . ... : ... .. . ... : ... .. . ...
ROW 03 : ... .. . ... ... : G#3 00 . ... ... : ... .. . ... : ... .. . ... : ... .. . ...
ROW 04 : ... .. . ... ... : ... .. . V01 ... : ... .. . ... : ... .. . ... : ... .. . ...
ROW 05 : ... .. . ... ... : B-3 00 . ... ... : ... .. . ... : ... .. . ... : ... .. . ...
ROW 06 : ... .. . ... ... : ... .. . V02 ... : ... .. . ... : ... .. . ... : ... .. . ...
ROW 07 : ... .. . ... ... : E-4 00 . ... ... : ... .. . ... : ... .. . ... : ... .. . ...
ROW 08 : ... .. . ... ... : ... .. . V01 ... : ... .. . ... : ... .. . ... : ... .. . ...
ROW 09 : ... .. . ... ... : ... .. . ... ... : ... .. . ... : ... .. . ... : ... .. . ...
ROW 0A : ... .. . ... ... : G#3 00 . V02 ... : ... .. . ... : ... .. . ... : ... .. . ...
ROW 0B : ... .. . ... ... : ... .. . ... ... : ... .. . ... : ... .. . ... : ... .. . ...
ROW 0C : ... .. . ... ... : B-3 00 . V01 ... : ... .. . ... : ... .. . ... : ... .. . ...
ROW 0D : ... .. . ... ... : ... .. . ... ... : ... .. . ... : ... .. . ... : ... .. . ...
ROW 0E : ... .. . ... ... : E-4 00 . V02 ... : ... .. . ... : ... .. . ... : ... .. . ...
ROW 0F : ... .. . ... ... : ... .. . ... ... : ... .. . ... : ... .. . ... : ... .. . ...
ROW 10 : ... .. . ... ... : ... .. . V01 ... : ... .. . ... : ... .. . ... : ... .. . ...
ROW 11 : ... .. . ... ... : G#3 00 . ... ... : ... .. . ... : ... .. . ... : ... .. . ...
ROW 12 : ... .. . ... ... : ... .. . V02 ... : ... .. . ... : ... .. . ... : ... .. . ...
ROW 13 : ... .. . ... ... : B-3 00 . ... ... : ... .. . ... : ... .. . ... : ... .. . ...
ROW 14 : ... .. . ... ... : ... .. . V01 ... : ... .. . ... : ... .. . ... : ... .. . ...
ROW 15 : ... .. . ... ... : E-4 00 . ... ... : ... .. . ... : ... .. . ... : ... .. . ...
ROW 16 : ... .. . ... ... : ... .. . V02 ... : ... .. . ... : ... .. . ... : ... .. . ...
ROW 17 : ... .. . ... ... : ... .. . ... ... : ... .. . ... : ... .. . ... : ... .. . ...
ROW 18 : ... .. . ... ... : G#3 00 . V01 ... : ... .. . ... : ... .. . ... : ... .. . ...
ROW 19 : ... .. . ... ... : ... .. . ... ... : ... .. . ... : ... .. . ... : ... .. . ...
ROW 1A : ... .. . ... ... : B-3 00 . V02 ... : ... .. . ... : ... .. . ... : ... .. . ...
ROW 1B : ... .. . ... ... : ... .. . ... ... : ... .. . ... : ... .. . ... : ... .. . ...
ROW 1C : ... .. . ... ... : E-4 00 . V01 ... : ... .. . ... : ... .. . ... : ... .. . ...
ROW 1D : ... .. . ... ... : ... .. . ... ... : ... .. . ... : ... .. . ... : ... .. . ...
ROW 1E : ... .. . ... ... : ... .. . V02 ... : ... .. . ... : ... .. . ... : ... .. . ...
ROW 1F : ... .. . ... ... : G#3 00 . ... ... : ... .. . ... : ... .. . ... : ... .. . ...
ROW 20 : ... .. . ... ... : ... .. . V01 ... : ... .. . ... : ... .. . ... : ... .. . ...
ROW 21 : ... .. . ... ... : B-3 00 . ... ... : ... .. . ... : ... .. . ... : ... .. . ...
ROW 22 : ... .. . ... ... : ... .. . V02 ... : ... .. . ... : ... .. . ... : ... .. . ...
ROW 23 : ... .. . ... ... : E-4 00 . ... ... : ... .. . ... : ... .. . ... : ... .. . ...
ROW 24 : ... .. . ... ... : ... .. . V01 ... : ... .. . ... : ... .. . ... : ... .. . ...
ROW 25 : ... .. . ... ... : ... .. . ... ... : ... .. . ... : ... .. . ... : ... .. . ...
ROW 26 : ... .. . ... ... : G#3 00 . V02 ... : ... .. . ... : ... .. . ... : ... .. . ...
ROW 27 : ... .. . ... ... : ... .. . ... ... : ... .. . ... : ... .. . ... : ... .. . ...
ROW 28 : ... .. . ... ... : B-3 00 . V01 ... : ... .. . ... : ... .. . ... : ... .. . ...
ROW 29 : ... .. . ... ... : ... .. . ... ... : ... .. . ... : ... .. . ... : ... .. . ...
ROW 2A : ... .. . ... ... : E-4 00 . V02 ... : ... .. . ... : ... .. . ... : ... .. . ...
ROW 2B : ... .. . ... ... : ... .. . ... ... : ... .. . ... : ... .. . ... : ... .. . ...
ROW 2C : ... .. . ... ... : ... .. . V01 ... : ... .. . ... : ... .. . ... : ... .. . ...
ROW 2D : ... .. . ... ... : G#3 00 . ... ... : ... .. . ... : ... .. . ... : ... .. . ...
ROW 2E : ... .. . ... ... : ... .. . V02 ... : ... .. . ... : ... .. . ... : ... .. . ...
ROW 2F : ... .. . ... ... : B-3 00 . ... ... : ... .. . ... : ... .. . ... : ... .. . ...
ROW 30 : ... .. . ... ... : ... .. . V01 ... : ... .. . ... : ... .. . ... : ... .. . ...
ROW 31 : ... .. . ... ... : E-4 00 . ... ... : ... .. . ... : ... .. . ... : ... .. . ...
ROW 32 : ... .. . ... ... : ... .. . V02 ... : ... .. . ... : ... .. . ... : ... .. . ...
ROW 33 : ... .. . ... ... : ... .. . ... ... : ... .. . ... : ... .. . ... : ... .. . ...
ROW 34 : ... .. . ... ... : G#3 00 . V01 ... : ... .. . ... : ... .. . ... : ... .. . ...
ROW 35 : ... .. . ... ... : ... .. . ... ... : ... .. . ... : ... .. . ... : ... .. . ...
ROW 36 : ... .. . ... ... : B-3 00 . V02 ... : ... .. . ... : ... .. . ... : ... .. . ...
ROW 37 : ... .. . ... ... : ... .. . ... ... : ... .. . ... : ... .. . ... : ... .. . ...
ROW 38 : ... .. . ... ... : E-4 00 . V01 ... : ... .. . ... : ... .. . ... : ... .. . ...
ROW 39 : ... .. . ... ... : ... .. . ... ... : ... .. . ... : ... .. . ... : ... .. . ...
ROW 3A : ... .. . ... ... : ... .. . V02 ... : ... .. . ... : ... .. . ... : ... .. . ...
ROW 3B : ... .. . ... ... : G#3 00 . ... ... : ... .. . ... : ... .. . ... : ... .. . ...
ROW 3C : ... .. . ... ... : ... .. . V01 ... : ... .. . ... : ... .. . ... : ... .. . ...
ROW 3D : ... .. . ... ... : B-3 00 . ... ... : ... .. . ... : ... .. . ... : ... .. . ...
ROW 3E : ... .. . ... ... : ... .. . V02 ... : ... .. . ... : ... .. . ... : ... .. . ...
ROW 3F : ... .. . ... ... : E-4 00 . ... ... : ... .. . ... : ... .. . ... : ... .. . ...
ROW 40 : ... .. . ... ... : ... .. . V01 ... : ... .. . ... : ... .. . ... : ... .. . ...
ROW 41 : ... .. . ... ... : ... .. . ... ... : ... .. . ... : ... .. . ... : ... .. . ...
ROW 42 : ... .. . ... ... : G#3 00 . V02 ... : ... .. . ... : ... .. . ... : ... .. . ...
ROW 43 : ... .. . ... ... : ... .. . ... ... : ... .. . ... : ... .. . ... : ... .. . ...
ROW 44 : ... .. . ... ... : B-3 00 . V01 ... : ... .. . ... : ... .. . ... : ... .. . ...
ROW 45 : ... .. . ... ... : ... .. . ... ... : ... .. . ... : ... .. . ... : ... .. . ...
ROW 46 : ... .. . ... ... : E-4 00 . V02 ... : ... .. . ... : ... .. . ... : ... .. . ...
ROW 47 : ... .. . ... ... : ... .. . ... ... : ... .. . ... : ... .. . ... : ... .. . ...
ROW 48 : ... .. . ... ... : ... .. . V01 ... : ... .. . ... : ... .. . ... : ... .. . ...
ROW 49 : ... .. . ... ... : G#3 00 . ... ... : ... .. . ... : ... .. . ... : ... .. . ...
ROW 4A : ... .. . ... ... : ... .. . V02 ... : ... .. . ... : ... .. . ... : ... .. . ...
ROW 4B : ... .. . ... ... : B-3 00 . ... ... : ... .. . ... : ... .. . ... : ... .. . ...
ROW 4C : ... .. . ... ... : ... .. . V01 ... : ... .. . ... : ... .. . ... : ... .. . ...
ROW 4D : ... .. . ... ... : E-4 00 . ... ... : ... .. . ... : ... .. . ... : ... .. . ...
ROW 4E : ... .. . ... ... : ... .. . V02 ... : ... .. . ... : ... .. . ... : ... .. . ...
ROW 4F : ... .. . ... ... : ... .. . ... ... : ... .. . ... : ... .. . ... : ... .. . ...
ROW 50 : ... .. . ... ... : G#3 00 . V01 ... : ... .. . ... : ... .. . ... : ... .. . ...
ROW 51 : ... .. . ... ... : ... .. . ... ... : ... .. . ... : ... .. . ... : ... .. . ...
ROW 52 : ... .. . ... ... : B-3 00 . V02 ... : ... .. . ... : ... .. . ... : ... .. . ...
ROW 53 : ... .. . ... ... : ... .. . ... ... : ... .. . ... : ... .. . ... : ... .. . ...
ROW 54 : ... .. . ... ... : E-4 00 . V01 ... : ... .. . ... : ... .. . ... : ... .. . ...
ROW 55 : ... .. . ... ... : ... .. . ... ... : ... .. . ... : ... .. . ... : ... .. . ...
ROW 56 : ... .. . ... ... : ... .. . V02 ... : ... .. . ... : ... .. . ... : ... .. . ...
ROW 57 : ... .. . ... ... : G#3 00 . ... ... : ... .. . ... : ... .. . ... : ... .. . ...
ROW 58 : ... .. . ... ... : ... .. . V01 ... : ... .. . ... : ... .. . ... : ... .. . ...
ROW 59 : ... .. . ... ... : B-3 00 . ... ... : ... .. . ... : ... .. . ... : ... .. . ...
ROW 5A : ... .. . ... ... : ... .. . V02 ... : ... .. . ... : ... .. . ... : ... .. . ...
ROW 5B : ... .. . ... ... : E-4 00 . ... ... : ... .. . ... : ... .. . ... : ... .. . ...
ROW 5C : ... .. . ... ... : ... .. . V01 ... : ... .. . ... : ... .. . ... : ... .. . ...
ROW 5D : ... .. . ... ... : ... .. . ... ... : ... .. . ... : ... .. . ... : ... .. . ...
ROW 5E : ... .. . ... ... : G#3 00 . V02 ... : ... .. . ... : ... .. . ... : ... .. . ...
ROW 5F : ... .. . ... ... : ... .. . ... ... : ... .. . ... : ... .. . ... : ... .. . ...
ROW 60 : ... .. . ... ... : B-3 00 . V01 ... : ... .. . ... : ... .. . ... : ... .. . ...
ROW 61 : ... .. . ... ... : ... .. . ... ... : ... .. . ... : ... .. . ... : ... .. . ...
ROW 62 : ... .. . ... ... : E-4 00 . V02 ... : ... .. . ... : ... .. . ... : ... .. . ...
ROW 63 : ... .. . ... ... : ... .. . ... ... : ... .. . ... : ... .. . ... : ... .. . ...
ROW 64 : ... .. . ... ... : ... .. . V01 ... : ... .. . ... : ... .. . ... : ... .. . ...
ROW 65 : ... .. . ... ... : G#3 00 . ... ... : ... .. . ... : ... .. . ... : ... .. . ...
ROW 66 : ... .. . ... ... : ... .. . V02 ... : ... .. . ... : ... .. . ... : ... .. . ...
ROW 67 : ... .. . ... ... : B-3 00 . ... ... : ... .. . ... : ... .. . ... : ... .. . ...
ROW 68 : ... .. . ... ... : ... .. . V01 ... : ... .. . ... : ... .. . ... : ... .. . ...
ROW 69 : ... .. . ... ... : E-4 00 . ... ... : ... .. . ... : ... .. . ... : ... .. . ...
ROW 6A : ... .. . ... ... : ... .. . V02 ... : ... .. . ... : ... .. . ... : ... .. . ...
ROW 6B : ... .. . ... ... : ... .. . ... ... : ... .. . ... : ... .. . ... : ... .. . ...
ROW 6C : ... .. . ... ... : G#3 00 . V01 ... : ... .. . ... : ... .. . ... : ... .. . ...
ROW 6D : ... .. . ... ... : ... .. . ... ... : ... .. . ... : ... .. . ... : ... .. . ...
ROW 6E : ... .. . ... ... : B-3 00 . V02 ... : ... .. . ... : ... .. . ... : ... .. . ...
ROW 6F : ... .. . ... ... : ... .. . ... ... : ... .. . ... : ... .. . ... : ... .. . ...
ROW 70 : ... .. . ... ... : F-4 00 . V01 ... : ... .. . ... : ... .. . ... : ... .. . ...
ROW 71 : ... .. . ... ... : ... .. . ... ... : ... .. . ... : ... .. . ... : ... .. . ...
ROW 72 : ... .. . ... ... : ... .. . V02 ... : ... .. . ... : ... .. . ... : ... .. . ...
ROW 73 : ... .. . ... ... : G#3 00 . ... ... : ... .. . ... : ... .. . ... : ... .. . ...
ROW 74 : ... .. . ... ... : ... .. . V01 ... : ... .. . ... : ... .. . ... : ... .. . ...
ROW 75 : ... .. . ... ... : B-3 00 . ... ... : ... .. . ... : ... .. . ... : ... .. . ...
ROW 76 : ... .. . ... ... : ... .. . V02 ... : ... .. . ... : ... .. . ... : ... .. . ...
ROW 77 : ... .. . ... ... : F-4 00 . ... ... : ... .. . ... : ... .. . ... : ... .. . ...
ROW 78 : ... .. . ... ... : ... .. . V01 ... : ... .. . ... : ... .. . ... : ... .. . ...
ROW 79 : ... .. . ... ... : ... .. . ... ... : ... .. . ... : ... .. . ... : ... .. . ...
ROW 7A : ... .. . ... ... : G#3 00 . V02 ... : ... .. . ... : ... .. . ... : ... .. . ...
ROW 7B : ... .. . ... ... : ... .. . ... ... : ... .. . ... : ... .. . ... : ... .. . ...
ROW 7C : ... .. . ... ... : B-3 00 . V01 ... : ... .. . ... : ... .. . ... : ... .. . ...
ROW 7D : ... .. . ... ... : ... .. . ... ... : ... .. . ... : ... .. . ... : ... .. . ...
ROW 7E : ... .. . ... ... : F-4 00 . V02 ... : ... .. . ... : ... .. . ... : ... .. . ...
ROW 7F : ... .. . ... ... : ... .. . ... ... : ... .. . ... : ... .. . ... : ... .. . ...
ROW 80 : ... .. . ... ... : ... .. . V01 ... : ... .. . ... : ... .. . ... : ... .. . ...
ROW 81 : ... .. . ... ... : G#3 00 . ... ... : ... .. . ... : ... .. . ... : ... .. . ...
ROW 82 : ... .. . ... ... : ... .. . V02 ... : ... .. . ... : ... .. . ... : ... .. . ...
ROW 83 : ... .. . ... ... : B-3 00 . ... ... : ... .. . ... : ... .. . ... : ... .. . ...
ROW 84 : ... .. . ... ... : ... .. . V01 ... : ... .. . ... : ... .. . ... : ... .. . ...
ROW 85 : ... .. . ... ... : F-4 00 . ... ... : ... .. . ... : ... .. . ... : ... .. . ...
ROW 86 : ... .. . ... ... : ... .. . V02 ... : ... .. . ... : ... .. . ... : ... .. . ...
ROW 87 : ... .. . ... ... : ... .. . ... ... : ... .. . ... : ... .. . ... : ... .. . ...
ROW 88 : ... .. . ... ... : G#3 00 . V01 ... : ... .. . ... : ... .. . ... : ... .. . ...
ROW 89 : ... .. . ... ... : ... .. . ... ... : ... .. . ... : ... .. . ... : ... .. . ...
ROW 8A : ... .. . ... ... : B-3 00 . V02 ... : ... .. . ... : ... .. . ... : ... .. . ...
ROW 8B : ... .. . ... ... : ... .. . ... ... : ... .. . ... : ... .. . ... : ... .. . ...
ROW 8C : ... .. . ... ... : F-4 00 . V01 ... : ... .. . ... : ... .. . ... : ... .. . ...
ROW 8D : ... .. . ... ... : ... .. . ... ... : ... .. . ... : ... .. . ... : ... .. . ...
ROW 8E : ... .. . ... ... : ... .. . V02 ... : ... .. . ... : ... .. . ... : ... .. . ...
ROW 8F : ... .. . ... ... : G#3 00 . ... ... : ... .. . ... : ... .. . ... : ... .. . ...
ROW 90 : ... .. . ... ... : ... .. . V01 ... : ... .. . ... : ... .. . ... : ... .. . ...
ROW 91 : ... .. . ... ... : B-3 00 . ... ... : ... .. . ... : ... .. . ... : ... .. . ...
ROW 92 : ... .. . ... ... : ... .. . V02 ... : ... .. . ... : ... .. . ... : ... .. . ...
ROW 93 : ... .. . ... ... : F-4 00 . ... ... : ... .. . ... : ... .. . ... : ... .. . ...
ROW 94 : ... .. . ... ... : ... .. . V01 ... : ... .. . ... : ... .. . ... : ... .. . ...
ROW 95 : ... .. . ... ... : ... .. . ... ... : ... .. . ... : ... .. . ... : ... .. . ...
ROW 96 : ... .. . ... ... : G#3 00 . V02 ... : ... .. . ... : ... .. . ... : ... .. . ...
ROW 97 : ... .. . ... ... : ... .. . ... ... : ... .. . ... : ... .. . ... : ... .. . ...
ROW 98 : ... .. . ... ... : B-3 00 . V01 ... : ... .. . ... : ... .. . ... : ... .. . ...
ROW 99 : ... .. . ... ... : ... .. . ... ... : ... .. . ... : ... .. . ... : ... .. . ...
ROW 9A : ... .. . ... ... : F-4 00 . V02 ... : ... .. . ... : ... .. . ... : ... .. . ...
ROW 9B : ... .. . ... ... : ... .. . ... ... : ... .. . ... : ... .. . ... : ... .. . ...
ROW 9C : ... .. . ... ... : ... .. . V01 ... : ... .. . ... : ... .. . ... : ... .. . ...
ROW 9D : ... .. . ... ... : G#3 00 . ... ... : ... .. . ... : ... .. . ... : ... .. . ...
ROW 9E : ... .. . ... ... : ... .. . V02 ... : ... .. . ... : ... .. . ... : ... .. . ...
ROW 9F : ... .. . ... ... : B-3 00 . ... ... : ... .. . ... : ... .. . ... : ... .. . ...
ROW A0 : ... .. . ... ... : ... .. . V01 ... : ... .. . ... : ... .. . ... : ... .. . ...
ROW A1 : ... .. . ... ... : F-4 00 . ... ... : ... .. . ... : ... .. . ... : ... .. . ...
ROW A2 : ... .. . ... ... : ... .. . V02 ... : ... .. . ... : ... .. . ... : ... .. . ...
ROW A3 : ... .. . ... ... : ... .. . ... ... : ... .. . ... : ... .. . ... : ... .. . ...
ROW A4 : ... .. . ... ... : G#3 00 . V01 ... : ... .. . ... : ... .. . ... : ... .. . ...
ROW A5 : ... .. . ... ... : ... .. . ... ... : ... .. . ... : ... .. . ... : ... .. . ...
ROW A6 : ... .. . ... ... : B-3 00 . V02 ... : ... .. . ... : ... .. . ... : ... .. . ...
ROW A7 : ... .. . ... ... : ... .. . ... ... : ... .. . ... : ... .. . ... : ... .. . ...
ROW A8 : ... .. . ... ... : F-4 00 . V01 ... : ... .. . ... : ... .. . ... : ... .. . ...
ROW A9 : ... .. . ... ... : ... .. . ... ... : ... .. . ... : ... .. . ... : ... .. . ...
ROW AA : ... .. . ... ... : ... .. . V02 ... : ... .. . ... : ... .. . ... : ... .. . ...
ROW AB : ... .. . ... ... : G#3 00 . ... ... : ... .. . ... : ... .. . ... : ... .. . ...
ROW AC : ... .. . ... ... : ... .. . V01 ... : ... .. . ... : ... .. . ... : ... .. . ...
ROW AD : ... .. . ... ... : B-3 00 . ... ... : ... .. . ... : ... .. . ... : ... .. . ...
ROW AE : ... .. . ... ... : ... .. . V02 ... : ... .. . ... : ... .. . ... : ... .. . ...
ROW AF : ... .. . ... ... : F-4 00 . ... ... : ... .. . ... : ... .. . ... : ... .. . ...
ROW B0 : ... .. . ... ... : ... .. . V01 ... : ... .. . ... : ... .. . ... : ... .. . ...
ROW B1 : ... .. . ... ... : ... .. . ... ... : ... .. . ... : ... .. . ... : ... .. . ...
ROW B2 : ... .. . ... ... : G#3 00 . V02 ... : ... .. . ... : ... .. . ... : ... .. . ...
ROW B3 : ... .. . ... ... : ... .. . ... ... : ... .. . ... : ... .. . ... : ... .. . ...
ROW B4 : ... .. . ... ... : B-3 00 . V01 ... : ... .. . ... : ... .. . ... : ... .. . ...
ROW B5 : ... .. . ... ... : ... .. . ... ... : ... .. . ... : ... .. . ... : ... .. . ...
ROW B6 : ... .. . ... ... : F-4 00 . V02 ... : ... .. . ... : ... .. . ... : ... .. . ...
ROW B7 : ... .. . ... ... : ... .. . ... ... : ... .. . ... : ... .. . ... : ... .. . ...
ROW B8 : ... .. . ... ... : ... .. . V01 ... : ... .. . ... : ... .. . ... : ... .. . ...
ROW B9 : ... .. . ... ... : G#3 00 . ... ... : ... .. . ... : ... .. . ... : ... .. . ...
ROW BA : ... .. . ... ... : ... .. . V02 ... : ... .. . ... : ... .. . ... : ... .. . ...
ROW BB : ... .. . ... ... : B-3 00 . ... ... : ... .. . ... : ... .. . ... : ... .. . ...
ROW BC : ... .. . ... ... : ... .. . V01 ... : ... .. . ... : ... .. . ... : ... .. . ...
ROW BD : ... .. . ... ... : F-4 00 . ... ... : ... .. . ... : ... .. . ... : ... .. . ...
ROW BE : ... .. . ... ... : ... .. . V02 ... : ... .. . ... : ... .. . ... : ... .. . ...
ROW BF : ... .. . ... ... : ... .. . ... ... : ... .. . ... : ... .. . ... : ... .. . ...
ROW C0 : ... .. . ... ... : G#3 00 . V01 ... : ... .. . ... : ... .. . ... : ... .. . ...
ROW C1 : ... .. . ... ... : ... .. . ... ... : ... .. . ... : ... .. . ... : ... .. . ...
ROW C2 : ... .. . ... ... : B-3 00 . V02 ... : ... .. . ... : ... .. . ... : ... .. . ...
ROW C3 : ... .. . ... ... : ... .. . ... ... : ... .. . ... : ... .. . ... : ... .. . ...
ROW C4 : ... .. . ... ... : F-4 00 . V01 ... : ... .. . ... : ... .. . ... : ... .. . ...
ROW C5 : ... .. . ... ... : ... .. . ... ... : ... .. . ... : ... .. . ... : ... .. . ...
ROW C6 : ... .. . ... ... : ... .. . V02 ... : ... .. . ... : ... .. . ... : ... .. . ...
ROW C7 : ... .. . ... ... : G#3 00 . ... ... : ... .. . ... : ... .. . ... : ... .. . ...
ROW C8 : ... .. . ... ... : ... .. . V01 ... : ... .. . ... : ... .. . ... : ... .. . ...
ROW C9 : ... .. . ... ... : B-3 00 . ... ... : ... .. . ... : ... .. . ... : ... .. . ...
ROW CA : ... .. . ... ... : ... .. . V02 ... : ... .. . ... : ... .. . ... : ... .. . ...
ROW CB : ... .. . ... ... : F-4 00 . ... ... : ... .. . ... : ... .. . ... : ... .. . ...
ROW CC : ... .. . ... ... : ... .. . V01 ... : ... .. . ... : ... .. . ... : ... .. . ...
ROW CD : ... .. . ... ... : ... .. . ... ... : ... .. . ... : ... .. . ... : ... .. . ...
ROW CE : ... .. . ... ... : G#3 00 . V02 ... : ... .. . ... : ... .. . ... : ... .. . ...
ROW CF : ... .. . ... ... : ... .. . ... ... : ... .. . ... : ... .. . ... : ... .. . ...
ROW D0 : ... .. . ... ... : B-3 00 . V01 ... : ... .. . ... : ... .. . ... : ... .. . ...
ROW D1 : ... .. . ... ... : ... .. . ... ... : ... .. . ... : ... .. . ... : ... .. . ...
ROW D2 : ... .. . ... ... : F-4 00 . V02 ... : ... .. . ... : ... .. . ... : ... .. . ...
ROW D3 : ... .. . ... ... : ... .. . ... ... : ... .. . ... : ... .. . ... : ... .. . ...
ROW D4 : ... .. . ... ... : ... .. . V01 ... : ... .. . ... : ... .. . ... : ... .. . ...
ROW D5 : ... .. . ... ... : G#3 00 . ... ... : ... .. . ... : ... .. . ... : ... .. . ...
ROW D6 : ... .. . ... ... : ... .. . V02 ... : ... .. . ... : ... .. . ... : ... .. . ...
ROW D7 : ... .. . ... ... : B-3 00 . ... ... : ... .. . ... : ... .. . ... : ... .. . ...
ROW D8 : ... .. . ... ... : ... .. . V01 ... : ... .. . ... : ... .. . ... : ... .. . ...
ROW D9 : ... .. . ... ... : F-4 00 . ... ... : ... .. . ... : ... .. . ... : ... .. . ...
ROW DA : ... .. . ... ... : ... .. . V02 ... : ... .. . ... : ... .. . ... : ... .. . ...
ROW DB : ... .. . ... ... : ... .. . ... ... : ... .. . ... : ... .. . ... : ... .. . ...
ROW DC : ... .. . ... ... : G#3 00 . V01 ... : ... .. . ... : ... .. . ... : ... .. . ...
ROW DD : ... .. . ... ... : ... .. . ... ... : ... .. . ... : ... .. . ... : ... .. . ...
ROW DE : ... .. . ... ... : B-3 00 . V02 ... : ... .. . ... : ... .. . ... : ... .. . ...
ROW DF : ... .. . ... ... : ... .. . ... ... : ... .. . ... : ... .. . ... : ... .. . ...
ROW E0 : ... .. . ... ... : ... .. . ... ... : ... .. . ... : ... .. . ... : ... .. . ...
ROW E1 : ... .. . ... ... : ... .. . ... ... : ... .. . ... : ... .. . ... : ... .. . ...
ROW E2 : ... .. . ... ... : ... .. . ... ... : ... .. . ... : ... .. . ... : ... .. . ...
ROW E3 : ... .. . ... ... : ... .. . ... ... : ... .. . ... : ... .. . ... : ... .. . ...
ROW E4 : ... .. . ... ... : ... .. . ... ... : ... .. . ... : ... .. . ... : ... .. . ...
ROW E5 : ... .. . ... ... : ... .. . ... ... : ... .. . ... : ... .. . ... : ... .. . ...
ROW E6 : ... .. . ... ... : ... .. . ... ... : ... .. . ... : ... .. . ... : ... .. . ...
ROW E7 : ... .. . ... ... : ... .. . ... ... : ... .. . ... : ... .. . ... : ... .. . ...
ROW E8 : ... .. . ... ... : ... .. . ... ... : ... .. . ... : ... .. . ... : ... .. . ...
ROW E9 : ... .. . ... ... : ... .. . ... ... : ... .. . ... : ... .. . ... : ... .. . ...
ROW EA : ... .. . ... ... : ... .. . ... ... : ... .. . ... : ... .. . ... : ... .. . ...
ROW EB : ... .. . ... ... : ... .. . ... ... : ... .. . ... : ... .. . ... : ... .. . ...
ROW EC : ... .. . ... ... : ... .. . ... ... : ... .. . ... : ... .. . ... : ... .. . ...
ROW ED : ... .. . ... ... : ... .. . ... ... : ... .. . ... : ... .. . ... : ... .. . ...
ROW EE : ... .. . ... ... : ... .. . ... ... : ... .. . ... : ... .. . ... : ... .. . ...
ROW EF : ... .. . ... ... : ... .. . ... ... : ... .. . ... : ... .. . ... : ... .. . ...
ROW F0 : ... .. . ... ... : ... .. . ... ... : ... .. . ... : ... .. . ... : ... .. . ...
ROW F1 : ... .. . ... ... : ... .. . ... ... : ... .. . ... : ... .. . ... : ... .. . ...
ROW F2 : ... .. . ... ... : ... .. . ... ... : ... .. . ... : ... .. . ... : ... .. . ...
ROW F3 : ... .. . ... ... : ... .. . ... ... : ... .. . ... : ... .. . ... : ... .. . ...
ROW F4 : ... .. . ... ... : ... .. . ... ... : ... .. . ... : ... .. . ... : ... .. . ...
ROW F5 : ... .. . ... ... : ... .. . ... ... : ... .. . ... : ... .. . ... : ... .. . ...
ROW F6 : ... .. . ... ... : ... .. . ... ... : ... .. . ... : ... .. . ... : ... .. . ...
ROW F7 : ... .. . ... ... : ... .. . ... ... : ... .. . ... : ... .. . ... : ... .. . ...
ROW F8 : ... .. . ... ... : ... .. . ... ... : ... .. . ... : ... .. . ... : ... .. . ...
ROW F9 : ... .. . ... ... : ... .. . ... ... : ... .. . ... : ... .. . ... : ... .. . ...
ROW FA : ... .. . ... ... : ... .. . ... ... : ... .. . ... : ... .. . ... : ... .. . ...
ROW FB : ... .. . ... ... : ... .. . ... ... : ... .. . ... : ... .. . ... : ... .. . ...
ROW FC : ... .. . ... ... : ... .. . ... ... : ... .. . ... : ... .. . ... : ... .. . ...
ROW FD : ... .. . ... ... : ... .. . ... ... : ... .. . ... : ... .. . ... : ... .. . ...
ROW FE : ... .. . ... ... : ... .. . ... ... : ... .. . ... : ... .. . ... : ... .. . ...
ROW FF : ... .. . ... ... : ... .. . ... ... : ... .. . ... : ... .. . ... : ... .. . ...

PATTERN 15
ROW 00 : ... .. . ... ... : ... .. 0 ... ... : ... .. . ... : ... .. . ... : ... .. . ...
ROW 01 : ... .. . ... ... : ... .. . ... ... : ... .. . ... : ... .. . ... : ... .. . ...
ROW 02 : ... .. . ... ... : ... .. . ... ... : ... .. . ... : ... .. . ... : ... .. . ...
ROW 03 : ... .. . ... ... : ... .. . ... ... : ... .. . ... : ... .. . ... : ... .. . ...
ROW 04 : ... .. . ... ... : ... .. . ... ... : ... .. . ... : ... .. . ... : ... .. . ...
ROW 05 : ... .. . ... ... : ... .. . ... ... : ... .. . ... : ... .. . ... : ... .. . ...
ROW 06 : ... .. . ... ... : ... .. . ... ... : ... .. . ... : ... .. . ... : ... .. . ...
ROW 07 : ... .. . ... ... : ... .. . ... ... : ... .. . ... : ... .. . ... : ... .. . ...
ROW 08 : ... .. . ... ... : ... .. . ... ... : ... .. . ... : ... .. . ... : ... .. . ...
ROW 09 : ... .. . ... ... : ... .. . ... ... : ... .. . ... : ... .. . ... : ... .. . ...
ROW 0A : ... .. . ... ... : ... .. . ... ... : ... .. . ... : ... .. . ... : ... .. . ...
ROW 0B : ... .. . ... ... : ... .. . ... ... : ... .. . ... : ... .. . ... : ... .. . ...
ROW 0C : ... .. . ... ... : ... .. . ... ... : ... .. . ... : ... .. . ... : ... .. . ...
ROW 0D : ... .. . ... ... : ... .. . ... ... : ... .. . ... : ... .. . ... : ... .. . ...
ROW 0E : ... .. . ... ... : ... .. . ... ... : ... .. . ... : ... .. . ... : ... .. . ...
ROW 0F : ... .. . ... ... : ... .. . ... ... : ... .. . ... : ... .. . ... : ... .. . ...
ROW 10 : ... .. . ... ... : ... .. . ... ... : ... .. . ... : ... .. . ... : ... .. . ...
ROW 11 : ... .. . ... ... : ... .. . ... ... : ... .. . ... : ... .. . ... : ... .. . ...
ROW 12 : ... .. . ... ... : ... .. . ... ... : ... .. . ... : ... .. . ... : ... .. . ...
ROW 13 : ... .. . ... ... : ... .. . ... ... : ... .. . ... : ... .. . ... : ... .. . ...
ROW 14 : ... .. . ... ... : ... .. . ... ... : ... .. . ... : ... .. . ... : ... .. . ...
ROW 15 : ... .. . ... ... : ... .. . ... ... : ... .. . ... : ... .. . ... : ... .. . ...
ROW 16 : ... .. . ... ... : ... .. . ... ... : ... .. . ... : ... .. . ... : ... .. . ...
ROW 17 : ... .. . ... ... : ... .. . ... ... : ... .. . ... : ... .. . ... : ... .. . ...
ROW 18 : ... .. . ... ... : ... .. . ... ... : ... .. . ... : ... .. . ... : ... .. . ...
ROW 19 : ... .. . ... ... : ... .. . ... ... : ... .. . ... : ... .. . ... : ... .. . ...
ROW 1A : ... .. . ... ... : ... .. . ... ... : ... .. . ... : ... .. . ... : ... .. . ...
ROW 1B : ... .. . ... ... : ... .. . ... ... : ... .. . ... : ... .. . ... : ... .. . ...
ROW 1C : ... .. . ... ... : ... .. . ... ... : ... .. . ... : ... .. . ... : ... .. . ...
ROW 1D : ... .. . ... ... : ... .. . ... ... : ... .. . ... : ... .. . ... : ... .. . ...
ROW 1E : ... .. . ... ... : ... .. . ... ... : ... .. . ... : ... .. . ... : ... .. . ...
ROW 1F : ... .. . ... ... : ... .. . ... ... : ... .. . ... : ... .. . ... : ... .. . ...
ROW 20 : ... .. . ... ... : ... .. . ... ... : ... .. . ... : ... .. . ... : ... .. . ...
ROW 21 : ... .. . ... ... : ... .. . ... ... : ... .. . ... : ... .. . ... : ... .. . ...
ROW 22 : ... .. . ... ... : ... .. . ... ... : ... .. . ... : ... .. . ... : ... .. . ...
ROW 23 : ... .. . ... ... : ... .. . ... ... : ... .. . ... : ... .. . ... : ... .. . ...
ROW 24 : ... .. . ... ... : ... .. . ... ... : ... .. . ... : ... .. . ... : ... .. . ...
ROW 25 : ... .. . ... ... : ... .. . ... ... : ... .. . ... : ... .. . ... : ... .. . ...
ROW 26 : ... .. . ... ... : ... .. . ... ... : ... .. . ... : ... .. . ... : ... .. . ...
ROW 27 : ... .. . ... ... : ... .. . ... ... : ... .. . ... : ... .. . ... : ... .. . ...
ROW 28 : ... .. . ... ... : ... .. . ... ... : ... .. . ... : ... .. . ... : ... .. . ...
ROW 29 : ... .. . ... ... : ... .. . ... ... : ... .. . ... : ... .. . ... : ... .. . ...
ROW 2A : ... .. . ... ... : ... .. . ... ... : ... .. . ... : ... .. . ... : ... .. . ...
ROW 2B : ... .. . ... ... : ... .. . ... ... : ... .. . ... : ... .. . ... : ... .. . ...
ROW 2C : ... .. . ... ... : ... .. . ... ... : ... .. . ... : ... .. . ... : ... .. . ...
ROW 2D : ... .. . ... ... : ... .. . ... ... : ... .. . ... : ... .. . ... : ... .. . ...
ROW 2E : ... .. . ... ... : ... .. . ... ... : ... .. . ... : ... .. . ... : ... .. . ...
ROW 2F : ... .. . ... ... : ... .. . ... ... : ... .. . ... : ... .. . ... : ... .. . ...
ROW 30 : ... .. . ... ... : ... .. . ... ... : ... .. . ... : ... .. . ... : ... .. . ...
ROW 31 : ... .. . ... ... : ... .. . ... ... : ... .. . ... : ... .. . ... : ... .. . ...
ROW 32 : ... .. . ... ... : ... .. . ... ... : ... .. . ... : ... .. . ... : ... .. . ...
ROW 33 : ... .. . ... ... : ... .. . ... ... : ... .. . ... : ... .. . ... : ... .. . ...
ROW 34 : ... .. . ... ... : ... .. . ... ... : ... .. . ... : ... .. . ... : ... .. . ...
ROW 35 : ... .. . ... ... : ... .. . ... ... : ... .. . ... : ... .. . ... : ... .. . ...
ROW 36 : ... .. . ... ... : ... .. . ... ... : ... .. . ... : ... .. . ... : ... .. . ...
ROW 37 : ... .. . ... ... : ... .. . ... ... : ... .. . ... : ... .. . ... : ... .. . ...
ROW 38 : ... .. . ... ... : ... .. . ... ... : ... .. . ... : ... .. . ... : ... .. . ...
ROW 39 : ... .. . ... ... : ... .. . ... ... : ... .. . ... : ... .. . ... : ... .. . ...
ROW 3A : ... .. . ... ... : ... .. . ... ... : ... .. . ... : ... .. . ... : ... .. . ...
ROW 3B : ... .. . ... ... : ... .. . ... ... : ... .. . ... : ... .. . ... : ... .. . ...
ROW 3C : ... .. . ... ... : ... .. . ... ... : ... .. . ... : ... .. . ... : ... .. . ...
ROW 3D : ... .. . ... ... : ... .. . ... ... : ... .. . ... : ... .. . ... : ... .. . ...
ROW 3E : ... .. . ... ... : ... .. . ... ... : ... .. . ... : ... .. . ... : ... .. . ...
ROW 3F : ... .. . ... ... : ... .. . ... ... : ... .. . ... : ... .. . ... : ... .. . ...
ROW 40 : ... .. . ... ... : ... .. . ... ... : ... .. . ... : ... .. . ... : ... .. . ...
ROW 41 : ... .. . ... ... : ... .. . ... ... : ... .. . ... : ... .. . ... : ... .. . ...
ROW 42 : ... .. . ... ... : ... .. . ... ... : ... .. . ... : ... .. . ... : ... .. . ...
ROW 43 : ... .. . ... ... : ... .. . ... ... : ... .. . ... : ... .. . ... : ... .. . ...
ROW 44 : ... .. . ... ... : ... .. . ... ... : ... .. . ... : ... .. . ... : ... .. . ...
ROW 45 : ... .. . ... ... : ... .. . ... ... : ... .. . ... : ... .. . ... : ... .. . ...
ROW 46 : ... .. . ... ... : ... .. . ... ... : ... .. . ... : ... .. . ... : ... .. . ...
ROW 47 : ... .. . ... ... : ... .. . ... ... : ... .. . ... : ... .. . ... : ... .. . ...
ROW 48 : ... .. . ... ... : ... .. . ... ... : ... .. . ... : ... .. . ... : ... .. . ...
ROW 49 : ... .. . ... ... : ... .. . ... ... : ... .. . ... : ... .. . ... : ... .. . ...
ROW 4A : ... .. . ... ... : ... .. . ... ... : ... .. . ... : ... .. . ... : ... .. . ...
ROW 4B : ... .. . ... ... : ... .. . ... ... : ... .. . ... : ... .. . ... : ... .. . ...
ROW 4C : ... .. . ... ... : ... .. . ... ... : ... .. . ... : ... .. . ... : ... .. . ...
ROW 4D : ... .. . ... ... : ... .. . ... ... : ... .. . ... : ... .. . ... : ... .. . ...
ROW 4E : ... .. . ... ... : ... .. . ... ... : ... .. . ... : ... .. . ... : ... .. . ...
ROW 4F : ... .. . ... ... : ... .. . ... ... : ... .. . ... : ... .. . ... : ... .. . ...
ROW 50 : ... .. . ... ... : ... .. . ... ... : ... .. . ... : ... .. . ... : ... .. . ...
ROW 51 : ... .. . ... ... : ... .. . ... ... : ... .. . ... : ... .. . ... : ... .. . ...
ROW 52 : ... .. . ... ... : ... .. . ... ... : ... .. . ... : ... .. . ... : ... .. . ...
ROW 53 : ... .. . ... ... : ... .. . ... ... : ... .. . ... : ... .. . ... : ... .. . ...
ROW 54 : ... .. . ... ... : ... .. . ... ... : ... .. . ... : ... .. . ... : ... .. . ...
ROW 55 : ... .. . ... ... : ... .. . ... ... : ... .. . ... : ... .. . ... : ... .. . ...
ROW 56 : ... .. . ... ... : ... .. . ... ... : ... .. . ... : ... .. . ... : ... .. . ...
ROW 57 : ... .. . ... ... : ... .. . ... ... : ... .. . ... : ... .. . ... : ... .. . ...
ROW 58 : ... .. . ... ... : ... .. . ... ... : ... .. . ... : ... .. . ... : ... .. . ...
ROW 59 : ... .. . ... ... : ... .. . ... ... : ... .. . ... : ... .. . ... : ... .. . ...
ROW 5A : ... .. . ... ... : ... .. . ... ... : ... .. . ... : ... .. . ... : ... .. . ...
ROW 5B : ... .. . ... ... : ... .. . ... ... : ... .. . ... : ... .. . ... : ... .. . ...
ROW 5C : ... .. . ... ... : ... .. . ... ... : ... .. . ... : ... .. . ... : ... .. . ...
ROW 5D : ... .. . ... ... : ... .. . ... ... : ... .. . ... : ... .. . ... : ... .. . ...
ROW 5E : ... .. . ... ... : ... .. . ... ... : ... .. . ... : ... .. . ... : ... .. . ...
ROW 5F : ... .. . ... ... : ... .. . ... ... : ... .. . ... : ... .. . ... : ... .. . ...
ROW 60 : ... .. . ... ... : ... .. . ... ... : ... .. . ... : ... .. . ... : ... .. . ...
ROW 61 : ... .. . ... ... : ... .. . ... ... : ... .. . ... : ... .. . ... : ... .. . ...
ROW 62 : ... .. . ... ... : ... .. . ... ... : ... .. . ... : ... .. . ... : ... .. . ...
ROW 63 : ... .. . ... ... : ... .. . ... ... : ... .. . ... : ... .. . ... : ... .. . ...
ROW 64 : ... .. . ... ... : ... .. . ... ... : ... .. . ... : ... .. . ... : ... .. . ...
ROW 65 : ... .. . ... ... : ... .. . ... ... : ... .. . ... : ... .. . ... : ... .. . ...
ROW 66 : ... .. . ... ... : ... .. . ... ... : ... .. . ... : ... .. . ... : ... .. . ...
ROW 67 : ... .. . ... ... : ... .. . ... ... : ... .. . ... : ... .. . ... : ... .. . ...
ROW 68 : ... .. . ... ... : ... .. . ... ... : ... .. . ... : ... .. . ... : ... .. . ...
ROW 69 : ... .. . ... ... : ... .. . ... ... : ... .. . ... : ... .. . ... : ... .. . ...
ROW 6A : ... .. . ... ... : ... .. . ... ... : ... .. . ... : ... .. . ... : ... .. . ...
ROW 6B : ... .. . ... ... : ... .. . ... ... : ... .. . ... : ... .. . ... : ... .. . ...
ROW 6C : ... .. . ... ... : ... .. . ... ... : ... .. . ... : ... .. . ... : ... .. . ...
ROW 6D : ... .. . ... ... : ... .. . ... ... : ... .. . ... : ... .. . ... : ... .. . ...
ROW 6E : ... .. . ... ... : ... .. . ... ... : ... .. . ... : ... .. . ... : ... .. . ...
ROW 6F : ... .. . ... ... : ... .. . ... ... : ... .. . ... : ... .. . ... : ... .. . ...
ROW 70 : ... .. . ... ... : ... .. . ... ... : ... .. . ... : ... .. . ... : ... .. . ...
ROW 71 : ... .. . ... ... : ... .. . ... ... : ... .. . ... : ... .. . ... : ... .. . ...
ROW 72 : ... .. . ... ... : ... .. . ... ... : ... .. . ... : ... .. . ... : ... .. . ...
ROW 73 : ... .. . ... ... : ... .. . ... ... : ... .. . ... : ... .. . ... : ... .. . ...
ROW 74 : ... .. . ... ... : ... .. . ... ... : ... .. . ... : ... .. . ... : ... .. . ...
ROW 75 : ... .. . ... ... : ... .. . ... ... : ... .. . ... : ... .. . ... : ... .. . ...
ROW 76 : ... .. . ... ... : ... .. . ... ... : ... .. . ... : ... .. . ... : ... .. . ...
ROW 77 : ... .. . ... ... : ... .. . ... ... : ... .. . ... : ... .. . ... : ... .. . ...
ROW 78 : ... .. . ... ... : ... .. . ... ... : ... .. . ... : ... .. . ... : ... .. . ...
ROW 79 : ... .. . ... ... : ... .. . ... ... : ... .. . ... : ... .. . ... : ... .. . ...
ROW 7A : ... .. . ... ... : ... .. . ... ... : ... .. . ... : ... .. . ... : ... .. . ...
ROW 7B : ... .. . ... ... : ... .. . ... ... : ... .. . ... : ... .. . ... : ... .. . ...
ROW 7C : ... .. . ... ... : ... .. . ... ... : ... .. . ... : ... .. . ... : ... .. . ...
ROW 7D : ... .. . ... ... : ... .. . ... ... : ... .. . ... : ... .. . ... : ... .. . ...
ROW 7E : ... .. . ... ... : ... .. . ... ... : ... .. . ... : ... .. . ... : ... .. . ...
ROW 7F : ... .. . ... ... : ... .. . ... ... : ... .. . ... : ... .. . ... : ... .. . ...
ROW 80 : ... .. . ... ... : ... .. . ... ... : ... .. . ... : ... .. . ... : ... .. . ...
ROW 81 : ... .. . ... ... : ... .. . ... ... : ... .. . ... : ... .. . ... : ... .. . ...
ROW 82 : ... .. . ... ... : ... .. . ... ... : ... .. . ... : ... .. . ... : ... .. . ...
ROW 83 : ... .. . ... ... : ... .. . ... ... : ... .. . ... : ... .. . ... : ... .. . ...
ROW 84 : ... .. . ... ... : ... .. . ... ... : ... .. . ... : ... .. . ... : ... .. . ...
ROW 85 : ... .. . ... ... : ... .. . ... ... : ... .. . ... : ... .. . ... : ... .. . ...
ROW 86 : ... .. . ... ... : ... .. . ... ... : ... .. . ... : ... .. . ... : ... .. . ...
ROW 87 : ... .. . ... ... : ... .. . ... ... : ... .. . ... : ... .. . ... : ... .. . ...
ROW 88 : ... .. . ... ... : ... .. . ... ... : ... .. . ... : ... .. . ... : ... .. . ...
ROW 89 : ... .. . ... ... : ... .. . ... ... : ... .. . ... : ... .. . ... : ... .. . ...
ROW 8A : ... .. . ... ... : ... .. . ... ... : ... .. . ... : ... .. . ... : ... .. . ...
ROW 8B : ... .. . ... ... : ... .. . ... ... : ... .. . ... : ... .. . ... : ... .. . ...
ROW 8C : ... .. . ... ... : ... .. . ... ... : ... .. . ... : ... .. . ... : ... .. . ...
ROW 8D : ... .. . ... ... : ... .. . ... ... : ... .. . ... : ... .. . ... : ... .. . ...
ROW 8E : ... .. . ... ... : ... .. . ... ... : ... .. . ... : ... .. . ... : ... .. . ...
ROW 8F : ... .. . ... ... : ... .. . ... ... : ... .. . ... : ... .. . ... : ... .. . ...
ROW 90 : ... .. . ... ... : ... .. . ... ... : ... .. . ... : ... .. . ... : ... .. . ...
ROW 91 : ... .. . ... ... : ... .. . ... ... : ... .. . ... : ... .. . ... : ... .. . ...
ROW 92 : ... .. . ... ... : ... .. . ... ... : ... .. . ... : ... .. . ... : ... .. . ...
ROW 93 : ... .. . ... ... : ... .. . ... ... : ... .. . ... : ... .. . ... : ... .. . ...
ROW 94 : ... .. . ... ... : ... .. . ... ... : ... .. . ... : ... .. . ... : ... .. . ...
ROW 95 : ... .. . ... ... : ... .. . ... ... : ... .. . ... : ... .. . ... : ... .. . ...
ROW 96 : ... .. . ... ... : ... .. . ... ... : ... .. . ... : ... .. . ... : ... .. . ...
ROW 97 : ... .. . ... ... : ... .. . ... ... : ... .. . ... : ... .. . ... : ... .. . ...
ROW 98 : ... .. . ... ... : ... .. . ... ... : ... .. . ... : ... .. . ... : ... .. . ...
ROW 99 : ... .. . ... ... : ... .. . ... ... : ... .. . ... : ... .. . ... : ... .. . ...
ROW 9A : ... .. . ... ... : ... .. . ... ... : ... .. . ... : ... .. . ... : ... .. . ...
ROW 9B : ... .. . ... ... : ... .. . ... ... : ... .. . ... : ... .. . ... : ... .. . ...
ROW 9C : ... .. . ... ... : ... .. . ... ... : ... .. . ... : ... .. . ... : ... .. . ...
ROW 9D : ... .. . ... ... : ... .. . ... ... : ... .. . ... : ... .. . ... : ... .. . ...
ROW 9E : ... .. . ... ... : ... .. . ... ... : ... .. . ... : ... .. . ... : ... .. . ...
ROW 9F : ... .. . ... ... : ... .. . ... ... : ... .. . ... : ... .. . ... : ... .. . ...
ROW A0 : ... .. . ... ... : ... .. . ... ... : ... .. . ... : ... .. . ... : ... .. . ...
ROW A1 : ... .. . ... ... : ... .. . ... ... : ... .. . ... : ... .. . ... : ... .. . ...
ROW A2 : ... .. . ... ... : ... .. . ... ... : ... .. . ... : ... .. . ... : ... .. . ...
ROW A3 : ... .. . ... ... : ... .. . ... ... : ... .. . ... : ... .. . ... : ... .. . ...
ROW A4 : ... .. . ... ... : ... .. . ... ... : ... .. . ... : ... .. . ... : ... .. . ...
ROW A5 : ... .. . ... ... : ... .. . ... ... : ... .. . ... : ... .. . ... : ... .. . ...
ROW A6 : ... .. . ... ... : ... .. . ... ... : ... .. . ... : ... .. . ... : ... .. . ...
ROW A7 : ... .. . ... ... : ... .. . ... ... : ... .. . ... : ... .. . ... : ... .. . ...
ROW A8 : ... .. . ... ... : ... .. . ... ... : ... .. . ... : ... .. . ... : ... .. . ...
ROW A9 : ... .. . ... ... : ... .. . ... ... : ... .. . ... : ... .. . ... : ... .. . ...
ROW AA : ... .. . ... ... : ... .. . ... ... : ... .. . ... : ... .. . ... : ... .. . ...
ROW AB : ... .. . ... ... : ... .. . ... ... : ... .. . ... : ... .. . ... : ... .. . ...
ROW AC : ... .. . ... ... : ... .. . ... ... : ... .. . ... : ... .. . ... : ... .. . ...
ROW AD : ... .. . ... ... : ... .. . ... ... : ... .. . ... : ... .. . ... : ... .. . ...
ROW AE : ... .. . ... ... : ... .. . ... ... : ... .. . ... : ... .. . ... : ... .. . ...
ROW AF : ... .. . ... ... : ... .. . ... ... : ... .. . ... : ... .. . ... : ... .. . ...
ROW B0 : ... .. . ... ... : ... .. . ... ... : ... .. . ... : ... .. . ... : ... .. . ...
ROW B1 : ... .. . ... ... : ... .. . ... ... : ... .. . ... : ... .. . ... : ... .. . ...
ROW B2 : ... .. . ... ... : ... .. . ... ... : ... .. . ... : ... .. . ... : ... .. . ...
ROW B3 : ... .. . ... ... : ... .. . ... ... : ... .. . ... : ... .. . ... : ... .. . ...
ROW B4 : ... .. . ... ... : ... .. . ... ... : ... .. . ... : ... .. . ... : ... .. . ...
ROW B5 : ... .. . ... ... : ... .. . ... ... : ... .. . ... : ... .. . ... : ... .. . ...
ROW B6 : ... .. . ... ... : ... .. . ... ... : ... .. . ... : ... .. . ... : ... .. . ...
ROW B7 : ... .. . ... ... : ... .. . ... ... : ... .. . ... : ... .. . ... : ... .. . ...
ROW B8 : ... .. . ... ... : ... .. . ... ... : ... .. . ... : ... .. . ... : ... .. . ...
ROW B9 : ... .. . ... ... : ... .. . ... ... : ... .. . ... : ... .. . ... : ... .. . ...
ROW BA : ... .. . ... ... : ... .. . ... ... : ... .. . ... : ... .. . ... : ... .. . ...
ROW BB : ... .. . ... ... : ... .. . ... ... : ... .. . ... : ... .. . ... : ... .. . ...
ROW BC : ... .. . ... ... : ... .. . ... ... : ... .. . ... : ... .. . ... : ... .. . ...
ROW BD : ... .. . ... ... : ... .. . ... ... : ... .. . ... : ... .. . ... : ... .. . ...
ROW BE : ... .. . ... ... : ... .. . ... ... : ... .. . ... : ... .. . ... : ... .. . ...
ROW BF : ... .. . ... ... : ... .. . ... ... : ... .. . ... : ... .. . ... : ... .. . ...
ROW C0 : ... .. . ... ... : ... .. . ... ... : ... .. . ... : ... .. . ... : ... .. . ...
ROW C1 : ... .. . ... ... : ... .. . ... ... : ... .. . ... : ... .. . ... : ... .. . ...
ROW C2 : ... .. . ... ... : ... .. . ... ... : ... .. . ... : ... .. . ... : ... .. . ...
ROW C3 : ... .. . ... ... : ... .. . ... ... : ... .. . ... : ... .. . ... : ... .. . ...
ROW C4 : ... .. . ... ... : ... .. . ... ... : ... .. . ... : ... .. . ... : ... .. . ...
ROW C5 : ... .. . ... ... : ... .. . ... ... : ... .. . ... : ... .. . ... : ... .. . ...
ROW C6 : ... .. . ... ... : ... .. . ... ... : ... .. . ... : ... .. . ... : ... .. . ...
ROW C7 : ... .. . ... ... : ... .. . ... ... : ... .. . ... : ... .. . ... : ... .. . ...
ROW C8 : ... .. . ... ... : ... .. . ... ... : ... .. . ... : ... .. . ... : ... .. . ...
ROW C9 : ... .. . ... ... : ... .. . ... ... : ... .. . ... : ... .. . ... : ... .. . ...
ROW CA : ... .. . ... ... : ... .. . ... ... : ... .. . ... : ... .. . ... : ... .. . ...
ROW CB : ... .. . ... ... : ... .. . ... ... : ... .. . ... : ... .. . ... : ... .. . ...
ROW CC : ... .. . ... ... : ... .. . ... ... : ... .. . ... : ... .. . ... : ... .. . ...
ROW CD : ... .. . ... ... : ... .. . ... ... : ... .. . ... : ... .. . ... : ... .. . ...
ROW CE : ... .. . ... ... : ... .. . ... ... : ... .. . ... : ... .. . ... : ... .. . ...
ROW CF : ... .. . ... ... : ... .. . ... ... : ... .. . ... : ... .. . ... : ... .. . ...
ROW D0 : ... .. . ... ... : ... .. . ... ... : ... .. . ... : ... .. . ... : ... .. . ...
ROW D1 : ... .. . ... ... : ... .. . ... ... : ... .. . ... : ... .. . ... : ... .. . ...
ROW D2 : ... .. . ... ... : ... .. . ... ... : ... .. . ... : ... .. . ... : ... .. . ...
ROW D3 : ... .. . ... ... : ... .. . ... ... : ... .. . ... : ... .. . ... : ... .. . ...
ROW D4 : ... .. . ... ... : ... .. . ... ... : ... .. . ... : ... .. . ... : ... .. . ...
ROW D5 : ... .. . ... ... : ... .. . ... ... : ... .. . ... : ... .. . ... : ... .. . ...
ROW D6 : ... .. . ... ... : ... .. . ... ... : ... .. . ... : ... .. . ... : ... .. . ...
ROW D7 : ... .. . ... ... : ... .. . ... ... : ... .. . ... : ... .. . ... : ... .. . ...
ROW D8 : ... .. . ... ... : ... .. . ... ... : ... .. . ... : ... .. . ... : ... .. . ...
ROW D9 : ... .. . ... ... : ... .. . ... ... : ... .. . ... : ... .. . ... : ... .. . ...
ROW DA : ... .. . ... ... : ... .. . ... ... : ... .. . ... : ... .. . ... : ... .. . ...
ROW DB : ... .. . ... ... : ... .. . ... ... : ... .. . ... : ... .. . ... : ... .. . ...
ROW DC : ... .. . ... ... : ... .. . ... ... : ... .. . ... : ... .. . ... : ... .. . ...
ROW DD : ... .. . ... ... : ... .. . ... ... : ... .. . ... : ... .. . ... : ... .. . ...
ROW DE : ... .. . ... ... : ... .. . ... ... : ... .. . ... : ... .. . ... : ... .. . ...
ROW DF : ... .. . ... ... : ... .. . ... ... : ... .. . ... : ... .. . ... : ... .. . ...
ROW E0 : ... .. . ... ... : ... .. . ... ... : ... .. . ... : ... .. . ... : ... .. . ...
ROW E1 : ... .. . ... ... : ... .. . ... ... : ... .. . ... : ... .. . ... : ... .. . ...
ROW E2 : ... .. . ... ... : ... .. . ... ... : ... .. . ... : ... .. . ... : ... .. . ...
ROW E3 : ... .. . ... ... : ... .. . ... ... : ... .. . ... : ... .. . ... : ... .. . ...
ROW E4 : ... .. . ... ... : ... .. . ... ... : ... .. . ... : ... .. . ... : ... .. . ...
ROW E5 : ... .. . ... ... : ... .. . ... ... : ... .. . ... : ... .. . ... : ... .. . ...
ROW E6 : ... .. . ... ... : ... .. . ... ... : ... .. . ... : ... .. . ... : ... .. . ...
ROW E7 : ... .. . ... ... : ... .. . ... ... : ... .. . ... : ... .. . ... : ... .. . ...
ROW E8 : ... .. . ... ... : ... .. . ... ... : ... .. . ... : ... .. . ... : ... .. . ...
ROW E9 : ... .. . ... ... : ... .. . ... ... : ... .. . ... : ... .. . ... : ... .. . ...
ROW EA : ... .. . ... ... : ... .. . ... ... : ... .. . ... : ... .. . ... : ... .. . ...
ROW EB : ... .. . ... ... : ... .. . ... ... : ... .. . ... : ... .. . ... : ... .. . ...
ROW EC : ... .. . ... ... : ... .. . ... ... : ... .. . ... : ... .. . ... : ... .. . ...
ROW ED : ... .. . ... ... : ... .. . ... ... : ... .. . ... : ... .. . ... : ... .. . ...
ROW EE : ... .. . ... ... : ... .. . ... ... : ... .. . ... : ... .. . ... : ... .. . ...
ROW EF : ... .. . ... ... : ... .. . ... ... : ... .. . ... : ... .. . ... : ... .. . ...
ROW F0 : ... .. . ... ... : ... .. . ... ... : ... .. . ... : ... .. . ... : ... .. . ...
ROW F1 : ... .. . ... ... : ... .. . ... ... : ... .. . ... : ... .. . ... : ... .. . ...
ROW F2 : ... .. . ... ... : ... .. . ... ... : ... .. . ... : ... .. . ... : ... .. . ...
ROW F3 : ... .. . ... ... : ... .. . ... ... : ... .. . ... : ... .. . ... : ... .. . ...
ROW F4 : ... .. . ... ... : ... .. . ... ... : ... .. . ... : ... .. . ... : ... .. . ...
ROW F5 : ... .. . ... ... : ... .. . ... ... : ... .. . ... : ... .. . ... : ... .. . ...
ROW F6 : ... .. . ... ... : ... .. . ... ... : ... .. . ... : ... .. . ... : ... .. . ...
ROW F7 : ... .. . ... ... : ... .. . ... ... : ... .. . ... : ... .. . ... : ... .. . ...
ROW F8 : ... .. . ... ... : ... .. . ... ... : ... .. . ... : ... .. . ... : ... .. . ...
ROW F9 : ... .. . ... ... : ... .. . ... ... : ... .. . ... : ... .. . ... : ... .. . ...
ROW FA : ... .. . ... ... : ... .. . ... ... : ... .. . ... : ... .. . ... : ... .. . ...
ROW FB : ... .. . ... ... : ... .. . ... ... : ... .. . ... : ... .. . ... : ... .. . ...
ROW FC : ... .. . ... ... : ... .. . ... ... : ... .. . ... : ... .. . ... : ... .. . ...
ROW FD : ... .. . ... ... : ... .. . ... ... : ... .. . ... : ... .. . ... : ... .. . ...
ROW FE : ... .. . ... ... : ... .. . ... ... : ... .. . ... : ... .. . ... : ... .. . ...
ROW FF : ... .. . ... ... : ... .. . ... ... : ... .. . ... : ... .. . ... : ... .. . ...

# End of export
